/* F:\new\data\furelise.mid (2024-6-3 0:40:11)
   起始位置(h): 00000000, 结束位置(h): 00005FD4, 长度(h): 00005FD5 */

const unsigned char mid_h[24533] = {
	0x4D, 0x54, 0x68, 0x64, 0x00, 0x00, 0x00, 0x06, 0x00, 0x01, 0x00, 0x03,
	0x01, 0xE0, 0x4D, 0x54, 0x72, 0x6B, 0x00, 0x00, 0x00, 0xC7, 0x00, 0xFF,
	0x03, 0x0A, 0xBB, 0xE9, 0xC0, 0xF1, 0xBD, 0xF8, 0xD0, 0xD0, 0xC7, 0xFA,
	0x00, 0xFF, 0x58, 0x04, 0x04, 0x02, 0x18, 0x08, 0x00, 0xFF, 0x51, 0x03,
	0x06, 0xEF, 0x91, 0x85, 0xB2, 0x00, 0xFF, 0x58, 0x04, 0x03, 0x02, 0x18,
	0x08, 0x8B, 0x20, 0xFF, 0x58, 0x04, 0x01, 0x02, 0x18, 0x08, 0x83, 0x60,
	0xFF, 0x58, 0x04, 0x04, 0x02, 0x18, 0x08, 0xDA, 0x00, 0xFF, 0x58, 0x04,
	0x03, 0x02, 0x18, 0x08, 0x8B, 0x20, 0xFF, 0x58, 0x04, 0x01, 0x02, 0x18,
	0x08, 0x83, 0x60, 0xFF, 0x58, 0x04, 0x04, 0x02, 0x18, 0x08, 0xDA, 0x00,
	0xFF, 0x58, 0x04, 0x03, 0x02, 0x18, 0x08, 0x8B, 0x20, 0xFF, 0x58, 0x04,
	0x01, 0x02, 0x18, 0x08, 0x83, 0x60, 0xFF, 0x58, 0x04, 0x04, 0x02, 0x18,
	0x08, 0x81, 0xE1, 0x00, 0xFF, 0x58, 0x04, 0x03, 0x02, 0x18, 0x08, 0x8B,
	0x20, 0xFF, 0x58, 0x04, 0x01, 0x02, 0x18, 0x08, 0x83, 0x60, 0xFF, 0x58,
	0x04, 0x04, 0x02, 0x18, 0x08, 0xE9, 0x00, 0xFF, 0x58, 0x04, 0x03, 0x02,
	0x18, 0x08, 0x8B, 0x20, 0xFF, 0x58, 0x04, 0x01, 0x02, 0x18, 0x08, 0x83,
	0x60, 0xFF, 0x58, 0x04, 0x04, 0x02, 0x18, 0x08, 0xE9, 0x00, 0xFF, 0x58,
	0x04, 0x03, 0x02, 0x18, 0x08, 0x8B, 0x20, 0xFF, 0x58, 0x04, 0x01, 0x02,
	0x18, 0x08, 0x83, 0x60, 0xFF, 0x58, 0x04, 0x04, 0x02, 0x18, 0x08, 0x8C,
	0xC5, 0x00, 0xFF, 0x2F, 0x00, 0x4D, 0x54, 0x72, 0x6B, 0x00, 0x00, 0x32,
	0x24, 0x00, 0xFF, 0x03, 0x05, 0x50, 0x69, 0x61, 0x6E, 0x6F, 0x00, 0xFF,
	0x04, 0x1C, 0x4D, 0x69, 0x63, 0x72, 0x6F, 0x73, 0x6F, 0x66, 0x74, 0x20,
	0x47, 0x53, 0x20, 0x57, 0x61, 0x76, 0x65, 0x74, 0x61, 0x62, 0x6C, 0x65,
	0x20, 0x53, 0x79, 0x6E, 0x74, 0x68, 0x00, 0xC0, 0x00, 0x00, 0xB0, 0x0A,
	0x40, 0x8B, 0x20, 0x90, 0x3C, 0x64, 0x81, 0x10, 0x80, 0x3C, 0x40, 0x10,
	0x90, 0x3C, 0x64, 0x81, 0x10, 0x80, 0x3C, 0x40, 0x10, 0x90, 0x3C, 0x64,
	0x81, 0x10, 0x80, 0x3C, 0x40, 0x10, 0x90, 0x3C, 0x64, 0x83, 0x30, 0x80,
	0x3C, 0x40, 0x87, 0x70, 0x90, 0x3C, 0x64, 0x81, 0x10, 0x80, 0x3C, 0x40,
	0x10, 0x90, 0x3C, 0x64, 0x81, 0x10, 0x80, 0x3C, 0x40, 0x10, 0x90, 0x3C,
	0x64, 0x81, 0x10, 0x80, 0x3C, 0x40, 0x10, 0x90, 0x3C, 0x64, 0x83, 0x30,
	0x80, 0x3C, 0x40, 0x87, 0x70, 0x90, 0x3C, 0x64, 0x81, 0x10, 0x80, 0x3C,
	0x40, 0x10, 0x90, 0x3C, 0x64, 0x81, 0x10, 0x80, 0x3C, 0x40, 0x10, 0x90,
	0x3C, 0x64, 0x81, 0x10, 0x80, 0x3C, 0x40, 0x10, 0x90, 0x3C, 0x64, 0x00,
	0x90, 0x40, 0x64, 0x83, 0x30, 0x80, 0x3C, 0x40, 0x00, 0x80, 0x40, 0x40,
	0x30, 0x90, 0x3C, 0x64, 0x00, 0x90, 0x40, 0x64, 0x81, 0x10, 0x80, 0x3C,
	0x40, 0x00, 0x80, 0x40, 0x40, 0x10, 0x90, 0x3C, 0x64, 0x00, 0x90, 0x40,
	0x64, 0x81, 0x10, 0x80, 0x3C, 0x40, 0x00, 0x80, 0x40, 0x40, 0x10, 0x90,
	0x3C, 0x64, 0x00, 0x90, 0x40, 0x64, 0x81, 0x10, 0x80, 0x3C, 0x40, 0x00,
	0x80, 0x40, 0x40, 0x10, 0x90, 0x3C, 0x64, 0x00, 0x90, 0x40, 0x64, 0x83,
	0x30, 0x80, 0x3C, 0x40, 0x00, 0x80, 0x40, 0x40, 0x30, 0x90, 0x3C, 0x64,
	0x00, 0x90, 0x40, 0x64, 0x81, 0x10, 0x80, 0x3C, 0x40, 0x00, 0x80, 0x40,
	0x40, 0x10, 0x90, 0x3C, 0x64, 0x00, 0x90, 0x40, 0x64, 0x81, 0x10, 0x80,
	0x3C, 0x40, 0x00, 0x80, 0x40, 0x40, 0x10, 0x90, 0x3C, 0x64, 0x00, 0x90,
	0x40, 0x64, 0x81, 0x10, 0x80, 0x3C, 0x40, 0x00, 0x80, 0x40, 0x40, 0x10,
	0x90, 0x3C, 0x64, 0x00, 0x90, 0x40, 0x64, 0x00, 0x90, 0x43, 0x64, 0x83,
	0x30, 0x80, 0x3C, 0x40, 0x00, 0x80, 0x40, 0x40, 0x00, 0x80, 0x43, 0x40,
	0x30, 0x90, 0x3C, 0x64, 0x00, 0x90, 0x40, 0x64, 0x00, 0x90, 0x43, 0x64,
	0x81, 0x10, 0x80, 0x3C, 0x40, 0x00, 0x80, 0x40, 0x40, 0x00, 0x80, 0x43,
	0x40, 0x10, 0x90, 0x3C, 0x64, 0x00, 0x90, 0x40, 0x64, 0x00, 0x90, 0x43,
	0x64, 0x81, 0x10, 0x80, 0x3C, 0x40, 0x00, 0x80, 0x40, 0x40, 0x00, 0x80,
	0x43, 0x40, 0x10, 0x90, 0x3C, 0x64, 0x00, 0x90, 0x40, 0x64, 0x00, 0x90,
	0x43, 0x64, 0x81, 0x10, 0x80, 0x3C, 0x40, 0x00, 0x80, 0x40, 0x40, 0x00,
	0x80, 0x43, 0x40, 0x10, 0x90, 0x3C, 0x64, 0x00, 0x90, 0x40, 0x64, 0x00,
	0x90, 0x43, 0x64, 0x83, 0x30, 0x80, 0x3C, 0x40, 0x00, 0x80, 0x40, 0x40,
	0x00, 0x80, 0x43, 0x40, 0x30, 0x90, 0x3C, 0x64, 0x00, 0x90, 0x40, 0x64,
	0x00, 0x90, 0x43, 0x64, 0x81, 0x10, 0x80, 0x3C, 0x40, 0x00, 0x80, 0x40,
	0x40, 0x00, 0x80, 0x43, 0x40, 0x10, 0x90, 0x3C, 0x64, 0x00, 0x90, 0x40,
	0x64, 0x00, 0x90, 0x43, 0x64, 0x81, 0x10, 0x80, 0x3C, 0x40, 0x00, 0x80,
	0x40, 0x40, 0x00, 0x80, 0x43, 0x40, 0x10, 0x90, 0x3C, 0x64, 0x00, 0x90,
	0x40, 0x64, 0x00, 0x90, 0x43, 0x64, 0x81, 0x10, 0x80, 0x3C, 0x40, 0x00,
	0x80, 0x40, 0x40, 0x00, 0x80, 0x43, 0x40, 0x10, 0x90, 0x40, 0x6E, 0x00,
	0x90, 0x42, 0x6E, 0x00, 0x90, 0x48, 0x6E, 0x86, 0x60, 0x80, 0x40, 0x40,
	0x00, 0x80, 0x42, 0x40, 0x00, 0x80, 0x48, 0x40, 0x60, 0x90, 0x3F, 0x6E,
	0x00, 0x90, 0x42, 0x6E, 0x00, 0x90, 0x47, 0x6E, 0x85, 0x08, 0x80, 0x3F,
	0x40, 0x00, 0x80, 0x42, 0x40, 0x00, 0x80, 0x47, 0x40, 0x48, 0x90, 0x3F,
	0x6E, 0x00, 0x90, 0x42, 0x6E, 0x81, 0x58, 0x80, 0x3F, 0x40, 0x00, 0x80,
	0x42, 0x40, 0x18, 0x90, 0x3B, 0x6E, 0x00, 0x90, 0x42, 0x6E, 0x00, 0x90,
	0x45, 0x6E, 0x83, 0x30, 0x80, 0x42, 0x40, 0x00, 0x80, 0x45, 0x40, 0x30,
	0x90, 0x40, 0x6E, 0x00, 0x90, 0x43, 0x6E, 0x83, 0x00, 0x80, 0x3B, 0x40,
	0x30, 0x80, 0x40, 0x40, 0x00, 0x80, 0x43, 0x40, 0x30, 0x90, 0x39, 0x6E,
	0x00, 0x90, 0x3E, 0x6E, 0x00, 0x90, 0x42, 0x6E, 0x83, 0x30, 0x80, 0x39,
	0x40, 0x00, 0x80, 0x3E, 0x40, 0x00, 0x80, 0x42, 0x40, 0x30, 0x90, 0x39,
	0x6E, 0x00, 0x90, 0x3E, 0x6E, 0x83, 0x30, 0x80, 0x39, 0x40, 0x00, 0x80,
	0x3E, 0x40, 0x30, 0x90, 0x37, 0x6E, 0x00, 0x90, 0x3C, 0x6E, 0x85, 0x68,
	0x90, 0x3B, 0x6E, 0x6C, 0x80, 0x3B, 0x40, 0x00, 0x90, 0x3C, 0x6E, 0x0C,
	0x80, 0x37, 0x40, 0x00, 0x80, 0x3C, 0x40, 0x60, 0x80, 0x3C, 0x40, 0x00,
	0x90, 0x37, 0x6E, 0x00, 0x90, 0x3B, 0x6E, 0x00, 0x90, 0x3E, 0x6E, 0x83,
	0x30, 0x80, 0x37, 0x40, 0x00, 0x80, 0x3B, 0x40, 0x00, 0x80, 0x3E, 0x40,
	0x30, 0x90, 0x37, 0x6E, 0x82, 0x44, 0x80, 0x37, 0x40, 0x24, 0x90, 0x3E,
	0x6E, 0x6C, 0x80, 0x3E, 0x40, 0x0C, 0x90, 0x37, 0x6E, 0x00, 0x90, 0x3C,
	0x6E, 0x00, 0x90, 0x40, 0x6E, 0x83, 0x30, 0x80, 0x37, 0x40, 0x00, 0x80,
	0x3C, 0x40, 0x00, 0x80, 0x40, 0x40, 0x30, 0x90, 0x3C, 0x6E, 0x81, 0x58,
	0x80, 0x3C, 0x40, 0x18, 0x90, 0x40, 0x6E, 0x81, 0x58, 0x80, 0x40, 0x40,
	0x18, 0x90, 0x43, 0x6E, 0x81, 0x58, 0x80, 0x43, 0x40, 0x18, 0x90, 0x48,
	0x6E, 0x81, 0x58, 0x80, 0x48, 0x40, 0x18, 0x90, 0x4C, 0x6E, 0x81, 0x58,
	0x80, 0x4C, 0x40, 0x18, 0x90, 0x4F, 0x6E, 0x81, 0x58, 0x80, 0x4F, 0x40,
	0x18, 0x90, 0x54, 0x6E, 0x00, 0x90, 0x4E, 0x6E, 0x00, 0x90, 0x4C, 0x6E,
	0x86, 0x60, 0x80, 0x54, 0x40, 0x00, 0x80, 0x4E, 0x40, 0x00, 0x80, 0x4C,
	0x40, 0x60, 0x90, 0x53, 0x6E, 0x00, 0x90, 0x4D, 0x6E, 0x00, 0x90, 0x4A,
	0x6E, 0x85, 0x08, 0x80, 0x53, 0x40, 0x00, 0x80, 0x4D, 0x40, 0x00, 0x80,
	0x4A, 0x40, 0x48, 0x90, 0x4D, 0x6E, 0x00, 0x90, 0x4A, 0x6E, 0x81, 0x58,
	0x80, 0x4D, 0x40, 0x00, 0x80, 0x4A, 0x40, 0x18, 0x90, 0x51, 0x6E, 0x00,
	0x90, 0x4E, 0x6E, 0x00, 0x90, 0x47, 0x6E, 0x83, 0x30, 0x80, 0x51, 0x40,
	0x00, 0x80, 0x4E, 0x40, 0x30, 0x90, 0x4F, 0x6E, 0x00, 0x90, 0x4C, 0x6E,
	0x83, 0x00, 0x80, 0x47, 0x40, 0x30, 0x80, 0x4F, 0x40, 0x00, 0x80, 0x4C,
	0x40, 0x30, 0x90, 0x4D, 0x6E, 0x00, 0x90, 0x4A, 0x6E, 0x00, 0x90, 0x45,
	0x6E, 0x83, 0x30, 0x80, 0x4D, 0x40, 0x00, 0x80, 0x4A, 0x40, 0x00, 0x80,
	0x45, 0x40, 0x30, 0x90, 0x4A, 0x6E, 0x00, 0x90, 0x45, 0x6E, 0x83, 0x30,
	0x80, 0x4A, 0x40, 0x00, 0x80, 0x45, 0x40, 0x30, 0x90, 0x48, 0x6E, 0x00,
	0x90, 0x43, 0x6E, 0x85, 0x68, 0x90, 0x47, 0x6E, 0x6C, 0x80, 0x47, 0x40,
	0x00, 0x90, 0x48, 0x6E, 0x0C, 0x80, 0x48, 0x40, 0x00, 0x80, 0x43, 0x40,
	0x60, 0x80, 0x48, 0x40, 0x00, 0x90, 0x4A, 0x6E, 0x00, 0x90, 0x47, 0x6E,
	0x00, 0x90, 0x43, 0x6E, 0x83, 0x30, 0x80, 0x4A, 0x40, 0x00, 0x80, 0x47,
	0x40, 0x00, 0x80, 0x43, 0x40, 0x30, 0x90, 0x4A, 0x6E, 0x00, 0x90, 0x47,
	0x6E, 0x00, 0x90, 0x43, 0x6E, 0x82, 0x44, 0x80, 0x4A, 0x40, 0x00, 0x80,
	0x47, 0x40, 0x00, 0x80, 0x43, 0x40, 0x24, 0x90, 0x4C, 0x6E, 0x6C, 0x80,
	0x4C, 0x40, 0x0C, 0x90, 0x4A, 0x6E, 0x00, 0x90, 0x47, 0x6E, 0x00, 0x90,
	0x43, 0x6E, 0x86, 0x60, 0x80, 0x4A, 0x40, 0x00, 0x80, 0x47, 0x40, 0x00,
	0x80, 0x43, 0x40, 0x60, 0x90, 0x48, 0x6E, 0x00, 0x90, 0x45, 0x6E, 0x83,
	0x30, 0x80, 0x48, 0x40, 0x00, 0x80, 0x45, 0x40, 0x30, 0x90, 0x3C, 0x6E,
	0x81, 0x10, 0x80, 0x3C, 0x40, 0x10, 0x90, 0x3C, 0x6E, 0x81, 0x10, 0x80,
	0x3C, 0x40, 0x10, 0x90, 0x3C, 0x6E, 0x81, 0x10, 0x80, 0x3C, 0x40, 0x10,
	0x90, 0x3C, 0x6E, 0x83, 0x30, 0x80, 0x3C, 0x40, 0x30, 0x90, 0x3C, 0x6E,
	0x81, 0x10, 0x80, 0x3C, 0x40, 0x10, 0x90, 0x40, 0x6E, 0x81, 0x10, 0x80,
	0x40, 0x40, 0x10, 0x90, 0x43, 0x6E, 0x81, 0x10, 0x80, 0x43, 0x40, 0x10,
	0x90, 0x48, 0x6E, 0x81, 0x70, 0x80, 0x48, 0x40, 0x81, 0x70, 0x90, 0x3C,
	0x6E, 0x81, 0x10, 0x80, 0x3C, 0x40, 0x10, 0x90, 0x3C, 0x6E, 0x81, 0x10,
	0x80, 0x3C, 0x40, 0x10, 0x90, 0x3C, 0x6E, 0x81, 0x10, 0x80, 0x3C, 0x40,
	0x10, 0x90, 0x3C, 0x6E, 0x83, 0x30, 0x80, 0x3C, 0x40, 0x30, 0x90, 0x40,
	0x6E, 0x81, 0x10, 0x80, 0x40, 0x40, 0x10, 0x90, 0x43, 0x6E, 0x81, 0x10,
	0x80, 0x43, 0x40, 0x10, 0x90, 0x48, 0x6E, 0x81, 0x10, 0x80, 0x48, 0x40,
	0x10, 0x90, 0x4C, 0x6E, 0x81, 0x70, 0x80, 0x4C, 0x40, 0x81, 0x70, 0x90,
	0x3C, 0x6E, 0x81, 0x10, 0x80, 0x3C, 0x40, 0x10, 0x90, 0x3C, 0x6E, 0x81,
	0x10, 0x80, 0x3C, 0x40, 0x10, 0x90, 0x3C, 0x6E, 0x81, 0x10, 0x80, 0x3C,
	0x40, 0x10, 0x90, 0x3C, 0x6E, 0x00, 0x90, 0x40, 0x6E, 0x83, 0x30, 0x80,
	0x3C, 0x40, 0x00, 0x80, 0x40, 0x40, 0x30, 0x90, 0x40, 0x6E, 0x81, 0x10,
	0x80, 0x40, 0x40, 0x10, 0x90, 0x43, 0x6E, 0x81, 0x10, 0x80, 0x43, 0x40,
	0x10, 0x90, 0x48, 0x6E, 0x81, 0x10, 0x80, 0x48, 0x40, 0x10, 0x90, 0x3C,
	0x6E, 0x00, 0x90, 0x40, 0x6E, 0x00, 0x90, 0x4C, 0x6E, 0x81, 0x70, 0x80,
	0x4C, 0x40, 0x81, 0x40, 0x80, 0x3C, 0x40, 0x00, 0x80, 0x40, 0x40, 0x30,
	0x90, 0x43, 0x6E, 0x81, 0x10, 0x80, 0x43, 0x40, 0x10, 0x90, 0x48, 0x6E,
	0x81, 0x10, 0x80, 0x48, 0x40, 0x10, 0x90, 0x4C, 0x6E, 0x81, 0x10, 0x80,
	0x4C, 0x40, 0x10, 0x90, 0x3C, 0x6E, 0x00, 0x90, 0x40, 0x6E, 0x00, 0x90,
	0x43, 0x6E, 0x00, 0x90, 0x4F, 0x6E, 0x81, 0x70, 0x80, 0x4F, 0x40, 0x81,
	0x40, 0x80, 0x3C, 0x40, 0x00, 0x80, 0x40, 0x40, 0x00, 0x80, 0x43, 0x40,
	0x30, 0x90, 0x43, 0x6E, 0x81, 0x10, 0x80, 0x43, 0x40, 0x10, 0x90, 0x48,
	0x6E, 0x81, 0x10, 0x80, 0x48, 0x40, 0x10, 0x90, 0x4C, 0x6E, 0x81, 0x10,
	0x80, 0x4C, 0x40, 0x10, 0x90, 0x3C, 0x6E, 0x00, 0x90, 0x40, 0x6E, 0x00,
	0x90, 0x43, 0x6E, 0x00, 0x90, 0x4F, 0x6E, 0x81, 0x70, 0x80, 0x4F, 0x40,
	0x81, 0x40, 0x80, 0x3C, 0x40, 0x00, 0x80, 0x40, 0x40, 0x00, 0x80, 0x43,
	0x40, 0x30, 0x90, 0x48, 0x6E, 0x81, 0x10, 0x80, 0x48, 0x40, 0x10, 0x90,
	0x4C, 0x6E, 0x81, 0x10, 0x80, 0x4C, 0x40, 0x10, 0x90, 0x4F, 0x6E, 0x81,
	0x10, 0x80, 0x4F, 0x40, 0x10, 0x90, 0x54, 0x6E, 0x00, 0x90, 0x4E, 0x6E,
	0x00, 0x90, 0x4C, 0x6E, 0x86, 0x60, 0x80, 0x54, 0x40, 0x00, 0x80, 0x4E,
	0x40, 0x00, 0x80, 0x4C, 0x40, 0x60, 0x90, 0x53, 0x6E, 0x00, 0x90, 0x4D,
	0x6E, 0x00, 0x90, 0x4A, 0x6E, 0x85, 0x08, 0x80, 0x53, 0x40, 0x00, 0x80,
	0x4D, 0x40, 0x00, 0x80, 0x4A, 0x40, 0x48, 0x90, 0x4D, 0x6E, 0x00, 0x90,
	0x4A, 0x6E, 0x81, 0x58, 0x80, 0x4D, 0x40, 0x00, 0x80, 0x4A, 0x40, 0x18,
	0x90, 0x51, 0x6E, 0x00, 0x90, 0x4E, 0x6E, 0x00, 0x90, 0x47, 0x6E, 0x83,
	0x30, 0x80, 0x51, 0x40, 0x00, 0x80, 0x4E, 0x40, 0x30, 0x90, 0x4F, 0x6E,
	0x00, 0x90, 0x4C, 0x6E, 0x83, 0x00, 0x80, 0x47, 0x40, 0x30, 0x80, 0x4F,
	0x40, 0x00, 0x80, 0x4C, 0x40, 0x30, 0x90, 0x4D, 0x6E, 0x00, 0x90, 0x4A,
	0x6E, 0x00, 0x90, 0x45, 0x6E, 0x83, 0x30, 0x80, 0x4D, 0x40, 0x00, 0x80,
	0x4A, 0x40, 0x00, 0x80, 0x45, 0x40, 0x30, 0x90, 0x4A, 0x6E, 0x00, 0x90,
	0x45, 0x6E, 0x83, 0x30, 0x80, 0x4A, 0x40, 0x00, 0x80, 0x45, 0x40, 0x30,
	0x90, 0x48, 0x6E, 0x00, 0x90, 0x43, 0x6E, 0x85, 0x68, 0x90, 0x47, 0x6E,
	0x6C, 0x80, 0x47, 0x40, 0x00, 0x90, 0x48, 0x6E, 0x0C, 0x80, 0x48, 0x40,
	0x00, 0x80, 0x43, 0x40, 0x60, 0x80, 0x48, 0x40, 0x00, 0x90, 0x4A, 0x6E,
	0x00, 0x90, 0x47, 0x6E, 0x00, 0x90, 0x43, 0x6E, 0x83, 0x30, 0x80, 0x4A,
	0x40, 0x00, 0x80, 0x47, 0x40, 0x00, 0x80, 0x43, 0x40, 0x30, 0x90, 0x43,
	0x6E, 0x82, 0x44, 0x80, 0x43, 0x40, 0x24, 0x90, 0x4A, 0x6E, 0x6C, 0x80,
	0x4A, 0x40, 0x0C, 0x90, 0x37, 0x6E, 0x00, 0x90, 0x3C, 0x6E, 0x00, 0x90,
	0x40, 0x6E, 0x83, 0x30, 0x80, 0x37, 0x40, 0x00, 0x80, 0x3C, 0x40, 0x00,
	0x80, 0x40, 0x40, 0x30, 0x90, 0x3C, 0x6E, 0x81, 0x58, 0x80, 0x3C, 0x40,
	0x18, 0x90, 0x40, 0x6E, 0x81, 0x58, 0x80, 0x40, 0x40, 0x18, 0x90, 0x43,
	0x6E, 0x81, 0x58, 0x80, 0x43, 0x40, 0x18, 0x90, 0x48, 0x6E, 0x81, 0x58,
	0x80, 0x48, 0x40, 0x18, 0x90, 0x4C, 0x6E, 0x81, 0x58, 0x80, 0x4C, 0x40,
	0x18, 0x90, 0x4F, 0x6E, 0x81, 0x58, 0x80, 0x4F, 0x40, 0x18, 0x90, 0x54,
	0x6E, 0x00, 0x90, 0x4E, 0x6E, 0x00, 0x90, 0x4C, 0x6E, 0x86, 0x60, 0x80,
	0x54, 0x40, 0x00, 0x80, 0x4E, 0x40, 0x00, 0x80, 0x4C, 0x40, 0x60, 0x90,
	0x53, 0x6E, 0x00, 0x90, 0x4D, 0x6E, 0x00, 0x90, 0x4A, 0x6E, 0x85, 0x08,
	0x80, 0x53, 0x40, 0x00, 0x80, 0x4D, 0x40, 0x00, 0x80, 0x4A, 0x40, 0x48,
	0x90, 0x4D, 0x6E, 0x00, 0x90, 0x4A, 0x6E, 0x81, 0x58, 0x80, 0x4D, 0x40,
	0x00, 0x80, 0x4A, 0x40, 0x18, 0x90, 0x51, 0x6E, 0x00, 0x90, 0x4E, 0x6E,
	0x00, 0x90, 0x47, 0x6E, 0x83, 0x30, 0x80, 0x51, 0x40, 0x00, 0x80, 0x4E,
	0x40, 0x30, 0x90, 0x4F, 0x6E, 0x00, 0x90, 0x4C, 0x6E, 0x83, 0x00, 0x80,
	0x47, 0x40, 0x30, 0x80, 0x4F, 0x40, 0x00, 0x80, 0x4C, 0x40, 0x30, 0x90,
	0x4D, 0x6E, 0x00, 0x90, 0x4A, 0x6E, 0x00, 0x90, 0x45, 0x6E, 0x83, 0x30,
	0x80, 0x4D, 0x40, 0x00, 0x80, 0x4A, 0x40, 0x00, 0x80, 0x45, 0x40, 0x30,
	0x90, 0x4A, 0x6E, 0x00, 0x90, 0x45, 0x6E, 0x83, 0x30, 0x80, 0x4A, 0x40,
	0x00, 0x80, 0x45, 0x40, 0x30, 0x90, 0x48, 0x6E, 0x00, 0x90, 0x43, 0x6E,
	0x85, 0x68, 0x90, 0x47, 0x6E, 0x6C, 0x80, 0x47, 0x40, 0x00, 0x90, 0x48,
	0x6E, 0x0C, 0x80, 0x48, 0x40, 0x00, 0x80, 0x43, 0x40, 0x60, 0x80, 0x48,
	0x40, 0x00, 0x90, 0x4A, 0x6E, 0x00, 0x90, 0x47, 0x6E, 0x00, 0x90, 0x43,
	0x6E, 0x83, 0x30, 0x80, 0x4A, 0x40, 0x00, 0x80, 0x47, 0x40, 0x00, 0x80,
	0x43, 0x40, 0x30, 0x90, 0x4A, 0x6E, 0x00, 0x90, 0x47, 0x6E, 0x00, 0x90,
	0x43, 0x6E, 0x82, 0x44, 0x80, 0x4A, 0x40, 0x00, 0x80, 0x47, 0x40, 0x00,
	0x80, 0x43, 0x40, 0x24, 0x90, 0x4C, 0x6E, 0x6C, 0x80, 0x4C, 0x40, 0x0C,
	0x90, 0x4A, 0x6E, 0x00, 0x90, 0x47, 0x6E, 0x00, 0x90, 0x43, 0x6E, 0x86,
	0x60, 0x80, 0x4A, 0x40, 0x00, 0x80, 0x47, 0x40, 0x00, 0x80, 0x43, 0x40,
	0x60, 0x90, 0x48, 0x6E, 0x00, 0x90, 0x45, 0x6E, 0x83, 0x30, 0x80, 0x48,
	0x40, 0x00, 0x80, 0x45, 0x40, 0x84, 0x10, 0x90, 0x40, 0x64, 0x00, 0x90,
	0x43, 0x64, 0x00, 0x90, 0x48, 0x64, 0x86, 0x60, 0x80, 0x40, 0x40, 0x00,
	0x80, 0x43, 0x40, 0x00, 0x80, 0x48, 0x40, 0x60, 0x90, 0x40, 0x64, 0x00,
	0x90, 0x43, 0x64, 0x00, 0x90, 0x48, 0x64, 0x85, 0x08, 0x80, 0x40, 0x40,
	0x00, 0x80, 0x43, 0x40, 0x00, 0x80, 0x48, 0x40, 0x48, 0x90, 0x40, 0x64,
	0x00, 0x90, 0x43, 0x64, 0x00, 0x90, 0x48, 0x64, 0x81, 0x58, 0x80, 0x40,
	0x40, 0x00, 0x80, 0x43, 0x40, 0x00, 0x80, 0x48, 0x40, 0x18, 0x90, 0x4C,
	0x64, 0x00, 0x90, 0x48, 0x64, 0x00, 0x90, 0x43, 0x64, 0x83, 0x30, 0x80,
	0x4C, 0x40, 0x00, 0x80, 0x48, 0x40, 0x30, 0x90, 0x4A, 0x64, 0x00, 0x90,
	0x47, 0x64, 0x83, 0x00, 0x80, 0x43, 0x40, 0x30, 0x80, 0x4A, 0x40, 0x00,
	0x80, 0x47, 0x40, 0x30, 0x90, 0x3E, 0x64, 0x00, 0x90, 0x41, 0x64, 0x00,
	0x90, 0x47, 0x64, 0x83, 0x30, 0x80, 0x3E, 0x40, 0x00, 0x80, 0x41, 0x40,
	0x00, 0x80, 0x47, 0x40, 0x30, 0x90, 0x3E, 0x64, 0x00, 0x90, 0x43, 0x64,
	0x83, 0x30, 0x80, 0x3E, 0x40, 0x00, 0x80, 0x43, 0x40, 0x30, 0x90, 0x40,
	0x64, 0x00, 0x90, 0x43, 0x64, 0x85, 0x74, 0x80, 0x40, 0x40, 0x00, 0x80,
	0x43, 0x40, 0x54, 0x90, 0x40, 0x64, 0x00, 0x90, 0x43, 0x64, 0x00, 0x90,
	0x48, 0x64, 0x6C, 0x80, 0x40, 0x40, 0x00, 0x80, 0x43, 0x40, 0x00, 0x80,
	0x48, 0x40, 0x0C, 0x90, 0x40, 0x64, 0x00, 0x90, 0x43, 0x64, 0x00, 0x90,
	0x48, 0x64, 0x85, 0x74, 0x80, 0x40, 0x40, 0x00, 0x80, 0x43, 0x40, 0x00,
	0x80, 0x48, 0x40, 0x54, 0x90, 0x4C, 0x64, 0x00, 0x90, 0x48, 0x64, 0x00,
	0x90, 0x43, 0x64, 0x6C, 0x80, 0x4C, 0x40, 0x00, 0x80, 0x48, 0x40, 0x00,
	0x80, 0x43, 0x40, 0x0C, 0x90, 0x4C, 0x64, 0x00, 0x90, 0x48, 0x64, 0x00,
	0x90, 0x43, 0x64, 0x83, 0x30, 0x80, 0x4C, 0x40, 0x00, 0x80, 0x48, 0x40,
	0x30, 0x90, 0x4A, 0x64, 0x00, 0x90, 0x47, 0x64, 0x83, 0x00, 0x80, 0x43,
	0x40, 0x30, 0x80, 0x4A, 0x40, 0x00, 0x80, 0x47, 0x40, 0x30, 0x90, 0x3E,
	0x64, 0x00, 0x90, 0x41, 0x64, 0x00, 0x90, 0x47, 0x64, 0x83, 0x30, 0x80,
	0x3E, 0x40, 0x00, 0x80, 0x41, 0x40, 0x00, 0x80, 0x47, 0x40, 0x30, 0x90,
	0x3E, 0x64, 0x00, 0x90, 0x41, 0x64, 0x00, 0x90, 0x43, 0x64, 0x83, 0x30,
	0x80, 0x3E, 0x40, 0x00, 0x80, 0x41, 0x40, 0x00, 0x80, 0x43, 0x40, 0x30,
	0x90, 0x40, 0x64, 0x00, 0x90, 0x43, 0x64, 0x85, 0x74, 0x80, 0x40, 0x40,
	0x00, 0x80, 0x43, 0x40, 0x54, 0x90, 0x40, 0x64, 0x00, 0x90, 0x43, 0x64,
	0x00, 0x90, 0x48, 0x64, 0x6C, 0x80, 0x40, 0x40, 0x00, 0x80, 0x43, 0x40,
	0x00, 0x80, 0x48, 0x40, 0x0C, 0x90, 0x40, 0x64, 0x00, 0x90, 0x43, 0x64,
	0x00, 0x90, 0x48, 0x64, 0x85, 0x74, 0x80, 0x40, 0x40, 0x00, 0x80, 0x43,
	0x40, 0x00, 0x80, 0x48, 0x40, 0x54, 0x90, 0x4C, 0x64, 0x00, 0x90, 0x48,
	0x64, 0x00, 0x90, 0x43, 0x64, 0x6C, 0x80, 0x4C, 0x40, 0x00, 0x80, 0x48,
	0x40, 0x00, 0x80, 0x43, 0x40, 0x0C, 0x90, 0x4F, 0x6E, 0x00, 0x90, 0x4C,
	0x6E, 0x00, 0x90, 0x48, 0x6E, 0x00, 0x90, 0x45, 0x6E, 0x86, 0x60, 0x80,
	0x4F, 0x40, 0x00, 0x80, 0x4C, 0x40, 0x00, 0x80, 0x48, 0x40, 0x00, 0x80,
	0x45, 0x40, 0x60, 0x90, 0x4D, 0x6E, 0x00, 0x90, 0x4A, 0x6E, 0x00, 0x90,
	0x45, 0x6E, 0x83, 0x30, 0x80, 0x4D, 0x40, 0x00, 0x80, 0x4A, 0x40, 0x00,
	0x80, 0x45, 0x40, 0x30, 0x90, 0x4C, 0x6E, 0x00, 0x90, 0x48, 0x6E, 0x00,
	0x90, 0x43, 0x6E, 0x83, 0x30, 0x80, 0x4C, 0x40, 0x00, 0x80, 0x48, 0x40,
	0x00, 0x80, 0x43, 0x40, 0x30, 0x90, 0x4A, 0x6E, 0x00, 0x90, 0x48, 0x6E,
	0x00, 0x90, 0x45, 0x6E, 0x83, 0x30, 0x80, 0x4A, 0x40, 0x00, 0x80, 0x48,
	0x40, 0x00, 0x80, 0x45, 0x40, 0x30, 0x90, 0x49, 0x6E, 0x00, 0x90, 0x45,
	0x6E, 0x82, 0x44, 0x80, 0x49, 0x40, 0x00, 0x80, 0x45, 0x40, 0x24, 0x90,
	0x4C, 0x6E, 0x6C, 0x80, 0x4C, 0x40, 0x0C, 0x90, 0x4A, 0x6E, 0x00, 0x90,
	0x45, 0x6E, 0x83, 0x30, 0x80, 0x4A, 0x40, 0x00, 0x80, 0x45, 0x40, 0x30,
	0x90, 0x45, 0x6E, 0x82, 0x44, 0x80, 0x45, 0x40, 0x24, 0x90, 0x49, 0x6E,
	0x6C, 0x80, 0x49, 0x40, 0x0C, 0x90, 0x43, 0x6E, 0x00, 0x90, 0x47, 0x6E,
	0x83, 0x30, 0x80, 0x43, 0x40, 0x00, 0x80, 0x47, 0x40, 0x30, 0x90, 0x4F,
	0x64, 0x00, 0x90, 0x43, 0x64, 0x83, 0x30, 0x80, 0x4F, 0x40, 0x00, 0x80,
	0x43, 0x40, 0x30, 0x90, 0x51, 0x64, 0x00, 0x90, 0x45, 0x64, 0x83, 0x30,
	0x80, 0x51, 0x40, 0x00, 0x80, 0x45, 0x40, 0x30, 0x90, 0x53, 0x64, 0x00,
	0x90, 0x47, 0x64, 0x83, 0x30, 0x80, 0x53, 0x40, 0x00, 0x80, 0x47, 0x40,
	0x30, 0x90, 0x54, 0x64, 0x00, 0x90, 0x4E, 0x64, 0x00, 0x90, 0x4C, 0x64,
	0x86, 0x60, 0x80, 0x54, 0x40, 0x00, 0x80, 0x4E, 0x40, 0x00, 0x80, 0x4C,
	0x40, 0x60, 0x90, 0x53, 0x64, 0x00, 0x90, 0x4D, 0x64, 0x00, 0x90, 0x4A,
	0x64, 0x85, 0x08, 0x80, 0x53, 0x40, 0x00, 0x80, 0x4D, 0x40, 0x00, 0x80,
	0x4A, 0x40, 0x48, 0x90, 0x4D, 0x64, 0x00, 0x90, 0x4A, 0x64, 0x81, 0x58,
	0x80, 0x4D, 0x40, 0x00, 0x80, 0x4A, 0x40, 0x18, 0x90, 0x51, 0x64, 0x00,
	0x90, 0x4E, 0x64, 0x00, 0x90, 0x47, 0x64, 0x83, 0x30, 0x80, 0x51, 0x40,
	0x00, 0x80, 0x4E, 0x40, 0x30, 0x90, 0x4F, 0x64, 0x00, 0x90, 0x4C, 0x64,
	0x83, 0x00, 0x80, 0x47, 0x40, 0x30, 0x80, 0x4F, 0x40, 0x00, 0x80, 0x4C,
	0x40, 0x30, 0x90, 0x4D, 0x64, 0x00, 0x90, 0x4A, 0x64, 0x00, 0x90, 0x45,
	0x64, 0x83, 0x30, 0x80, 0x4D, 0x40, 0x00, 0x80, 0x4A, 0x40, 0x00, 0x80,
	0x45, 0x40, 0x30, 0x90, 0x4A, 0x64, 0x00, 0x90, 0x45, 0x64, 0x83, 0x30,
	0x80, 0x4A, 0x40, 0x00, 0x80, 0x45, 0x40, 0x30, 0x90, 0x48, 0x64, 0x00,
	0x90, 0x43, 0x64, 0x85, 0x68, 0x90, 0x47, 0x64, 0x6C, 0x80, 0x47, 0x40,
	0x00, 0x90, 0x48, 0x64, 0x0C, 0x80, 0x48, 0x40, 0x00, 0x80, 0x43, 0x40,
	0x60, 0x80, 0x48, 0x40, 0x00, 0x90, 0x4A, 0x64, 0x00, 0x90, 0x47, 0x64,
	0x00, 0x90, 0x43, 0x64, 0x83, 0x30, 0x80, 0x4A, 0x40, 0x00, 0x80, 0x47,
	0x40, 0x00, 0x80, 0x43, 0x40, 0x30, 0x90, 0x43, 0x64, 0x82, 0x44, 0x80,
	0x43, 0x40, 0x24, 0x90, 0x4A, 0x64, 0x6C, 0x80, 0x4A, 0x40, 0x0C, 0x90,
	0x4C, 0x64, 0x00, 0x90, 0x48, 0x64, 0x00, 0x90, 0x43, 0x64, 0x83, 0x30,
	0x80, 0x4C, 0x40, 0x00, 0x80, 0x48, 0x40, 0x00, 0x80, 0x43, 0x40, 0x30,
	0x90, 0x3C, 0x64, 0x81, 0x58, 0x80, 0x3C, 0x40, 0x18, 0x90, 0x40, 0x64,
	0x81, 0x58, 0x80, 0x40, 0x40, 0x18, 0x90, 0x43, 0x64, 0x81, 0x58, 0x80,
	0x43, 0x40, 0x18, 0x90, 0x48, 0x64, 0x81, 0x58, 0x80, 0x48, 0x40, 0x18,
	0x90, 0x4C, 0x64, 0x81, 0x58, 0x80, 0x4C, 0x40, 0x18, 0x90, 0x4F, 0x64,
	0x81, 0x58, 0x80, 0x4F, 0x40, 0x18, 0x90, 0x54, 0x64, 0x00, 0x90, 0x4E,
	0x64, 0x00, 0x90, 0x4C, 0x64, 0x86, 0x60, 0x80, 0x54, 0x40, 0x00, 0x80,
	0x4E, 0x40, 0x00, 0x80, 0x4C, 0x40, 0x60, 0x90, 0x53, 0x64, 0x00, 0x90,
	0x4D, 0x64, 0x00, 0x90, 0x4A, 0x64, 0x85, 0x08, 0x80, 0x53, 0x40, 0x00,
	0x80, 0x4D, 0x40, 0x00, 0x80, 0x4A, 0x40, 0x48, 0x90, 0x4D, 0x64, 0x00,
	0x90, 0x4A, 0x64, 0x81, 0x58, 0x80, 0x4D, 0x40, 0x00, 0x80, 0x4A, 0x40,
	0x18, 0x90, 0x51, 0x64, 0x00, 0x90, 0x4E, 0x64, 0x00, 0x90, 0x47, 0x64,
	0x83, 0x30, 0x80, 0x51, 0x40, 0x00, 0x80, 0x4E, 0x40, 0x30, 0x90, 0x4F,
	0x64, 0x00, 0x90, 0x4C, 0x64, 0x83, 0x00, 0x80, 0x47, 0x40, 0x30, 0x80,
	0x4F, 0x40, 0x00, 0x80, 0x4C, 0x40, 0x30, 0x90, 0x4D, 0x64, 0x00, 0x90,
	0x4A, 0x64, 0x00, 0x90, 0x45, 0x64, 0x83, 0x30, 0x80, 0x4D, 0x40, 0x00,
	0x80, 0x4A, 0x40, 0x00, 0x80, 0x45, 0x40, 0x30, 0x90, 0x4A, 0x64, 0x00,
	0x90, 0x45, 0x64, 0x83, 0x30, 0x80, 0x4A, 0x40, 0x00, 0x80, 0x45, 0x40,
	0x30, 0x90, 0x48, 0x64, 0x00, 0x90, 0x43, 0x64, 0x85, 0x68, 0x90, 0x47,
	0x64, 0x6C, 0x80, 0x47, 0x40, 0x00, 0x90, 0x48, 0x64, 0x0C, 0x80, 0x48,
	0x40, 0x00, 0x80, 0x43, 0x40, 0x60, 0x80, 0x48, 0x40, 0x00, 0x90, 0x4A,
	0x64, 0x00, 0x90, 0x47, 0x64, 0x00, 0x90, 0x43, 0x64, 0x83, 0x30, 0x80,
	0x4A, 0x40, 0x00, 0x80, 0x47, 0x40, 0x00, 0x80, 0x43, 0x40, 0x30, 0x90,
	0x4A, 0x64, 0x00, 0x90, 0x47, 0x64, 0x00, 0x90, 0x43, 0x64, 0x82, 0x44,
	0x80, 0x4A, 0x40, 0x00, 0x80, 0x47, 0x40, 0x00, 0x80, 0x43, 0x40, 0x24,
	0x90, 0x4C, 0x64, 0x6C, 0x80, 0x4C, 0x40, 0x0C, 0x90, 0x4A, 0x64, 0x00,
	0x90, 0x47, 0x64, 0x00, 0x90, 0x43, 0x64, 0x86, 0x60, 0x80, 0x4A, 0x40,
	0x00, 0x80, 0x47, 0x40, 0x00, 0x80, 0x43, 0x40, 0x60, 0x90, 0x48, 0x64,
	0x00, 0x90, 0x43, 0x64, 0x83, 0x30, 0x80, 0x48, 0x40, 0x00, 0x80, 0x43,
	0x40, 0x84, 0x10, 0x90, 0x40, 0x64, 0x00, 0x90, 0x43, 0x64, 0x00, 0x90,
	0x48, 0x64, 0x86, 0x60, 0x80, 0x40, 0x40, 0x00, 0x80, 0x43, 0x40, 0x00,
	0x80, 0x48, 0x40, 0x60, 0x90, 0x40, 0x64, 0x00, 0x90, 0x43, 0x64, 0x00,
	0x90, 0x48, 0x64, 0x85, 0x08, 0x80, 0x40, 0x40, 0x00, 0x80, 0x43, 0x40,
	0x00, 0x80, 0x48, 0x40, 0x48, 0x90, 0x40, 0x64, 0x00, 0x90, 0x43, 0x64,
	0x00, 0x90, 0x48, 0x64, 0x81, 0x58, 0x80, 0x40, 0x40, 0x00, 0x80, 0x43,
	0x40, 0x00, 0x80, 0x48, 0x40, 0x18, 0x90, 0x4C, 0x64, 0x00, 0x90, 0x48,
	0x64, 0x00, 0x90, 0x43, 0x64, 0x83, 0x30, 0x80, 0x4C, 0x40, 0x00, 0x80,
	0x48, 0x40, 0x30, 0x90, 0x4A, 0x64, 0x00, 0x90, 0x47, 0x64, 0x83, 0x00,
	0x80, 0x43, 0x40, 0x30, 0x80, 0x4A, 0x40, 0x00, 0x80, 0x47, 0x40, 0x30,
	0x90, 0x3E, 0x64, 0x00, 0x90, 0x41, 0x64, 0x00, 0x90, 0x47, 0x64, 0x83,
	0x30, 0x80, 0x3E, 0x40, 0x00, 0x80, 0x41, 0x40, 0x00, 0x80, 0x47, 0x40,
	0x30, 0x90, 0x3E, 0x64, 0x00, 0x90, 0x43, 0x64, 0x83, 0x30, 0x80, 0x3E,
	0x40, 0x00, 0x80, 0x43, 0x40, 0x30, 0x90, 0x40, 0x64, 0x00, 0x90, 0x43,
	0x64, 0x85, 0x74, 0x80, 0x40, 0x40, 0x00, 0x80, 0x43, 0x40, 0x54, 0x90,
	0x40, 0x64, 0x00, 0x90, 0x43, 0x64, 0x00, 0x90, 0x48, 0x64, 0x6C, 0x80,
	0x40, 0x40, 0x00, 0x80, 0x43, 0x40, 0x00, 0x80, 0x48, 0x40, 0x0C, 0x90,
	0x40, 0x64, 0x00, 0x90, 0x43, 0x64, 0x00, 0x90, 0x48, 0x64, 0x85, 0x74,
	0x80, 0x40, 0x40, 0x00, 0x80, 0x43, 0x40, 0x00, 0x80, 0x48, 0x40, 0x54,
	0x90, 0x4C, 0x64, 0x00, 0x90, 0x48, 0x64, 0x00, 0x90, 0x43, 0x64, 0x6C,
	0x80, 0x4C, 0x40, 0x00, 0x80, 0x48, 0x40, 0x00, 0x80, 0x43, 0x40, 0x0C,
	0x90, 0x4C, 0x64, 0x00, 0x90, 0x48, 0x64, 0x00, 0x90, 0x43, 0x64, 0x83,
	0x30, 0x80, 0x4C, 0x40, 0x00, 0x80, 0x48, 0x40, 0x30, 0x90, 0x4A, 0x64,
	0x00, 0x90, 0x47, 0x64, 0x83, 0x00, 0x80, 0x43, 0x40, 0x30, 0x80, 0x4A,
	0x40, 0x00, 0x80, 0x47, 0x40, 0x30, 0x90, 0x3E, 0x64, 0x00, 0x90, 0x41,
	0x64, 0x00, 0x90, 0x47, 0x64, 0x83, 0x30, 0x80, 0x3E, 0x40, 0x00, 0x80,
	0x41, 0x40, 0x00, 0x80, 0x47, 0x40, 0x30, 0x90, 0x3E, 0x64, 0x00, 0x90,
	0x41, 0x64, 0x00, 0x90, 0x43, 0x64, 0x83, 0x30, 0x80, 0x3E, 0x40, 0x00,
	0x80, 0x41, 0x40, 0x00, 0x80, 0x43, 0x40, 0x30, 0x90, 0x40, 0x64, 0x00,
	0x90, 0x43, 0x64, 0x85, 0x74, 0x80, 0x40, 0x40, 0x00, 0x80, 0x43, 0x40,
	0x54, 0x90, 0x40, 0x64, 0x00, 0x90, 0x43, 0x64, 0x00, 0x90, 0x48, 0x64,
	0x6C, 0x80, 0x40, 0x40, 0x00, 0x80, 0x43, 0x40, 0x00, 0x80, 0x48, 0x40,
	0x0C, 0x90, 0x40, 0x64, 0x00, 0x90, 0x43, 0x64, 0x00, 0x90, 0x48, 0x64,
	0x85, 0x74, 0x80, 0x40, 0x40, 0x00, 0x80, 0x43, 0x40, 0x00, 0x80, 0x48,
	0x40, 0x54, 0x90, 0x4C, 0x64, 0x00, 0x90, 0x48, 0x64, 0x00, 0x90, 0x43,
	0x64, 0x6C, 0x80, 0x4C, 0x40, 0x00, 0x80, 0x48, 0x40, 0x00, 0x80, 0x43,
	0x40, 0x0C, 0x90, 0x4F, 0x6E, 0x00, 0x90, 0x4C, 0x6E, 0x00, 0x90, 0x48,
	0x6E, 0x00, 0x90, 0x45, 0x6E, 0x86, 0x60, 0x80, 0x4F, 0x40, 0x00, 0x80,
	0x4C, 0x40, 0x00, 0x80, 0x48, 0x40, 0x00, 0x80, 0x45, 0x40, 0x60, 0x90,
	0x4D, 0x6E, 0x00, 0x90, 0x4A, 0x6E, 0x00, 0x90, 0x45, 0x6E, 0x83, 0x30,
	0x80, 0x4D, 0x40, 0x00, 0x80, 0x4A, 0x40, 0x00, 0x80, 0x45, 0x40, 0x30,
	0x90, 0x4C, 0x6E, 0x00, 0x90, 0x48, 0x6E, 0x00, 0x90, 0x43, 0x6E, 0x83,
	0x30, 0x80, 0x4C, 0x40, 0x00, 0x80, 0x48, 0x40, 0x00, 0x80, 0x43, 0x40,
	0x30, 0x90, 0x4A, 0x6E, 0x00, 0x90, 0x48, 0x6E, 0x00, 0x90, 0x45, 0x6E,
	0x83, 0x30, 0x80, 0x4A, 0x40, 0x00, 0x80, 0x48, 0x40, 0x00, 0x80, 0x45,
	0x40, 0x30, 0x90, 0x49, 0x6E, 0x00, 0x90, 0x45, 0x6E, 0x82, 0x44, 0x80,
	0x49, 0x40, 0x00, 0x80, 0x45, 0x40, 0x24, 0x90, 0x4C, 0x6E, 0x6C, 0x80,
	0x4C, 0x40, 0x0C, 0x90, 0x4A, 0x6E, 0x00, 0x90, 0x45, 0x6E, 0x83, 0x30,
	0x80, 0x4A, 0x40, 0x00, 0x80, 0x45, 0x40, 0x30, 0x90, 0x45, 0x6E, 0x82,
	0x44, 0x80, 0x45, 0x40, 0x24, 0x90, 0x49, 0x6E, 0x6C, 0x80, 0x49, 0x40,
	0x0C, 0x90, 0x43, 0x6E, 0x00, 0x90, 0x47, 0x6E, 0x83, 0x30, 0x80, 0x43,
	0x40, 0x00, 0x80, 0x47, 0x40, 0x30, 0x90, 0x4F, 0x64, 0x00, 0x90, 0x43,
	0x64, 0x83, 0x30, 0x80, 0x4F, 0x40, 0x00, 0x80, 0x43, 0x40, 0x30, 0x90,
	0x51, 0x64, 0x00, 0x90, 0x45, 0x64, 0x83, 0x30, 0x80, 0x51, 0x40, 0x00,
	0x80, 0x45, 0x40, 0x30, 0x90, 0x53, 0x64, 0x00, 0x90, 0x47, 0x64, 0x83,
	0x30, 0x80, 0x53, 0x40, 0x00, 0x80, 0x47, 0x40, 0x30, 0x90, 0x54, 0x64,
	0x00, 0x90, 0x4E, 0x64, 0x00, 0x90, 0x4C, 0x64, 0x86, 0x60, 0x80, 0x54,
	0x40, 0x00, 0x80, 0x4E, 0x40, 0x00, 0x80, 0x4C, 0x40, 0x60, 0x90, 0x53,
	0x64, 0x00, 0x90, 0x4D, 0x64, 0x00, 0x90, 0x4A, 0x64, 0x85, 0x08, 0x80,
	0x53, 0x40, 0x00, 0x80, 0x4D, 0x40, 0x00, 0x80, 0x4A, 0x40, 0x48, 0x90,
	0x4D, 0x64, 0x00, 0x90, 0x4A, 0x64, 0x81, 0x58, 0x80, 0x4D, 0x40, 0x00,
	0x80, 0x4A, 0x40, 0x18, 0x90, 0x51, 0x64, 0x00, 0x90, 0x4E, 0x64, 0x00,
	0x90, 0x47, 0x64, 0x83, 0x30, 0x80, 0x51, 0x40, 0x00, 0x80, 0x4E, 0x40,
	0x30, 0x90, 0x4F, 0x64, 0x00, 0x90, 0x4C, 0x64, 0x83, 0x00, 0x80, 0x47,
	0x40, 0x30, 0x80, 0x4F, 0x40, 0x00, 0x80, 0x4C, 0x40, 0x30, 0x90, 0x4D,
	0x64, 0x00, 0x90, 0x4A, 0x64, 0x00, 0x90, 0x45, 0x64, 0x83, 0x30, 0x80,
	0x4D, 0x40, 0x00, 0x80, 0x4A, 0x40, 0x00, 0x80, 0x45, 0x40, 0x30, 0x90,
	0x4A, 0x64, 0x00, 0x90, 0x45, 0x64, 0x83, 0x30, 0x80, 0x4A, 0x40, 0x00,
	0x80, 0x45, 0x40, 0x30, 0x90, 0x48, 0x64, 0x00, 0x90, 0x43, 0x64, 0x85,
	0x68, 0x90, 0x47, 0x64, 0x6C, 0x80, 0x47, 0x40, 0x00, 0x90, 0x48, 0x64,
	0x0C, 0x80, 0x48, 0x40, 0x00, 0x80, 0x43, 0x40, 0x60, 0x80, 0x48, 0x40,
	0x00, 0x90, 0x4A, 0x64, 0x00, 0x90, 0x47, 0x64, 0x00, 0x90, 0x43, 0x64,
	0x83, 0x30, 0x80, 0x4A, 0x40, 0x00, 0x80, 0x47, 0x40, 0x00, 0x80, 0x43,
	0x40, 0x30, 0x90, 0x43, 0x64, 0x82, 0x44, 0x80, 0x43, 0x40, 0x24, 0x90,
	0x4A, 0x64, 0x6C, 0x80, 0x4A, 0x40, 0x0C, 0x90, 0x4C, 0x64, 0x00, 0x90,
	0x48, 0x64, 0x00, 0x90, 0x43, 0x64, 0x83, 0x30, 0x80, 0x4C, 0x40, 0x00,
	0x80, 0x48, 0x40, 0x00, 0x80, 0x43, 0x40, 0x30, 0x90, 0x3C, 0x64, 0x81,
	0x58, 0x80, 0x3C, 0x40, 0x18, 0x90, 0x40, 0x64, 0x81, 0x58, 0x80, 0x40,
	0x40, 0x18, 0x90, 0x43, 0x64, 0x81, 0x58, 0x80, 0x43, 0x40, 0x18, 0x90,
	0x48, 0x64, 0x81, 0x58, 0x80, 0x48, 0x40, 0x18, 0x90, 0x4C, 0x64, 0x81,
	0x58, 0x80, 0x4C, 0x40, 0x18, 0x90, 0x4F, 0x64, 0x81, 0x58, 0x80, 0x4F,
	0x40, 0x18, 0x90, 0x54, 0x64, 0x00, 0x90, 0x4E, 0x64, 0x00, 0x90, 0x4C,
	0x64, 0x86, 0x60, 0x80, 0x54, 0x40, 0x00, 0x80, 0x4E, 0x40, 0x00, 0x80,
	0x4C, 0x40, 0x60, 0x90, 0x53, 0x64, 0x00, 0x90, 0x4D, 0x64, 0x00, 0x90,
	0x4A, 0x64, 0x85, 0x08, 0x80, 0x53, 0x40, 0x00, 0x80, 0x4D, 0x40, 0x00,
	0x80, 0x4A, 0x40, 0x48, 0x90, 0x4D, 0x64, 0x00, 0x90, 0x4A, 0x64, 0x81,
	0x58, 0x80, 0x4D, 0x40, 0x00, 0x80, 0x4A, 0x40, 0x18, 0x90, 0x51, 0x64,
	0x00, 0x90, 0x4E, 0x64, 0x00, 0x90, 0x47, 0x64, 0x83, 0x30, 0x80, 0x51,
	0x40, 0x00, 0x80, 0x4E, 0x40, 0x30, 0x90, 0x4F, 0x64, 0x00, 0x90, 0x4C,
	0x64, 0x83, 0x00, 0x80, 0x47, 0x40, 0x30, 0x80, 0x4F, 0x40, 0x00, 0x80,
	0x4C, 0x40, 0x30, 0x90, 0x4D, 0x64, 0x00, 0x90, 0x4A, 0x64, 0x00, 0x90,
	0x45, 0x64, 0x83, 0x30, 0x80, 0x4D, 0x40, 0x00, 0x80, 0x4A, 0x40, 0x00,
	0x80, 0x45, 0x40, 0x30, 0x90, 0x4A, 0x64, 0x00, 0x90, 0x45, 0x64, 0x83,
	0x30, 0x80, 0x4A, 0x40, 0x00, 0x80, 0x45, 0x40, 0x30, 0x90, 0x48, 0x64,
	0x00, 0x90, 0x43, 0x64, 0x85, 0x68, 0x90, 0x47, 0x64, 0x6C, 0x80, 0x47,
	0x40, 0x00, 0x90, 0x48, 0x64, 0x0C, 0x80, 0x48, 0x40, 0x00, 0x80, 0x43,
	0x40, 0x60, 0x80, 0x48, 0x40, 0x00, 0x90, 0x4A, 0x64, 0x00, 0x90, 0x47,
	0x64, 0x00, 0x90, 0x43, 0x64, 0x83, 0x30, 0x80, 0x4A, 0x40, 0x00, 0x80,
	0x47, 0x40, 0x00, 0x80, 0x43, 0x40, 0x30, 0x90, 0x4A, 0x64, 0x00, 0x90,
	0x47, 0x64, 0x00, 0x90, 0x43, 0x64, 0x82, 0x44, 0x80, 0x4A, 0x40, 0x00,
	0x80, 0x47, 0x40, 0x00, 0x80, 0x43, 0x40, 0x24, 0x90, 0x4C, 0x64, 0x6C,
	0x80, 0x4C, 0x40, 0x0C, 0x90, 0x4A, 0x64, 0x00, 0x90, 0x47, 0x64, 0x00,
	0x90, 0x43, 0x64, 0x86, 0x60, 0x80, 0x4A, 0x40, 0x00, 0x80, 0x47, 0x40,
	0x00, 0x80, 0x43, 0x40, 0x60, 0x90, 0x48, 0x64, 0x00, 0x90, 0x43, 0x64,
	0x83, 0x30, 0x80, 0x48, 0x40, 0x00, 0x80, 0x43, 0x40, 0x83, 0x18, 0x90,
	0x3B, 0x5A, 0x00, 0x90, 0x3E, 0x5A, 0x00, 0x90, 0x43, 0x5A, 0x6C, 0x80,
	0x3B, 0x40, 0x00, 0x80, 0x3E, 0x40, 0x00, 0x80, 0x43, 0x40, 0x0C, 0xFF,
	0x59, 0x02, 0x01, 0x00, 0x00, 0x90, 0x3B, 0x5A, 0x00, 0x90, 0x3E, 0x5A,
	0x00, 0x90, 0x43, 0x5A, 0x85, 0x74, 0x80, 0x3B, 0x40, 0x00, 0x80, 0x3E,
	0x40, 0x00, 0x80, 0x43, 0x40, 0x54, 0x90, 0x3E, 0x5A, 0x00, 0x90, 0x43,
	0x5A, 0x00, 0x90, 0x47, 0x5A, 0x6C, 0x80, 0x3E, 0x40, 0x00, 0x80, 0x43,
	0x40, 0x00, 0x80, 0x47, 0x40, 0x0C, 0x90, 0x3E, 0x5A, 0x00, 0x90, 0x43,
	0x5A, 0x00, 0x90, 0x47, 0x5A, 0x85, 0x74, 0x80, 0x3E, 0x40, 0x00, 0x80,
	0x43, 0x40, 0x00, 0x80, 0x47, 0x40, 0x54, 0x90, 0x4A, 0x5A, 0x00, 0x90,
	0x47, 0x5A, 0x00, 0x90, 0x43, 0x5A, 0x6C, 0x80, 0x4A, 0x40, 0x00, 0x80,
	0x47, 0x40, 0x00, 0x80, 0x43, 0x40, 0x0C, 0x90, 0x4A, 0x5A, 0x00, 0x90,
	0x47, 0x5A, 0x00, 0x90, 0x43, 0x5A, 0x85, 0x74, 0x80, 0x4A, 0x40, 0x00,
	0x80, 0x47, 0x40, 0x00, 0x80, 0x43, 0x40, 0x54, 0x90, 0x4F, 0x5A, 0x00,
	0x90, 0x4C, 0x5A, 0x6C, 0x80, 0x4F, 0x40, 0x00, 0x80, 0x4C, 0x40, 0x0C,
	0x90, 0x4F, 0x5A, 0x00, 0x90, 0x4F, 0x5A, 0x00, 0x90, 0x4C, 0x5A, 0x85,
	0x74, 0x80, 0x4F, 0x40, 0x00, 0x80, 0x4F, 0x40, 0x00, 0x80, 0x4C, 0x40,
	0x54, 0x90, 0x4C, 0x5A, 0x00, 0x90, 0x48, 0x5A, 0x6C, 0x80, 0x4C, 0x40,
	0x00, 0x80, 0x48, 0x40, 0x0C, 0x90, 0x4F, 0x5A, 0x00, 0x90, 0x4A, 0x5A,
	0x00, 0x90, 0x47, 0x5A, 0x85, 0x74, 0x80, 0x4F, 0x40, 0x00, 0x80, 0x4A,
	0x40, 0x00, 0x80, 0x47, 0x40, 0x54, 0x90, 0x4F, 0x5A, 0x00, 0x90, 0x4C,
	0x5A, 0x00, 0x90, 0x48, 0x5A, 0x6C, 0x80, 0x4F, 0x40, 0x00, 0x80, 0x4C,
	0x40, 0x00, 0x80, 0x48, 0x40, 0x0C, 0x90, 0x4F, 0x5A, 0x00, 0x90, 0x4C,
	0x5A, 0x00, 0x90, 0x48, 0x5A, 0x85, 0x74, 0x80, 0x4C, 0x40, 0x00, 0x80,
	0x48, 0x40, 0x54, 0x90, 0x48, 0x5A, 0x00, 0x90, 0x45, 0x5A, 0x6C, 0x80,
	0x48, 0x40, 0x00, 0x80, 0x45, 0x40, 0x0C, 0x90, 0x47, 0x5A, 0x85, 0x74,
	0x80, 0x4F, 0x40, 0x00, 0x80, 0x47, 0x40, 0x54, 0x90, 0x4A, 0x5A, 0x00,
	0x90, 0x47, 0x5A, 0x6C, 0x80, 0x4A, 0x40, 0x00, 0x80, 0x47, 0x40, 0x0C,
	0x90, 0x4A, 0x5A, 0x00, 0x90, 0x47, 0x5A, 0x85, 0x74, 0x80, 0x4A, 0x40,
	0x00, 0x80, 0x47, 0x40, 0x54, 0x90, 0x47, 0x5A, 0x00, 0x90, 0x43, 0x5A,
	0x6C, 0x80, 0x47, 0x40, 0x00, 0x80, 0x43, 0x40, 0x0C, 0x90, 0x42, 0x5A,
	0x00, 0x90, 0x45, 0x5A, 0x85, 0x74, 0x80, 0x42, 0x40, 0x00, 0x80, 0x45,
	0x40, 0x54, 0x90, 0x4A, 0x5A, 0x00, 0x90, 0x47, 0x5A, 0x6C, 0x80, 0x4A,
	0x40, 0x00, 0x80, 0x47, 0x40, 0x0C, 0x90, 0x4A, 0x5A, 0x00, 0x90, 0x47,
	0x5A, 0x85, 0x74, 0x80, 0x4A, 0x40, 0x00, 0x80, 0x47, 0x40, 0x54, 0x90,
	0x43, 0x5A, 0x00, 0x90, 0x47, 0x5A, 0x6C, 0x80, 0x43, 0x40, 0x00, 0x80,
	0x47, 0x40, 0x0C, 0x90, 0x42, 0x5A, 0x00, 0x90, 0x45, 0x5A, 0x86, 0x60,
	0x80, 0x42, 0x40, 0x00, 0x80, 0x45, 0x40, 0x87, 0x28, 0x90, 0x3B, 0x5A,
	0x00, 0x90, 0x3E, 0x5A, 0x00, 0x90, 0x43, 0x5A, 0x6C, 0x80, 0x3B, 0x40,
	0x00, 0x80, 0x3E, 0x40, 0x00, 0x80, 0x43, 0x40, 0x0C, 0x90, 0x40, 0x64,
	0x00, 0x90, 0x43, 0x64, 0x00, 0x90, 0x48, 0x64, 0x86, 0x60, 0x80, 0x40,
	0x40, 0x00, 0x80, 0x43, 0x40, 0x00, 0x80, 0x48, 0x40, 0x60, 0x90, 0x40,
	0x64, 0x00, 0x90, 0x43, 0x64, 0x00, 0x90, 0x48, 0x64, 0x85, 0x08, 0x80,
	0x40, 0x40, 0x00, 0x80, 0x43, 0x40, 0x00, 0x80, 0x48, 0x40, 0x48, 0x90,
	0x40, 0x64, 0x00, 0x90, 0x43, 0x64, 0x00, 0x90, 0x48, 0x64, 0x81, 0x58,
	0x80, 0x40, 0x40, 0x00, 0x80, 0x43, 0x40, 0x00, 0x80, 0x48, 0x40, 0x18,
	0x90, 0x4C, 0x64, 0x00, 0x90, 0x48, 0x64, 0x00, 0x90, 0x43, 0x64, 0x83,
	0x30, 0x80, 0x4C, 0x40, 0x00, 0x80, 0x48, 0x40, 0x30, 0x90, 0x4A, 0x64,
	0x00, 0x90, 0x47, 0x64, 0x83, 0x00, 0x80, 0x43, 0x40, 0x30, 0x80, 0x4A,
	0x40, 0x00, 0x80, 0x47, 0x40, 0x30, 0x90, 0x3E, 0x64, 0x00, 0x90, 0x41,
	0x64, 0x00, 0x90, 0x47, 0x64, 0x83, 0x30, 0x80, 0x3E, 0x40, 0x00, 0x80,
	0x41, 0x40, 0x00, 0x80, 0x47, 0x40, 0x30, 0x90, 0x3E, 0x64, 0x00, 0x90,
	0x43, 0x64, 0x83, 0x30, 0x80, 0x3E, 0x40, 0x00, 0x80, 0x43, 0x40, 0x30,
	0x90, 0x40, 0x64, 0x00, 0x90, 0x43, 0x64, 0x85, 0x74, 0x80, 0x40, 0x40,
	0x00, 0x80, 0x43, 0x40, 0x54, 0x90, 0x40, 0x64, 0x00, 0x90, 0x43, 0x64,
	0x00, 0x90, 0x48, 0x64, 0x6C, 0x80, 0x40, 0x40, 0x00, 0x80, 0x43, 0x40,
	0x00, 0x80, 0x48, 0x40, 0x0C, 0x90, 0x40, 0x64, 0x00, 0x90, 0x43, 0x64,
	0x00, 0x90, 0x48, 0x64, 0x85, 0x74, 0x80, 0x40, 0x40, 0x00, 0x80, 0x43,
	0x40, 0x00, 0x80, 0x48, 0x40, 0x54, 0x90, 0x4C, 0x64, 0x00, 0x90, 0x48,
	0x64, 0x00, 0x90, 0x43, 0x64, 0x6C, 0x80, 0x4C, 0x40, 0x00, 0x80, 0x48,
	0x40, 0x00, 0x80, 0x43, 0x40, 0x0C, 0x90, 0x4C, 0x64, 0x00, 0x90, 0x48,
	0x64, 0x00, 0x90, 0x43, 0x64, 0x83, 0x30, 0x80, 0x4C, 0x40, 0x00, 0x80,
	0x48, 0x40, 0x30, 0x90, 0x4A, 0x64, 0x00, 0x90, 0x47, 0x64, 0x83, 0x00,
	0x80, 0x43, 0x40, 0x30, 0x80, 0x4A, 0x40, 0x00, 0x80, 0x47, 0x40, 0x30,
	0x90, 0x3E, 0x64, 0x00, 0x90, 0x41, 0x64, 0x00, 0x90, 0x47, 0x64, 0x83,
	0x30, 0x80, 0x3E, 0x40, 0x00, 0x80, 0x41, 0x40, 0x00, 0x80, 0x47, 0x40,
	0x30, 0x90, 0x3E, 0x64, 0x00, 0x90, 0x41, 0x64, 0x00, 0x90, 0x43, 0x64,
	0x83, 0x30, 0x80, 0x3E, 0x40, 0x00, 0x80, 0x41, 0x40, 0x00, 0x80, 0x43,
	0x40, 0x30, 0x90, 0x40, 0x64, 0x00, 0x90, 0x43, 0x64, 0x85, 0x74, 0x80,
	0x40, 0x40, 0x00, 0x80, 0x43, 0x40, 0x54, 0x90, 0x40, 0x64, 0x00, 0x90,
	0x43, 0x64, 0x00, 0x90, 0x48, 0x64, 0x6C, 0x80, 0x40, 0x40, 0x00, 0x80,
	0x43, 0x40, 0x00, 0x80, 0x48, 0x40, 0x0C, 0x90, 0x40, 0x64, 0x00, 0x90,
	0x43, 0x64, 0x00, 0x90, 0x48, 0x64, 0x85, 0x74, 0x80, 0x40, 0x40, 0x00,
	0x80, 0x43, 0x40, 0x00, 0x80, 0x48, 0x40, 0x54, 0x90, 0x4C, 0x64, 0x00,
	0x90, 0x48, 0x64, 0x00, 0x90, 0x43, 0x64, 0x6C, 0x80, 0x4C, 0x40, 0x00,
	0x80, 0x48, 0x40, 0x00, 0x80, 0x43, 0x40, 0x0C, 0x90, 0x4F, 0x6E, 0x00,
	0x90, 0x4C, 0x6E, 0x00, 0x90, 0x48, 0x6E, 0x00, 0x90, 0x45, 0x6E, 0x86,
	0x60, 0x80, 0x4F, 0x40, 0x00, 0x80, 0x4C, 0x40, 0x00, 0x80, 0x48, 0x40,
	0x00, 0x80, 0x45, 0x40, 0x60, 0x90, 0x4D, 0x6E, 0x00, 0x90, 0x4A, 0x6E,
	0x00, 0x90, 0x45, 0x6E, 0x83, 0x30, 0x80, 0x4D, 0x40, 0x00, 0x80, 0x4A,
	0x40, 0x00, 0x80, 0x45, 0x40, 0x30, 0x90, 0x4C, 0x6E, 0x00, 0x90, 0x48,
	0x6E, 0x00, 0x90, 0x43, 0x6E, 0x83, 0x30, 0x80, 0x4C, 0x40, 0x00, 0x80,
	0x48, 0x40, 0x00, 0x80, 0x43, 0x40, 0x30, 0x90, 0x4A, 0x6E, 0x00, 0x90,
	0x48, 0x6E, 0x00, 0x90, 0x45, 0x6E, 0x83, 0x30, 0x80, 0x4A, 0x40, 0x00,
	0x80, 0x48, 0x40, 0x00, 0x80, 0x45, 0x40, 0x30, 0x90, 0x49, 0x6E, 0x00,
	0x90, 0x45, 0x6E, 0x82, 0x44, 0x80, 0x49, 0x40, 0x00, 0x80, 0x45, 0x40,
	0x24, 0x90, 0x4C, 0x6E, 0x6C, 0x80, 0x4C, 0x40, 0x0C, 0x90, 0x4A, 0x6E,
	0x00, 0x90, 0x45, 0x6E, 0x83, 0x30, 0x80, 0x4A, 0x40, 0x00, 0x80, 0x45,
	0x40, 0x30, 0x90, 0x45, 0x6E, 0x82, 0x44, 0x80, 0x45, 0x40, 0x24, 0x90,
	0x49, 0x6E, 0x6C, 0x80, 0x49, 0x40, 0x0C, 0x90, 0x43, 0x6E, 0x00, 0x90,
	0x47, 0x6E, 0x83, 0x30, 0x80, 0x43, 0x40, 0x00, 0x80, 0x47, 0x40, 0x30,
	0x90, 0x4F, 0x64, 0x00, 0x90, 0x43, 0x64, 0x83, 0x30, 0x80, 0x4F, 0x40,
	0x00, 0x80, 0x43, 0x40, 0x30, 0x90, 0x51, 0x64, 0x00, 0x90, 0x45, 0x64,
	0x83, 0x30, 0x80, 0x51, 0x40, 0x00, 0x80, 0x45, 0x40, 0x30, 0x90, 0x53,
	0x64, 0x00, 0x90, 0x47, 0x64, 0x83, 0x30, 0x80, 0x53, 0x40, 0x00, 0x80,
	0x47, 0x40, 0x30, 0x90, 0x54, 0x64, 0x00, 0x90, 0x4E, 0x64, 0x00, 0x90,
	0x4C, 0x64, 0x86, 0x60, 0x80, 0x54, 0x40, 0x00, 0x80, 0x4E, 0x40, 0x00,
	0x80, 0x4C, 0x40, 0x60, 0x90, 0x53, 0x64, 0x00, 0x90, 0x4D, 0x64, 0x00,
	0x90, 0x4A, 0x64, 0x85, 0x08, 0x80, 0x53, 0x40, 0x00, 0x80, 0x4D, 0x40,
	0x00, 0x80, 0x4A, 0x40, 0x48, 0x90, 0x4D, 0x64, 0x00, 0x90, 0x4A, 0x64,
	0x81, 0x58, 0x80, 0x4D, 0x40, 0x00, 0x80, 0x4A, 0x40, 0x18, 0x90, 0x51,
	0x64, 0x00, 0x90, 0x4E, 0x64, 0x00, 0x90, 0x47, 0x64, 0x83, 0x30, 0x80,
	0x51, 0x40, 0x00, 0x80, 0x4E, 0x40, 0x30, 0x90, 0x4F, 0x64, 0x00, 0x90,
	0x4C, 0x64, 0x83, 0x00, 0x80, 0x47, 0x40, 0x30, 0x80, 0x4F, 0x40, 0x00,
	0x80, 0x4C, 0x40, 0x30, 0x90, 0x4D, 0x64, 0x00, 0x90, 0x4A, 0x64, 0x00,
	0x90, 0x45, 0x64, 0x83, 0x30, 0x80, 0x4D, 0x40, 0x00, 0x80, 0x4A, 0x40,
	0x00, 0x80, 0x45, 0x40, 0x30, 0x90, 0x4A, 0x64, 0x00, 0x90, 0x45, 0x64,
	0x83, 0x30, 0x80, 0x4A, 0x40, 0x00, 0x80, 0x45, 0x40, 0x30, 0x90, 0x48,
	0x64, 0x00, 0x90, 0x43, 0x64, 0x85, 0x68, 0x90, 0x47, 0x64, 0x6C, 0x80,
	0x47, 0x40, 0x00, 0x90, 0x48, 0x64, 0x0C, 0x80, 0x48, 0x40, 0x00, 0x80,
	0x43, 0x40, 0x60, 0x80, 0x48, 0x40, 0x00, 0x90, 0x4A, 0x64, 0x00, 0x90,
	0x47, 0x64, 0x00, 0x90, 0x43, 0x64, 0x83, 0x30, 0x80, 0x4A, 0x40, 0x00,
	0x80, 0x47, 0x40, 0x00, 0x80, 0x43, 0x40, 0x30, 0x90, 0x43, 0x64, 0x82,
	0x44, 0x80, 0x43, 0x40, 0x24, 0x90, 0x4A, 0x64, 0x6C, 0x80, 0x4A, 0x40,
	0x0C, 0x90, 0x4C, 0x64, 0x00, 0x90, 0x48, 0x64, 0x00, 0x90, 0x43, 0x64,
	0x83, 0x30, 0x80, 0x4C, 0x40, 0x00, 0x80, 0x48, 0x40, 0x00, 0x80, 0x43,
	0x40, 0x30, 0x90, 0x3C, 0x64, 0x81, 0x58, 0x80, 0x3C, 0x40, 0x18, 0x90,
	0x40, 0x64, 0x81, 0x58, 0x80, 0x40, 0x40, 0x18, 0x90, 0x43, 0x64, 0x81,
	0x58, 0x80, 0x43, 0x40, 0x18, 0x90, 0x48, 0x64, 0x81, 0x58, 0x80, 0x48,
	0x40, 0x18, 0x90, 0x4C, 0x64, 0x81, 0x58, 0x80, 0x4C, 0x40, 0x18, 0x90,
	0x4F, 0x64, 0x81, 0x58, 0x80, 0x4F, 0x40, 0x18, 0x90, 0x54, 0x64, 0x00,
	0x90, 0x4E, 0x64, 0x00, 0x90, 0x4C, 0x64, 0x86, 0x60, 0x80, 0x54, 0x40,
	0x00, 0x80, 0x4E, 0x40, 0x00, 0x80, 0x4C, 0x40, 0x60, 0x90, 0x53, 0x64,
	0x00, 0x90, 0x4D, 0x64, 0x00, 0x90, 0x4A, 0x64, 0x85, 0x08, 0x80, 0x53,
	0x40, 0x00, 0x80, 0x4D, 0x40, 0x00, 0x80, 0x4A, 0x40, 0x48, 0x90, 0x4D,
	0x64, 0x00, 0x90, 0x4A, 0x64, 0x81, 0x58, 0x80, 0x4D, 0x40, 0x00, 0x80,
	0x4A, 0x40, 0x18, 0x90, 0x51, 0x64, 0x00, 0x90, 0x4E, 0x64, 0x00, 0x90,
	0x47, 0x64, 0x83, 0x30, 0x80, 0x51, 0x40, 0x00, 0x80, 0x4E, 0x40, 0x30,
	0x90, 0x4F, 0x64, 0x00, 0x90, 0x4C, 0x64, 0x83, 0x00, 0x80, 0x47, 0x40,
	0x30, 0x80, 0x4F, 0x40, 0x00, 0x80, 0x4C, 0x40, 0x30, 0x90, 0x4D, 0x64,
	0x00, 0x90, 0x4A, 0x64, 0x00, 0x90, 0x45, 0x64, 0x83, 0x30, 0x80, 0x4D,
	0x40, 0x00, 0x80, 0x4A, 0x40, 0x00, 0x80, 0x45, 0x40, 0x30, 0x90, 0x4A,
	0x64, 0x00, 0x90, 0x45, 0x64, 0x83, 0x30, 0x80, 0x4A, 0x40, 0x00, 0x80,
	0x45, 0x40, 0x30, 0x90, 0x48, 0x64, 0x00, 0x90, 0x43, 0x64, 0x85, 0x68,
	0x90, 0x47, 0x64, 0x6C, 0x80, 0x47, 0x40, 0x00, 0x90, 0x48, 0x64, 0x0C,
	0x80, 0x48, 0x40, 0x00, 0x80, 0x43, 0x40, 0x60, 0x80, 0x48, 0x40, 0x00,
	0x90, 0x4A, 0x64, 0x00, 0x90, 0x47, 0x64, 0x00, 0x90, 0x43, 0x64, 0x83,
	0x30, 0x80, 0x4A, 0x40, 0x00, 0x80, 0x47, 0x40, 0x00, 0x80, 0x43, 0x40,
	0x30, 0x90, 0x4A, 0x64, 0x00, 0x90, 0x47, 0x64, 0x00, 0x90, 0x43, 0x64,
	0x82, 0x44, 0x80, 0x4A, 0x40, 0x00, 0x80, 0x47, 0x40, 0x00, 0x80, 0x43,
	0x40, 0x24, 0x90, 0x4C, 0x64, 0x6C, 0x80, 0x4C, 0x40, 0x0C, 0x90, 0x4A,
	0x64, 0x00, 0x90, 0x47, 0x64, 0x00, 0x90, 0x43, 0x64, 0x86, 0x60, 0x80,
	0x4A, 0x40, 0x00, 0x80, 0x47, 0x40, 0x00, 0x80, 0x43, 0x40, 0x60, 0x90,
	0x48, 0x64, 0x00, 0x90, 0x43, 0x64, 0x83, 0x30, 0x80, 0x48, 0x40, 0x00,
	0x80, 0x43, 0x40, 0x83, 0x18, 0x90, 0x3B, 0x5A, 0x00, 0x90, 0x3E, 0x5A,
	0x00, 0x90, 0x43, 0x5A, 0x6C, 0x80, 0x3B, 0x40, 0x00, 0x80, 0x3E, 0x40,
	0x00, 0x80, 0x43, 0x40, 0x0C, 0x90, 0x3B, 0x5A, 0x00, 0x90, 0x3E, 0x5A,
	0x00, 0x90, 0x43, 0x5A, 0x85, 0x74, 0x80, 0x3B, 0x40, 0x00, 0x80, 0x3E,
	0x40, 0x00, 0x80, 0x43, 0x40, 0x54, 0x90, 0x3E, 0x5A, 0x00, 0x90, 0x43,
	0x5A, 0x00, 0x90, 0x47, 0x5A, 0x6C, 0x80, 0x3E, 0x40, 0x00, 0x80, 0x43,
	0x40, 0x00, 0x80, 0x47, 0x40, 0x0C, 0x90, 0x3E, 0x5A, 0x00, 0x90, 0x43,
	0x5A, 0x00, 0x90, 0x47, 0x5A, 0x85, 0x74, 0x80, 0x3E, 0x40, 0x00, 0x80,
	0x43, 0x40, 0x00, 0x80, 0x47, 0x40, 0x54, 0x90, 0x4A, 0x5A, 0x00, 0x90,
	0x47, 0x5A, 0x00, 0x90, 0x43, 0x5A, 0x6C, 0x80, 0x4A, 0x40, 0x00, 0x80,
	0x47, 0x40, 0x00, 0x80, 0x43, 0x40, 0x0C, 0x90, 0x4A, 0x5A, 0x00, 0x90,
	0x47, 0x5A, 0x00, 0x90, 0x43, 0x5A, 0x85, 0x74, 0x80, 0x4A, 0x40, 0x00,
	0x80, 0x47, 0x40, 0x00, 0x80, 0x43, 0x40, 0x54, 0x90, 0x4F, 0x5A, 0x00,
	0x90, 0x4C, 0x5A, 0x6C, 0x80, 0x4F, 0x40, 0x00, 0x80, 0x4C, 0x40, 0x0C,
	0x90, 0x4F, 0x5A, 0x00, 0x90, 0x4F, 0x5A, 0x00, 0x90, 0x4C, 0x5A, 0x85,
	0x74, 0x80, 0x4F, 0x40, 0x00, 0x80, 0x4F, 0x40, 0x00, 0x80, 0x4C, 0x40,
	0x54, 0x90, 0x4C, 0x5A, 0x00, 0x90, 0x48, 0x5A, 0x6C, 0x80, 0x4C, 0x40,
	0x00, 0x80, 0x48, 0x40, 0x0C, 0x90, 0x4F, 0x5A, 0x00, 0x90, 0x4A, 0x5A,
	0x00, 0x90, 0x47, 0x5A, 0x85, 0x74, 0x80, 0x4F, 0x40, 0x00, 0x80, 0x4A,
	0x40, 0x00, 0x80, 0x47, 0x40, 0x54, 0x90, 0x4F, 0x5A, 0x00, 0x90, 0x4C,
	0x5A, 0x00, 0x90, 0x48, 0x5A, 0x6C, 0x80, 0x4F, 0x40, 0x00, 0x80, 0x4C,
	0x40, 0x00, 0x80, 0x48, 0x40, 0x0C, 0x90, 0x4F, 0x5A, 0x00, 0x90, 0x4C,
	0x5A, 0x00, 0x90, 0x48, 0x5A, 0x85, 0x74, 0x80, 0x4C, 0x40, 0x00, 0x80,
	0x48, 0x40, 0x54, 0x90, 0x48, 0x5A, 0x00, 0x90, 0x45, 0x5A, 0x6C, 0x80,
	0x48, 0x40, 0x00, 0x80, 0x45, 0x40, 0x0C, 0x90, 0x47, 0x5A, 0x85, 0x74,
	0x80, 0x4F, 0x40, 0x00, 0x80, 0x47, 0x40, 0x54, 0x90, 0x4A, 0x5A, 0x00,
	0x90, 0x47, 0x5A, 0x6C, 0x80, 0x4A, 0x40, 0x00, 0x80, 0x47, 0x40, 0x0C,
	0x90, 0x4A, 0x5A, 0x00, 0x90, 0x47, 0x5A, 0x85, 0x74, 0x80, 0x4A, 0x40,
	0x00, 0x80, 0x47, 0x40, 0x54, 0x90, 0x43, 0x5A, 0x00, 0x90, 0x47, 0x5A,
	0x6C, 0x80, 0x43, 0x40, 0x00, 0x80, 0x47, 0x40, 0x0C, 0x90, 0x42, 0x5A,
	0x00, 0x90, 0x45, 0x5A, 0x85, 0x74, 0x80, 0x42, 0x40, 0x00, 0x80, 0x45,
	0x40, 0x54, 0x90, 0x4A, 0x5A, 0x00, 0x90, 0x47, 0x5A, 0x6C, 0x80, 0x4A,
	0x40, 0x00, 0x80, 0x47, 0x40, 0x0C, 0x90, 0x4A, 0x5A, 0x00, 0x90, 0x47,
	0x5A, 0x85, 0x74, 0x80, 0x4A, 0x40, 0x00, 0x80, 0x47, 0x40, 0x54, 0x90,
	0x43, 0x5A, 0x00, 0x90, 0x47, 0x5A, 0x6C, 0x80, 0x43, 0x40, 0x00, 0x80,
	0x47, 0x40, 0x0C, 0x90, 0x42, 0x5A, 0x00, 0x90, 0x45, 0x5A, 0x86, 0x60,
	0x80, 0x42, 0x40, 0x00, 0x80, 0x45, 0x40, 0x84, 0x40, 0x90, 0x40, 0x5A,
	0x00, 0x90, 0x42, 0x5A, 0x83, 0x30, 0x80, 0x40, 0x40, 0x00, 0x80, 0x42,
	0x40, 0x30, 0x90, 0x3F, 0x5A, 0x00, 0x90, 0x42, 0x5A, 0x00, 0x90, 0x47,
	0x5A, 0x85, 0x74, 0x80, 0x3F, 0x40, 0x00, 0x80, 0x42, 0x40, 0x00, 0x80,
	0x47, 0x40, 0x54, 0x90, 0x42, 0x6E, 0x00, 0x90, 0x45, 0x6E, 0x00, 0x90,
	0x4A, 0x6E, 0x6C, 0x80, 0x42, 0x40, 0x00, 0x80, 0x45, 0x40, 0x00, 0x80,
	0x4A, 0x40, 0x0C, 0x90, 0x42, 0x6E, 0x00, 0x90, 0x45, 0x6E, 0x00, 0x90,
	0x4A, 0x6E, 0x85, 0x74, 0x80, 0x42, 0x40, 0x00, 0x80, 0x45, 0x40, 0x00,
	0x80, 0x4A, 0x40, 0x54, 0x90, 0x4E, 0x6E, 0x00, 0x90, 0x4A, 0x6E, 0x00,
	0x90, 0x47, 0x6E, 0x6C, 0x80, 0x4E, 0x40, 0x00, 0x80, 0x4A, 0x40, 0x00,
	0x80, 0x47, 0x40, 0x0C, 0x90, 0x4E, 0x6E, 0x00, 0x90, 0x4B, 0x6E, 0x00,
	0x90, 0x47, 0x6E, 0x85, 0x74, 0x80, 0x4E, 0x40, 0x00, 0x80, 0x4B, 0x40,
	0x00, 0x80, 0x47, 0x40, 0x54, 0x90, 0x53, 0x6E, 0x00, 0x90, 0x4F, 0x6E,
	0x00, 0x90, 0x47, 0x6E, 0x6C, 0x80, 0x53, 0x40, 0x00, 0x80, 0x4F, 0x40,
	0x00, 0x80, 0x47, 0x40, 0x0C, 0x90, 0x53, 0x6E, 0x00, 0x90, 0x4F, 0x6E,
	0x00, 0x90, 0x47, 0x6E, 0x85, 0x74, 0x80, 0x53, 0x40, 0x00, 0x80, 0x4F,
	0x40, 0x00, 0x80, 0x47, 0x40, 0x54, 0x90, 0x4C, 0x6E, 0x00, 0x90, 0x49,
	0x6E, 0x00, 0x90, 0x47, 0x6E, 0x6C, 0x80, 0x4C, 0x40, 0x00, 0x80, 0x49,
	0x40, 0x00, 0x80, 0x47, 0x40, 0x0C, 0x90, 0x4B, 0x6E, 0x00, 0x90, 0x47,
	0x6E, 0x85, 0x74, 0x80, 0x4B, 0x40, 0x00, 0x80, 0x47, 0x40, 0x54, 0x90,
	0x4E, 0x6E, 0x00, 0x90, 0x47, 0x6E, 0x6C, 0x80, 0x4E, 0x40, 0x00, 0x80,
	0x47, 0x40, 0x0C, 0x90, 0x4E, 0x6E, 0x00, 0x90, 0x47, 0x6E, 0x83, 0x30,
	0x80, 0x4E, 0x40, 0x00, 0x80, 0x47, 0x40, 0x30, 0x90, 0x3C, 0x6E, 0x00,
	0x90, 0x3E, 0x6E, 0x83, 0x30, 0x80, 0x3C, 0x40, 0x00, 0x80, 0x3E, 0x40,
	0x30, 0x90, 0x3B, 0x5A, 0x00, 0x90, 0x3E, 0x5A, 0x00, 0x90, 0x43, 0x5A,
	0x85, 0x74, 0x80, 0x3B, 0x40, 0x00, 0x80, 0x3E, 0x40, 0x00, 0x80, 0x43,
	0x40, 0x54, 0x90, 0x3E, 0x5A, 0x00, 0x90, 0x43, 0x5A, 0x00, 0x90, 0x47,
	0x5A, 0x6C, 0x80, 0x3E, 0x40, 0x00, 0x80, 0x43, 0x40, 0x00, 0x80, 0x47,
	0x40, 0x0C, 0x90, 0x3E, 0x5A, 0x00, 0x90, 0x43, 0x5A, 0x00, 0x90, 0x47,
	0x5A, 0x85, 0x74, 0x80, 0x3E, 0x40, 0x00, 0x80, 0x43, 0x40, 0x00, 0x80,
	0x47, 0x40, 0x54, 0x90, 0x4A, 0x5A, 0x00, 0x90, 0x47, 0x5A, 0x00, 0x90,
	0x43, 0x5A, 0x6C, 0x80, 0x4A, 0x40, 0x00, 0x80, 0x47, 0x40, 0x00, 0x80,
	0x43, 0x40, 0x0C, 0x90, 0x4A, 0x5A, 0x00, 0x90, 0x47, 0x5A, 0x00, 0x90,
	0x43, 0x5A, 0x85, 0x74, 0x80, 0x4A, 0x40, 0x00, 0x80, 0x47, 0x40, 0x00,
	0x80, 0x43, 0x40, 0x54, 0x90, 0x4F, 0x5A, 0x00, 0x90, 0x4C, 0x5A, 0x6C,
	0x80, 0x4F, 0x40, 0x00, 0x80, 0x4C, 0x40, 0x0C, 0x90, 0x4F, 0x5A, 0x00,
	0x90, 0x4C, 0x5A, 0x85, 0x74, 0x80, 0x4F, 0x40, 0x00, 0x80, 0x4C, 0x40,
	0x54, 0x90, 0x4C, 0x5A, 0x00, 0x90, 0x48, 0x5A, 0x00, 0x90, 0x43, 0x5A,
	0x6C, 0x80, 0x4C, 0x40, 0x00, 0x80, 0x48, 0x40, 0x00, 0x80, 0x43, 0x40,
	0x0C, 0x90, 0x4A, 0x5A, 0x00, 0x90, 0x47, 0x5A, 0x00, 0x90, 0x43, 0x5A,
	0x85, 0x74, 0x80, 0x4A, 0x40, 0x00, 0x80, 0x47, 0x40, 0x00, 0x80, 0x43,
	0x40, 0x54, 0x90, 0x4C, 0x5A, 0x00, 0x90, 0x48, 0x5A, 0x00, 0x90, 0x42,
	0x5A, 0x6C, 0x80, 0x4C, 0x40, 0x00, 0x80, 0x48, 0x40, 0x00, 0x80, 0x42,
	0x40, 0x0C, 0x90, 0x4C, 0x5A, 0x00, 0x90, 0x48, 0x5A, 0x00, 0x90, 0x42,
	0x5A, 0x85, 0x74, 0x80, 0x4C, 0x40, 0x00, 0x80, 0x48, 0x40, 0x00, 0x80,
	0x42, 0x40, 0x54, 0x90, 0x42, 0x5A, 0x00, 0x90, 0x45, 0x5A, 0x00, 0x90,
	0x48, 0x5A, 0x6C, 0x80, 0x42, 0x40, 0x00, 0x80, 0x45, 0x40, 0x00, 0x80,
	0x48, 0x40, 0x0C, 0x90, 0x43, 0x5A, 0x00, 0x90, 0x47, 0x5A, 0x86, 0x60,
	0x80, 0x43, 0x40, 0x00, 0x80, 0x47, 0x40, 0x84, 0x40, 0x90, 0x40, 0x5A,
	0x00, 0x90, 0x42, 0x5A, 0x83, 0x30, 0x80, 0x40, 0x40, 0x00, 0x80, 0x42,
	0x40, 0x30, 0x90, 0x3F, 0x5A, 0x00, 0x90, 0x42, 0x5A, 0x00, 0x90, 0x47,
	0x5A, 0x85, 0x74, 0x80, 0x3F, 0x40, 0x00, 0x80, 0x42, 0x40, 0x00, 0x80,
	0x47, 0x40, 0x54, 0x90, 0x42, 0x6E, 0x00, 0x90, 0x45, 0x6E, 0x00, 0x90,
	0x4A, 0x6E, 0x6C, 0x80, 0x42, 0x40, 0x00, 0x80, 0x45, 0x40, 0x00, 0x80,
	0x4A, 0x40, 0x0C, 0x90, 0x42, 0x6E, 0x00, 0x90, 0x45, 0x6E, 0x00, 0x90,
	0x4A, 0x6E, 0x85, 0x74, 0x80, 0x42, 0x40, 0x00, 0x80, 0x45, 0x40, 0x00,
	0x80, 0x4A, 0x40, 0x54, 0x90, 0x4E, 0x6E, 0x00, 0x90, 0x4A, 0x6E, 0x00,
	0x90, 0x47, 0x6E, 0x6C, 0x80, 0x4E, 0x40, 0x00, 0x80, 0x4A, 0x40, 0x00,
	0x80, 0x47, 0x40, 0x0C, 0x90, 0x4E, 0x6E, 0x00, 0x90, 0x4B, 0x6E, 0x00,
	0x90, 0x47, 0x6E, 0x85, 0x74, 0x80, 0x4E, 0x40, 0x00, 0x80, 0x4B, 0x40,
	0x00, 0x80, 0x47, 0x40, 0x54, 0x90, 0x53, 0x6E, 0x00, 0x90, 0x4F, 0x6E,
	0x00, 0x90, 0x47, 0x6E, 0x6C, 0x80, 0x53, 0x40, 0x00, 0x80, 0x4F, 0x40,
	0x00, 0x80, 0x47, 0x40, 0x0C, 0x90, 0x53, 0x6E, 0x00, 0x90, 0x4F, 0x6E,
	0x00, 0x90, 0x47, 0x6E, 0x85, 0x74, 0x80, 0x53, 0x40, 0x00, 0x80, 0x4F,
	0x40, 0x00, 0x80, 0x47, 0x40, 0x54, 0x90, 0x4C, 0x6E, 0x00, 0x90, 0x49,
	0x6E, 0x00, 0x90, 0x47, 0x6E, 0x6C, 0x80, 0x4C, 0x40, 0x00, 0x80, 0x49,
	0x40, 0x00, 0x80, 0x47, 0x40, 0x0C, 0x90, 0x4B, 0x6E, 0x00, 0x90, 0x47,
	0x6E, 0x85, 0x74, 0x80, 0x4B, 0x40, 0x00, 0x80, 0x47, 0x40, 0x54, 0x90,
	0x4E, 0x6E, 0x00, 0x90, 0x47, 0x6E, 0x6C, 0x80, 0x4E, 0x40, 0x00, 0x80,
	0x47, 0x40, 0x0C, 0x90, 0x4E, 0x6E, 0x00, 0x90, 0x47, 0x6E, 0x83, 0x30,
	0x80, 0x4E, 0x40, 0x00, 0x80, 0x47, 0x40, 0x30, 0x90, 0x3C, 0x6E, 0x00,
	0x90, 0x3E, 0x6E, 0x83, 0x30, 0x80, 0x3C, 0x40, 0x00, 0x80, 0x3E, 0x40,
	0x30, 0x90, 0x3B, 0x5A, 0x00, 0x90, 0x3E, 0x5A, 0x00, 0x90, 0x43, 0x5A,
	0x85, 0x74, 0x80, 0x3B, 0x40, 0x00, 0x80, 0x3E, 0x40, 0x00, 0x80, 0x43,
	0x40, 0x54, 0x90, 0x3E, 0x5A, 0x00, 0x90, 0x43, 0x5A, 0x00, 0x90, 0x47,
	0x5A, 0x6C, 0x80, 0x3E, 0x40, 0x00, 0x80, 0x43, 0x40, 0x00, 0x80, 0x47,
	0x40, 0x0C, 0x90, 0x3E, 0x5A, 0x00, 0x90, 0x43, 0x5A, 0x00, 0x90, 0x47,
	0x5A, 0x85, 0x74, 0x80, 0x3E, 0x40, 0x00, 0x80, 0x43, 0x40, 0x00, 0x80,
	0x47, 0x40, 0x54, 0x90, 0x4A, 0x5A, 0x00, 0x90, 0x47, 0x5A, 0x00, 0x90,
	0x43, 0x5A, 0x6C, 0x80, 0x4A, 0x40, 0x00, 0x80, 0x47, 0x40, 0x00, 0x80,
	0x43, 0x40, 0x0C, 0x90, 0x4A, 0x5A, 0x00, 0x90, 0x47, 0x5A, 0x00, 0x90,
	0x43, 0x5A, 0x85, 0x74, 0x80, 0x4A, 0x40, 0x00, 0x80, 0x47, 0x40, 0x00,
	0x80, 0x43, 0x40, 0x54, 0x90, 0x4F, 0x5A, 0x00, 0x90, 0x4C, 0x5A, 0x6C,
	0x80, 0x4F, 0x40, 0x00, 0x80, 0x4C, 0x40, 0x0C, 0x90, 0x4F, 0x5A, 0x00,
	0x90, 0x4C, 0x5A, 0x85, 0x74, 0x80, 0x4F, 0x40, 0x00, 0x80, 0x4C, 0x40,
	0x54, 0x90, 0x4C, 0x5A, 0x00, 0x90, 0x48, 0x5A, 0x00, 0x90, 0x43, 0x5A,
	0x6C, 0x80, 0x4C, 0x40, 0x00, 0x80, 0x48, 0x40, 0x00, 0x80, 0x43, 0x40,
	0x0C, 0x90, 0x4A, 0x5A, 0x00, 0x90, 0x47, 0x5A, 0x00, 0x90, 0x43, 0x5A,
	0x85, 0x74, 0x80, 0x4A, 0x40, 0x00, 0x80, 0x47, 0x40, 0x00, 0x80, 0x43,
	0x40, 0x54, 0x90, 0x4C, 0x5A, 0x00, 0x90, 0x48, 0x5A, 0x00, 0x90, 0x42,
	0x5A, 0x6C, 0x80, 0x4C, 0x40, 0x00, 0x80, 0x48, 0x40, 0x00, 0x80, 0x42,
	0x40, 0x0C, 0x90, 0x4C, 0x5A, 0x00, 0x90, 0x48, 0x5A, 0x00, 0x90, 0x42,
	0x5A, 0x85, 0x74, 0x80, 0x4C, 0x40, 0x00, 0x80, 0x48, 0x40, 0x00, 0x80,
	0x42, 0x40, 0x54, 0x90, 0x42, 0x5A, 0x00, 0x90, 0x45, 0x5A, 0x00, 0x90,
	0x48, 0x5A, 0x6C, 0x80, 0x42, 0x40, 0x00, 0x80, 0x45, 0x40, 0x00, 0x80,
	0x48, 0x40, 0x0C, 0x90, 0x43, 0x5A, 0x00, 0x90, 0x47, 0x5A, 0x86, 0x60,
	0x80, 0x43, 0x40, 0x00, 0x80, 0x47, 0x40, 0x84, 0x40, 0x90, 0x4F, 0x5A,
	0x81, 0x10, 0x80, 0x4F, 0x40, 0x10, 0x90, 0x4F, 0x5A, 0x81, 0x10, 0x80,
	0x4F, 0x40, 0x10, 0x90, 0x4F, 0x5A, 0x81, 0x10, 0x80, 0x4F, 0x40, 0x10,
	0x90, 0x54, 0x5A, 0x00, 0x90, 0x4E, 0x5A, 0x00, 0x90, 0x4C, 0x5A, 0x86,
	0x60, 0x80, 0x54, 0x40, 0x00, 0x80, 0x4E, 0x40, 0x00, 0x80, 0x4C, 0x40,
	0x60, 0x90, 0x53, 0x5A, 0x00, 0x90, 0x4D, 0x5A, 0x00, 0x90, 0x4A, 0x5A,
	0x85, 0x08, 0x80, 0x53, 0x40, 0x00, 0x80, 0x4D, 0x40, 0x00, 0x80, 0x4A,
	0x40, 0x48, 0x90, 0x4D, 0x5A, 0x00, 0x90, 0x4A, 0x5A, 0x81, 0x58, 0x80,
	0x4D, 0x40, 0x00, 0x80, 0x4A, 0x40, 0x18, 0x90, 0x51, 0x5A, 0x00, 0x90,
	0x4E, 0x5A, 0x00, 0x90, 0x47, 0x5A, 0x83, 0x30, 0x80, 0x51, 0x40, 0x00,
	0x80, 0x4E, 0x40, 0x30, 0x90, 0x4F, 0x5A, 0x00, 0x90, 0x4C, 0x5A, 0x83,
	0x00, 0x80, 0x47, 0x40, 0x30, 0x80, 0x4F, 0x40, 0x00, 0x80, 0x4C, 0x40,
	0x30, 0x90, 0x4D, 0x5A, 0x00, 0x90, 0x4A, 0x5A, 0x00, 0x90, 0x45, 0x5A,
	0x83, 0x30, 0x80, 0x4D, 0x40, 0x00, 0x80, 0x4A, 0x40, 0x00, 0x80, 0x45,
	0x40, 0x30, 0x90, 0x4A, 0x5A, 0x00, 0x90, 0x45, 0x5A, 0x83, 0x30, 0x80,
	0x4A, 0x40, 0x00, 0x80, 0x45, 0x40, 0x30, 0x90, 0x48, 0x5A, 0x00, 0x90,
	0x43, 0x5A, 0x84, 0x70, 0x90, 0x47, 0x5A, 0x6C, 0x80, 0x47, 0x40, 0x00,
	0x90, 0x48, 0x5A, 0x6C, 0x80, 0x48, 0x40, 0x18, 0x80, 0x43, 0x40, 0x00,
	0x80, 0x48, 0x40, 0x60, 0x90, 0x4A, 0x5A, 0x00, 0x90, 0x47, 0x5A, 0x00,
	0x90, 0x43, 0x5A, 0x83, 0x30, 0x80, 0x4A, 0x40, 0x00, 0x80, 0x47, 0x40,
	0x00, 0x80, 0x43, 0x40, 0x30, 0x90, 0x43, 0x5A, 0x82, 0x44, 0x80, 0x43,
	0x40, 0x24, 0x90, 0x4A, 0x5A, 0x6C, 0x80, 0x4A, 0x40, 0x0C, 0x90, 0x4C,
	0x5A, 0x00, 0x90, 0x48, 0x5A, 0x00, 0x90, 0x43, 0x5A, 0x83, 0x30, 0x80,
	0x4C, 0x40, 0x00, 0x80, 0x48, 0x40, 0x00, 0x80, 0x43, 0x40, 0x30, 0x90,
	0x3C, 0x5A, 0x81, 0x58, 0x80, 0x3C, 0x40, 0x18, 0x90, 0x40, 0x5A, 0x81,
	0x58, 0x80, 0x40, 0x40, 0x18, 0x90, 0x43, 0x5A, 0x81, 0x58, 0x80, 0x43,
	0x40, 0x18, 0x90, 0x48, 0x5A, 0x81, 0x58, 0x80, 0x48, 0x40, 0x18, 0x90,
	0x4C, 0x5A, 0x81, 0x58, 0x80, 0x4C, 0x40, 0x18, 0x90, 0x4F, 0x5A, 0x81,
	0x58, 0x80, 0x4F, 0x40, 0x18, 0x90, 0x54, 0x5A, 0x00, 0x90, 0x4E, 0x5A,
	0x00, 0x90, 0x4C, 0x5A, 0x86, 0x60, 0x80, 0x54, 0x40, 0x00, 0x80, 0x4E,
	0x40, 0x00, 0x80, 0x4C, 0x40, 0x60, 0x90, 0x53, 0x5A, 0x00, 0x90, 0x4D,
	0x5A, 0x00, 0x90, 0x4A, 0x5A, 0x85, 0x08, 0x80, 0x53, 0x40, 0x00, 0x80,
	0x4D, 0x40, 0x00, 0x80, 0x4A, 0x40, 0x48, 0x90, 0x4D, 0x5A, 0x00, 0x90,
	0x4A, 0x5A, 0x81, 0x58, 0x80, 0x4D, 0x40, 0x00, 0x80, 0x4A, 0x40, 0x18,
	0x90, 0x51, 0x5A, 0x00, 0x90, 0x4E, 0x5A, 0x00, 0x90, 0x47, 0x5A, 0x83,
	0x30, 0x80, 0x51, 0x40, 0x00, 0x80, 0x4E, 0x40, 0x30, 0x90, 0x4F, 0x5A,
	0x00, 0x90, 0x4C, 0x5A, 0x83, 0x00, 0x80, 0x47, 0x40, 0x30, 0x80, 0x4F,
	0x40, 0x00, 0x80, 0x4C, 0x40, 0x30, 0x90, 0x4D, 0x5A, 0x00, 0x90, 0x4A,
	0x5A, 0x00, 0x90, 0x45, 0x5A, 0x83, 0x30, 0x80, 0x4D, 0x40, 0x00, 0x80,
	0x4A, 0x40, 0x00, 0x80, 0x45, 0x40, 0x30, 0x90, 0x4A, 0x5A, 0x00, 0x90,
	0x45, 0x5A, 0x83, 0x30, 0x80, 0x4A, 0x40, 0x00, 0x80, 0x45, 0x40, 0x30,
	0x90, 0x48, 0x5A, 0x00, 0x90, 0x43, 0x5A, 0x84, 0x70, 0x90, 0x47, 0x5A,
	0x6C, 0x80, 0x47, 0x40, 0x00, 0x90, 0x48, 0x5A, 0x6C, 0x80, 0x48, 0x40,
	0x18, 0x80, 0x43, 0x40, 0x00, 0x80, 0x48, 0x40, 0x60, 0x90, 0x4A, 0x5A,
	0x00, 0x90, 0x47, 0x5A, 0x00, 0x90, 0x43, 0x5A, 0x83, 0x30, 0x80, 0x4A,
	0x40, 0x00, 0x80, 0x47, 0x40, 0x00, 0x80, 0x43, 0x40, 0x30, 0x90, 0x4A,
	0x5A, 0x00, 0x90, 0x47, 0x5A, 0x00, 0x90, 0x43, 0x5A, 0x82, 0x44, 0x80,
	0x4A, 0x40, 0x00, 0x80, 0x47, 0x40, 0x00, 0x80, 0x43, 0x40, 0x24, 0x90,
	0x4C, 0x5A, 0x6C, 0x80, 0x4C, 0x40, 0x0C, 0x90, 0x4A, 0x5A, 0x00, 0x90,
	0x47, 0x5A, 0x00, 0x90, 0x43, 0x5A, 0x86, 0x60, 0x80, 0x4A, 0x40, 0x00,
	0x80, 0x47, 0x40, 0x00, 0x80, 0x43, 0x40, 0x60, 0x90, 0x48, 0x5A, 0x00,
	0x90, 0x43, 0x5A, 0x83, 0x30, 0x80, 0x48, 0x40, 0x00, 0x80, 0x43, 0x40,
	0x30, 0x90, 0x48, 0x3C, 0x83, 0x30, 0x80, 0x48, 0x40, 0x30, 0x90, 0x43,
	0x3C, 0x83, 0x30, 0x80, 0x43, 0x40, 0x30, 0x90, 0x45, 0x3C, 0x83, 0x30,
	0x80, 0x45, 0x40, 0x30, 0x90, 0x46, 0x3C, 0x83, 0x30, 0x80, 0x46, 0x40,
	0x30, 0x90, 0x47, 0x3C, 0x83, 0x30, 0x80, 0x47, 0x40, 0x30, 0x90, 0x48,
	0x3C, 0x83, 0x30, 0x80, 0x48, 0x40, 0x30, 0x90, 0x4D, 0x5C, 0x83, 0x30,
	0x80, 0x4D, 0x40, 0x30, 0x90, 0x51, 0x3C, 0x83, 0x30, 0x80, 0x51, 0x40,
	0x30, 0x90, 0x4D, 0x51, 0x83, 0x30, 0x80, 0x4D, 0x40, 0x30, 0x90, 0x4C,
	0x3C, 0x83, 0x30, 0x80, 0x4C, 0x40, 0x30, 0x90, 0x4A, 0x3C, 0x83, 0x30,
	0x80, 0x4A, 0x40, 0x30, 0x90, 0x48, 0x3C, 0x83, 0x30, 0x80, 0x48, 0x40,
	0x30, 0x90, 0x47, 0x3C, 0x83, 0x30, 0x80, 0x47, 0x40, 0x30, 0x90, 0x47,
	0x3C, 0x86, 0x60, 0x80, 0x47, 0x40, 0x60, 0x90, 0x48, 0x3C, 0x83, 0x30,
	0x80, 0x48, 0x40, 0x30, 0x90, 0x48, 0x3C, 0x83, 0x30, 0x80, 0x48, 0x40,
	0x30, 0x90, 0x4D, 0x3C, 0x86, 0x60, 0x80, 0x4D, 0x40, 0x60, 0x90, 0x48,
	0x3C, 0x83, 0x30, 0x80, 0x48, 0x40, 0x30, 0x90, 0x45, 0x3C, 0x83, 0x30,
	0x80, 0x45, 0x40, 0x30, 0x90, 0x48, 0x3C, 0x86, 0x60, 0x80, 0x48, 0x40,
	0x60, 0x90, 0x45, 0x3C, 0x83, 0x30, 0x80, 0x45, 0x40, 0x30, 0x90, 0x41,
	0x3C, 0x83, 0x30, 0x80, 0x41, 0x40, 0x30, 0x90, 0x41, 0x3C, 0x00, 0x90,
	0x45, 0x3C, 0x83, 0x30, 0x80, 0x41, 0x40, 0x00, 0x80, 0x45, 0x40, 0x30,
	0x90, 0x40, 0x3C, 0x00, 0x90, 0x43, 0x3C, 0x83, 0x30, 0x80, 0x40, 0x40,
	0x00, 0x80, 0x43, 0x40, 0x30, 0x90, 0x41, 0x3C, 0x00, 0x90, 0x45, 0x3C,
	0x83, 0x30, 0x80, 0x41, 0x40, 0x00, 0x80, 0x45, 0x40, 0x30, 0x90, 0x43,
	0x3C, 0x00, 0x90, 0x46, 0x3C, 0x83, 0x30, 0x80, 0x43, 0x40, 0x00, 0x80,
	0x46, 0x40, 0x30, 0x90, 0x41, 0x3C, 0x00, 0x90, 0x45, 0x3C, 0x8A, 0x10,
	0x80, 0x41, 0x40, 0x00, 0x80, 0x45, 0x40, 0x81, 0x10, 0x90, 0x48, 0x3C,
	0x83, 0x30, 0x80, 0x48, 0x40, 0x30, 0x90, 0x54, 0x3C, 0x83, 0x30, 0x80,
	0x54, 0x40, 0x30, 0x90, 0x51, 0x3C, 0x83, 0x30, 0x80, 0x51, 0x40, 0x30,
	0x90, 0x4C, 0x3C, 0x83, 0x30, 0x80, 0x4C, 0x40, 0x30, 0x90, 0x4D, 0x3C,
	0x83, 0x30, 0x80, 0x4D, 0x40, 0x30, 0x90, 0x51, 0x6A, 0x85, 0x08, 0x80,
	0x51, 0x40, 0x48, 0x90, 0x4F, 0x5B, 0x81, 0x58, 0x80, 0x4F, 0x40, 0x18,
	0x90, 0x4D, 0x56, 0x83, 0x30, 0x80, 0x4D, 0x40, 0x30, 0x90, 0x4C, 0x4C,
	0x83, 0x30, 0x80, 0x4C, 0x40, 0x30, 0x90, 0x54, 0x42, 0x83, 0x30, 0x80,
	0x54, 0x40, 0x30, 0x90, 0x51, 0x3C, 0x83, 0x30, 0x80, 0x51, 0x40, 0x30,
	0x90, 0x4C, 0x3C, 0x83, 0x30, 0x80, 0x4C, 0x40, 0x30, 0x90, 0x4D, 0x3C,
	0x83, 0x30, 0x80, 0x4D, 0x40, 0x30, 0x90, 0x51, 0x6A, 0x85, 0x08, 0x80,
	0x51, 0x40, 0x48, 0x90, 0x4F, 0x5B, 0x81, 0x58, 0x80, 0x4F, 0x40, 0x18,
	0x90, 0x4D, 0x3C, 0x83, 0x30, 0x80, 0x4D, 0x40, 0x30, 0x90, 0x4C, 0x3C,
	0x83, 0x30, 0x80, 0x4C, 0x40, 0x30, 0x90, 0x5B, 0x6E, 0x85, 0x08, 0x80,
	0x5B, 0x40, 0x48, 0x90, 0x59, 0x5A, 0x81, 0x58, 0x80, 0x59, 0x40, 0x18,
	0x90, 0x58, 0x67, 0x83, 0x30, 0x80, 0x58, 0x40, 0x30, 0x90, 0x56, 0x3D,
	0x83, 0x30, 0x80, 0x56, 0x40, 0x30, 0x90, 0x55, 0x5A, 0x83, 0x30, 0x80,
	0x55, 0x40, 0x30, 0x90, 0x56, 0x5A, 0x83, 0x30, 0x80, 0x56, 0x40, 0x30,
	0x90, 0x59, 0x5A, 0x83, 0x30, 0x80, 0x59, 0x40, 0x30, 0x90, 0x56, 0x5A,
	0x83, 0x30, 0x80, 0x56, 0x40, 0x30, 0x90, 0x54, 0x5A, 0x83, 0x30, 0x80,
	0x54, 0x40, 0x30, 0x90, 0x51, 0x5A, 0x83, 0x30, 0x80, 0x51, 0x40, 0x30,
	0x90, 0x4F, 0x5A, 0x83, 0x30, 0x80, 0x4F, 0x40, 0x30, 0x90, 0x52, 0x5A,
	0x83, 0x30, 0x80, 0x52, 0x40, 0x30, 0x90, 0x51, 0x5A, 0x00, 0x90, 0x4D,
	0x5A, 0x8A, 0x10, 0x80, 0x51, 0x40, 0x00, 0x80, 0x4D, 0x40, 0x81, 0x10,
	0x90, 0x48, 0x3C, 0x83, 0x30, 0x80, 0x48, 0x40, 0x30, 0x90, 0x54, 0x3C,
	0x83, 0x30, 0x80, 0x54, 0x40, 0x30, 0x90, 0x51, 0x3C, 0x83, 0x30, 0x80,
	0x51, 0x40, 0x30, 0x90, 0x4C, 0x3C, 0x83, 0x30, 0x80, 0x4C, 0x40, 0x30,
	0x90, 0x4D, 0x3C, 0x83, 0x30, 0x80, 0x4D, 0x40, 0x30, 0x90, 0x51, 0x6A,
	0x85, 0x08, 0x80, 0x51, 0x40, 0x48, 0x90, 0x4F, 0x5B, 0x81, 0x58, 0x80,
	0x4F, 0x40, 0x18, 0x90, 0x4D, 0x56, 0x83, 0x30, 0x80, 0x4D, 0x40, 0x30,
	0x90, 0x4C, 0x4C, 0x83, 0x30, 0x80, 0x4C, 0x40, 0x30, 0x90, 0x54, 0x42,
	0x83, 0x30, 0x80, 0x54, 0x40, 0x30, 0x90, 0x51, 0x3C, 0x83, 0x30, 0x80,
	0x51, 0x40, 0x30, 0x90, 0x4C, 0x3C, 0x83, 0x30, 0x80, 0x4C, 0x40, 0x30,
	0x90, 0x4D, 0x3C, 0x83, 0x30, 0x80, 0x4D, 0x40, 0x30, 0x90, 0x51, 0x6A,
	0x85, 0x08, 0x80, 0x51, 0x40, 0x48, 0x90, 0x4F, 0x5B, 0x81, 0x58, 0x80,
	0x4F, 0x40, 0x18, 0x90, 0x4D, 0x3C, 0x83, 0x30, 0x80, 0x4D, 0x40, 0x30,
	0x90, 0x4C, 0x3C, 0x83, 0x30, 0x80, 0x4C, 0x40, 0x30, 0x90, 0x5B, 0x6E,
	0x85, 0x08, 0x80, 0x5B, 0x40, 0x48, 0x90, 0x59, 0x5A, 0x81, 0x58, 0x80,
	0x59, 0x40, 0x18, 0x90, 0x58, 0x67, 0x83, 0x30, 0x80, 0x58, 0x40, 0x30,
	0x90, 0x56, 0x3D, 0x83, 0x30, 0x80, 0x56, 0x40, 0x30, 0x90, 0x55, 0x5A,
	0x83, 0x30, 0x80, 0x55, 0x40, 0x30, 0x90, 0x56, 0x5A, 0x83, 0x30, 0x80,
	0x56, 0x40, 0x30, 0x90, 0x59, 0x5A, 0x83, 0x30, 0x80, 0x59, 0x40, 0x30,
	0x90, 0x56, 0x5A, 0x83, 0x30, 0x80, 0x56, 0x40, 0x30, 0x90, 0x54, 0x5A,
	0x83, 0x30, 0x80, 0x54, 0x40, 0x30, 0x90, 0x51, 0x5A, 0x83, 0x30, 0x80,
	0x51, 0x40, 0x30, 0x90, 0x4F, 0x5A, 0x83, 0x30, 0x80, 0x4F, 0x40, 0x30,
	0x90, 0x52, 0x5A, 0x83, 0x30, 0x80, 0x52, 0x40, 0x30, 0x90, 0x51, 0x5A,
	0x00, 0x90, 0x4D, 0x5A, 0x8A, 0x10, 0x80, 0x51, 0x40, 0x00, 0x80, 0x4D,
	0x40, 0x81, 0x10, 0x90, 0x45, 0x3C, 0x83, 0x30, 0x80, 0x45, 0x40, 0x30,
	0x90, 0x45, 0x3C, 0x85, 0x08, 0x80, 0x45, 0x40, 0x48, 0x90, 0x46, 0x3C,
	0x81, 0x58, 0x80, 0x46, 0x40, 0x18, 0x90, 0x45, 0x3C, 0x83, 0x30, 0x80,
	0x45, 0x40, 0x30, 0x90, 0x45, 0x3C, 0x83, 0x30, 0x80, 0x45, 0x40, 0x30,
	0x90, 0x51, 0x6E, 0x86, 0x60, 0x80, 0x51, 0x40, 0x60, 0x90, 0x4D, 0x58,
	0x83, 0x30, 0x80, 0x4D, 0x40, 0x30, 0x90, 0x45, 0x4E, 0x83, 0x30, 0x80,
	0x45, 0x40, 0x30, 0x90, 0x45, 0x40, 0x85, 0x08, 0x80, 0x45, 0x40, 0x48,
	0x90, 0x46, 0x3C, 0x81, 0x58, 0x80, 0x46, 0x40, 0x18, 0x90, 0x45, 0x3C,
	0x83, 0x30, 0x80, 0x45, 0x40, 0x30, 0x90, 0x45, 0x3C, 0x83, 0x30, 0x80,
	0x45, 0x40, 0x30, 0x90, 0x51, 0x3C, 0x86, 0x60, 0x80, 0x51, 0x40, 0x60,
	0x90, 0x4D, 0x3C, 0x83, 0x30, 0x80, 0x4D, 0x40, 0x30, 0x90, 0x45, 0x3C,
	0x83, 0x30, 0x80, 0x45, 0x40, 0x30, 0x90, 0x4C, 0x3C, 0x85, 0x08, 0x80,
	0x4C, 0x40, 0x48, 0x90, 0x4A, 0x3C, 0x81, 0x58, 0x80, 0x4A, 0x40, 0x18,
	0x90, 0x4A, 0x3C, 0x83, 0x30, 0x80, 0x4A, 0x40, 0x30, 0x90, 0x4A, 0x3C,
	0x83, 0x30, 0x80, 0x4A, 0x40, 0x30, 0x90, 0x4C, 0x3C, 0x85, 0x08, 0x80,
	0x4C, 0x40, 0x48, 0x90, 0x4A, 0x3C, 0x81, 0x58, 0x80, 0x4A, 0x40, 0x18,
	0x90, 0x4A, 0x3C, 0x83, 0x30, 0x80, 0x4A, 0x40, 0x30, 0x90, 0x4A, 0x3C,
	0x83, 0x30, 0x80, 0x4A, 0x40, 0x30, 0x90, 0x4D, 0x3C, 0x83, 0x30, 0x80,
	0x4D, 0x40, 0x30, 0x90, 0x4C, 0x3C, 0x83, 0x30, 0x80, 0x4C, 0x40, 0x30,
	0x90, 0x4A, 0x3C, 0x83, 0x30, 0x80, 0x4A, 0x40, 0x30, 0x90, 0x4C, 0x3C,
	0x83, 0x30, 0x80, 0x4C, 0x40, 0x30, 0x90, 0x4A, 0x6E, 0x86, 0x60, 0x80,
	0x4A, 0x40, 0x60, 0x90, 0x49, 0x45, 0x83, 0x30, 0x80, 0x49, 0x40, 0x30,
	0x90, 0x45, 0x3C, 0x81, 0x58, 0x80, 0x45, 0x40, 0x18, 0x90, 0x47, 0x3C,
	0x81, 0x58, 0x80, 0x47, 0x40, 0x18, 0x90, 0x48, 0x3C, 0x85, 0x08, 0x80,
	0x48, 0x40, 0x48, 0x90, 0x4A, 0x3C, 0x81, 0x58, 0x80, 0x4A, 0x40, 0x18,
	0x90, 0x48, 0x3C, 0x83, 0x30, 0x80, 0x48, 0x40, 0x30, 0x90, 0x48, 0x3C,
	0x83, 0x30, 0x80, 0x48, 0x40, 0x30, 0x90, 0x54, 0x6E, 0x86, 0x60, 0x80,
	0x54, 0x40, 0x60, 0x90, 0x4F, 0x6E, 0x83, 0x30, 0x80, 0x4F, 0x40, 0x30,
	0x90, 0x48, 0x6E, 0x83, 0x30, 0x80, 0x48, 0x40, 0x30, 0x90, 0x48, 0x6E,
	0x85, 0x08, 0x80, 0x48, 0x40, 0x48, 0x90, 0x4A, 0x6E, 0x81, 0x58, 0x80,
	0x4A, 0x40, 0x18, 0x90, 0x48, 0x6E, 0x83, 0x30, 0x80, 0x48, 0x40, 0x30,
	0x90, 0x48, 0x6E, 0x83, 0x30, 0x80, 0x48, 0x40, 0x30, 0x90, 0x54, 0x6E,
	0x86, 0x60, 0x80, 0x54, 0x40, 0x60, 0x90, 0x4F, 0x6E, 0x83, 0x30, 0x80,
	0x4F, 0x40, 0x30, 0x90, 0x48, 0x5A, 0x81, 0x10, 0x80, 0x48, 0x40, 0x10,
	0x90, 0x48, 0x5A, 0x81, 0x10, 0x80, 0x48, 0x40, 0x10, 0x90, 0x48, 0x5A,
	0x81, 0x10, 0x80, 0x48, 0x40, 0x10, 0x90, 0x4A, 0x5A, 0x85, 0x08, 0x80,
	0x4A, 0x40, 0x48, 0x90, 0x4A, 0x5A, 0x81, 0x58, 0x80, 0x4A, 0x40, 0x18,
	0x90, 0x4C, 0x5A, 0x83, 0x30, 0x80, 0x4C, 0x40, 0x30, 0x90, 0x4A, 0x66,
	0x83, 0x30, 0x80, 0x4A, 0x40, 0x30, 0x90, 0x4C, 0x5A, 0x83, 0x30, 0x80,
	0x4C, 0x40, 0x30, 0x90, 0x4A, 0x5A, 0x83, 0x30, 0x80, 0x4A, 0x40, 0x30,
	0x90, 0x4C, 0x5A, 0x83, 0x30, 0x80, 0x4C, 0x40, 0x30, 0x90, 0x4A, 0x5A,
	0x83, 0x30, 0x80, 0x4A, 0x40, 0x30, 0x90, 0x4C, 0x5A, 0x83, 0x30, 0x80,
	0x4C, 0x40, 0x30, 0x90, 0x4A, 0x5A, 0x83, 0x30, 0x80, 0x4A, 0x40, 0x30,
	0x90, 0x4C, 0x5A, 0x83, 0x30, 0x80, 0x4C, 0x40, 0x30, 0x90, 0x4A, 0x5A,
	0x83, 0x30, 0x80, 0x4A, 0x40, 0x30, 0x90, 0x4C, 0x5A, 0x83, 0x30, 0x80,
	0x4C, 0x40, 0x30, 0x90, 0x4A, 0x5A, 0x83, 0x30, 0x80, 0x4A, 0x40, 0x30,
	0x90, 0x4C, 0x5A, 0x83, 0x30, 0x80, 0x4C, 0x40, 0x30, 0x90, 0x4A, 0x5A,
	0x81, 0x10, 0x80, 0x4A, 0x40, 0x10, 0x90, 0x54, 0x5A, 0x81, 0x10, 0x80,
	0x54, 0x40, 0x10, 0x90, 0x4A, 0x5A, 0x81, 0x10, 0x80, 0x4A, 0x40, 0x10,
	0x90, 0x54, 0x64, 0x00, 0x90, 0x4E, 0x64, 0x00, 0x90, 0x4C, 0x64, 0x86,
	0x60, 0x80, 0x54, 0x40, 0x00, 0x80, 0x4E, 0x40, 0x00, 0x80, 0x4C, 0x40,
	0x60, 0x90, 0x53, 0x64, 0x00, 0x90, 0x4E, 0x64, 0x00, 0x90, 0x4B, 0x64,
	0x85, 0x08, 0x80, 0x53, 0x40, 0x00, 0x80, 0x4E, 0x40, 0x00, 0x80, 0x4B,
	0x40, 0x48, 0x90, 0x4D, 0x64, 0x00, 0x90, 0x4B, 0x64, 0x81, 0x58, 0x80,
	0x4D, 0x40, 0x00, 0x80, 0x4B, 0x40, 0x18, 0x90, 0x51, 0x64, 0x00, 0x90,
	0x4E, 0x64, 0x00, 0x90, 0x47, 0x64, 0x83, 0x30, 0x80, 0x51, 0x40, 0x00,
	0x80, 0x4E, 0x40, 0x30, 0x90, 0x4F, 0x64, 0x00, 0x90, 0x4C, 0x64, 0x83,
	0x00, 0x80, 0x47, 0x40, 0x30, 0x80, 0x4F, 0x40, 0x00, 0x80, 0x4C, 0x40,
	0x30, 0x90, 0x4D, 0x64, 0x00, 0x90, 0x4A, 0x64, 0x00, 0x90, 0x45, 0x64,
	0x83, 0x30, 0x80, 0x4D, 0x40, 0x00, 0x80, 0x4A, 0x40, 0x00, 0x80, 0x45,
	0x40, 0x30, 0x90, 0x4A, 0x64, 0x00, 0x90, 0x45, 0x64, 0x83, 0x30, 0x80,
	0x4A, 0x40, 0x00, 0x80, 0x45, 0x40, 0x30, 0x90, 0x48, 0x64, 0x00, 0x90,
	0x43, 0x64, 0x84, 0x70, 0x90, 0x47, 0x64, 0x6C, 0x80, 0x47, 0x40, 0x00,
	0x90, 0x48, 0x64, 0x6C, 0x80, 0x48, 0x40, 0x18, 0x80, 0x43, 0x40, 0x00,
	0x80, 0x48, 0x40, 0x60, 0x90, 0x4A, 0x64, 0x00, 0x90, 0x47, 0x64, 0x00,
	0x90, 0x43, 0x64, 0x83, 0x30, 0x80, 0x4A, 0x40, 0x00, 0x80, 0x47, 0x40,
	0x00, 0x80, 0x43, 0x40, 0x30, 0x90, 0x43, 0x64, 0x82, 0x44, 0x80, 0x43,
	0x40, 0x24, 0x90, 0x4A, 0x64, 0x6C, 0x80, 0x4A, 0x40, 0x0C, 0x90, 0x4C,
	0x64, 0x00, 0x90, 0x48, 0x64, 0x00, 0x90, 0x43, 0x64, 0x83, 0x30, 0x80,
	0x4C, 0x40, 0x00, 0x80, 0x48, 0x40, 0x00, 0x80, 0x43, 0x40, 0x30, 0x90,
	0x3C, 0x64, 0x81, 0x58, 0x80, 0x3C, 0x40, 0x18, 0x90, 0x40, 0x64, 0x81,
	0x58, 0x80, 0x40, 0x40, 0x18, 0x90, 0x43, 0x64, 0x81, 0x58, 0x80, 0x43,
	0x40, 0x18, 0x90, 0x48, 0x64, 0x81, 0x58, 0x80, 0x48, 0x40, 0x18, 0x90,
	0x4C, 0x64, 0x81, 0x58, 0x80, 0x4C, 0x40, 0x18, 0x90, 0x4F, 0x64, 0x81,
	0x58, 0x80, 0x4F, 0x40, 0x18, 0x90, 0x54, 0x64, 0x00, 0x90, 0x4E, 0x64,
	0x00, 0x90, 0x4C, 0x64, 0x86, 0x60, 0x80, 0x54, 0x40, 0x00, 0x80, 0x4E,
	0x40, 0x00, 0x80, 0x4C, 0x40, 0x60, 0x90, 0x53, 0x64, 0x00, 0x90, 0x4D,
	0x64, 0x00, 0x90, 0x4A, 0x64, 0x85, 0x08, 0x80, 0x53, 0x40, 0x00, 0x80,
	0x4D, 0x40, 0x00, 0x80, 0x4A, 0x40, 0x48, 0x90, 0x4D, 0x64, 0x00, 0x90,
	0x4A, 0x64, 0x81, 0x58, 0x80, 0x4D, 0x40, 0x00, 0x80, 0x4A, 0x40, 0x18,
	0x90, 0x51, 0x64, 0x00, 0x90, 0x4E, 0x64, 0x00, 0x90, 0x47, 0x64, 0x83,
	0x30, 0x80, 0x51, 0x40, 0x00, 0x80, 0x4E, 0x40, 0x30, 0x90, 0x4F, 0x64,
	0x00, 0x90, 0x4C, 0x64, 0x83, 0x00, 0x80, 0x47, 0x40, 0x30, 0x80, 0x4F,
	0x40, 0x00, 0x80, 0x4C, 0x40, 0x30, 0x90, 0x4D, 0x64, 0x00, 0x90, 0x4A,
	0x64, 0x00, 0x90, 0x45, 0x64, 0x83, 0x30, 0x80, 0x4D, 0x40, 0x00, 0x80,
	0x4A, 0x40, 0x00, 0x80, 0x45, 0x40, 0x30, 0x90, 0x4A, 0x64, 0x00, 0x90,
	0x45, 0x64, 0x83, 0x30, 0x80, 0x4A, 0x40, 0x00, 0x80, 0x45, 0x40, 0x30,
	0x90, 0x48, 0x64, 0x00, 0x90, 0x43, 0x64, 0x84, 0x70, 0x90, 0x47, 0x64,
	0x6C, 0x80, 0x47, 0x40, 0x00, 0x90, 0x48, 0x64, 0x6C, 0x80, 0x48, 0x40,
	0x18, 0x80, 0x43, 0x40, 0x00, 0x80, 0x48, 0x40, 0x60, 0x90, 0x4A, 0x64,
	0x00, 0x90, 0x47, 0x64, 0x00, 0x90, 0x43, 0x64, 0x83, 0x30, 0x80, 0x4A,
	0x40, 0x00, 0x80, 0x47, 0x40, 0x00, 0x80, 0x43, 0x40, 0x30, 0x90, 0x4A,
	0x64, 0x00, 0x90, 0x47, 0x64, 0x00, 0x90, 0x43, 0x64, 0x82, 0x44, 0x80,
	0x4A, 0x40, 0x00, 0x80, 0x47, 0x40, 0x00, 0x80, 0x43, 0x40, 0x24, 0x90,
	0x4C, 0x64, 0x6C, 0x80, 0x4C, 0x40, 0x0C, 0x90, 0x4A, 0x64, 0x00, 0x90,
	0x47, 0x64, 0x00, 0x90, 0x43, 0x64, 0x86, 0x60, 0x80, 0x4A, 0x40, 0x00,
	0x80, 0x47, 0x40, 0x00, 0x80, 0x43, 0x40, 0x60, 0x90, 0x48, 0x64, 0x00,
	0x90, 0x43, 0x64, 0x83, 0x30, 0x80, 0x48, 0x40, 0x00, 0x80, 0x43, 0x40,
	0x84, 0x10, 0x90, 0x40, 0x64, 0x00, 0x90, 0x43, 0x64, 0x00, 0x90, 0x48,
	0x64, 0x86, 0x60, 0x80, 0x40, 0x40, 0x00, 0x80, 0x43, 0x40, 0x00, 0x80,
	0x48, 0x40, 0x60, 0x90, 0x40, 0x64, 0x00, 0x90, 0x43, 0x64, 0x00, 0x90,
	0x48, 0x64, 0x85, 0x08, 0x80, 0x40, 0x40, 0x00, 0x80, 0x43, 0x40, 0x00,
	0x80, 0x48, 0x40, 0x48, 0x90, 0x40, 0x64, 0x00, 0x90, 0x43, 0x64, 0x00,
	0x90, 0x48, 0x64, 0x81, 0x58, 0x80, 0x40, 0x40, 0x00, 0x80, 0x43, 0x40,
	0x00, 0x80, 0x48, 0x40, 0x18, 0x90, 0x4C, 0x64, 0x00, 0x90, 0x48, 0x64,
	0x00, 0x90, 0x43, 0x64, 0x83, 0x30, 0x80, 0x4C, 0x40, 0x00, 0x80, 0x48,
	0x40, 0x30, 0x90, 0x4A, 0x64, 0x00, 0x90, 0x47, 0x64, 0x83, 0x00, 0x80,
	0x43, 0x40, 0x30, 0x80, 0x4A, 0x40, 0x00, 0x80, 0x47, 0x40, 0x30, 0x90,
	0x3E, 0x64, 0x00, 0x90, 0x41, 0x64, 0x00, 0x90, 0x47, 0x64, 0x83, 0x30,
	0x80, 0x3E, 0x40, 0x00, 0x80, 0x41, 0x40, 0x00, 0x80, 0x47, 0x40, 0x30,
	0x90, 0x3E, 0x64, 0x00, 0x90, 0x43, 0x64, 0x83, 0x30, 0x80, 0x3E, 0x40,
	0x00, 0x80, 0x43, 0x40, 0x30, 0x90, 0x40, 0x64, 0x00, 0x90, 0x43, 0x64,
	0x85, 0x74, 0x80, 0x40, 0x40, 0x00, 0x80, 0x43, 0x40, 0x54, 0x90, 0x40,
	0x64, 0x00, 0x90, 0x43, 0x64, 0x00, 0x90, 0x48, 0x64, 0x6C, 0x80, 0x40,
	0x40, 0x00, 0x80, 0x43, 0x40, 0x00, 0x80, 0x48, 0x40, 0x0C, 0x90, 0x40,
	0x64, 0x00, 0x90, 0x43, 0x64, 0x00, 0x90, 0x48, 0x64, 0x85, 0x74, 0x80,
	0x40, 0x40, 0x00, 0x80, 0x43, 0x40, 0x00, 0x80, 0x48, 0x40, 0x54, 0x90,
	0x4C, 0x64, 0x00, 0x90, 0x48, 0x64, 0x00, 0x90, 0x43, 0x64, 0x6C, 0x80,
	0x4C, 0x40, 0x00, 0x80, 0x48, 0x40, 0x00, 0x80, 0x43, 0x40, 0x0C, 0x90,
	0x4C, 0x64, 0x00, 0x90, 0x48, 0x64, 0x00, 0x90, 0x43, 0x64, 0x83, 0x30,
	0x80, 0x4C, 0x40, 0x00, 0x80, 0x48, 0x40, 0x30, 0x90, 0x4A, 0x64, 0x00,
	0x90, 0x47, 0x64, 0x83, 0x00, 0x80, 0x43, 0x40, 0x30, 0x80, 0x4A, 0x40,
	0x00, 0x80, 0x47, 0x40, 0x30, 0x90, 0x3E, 0x64, 0x00, 0x90, 0x41, 0x64,
	0x00, 0x90, 0x47, 0x64, 0x83, 0x30, 0x80, 0x3E, 0x40, 0x00, 0x80, 0x41,
	0x40, 0x00, 0x80, 0x47, 0x40, 0x30, 0x90, 0x3E, 0x64, 0x00, 0x90, 0x41,
	0x64, 0x00, 0x90, 0x43, 0x64, 0x83, 0x30, 0x80, 0x3E, 0x40, 0x00, 0x80,
	0x41, 0x40, 0x00, 0x80, 0x43, 0x40, 0x30, 0x90, 0x40, 0x64, 0x00, 0x90,
	0x43, 0x64, 0x85, 0x74, 0x80, 0x40, 0x40, 0x00, 0x80, 0x43, 0x40, 0x54,
	0x90, 0x40, 0x64, 0x00, 0x90, 0x43, 0x64, 0x00, 0x90, 0x48, 0x64, 0x6C,
	0x80, 0x40, 0x40, 0x00, 0x80, 0x43, 0x40, 0x00, 0x80, 0x48, 0x40, 0x0C,
	0x90, 0x40, 0x64, 0x00, 0x90, 0x43, 0x64, 0x00, 0x90, 0x48, 0x64, 0x85,
	0x74, 0x80, 0x40, 0x40, 0x00, 0x80, 0x43, 0x40, 0x00, 0x80, 0x48, 0x40,
	0x54, 0x90, 0x4C, 0x64, 0x00, 0x90, 0x48, 0x64, 0x00, 0x90, 0x43, 0x64,
	0x6C, 0x80, 0x4C, 0x40, 0x00, 0x80, 0x48, 0x40, 0x00, 0x80, 0x43, 0x40,
	0x0C, 0x90, 0x4F, 0x6E, 0x00, 0x90, 0x4C, 0x6E, 0x00, 0x90, 0x48, 0x6E,
	0x00, 0x90, 0x45, 0x6E, 0x86, 0x60, 0x80, 0x4F, 0x40, 0x00, 0x80, 0x4C,
	0x40, 0x00, 0x80, 0x48, 0x40, 0x00, 0x80, 0x45, 0x40, 0x60, 0x90, 0x4D,
	0x6E, 0x00, 0x90, 0x4A, 0x6E, 0x00, 0x90, 0x45, 0x6E, 0x83, 0x30, 0x80,
	0x4D, 0x40, 0x00, 0x80, 0x4A, 0x40, 0x00, 0x80, 0x45, 0x40, 0x30, 0x90,
	0x4C, 0x6E, 0x00, 0x90, 0x48, 0x6E, 0x00, 0x90, 0x43, 0x6E, 0x83, 0x30,
	0x80, 0x4C, 0x40, 0x00, 0x80, 0x48, 0x40, 0x00, 0x80, 0x43, 0x40, 0x30,
	0x90, 0x4A, 0x6E, 0x00, 0x90, 0x48, 0x6E, 0x00, 0x90, 0x45, 0x6E, 0x83,
	0x30, 0x80, 0x4A, 0x40, 0x00, 0x80, 0x48, 0x40, 0x00, 0x80, 0x45, 0x40,
	0x30, 0x90, 0x49, 0x6E, 0x00, 0x90, 0x45, 0x6E, 0x82, 0x44, 0x80, 0x49,
	0x40, 0x00, 0x80, 0x45, 0x40, 0x24, 0x90, 0x4C, 0x6E, 0x6C, 0x80, 0x4C,
	0x40, 0x0C, 0x90, 0x4A, 0x6E, 0x00, 0x90, 0x45, 0x6E, 0x83, 0x30, 0x80,
	0x4A, 0x40, 0x00, 0x80, 0x45, 0x40, 0x30, 0x90, 0x45, 0x6E, 0x82, 0x44,
	0x80, 0x45, 0x40, 0x24, 0x90, 0x49, 0x6E, 0x6C, 0x80, 0x49, 0x40, 0x0C,
	0x90, 0x43, 0x6E, 0x00, 0x90, 0x47, 0x6E, 0x83, 0x30, 0x80, 0x43, 0x40,
	0x00, 0x80, 0x47, 0x40, 0x30, 0x90, 0x4F, 0x6E, 0x00, 0x90, 0x43, 0x6E,
	0x83, 0x30, 0x80, 0x4F, 0x40, 0x00, 0x80, 0x43, 0x40, 0x30, 0x90, 0x51,
	0x6E, 0x00, 0x90, 0x45, 0x6E, 0x83, 0x30, 0x80, 0x51, 0x40, 0x00, 0x80,
	0x45, 0x40, 0x30, 0x90, 0x53, 0x6E, 0x00, 0x90, 0x47, 0x6E, 0x83, 0x30,
	0x80, 0x53, 0x40, 0x00, 0x80, 0x47, 0x40, 0x30, 0x90, 0x54, 0x6E, 0x00,
	0x90, 0x4E, 0x6E, 0x00, 0x90, 0x4C, 0x6E, 0x86, 0x60, 0x80, 0x54, 0x40,
	0x00, 0x80, 0x4E, 0x40, 0x00, 0x80, 0x4C, 0x40, 0x60, 0x90, 0x53, 0x6E,
	0x00, 0x90, 0x4D, 0x6E, 0x00, 0x90, 0x4B, 0x6E, 0x85, 0x08, 0x80, 0x53,
	0x40, 0x00, 0x80, 0x4D, 0x40, 0x00, 0x80, 0x4B, 0x40, 0x48, 0x90, 0x4D,
	0x6E, 0x00, 0x90, 0x4A, 0x6E, 0x81, 0x58, 0x80, 0x4D, 0x40, 0x00, 0x80,
	0x4A, 0x40, 0x18, 0x90, 0x51, 0x6E, 0x00, 0x90, 0x4E, 0x6E, 0x00, 0x90,
	0x47, 0x6E, 0x83, 0x30, 0x80, 0x51, 0x40, 0x00, 0x80, 0x4E, 0x40, 0x30,
	0x90, 0x4F, 0x6E, 0x00, 0x90, 0x4C, 0x6E, 0x83, 0x00, 0x80, 0x47, 0x40,
	0x30, 0x80, 0x4F, 0x40, 0x00, 0x80, 0x4C, 0x40, 0x30, 0x90, 0x4D, 0x6E,
	0x00, 0x90, 0x4A, 0x6E, 0x00, 0x90, 0x45, 0x6E, 0x83, 0x30, 0x80, 0x4D,
	0x40, 0x00, 0x80, 0x4A, 0x40, 0x00, 0x80, 0x45, 0x40, 0x30, 0x90, 0x4A,
	0x6E, 0x00, 0x90, 0x45, 0x6E, 0x83, 0x30, 0x80, 0x4A, 0x40, 0x00, 0x80,
	0x45, 0x40, 0x30, 0x90, 0x48, 0x6E, 0x00, 0x90, 0x43, 0x6E, 0x85, 0x68,
	0x90, 0x47, 0x6E, 0x6C, 0x80, 0x47, 0x40, 0x00, 0x90, 0x48, 0x6E, 0x0C,
	0x80, 0x48, 0x40, 0x00, 0x80, 0x43, 0x40, 0x60, 0x80, 0x48, 0x40, 0x00,
	0x90, 0x4A, 0x6E, 0x00, 0x90, 0x47, 0x6E, 0x00, 0x90, 0x43, 0x6E, 0x83,
	0x30, 0x80, 0x4A, 0x40, 0x00, 0x80, 0x47, 0x40, 0x00, 0x80, 0x43, 0x40,
	0x30, 0x90, 0x43, 0x6E, 0x82, 0x44, 0x80, 0x43, 0x40, 0x24, 0x90, 0x4A,
	0x6E, 0x6C, 0x80, 0x4A, 0x40, 0x0C, 0x90, 0x4C, 0x6E, 0x00, 0x90, 0x48,
	0x6E, 0x00, 0x90, 0x43, 0x6E, 0x83, 0x30, 0x80, 0x4C, 0x40, 0x00, 0x80,
	0x48, 0x40, 0x00, 0x80, 0x43, 0x40, 0x30, 0x90, 0x3C, 0x6E, 0x81, 0x58,
	0x80, 0x3C, 0x40, 0x18, 0x90, 0x40, 0x6E, 0x81, 0x58, 0x80, 0x40, 0x40,
	0x18, 0x90, 0x43, 0x6E, 0x81, 0x58, 0x80, 0x43, 0x40, 0x18, 0x90, 0x48,
	0x6E, 0x81, 0x58, 0x80, 0x48, 0x40, 0x18, 0x90, 0x4C, 0x6E, 0x81, 0x58,
	0x80, 0x4C, 0x40, 0x18, 0x90, 0x4F, 0x6E, 0x81, 0x58, 0x80, 0x4F, 0x40,
	0x18, 0x90, 0x54, 0x6E, 0x00, 0x90, 0x4E, 0x6E, 0x00, 0x90, 0x4C, 0x6E,
	0x86, 0x60, 0x80, 0x54, 0x40, 0x00, 0x80, 0x4E, 0x40, 0x00, 0x80, 0x4C,
	0x40, 0x60, 0x90, 0x53, 0x6E, 0x00, 0x90, 0x4D, 0x6E, 0x00, 0x90, 0x4A,
	0x6E, 0x85, 0x08, 0x80, 0x53, 0x40, 0x00, 0x80, 0x4D, 0x40, 0x00, 0x80,
	0x4A, 0x40, 0x48, 0x90, 0x4D, 0x6E, 0x00, 0x90, 0x4A, 0x6E, 0x81, 0x58,
	0x80, 0x4D, 0x40, 0x00, 0x80, 0x4A, 0x40, 0x18, 0x90, 0x51, 0x6E, 0x00,
	0x90, 0x4E, 0x6E, 0x00, 0x90, 0x47, 0x6E, 0x83, 0x30, 0x80, 0x51, 0x40,
	0x00, 0x80, 0x4E, 0x40, 0x30, 0x90, 0x4F, 0x6E, 0x00, 0x90, 0x4C, 0x6E,
	0x83, 0x00, 0x80, 0x47, 0x40, 0x30, 0x80, 0x4F, 0x40, 0x00, 0x80, 0x4C,
	0x40, 0x30, 0x90, 0x4D, 0x6E, 0x00, 0x90, 0x4A, 0x6E, 0x00, 0x90, 0x45,
	0x6E, 0x83, 0x30, 0x80, 0x4D, 0x40, 0x00, 0x80, 0x4A, 0x40, 0x00, 0x80,
	0x45, 0x40, 0x30, 0x90, 0x4A, 0x6E, 0x00, 0x90, 0x45, 0x6E, 0x83, 0x30,
	0x80, 0x4A, 0x40, 0x00, 0x80, 0x45, 0x40, 0x30, 0x90, 0x48, 0x6E, 0x00,
	0x90, 0x43, 0x6E, 0x85, 0x68, 0x90, 0x47, 0x6E, 0x6C, 0x80, 0x47, 0x40,
	0x00, 0x90, 0x48, 0x6E, 0x0C, 0x80, 0x48, 0x40, 0x00, 0x80, 0x43, 0x40,
	0x60, 0x80, 0x48, 0x40, 0x00, 0x90, 0x4A, 0x6E, 0x00, 0x90, 0x47, 0x6E,
	0x00, 0x90, 0x43, 0x6E, 0x83, 0x30, 0x80, 0x4A, 0x40, 0x00, 0x80, 0x47,
	0x40, 0x00, 0x80, 0x43, 0x40, 0x30, 0x90, 0x4A, 0x6E, 0x00, 0x90, 0x47,
	0x6E, 0x00, 0x90, 0x43, 0x6E, 0x82, 0x44, 0x80, 0x4A, 0x40, 0x00, 0x80,
	0x47, 0x40, 0x00, 0x80, 0x43, 0x40, 0x24, 0x90, 0x4C, 0x6E, 0x6C, 0x80,
	0x4C, 0x40, 0x0C, 0x90, 0x4A, 0x6E, 0x00, 0x90, 0x47, 0x6E, 0x00, 0x90,
	0x43, 0x6E, 0x86, 0x60, 0x80, 0x4A, 0x40, 0x00, 0x80, 0x47, 0x40, 0x00,
	0x80, 0x43, 0x40, 0x60, 0x90, 0x48, 0x6E, 0x00, 0x90, 0x43, 0x6E, 0x83,
	0x30, 0x80, 0x48, 0x40, 0x00, 0x80, 0x43, 0x40, 0x30, 0x90, 0x3C, 0x64,
	0x81, 0x10, 0x80, 0x3C, 0x40, 0x10, 0x90, 0x3C, 0x64, 0x81, 0x10, 0x80,
	0x3C, 0x40, 0x10, 0x90, 0x3C, 0x64, 0x81, 0x10, 0x80, 0x3C, 0x40, 0x10,
	0x90, 0x3C, 0x64, 0x83, 0x30, 0x80, 0x3C, 0x40, 0x30, 0x90, 0x3C, 0x64,
	0x81, 0x10, 0x80, 0x3C, 0x40, 0x10, 0x90, 0x40, 0x64, 0x81, 0x10, 0x80,
	0x40, 0x40, 0x10, 0x90, 0x43, 0x64, 0x81, 0x10, 0x80, 0x43, 0x40, 0x10,
	0x90, 0x48, 0x64, 0x81, 0x70, 0x80, 0x48, 0x40, 0x81, 0x70, 0x90, 0x3C,
	0x64, 0x81, 0x10, 0x80, 0x3C, 0x40, 0x10, 0x90, 0x3C, 0x64, 0x81, 0x10,
	0x80, 0x3C, 0x40, 0x10, 0x90, 0x3C, 0x64, 0x81, 0x10, 0x80, 0x3C, 0x40,
	0x10, 0x90, 0x3C, 0x64, 0x83, 0x30, 0x80, 0x3C, 0x40, 0x30, 0x90, 0x40,
	0x64, 0x81, 0x10, 0x80, 0x40, 0x40, 0x10, 0x90, 0x43, 0x64, 0x81, 0x10,
	0x80, 0x43, 0x40, 0x10, 0x90, 0x48, 0x64, 0x81, 0x10, 0x80, 0x48, 0x40,
	0x10, 0x90, 0x4C, 0x64, 0x81, 0x70, 0x80, 0x4C, 0x40, 0x81, 0x70, 0x90,
	0x3C, 0x64, 0x81, 0x10, 0x80, 0x3C, 0x40, 0x10, 0x90, 0x3C, 0x64, 0x81,
	0x10, 0x80, 0x3C, 0x40, 0x10, 0x90, 0x3C, 0x64, 0x81, 0x10, 0x80, 0x3C,
	0x40, 0x10, 0x90, 0x3C, 0x64, 0x00, 0x90, 0x40, 0x64, 0x83, 0x30, 0x80,
	0x3C, 0x40, 0x00, 0x80, 0x40, 0x40, 0x30, 0x90, 0x40, 0x64, 0x81, 0x10,
	0x80, 0x40, 0x40, 0x10, 0x90, 0x43, 0x64, 0x81, 0x10, 0x80, 0x43, 0x40,
	0x10, 0x90, 0x48, 0x64, 0x81, 0x10, 0x80, 0x48, 0x40, 0x10, 0x90, 0x3C,
	0x64, 0x00, 0x90, 0x40, 0x64, 0x00, 0x90, 0x4C, 0x64, 0x81, 0x70, 0x80,
	0x4C, 0x40, 0x81, 0x40, 0x80, 0x3C, 0x40, 0x00, 0x80, 0x40, 0x40, 0x30,
	0x90, 0x43, 0x64, 0x81, 0x10, 0x80, 0x43, 0x40, 0x10, 0x90, 0x48, 0x64,
	0x81, 0x10, 0x80, 0x48, 0x40, 0x10, 0x90, 0x4C, 0x64, 0x81, 0x10, 0x80,
	0x4C, 0x40, 0x10, 0x90, 0x3C, 0x64, 0x00, 0x90, 0x40, 0x64, 0x00, 0x90,
	0x43, 0x64, 0x00, 0x90, 0x4F, 0x64, 0x81, 0x70, 0x80, 0x4F, 0x40, 0x81,
	0x40, 0x80, 0x3C, 0x40, 0x00, 0x80, 0x40, 0x40, 0x00, 0x80, 0x43, 0x40,
	0x30, 0x90, 0x43, 0x64, 0x81, 0x10, 0x80, 0x43, 0x40, 0x10, 0x90, 0x48,
	0x64, 0x81, 0x10, 0x80, 0x48, 0x40, 0x10, 0x90, 0x4C, 0x64, 0x81, 0x10,
	0x80, 0x4C, 0x40, 0x10, 0x90, 0x3C, 0x64, 0x00, 0x90, 0x40, 0x64, 0x00,
	0x90, 0x43, 0x64, 0x00, 0x90, 0x4F, 0x64, 0x81, 0x70, 0x80, 0x4F, 0x40,
	0x81, 0x40, 0x80, 0x3C, 0x40, 0x00, 0x80, 0x40, 0x40, 0x00, 0x80, 0x43,
	0x40, 0x30, 0x90, 0x48, 0x64, 0x81, 0x10, 0x80, 0x48, 0x40, 0x10, 0x90,
	0x4C, 0x64, 0x81, 0x10, 0x80, 0x4C, 0x40, 0x10, 0x90, 0x4F, 0x64, 0x81,
	0x10, 0x80, 0x4F, 0x40, 0x10, 0x90, 0x48, 0x6E, 0x86, 0x60, 0x80, 0x48,
	0x40, 0x60, 0x90, 0x54, 0x6E, 0x86, 0x60, 0x80, 0x54, 0x40, 0x60, 0x90,
	0x48, 0x6E, 0x86, 0x60, 0x80, 0x48, 0x40, 0x60, 0x90, 0x54, 0x6E, 0x86,
	0x60, 0x80, 0x54, 0x40, 0x60, 0x90, 0x48, 0x6E, 0x86, 0x60, 0x80, 0x48,
	0x40, 0x60, 0x90, 0x54, 0x6E, 0x86, 0x60, 0x80, 0x54, 0x40, 0x60, 0x90,
	0x48, 0x6E, 0x86, 0x60, 0x80, 0x48, 0x40, 0x60, 0x90, 0x54, 0x6E, 0x86,
	0x60, 0x80, 0x54, 0x40, 0x60, 0x90, 0x4F, 0x6E, 0x86, 0x60, 0x80, 0x4F,
	0x40, 0x60, 0x90, 0x5B, 0x6E, 0x86, 0x60, 0x80, 0x5B, 0x40, 0x60, 0x90,
	0x4F, 0x6E, 0x86, 0x60, 0x80, 0x4F, 0x40, 0x60, 0x90, 0x5B, 0x6E, 0x86,
	0x60, 0x80, 0x5B, 0x40, 0x60, 0x90, 0x4F, 0x6E, 0x86, 0x60, 0x80, 0x4F,
	0x40, 0x60, 0x90, 0x5B, 0x6E, 0x86, 0x60, 0x80, 0x5B, 0x40, 0x60, 0x90,
	0x4F, 0x6E, 0x86, 0x60, 0x80, 0x4F, 0x40, 0x60, 0x90, 0x5B, 0x6E, 0x86,
	0x60, 0x80, 0x5B, 0x40, 0x60, 0x90, 0x48, 0x6E, 0x86, 0x60, 0x80, 0x48,
	0x40, 0x60, 0x90, 0x54, 0x6E, 0x86, 0x60, 0x80, 0x54, 0x40, 0x60, 0x90,
	0x48, 0x6E, 0x86, 0x60, 0x80, 0x48, 0x40, 0x60, 0x90, 0x54, 0x6E, 0x86,
	0x60, 0x80, 0x54, 0x40, 0x60, 0x90, 0x48, 0x6E, 0x86, 0x60, 0x80, 0x48,
	0x40, 0x60, 0x90, 0x54, 0x6E, 0x86, 0x60, 0x80, 0x54, 0x40, 0x60, 0x90,
	0x48, 0x6E, 0x86, 0x60, 0x80, 0x48, 0x40, 0x60, 0x90, 0x54, 0x6E, 0x86,
	0x60, 0x80, 0x54, 0x40, 0x60, 0x90, 0x4F, 0x6E, 0x86, 0x60, 0x80, 0x4F,
	0x40, 0x60, 0x90, 0x5B, 0x6E, 0x86, 0x60, 0x80, 0x5B, 0x40, 0x60, 0x90,
	0x4F, 0x6E, 0x86, 0x60, 0x80, 0x4F, 0x40, 0x60, 0x90, 0x5B, 0x6E, 0x86,
	0x60, 0x80, 0x5B, 0x40, 0x60, 0x90, 0x4F, 0x6E, 0x86, 0x60, 0x80, 0x4F,
	0x40, 0x60, 0x90, 0x5B, 0x6E, 0x86, 0x60, 0x80, 0x5B, 0x40, 0x60, 0x90,
	0x4F, 0x6E, 0x86, 0x60, 0x80, 0x4F, 0x40, 0x60, 0x90, 0x5B, 0x6E, 0x86,
	0x60, 0x80, 0x5B, 0x40, 0x60, 0x90, 0x58, 0x6E, 0x00, 0x90, 0x54, 0x6E,
	0x00, 0x90, 0x4F, 0x6E, 0x86, 0x60, 0x80, 0x58, 0x40, 0x00, 0x80, 0x54,
	0x40, 0x00, 0x80, 0x4F, 0x40, 0x60, 0x90, 0x56, 0x6E, 0x00, 0x90, 0x53,
	0x6E, 0x00, 0x90, 0x4D, 0x6E, 0x85, 0x08, 0x80, 0x56, 0x40, 0x00, 0x80,
	0x53, 0x40, 0x00, 0x80, 0x4D, 0x40, 0x48, 0x90, 0x54, 0x6E, 0x00, 0x90,
	0x4C, 0x6E, 0x81, 0x58, 0x80, 0x54, 0x40, 0x00, 0x80, 0x4C, 0x40, 0x18,
	0x90, 0x58, 0x6E, 0x00, 0x90, 0x54, 0x6E, 0x00, 0x90, 0x4F, 0x6E, 0x86,
	0x60, 0x80, 0x58, 0x40, 0x00, 0x80, 0x54, 0x40, 0x00, 0x80, 0x4F, 0x40,
	0x60, 0x90, 0x56, 0x6E, 0x00, 0x90, 0x53, 0x6E, 0x00, 0x90, 0x4D, 0x6E,
	0x85, 0x08, 0x80, 0x56, 0x40, 0x00, 0x80, 0x53, 0x40, 0x00, 0x80, 0x4D,
	0x40, 0x48, 0x90, 0x54, 0x6E, 0x00, 0x90, 0x4C, 0x6E, 0x81, 0x58, 0x80,
	0x54, 0x40, 0x00, 0x80, 0x4C, 0x40, 0x18, 0x90, 0x54, 0x6E, 0x00, 0x90,
	0x4D, 0x6E, 0x00, 0x90, 0x4A, 0x6E, 0x83, 0x30, 0x80, 0x54, 0x40, 0x00,
	0x80, 0x4D, 0x40, 0x00, 0x80, 0x4A, 0x40, 0x30, 0x90, 0x53, 0x6E, 0x00,
	0x90, 0x4D, 0x6E, 0x00, 0x90, 0x4A, 0x6E, 0x83, 0x30, 0x80, 0x53, 0x40,
	0x00, 0x80, 0x4D, 0x40, 0x00, 0x80, 0x4A, 0x40, 0x30, 0x90, 0x51, 0x6E,
	0x00, 0x90, 0x4D, 0x6E, 0x00, 0x90, 0x4A, 0x6E, 0x83, 0x30, 0x80, 0x51,
	0x40, 0x00, 0x80, 0x4D, 0x40, 0x00, 0x80, 0x4A, 0x40, 0x30, 0x90, 0x53,
	0x6E, 0x00, 0x90, 0x4D, 0x6E, 0x00, 0x90, 0x4A, 0x6E, 0x83, 0x30, 0x80,
	0x53, 0x40, 0x00, 0x80, 0x4D, 0x40, 0x00, 0x80, 0x4A, 0x40, 0x30, 0x90,
	0x54, 0x6E, 0x00, 0x90, 0x4C, 0x6E, 0x00, 0x90, 0x48, 0x6E, 0x81, 0x58,
	0x80, 0x54, 0x40, 0x00, 0x80, 0x4C, 0x40, 0x00, 0x80, 0x48, 0x40, 0x18,
	0x90, 0x4F, 0x6E, 0x8C, 0x30, 0x80, 0x4F, 0x40, 0xBB, 0x08, 0x90, 0x4E,
	0x64, 0x6C, 0x80, 0x4E, 0x40, 0x00, 0x90, 0x4F, 0x64, 0x6C, 0x80, 0x4F,
	0x40, 0x00, 0x90, 0x54, 0x64, 0x00, 0x90, 0x4F, 0x64, 0x00, 0x90, 0x4C,
	0x64, 0x00, 0x90, 0x48, 0x64, 0x86, 0x60, 0x80, 0x54, 0x40, 0x00, 0x80,
	0x4F, 0x40, 0x00, 0x80, 0x4C, 0x40, 0x00, 0x80, 0x48, 0x40, 0x60, 0x90,
	0x54, 0x64, 0x00, 0x90, 0x4F, 0x64, 0x00, 0x90, 0x4C, 0x64, 0x00, 0x90,
	0x48, 0x64, 0x86, 0x60, 0x80, 0x54, 0x40, 0x00, 0x80, 0x4F, 0x40, 0x00,
	0x80, 0x4C, 0x40, 0x00, 0x80, 0x48, 0x40, 0x60, 0x90, 0x54, 0x64, 0x00,
	0x90, 0x4F, 0x64, 0x00, 0x90, 0x4C, 0x64, 0x00, 0x90, 0x48, 0x64, 0x8D,
	0x40, 0x80, 0x54, 0x40, 0x00, 0x80, 0x4F, 0x40, 0x00, 0x80, 0x4C, 0x40,
	0x00, 0x80, 0x48, 0x40, 0x81, 0x3F, 0xFF, 0x2F, 0x00, 0x4D, 0x54, 0x72,
	0x6B, 0x00, 0x00, 0x2C, 0xC4, 0x00, 0xFF, 0x03, 0x07, 0x53, 0x6F, 0x75,
	0x6E, 0x64, 0x20, 0x32, 0x00, 0xFF, 0x04, 0x1C, 0x4D, 0x69, 0x63, 0x72,
	0x6F, 0x73, 0x6F, 0x66, 0x74, 0x20, 0x47, 0x53, 0x20, 0x57, 0x61, 0x76,
	0x65, 0x74, 0x61, 0x62, 0x6C, 0x65, 0x20, 0x53, 0x79, 0x6E, 0x74, 0x68,
	0x00, 0xC0, 0x00, 0x00, 0xB0, 0x0A, 0x40, 0xCB, 0x00, 0x90, 0x39, 0x6E,
	0x00, 0x90, 0x2D, 0x6E, 0x86, 0x60, 0x80, 0x39, 0x40, 0x00, 0x80, 0x2D,
	0x40, 0x60, 0x90, 0x39, 0x6E, 0x00, 0x90, 0x2F, 0x6E, 0x85, 0x08, 0x80,
	0x39, 0x40, 0x00, 0x80, 0x2F, 0x40, 0x48, 0x90, 0x2F, 0x6E, 0x81, 0x58,
	0x80, 0x2F, 0x40, 0x18, 0x90, 0x33, 0x6E, 0x00, 0x90, 0x28, 0x6E, 0x83,
	0x30, 0x80, 0x33, 0x40, 0x30, 0x90, 0x34, 0x6E, 0x83, 0x00, 0x80, 0x28,
	0x40, 0x30, 0x80, 0x34, 0x40, 0x30, 0x90, 0x35, 0x6E, 0x00, 0x90, 0x29,
	0x6E, 0x83, 0x30, 0x80, 0x35, 0x40, 0x00, 0x80, 0x29, 0x40, 0x30, 0x90,
	0x35, 0x6E, 0x00, 0x90, 0x29, 0x6E, 0x83, 0x30, 0x80, 0x35, 0x40, 0x00,
	0x80, 0x29, 0x40, 0x30, 0x90, 0x34, 0x6E, 0x00, 0x90, 0x2B, 0x6E, 0x85,
	0x08, 0x80, 0x34, 0x40, 0x00, 0x80, 0x2B, 0x40, 0x48, 0x90, 0x34, 0x6E,
	0x00, 0x90, 0x2B, 0x6E, 0x81, 0x58, 0x80, 0x34, 0x40, 0x00, 0x80, 0x2B,
	0x40, 0x18, 0x90, 0x35, 0x6E, 0x00, 0x90, 0x2B, 0x6E, 0x83, 0x30, 0x80,
	0x35, 0x40, 0x00, 0x80, 0x2B, 0x40, 0x30, 0x90, 0x35, 0x6E, 0x00, 0x90,
	0x2B, 0x6E, 0x83, 0x30, 0x80, 0x35, 0x40, 0x00, 0x80, 0x2B, 0x40, 0x30,
	0x90, 0x34, 0x6E, 0x00, 0x90, 0x30, 0x6E, 0x83, 0x30, 0x80, 0x34, 0x40,
	0x00, 0x80, 0x30, 0x40, 0x30, 0x90, 0x30, 0x6E, 0x81, 0x58, 0x80, 0x30,
	0x40, 0x18, 0x90, 0x34, 0x6E, 0x81, 0x58, 0x80, 0x34, 0x40, 0x18, 0x90,
	0x37, 0x6E, 0x81, 0x58, 0x80, 0x37, 0x40, 0x18, 0x90, 0x30, 0x6E, 0x81,
	0x58, 0x80, 0x30, 0x40, 0x18, 0x90, 0x34, 0x6E, 0x81, 0x58, 0x80, 0x34,
	0x40, 0x18, 0x90, 0x37, 0x6E, 0x81, 0x58, 0x80, 0x37, 0x40, 0x18, 0x90,
	0x39, 0x6E, 0x00, 0x90, 0x2D, 0x6E, 0x86, 0x60, 0x80, 0x39, 0x40, 0x00,
	0x80, 0x2D, 0x40, 0x60, 0x90, 0x39, 0x6E, 0x00, 0x90, 0x2F, 0x6E, 0x85,
	0x08, 0x80, 0x39, 0x40, 0x00, 0x80, 0x2F, 0x40, 0x48, 0x90, 0x2F, 0x6E,
	0x81, 0x58, 0x80, 0x2F, 0x40, 0x18, 0x90, 0x33, 0x6E, 0x00, 0x90, 0x28,
	0x6E, 0x83, 0x30, 0x80, 0x33, 0x40, 0x30, 0x90, 0x34, 0x6E, 0x83, 0x00,
	0x80, 0x28, 0x40, 0x30, 0x80, 0x34, 0x40, 0x30, 0x90, 0x35, 0x6E, 0x00,
	0x90, 0x29, 0x6E, 0x83, 0x30, 0x80, 0x35, 0x40, 0x00, 0x80, 0x29, 0x40,
	0x30, 0x90, 0x35, 0x6E, 0x00, 0x90, 0x29, 0x6E, 0x83, 0x30, 0x80, 0x35,
	0x40, 0x00, 0x80, 0x29, 0x40, 0x30, 0x90, 0x34, 0x6E, 0x00, 0x90, 0x2B,
	0x6E, 0x85, 0x08, 0x80, 0x34, 0x40, 0x00, 0x80, 0x2B, 0x40, 0x48, 0x90,
	0x34, 0x6E, 0x00, 0x90, 0x2B, 0x6E, 0x81, 0x58, 0x80, 0x34, 0x40, 0x00,
	0x80, 0x2B, 0x40, 0x18, 0x90, 0x35, 0x6E, 0x00, 0x90, 0x2B, 0x6E, 0x83,
	0x30, 0x80, 0x35, 0x40, 0x00, 0x80, 0x2B, 0x40, 0x30, 0x90, 0x35, 0x6E,
	0x00, 0x90, 0x2B, 0x6E, 0x83, 0x30, 0x80, 0x35, 0x40, 0x00, 0x80, 0x2B,
	0x40, 0x30, 0x90, 0x35, 0x6E, 0x00, 0x90, 0x2B, 0x6E, 0x86, 0x60, 0x80,
	0x35, 0x40, 0x00, 0x80, 0x2B, 0x40, 0x60, 0x90, 0x34, 0x6E, 0x00, 0x90,
	0x30, 0x6E, 0x83, 0x30, 0x80, 0x34, 0x40, 0x00, 0x80, 0x30, 0x40, 0xC0,
	0x10, 0x90, 0x39, 0x6E, 0x00, 0x90, 0x2D, 0x6E, 0x86, 0x60, 0x80, 0x39,
	0x40, 0x00, 0x80, 0x2D, 0x40, 0x60, 0x90, 0x39, 0x6E, 0x00, 0x90, 0x2F,
	0x6E, 0x85, 0x08, 0x80, 0x39, 0x40, 0x00, 0x80, 0x2F, 0x40, 0x48, 0x90,
	0x2F, 0x6E, 0x81, 0x58, 0x80, 0x2F, 0x40, 0x18, 0x90, 0x33, 0x6E, 0x00,
	0x90, 0x28, 0x6E, 0x83, 0x30, 0x80, 0x33, 0x40, 0x30, 0x90, 0x34, 0x6E,
	0x83, 0x00, 0x80, 0x28, 0x40, 0x30, 0x80, 0x34, 0x40, 0x30, 0x90, 0x35,
	0x6E, 0x00, 0x90, 0x29, 0x6E, 0x83, 0x30, 0x80, 0x35, 0x40, 0x00, 0x80,
	0x29, 0x40, 0x30, 0x90, 0x35, 0x6E, 0x00, 0x90, 0x29, 0x6E, 0x83, 0x30,
	0x80, 0x35, 0x40, 0x00, 0x80, 0x29, 0x40, 0x30, 0x90, 0x34, 0x6E, 0x00,
	0x90, 0x2B, 0x6E, 0x85, 0x08, 0x80, 0x34, 0x40, 0x00, 0x80, 0x2B, 0x40,
	0x48, 0x90, 0x34, 0x6E, 0x00, 0x90, 0x2B, 0x6E, 0x81, 0x58, 0x80, 0x34,
	0x40, 0x00, 0x80, 0x2B, 0x40, 0x18, 0x90, 0x35, 0x6E, 0x00, 0x90, 0x2B,
	0x6E, 0x83, 0x30, 0x80, 0x35, 0x40, 0x00, 0x80, 0x2B, 0x40, 0x30, 0x90,
	0x35, 0x6E, 0x00, 0x90, 0x2B, 0x6E, 0x83, 0x30, 0x80, 0x35, 0x40, 0x00,
	0x80, 0x2B, 0x40, 0x30, 0x90, 0x34, 0x6E, 0x00, 0x90, 0x30, 0x6E, 0x83,
	0x30, 0x80, 0x34, 0x40, 0x00, 0x80, 0x30, 0x40, 0x30, 0x90, 0x30, 0x6E,
	0x81, 0x58, 0x80, 0x30, 0x40, 0x18, 0x90, 0x34, 0x6E, 0x81, 0x58, 0x80,
	0x34, 0x40, 0x18, 0x90, 0x37, 0x6E, 0x81, 0x58, 0x80, 0x37, 0x40, 0x18,
	0x90, 0x30, 0x6E, 0x81, 0x58, 0x80, 0x30, 0x40, 0x18, 0x90, 0x34, 0x6E,
	0x81, 0x58, 0x80, 0x34, 0x40, 0x18, 0x90, 0x37, 0x6E, 0x81, 0x58, 0x80,
	0x37, 0x40, 0x18, 0x90, 0x39, 0x6E, 0x00, 0x90, 0x2D, 0x6E, 0x86, 0x60,
	0x80, 0x39, 0x40, 0x00, 0x80, 0x2D, 0x40, 0x60, 0x90, 0x39, 0x6E, 0x00,
	0x90, 0x2F, 0x6E, 0x85, 0x08, 0x80, 0x39, 0x40, 0x00, 0x80, 0x2F, 0x40,
	0x48, 0x90, 0x2F, 0x6E, 0x81, 0x58, 0x80, 0x2F, 0x40, 0x18, 0x90, 0x33,
	0x6E, 0x00, 0x90, 0x28, 0x6E, 0x83, 0x30, 0x80, 0x33, 0x40, 0x30, 0x90,
	0x34, 0x6E, 0x83, 0x00, 0x80, 0x28, 0x40, 0x30, 0x80, 0x34, 0x40, 0x30,
	0x90, 0x35, 0x6E, 0x00, 0x90, 0x29, 0x6E, 0x83, 0x30, 0x80, 0x35, 0x40,
	0x00, 0x80, 0x29, 0x40, 0x30, 0x90, 0x35, 0x6E, 0x00, 0x90, 0x29, 0x6E,
	0x83, 0x30, 0x80, 0x35, 0x40, 0x00, 0x80, 0x29, 0x40, 0x30, 0x90, 0x34,
	0x6E, 0x00, 0x90, 0x2B, 0x6E, 0x85, 0x08, 0x80, 0x34, 0x40, 0x00, 0x80,
	0x2B, 0x40, 0x48, 0x90, 0x34, 0x6E, 0x00, 0x90, 0x2B, 0x6E, 0x81, 0x58,
	0x80, 0x34, 0x40, 0x00, 0x80, 0x2B, 0x40, 0x18, 0x90, 0x35, 0x6E, 0x00,
	0x90, 0x2B, 0x6E, 0x83, 0x30, 0x80, 0x35, 0x40, 0x00, 0x80, 0x2B, 0x40,
	0x30, 0x90, 0x35, 0x6E, 0x00, 0x90, 0x2B, 0x6E, 0x83, 0x30, 0x80, 0x35,
	0x40, 0x00, 0x80, 0x2B, 0x40, 0x30, 0x90, 0x35, 0x6E, 0x00, 0x90, 0x2B,
	0x6E, 0x86, 0x60, 0x80, 0x35, 0x40, 0x00, 0x80, 0x2B, 0x40, 0x60, 0x90,
	0x34, 0x6E, 0x00, 0x90, 0x30, 0x6E, 0x83, 0x30, 0x80, 0x34, 0x40, 0x00,
	0x80, 0x30, 0x40, 0x84, 0x10, 0x90, 0x30, 0x64, 0x86, 0x60, 0x80, 0x30,
	0x40, 0x60, 0x90, 0x30, 0x64, 0x85, 0x08, 0x80, 0x30, 0x40, 0x48, 0x90,
	0x30, 0x64, 0x81, 0x58, 0x80, 0x30, 0x40, 0x18, 0x90, 0x37, 0x64, 0x00,
	0x90, 0x2B, 0x64, 0x8A, 0x10, 0x80, 0x37, 0x40, 0x00, 0x80, 0x2B, 0x40,
	0x81, 0x10, 0x90, 0x2B, 0x64, 0x00, 0x90, 0x2F, 0x64, 0x83, 0x30, 0x80,
	0x2B, 0x40, 0x00, 0x80, 0x2F, 0x40, 0x30, 0x90, 0x30, 0x64, 0x83, 0x30,
	0x80, 0x30, 0x40, 0x30, 0x90, 0x30, 0x64, 0x83, 0x30, 0x80, 0x30, 0x40,
	0x30, 0x90, 0x34, 0x64, 0x83, 0x30, 0x80, 0x34, 0x40, 0x30, 0x90, 0x30,
	0x64, 0x83, 0x30, 0x80, 0x30, 0x40, 0x30, 0x90, 0x37, 0x64, 0x00, 0x90,
	0x2B, 0x64, 0x8A, 0x10, 0x80, 0x37, 0x40, 0x00, 0x80, 0x2B, 0x40, 0x81,
	0x10, 0x90, 0x2B, 0x64, 0x00, 0x90, 0x2F, 0x64, 0x83, 0x30, 0x80, 0x2B,
	0x40, 0x00, 0x80, 0x2F, 0x40, 0x30, 0x90, 0x30, 0x64, 0x83, 0x30, 0x80,
	0x30, 0x40, 0x30, 0x90, 0x2B, 0x64, 0x83, 0x30, 0x80, 0x2B, 0x40, 0x30,
	0x90, 0x28, 0x64, 0x83, 0x30, 0x80, 0x28, 0x40, 0x30, 0x90, 0x24, 0x64,
	0x00, 0x90, 0x30, 0x64, 0x83, 0x30, 0x80, 0x24, 0x40, 0x00, 0x80, 0x30,
	0x40, 0x30, 0x90, 0x35, 0x6E, 0x00, 0x90, 0x29, 0x6E, 0x8A, 0x10, 0x80,
	0x35, 0x40, 0x00, 0x80, 0x29, 0x40, 0x81, 0x10, 0x90, 0x35, 0x6E, 0x00,
	0x90, 0x29, 0x6E, 0x83, 0x30, 0x80, 0x35, 0x40, 0x00, 0x80, 0x29, 0x40,
	0x30, 0x90, 0x29, 0x6E, 0x83, 0x30, 0x80, 0x29, 0x40, 0x30, 0x90, 0x35,
	0x6E, 0x83, 0x30, 0x80, 0x35, 0x40, 0x30, 0x90, 0x36, 0x6E, 0x83, 0x30,
	0x80, 0x36, 0x40, 0x30, 0x90, 0x2A, 0x6E, 0x83, 0x30, 0x80, 0x2A, 0x40,
	0x30, 0x90, 0x2B, 0x50, 0x83, 0x30, 0x80, 0x2B, 0x40, 0x30, 0x90, 0x37,
	0x64, 0x83, 0x30, 0x80, 0x37, 0x40, 0x30, 0x90, 0x39, 0x64, 0x83, 0x30,
	0x80, 0x39, 0x40, 0x30, 0x90, 0x3B, 0x64, 0x83, 0x30, 0x80, 0x3B, 0x40,
	0x30, 0x90, 0x39, 0x64, 0x00, 0x90, 0x2D, 0x64, 0x86, 0x60, 0x80, 0x39,
	0x40, 0x00, 0x80, 0x2D, 0x40, 0x60, 0x90, 0x39, 0x64, 0x00, 0x90, 0x2F,
	0x64, 0x85, 0x08, 0x80, 0x39, 0x40, 0x00, 0x80, 0x2F, 0x40, 0x48, 0x90,
	0x2F, 0x64, 0x81, 0x58, 0x80, 0x2F, 0x40, 0x18, 0x90, 0x33, 0x64, 0x00,
	0x90, 0x28, 0x64, 0x83, 0x30, 0x80, 0x33, 0x40, 0x30, 0x90, 0x34, 0x64,
	0x83, 0x00, 0x80, 0x28, 0x40, 0x30, 0x80, 0x34, 0x40, 0x30, 0x90, 0x35,
	0x64, 0x00, 0x90, 0x29, 0x64, 0x83, 0x30, 0x80, 0x35, 0x40, 0x00, 0x80,
	0x29, 0x40, 0x30, 0x90, 0x35, 0x64, 0x00, 0x90, 0x29, 0x64, 0x83, 0x30,
	0x80, 0x35, 0x40, 0x00, 0x80, 0x29, 0x40, 0x30, 0x90, 0x34, 0x64, 0x00,
	0x90, 0x2B, 0x64, 0x85, 0x08, 0x80, 0x34, 0x40, 0x00, 0x80, 0x2B, 0x40,
	0x48, 0x90, 0x34, 0x64, 0x00, 0x90, 0x2B, 0x64, 0x81, 0x58, 0x80, 0x34,
	0x40, 0x00, 0x80, 0x2B, 0x40, 0x18, 0x90, 0x35, 0x64, 0x00, 0x90, 0x2B,
	0x64, 0x83, 0x30, 0x80, 0x35, 0x40, 0x00, 0x80, 0x2B, 0x40, 0x30, 0x90,
	0x35, 0x64, 0x00, 0x90, 0x2B, 0x64, 0x83, 0x30, 0x80, 0x35, 0x40, 0x00,
	0x80, 0x2B, 0x40, 0x30, 0x90, 0x34, 0x64, 0x00, 0x90, 0x30, 0x64, 0x83,
	0x30, 0x80, 0x34, 0x40, 0x00, 0x80, 0x30, 0x40, 0x30, 0x90, 0x30, 0x64,
	0x81, 0x58, 0x80, 0x30, 0x40, 0x18, 0x90, 0x34, 0x64, 0x81, 0x58, 0x80,
	0x34, 0x40, 0x18, 0x90, 0x37, 0x64, 0x81, 0x58, 0x80, 0x37, 0x40, 0x18,
	0x90, 0x30, 0x64, 0x81, 0x58, 0x80, 0x30, 0x40, 0x18, 0x90, 0x34, 0x64,
	0x81, 0x58, 0x80, 0x34, 0x40, 0x18, 0x90, 0x37, 0x64, 0x81, 0x58, 0x80,
	0x37, 0x40, 0x18, 0x90, 0x39, 0x64, 0x00, 0x90, 0x2D, 0x64, 0x86, 0x60,
	0x80, 0x39, 0x40, 0x00, 0x80, 0x2D, 0x40, 0x60, 0x90, 0x39, 0x64, 0x00,
	0x90, 0x2F, 0x64, 0x85, 0x08, 0x80, 0x39, 0x40, 0x00, 0x80, 0x2F, 0x40,
	0x48, 0x90, 0x2F, 0x64, 0x81, 0x58, 0x80, 0x2F, 0x40, 0x18, 0x90, 0x33,
	0x64, 0x00, 0x90, 0x28, 0x64, 0x83, 0x30, 0x80, 0x33, 0x40, 0x30, 0x90,
	0x34, 0x64, 0x83, 0x00, 0x80, 0x28, 0x40, 0x30, 0x80, 0x34, 0x40, 0x30,
	0x90, 0x35, 0x64, 0x00, 0x90, 0x29, 0x64, 0x83, 0x30, 0x80, 0x35, 0x40,
	0x00, 0x80, 0x29, 0x40, 0x30, 0x90, 0x35, 0x64, 0x00, 0x90, 0x29, 0x64,
	0x83, 0x30, 0x80, 0x35, 0x40, 0x00, 0x80, 0x29, 0x40, 0x30, 0x90, 0x34,
	0x64, 0x00, 0x90, 0x2B, 0x64, 0x85, 0x08, 0x80, 0x34, 0x40, 0x00, 0x80,
	0x2B, 0x40, 0x48, 0x90, 0x34, 0x64, 0x00, 0x90, 0x2B, 0x64, 0x81, 0x58,
	0x80, 0x34, 0x40, 0x00, 0x80, 0x2B, 0x40, 0x18, 0x90, 0x35, 0x64, 0x00,
	0x90, 0x2B, 0x64, 0x83, 0x30, 0x80, 0x35, 0x40, 0x00, 0x80, 0x2B, 0x40,
	0x30, 0x90, 0x35, 0x64, 0x00, 0x90, 0x2B, 0x64, 0x83, 0x30, 0x80, 0x35,
	0x40, 0x00, 0x80, 0x2B, 0x40, 0x30, 0x90, 0x35, 0x64, 0x00, 0x90, 0x2B,
	0x64, 0x86, 0x60, 0x80, 0x35, 0x40, 0x00, 0x80, 0x2B, 0x40, 0x60, 0x90,
	0x34, 0x64, 0x00, 0x90, 0x30, 0x64, 0x83, 0x30, 0x80, 0x34, 0x40, 0x00,
	0x80, 0x30, 0x40, 0x84, 0x10, 0x90, 0x30, 0x64, 0x86, 0x60, 0x80, 0x30,
	0x40, 0x60, 0x90, 0x30, 0x64, 0x85, 0x08, 0x80, 0x30, 0x40, 0x48, 0x90,
	0x30, 0x64, 0x81, 0x58, 0x80, 0x30, 0x40, 0x18, 0x90, 0x37, 0x64, 0x00,
	0x90, 0x2B, 0x64, 0x8A, 0x10, 0x80, 0x37, 0x40, 0x00, 0x80, 0x2B, 0x40,
	0x81, 0x10, 0x90, 0x2B, 0x64, 0x00, 0x90, 0x2F, 0x64, 0x83, 0x30, 0x80,
	0x2B, 0x40, 0x00, 0x80, 0x2F, 0x40, 0x30, 0x90, 0x30, 0x64, 0x83, 0x30,
	0x80, 0x30, 0x40, 0x30, 0x90, 0x30, 0x64, 0x83, 0x30, 0x80, 0x30, 0x40,
	0x30, 0x90, 0x34, 0x64, 0x83, 0x30, 0x80, 0x34, 0x40, 0x30, 0x90, 0x30,
	0x64, 0x83, 0x30, 0x80, 0x30, 0x40, 0x30, 0x90, 0x37, 0x64, 0x00, 0x90,
	0x2B, 0x64, 0x8A, 0x10, 0x80, 0x37, 0x40, 0x00, 0x80, 0x2B, 0x40, 0x81,
	0x10, 0x90, 0x2B, 0x64, 0x00, 0x90, 0x2F, 0x64, 0x83, 0x30, 0x80, 0x2B,
	0x40, 0x00, 0x80, 0x2F, 0x40, 0x30, 0x90, 0x30, 0x64, 0x83, 0x30, 0x80,
	0x30, 0x40, 0x30, 0x90, 0x2B, 0x64, 0x83, 0x30, 0x80, 0x2B, 0x40, 0x30,
	0x90, 0x28, 0x64, 0x83, 0x30, 0x80, 0x28, 0x40, 0x30, 0x90, 0x24, 0x64,
	0x00, 0x90, 0x30, 0x64, 0x83, 0x30, 0x80, 0x24, 0x40, 0x00, 0x80, 0x30,
	0x40, 0x30, 0x90, 0x35, 0x6E, 0x00, 0x90, 0x29, 0x6E, 0x8A, 0x10, 0x80,
	0x35, 0x40, 0x00, 0x80, 0x29, 0x40, 0x81, 0x10, 0x90, 0x35, 0x6E, 0x00,
	0x90, 0x29, 0x6E, 0x83, 0x30, 0x80, 0x35, 0x40, 0x00, 0x80, 0x29, 0x40,
	0x30, 0x90, 0x29, 0x6E, 0x83, 0x30, 0x80, 0x29, 0x40, 0x30, 0x90, 0x35,
	0x6E, 0x83, 0x30, 0x80, 0x35, 0x40, 0x30, 0x90, 0x36, 0x6E, 0x83, 0x30,
	0x80, 0x36, 0x40, 0x30, 0x90, 0x2A, 0x6E, 0x83, 0x30, 0x80, 0x2A, 0x40,
	0x30, 0x90, 0x2B, 0x50, 0x83, 0x30, 0x80, 0x2B, 0x40, 0x30, 0x90, 0x37,
	0x64, 0x83, 0x30, 0x80, 0x37, 0x40, 0x30, 0x90, 0x39, 0x64, 0x83, 0x30,
	0x80, 0x39, 0x40, 0x30, 0x90, 0x3B, 0x64, 0x83, 0x30, 0x80, 0x3B, 0x40,
	0x30, 0x90, 0x39, 0x64, 0x00, 0x90, 0x2D, 0x64, 0x86, 0x60, 0x80, 0x39,
	0x40, 0x00, 0x80, 0x2D, 0x40, 0x60, 0x90, 0x39, 0x64, 0x00, 0x90, 0x2F,
	0x64, 0x85, 0x08, 0x80, 0x39, 0x40, 0x00, 0x80, 0x2F, 0x40, 0x48, 0x90,
	0x2F, 0x64, 0x81, 0x58, 0x80, 0x2F, 0x40, 0x18, 0x90, 0x33, 0x64, 0x00,
	0x90, 0x28, 0x64, 0x83, 0x30, 0x80, 0x33, 0x40, 0x30, 0x90, 0x34, 0x64,
	0x83, 0x00, 0x80, 0x28, 0x40, 0x30, 0x80, 0x34, 0x40, 0x30, 0x90, 0x35,
	0x64, 0x00, 0x90, 0x29, 0x64, 0x83, 0x30, 0x80, 0x35, 0x40, 0x00, 0x80,
	0x29, 0x40, 0x30, 0x90, 0x35, 0x64, 0x00, 0x90, 0x29, 0x64, 0x83, 0x30,
	0x80, 0x35, 0x40, 0x00, 0x80, 0x29, 0x40, 0x30, 0x90, 0x34, 0x64, 0x00,
	0x90, 0x2B, 0x64, 0x85, 0x08, 0x80, 0x34, 0x40, 0x00, 0x80, 0x2B, 0x40,
	0x48, 0x90, 0x34, 0x64, 0x00, 0x90, 0x2B, 0x64, 0x81, 0x58, 0x80, 0x34,
	0x40, 0x00, 0x80, 0x2B, 0x40, 0x18, 0x90, 0x35, 0x64, 0x00, 0x90, 0x2B,
	0x64, 0x83, 0x30, 0x80, 0x35, 0x40, 0x00, 0x80, 0x2B, 0x40, 0x30, 0x90,
	0x35, 0x64, 0x00, 0x90, 0x2B, 0x64, 0x83, 0x30, 0x80, 0x35, 0x40, 0x00,
	0x80, 0x2B, 0x40, 0x30, 0x90, 0x34, 0x64, 0x00, 0x90, 0x30, 0x64, 0x83,
	0x30, 0x80, 0x34, 0x40, 0x00, 0x80, 0x30, 0x40, 0x30, 0x90, 0x30, 0x64,
	0x81, 0x58, 0x80, 0x30, 0x40, 0x18, 0x90, 0x34, 0x64, 0x81, 0x58, 0x80,
	0x34, 0x40, 0x18, 0x90, 0x37, 0x64, 0x81, 0x58, 0x80, 0x37, 0x40, 0x18,
	0x90, 0x30, 0x64, 0x81, 0x58, 0x80, 0x30, 0x40, 0x18, 0x90, 0x34, 0x64,
	0x81, 0x58, 0x80, 0x34, 0x40, 0x18, 0x90, 0x37, 0x64, 0x81, 0x58, 0x80,
	0x37, 0x40, 0x18, 0x90, 0x39, 0x64, 0x00, 0x90, 0x2D, 0x64, 0x86, 0x60,
	0x80, 0x39, 0x40, 0x00, 0x80, 0x2D, 0x40, 0x60, 0x90, 0x39, 0x64, 0x00,
	0x90, 0x2F, 0x64, 0x85, 0x08, 0x80, 0x39, 0x40, 0x00, 0x80, 0x2F, 0x40,
	0x48, 0x90, 0x2F, 0x64, 0x81, 0x58, 0x80, 0x2F, 0x40, 0x18, 0x90, 0x33,
	0x64, 0x00, 0x90, 0x28, 0x64, 0x83, 0x30, 0x80, 0x33, 0x40, 0x30, 0x90,
	0x34, 0x64, 0x83, 0x00, 0x80, 0x28, 0x40, 0x30, 0x80, 0x34, 0x40, 0x30,
	0x90, 0x35, 0x64, 0x00, 0x90, 0x29, 0x64, 0x83, 0x30, 0x80, 0x35, 0x40,
	0x00, 0x80, 0x29, 0x40, 0x30, 0x90, 0x35, 0x64, 0x00, 0x90, 0x29, 0x64,
	0x83, 0x30, 0x80, 0x35, 0x40, 0x00, 0x80, 0x29, 0x40, 0x30, 0x90, 0x34,
	0x64, 0x00, 0x90, 0x2B, 0x64, 0x85, 0x08, 0x80, 0x34, 0x40, 0x00, 0x80,
	0x2B, 0x40, 0x48, 0x90, 0x34, 0x64, 0x00, 0x90, 0x2B, 0x64, 0x81, 0x58,
	0x80, 0x34, 0x40, 0x00, 0x80, 0x2B, 0x40, 0x18, 0x90, 0x35, 0x64, 0x00,
	0x90, 0x2B, 0x64, 0x83, 0x30, 0x80, 0x35, 0x40, 0x00, 0x80, 0x2B, 0x40,
	0x30, 0x90, 0x35, 0x64, 0x00, 0x90, 0x2B, 0x64, 0x83, 0x30, 0x80, 0x35,
	0x40, 0x00, 0x80, 0x2B, 0x40, 0x30, 0x90, 0x35, 0x64, 0x00, 0x90, 0x2B,
	0x64, 0x86, 0x60, 0x80, 0x35, 0x40, 0x00, 0x80, 0x2B, 0x40, 0x60, 0x90,
	0x34, 0x64, 0x00, 0x90, 0x30, 0x64, 0x83, 0x30, 0x80, 0x34, 0x40, 0x00,
	0x80, 0x30, 0x40, 0x84, 0x10, 0xFF, 0x59, 0x02, 0x01, 0x00, 0x82, 0x68,
	0x90, 0x2B, 0x5A, 0x00, 0x90, 0x2F, 0x5A, 0x6C, 0x80, 0x2B, 0x40, 0x00,
	0x80, 0x2F, 0x40, 0x0C, 0x90, 0x2B, 0x5A, 0x00, 0x90, 0x2F, 0x5A, 0x85,
	0x74, 0x80, 0x2B, 0x40, 0x00, 0x80, 0x2F, 0x40, 0x54, 0x90, 0x3B, 0x5A,
	0x00, 0x90, 0x37, 0x5A, 0x6C, 0x80, 0x3B, 0x40, 0x00, 0x80, 0x37, 0x40,
	0x0C, 0x90, 0x3B, 0x5A, 0x00, 0x90, 0x37, 0x5A, 0x86, 0x24, 0x80, 0x3B,
	0x40, 0x00, 0x80, 0x37, 0x40, 0x24, 0x90, 0x3E, 0x5A, 0x00, 0x90, 0x3B,
	0x5A, 0x6C, 0x80, 0x3E, 0x40, 0x00, 0x80, 0x3B, 0x40, 0x0C, 0x90, 0x3E,
	0x5A, 0x00, 0x90, 0x3B, 0x5A, 0x83, 0x30, 0x80, 0x3E, 0x40, 0x00, 0x80,
	0x3B, 0x40, 0x83, 0x18, 0x90, 0x43, 0x5A, 0x00, 0x90, 0x37, 0x5A, 0x6C,
	0x80, 0x43, 0x40, 0x00, 0x80, 0x37, 0x40, 0x0C, 0x90, 0x43, 0x5A, 0x00,
	0x90, 0x37, 0x5A, 0x86, 0x24, 0x80, 0x43, 0x40, 0x00, 0x80, 0x37, 0x40,
	0x24, 0x90, 0x43, 0x5A, 0x00, 0x90, 0x37, 0x5A, 0x6C, 0x80, 0x43, 0x40,
	0x00, 0x80, 0x37, 0x40, 0x0C, 0x90, 0x43, 0x5A, 0x00, 0x90, 0x37, 0x5A,
	0x85, 0x74, 0x80, 0x43, 0x40, 0x00, 0x80, 0x37, 0x40, 0x54, 0x90, 0x43,
	0x5A, 0x00, 0x90, 0x37, 0x5A, 0x6C, 0x80, 0x43, 0x40, 0x00, 0x80, 0x37,
	0x40, 0x0C, 0x90, 0x43, 0x5A, 0x00, 0x90, 0x37, 0x5A, 0x86, 0x24, 0x80,
	0x43, 0x40, 0x00, 0x80, 0x37, 0x40, 0x24, 0x90, 0x43, 0x5A, 0x00, 0x90,
	0x37, 0x5A, 0x6C, 0x80, 0x43, 0x40, 0x00, 0x80, 0x37, 0x40, 0x0C, 0x90,
	0x43, 0x5A, 0x00, 0x90, 0x37, 0x5A, 0x85, 0x74, 0x80, 0x43, 0x40, 0x00,
	0x80, 0x37, 0x40, 0x54, 0x90, 0x3E, 0x5A, 0x00, 0x90, 0x32, 0x5A, 0x6C,
	0x80, 0x3E, 0x40, 0x00, 0x80, 0x32, 0x40, 0x0C, 0x90, 0x3E, 0x5A, 0x00,
	0x90, 0x32, 0x5A, 0x86, 0x24, 0x80, 0x3E, 0x40, 0x00, 0x80, 0x32, 0x40,
	0x24, 0x90, 0x3E, 0x5A, 0x00, 0x90, 0x32, 0x5A, 0x6C, 0x80, 0x3E, 0x40,
	0x00, 0x80, 0x32, 0x40, 0x0C, 0x90, 0x3E, 0x5A, 0x00, 0x90, 0x32, 0x5A,
	0x85, 0x74, 0x80, 0x3E, 0x40, 0x00, 0x80, 0x32, 0x40, 0x54, 0x90, 0x3E,
	0x5A, 0x00, 0x90, 0x32, 0x5A, 0x6C, 0x80, 0x3E, 0x40, 0x00, 0x80, 0x32,
	0x40, 0x0C, 0x90, 0x3E, 0x5A, 0x00, 0x90, 0x32, 0x5A, 0x86, 0x24, 0x80,
	0x3E, 0x40, 0x00, 0x80, 0x32, 0x40, 0x24, 0x90, 0x32, 0x5A, 0x6C, 0x80,
	0x32, 0x40, 0x0C, 0x90, 0x32, 0x5A, 0x82, 0x44, 0x80, 0x32, 0x40, 0x24,
	0x90, 0x3E, 0x5A, 0x6C, 0x80, 0x3E, 0x40, 0x0C, 0x90, 0x3E, 0x5A, 0x82,
	0x44, 0x80, 0x3E, 0x40, 0x24, 0x90, 0x32, 0x5A, 0x6C, 0x80, 0x32, 0x40,
	0x0C, 0x90, 0x32, 0x5A, 0x82, 0x44, 0x80, 0x32, 0x40, 0x81, 0x1C, 0x90,
	0x30, 0x64, 0x86, 0x60, 0x80, 0x30, 0x40, 0x60, 0x90, 0x30, 0x64, 0x85,
	0x08, 0x80, 0x30, 0x40, 0x48, 0x90, 0x30, 0x64, 0x81, 0x58, 0x80, 0x30,
	0x40, 0x18, 0x90, 0x37, 0x64, 0x00, 0x90, 0x2B, 0x64, 0x8A, 0x10, 0x80,
	0x37, 0x40, 0x00, 0x80, 0x2B, 0x40, 0x81, 0x10, 0x90, 0x2B, 0x64, 0x00,
	0x90, 0x2F, 0x64, 0x83, 0x30, 0x80, 0x2B, 0x40, 0x00, 0x80, 0x2F, 0x40,
	0x30, 0x90, 0x30, 0x64, 0x83, 0x30, 0x80, 0x30, 0x40, 0x30, 0x90, 0x30,
	0x64, 0x83, 0x30, 0x80, 0x30, 0x40, 0x30, 0x90, 0x34, 0x64, 0x83, 0x30,
	0x80, 0x34, 0x40, 0x30, 0x90, 0x30, 0x64, 0x83, 0x30, 0x80, 0x30, 0x40,
	0x30, 0x90, 0x37, 0x64, 0x00, 0x90, 0x2B, 0x64, 0x8A, 0x10, 0x80, 0x37,
	0x40, 0x00, 0x80, 0x2B, 0x40, 0x81, 0x10, 0x90, 0x2B, 0x64, 0x00, 0x90,
	0x2F, 0x64, 0x83, 0x30, 0x80, 0x2B, 0x40, 0x00, 0x80, 0x2F, 0x40, 0x30,
	0x90, 0x30, 0x64, 0x83, 0x30, 0x80, 0x30, 0x40, 0x30, 0x90, 0x2B, 0x64,
	0x83, 0x30, 0x80, 0x2B, 0x40, 0x30, 0x90, 0x28, 0x64, 0x83, 0x30, 0x80,
	0x28, 0x40, 0x30, 0x90, 0x24, 0x64, 0x00, 0x90, 0x30, 0x64, 0x83, 0x30,
	0x80, 0x24, 0x40, 0x00, 0x80, 0x30, 0x40, 0x30, 0x90, 0x35, 0x6E, 0x00,
	0x90, 0x29, 0x6E, 0x8A, 0x10, 0x80, 0x35, 0x40, 0x00, 0x80, 0x29, 0x40,
	0x81, 0x10, 0x90, 0x35, 0x6E, 0x00, 0x90, 0x29, 0x6E, 0x83, 0x30, 0x80,
	0x35, 0x40, 0x00, 0x80, 0x29, 0x40, 0x30, 0x90, 0x29, 0x6E, 0x83, 0x30,
	0x80, 0x29, 0x40, 0x30, 0x90, 0x35, 0x6E, 0x83, 0x30, 0x80, 0x35, 0x40,
	0x30, 0x90, 0x36, 0x6E, 0x83, 0x30, 0x80, 0x36, 0x40, 0x30, 0x90, 0x2A,
	0x6E, 0x83, 0x30, 0x80, 0x2A, 0x40, 0x30, 0x90, 0x2B, 0x50, 0x83, 0x30,
	0x80, 0x2B, 0x40, 0x30, 0x90, 0x37, 0x64, 0x83, 0x30, 0x80, 0x37, 0x40,
	0x30, 0x90, 0x39, 0x64, 0x83, 0x30, 0x80, 0x39, 0x40, 0x30, 0x90, 0x3B,
	0x64, 0x83, 0x30, 0x80, 0x3B, 0x40, 0x30, 0x90, 0x39, 0x64, 0x00, 0x90,
	0x2D, 0x64, 0x86, 0x60, 0x80, 0x39, 0x40, 0x00, 0x80, 0x2D, 0x40, 0x60,
	0x90, 0x39, 0x64, 0x00, 0x90, 0x2F, 0x64, 0x85, 0x08, 0x80, 0x39, 0x40,
	0x00, 0x80, 0x2F, 0x40, 0x48, 0x90, 0x2F, 0x64, 0x81, 0x58, 0x80, 0x2F,
	0x40, 0x18, 0x90, 0x28, 0x64, 0x00, 0x90, 0x33, 0x64, 0x83, 0x30, 0x80,
	0x33, 0x40, 0x30, 0x90, 0x34, 0x64, 0x83, 0x00, 0x80, 0x28, 0x40, 0x30,
	0x80, 0x34, 0x40, 0x30, 0x90, 0x35, 0x64, 0x00, 0x90, 0x29, 0x64, 0x83,
	0x30, 0x80, 0x35, 0x40, 0x00, 0x80, 0x29, 0x40, 0x30, 0x90, 0x35, 0x64,
	0x00, 0x90, 0x29, 0x64, 0x83, 0x30, 0x80, 0x35, 0x40, 0x00, 0x80, 0x29,
	0x40, 0x30, 0x90, 0x34, 0x64, 0x00, 0x90, 0x2B, 0x64, 0x85, 0x08, 0x80,
	0x34, 0x40, 0x00, 0x80, 0x2B, 0x40, 0x48, 0x90, 0x34, 0x64, 0x00, 0x90,
	0x2B, 0x64, 0x81, 0x58, 0x80, 0x34, 0x40, 0x00, 0x80, 0x2B, 0x40, 0x18,
	0x90, 0x35, 0x64, 0x00, 0x90, 0x2B, 0x64, 0x83, 0x30, 0x80, 0x35, 0x40,
	0x00, 0x80, 0x2B, 0x40, 0x30, 0x90, 0x35, 0x64, 0x00, 0x90, 0x2B, 0x64,
	0x83, 0x30, 0x80, 0x35, 0x40, 0x00, 0x80, 0x2B, 0x40, 0x30, 0x90, 0x34,
	0x64, 0x00, 0x90, 0x30, 0x64, 0x83, 0x30, 0x80, 0x34, 0x40, 0x00, 0x80,
	0x30, 0x40, 0x30, 0x90, 0x30, 0x64, 0x81, 0x58, 0x80, 0x30, 0x40, 0x18,
	0x90, 0x34, 0x64, 0x81, 0x58, 0x80, 0x34, 0x40, 0x18, 0x90, 0x37, 0x64,
	0x81, 0x58, 0x80, 0x37, 0x40, 0x18, 0x90, 0x30, 0x64, 0x81, 0x58, 0x80,
	0x30, 0x40, 0x18, 0x90, 0x34, 0x64, 0x81, 0x58, 0x80, 0x34, 0x40, 0x18,
	0x90, 0x37, 0x64, 0x81, 0x58, 0x80, 0x37, 0x40, 0x18, 0x90, 0x39, 0x64,
	0x00, 0x90, 0x2D, 0x64, 0x86, 0x60, 0x80, 0x39, 0x40, 0x00, 0x80, 0x2D,
	0x40, 0x60, 0x90, 0x39, 0x64, 0x00, 0x90, 0x2F, 0x64, 0x85, 0x08, 0x80,
	0x39, 0x40, 0x00, 0x80, 0x2F, 0x40, 0x48, 0x90, 0x2F, 0x64, 0x81, 0x58,
	0x80, 0x2F, 0x40, 0x18, 0x90, 0x28, 0x64, 0x00, 0x90, 0x33, 0x64, 0x83,
	0x30, 0x80, 0x33, 0x40, 0x30, 0x90, 0x34, 0x64, 0x83, 0x00, 0x80, 0x28,
	0x40, 0x30, 0x80, 0x34, 0x40, 0x30, 0x90, 0x35, 0x64, 0x00, 0x90, 0x29,
	0x64, 0x83, 0x30, 0x80, 0x35, 0x40, 0x00, 0x80, 0x29, 0x40, 0x30, 0x90,
	0x35, 0x64, 0x00, 0x90, 0x29, 0x64, 0x83, 0x30, 0x80, 0x35, 0x40, 0x00,
	0x80, 0x29, 0x40, 0x30, 0x90, 0x34, 0x64, 0x00, 0x90, 0x2B, 0x64, 0x85,
	0x08, 0x80, 0x34, 0x40, 0x00, 0x80, 0x2B, 0x40, 0x48, 0x90, 0x34, 0x64,
	0x00, 0x90, 0x2B, 0x64, 0x81, 0x58, 0x80, 0x34, 0x40, 0x00, 0x80, 0x2B,
	0x40, 0x18, 0x90, 0x35, 0x64, 0x00, 0x90, 0x2B, 0x64, 0x83, 0x30, 0x80,
	0x35, 0x40, 0x00, 0x80, 0x2B, 0x40, 0x30, 0x90, 0x35, 0x64, 0x00, 0x90,
	0x2B, 0x64, 0x83, 0x30, 0x80, 0x35, 0x40, 0x00, 0x80, 0x2B, 0x40, 0x30,
	0x90, 0x35, 0x64, 0x00, 0x90, 0x2B, 0x64, 0x86, 0x60, 0x80, 0x35, 0x40,
	0x00, 0x80, 0x2B, 0x40, 0x60, 0x90, 0x34, 0x64, 0x00, 0x90, 0x30, 0x64,
	0x83, 0x30, 0x80, 0x34, 0x40, 0x00, 0x80, 0x30, 0x40, 0x86, 0x78, 0x90,
	0x2B, 0x5A, 0x00, 0x90, 0x2F, 0x5A, 0x6C, 0x80, 0x2B, 0x40, 0x00, 0x80,
	0x2F, 0x40, 0x0C, 0x90, 0x2B, 0x5A, 0x00, 0x90, 0x2F, 0x5A, 0x85, 0x74,
	0x80, 0x2B, 0x40, 0x00, 0x80, 0x2F, 0x40, 0x54, 0x90, 0x3B, 0x5A, 0x00,
	0x90, 0x37, 0x5A, 0x6C, 0x80, 0x3B, 0x40, 0x00, 0x80, 0x37, 0x40, 0x0C,
	0x90, 0x3B, 0x5A, 0x00, 0x90, 0x37, 0x5A, 0x86, 0x24, 0x80, 0x3B, 0x40,
	0x00, 0x80, 0x37, 0x40, 0x24, 0x90, 0x3E, 0x5A, 0x00, 0x90, 0x3B, 0x5A,
	0x6C, 0x80, 0x3E, 0x40, 0x00, 0x80, 0x3B, 0x40, 0x0C, 0x90, 0x3E, 0x5A,
	0x00, 0x90, 0x3B, 0x5A, 0x83, 0x30, 0x80, 0x3E, 0x40, 0x00, 0x80, 0x3B,
	0x40, 0x83, 0x18, 0x90, 0x43, 0x5A, 0x00, 0x90, 0x37, 0x5A, 0x6C, 0x80,
	0x43, 0x40, 0x00, 0x80, 0x37, 0x40, 0x0C, 0x90, 0x43, 0x5A, 0x00, 0x90,
	0x37, 0x5A, 0x86, 0x24, 0x80, 0x43, 0x40, 0x00, 0x80, 0x37, 0x40, 0x24,
	0x90, 0x43, 0x5A, 0x00, 0x90, 0x37, 0x5A, 0x6C, 0x80, 0x43, 0x40, 0x00,
	0x80, 0x37, 0x40, 0x0C, 0x90, 0x43, 0x5A, 0x00, 0x90, 0x37, 0x5A, 0x85,
	0x74, 0x80, 0x43, 0x40, 0x00, 0x80, 0x37, 0x40, 0x54, 0x90, 0x43, 0x5A,
	0x00, 0x90, 0x37, 0x5A, 0x6C, 0x80, 0x43, 0x40, 0x00, 0x80, 0x37, 0x40,
	0x0C, 0x90, 0x43, 0x5A, 0x00, 0x90, 0x37, 0x5A, 0x86, 0x24, 0x80, 0x43,
	0x40, 0x00, 0x80, 0x37, 0x40, 0x24, 0x90, 0x43, 0x5A, 0x00, 0x90, 0x37,
	0x5A, 0x6C, 0x80, 0x43, 0x40, 0x00, 0x80, 0x37, 0x40, 0x0C, 0x90, 0x43,
	0x5A, 0x00, 0x90, 0x37, 0x5A, 0x85, 0x74, 0x80, 0x43, 0x40, 0x00, 0x80,
	0x37, 0x40, 0x54, 0x90, 0x3E, 0x5A, 0x00, 0x90, 0x32, 0x5A, 0x6C, 0x80,
	0x3E, 0x40, 0x00, 0x80, 0x32, 0x40, 0x0C, 0x90, 0x3E, 0x5A, 0x00, 0x90,
	0x32, 0x5A, 0x86, 0x24, 0x80, 0x3E, 0x40, 0x00, 0x80, 0x32, 0x40, 0x24,
	0x90, 0x3E, 0x5A, 0x00, 0x90, 0x32, 0x5A, 0x6C, 0x80, 0x3E, 0x40, 0x00,
	0x80, 0x32, 0x40, 0x0C, 0x90, 0x3E, 0x5A, 0x00, 0x90, 0x32, 0x5A, 0x85,
	0x74, 0x80, 0x3E, 0x40, 0x00, 0x80, 0x32, 0x40, 0x54, 0x90, 0x3E, 0x5A,
	0x00, 0x90, 0x32, 0x5A, 0x6C, 0x80, 0x3E, 0x40, 0x00, 0x80, 0x32, 0x40,
	0x0C, 0x90, 0x3E, 0x5A, 0x00, 0x90, 0x32, 0x5A, 0x83, 0x60, 0x90, 0x3E,
	0x5A, 0x00, 0x90, 0x32, 0x5A, 0x82, 0x44, 0x80, 0x3E, 0x40, 0x00, 0x80,
	0x32, 0x40, 0x00, 0x80, 0x3E, 0x40, 0x00, 0x80, 0x32, 0x40, 0x24, 0x90,
	0x32, 0x5A, 0x6C, 0x80, 0x32, 0x40, 0x0C, 0x90, 0x32, 0x5A, 0x82, 0x44,
	0x80, 0x32, 0x40, 0x24, 0x90, 0x3E, 0x5A, 0x6C, 0x80, 0x3E, 0x40, 0x0C,
	0x90, 0x3E, 0x5A, 0x83, 0x30, 0x80, 0x3E, 0x40, 0x30, 0x90, 0x36, 0x5A,
	0x83, 0x30, 0x80, 0x36, 0x40, 0x30, 0x90, 0x2F, 0x5A, 0x82, 0x44, 0x80,
	0x2F, 0x40, 0x24, 0x90, 0x3B, 0x5A, 0x6C, 0x80, 0x3B, 0x40, 0x0C, 0x90,
	0x3B, 0x6E, 0x85, 0x74, 0x80, 0x3B, 0x40, 0x54, 0x90, 0x3B, 0x6E, 0x6C,
	0x80, 0x3B, 0x40, 0x0C, 0x90, 0x3B, 0x6E, 0x86, 0x24, 0x80, 0x3B, 0x40,
	0x24, 0x90, 0x3B, 0x6E, 0x6C, 0x80, 0x3B, 0x40, 0x0C, 0x90, 0x3B, 0x50,
	0x85, 0x74, 0x80, 0x3B, 0x40, 0x54, 0x90, 0x3B, 0x6E, 0x6C, 0x80, 0x3B,
	0x40, 0x0C, 0x90, 0x3B, 0x6E, 0x86, 0x24, 0x80, 0x3B, 0x40, 0x24, 0x90,
	0x3B, 0x6E, 0x6C, 0x80, 0x3B, 0x40, 0x0C, 0x90, 0x3B, 0x6E, 0x82, 0x44,
	0x80, 0x3B, 0x40, 0x24, 0x90, 0x3B, 0x6E, 0x6C, 0x80, 0x3B, 0x40, 0x0C,
	0x90, 0x3B, 0x6E, 0x83, 0x30, 0x80, 0x3B, 0x40, 0x30, 0x90, 0x32, 0x50,
	0x83, 0x30, 0x80, 0x32, 0x40, 0x30, 0x90, 0x2B, 0x5A, 0x82, 0x44, 0x80,
	0x2B, 0x40, 0x24, 0x90, 0x37, 0x5A, 0x6C, 0x80, 0x37, 0x40, 0x0C, 0x90,
	0x37, 0x5A, 0x85, 0x74, 0x80, 0x37, 0x40, 0x54, 0x90, 0x3B, 0x5A, 0x00,
	0x90, 0x37, 0x5A, 0x6C, 0x80, 0x3B, 0x40, 0x00, 0x80, 0x37, 0x40, 0x0C,
	0x90, 0x3B, 0x5A, 0x00, 0x90, 0x37, 0x5A, 0x86, 0x24, 0x80, 0x3B, 0x40,
	0x00, 0x80, 0x37, 0x40, 0x24, 0x90, 0x3E, 0x5A, 0x00, 0x90, 0x3B, 0x5A,
	0x00, 0x90, 0x37, 0x5A, 0x6C, 0x80, 0x3E, 0x40, 0x00, 0x80, 0x3B, 0x40,
	0x00, 0x80, 0x37, 0x40, 0x0C, 0x90, 0x3E, 0x5A, 0x00, 0x90, 0x3B, 0x5A,
	0x00, 0x90, 0x37, 0x5A, 0x83, 0x30, 0x80, 0x3E, 0x40, 0x00, 0x80, 0x3B,
	0x40, 0x00, 0x80, 0x37, 0x40, 0x30, 0x90, 0x30, 0x5A, 0x82, 0x44, 0x80,
	0x30, 0x40, 0x24, 0x90, 0x3C, 0x5A, 0x6C, 0x80, 0x3C, 0x40, 0x0C, 0x90,
	0x3C, 0x5A, 0x83, 0x30, 0x80, 0x3C, 0x40, 0x30, 0x90, 0x32, 0x5A, 0x82,
	0x44, 0x80, 0x32, 0x40, 0x24, 0x90, 0x3E, 0x5A, 0x6C, 0x80, 0x3E, 0x40,
	0x0C, 0x90, 0x3E, 0x5A, 0x83, 0x30, 0x80, 0x3E, 0x40, 0x30, 0x90, 0x32,
	0x5A, 0x82, 0x44, 0x80, 0x32, 0x40, 0x24, 0x90, 0x3E, 0x5A, 0x6C, 0x80,
	0x3E, 0x40, 0x0C, 0x90, 0x3E, 0x5A, 0x83, 0x30, 0x80, 0x3E, 0x40, 0x30,
	0x90, 0x2B, 0x5A, 0x82, 0x44, 0x80, 0x2B, 0x40, 0x24, 0x90, 0x3B, 0x5A,
	0x00, 0x90, 0x37, 0x5A, 0x6C, 0x80, 0x3B, 0x40, 0x00, 0x80, 0x37, 0x40,
	0x0C, 0x90, 0x3B, 0x5A, 0x00, 0x90, 0x37, 0x5A, 0x82, 0x44, 0x80, 0x3B,
	0x40, 0x00, 0x80, 0x37, 0x40, 0x24, 0x90, 0x3E, 0x5A, 0x00, 0x90, 0x3B,
	0x5A, 0x00, 0x90, 0x37, 0x5A, 0x6C, 0x80, 0x3E, 0x40, 0x00, 0x80, 0x3B,
	0x40, 0x00, 0x80, 0x37, 0x40, 0x0C, 0x90, 0x3E, 0x5A, 0x00, 0x90, 0x3B,
	0x5A, 0x00, 0x90, 0x37, 0x5A, 0x83, 0x30, 0x80, 0x3E, 0x40, 0x00, 0x80,
	0x3B, 0x40, 0x00, 0x80, 0x37, 0x40, 0x30, 0x90, 0x36, 0x5A, 0x83, 0x30,
	0x80, 0x36, 0x40, 0x30, 0x90, 0x2F, 0x5A, 0x82, 0x44, 0x80, 0x2F, 0x40,
	0x24, 0x90, 0x3B, 0x5A, 0x6C, 0x80, 0x3B, 0x40, 0x0C, 0x90, 0x3B, 0x6E,
	0x85, 0x74, 0x80, 0x3B, 0x40, 0x54, 0x90, 0x3B, 0x6E, 0x6C, 0x80, 0x3B,
	0x40, 0x0C, 0x90, 0x3B, 0x6E, 0x86, 0x24, 0x80, 0x3B, 0x40, 0x24, 0x90,
	0x3B, 0x6E, 0x6C, 0x80, 0x3B, 0x40, 0x0C, 0x90, 0x3B, 0x50, 0x85, 0x74,
	0x80, 0x3B, 0x40, 0x54, 0x90, 0x3B, 0x6E, 0x6C, 0x80, 0x3B, 0x40, 0x0C,
	0x90, 0x3B, 0x6E, 0x86, 0x24, 0x80, 0x3B, 0x40, 0x24, 0x90, 0x3B, 0x6E,
	0x6C, 0x80, 0x3B, 0x40, 0x0C, 0x90, 0x3B, 0x6E, 0x82, 0x44, 0x80, 0x3B,
	0x40, 0x24, 0x90, 0x3B, 0x6E, 0x6C, 0x80, 0x3B, 0x40, 0x0C, 0x90, 0x3B,
	0x6E, 0x83, 0x30, 0x80, 0x3B, 0x40, 0x30, 0x90, 0x32, 0x50, 0x83, 0x30,
	0x80, 0x32, 0x40, 0x30, 0x90, 0x2B, 0x5A, 0x82, 0x44, 0x80, 0x2B, 0x40,
	0x24, 0x90, 0x37, 0x5A, 0x6C, 0x80, 0x37, 0x40, 0x0C, 0x90, 0x37, 0x5A,
	0x85, 0x74, 0x80, 0x37, 0x40, 0x54, 0x90, 0x3B, 0x5A, 0x00, 0x90, 0x37,
	0x5A, 0x6C, 0x80, 0x3B, 0x40, 0x00, 0x80, 0x37, 0x40, 0x0C, 0x90, 0x3B,
	0x5A, 0x00, 0x90, 0x37, 0x5A, 0x86, 0x24, 0x80, 0x3B, 0x40, 0x00, 0x80,
	0x37, 0x40, 0x24, 0x90, 0x3E, 0x5A, 0x00, 0x90, 0x3B, 0x5A, 0x00, 0x90,
	0x37, 0x5A, 0x6C, 0x80, 0x3E, 0x40, 0x00, 0x80, 0x3B, 0x40, 0x00, 0x80,
	0x37, 0x40, 0x0C, 0x90, 0x3E, 0x5A, 0x00, 0x90, 0x3B, 0x5A, 0x00, 0x90,
	0x37, 0x5A, 0x83, 0x30, 0x80, 0x3E, 0x40, 0x00, 0x80, 0x3B, 0x40, 0x00,
	0x80, 0x37, 0x40, 0x30, 0x90, 0x30, 0x5A, 0x82, 0x44, 0x80, 0x30, 0x40,
	0x24, 0x90, 0x3C, 0x5A, 0x6C, 0x80, 0x3C, 0x40, 0x0C, 0x90, 0x3C, 0x5A,
	0x83, 0x30, 0x80, 0x3C, 0x40, 0x30, 0x90, 0x32, 0x5A, 0x82, 0x44, 0x80,
	0x32, 0x40, 0x24, 0x90, 0x3E, 0x5A, 0x6C, 0x80, 0x3E, 0x40, 0x0C, 0x90,
	0x3E, 0x5A, 0x83, 0x30, 0x80, 0x3E, 0x40, 0x30, 0x90, 0x32, 0x5A, 0x82,
	0x44, 0x80, 0x32, 0x40, 0x24, 0x90, 0x3E, 0x5A, 0x6C, 0x80, 0x3E, 0x40,
	0x0C, 0x90, 0x3E, 0x5A, 0x83, 0x30, 0x80, 0x3E, 0x40, 0x30, 0x90, 0x2B,
	0x5A, 0x82, 0x44, 0x80, 0x2B, 0x40, 0x24, 0x90, 0x3B, 0x5A, 0x00, 0x90,
	0x37, 0x5A, 0x6C, 0x80, 0x3B, 0x40, 0x00, 0x80, 0x37, 0x40, 0x0C, 0x90,
	0x3B, 0x5A, 0x00, 0x90, 0x37, 0x5A, 0x82, 0x44, 0x80, 0x3B, 0x40, 0x00,
	0x80, 0x37, 0x40, 0x24, 0x90, 0x3E, 0x5A, 0x00, 0x90, 0x3B, 0x5A, 0x00,
	0x90, 0x37, 0x5A, 0x6C, 0x80, 0x3E, 0x40, 0x00, 0x80, 0x3B, 0x40, 0x00,
	0x80, 0x37, 0x40, 0x0C, 0x90, 0x3E, 0x5A, 0x00, 0x90, 0x3B, 0x5A, 0x00,
	0x90, 0x37, 0x5A, 0x83, 0x30, 0x80, 0x3E, 0x40, 0x00, 0x80, 0x3B, 0x40,
	0x00, 0x80, 0x37, 0x40, 0x84, 0x10, 0x90, 0x39, 0x5A, 0x00, 0x90, 0x2D,
	0x5A, 0x86, 0x60, 0x80, 0x39, 0x40, 0x00, 0x80, 0x2D, 0x40, 0x60, 0x90,
	0x39, 0x5A, 0x00, 0x90, 0x2F, 0x5A, 0x85, 0x08, 0x80, 0x39, 0x40, 0x00,
	0x80, 0x2F, 0x40, 0x48, 0x90, 0x2F, 0x5A, 0x81, 0x58, 0x80, 0x2F, 0x40,
	0x18, 0x90, 0x28, 0x5A, 0x00, 0x90, 0x33, 0x5A, 0x83, 0x30, 0x80, 0x33,
	0x40, 0x30, 0x90, 0x34, 0x5A, 0x83, 0x00, 0x80, 0x28, 0x40, 0x30, 0x80,
	0x34, 0x40, 0x30, 0x90, 0x35, 0x5A, 0x00, 0x90, 0x29, 0x5A, 0x83, 0x30,
	0x80, 0x35, 0x40, 0x00, 0x80, 0x29, 0x40, 0x30, 0x90, 0x35, 0x5A, 0x00,
	0x90, 0x29, 0x5A, 0x83, 0x30, 0x80, 0x35, 0x40, 0x00, 0x80, 0x29, 0x40,
	0x30, 0x90, 0x34, 0x5A, 0x00, 0x90, 0x2B, 0x5A, 0x85, 0x08, 0x80, 0x34,
	0x40, 0x00, 0x80, 0x2B, 0x40, 0x48, 0x90, 0x34, 0x5A, 0x00, 0x90, 0x2B,
	0x5A, 0x81, 0x58, 0x80, 0x34, 0x40, 0x00, 0x80, 0x2B, 0x40, 0x18, 0x90,
	0x35, 0x5A, 0x00, 0x90, 0x2B, 0x5A, 0x83, 0x30, 0x80, 0x35, 0x40, 0x00,
	0x80, 0x2B, 0x40, 0x30, 0x90, 0x35, 0x5A, 0x00, 0x90, 0x2B, 0x5A, 0x83,
	0x30, 0x80, 0x35, 0x40, 0x00, 0x80, 0x2B, 0x40, 0x30, 0x90, 0x34, 0x5A,
	0x00, 0x90, 0x30, 0x5A, 0x83, 0x30, 0x80, 0x34, 0x40, 0x00, 0x80, 0x30,
	0x40, 0x30, 0x90, 0x30, 0x5A, 0x81, 0x58, 0x80, 0x30, 0x40, 0x18, 0x90,
	0x34, 0x5A, 0x81, 0x58, 0x80, 0x34, 0x40, 0x18, 0x90, 0x37, 0x5A, 0x81,
	0x58, 0x80, 0x37, 0x40, 0x18, 0x90, 0x30, 0x5A, 0x81, 0x58, 0x80, 0x30,
	0x40, 0x18, 0x90, 0x34, 0x5A, 0x81, 0x58, 0x80, 0x34, 0x40, 0x18, 0x90,
	0x37, 0x5A, 0x81, 0x58, 0x80, 0x37, 0x40, 0x18, 0x90, 0x39, 0x5A, 0x00,
	0x90, 0x2D, 0x5A, 0x86, 0x60, 0x80, 0x39, 0x40, 0x00, 0x80, 0x2D, 0x40,
	0x60, 0x90, 0x39, 0x5A, 0x00, 0x90, 0x2F, 0x5A, 0x85, 0x08, 0x80, 0x39,
	0x40, 0x00, 0x80, 0x2F, 0x40, 0x48, 0x90, 0x2F, 0x5A, 0x81, 0x58, 0x80,
	0x2F, 0x40, 0x18, 0x90, 0x28, 0x5A, 0x00, 0x90, 0x33, 0x5A, 0x83, 0x30,
	0x80, 0x33, 0x40, 0x30, 0x90, 0x34, 0x5A, 0x83, 0x00, 0x80, 0x28, 0x40,
	0x30, 0x80, 0x34, 0x40, 0x30, 0x90, 0x35, 0x5A, 0x00, 0x90, 0x29, 0x5A,
	0x83, 0x30, 0x80, 0x35, 0x40, 0x00, 0x80, 0x29, 0x40, 0x30, 0x90, 0x35,
	0x5A, 0x00, 0x90, 0x29, 0x5A, 0x83, 0x30, 0x80, 0x35, 0x40, 0x00, 0x80,
	0x29, 0x40, 0x30, 0x90, 0x34, 0x5A, 0x00, 0x90, 0x2B, 0x5A, 0x85, 0x08,
	0x80, 0x34, 0x40, 0x00, 0x80, 0x2B, 0x40, 0x48, 0x90, 0x34, 0x5A, 0x00,
	0x90, 0x2B, 0x5A, 0x81, 0x58, 0x80, 0x34, 0x40, 0x00, 0x80, 0x2B, 0x40,
	0x18, 0x90, 0x35, 0x5A, 0x00, 0x90, 0x2B, 0x5A, 0x83, 0x30, 0x80, 0x35,
	0x40, 0x00, 0x80, 0x2B, 0x40, 0x30, 0x90, 0x35, 0x5A, 0x00, 0x90, 0x2B,
	0x5A, 0x83, 0x30, 0x80, 0x35, 0x40, 0x00, 0x80, 0x2B, 0x40, 0x30, 0x90,
	0x37, 0x5A, 0x00, 0x90, 0x2B, 0x5A, 0x86, 0x60, 0x80, 0x37, 0x40, 0x00,
	0x80, 0x2B, 0x40, 0x60, 0x90, 0x34, 0x50, 0x00, 0x90, 0x30, 0x50, 0x83,
	0x30, 0x80, 0x34, 0x40, 0x00, 0x80, 0x30, 0x40, 0x30, 0x90, 0x39, 0x3C,
	0x81, 0x58, 0x80, 0x39, 0x40, 0x18, 0x90, 0x3C, 0x3C, 0x81, 0x58, 0x80,
	0x3C, 0x40, 0x18, 0x90, 0x34, 0x3C, 0x00, 0x90, 0x30, 0x3C, 0x81, 0x58,
	0x80, 0x34, 0x40, 0x00, 0x80, 0x30, 0x40, 0x18, 0x90, 0x3C, 0x3C, 0x81,
	0x58, 0x80, 0x3C, 0x40, 0x18, 0x90, 0x35, 0x3C, 0x81, 0x58, 0x80, 0x35,
	0x40, 0x18, 0x90, 0x3C, 0x3C, 0x81, 0x58, 0x80, 0x3C, 0x40, 0x18, 0x90,
	0x37, 0x3C, 0x81, 0x58, 0x80, 0x37, 0x40, 0x18, 0x90, 0x3C, 0x3C, 0x81,
	0x58, 0x80, 0x3C, 0x40, 0x18, 0x90, 0x38, 0x3C, 0x81, 0x58, 0x80, 0x38,
	0x40, 0x18, 0x90, 0x3C, 0x3C, 0x81, 0x58, 0x80, 0x3C, 0x40, 0x18, 0x90,
	0x39, 0x3C, 0x00, 0x90, 0x30, 0x3C, 0x81, 0x58, 0x80, 0x39, 0x40, 0x00,
	0x80, 0x30, 0x40, 0x18, 0x90, 0x3C, 0x3C, 0x81, 0x58, 0x80, 0x3C, 0x40,
	0x18, 0x90, 0x39, 0x3C, 0x81, 0x58, 0x80, 0x39, 0x40, 0x18, 0x90, 0x3C,
	0x3C, 0x81, 0x58, 0x80, 0x3C, 0x40, 0x18, 0x90, 0x39, 0x50, 0x81, 0x58,
	0x80, 0x39, 0x40, 0x18, 0x90, 0x3C, 0x6E, 0x81, 0x58, 0x80, 0x3C, 0x40,
	0x18, 0x90, 0x39, 0x6E, 0x81, 0x58, 0x80, 0x39, 0x40, 0x18, 0x90, 0x3C,
	0x6E, 0x81, 0x58, 0x80, 0x3C, 0x40, 0x18, 0x90, 0x38, 0x50, 0x00, 0x90,
	0x30, 0x50, 0x81, 0x58, 0x80, 0x38, 0x40, 0x00, 0x80, 0x30, 0x40, 0x18,
	0x90, 0x3B, 0x50, 0x81, 0x58, 0x80, 0x3B, 0x40, 0x18, 0x90, 0x39, 0x50,
	0x81, 0x58, 0x80, 0x39, 0x40, 0x18, 0x90, 0x3B, 0x50, 0x81, 0x58, 0x80,
	0x3B, 0x40, 0x18, 0x90, 0x35, 0x50, 0x81, 0x58, 0x80, 0x35, 0x40, 0x18,
	0x90, 0x39, 0x50, 0x81, 0x58, 0x80, 0x39, 0x40, 0x18, 0x90, 0x35, 0x50,
	0x81, 0x58, 0x80, 0x35, 0x40, 0x18, 0x90, 0x39, 0x50, 0x81, 0x58, 0x80,
	0x39, 0x40, 0x18, 0x90, 0x35, 0x50, 0x00, 0x90, 0x30, 0x50, 0x81, 0x58,
	0x80, 0x35, 0x40, 0x00, 0x80, 0x30, 0x40, 0x18, 0x90, 0x38, 0x50, 0x81,
	0x58, 0x80, 0x38, 0x40, 0x18, 0x90, 0x35, 0x50, 0x81, 0x58, 0x80, 0x35,
	0x40, 0x18, 0x90, 0x38, 0x50, 0x81, 0x58, 0x80, 0x38, 0x40, 0x18, 0x90,
	0x34, 0x50, 0x81, 0x58, 0x80, 0x34, 0x40, 0x18, 0x90, 0x37, 0x50, 0x81,
	0x58, 0x80, 0x37, 0x40, 0x18, 0x90, 0x30, 0x50, 0x00, 0x90, 0x2E, 0x50,
	0x81, 0x58, 0x80, 0x30, 0x40, 0x00, 0x80, 0x2E, 0x40, 0x18, 0x90, 0x34,
	0x50, 0x81, 0x58, 0x80, 0x34, 0x40, 0x18, 0x90, 0x2D, 0x3C, 0x00, 0x90,
	0x30, 0x3C, 0x81, 0x58, 0x80, 0x2D, 0x40, 0x00, 0x80, 0x30, 0x40, 0x18,
	0x90, 0x35, 0x3C, 0x81, 0x58, 0x80, 0x35, 0x40, 0x18, 0x90, 0x30, 0x3C,
	0x81, 0x58, 0x80, 0x30, 0x40, 0x18, 0x90, 0x35, 0x3C, 0x81, 0x58, 0x80,
	0x35, 0x40, 0x18, 0x90, 0x30, 0x3C, 0x81, 0x58, 0x80, 0x30, 0x40, 0x18,
	0x90, 0x35, 0x3C, 0x81, 0x58, 0x80, 0x35, 0x40, 0x18, 0x90, 0x30, 0x3C,
	0x81, 0x58, 0x80, 0x30, 0x40, 0x18, 0x90, 0x35, 0x3C, 0x81, 0x58, 0x80,
	0x35, 0x40, 0x18, 0x90, 0x29, 0x3C, 0x00, 0x90, 0x2D, 0x3C, 0x81, 0x58,
	0x80, 0x29, 0x40, 0x00, 0x80, 0x2D, 0x40, 0x18, 0x90, 0x35, 0x3C, 0x81,
	0x58, 0x80, 0x35, 0x40, 0x18, 0x90, 0x30, 0x3C, 0x81, 0x58, 0x80, 0x30,
	0x40, 0x18, 0x90, 0x35, 0x3C, 0x81, 0x58, 0x80, 0x35, 0x40, 0x18, 0x90,
	0x30, 0x3C, 0x81, 0x58, 0x80, 0x30, 0x40, 0x18, 0x90, 0x35, 0x3C, 0x81,
	0x58, 0x80, 0x35, 0x40, 0x18, 0x90, 0x30, 0x3C, 0x81, 0x58, 0x80, 0x30,
	0x40, 0x18, 0x90, 0x35, 0x3C, 0x81, 0x58, 0x80, 0x35, 0x40, 0x18, 0x90,
	0x35, 0x3C, 0x00, 0x90, 0x30, 0x3C, 0x81, 0x58, 0x80, 0x35, 0x40, 0x00,
	0x80, 0x30, 0x40, 0x18, 0x90, 0x3C, 0x3C, 0x81, 0x58, 0x80, 0x3C, 0x40,
	0x18, 0x90, 0x3A, 0x3C, 0x00, 0x90, 0x37, 0x3C, 0x81, 0x58, 0x80, 0x3A,
	0x40, 0x00, 0x80, 0x37, 0x40, 0x18, 0x90, 0x3C, 0x3C, 0x81, 0x58, 0x80,
	0x3C, 0x40, 0x18, 0x90, 0x3A, 0x3C, 0x00, 0x90, 0x37, 0x3C, 0x81, 0x58,
	0x80, 0x3A, 0x40, 0x00, 0x80, 0x37, 0x40, 0x18, 0x90, 0x3C, 0x3C, 0x81,
	0x58, 0x80, 0x3C, 0x40, 0x18, 0x90, 0x37, 0x3C, 0x00, 0x90, 0x34, 0x3C,
	0x81, 0x58, 0x80, 0x37, 0x40, 0x00, 0x80, 0x34, 0x40, 0x18, 0x90, 0x3C,
	0x3C, 0x81, 0x58, 0x80, 0x3C, 0x40, 0x18, 0x90, 0x39, 0x3C, 0x00, 0x90,
	0x35, 0x3C, 0x81, 0x58, 0x80, 0x39, 0x40, 0x00, 0x80, 0x35, 0x40, 0x18,
	0x90, 0x3C, 0x3C, 0x81, 0x58, 0x80, 0x3C, 0x40, 0x18, 0x90, 0x39, 0x3C,
	0x81, 0x58, 0x80, 0x39, 0x40, 0x18, 0x90, 0x3C, 0x3C, 0x81, 0x58, 0x80,
	0x3C, 0x40, 0x18, 0x90, 0x39, 0x3C, 0x81, 0x58, 0x80, 0x39, 0x40, 0x18,
	0x90, 0x3C, 0x3C, 0x81, 0x58, 0x80, 0x3C, 0x40, 0x18, 0x90, 0x39, 0x3C,
	0x81, 0x58, 0x80, 0x39, 0x40, 0x18, 0x90, 0x3C, 0x3C, 0x81, 0x58, 0x80,
	0x3C, 0x40, 0x18, 0x90, 0x2D, 0x3C, 0x00, 0x90, 0x30, 0x3C, 0x81, 0x58,
	0x80, 0x2D, 0x40, 0x00, 0x80, 0x30, 0x40, 0x18, 0x90, 0x35, 0x3C, 0x81,
	0x58, 0x80, 0x35, 0x40, 0x18, 0x90, 0x30, 0x50, 0x81, 0x58, 0x80, 0x30,
	0x40, 0x18, 0x90, 0x35, 0x50, 0x81, 0x58, 0x80, 0x35, 0x40, 0x18, 0x90,
	0x30, 0x50, 0x81, 0x58, 0x80, 0x30, 0x40, 0x18, 0x90, 0x35, 0x50, 0x81,
	0x58, 0x80, 0x35, 0x40, 0x18, 0x90, 0x30, 0x50, 0x81, 0x58, 0x80, 0x30,
	0x40, 0x18, 0x90, 0x35, 0x50, 0x81, 0x58, 0x80, 0x35, 0x40, 0x18, 0x90,
	0x2E, 0x6E, 0x00, 0x90, 0x31, 0x6E, 0x81, 0x58, 0x80, 0x2E, 0x40, 0x00,
	0x80, 0x31, 0x40, 0x18, 0x90, 0x35, 0x6E, 0x81, 0x58, 0x80, 0x35, 0x40,
	0x18, 0x90, 0x31, 0x6E, 0x81, 0x58, 0x80, 0x31, 0x40, 0x18, 0x90, 0x35,
	0x6E, 0x81, 0x58, 0x80, 0x35, 0x40, 0x18, 0x90, 0x2B, 0x6E, 0x00, 0x90,
	0x2E, 0x6E, 0x81, 0x58, 0x80, 0x2B, 0x40, 0x00, 0x80, 0x2E, 0x40, 0x18,
	0x90, 0x31, 0x6E, 0x81, 0x58, 0x80, 0x31, 0x40, 0x18, 0x90, 0x2E, 0x6E,
	0x81, 0x58, 0x80, 0x2E, 0x40, 0x18, 0x90, 0x31, 0x6E, 0x81, 0x58, 0x80,
	0x31, 0x40, 0x18, 0x90, 0x2D, 0x50, 0x00, 0x90, 0x30, 0x50, 0x81, 0x58,
	0x80, 0x2D, 0x40, 0x00, 0x80, 0x30, 0x40, 0x18, 0x90, 0x35, 0x50, 0x81,
	0x58, 0x80, 0x35, 0x40, 0x18, 0x90, 0x30, 0x50, 0x81, 0x58, 0x80, 0x30,
	0x40, 0x18, 0x90, 0x35, 0x50, 0x81, 0x58, 0x80, 0x35, 0x40, 0x18, 0x90,
	0x30, 0x50, 0x81, 0x58, 0x80, 0x30, 0x40, 0x18, 0x90, 0x35, 0x50, 0x81,
	0x58, 0x80, 0x35, 0x40, 0x18, 0x90, 0x30, 0x50, 0x81, 0x58, 0x80, 0x30,
	0x40, 0x18, 0x90, 0x35, 0x50, 0x81, 0x58, 0x80, 0x35, 0x40, 0x18, 0x90,
	0x2E, 0x6E, 0x00, 0x90, 0x31, 0x6E, 0x81, 0x58, 0x80, 0x2E, 0x40, 0x00,
	0x80, 0x31, 0x40, 0x18, 0x90, 0x35, 0x6E, 0x81, 0x58, 0x80, 0x35, 0x40,
	0x18, 0x90, 0x31, 0x50, 0x81, 0x58, 0x80, 0x31, 0x40, 0x18, 0x90, 0x35,
	0x50, 0x81, 0x58, 0x80, 0x35, 0x40, 0x18, 0x90, 0x2E, 0x50, 0x00, 0x90,
	0x31, 0x50, 0x81, 0x58, 0x80, 0x2E, 0x40, 0x00, 0x80, 0x31, 0x40, 0x18,
	0x90, 0x35, 0x50, 0x81, 0x58, 0x80, 0x35, 0x40, 0x18, 0x90, 0x31, 0x50,
	0x81, 0x58, 0x80, 0x31, 0x40, 0x18, 0x90, 0x35, 0x50, 0x81, 0x58, 0x80,
	0x35, 0x40, 0x18, 0x90, 0x32, 0x5A, 0x00, 0x90, 0x2F, 0x5A, 0x81, 0x58,
	0x80, 0x32, 0x40, 0x00, 0x80, 0x2F, 0x40, 0x18, 0x90, 0x37, 0x5A, 0x81,
	0x58, 0x80, 0x37, 0x40, 0x18, 0x90, 0x32, 0x50, 0x00, 0x90, 0x2F, 0x50,
	0x81, 0x58, 0x80, 0x32, 0x40, 0x00, 0x80, 0x2F, 0x40, 0x18, 0x90, 0x37,
	0x50, 0x81, 0x58, 0x80, 0x37, 0x40, 0x18, 0x90, 0x35, 0x6E, 0x00, 0x90,
	0x2F, 0x6E, 0x81, 0x58, 0x80, 0x35, 0x40, 0x00, 0x80, 0x2F, 0x40, 0x18,
	0x90, 0x37, 0x6E, 0x81, 0x58, 0x80, 0x37, 0x40, 0x18, 0x90, 0x35, 0x6E,
	0x00, 0x90, 0x2F, 0x6E, 0x81, 0x58, 0x80, 0x35, 0x40, 0x00, 0x80, 0x2F,
	0x40, 0x18, 0x90, 0x37, 0x50, 0x81, 0x58, 0x80, 0x37, 0x40, 0x18, 0x90,
	0x35, 0x50, 0x00, 0x90, 0x2F, 0x50, 0x81, 0x58, 0x80, 0x35, 0x40, 0x00,
	0x80, 0x2F, 0x40, 0x18, 0x90, 0x37, 0x50, 0x81, 0x58, 0x80, 0x37, 0x40,
	0x18, 0x90, 0x35, 0x50, 0x00, 0x90, 0x2F, 0x50, 0x81, 0x58, 0x80, 0x35,
	0x40, 0x00, 0x80, 0x2F, 0x40, 0x18, 0x90, 0x37, 0x50, 0x81, 0x58, 0x80,
	0x37, 0x40, 0x18, 0x90, 0x35, 0x50, 0x00, 0x90, 0x2F, 0x50, 0x81, 0x58,
	0x80, 0x35, 0x40, 0x00, 0x80, 0x2F, 0x40, 0x18, 0x90, 0x38, 0x50, 0x81,
	0x58, 0x80, 0x38, 0x40, 0x18, 0x90, 0x35, 0x50, 0x00, 0x90, 0x2F, 0x50,
	0x81, 0x58, 0x80, 0x35, 0x40, 0x00, 0x80, 0x2F, 0x40, 0x18, 0x90, 0x38,
	0x50, 0x81, 0x58, 0x80, 0x38, 0x40, 0x18, 0x90, 0x35, 0x50, 0x00, 0x90,
	0x30, 0x50, 0x81, 0x58, 0x80, 0x35, 0x40, 0x00, 0x80, 0x30, 0x40, 0x18,
	0x90, 0x39, 0x50, 0x81, 0x58, 0x80, 0x39, 0x40, 0x18, 0x90, 0x35, 0x50,
	0x00, 0x90, 0x30, 0x50, 0x81, 0x58, 0x80, 0x35, 0x40, 0x00, 0x80, 0x30,
	0x40, 0x18, 0x90, 0x39, 0x50, 0x81, 0x58, 0x80, 0x39, 0x40, 0x18, 0x90,
	0x34, 0x50, 0x00, 0x90, 0x30, 0x50, 0x81, 0x58, 0x80, 0x34, 0x40, 0x00,
	0x80, 0x30, 0x40, 0x18, 0x90, 0x39, 0x50, 0x81, 0x58, 0x80, 0x39, 0x40,
	0x18, 0x90, 0x34, 0x50, 0x00, 0x90, 0x30, 0x50, 0x81, 0x58, 0x80, 0x34,
	0x40, 0x00, 0x80, 0x30, 0x40, 0x18, 0x90, 0x39, 0x50, 0x81, 0x58, 0x80,
	0x39, 0x40, 0x18, 0x90, 0x29, 0x50, 0x00, 0x90, 0x30, 0x50, 0x81, 0x58,
	0x80, 0x29, 0x40, 0x00, 0x80, 0x30, 0x40, 0x18, 0x90, 0x35, 0x50, 0x81,
	0x58, 0x80, 0x35, 0x40, 0x18, 0x90, 0x30, 0x50, 0x81, 0x58, 0x80, 0x30,
	0x40, 0x18, 0x90, 0x35, 0x50, 0x81, 0x58, 0x80, 0x35, 0x40, 0x18, 0x90,
	0x30, 0x50, 0x81, 0x58, 0x80, 0x30, 0x40, 0x18, 0x90, 0x35, 0x50, 0x81,
	0x58, 0x80, 0x35, 0x40, 0x18, 0x90, 0x39, 0x3C, 0x81, 0x58, 0x80, 0x39,
	0x40, 0x18, 0x90, 0x3C, 0x3C, 0x81, 0x58, 0x80, 0x3C, 0x40, 0x18, 0x90,
	0x2D, 0x3C, 0x00, 0x90, 0x30, 0x3C, 0x81, 0x58, 0x80, 0x2D, 0x40, 0x00,
	0x80, 0x30, 0x40, 0x18, 0x90, 0x35, 0x3C, 0x81, 0x58, 0x80, 0x35, 0x40,
	0x18, 0x90, 0x30, 0x50, 0x81, 0x58, 0x80, 0x30, 0x40, 0x18, 0x90, 0x35,
	0x50, 0x81, 0x58, 0x80, 0x35, 0x40, 0x18, 0x90, 0x30, 0x50, 0x81, 0x58,
	0x80, 0x30, 0x40, 0x18, 0x90, 0x35, 0x50, 0x81, 0x58, 0x80, 0x35, 0x40,
	0x18, 0x90, 0x30, 0x50, 0x81, 0x58, 0x80, 0x30, 0x40, 0x18, 0x90, 0x35,
	0x50, 0x81, 0x58, 0x80, 0x35, 0x40, 0x18, 0x90, 0x2E, 0x6E, 0x00, 0x90,
	0x31, 0x6E, 0x81, 0x58, 0x80, 0x2E, 0x40, 0x00, 0x80, 0x31, 0x40, 0x18,
	0x90, 0x35, 0x6E, 0x81, 0x58, 0x80, 0x35, 0x40, 0x18, 0x90, 0x31, 0x6E,
	0x81, 0x58, 0x80, 0x31, 0x40, 0x18, 0x90, 0x35, 0x6E, 0x81, 0x58, 0x80,
	0x35, 0x40, 0x18, 0x90, 0x2B, 0x6E, 0x00, 0x90, 0x2E, 0x6E, 0x81, 0x58,
	0x80, 0x2B, 0x40, 0x00, 0x80, 0x2E, 0x40, 0x18, 0x90, 0x31, 0x6E, 0x81,
	0x58, 0x80, 0x31, 0x40, 0x18, 0x90, 0x2E, 0x6E, 0x81, 0x58, 0x80, 0x2E,
	0x40, 0x18, 0x90, 0x31, 0x6E, 0x81, 0x58, 0x80, 0x31, 0x40, 0x18, 0x90,
	0x2D, 0x50, 0x00, 0x90, 0x30, 0x50, 0x81, 0x58, 0x80, 0x2D, 0x40, 0x00,
	0x80, 0x30, 0x40, 0x18, 0x90, 0x35, 0x50, 0x81, 0x58, 0x80, 0x35, 0x40,
	0x18, 0x90, 0x30, 0x50, 0x81, 0x58, 0x80, 0x30, 0x40, 0x18, 0x90, 0x35,
	0x50, 0x81, 0x58, 0x80, 0x35, 0x40, 0x18, 0x90, 0x30, 0x50, 0x81, 0x58,
	0x80, 0x30, 0x40, 0x18, 0x90, 0x35, 0x50, 0x81, 0x58, 0x80, 0x35, 0x40,
	0x18, 0x90, 0x30, 0x50, 0x81, 0x58, 0x80, 0x30, 0x40, 0x18, 0x90, 0x35,
	0x50, 0x81, 0x58, 0x80, 0x35, 0x40, 0x18, 0x90, 0x2E, 0x6E, 0x00, 0x90,
	0x31, 0x6E, 0x81, 0x58, 0x80, 0x2E, 0x40, 0x00, 0x80, 0x31, 0x40, 0x18,
	0x90, 0x35, 0x6E, 0x81, 0x58, 0x80, 0x35, 0x40, 0x18, 0x90, 0x31, 0x50,
	0x81, 0x58, 0x80, 0x31, 0x40, 0x18, 0x90, 0x35, 0x50, 0x81, 0x58, 0x80,
	0x35, 0x40, 0x18, 0x90, 0x2E, 0x50, 0x00, 0x90, 0x31, 0x50, 0x81, 0x58,
	0x80, 0x2E, 0x40, 0x00, 0x80, 0x31, 0x40, 0x18, 0x90, 0x35, 0x50, 0x81,
	0x58, 0x80, 0x35, 0x40, 0x18, 0x90, 0x31, 0x50, 0x81, 0x58, 0x80, 0x31,
	0x40, 0x18, 0x90, 0x35, 0x50, 0x81, 0x58, 0x80, 0x35, 0x40, 0x18, 0x90,
	0x32, 0x5A, 0x00, 0x90, 0x2F, 0x5A, 0x81, 0x58, 0x80, 0x32, 0x40, 0x00,
	0x80, 0x2F, 0x40, 0x18, 0x90, 0x37, 0x5A, 0x81, 0x58, 0x80, 0x37, 0x40,
	0x18, 0x90, 0x32, 0x50, 0x00, 0x90, 0x2F, 0x50, 0x81, 0x58, 0x80, 0x32,
	0x40, 0x00, 0x80, 0x2F, 0x40, 0x18, 0x90, 0x37, 0x50, 0x81, 0x58, 0x80,
	0x37, 0x40, 0x18, 0x90, 0x35, 0x6E, 0x00, 0x90, 0x2F, 0x6E, 0x81, 0x58,
	0x80, 0x35, 0x40, 0x00, 0x80, 0x2F, 0x40, 0x18, 0x90, 0x37, 0x6E, 0x81,
	0x58, 0x80, 0x37, 0x40, 0x18, 0x90, 0x35, 0x6E, 0x00, 0x90, 0x2F, 0x6E,
	0x81, 0x58, 0x80, 0x35, 0x40, 0x00, 0x80, 0x2F, 0x40, 0x18, 0x90, 0x37,
	0x50, 0x81, 0x58, 0x80, 0x37, 0x40, 0x18, 0x90, 0x35, 0x50, 0x00, 0x90,
	0x2F, 0x50, 0x81, 0x58, 0x80, 0x35, 0x40, 0x00, 0x80, 0x2F, 0x40, 0x18,
	0x90, 0x37, 0x50, 0x81, 0x58, 0x80, 0x37, 0x40, 0x18, 0x90, 0x35, 0x50,
	0x00, 0x90, 0x2F, 0x50, 0x81, 0x58, 0x80, 0x35, 0x40, 0x00, 0x80, 0x2F,
	0x40, 0x18, 0x90, 0x37, 0x50, 0x81, 0x58, 0x80, 0x37, 0x40, 0x18, 0x90,
	0x35, 0x50, 0x00, 0x90, 0x2F, 0x50, 0x81, 0x58, 0x80, 0x35, 0x40, 0x00,
	0x80, 0x2F, 0x40, 0x18, 0x90, 0x38, 0x50, 0x81, 0x58, 0x80, 0x38, 0x40,
	0x18, 0x90, 0x35, 0x50, 0x00, 0x90, 0x2F, 0x50, 0x81, 0x58, 0x80, 0x35,
	0x40, 0x00, 0x80, 0x2F, 0x40, 0x18, 0x90, 0x38, 0x50, 0x81, 0x58, 0x80,
	0x38, 0x40, 0x18, 0x90, 0x35, 0x50, 0x00, 0x90, 0x30, 0x50, 0x81, 0x58,
	0x80, 0x35, 0x40, 0x00, 0x80, 0x30, 0x40, 0x18, 0x90, 0x39, 0x50, 0x81,
	0x58, 0x80, 0x39, 0x40, 0x18, 0x90, 0x35, 0x50, 0x00, 0x90, 0x30, 0x50,
	0x81, 0x58, 0x80, 0x35, 0x40, 0x00, 0x80, 0x30, 0x40, 0x18, 0x90, 0x39,
	0x50, 0x81, 0x58, 0x80, 0x39, 0x40, 0x18, 0x90, 0x34, 0x50, 0x00, 0x90,
	0x30, 0x50, 0x81, 0x58, 0x80, 0x34, 0x40, 0x00, 0x80, 0x30, 0x40, 0x18,
	0x90, 0x39, 0x50, 0x81, 0x58, 0x80, 0x39, 0x40, 0x18, 0x90, 0x34, 0x50,
	0x00, 0x90, 0x30, 0x50, 0x81, 0x58, 0x80, 0x34, 0x40, 0x00, 0x80, 0x30,
	0x40, 0x18, 0x90, 0x39, 0x50, 0x81, 0x58, 0x80, 0x39, 0x40, 0x18, 0x90,
	0x29, 0x50, 0x00, 0x90, 0x30, 0x50, 0x81, 0x58, 0x80, 0x29, 0x40, 0x00,
	0x80, 0x30, 0x40, 0x18, 0x90, 0x35, 0x50, 0x81, 0x58, 0x80, 0x35, 0x40,
	0x18, 0x90, 0x30, 0x50, 0x81, 0x58, 0x80, 0x30, 0x40, 0x18, 0x90, 0x35,
	0x50, 0x81, 0x58, 0x80, 0x35, 0x40, 0x18, 0x90, 0x30, 0x50, 0x81, 0x58,
	0x80, 0x30, 0x40, 0x18, 0x90, 0x35, 0x50, 0x81, 0x58, 0x80, 0x35, 0x40,
	0x18, 0x90, 0x29, 0x3C, 0x00, 0x90, 0x30, 0x3C, 0x81, 0x58, 0x80, 0x29,
	0x40, 0x00, 0x80, 0x30, 0x40, 0x18, 0x90, 0x35, 0x3C, 0x81, 0x58, 0x80,
	0x35, 0x40, 0x18, 0x90, 0x34, 0x50, 0x00, 0x90, 0x31, 0x50, 0x81, 0x58,
	0x80, 0x34, 0x40, 0x00, 0x80, 0x31, 0x40, 0x18, 0x90, 0x37, 0x50, 0x81,
	0x58, 0x80, 0x37, 0x40, 0x18, 0x90, 0x34, 0x50, 0x00, 0x90, 0x31, 0x50,
	0x81, 0x58, 0x80, 0x34, 0x40, 0x00, 0x80, 0x31, 0x40, 0x18, 0x90, 0x37,
	0x50, 0x81, 0x58, 0x80, 0x37, 0x40, 0x18, 0x90, 0x34, 0x50, 0x00, 0x90,
	0x31, 0x50, 0x81, 0x58, 0x80, 0x34, 0x40, 0x00, 0x80, 0x31, 0x40, 0x18,
	0x90, 0x37, 0x50, 0x81, 0x58, 0x80, 0x37, 0x40, 0x18, 0x90, 0x34, 0x50,
	0x00, 0x90, 0x31, 0x50, 0x81, 0x58, 0x80, 0x34, 0x40, 0x00, 0x80, 0x31,
	0x40, 0x18, 0x90, 0x37, 0x50, 0x81, 0x58, 0x80, 0x37, 0x40, 0x18, 0x90,
	0x35, 0x6E, 0x00, 0x90, 0x32, 0x6E, 0x81, 0x58, 0x80, 0x35, 0x40, 0x00,
	0x80, 0x32, 0x40, 0x18, 0x90, 0x39, 0x6E, 0x81, 0x58, 0x80, 0x39, 0x40,
	0x18, 0x90, 0x35, 0x6E, 0x00, 0x90, 0x32, 0x6E, 0x81, 0x58, 0x80, 0x35,
	0x40, 0x00, 0x80, 0x32, 0x40, 0x18, 0x90, 0x39, 0x6E, 0x81, 0x58, 0x80,
	0x39, 0x40, 0x18, 0x90, 0x35, 0x6E, 0x00, 0x90, 0x32, 0x6E, 0x81, 0x58,
	0x80, 0x35, 0x40, 0x00, 0x80, 0x32, 0x40, 0x18, 0x90, 0x39, 0x6E, 0x81,
	0x58, 0x80, 0x39, 0x40, 0x18, 0x90, 0x35, 0x6E, 0x00, 0x90, 0x32, 0x6E,
	0x81, 0x58, 0x80, 0x35, 0x40, 0x00, 0x80, 0x32, 0x40, 0x18, 0x90, 0x39,
	0x6E, 0x81, 0x58, 0x80, 0x39, 0x40, 0x18, 0x90, 0x2B, 0x6E, 0x00, 0x90,
	0x31, 0x6E, 0x81, 0x58, 0x80, 0x2B, 0x40, 0x00, 0x80, 0x31, 0x40, 0x18,
	0x90, 0x34, 0x6E, 0x81, 0x58, 0x80, 0x34, 0x40, 0x18, 0x90, 0x2B, 0x6E,
	0x00, 0x90, 0x31, 0x6E, 0x81, 0x58, 0x80, 0x2B, 0x40, 0x00, 0x80, 0x31,
	0x40, 0x18, 0x90, 0x34, 0x50, 0x81, 0x58, 0x80, 0x34, 0x40, 0x18, 0x90,
	0x2B, 0x50, 0x00, 0x90, 0x31, 0x50, 0x81, 0x58, 0x80, 0x2B, 0x40, 0x00,
	0x80, 0x31, 0x40, 0x18, 0x90, 0x34, 0x50, 0x81, 0x58, 0x80, 0x34, 0x40,
	0x18, 0x90, 0x2B, 0x50, 0x00, 0x90, 0x31, 0x50, 0x81, 0x58, 0x80, 0x2B,
	0x40, 0x00, 0x80, 0x31, 0x40, 0x18, 0x90, 0x34, 0x50, 0x81, 0x58, 0x80,
	0x34, 0x40, 0x18, 0x90, 0x29, 0x50, 0x00, 0x90, 0x2D, 0x50, 0x81, 0x58,
	0x80, 0x29, 0x40, 0x00, 0x80, 0x2D, 0x40, 0x18, 0x90, 0x32, 0x50, 0x81,
	0x58, 0x80, 0x32, 0x40, 0x18, 0x90, 0x29, 0x50, 0x00, 0x90, 0x2D, 0x50,
	0x81, 0x58, 0x80, 0x29, 0x40, 0x00, 0x80, 0x2D, 0x40, 0x18, 0x90, 0x32,
	0x50, 0x81, 0x58, 0x80, 0x32, 0x40, 0x18, 0x90, 0x29, 0x50, 0x00, 0x90,
	0x2D, 0x50, 0x81, 0x58, 0x80, 0x29, 0x40, 0x00, 0x80, 0x2D, 0x40, 0x18,
	0x90, 0x32, 0x50, 0x81, 0x58, 0x80, 0x32, 0x40, 0x18, 0x90, 0x29, 0x50,
	0x00, 0x90, 0x2D, 0x50, 0x81, 0x58, 0x80, 0x29, 0x40, 0x00, 0x80, 0x2D,
	0x40, 0x18, 0x90, 0x32, 0x50, 0x81, 0x58, 0x80, 0x32, 0x40, 0x18, 0x90,
	0x2B, 0x50, 0x00, 0x90, 0x2E, 0x50, 0x81, 0x58, 0x80, 0x2B, 0x40, 0x00,
	0x80, 0x2E, 0x40, 0x18, 0x90, 0x32, 0x50, 0x81, 0x58, 0x80, 0x32, 0x40,
	0x18, 0x90, 0x2B, 0x50, 0x00, 0x90, 0x2E, 0x50, 0x81, 0x58, 0x80, 0x2B,
	0x40, 0x00, 0x80, 0x2E, 0x40, 0x18, 0x90, 0x32, 0x50, 0x81, 0x58, 0x80,
	0x32, 0x40, 0x18, 0x90, 0x2D, 0x50, 0x00, 0x90, 0x32, 0x50, 0x81, 0x58,
	0x80, 0x2D, 0x40, 0x00, 0x80, 0x32, 0x40, 0x18, 0x90, 0x35, 0x50, 0x81,
	0x58, 0x80, 0x35, 0x40, 0x18, 0x90, 0x2D, 0x50, 0x00, 0x90, 0x32, 0x50,
	0x81, 0x58, 0x80, 0x2D, 0x40, 0x00, 0x80, 0x32, 0x40, 0x18, 0x90, 0x35,
	0x50, 0x81, 0x58, 0x80, 0x35, 0x40, 0x18, 0x90, 0x32, 0x50, 0x00, 0x90,
	0x2E, 0x50, 0x81, 0x58, 0x80, 0x32, 0x40, 0x00, 0x80, 0x2E, 0x40, 0x18,
	0x90, 0x37, 0x50, 0x81, 0x58, 0x80, 0x37, 0x40, 0x18, 0x90, 0x32, 0x50,
	0x00, 0x90, 0x2E, 0x50, 0x81, 0x58, 0x80, 0x32, 0x40, 0x00, 0x80, 0x2E,
	0x40, 0x18, 0x90, 0x37, 0x50, 0x81, 0x58, 0x80, 0x37, 0x40, 0x18, 0x90,
	0x29, 0x50, 0x00, 0x90, 0x2D, 0x50, 0x81, 0x58, 0x80, 0x29, 0x40, 0x00,
	0x80, 0x2D, 0x40, 0x18, 0x90, 0x32, 0x50, 0x81, 0x58, 0x80, 0x32, 0x40,
	0x18, 0x90, 0x29, 0x50, 0x00, 0x90, 0x2D, 0x50, 0x81, 0x58, 0x80, 0x29,
	0x40, 0x00, 0x80, 0x2D, 0x40, 0x18, 0x90, 0x32, 0x50, 0x81, 0x58, 0x80,
	0x32, 0x40, 0x18, 0x90, 0x2B, 0x50, 0x00, 0x90, 0x2E, 0x50, 0x81, 0x58,
	0x80, 0x2B, 0x40, 0x00, 0x80, 0x2E, 0x40, 0x18, 0x90, 0x32, 0x50, 0x81,
	0x58, 0x80, 0x32, 0x40, 0x18, 0x90, 0x2B, 0x50, 0x00, 0x90, 0x2E, 0x50,
	0x81, 0x58, 0x80, 0x2B, 0x40, 0x00, 0x80, 0x2E, 0x40, 0x18, 0x90, 0x32,
	0x50, 0x81, 0x58, 0x80, 0x32, 0x40, 0x18, 0x90, 0x32, 0x50, 0x00, 0x90,
	0x2E, 0x50, 0x81, 0x58, 0x80, 0x32, 0x40, 0x00, 0x80, 0x2E, 0x40, 0x18,
	0x90, 0x37, 0x50, 0x81, 0x58, 0x80, 0x37, 0x40, 0x18, 0x90, 0x32, 0x50,
	0x00, 0x90, 0x2E, 0x50, 0x81, 0x58, 0x80, 0x32, 0x40, 0x00, 0x80, 0x2E,
	0x40, 0x18, 0x90, 0x37, 0x50, 0x81, 0x58, 0x80, 0x37, 0x40, 0x18, 0x90,
	0x34, 0x6E, 0x00, 0x90, 0x2D, 0x6E, 0x81, 0x58, 0x80, 0x34, 0x40, 0x00,
	0x80, 0x2D, 0x40, 0x18, 0x90, 0x37, 0x6E, 0x81, 0x58, 0x80, 0x37, 0x40,
	0x18, 0x90, 0x34, 0x50, 0x81, 0x58, 0x80, 0x34, 0x40, 0x18, 0x90, 0x37,
	0x3C, 0x81, 0x58, 0x80, 0x37, 0x40, 0x18, 0x90, 0x34, 0x3C, 0x81, 0x58,
	0x80, 0x34, 0x40, 0x18, 0x90, 0x37, 0x3C, 0x81, 0x58, 0x80, 0x37, 0x40,
	0x18, 0x90, 0x2D, 0x3C, 0x00, 0x90, 0x2B, 0x3C, 0x81, 0x58, 0x80, 0x2D,
	0x40, 0x00, 0x80, 0x2B, 0x40, 0x18, 0x90, 0x34, 0x3C, 0x81, 0x58, 0x80,
	0x34, 0x40, 0x18, 0x90, 0x2A, 0x3C, 0x00, 0x90, 0x2D, 0x3C, 0x81, 0x58,
	0x80, 0x2A, 0x40, 0x00, 0x80, 0x2D, 0x40, 0x18, 0x90, 0x32, 0x3C, 0x81,
	0x58, 0x80, 0x32, 0x40, 0x18, 0x90, 0x2A, 0x3C, 0x00, 0x90, 0x2D, 0x3C,
	0x81, 0x58, 0x80, 0x2A, 0x40, 0x00, 0x80, 0x2D, 0x40, 0x18, 0x90, 0x32,
	0x3C, 0x81, 0x58, 0x80, 0x32, 0x40, 0x18, 0x90, 0x2A, 0x50, 0x00, 0x90,
	0x2D, 0x50, 0x81, 0x58, 0x80, 0x2A, 0x40, 0x00, 0x80, 0x2D, 0x40, 0x18,
	0x90, 0x32, 0x50, 0x81, 0x58, 0x80, 0x32, 0x40, 0x18, 0x90, 0x2A, 0x50,
	0x00, 0x90, 0x2D, 0x50, 0x81, 0x58, 0x80, 0x2A, 0x40, 0x00, 0x80, 0x2D,
	0x40, 0x18, 0x90, 0x32, 0x50, 0x81, 0x58, 0x80, 0x32, 0x40, 0x18, 0x90,
	0x2B, 0x6E, 0x00, 0x90, 0x32, 0x6E, 0x81, 0x58, 0x80, 0x2B, 0x40, 0x00,
	0x80, 0x32, 0x40, 0x18, 0x90, 0x37, 0x6E, 0x81, 0x58, 0x80, 0x37, 0x40,
	0x18, 0x90, 0x2B, 0x6E, 0x00, 0x90, 0x32, 0x6E, 0x81, 0x58, 0x80, 0x2B,
	0x40, 0x00, 0x80, 0x32, 0x40, 0x18, 0x90, 0x37, 0x6E, 0x81, 0x58, 0x80,
	0x37, 0x40, 0x18, 0x90, 0x2B, 0x6E, 0x00, 0x90, 0x32, 0x6E, 0x81, 0x58,
	0x80, 0x2B, 0x40, 0x00, 0x80, 0x32, 0x40, 0x18, 0x90, 0x37, 0x6E, 0x81,
	0x58, 0x80, 0x37, 0x40, 0x18, 0x90, 0x2B, 0x6E, 0x00, 0x90, 0x32, 0x6E,
	0x81, 0x58, 0x80, 0x2B, 0x40, 0x00, 0x80, 0x32, 0x40, 0x18, 0x90, 0x37,
	0x6E, 0x81, 0x58, 0x80, 0x37, 0x40, 0x18, 0x90, 0x2D, 0x6E, 0x00, 0x90,
	0x32, 0x6E, 0x81, 0x58, 0x80, 0x2D, 0x40, 0x00, 0x80, 0x32, 0x40, 0x18,
	0x90, 0x36, 0x6E, 0x81, 0x58, 0x80, 0x36, 0x40, 0x18, 0x90, 0x2D, 0x6E,
	0x00, 0x90, 0x32, 0x6E, 0x81, 0x58, 0x80, 0x2D, 0x40, 0x00, 0x80, 0x32,
	0x40, 0x18, 0x90, 0x36, 0x6E, 0x81, 0x58, 0x80, 0x36, 0x40, 0x18, 0x90,
	0x2D, 0x6E, 0x00, 0x90, 0x32, 0x6E, 0x81, 0x58, 0x80, 0x2D, 0x40, 0x00,
	0x80, 0x32, 0x40, 0x18, 0x90, 0x36, 0x6E, 0x81, 0x58, 0x80, 0x36, 0x40,
	0x18, 0x90, 0x2D, 0x6E, 0x00, 0x90, 0x32, 0x6E, 0x81, 0x58, 0x80, 0x2D,
	0x40, 0x00, 0x80, 0x32, 0x40, 0x18, 0x90, 0x36, 0x6E, 0x81, 0x58, 0x80,
	0x36, 0x40, 0x18, 0x90, 0x2B, 0x6E, 0x00, 0x90, 0x32, 0x6E, 0x81, 0x58,
	0x80, 0x2B, 0x40, 0x00, 0x80, 0x32, 0x40, 0x18, 0x90, 0x37, 0x6E, 0x81,
	0x58, 0x80, 0x37, 0x40, 0x18, 0x90, 0x2B, 0x6E, 0x00, 0x90, 0x32, 0x6E,
	0x81, 0x58, 0x80, 0x2B, 0x40, 0x00, 0x80, 0x32, 0x40, 0x18, 0x90, 0x37,
	0x6E, 0x81, 0x58, 0x80, 0x37, 0x40, 0x18, 0x90, 0x2B, 0x50, 0x00, 0x90,
	0x32, 0x50, 0x81, 0x58, 0x80, 0x2B, 0x40, 0x00, 0x80, 0x32, 0x40, 0x18,
	0x90, 0x37, 0x50, 0x81, 0x58, 0x80, 0x37, 0x40, 0x83, 0x78, 0x90, 0x39,
	0x5A, 0x00, 0x90, 0x36, 0x5A, 0x81, 0x58, 0x80, 0x39, 0x40, 0x00, 0x80,
	0x36, 0x40, 0x18, 0x90, 0x3C, 0x5A, 0x81, 0x58, 0x80, 0x3C, 0x40, 0x18,
	0x90, 0x39, 0x5A, 0x00, 0x90, 0x36, 0x5A, 0x81, 0x58, 0x80, 0x39, 0x40,
	0x00, 0x80, 0x36, 0x40, 0x18, 0x90, 0x3C, 0x5A, 0x81, 0x58, 0x80, 0x3C,
	0x40, 0x18, 0x90, 0x39, 0x50, 0x00, 0x90, 0x36, 0x50, 0x81, 0x58, 0x80,
	0x39, 0x40, 0x00, 0x80, 0x36, 0x40, 0x18, 0x90, 0x3C, 0x50, 0x81, 0x58,
	0x80, 0x3C, 0x40, 0x18, 0x90, 0x39, 0x3C, 0x00, 0x90, 0x36, 0x3C, 0x81,
	0x58, 0x80, 0x39, 0x40, 0x00, 0x80, 0x36, 0x40, 0x18, 0x90, 0x3C, 0x50,
	0x81, 0x58, 0x80, 0x3C, 0x40, 0x18, 0x90, 0x39, 0x50, 0x00, 0x90, 0x36,
	0x50, 0x81, 0x58, 0x80, 0x39, 0x40, 0x00, 0x80, 0x36, 0x40, 0x18, 0x90,
	0x3C, 0x50, 0x81, 0x58, 0x80, 0x3C, 0x40, 0x18, 0x90, 0x39, 0x50, 0x00,
	0x90, 0x36, 0x50, 0x81, 0x58, 0x80, 0x39, 0x40, 0x00, 0x80, 0x36, 0x40,
	0x18, 0x90, 0x3C, 0x50, 0x81, 0x58, 0x80, 0x3C, 0x40, 0x18, 0x90, 0x39,
	0x50, 0x00, 0x90, 0x36, 0x50, 0x81, 0x58, 0x80, 0x39, 0x40, 0x00, 0x80,
	0x36, 0x40, 0x18, 0x90, 0x3C, 0x50, 0x81, 0x58, 0x80, 0x3C, 0x40, 0x18,
	0x90, 0x39, 0x50, 0x00, 0x90, 0x36, 0x50, 0x81, 0x58, 0x80, 0x39, 0x40,
	0x00, 0x80, 0x36, 0x40, 0x18, 0x90, 0x3C, 0x50, 0x81, 0x58, 0x80, 0x3C,
	0x40, 0x18, 0x90, 0x3C, 0x50, 0x00, 0x90, 0x39, 0x50, 0x81, 0x58, 0x80,
	0x3C, 0x40, 0x00, 0x80, 0x39, 0x40, 0x18, 0x90, 0x42, 0x50, 0x81, 0x58,
	0x80, 0x42, 0x40, 0x18, 0x90, 0x3C, 0x50, 0x00, 0x90, 0x39, 0x50, 0x81,
	0x58, 0x80, 0x3C, 0x40, 0x00, 0x80, 0x39, 0x40, 0x18, 0x90, 0x42, 0x50,
	0x81, 0x58, 0x80, 0x42, 0x40, 0x18, 0x90, 0x3C, 0x50, 0x00, 0x90, 0x39,
	0x50, 0x81, 0x58, 0x80, 0x3C, 0x40, 0x00, 0x80, 0x39, 0x40, 0x18, 0x90,
	0x42, 0x50, 0x81, 0x58, 0x80, 0x42, 0x40, 0x18, 0x90, 0x3C, 0x50, 0x00,
	0x90, 0x39, 0x50, 0x81, 0x58, 0x80, 0x3C, 0x40, 0x00, 0x80, 0x39, 0x40,
	0x18, 0x90, 0x42, 0x50, 0x81, 0x58, 0x80, 0x42, 0x40, 0x18, 0x90, 0x3C,
	0x50, 0x00, 0x90, 0x39, 0x50, 0x81, 0x58, 0x80, 0x3C, 0x40, 0x00, 0x80,
	0x39, 0x40, 0x18, 0x90, 0x42, 0x50, 0x81, 0x58, 0x80, 0x42, 0x40, 0x18,
	0x90, 0x3C, 0x50, 0x00, 0x90, 0x39, 0x50, 0x81, 0x58, 0x80, 0x3C, 0x40,
	0x00, 0x80, 0x39, 0x40, 0x18, 0x90, 0x42, 0x50, 0x81, 0x58, 0x80, 0x42,
	0x40, 0x18, 0x90, 0x3C, 0x50, 0x00, 0x90, 0x39, 0x50, 0x81, 0x58, 0x80,
	0x3C, 0x40, 0x00, 0x80, 0x39, 0x40, 0x18, 0x90, 0x42, 0x50, 0x81, 0x70,
	0x90, 0x3C, 0x50, 0x00, 0x90, 0x39, 0x50, 0x83, 0x30, 0x80, 0x42, 0x40,
	0x00, 0x80, 0x3C, 0x40, 0x00, 0x80, 0x39, 0x40, 0x30, 0x90, 0x39, 0x64,
	0x00, 0x90, 0x2D, 0x64, 0x86, 0x60, 0x80, 0x39, 0x40, 0x00, 0x80, 0x2D,
	0x40, 0x60, 0x90, 0x39, 0x64, 0x00, 0x90, 0x2F, 0x64, 0x85, 0x08, 0x80,
	0x39, 0x40, 0x00, 0x80, 0x2F, 0x40, 0x48, 0x90, 0x2F, 0x64, 0x81, 0x58,
	0x80, 0x2F, 0x40, 0x18, 0x90, 0x28, 0x64, 0x00, 0x90, 0x33, 0x64, 0x83,
	0x30, 0x80, 0x33, 0x40, 0x30, 0x90, 0x34, 0x64, 0x83, 0x00, 0x80, 0x28,
	0x40, 0x30, 0x80, 0x34, 0x40, 0x30, 0x90, 0x35, 0x64, 0x00, 0x90, 0x29,
	0x64, 0x83, 0x30, 0x80, 0x35, 0x40, 0x00, 0x80, 0x29, 0x40, 0x30, 0x90,
	0x35, 0x64, 0x00, 0x90, 0x29, 0x64, 0x83, 0x30, 0x80, 0x35, 0x40, 0x00,
	0x80, 0x29, 0x40, 0x30, 0x90, 0x34, 0x64, 0x00, 0x90, 0x2B, 0x64, 0x85,
	0x08, 0x80, 0x34, 0x40, 0x00, 0x80, 0x2B, 0x40, 0x48, 0x90, 0x34, 0x64,
	0x00, 0x90, 0x2B, 0x64, 0x81, 0x58, 0x80, 0x34, 0x40, 0x00, 0x80, 0x2B,
	0x40, 0x18, 0x90, 0x35, 0x64, 0x00, 0x90, 0x2B, 0x64, 0x83, 0x30, 0x80,
	0x35, 0x40, 0x00, 0x80, 0x2B, 0x40, 0x30, 0x90, 0x35, 0x64, 0x00, 0x90,
	0x2B, 0x64, 0x83, 0x30, 0x80, 0x35, 0x40, 0x00, 0x80, 0x2B, 0x40, 0x30,
	0x90, 0x34, 0x64, 0x00, 0x90, 0x30, 0x64, 0x83, 0x30, 0x80, 0x34, 0x40,
	0x00, 0x80, 0x30, 0x40, 0x30, 0x90, 0x30, 0x64, 0x81, 0x58, 0x80, 0x30,
	0x40, 0x18, 0x90, 0x34, 0x64, 0x81, 0x58, 0x80, 0x34, 0x40, 0x18, 0x90,
	0x37, 0x64, 0x81, 0x58, 0x80, 0x37, 0x40, 0x18, 0x90, 0x30, 0x64, 0x81,
	0x58, 0x80, 0x30, 0x40, 0x18, 0x90, 0x34, 0x64, 0x81, 0x58, 0x80, 0x34,
	0x40, 0x18, 0x90, 0x37, 0x64, 0x81, 0x58, 0x80, 0x37, 0x40, 0x18, 0x90,
	0x39, 0x64, 0x00, 0x90, 0x2D, 0x64, 0x86, 0x60, 0x80, 0x39, 0x40, 0x00,
	0x80, 0x2D, 0x40, 0x60, 0x90, 0x39, 0x64, 0x00, 0x90, 0x2F, 0x64, 0x85,
	0x08, 0x80, 0x39, 0x40, 0x00, 0x80, 0x2F, 0x40, 0x48, 0x90, 0x2F, 0x64,
	0x81, 0x58, 0x80, 0x2F, 0x40, 0x18, 0x90, 0x28, 0x64, 0x00, 0x90, 0x33,
	0x64, 0x83, 0x30, 0x80, 0x33, 0x40, 0x30, 0x90, 0x34, 0x64, 0x83, 0x00,
	0x80, 0x28, 0x40, 0x30, 0x80, 0x34, 0x40, 0x30, 0x90, 0x35, 0x64, 0x00,
	0x90, 0x29, 0x64, 0x83, 0x30, 0x80, 0x35, 0x40, 0x00, 0x80, 0x29, 0x40,
	0x30, 0x90, 0x35, 0x64, 0x00, 0x90, 0x29, 0x64, 0x83, 0x30, 0x80, 0x35,
	0x40, 0x00, 0x80, 0x29, 0x40, 0x30, 0x90, 0x34, 0x64, 0x00, 0x90, 0x2B,
	0x64, 0x85, 0x08, 0x80, 0x34, 0x40, 0x00, 0x80, 0x2B, 0x40, 0x48, 0x90,
	0x34, 0x64, 0x00, 0x90, 0x2B, 0x64, 0x81, 0x58, 0x80, 0x34, 0x40, 0x00,
	0x80, 0x2B, 0x40, 0x18, 0x90, 0x35, 0x64, 0x00, 0x90, 0x2B, 0x64, 0x83,
	0x30, 0x80, 0x35, 0x40, 0x00, 0x80, 0x2B, 0x40, 0x30, 0x90, 0x35, 0x64,
	0x00, 0x90, 0x2B, 0x64, 0x83, 0x30, 0x80, 0x35, 0x40, 0x00, 0x80, 0x2B,
	0x40, 0x30, 0x90, 0x37, 0x64, 0x00, 0x90, 0x2B, 0x64, 0x86, 0x60, 0x80,
	0x37, 0x40, 0x00, 0x80, 0x2B, 0x40, 0x60, 0x90, 0x34, 0x64, 0x00, 0x90,
	0x30, 0x64, 0x83, 0x30, 0x80, 0x34, 0x40, 0x00, 0x80, 0x30, 0x40, 0x30,
	0x90, 0x3C, 0x64, 0x83, 0x30, 0x80, 0x3C, 0x40, 0x30, 0x90, 0x30, 0x64,
	0x86, 0x60, 0x80, 0x30, 0x40, 0x60, 0x90, 0x30, 0x64, 0x85, 0x08, 0x80,
	0x30, 0x40, 0x48, 0x90, 0x30, 0x64, 0x81, 0x58, 0x80, 0x30, 0x40, 0x18,
	0x90, 0x37, 0x64, 0x00, 0x90, 0x2B, 0x64, 0x8A, 0x10, 0x80, 0x37, 0x40,
	0x00, 0x80, 0x2B, 0x40, 0x81, 0x10, 0x90, 0x2B, 0x64, 0x00, 0x90, 0x2F,
	0x64, 0x83, 0x30, 0x80, 0x2B, 0x40, 0x00, 0x80, 0x2F, 0x40, 0x30, 0x90,
	0x30, 0x64, 0x83, 0x30, 0x80, 0x30, 0x40, 0x30, 0x90, 0x30, 0x64, 0x83,
	0x30, 0x80, 0x30, 0x40, 0x30, 0x90, 0x34, 0x64, 0x83, 0x30, 0x80, 0x34,
	0x40, 0x30, 0x90, 0x30, 0x64, 0x83, 0x30, 0x80, 0x30, 0x40, 0x30, 0x90,
	0x37, 0x64, 0x00, 0x90, 0x2B, 0x64, 0x8A, 0x10, 0x80, 0x37, 0x40, 0x00,
	0x80, 0x2B, 0x40, 0x81, 0x10, 0x90, 0x2B, 0x64, 0x00, 0x90, 0x2F, 0x64,
	0x83, 0x30, 0x80, 0x2B, 0x40, 0x00, 0x80, 0x2F, 0x40, 0x30, 0x90, 0x30,
	0x64, 0x83, 0x30, 0x80, 0x30, 0x40, 0x30, 0x90, 0x2B, 0x64, 0x83, 0x30,
	0x80, 0x2B, 0x40, 0x30, 0x90, 0x28, 0x64, 0x83, 0x30, 0x80, 0x28, 0x40,
	0x30, 0x90, 0x24, 0x64, 0x00, 0x90, 0x30, 0x64, 0x83, 0x30, 0x80, 0x24,
	0x40, 0x00, 0x80, 0x30, 0x40, 0x30, 0x90, 0x35, 0x6E, 0x00, 0x90, 0x29,
	0x6E, 0x8A, 0x10, 0x80, 0x35, 0x40, 0x00, 0x80, 0x29, 0x40, 0x81, 0x10,
	0x90, 0x35, 0x6E, 0x00, 0x90, 0x29, 0x6E, 0x83, 0x30, 0x80, 0x35, 0x40,
	0x00, 0x80, 0x29, 0x40, 0x30, 0x90, 0x29, 0x6E, 0x83, 0x30, 0x80, 0x29,
	0x40, 0x30, 0x90, 0x35, 0x6E, 0x83, 0x30, 0x80, 0x35, 0x40, 0x30, 0x90,
	0x36, 0x6E, 0x83, 0x30, 0x80, 0x36, 0x40, 0x30, 0x90, 0x2A, 0x6E, 0x83,
	0x30, 0x80, 0x2A, 0x40, 0x30, 0x90, 0x2B, 0x6E, 0x83, 0x30, 0x80, 0x2B,
	0x40, 0x30, 0x90, 0x37, 0x6E, 0x81, 0x58, 0x80, 0x37, 0x40, 0x18, 0x90,
	0x35, 0x6E, 0x81, 0x58, 0x80, 0x35, 0x40, 0x18, 0x90, 0x34, 0x6E, 0x81,
	0x58, 0x80, 0x34, 0x40, 0x18, 0x90, 0x32, 0x6E, 0x81, 0x58, 0x80, 0x32,
	0x40, 0x18, 0x90, 0x30, 0x6E, 0x81, 0x58, 0x80, 0x30, 0x40, 0x18, 0x90,
	0x2F, 0x6E, 0x81, 0x58, 0x80, 0x2F, 0x40, 0x18, 0x90, 0x2D, 0x6E, 0x81,
	0x58, 0x80, 0x2D, 0x40, 0x18, 0x90, 0x30, 0x6E, 0x81, 0x58, 0x80, 0x30,
	0x40, 0x18, 0x90, 0x35, 0x6E, 0x81, 0x58, 0x80, 0x35, 0x40, 0x18, 0x90,
	0x2D, 0x6E, 0x81, 0x58, 0x80, 0x2D, 0x40, 0x18, 0x90, 0x2F, 0x6E, 0x81,
	0x58, 0x80, 0x2F, 0x40, 0x18, 0x90, 0x33, 0x6E, 0x81, 0x58, 0x80, 0x33,
	0x40, 0x18, 0x90, 0x36, 0x6E, 0x81, 0x58, 0x80, 0x36, 0x40, 0x18, 0x90,
	0x3B, 0x6E, 0x81, 0x58, 0x80, 0x3B, 0x40, 0x18, 0x90, 0x34, 0x6E, 0x81,
	0x58, 0x80, 0x34, 0x40, 0x18, 0x90, 0x3B, 0x6E, 0x81, 0x58, 0x80, 0x3B,
	0x40, 0x18, 0x90, 0x40, 0x6E, 0x81, 0x58, 0x80, 0x40, 0x40, 0x18, 0x90,
	0x34, 0x6E, 0x81, 0x58, 0x80, 0x34, 0x40, 0x18, 0x90, 0x35, 0x6E, 0x81,
	0x58, 0x80, 0x35, 0x40, 0x18, 0x90, 0x39, 0x6E, 0x81, 0x58, 0x80, 0x39,
	0x40, 0x18, 0x90, 0x3E, 0x6E, 0x81, 0x58, 0x80, 0x3E, 0x40, 0x18, 0x90,
	0x35, 0x6E, 0x81, 0x58, 0x80, 0x35, 0x40, 0x18, 0x90, 0x37, 0x6E, 0x81,
	0x58, 0x80, 0x37, 0x40, 0x18, 0x90, 0x34, 0x6E, 0x81, 0x58, 0x80, 0x34,
	0x40, 0x18, 0x90, 0x30, 0x6E, 0x81, 0x58, 0x80, 0x30, 0x40, 0x18, 0x90,
	0x34, 0x6E, 0x81, 0x58, 0x80, 0x34, 0x40, 0x18, 0x90, 0x37, 0x6E, 0x81,
	0x58, 0x80, 0x37, 0x40, 0x18, 0x90, 0x2B, 0x6E, 0x81, 0x58, 0x80, 0x2B,
	0x40, 0x18, 0x90, 0x2F, 0x6E, 0x81, 0x58, 0x80, 0x2F, 0x40, 0x18, 0x90,
	0x37, 0x6E, 0x81, 0x58, 0x80, 0x37, 0x40, 0x18, 0x90, 0x30, 0x6E, 0x81,
	0x58, 0x80, 0x30, 0x40, 0x18, 0x90, 0x34, 0x6E, 0x81, 0x58, 0x80, 0x34,
	0x40, 0x18, 0x90, 0x37, 0x6E, 0x81, 0x58, 0x80, 0x37, 0x40, 0x18, 0x90,
	0x34, 0x6E, 0x81, 0x58, 0x80, 0x34, 0x40, 0x18, 0x90, 0x30, 0x6E, 0x81,
	0x58, 0x80, 0x30, 0x40, 0x18, 0x90, 0x2B, 0x6E, 0x81, 0x58, 0x80, 0x2B,
	0x40, 0x18, 0x90, 0x28, 0x6E, 0x81, 0x58, 0x80, 0x28, 0x40, 0x18, 0x90,
	0x24, 0x6E, 0x81, 0x58, 0x80, 0x24, 0x40, 0x18, 0x90, 0x21, 0x6E, 0x81,
	0x58, 0x80, 0x21, 0x40, 0x18, 0x90, 0x24, 0x6E, 0x81, 0x58, 0x80, 0x24,
	0x40, 0x18, 0x90, 0x29, 0x6E, 0x81, 0x58, 0x80, 0x29, 0x40, 0x18, 0x90,
	0x21, 0x6E, 0x81, 0x58, 0x80, 0x21, 0x40, 0x18, 0x90, 0x23, 0x6E, 0x81,
	0x58, 0x80, 0x23, 0x40, 0x18, 0x90, 0x27, 0x6E, 0x81, 0x58, 0x80, 0x27,
	0x40, 0x18, 0x90, 0x2A, 0x6E, 0x81, 0x58, 0x80, 0x2A, 0x40, 0x18, 0x90,
	0x2F, 0x6E, 0x81, 0x58, 0x80, 0x2F, 0x40, 0x18, 0x90, 0x28, 0x6E, 0x81,
	0x58, 0x80, 0x28, 0x40, 0x18, 0x90, 0x2B, 0x6E, 0x81, 0x58, 0x80, 0x2B,
	0x40, 0x18, 0x90, 0x25, 0x6E, 0x81, 0x58, 0x80, 0x25, 0x40, 0x18, 0x90,
	0x2E, 0x6E, 0x81, 0x58, 0x80, 0x2E, 0x40, 0x18, 0x90, 0x26, 0x6E, 0x81,
	0x58, 0x80, 0x26, 0x40, 0x18, 0x90, 0x2D, 0x6E, 0x81, 0x58, 0x80, 0x2D,
	0x40, 0x18, 0x90, 0x29, 0x6E, 0x81, 0x58, 0x80, 0x29, 0x40, 0x18, 0x90,
	0x32, 0x6E, 0x81, 0x58, 0x80, 0x32, 0x40, 0x18, 0x90, 0x2B, 0x6E, 0x81,
	0x58, 0x80, 0x2B, 0x40, 0x18, 0x90, 0x30, 0x6E, 0x81, 0x58, 0x80, 0x30,
	0x40, 0x18, 0x90, 0x34, 0x6E, 0x81, 0x58, 0x80, 0x34, 0x40, 0x18, 0x90,
	0x37, 0x6E, 0x81, 0x58, 0x80, 0x37, 0x40, 0x18, 0x90, 0x2B, 0x6E, 0x83,
	0x30, 0x80, 0x2B, 0x40, 0x30, 0x90, 0x35, 0x6E, 0x00, 0x90, 0x2B, 0x6E,
	0x83, 0x30, 0x80, 0x35, 0x40, 0x00, 0x80, 0x2B, 0x40, 0x30, 0x90, 0x35,
	0x6E, 0x00, 0x90, 0x2B, 0x6E, 0x86, 0x60, 0x80, 0x35, 0x40, 0x00, 0x80,
	0x2B, 0x40, 0x60, 0x90, 0x34, 0x50, 0x00, 0x90, 0x30, 0x50, 0x83, 0x30,
	0x80, 0x34, 0x40, 0x00, 0x80, 0x30, 0x40, 0xC0, 0x10, 0x90, 0x43, 0x6E,
	0x00, 0x90, 0x3A, 0x6E, 0x86, 0x60, 0x80, 0x43, 0x40, 0x00, 0x80, 0x3A,
	0x40, 0x60, 0x90, 0x41, 0x6E, 0x00, 0x90, 0x39, 0x6E, 0x85, 0x08, 0x80,
	0x41, 0x40, 0x00, 0x80, 0x39, 0x40, 0x48, 0x90, 0x40, 0x6E, 0x00, 0x90,
	0x38, 0x6E, 0x81, 0x58, 0x80, 0x40, 0x40, 0x00, 0x80, 0x38, 0x40, 0x18,
	0x90, 0x40, 0x6E, 0x00, 0x90, 0x38, 0x6E, 0x86, 0x60, 0x80, 0x40, 0x40,
	0x00, 0x80, 0x38, 0x40, 0x60, 0x90, 0x41, 0x6E, 0x00, 0x90, 0x39, 0x6E,
	0x86, 0x60, 0x80, 0x41, 0x40, 0x00, 0x80, 0x39, 0x40, 0x60, 0x90, 0x41,
	0x6E, 0x00, 0x90, 0x39, 0x6E, 0x86, 0x60, 0x80, 0x41, 0x40, 0x00, 0x80,
	0x39, 0x40, 0x60, 0x90, 0x40, 0x6E, 0x00, 0x90, 0x37, 0x6E, 0x85, 0x08,
	0x80, 0x40, 0x40, 0x00, 0x80, 0x37, 0x40, 0x48, 0x90, 0x3F, 0x6E, 0x00,
	0x90, 0x36, 0x6E, 0x81, 0x58, 0x80, 0x3F, 0x40, 0x00, 0x80, 0x36, 0x40,
	0x18, 0x90, 0x3F, 0x6E, 0x00, 0x90, 0x36, 0x6E, 0x86, 0x60, 0x80, 0x3F,
	0x40, 0x00, 0x80, 0x36, 0x40, 0x60, 0x90, 0x40, 0x6E, 0x00, 0x90, 0x37,
	0x6E, 0x86, 0x60, 0x80, 0x40, 0x40, 0x00, 0x80, 0x37, 0x40, 0x60, 0x90,
	0x40, 0x6E, 0x00, 0x90, 0x3C, 0x6E, 0x00, 0x90, 0x37, 0x6E, 0x86, 0x60,
	0x80, 0x40, 0x40, 0x00, 0x80, 0x3C, 0x40, 0x00, 0x80, 0x37, 0x40, 0x60,
	0x90, 0x3E, 0x6E, 0x00, 0x90, 0x35, 0x6E, 0x85, 0x08, 0x80, 0x3E, 0x40,
	0x00, 0x80, 0x35, 0x40, 0x48, 0x90, 0x3C, 0x6E, 0x00, 0x90, 0x34, 0x6E,
	0x81, 0x58, 0x80, 0x3C, 0x40, 0x00, 0x80, 0x34, 0x40, 0x18, 0x90, 0x40,
	0x6E, 0x00, 0x90, 0x3C, 0x6E, 0x00, 0x90, 0x37, 0x6E, 0x86, 0x60, 0x80,
	0x40, 0x40, 0x00, 0x80, 0x3C, 0x40, 0x00, 0x80, 0x37, 0x40, 0x60, 0x90,
	0x3E, 0x6E, 0x00, 0x90, 0x35, 0x6E, 0x85, 0x08, 0x80, 0x3E, 0x40, 0x00,
	0x80, 0x35, 0x40, 0x48, 0x90, 0x3C, 0x6E, 0x00, 0x90, 0x34, 0x6E, 0x81,
	0x58, 0x80, 0x3C, 0x40, 0x00, 0x80, 0x34, 0x40, 0x18, 0x90, 0x3C, 0x6E,
	0x00, 0x90, 0x35, 0x6E, 0x00, 0x90, 0x32, 0x6E, 0x83, 0x30, 0x80, 0x3C,
	0x40, 0x00, 0x80, 0x35, 0x40, 0x00, 0x80, 0x32, 0x40, 0x30, 0x90, 0x3B,
	0x6E, 0x00, 0x90, 0x35, 0x6E, 0x00, 0x90, 0x32, 0x6E, 0x83, 0x30, 0x80,
	0x3B, 0x40, 0x00, 0x80, 0x35, 0x40, 0x00, 0x80, 0x32, 0x40, 0x30, 0x90,
	0x39, 0x6E, 0x00, 0x90, 0x35, 0x6E, 0x00, 0x90, 0x32, 0x6E, 0x83, 0x30,
	0x80, 0x39, 0x40, 0x00, 0x80, 0x35, 0x40, 0x00, 0x80, 0x32, 0x40, 0x30,
	0x90, 0x3B, 0x6E, 0x00, 0x90, 0x35, 0x6E, 0x00, 0x90, 0x32, 0x6E, 0x83,
	0x30, 0x80, 0x3B, 0x40, 0x00, 0x80, 0x35, 0x40, 0x00, 0x80, 0x32, 0x40,
	0x30, 0x90, 0x3C, 0x6E, 0x00, 0x90, 0x37, 0x6E, 0x00, 0x90, 0x34, 0x6E,
	0x00, 0x90, 0x30, 0x6E, 0x83, 0x30, 0x80, 0x3C, 0x40, 0x00, 0x80, 0x37,
	0x40, 0x00, 0x80, 0x34, 0x40, 0x00, 0x80, 0x30, 0x40, 0x8B, 0x50, 0x90,
	0x43, 0x6E, 0x00, 0x90, 0x3A, 0x6E, 0x86, 0x60, 0x80, 0x43, 0x40, 0x00,
	0x80, 0x3A, 0x40, 0x60, 0x90, 0x41, 0x6E, 0x00, 0x90, 0x39, 0x6E, 0x85,
	0x08, 0x80, 0x41, 0x40, 0x00, 0x80, 0x39, 0x40, 0x48, 0x90, 0x40, 0x6E,
	0x00, 0x90, 0x38, 0x6E, 0x81, 0x58, 0x80, 0x40, 0x40, 0x00, 0x80, 0x38,
	0x40, 0x18, 0x90, 0x40, 0x6E, 0x00, 0x90, 0x38, 0x6E, 0x86, 0x60, 0x80,
	0x40, 0x40, 0x00, 0x80, 0x38, 0x40, 0x60, 0x90, 0x41, 0x6E, 0x00, 0x90,
	0x39, 0x6E, 0x86, 0x60, 0x80, 0x41, 0x40, 0x00, 0x80, 0x39, 0x40, 0x60,
	0x90, 0x41, 0x6E, 0x00, 0x90, 0x39, 0x6E, 0x86, 0x60, 0x80, 0x41, 0x40,
	0x00, 0x80, 0x39, 0x40, 0x60, 0x90, 0x40, 0x6E, 0x00, 0x90, 0x37, 0x6E,
	0x85, 0x08, 0x80, 0x40, 0x40, 0x00, 0x80, 0x37, 0x40, 0x48, 0x90, 0x3F,
	0x6E, 0x00, 0x90, 0x36, 0x6E, 0x81, 0x58, 0x80, 0x3F, 0x40, 0x00, 0x80,
	0x36, 0x40, 0x18, 0x90, 0x3F, 0x6E, 0x00, 0x90, 0x36, 0x6E, 0x86, 0x60,
	0x80, 0x3F, 0x40, 0x00, 0x80, 0x36, 0x40, 0x60, 0x90, 0x40, 0x6E, 0x00,
	0x90, 0x37, 0x6E, 0x86, 0x60, 0x80, 0x40, 0x40, 0x00, 0x80, 0x37, 0x40,
	0x60, 0x90, 0x40, 0x6E, 0x00, 0x90, 0x3C, 0x6E, 0x00, 0x90, 0x37, 0x6E,
	0x86, 0x60, 0x80, 0x40, 0x40, 0x00, 0x80, 0x3C, 0x40, 0x00, 0x80, 0x37,
	0x40, 0x60, 0x90, 0x3E, 0x6E, 0x00, 0x90, 0x35, 0x6E, 0x85, 0x08, 0x80,
	0x3E, 0x40, 0x00, 0x80, 0x35, 0x40, 0x48, 0x90, 0x3C, 0x6E, 0x00, 0x90,
	0x34, 0x6E, 0x81, 0x58, 0x80, 0x3C, 0x40, 0x00, 0x80, 0x34, 0x40, 0x18,
	0x90, 0x40, 0x6E, 0x00, 0x90, 0x3C, 0x6E, 0x00, 0x90, 0x37, 0x6E, 0x86,
	0x60, 0x80, 0x40, 0x40, 0x00, 0x80, 0x3C, 0x40, 0x00, 0x80, 0x37, 0x40,
	0x60, 0x90, 0x3E, 0x6E, 0x00, 0x90, 0x35, 0x6E, 0x85, 0x08, 0x80, 0x3E,
	0x40, 0x00, 0x80, 0x35, 0x40, 0x48, 0x90, 0x3C, 0x6E, 0x00, 0x90, 0x34,
	0x6E, 0x81, 0x58, 0x80, 0x3C, 0x40, 0x00, 0x80, 0x34, 0x40, 0x18, 0x90,
	0x3C, 0x6E, 0x00, 0x90, 0x35, 0x6E, 0x00, 0x90, 0x32, 0x6E, 0x83, 0x30,
	0x80, 0x3C, 0x40, 0x00, 0x80, 0x35, 0x40, 0x00, 0x80, 0x32, 0x40, 0x30,
	0x90, 0x3B, 0x6E, 0x00, 0x90, 0x35, 0x6E, 0x00, 0x90, 0x32, 0x6E, 0x83,
	0x30, 0x80, 0x3B, 0x40, 0x00, 0x80, 0x35, 0x40, 0x00, 0x80, 0x32, 0x40,
	0x30, 0x90, 0x39, 0x6E, 0x00, 0x90, 0x35, 0x6E, 0x00, 0x90, 0x32, 0x6E,
	0x83, 0x30, 0x80, 0x39, 0x40, 0x00, 0x80, 0x35, 0x40, 0x00, 0x80, 0x32,
	0x40, 0x30, 0x90, 0x3B, 0x6E, 0x00, 0x90, 0x35, 0x6E, 0x00, 0x90, 0x32,
	0x6E, 0x83, 0x30, 0x80, 0x3B, 0x40, 0x00, 0x80, 0x35, 0x40, 0x00, 0x80,
	0x32, 0x40, 0x30, 0x90, 0x3C, 0x6E, 0x00, 0x90, 0x37, 0x6E, 0x00, 0x90,
	0x34, 0x6E, 0x00, 0x90, 0x30, 0x6E, 0x83, 0x30, 0x80, 0x3C, 0x40, 0x00,
	0x80, 0x37, 0x40, 0x00, 0x80, 0x34, 0x40, 0x00, 0x80, 0x30, 0x40, 0x8B,
	0x50, 0x90, 0x2B, 0x6E, 0x86, 0x60, 0x80, 0x2B, 0x40, 0x60, 0x90, 0x37,
	0x6E, 0x86, 0x60, 0x80, 0x37, 0x40, 0x60, 0x90, 0x2B, 0x6E, 0x86, 0x60,
	0x80, 0x2B, 0x40, 0x60, 0x90, 0x37, 0x6E, 0x86, 0x60, 0x80, 0x37, 0x40,
	0x60, 0x90, 0x37, 0x6E, 0x00, 0x90, 0x2B, 0x6E, 0x83, 0x30, 0x80, 0x37,
	0x40, 0x00, 0x80, 0x2B, 0x40, 0x30, 0x90, 0x37, 0x6E, 0x00, 0x90, 0x2B,
	0x6E, 0x83, 0x30, 0x80, 0x37, 0x40, 0x00, 0x80, 0x2B, 0x40, 0x30, 0x90,
	0x37, 0x6E, 0x00, 0x90, 0x2B, 0x6E, 0x83, 0x30, 0x80, 0x37, 0x40, 0x00,
	0x80, 0x2B, 0x40, 0x30, 0x90, 0x37, 0x6E, 0x00, 0x90, 0x2B, 0x6E, 0x83,
	0x30, 0x80, 0x37, 0x40, 0x00, 0x80, 0x2B, 0x40, 0x30, 0x90, 0x24, 0x50,
	0x00, 0x90, 0x30, 0x50, 0x83, 0x30, 0x80, 0x24, 0x40, 0x00, 0x80, 0x30,
	0x40, 0x8A, 0x58, 0x90, 0x40, 0x64, 0x00, 0x90, 0x3C, 0x64, 0x6C, 0x80,
	0x40, 0x40, 0x00, 0x80, 0x3C, 0x40, 0x0C, 0x90, 0x40, 0x64, 0x00, 0x90,
	0x3C, 0x64, 0x86, 0x60, 0x80, 0x40, 0x40, 0x00, 0x80, 0x3C, 0x40, 0x60,
	0x90, 0x40, 0x64, 0x00, 0x90, 0x3C, 0x64, 0x86, 0x60, 0x80, 0x40, 0x40,
	0x00, 0x80, 0x3C, 0x40, 0x60, 0x90, 0x40, 0x64, 0x00, 0x90, 0x3C, 0x64,
	0x86, 0x60, 0x80, 0x40, 0x40, 0x00, 0x80, 0x3C, 0x40, 0x87, 0x28, 0x90,
	0x48, 0x64, 0x00, 0x90, 0x43, 0x64, 0x00, 0x90, 0x40, 0x64, 0x00, 0x90,
	0x3C, 0x64, 0x6C, 0x80, 0x48, 0x40, 0x00, 0x80, 0x43, 0x40, 0x00, 0x80,
	0x40, 0x40, 0x00, 0x80, 0x3C, 0x40, 0x0C, 0x90, 0x48, 0x64, 0x00, 0x90,
	0x43, 0x64, 0x00, 0x90, 0x40, 0x64, 0x00, 0x90, 0x3C, 0x64, 0x86, 0x60,
	0x80, 0x48, 0x40, 0x00, 0x80, 0x43, 0x40, 0x00, 0x80, 0x40, 0x40, 0x00,
	0x80, 0x3C, 0x40, 0x60, 0x90, 0x48, 0x64, 0x00, 0x90, 0x43, 0x64, 0x00,
	0x90, 0x40, 0x64, 0x00, 0x90, 0x3C, 0x64, 0x86, 0x60, 0x80, 0x48, 0x40,
	0x00, 0x80, 0x43, 0x40, 0x00, 0x80, 0x40, 0x40, 0x00, 0x80, 0x3C, 0x40,
	0x60, 0x90, 0x48, 0x64, 0x00, 0x90, 0x43, 0x64, 0x00, 0x90, 0x40, 0x64,
	0x00, 0x90, 0x3C, 0x64, 0x86, 0x60, 0x80, 0x48, 0x40, 0x00, 0x80, 0x43,
	0x40, 0x00, 0x80, 0x40, 0x40, 0x00, 0x80, 0x3C, 0x40, 0x87, 0x28, 0x90,
	0x24, 0x64, 0x00, 0x90, 0x30, 0x64, 0x6C, 0x80, 0x24, 0x40, 0x00, 0x80,
	0x30, 0x40, 0x0C, 0x90, 0x24, 0x64, 0x00, 0x90, 0x30, 0x64, 0x86, 0x60,
	0x80, 0x24, 0x40, 0x00, 0x80, 0x30, 0x40, 0x60, 0x90, 0x24, 0x64, 0x00,
	0x90, 0x30, 0x64, 0x86, 0x60, 0x80, 0x24, 0x40, 0x00, 0x80, 0x30, 0x40,
	0x8F, 0x5F, 0xFF, 0x2F, 0x00
};
