/* C:\Users\Administrator\Downloads\致爱丽丝_爱给网_aigei_com.mid (2024/8/24 15:06:51)
   起始位置(h): 00000000, 结束位置(h): 00002059, 长度(h): 0000205A */

unsigned char mid_alice[8282] = {
	0x4D, 0x54, 0x68, 0x64, 0x00, 0x00, 0x00, 0x06, 0x00, 0x01, 0x00, 0x11,
	0x00, 0xF0, 0x4D, 0x54, 0x72, 0x6B, 0x00, 0x00, 0x01, 0xED, 0x00, 0xFF,
	0x03, 0x08, 0x75, 0x6E, 0x74, 0x69, 0x74, 0x6C, 0x65, 0x64, 0x00, 0xFF,
	0x58, 0x04, 0x06, 0x03, 0x0C, 0x08, 0x00, 0xFF, 0x59, 0x02, 0x00, 0x00,
	0x00, 0xFF, 0x51, 0x03, 0x03, 0xAA, 0x37, 0x83, 0x59, 0xFF, 0x51, 0x03,
	0x05, 0xF1, 0x6C, 0x84, 0x9D, 0x77, 0xFF, 0x58, 0x04, 0x09, 0x03, 0x0C,
	0x08, 0x00, 0xFF, 0x51, 0x03, 0x04, 0x28, 0xB6, 0xAA, 0x18, 0xFF, 0x58,
	0x04, 0x06, 0x03, 0x0C, 0x08, 0x03, 0xFF, 0x51, 0x03, 0x05, 0xF1, 0x85,
	0xEA, 0x69, 0xFF, 0x51, 0x03, 0x05, 0xF1, 0xEA, 0x15, 0xFF, 0x51, 0x03,
	0x05, 0xFB, 0xDD, 0x14, 0xFF, 0x51, 0x03, 0x06, 0x05, 0xF1, 0x15, 0xFF,
	0x51, 0x03, 0x06, 0x10, 0x27, 0x0E, 0xFF, 0x51, 0x03, 0x06, 0x1A, 0x80,
	0x14, 0xFF, 0x51, 0x03, 0x06, 0x24, 0xFD, 0x15, 0xFF, 0x51, 0x03, 0x06,
	0x2F, 0x9D, 0x14, 0xFF, 0x51, 0x03, 0x06, 0x3A, 0x63, 0x0E, 0xFF, 0x51,
	0x03, 0x06, 0x45, 0x4F, 0x15, 0xFF, 0x51, 0x03, 0x06, 0x50, 0x61, 0x14,
	0xFF, 0x51, 0x03, 0x06, 0x5B, 0x9B, 0x15, 0xFF, 0x51, 0x03, 0x06, 0x66,
	0xFC, 0x0D, 0xFF, 0x51, 0x03, 0x06, 0x72, 0x87, 0x15, 0xFF, 0x51, 0x03,
	0x06, 0x7E, 0x3C, 0x15, 0xFF, 0x51, 0x03, 0x06, 0x8A, 0x1B, 0x14, 0xFF,
	0x51, 0x03, 0x06, 0x96, 0x27, 0x0E, 0xFF, 0x51, 0x03, 0x06, 0xA2, 0x5F,
	0x14, 0xFF, 0x51, 0x03, 0x06, 0xAE, 0xC4, 0x15, 0xFF, 0x51, 0x03, 0x06,
	0xBB, 0x58, 0x15, 0xFF, 0x51, 0x03, 0x06, 0xC8, 0x1C, 0x0D, 0xFF, 0x51,
	0x03, 0x06, 0xD5, 0x11, 0x15, 0xFF, 0x51, 0x03, 0x06, 0xE2, 0x38, 0x14,
	0xFF, 0x51, 0x03, 0x06, 0xEF, 0x91, 0x15, 0xFF, 0x51, 0x03, 0x06, 0xFD,
	0x1F, 0x0E, 0xFF, 0x51, 0x03, 0x07, 0x0A, 0xE2, 0x14, 0xFF, 0x51, 0x03,
	0x07, 0x18, 0xDC, 0x15, 0xFF, 0x51, 0x03, 0x07, 0x27, 0x0E, 0x0E, 0xFF,
	0x51, 0x03, 0x07, 0x35, 0x79, 0x14, 0xFF, 0x51, 0x03, 0x07, 0x44, 0x1E,
	0x15, 0xFF, 0x51, 0x03, 0x07, 0x53, 0x00, 0x14, 0xFF, 0x51, 0x03, 0x07,
	0x62, 0x1F, 0x0E, 0xFF, 0x51, 0x03, 0x07, 0x71, 0x7D, 0x15, 0xFF, 0x51,
	0x03, 0x07, 0x81, 0x1B, 0x14, 0xFF, 0x51, 0x03, 0x07, 0x90, 0xFC, 0x15,
	0xFF, 0x51, 0x03, 0x07, 0xA1, 0x20, 0x0D, 0xFF, 0x51, 0x03, 0x07, 0xB1,
	0x8A, 0x15, 0xFF, 0x51, 0x03, 0x07, 0xC2, 0x3B, 0x15, 0xFF, 0x51, 0x03,
	0x07, 0xD3, 0x35, 0x14, 0xFF, 0x51, 0x03, 0x07, 0xE4, 0x79, 0x0E, 0xFF,
	0x51, 0x03, 0x07, 0xF6, 0x0B, 0x14, 0xFF, 0x51, 0x03, 0x08, 0x07, 0xEC,
	0x15, 0xFF, 0x51, 0x03, 0x08, 0x1A, 0x1D, 0x15, 0xFF, 0x51, 0x03, 0x08,
	0x2C, 0xA2, 0x0D, 0xFF, 0x51, 0x03, 0x08, 0x3F, 0x7D, 0x15, 0xFF, 0x51,
	0x03, 0x08, 0x52, 0xAF, 0x14, 0xFF, 0x51, 0x03, 0x08, 0x66, 0x3B, 0x15,
	0xFF, 0x51, 0x03, 0x08, 0x7A, 0x24, 0x0E, 0xFF, 0x51, 0x03, 0x08, 0x8E,
	0x6C, 0x14, 0xFF, 0x51, 0x03, 0x08, 0xA3, 0x16, 0x15, 0xFF, 0x51, 0x03,
	0x08, 0xB8, 0x25, 0x0E, 0xFF, 0x51, 0x03, 0x08, 0xCD, 0x9B, 0x14, 0xFF,
	0x51, 0x03, 0x08, 0xE3, 0x7C, 0x15, 0xFF, 0x51, 0x03, 0x08, 0xF9, 0xCB,
	0x14, 0xFF, 0x51, 0x03, 0x09, 0x10, 0x8B, 0x0E, 0xFF, 0x51, 0x03, 0x09,
	0x27, 0xC0, 0x15, 0xFF, 0x51, 0x03, 0x09, 0x3F, 0x6D, 0x14, 0xFF, 0x51,
	0x03, 0x09, 0x57, 0x95, 0x15, 0xFF, 0x51, 0x03, 0x0F, 0x42, 0x40, 0x88,
	0x3B, 0xFF, 0x51, 0x03, 0x0F, 0x84, 0x75, 0x00, 0xFF, 0x2F, 0x00, 0x4D,
	0x54, 0x72, 0x6B, 0x00, 0x00, 0x00, 0x14, 0x00, 0xFF, 0x21, 0x01, 0x00,
	0x00, 0xFF, 0x03, 0x00, 0x00, 0xC0, 0x00, 0x00, 0xB0, 0x07, 0x7F, 0x00,
	0xFF, 0x2F, 0x00, 0x4D, 0x54, 0x72, 0x6B, 0x00, 0x00, 0x0E, 0xEB, 0x00,
	0xFF, 0x21, 0x01, 0x00, 0x00, 0xFF, 0x03, 0x00, 0x00, 0xC1, 0x00, 0x00,
	0xB1, 0x07, 0x7F, 0x00, 0x91, 0x00, 0x00, 0x00, 0x00, 0x00, 0x00, 0x00,
	0x00, 0x00, 0x00, 0x00, 0x00, 0x00, 0x00, 0x00, 0x00, 0x00, 0x00, 0x00,
	0x00, 0x00, 0x00, 0x00, 0x00, 0x00, 0x00, 0x00, 0x00, 0x00, 0x00, 0x00,
	0x00, 0x00, 0x00, 0x00, 0x00, 0x00, 0x00, 0x00, 0x00, 0x00, 0x00, 0x00,
	0x00, 0x00, 0x00, 0x00, 0x00, 0x00, 0x00, 0x00, 0x00, 0x00, 0x00, 0x00,
	0x00, 0x00, 0x00, 0x00, 0x00, 0x00, 0x00, 0x00, 0x00, 0x00, 0x00, 0x00,
	0x00, 0x00, 0x00, 0x00, 0x00, 0x00, 0x00, 0x00, 0x00, 0x00, 0x00, 0x00,
	0x00, 0x00, 0x00, 0x00, 0x00, 0x00, 0x00, 0x00, 0x00, 0x00, 0x00, 0x00,
	0x00, 0x00, 0x00, 0x00, 0x83, 0x60, 0x4C, 0x7F, 0x78, 0x4C, 0x00, 0x00,
	0x4B, 0x7F, 0x78, 0x4B, 0x00, 0x00, 0x4C, 0x7F, 0x78, 0x4C, 0x00, 0x00,
	0x4B, 0x7F, 0x78, 0x4B, 0x00, 0x00, 0x4C, 0x7F, 0x78, 0x4C, 0x00, 0x00,
	0x47, 0x7F, 0x78, 0x47, 0x00, 0x00, 0x4A, 0x7F, 0x78, 0x4A, 0x00, 0x00,
	0x48, 0x7F, 0x78, 0x48, 0x00, 0x00, 0x45, 0x7F, 0x82, 0x68, 0x3C, 0x7F,
	0x78, 0x40, 0x7F, 0x78, 0x45, 0x7F, 0x78, 0x45, 0x00, 0x00, 0x45, 0x00,
	0x00, 0x3C, 0x00, 0x00, 0x40, 0x00, 0x00, 0x47, 0x7F, 0x82, 0x68, 0x40,
	0x7F, 0x78, 0x44, 0x7F, 0x78, 0x47, 0x7F, 0x78, 0x47, 0x00, 0x00, 0x47,
	0x00, 0x00, 0x40, 0x00, 0x00, 0x44, 0x00, 0x00, 0x48, 0x7F, 0x82, 0x68,
	0x48, 0x00, 0x00, 0x40, 0x7F, 0x78, 0x40, 0x00, 0x00, 0x4C, 0x7F, 0x78,
	0x4C, 0x00, 0x00, 0x4B, 0x7F, 0x78, 0x4B, 0x00, 0x00, 0x4C, 0x7F, 0x78,
	0x4C, 0x00, 0x00, 0x4B, 0x7F, 0x78, 0x4B, 0x00, 0x00, 0x4C, 0x7F, 0x78,
	0x4C, 0x00, 0x00, 0x47, 0x7F, 0x78, 0x47, 0x00, 0x00, 0x4A, 0x7F, 0x78,
	0x4A, 0x00, 0x00, 0x48, 0x7F, 0x78, 0x48, 0x00, 0x00, 0x45, 0x7F, 0x82,
	0x68, 0x3C, 0x7F, 0x78, 0x40, 0x7F, 0x78, 0x45, 0x7F, 0x78, 0x45, 0x00,
	0x00, 0x45, 0x00, 0x00, 0x3C, 0x00, 0x00, 0x40, 0x00, 0x00, 0x47, 0x7F,
	0x82, 0x68, 0x40, 0x7F, 0x78, 0x48, 0x7F, 0x78, 0x47, 0x7F, 0x78, 0x47,
	0x00, 0x00, 0x47, 0x00, 0x00, 0x40, 0x00, 0x00, 0x48, 0x00, 0x00, 0x45,
	0x7F, 0x82, 0x68, 0x45, 0x00, 0x78, 0x4C, 0x7F, 0x78, 0x4C, 0x00, 0x00,
	0x4B, 0x7F, 0x78, 0x4B, 0x00, 0x00, 0x4C, 0x7F, 0x78, 0x4C, 0x00, 0x00,
	0x4B, 0x7F, 0x78, 0x4B, 0x00, 0x00, 0x4C, 0x7F, 0x78, 0x4C, 0x00, 0x00,
	0x47, 0x7F, 0x78, 0x47, 0x00, 0x00, 0x4A, 0x7F, 0x78, 0x4A, 0x00, 0x00,
	0x48, 0x7F, 0x78, 0x48, 0x00, 0x00, 0x45, 0x7F, 0x82, 0x68, 0x3C, 0x7F,
	0x78, 0x40, 0x7F, 0x78, 0x45, 0x7F, 0x78, 0x45, 0x00, 0x00, 0x45, 0x00,
	0x00, 0x3C, 0x00, 0x00, 0x40, 0x00, 0x00, 0x47, 0x7F, 0x82, 0x68, 0x40,
	0x7F, 0x78, 0x44, 0x7F, 0x78, 0x47, 0x7F, 0x78, 0x47, 0x00, 0x00, 0x47,
	0x00, 0x00, 0x40, 0x00, 0x00, 0x44, 0x00, 0x00, 0x48, 0x7F, 0x82, 0x68,
	0x48, 0x00, 0x00, 0x40, 0x7F, 0x78, 0x40, 0x00, 0x00, 0x4C, 0x7F, 0x78,
	0x4C, 0x00, 0x00, 0x4B, 0x7F, 0x78, 0x4B, 0x00, 0x00, 0x4C, 0x7F, 0x78,
	0x4C, 0x00, 0x00, 0x4B, 0x7F, 0x78, 0x4B, 0x00, 0x00, 0x4C, 0x7F, 0x78,
	0x4C, 0x00, 0x00, 0x47, 0x7F, 0x78, 0x47, 0x00, 0x00, 0x4A, 0x7F, 0x78,
	0x4A, 0x00, 0x00, 0x48, 0x7F, 0x78, 0x48, 0x00, 0x00, 0x45, 0x7F, 0x82,
	0x68, 0x3C, 0x7F, 0x78, 0x40, 0x7F, 0x78, 0x45, 0x7F, 0x78, 0x45, 0x00,
	0x00, 0x45, 0x00, 0x00, 0x3C, 0x00, 0x00, 0x40, 0x00, 0x00, 0x47, 0x7F,
	0x82, 0x68, 0x40, 0x7F, 0x78, 0x48, 0x7F, 0x78, 0x47, 0x7F, 0x78, 0x47,
	0x00, 0x00, 0x47, 0x00, 0x00, 0x40, 0x00, 0x00, 0x48, 0x00, 0x00, 0x45,
	0x7F, 0x82, 0x68, 0x45, 0x00, 0x00, 0x47, 0x7F, 0x78, 0x48, 0x7F, 0x78,
	0x4A, 0x7F, 0x78, 0x4A, 0x00, 0x00, 0x48, 0x00, 0x00, 0x47, 0x00, 0x00,
	0x4C, 0x7F, 0x82, 0x68, 0x43, 0x7F, 0x78, 0x4D, 0x7F, 0x78, 0x4C, 0x7F,
	0x78, 0x4C, 0x00, 0x00, 0x4C, 0x00, 0x00, 0x43, 0x00, 0x00, 0x4D, 0x00,
	0x00, 0x4A, 0x7F, 0x82, 0x68, 0x4A, 0x00, 0x00, 0x41, 0x7F, 0x78, 0x4C,
	0x7F, 0x78, 0x4A, 0x7F, 0x78, 0x4A, 0x00, 0x00, 0x4C, 0x00, 0x00, 0x41,
	0x00, 0x00, 0x48, 0x7F, 0x82, 0x68, 0x40, 0x7F, 0x78, 0x4A, 0x7F, 0x78,
	0x48, 0x7F, 0x78, 0x48, 0x00, 0x00, 0x48, 0x00, 0x00, 0x40, 0x00, 0x00,
	0x4A, 0x00, 0x00, 0x47, 0x7F, 0x82, 0x68, 0x47, 0x00, 0x00, 0x40, 0x7F,
	0x78, 0x40, 0x00, 0x00, 0x4C, 0x7F, 0x78, 0x4C, 0x00, 0x81, 0x70, 0x4C,
	0x7F, 0x78, 0x4C, 0x00, 0x00, 0x58, 0x7F, 0x78, 0x58, 0x00, 0x81, 0x70,
	0x4B, 0x7F, 0x78, 0x4B, 0x00, 0x00, 0x4C, 0x7F, 0x78, 0x4C, 0x00, 0x00,
	0x4B, 0x7F, 0x78, 0x4B, 0x00, 0x00, 0x4C, 0x7F, 0x78, 0x4C, 0x00, 0x00,
	0x47, 0x7F, 0x78, 0x47, 0x00, 0x00, 0x4A, 0x7F, 0x78, 0x4A, 0x00, 0x00,
	0x48, 0x7F, 0x78, 0x48, 0x00, 0x00, 0x45, 0x7F, 0x82, 0x68, 0x3C, 0x7F,
	0x78, 0x40, 0x7F, 0x78, 0x45, 0x7F, 0x78, 0x45, 0x00, 0x00, 0x45, 0x00,
	0x00, 0x3C, 0x00, 0x00, 0x40, 0x00, 0x00, 0x47, 0x7F, 0x82, 0x68, 0x40,
	0x7F, 0x78, 0x44, 0x7F, 0x78, 0x47, 0x7F, 0x78, 0x47, 0x00, 0x00, 0x47,
	0x00, 0x00, 0x40, 0x00, 0x00, 0x44, 0x00, 0x00, 0x48, 0x7F, 0x82, 0x68,
	0x48, 0x00, 0x00, 0x40, 0x7F, 0x78, 0x40, 0x00, 0x00, 0x4C, 0x7F, 0x78,
	0x4C, 0x00, 0x00, 0x4B, 0x7F, 0x78, 0x4B, 0x00, 0x00, 0x4C, 0x7F, 0x78,
	0x4C, 0x00, 0x00, 0x4B, 0x7F, 0x78, 0x4B, 0x00, 0x00, 0x4C, 0x7F, 0x78,
	0x4C, 0x00, 0x00, 0x47, 0x7F, 0x78, 0x47, 0x00, 0x00, 0x4A, 0x7F, 0x78,
	0x4A, 0x00, 0x00, 0x48, 0x7F, 0x78, 0x48, 0x00, 0x00, 0x45, 0x7F, 0x82,
	0x68, 0x3C, 0x7F, 0x78, 0x40, 0x7F, 0x78, 0x45, 0x7F, 0x78, 0x45, 0x00,
	0x00, 0x45, 0x00, 0x00, 0x3C, 0x00, 0x00, 0x40, 0x00, 0x00, 0x47, 0x7F,
	0x82, 0x68, 0x40, 0x7F, 0x78, 0x48, 0x7F, 0x78, 0x47, 0x7F, 0x78, 0x47,
	0x00, 0x00, 0x47, 0x00, 0x00, 0x40, 0x00, 0x00, 0x48, 0x00, 0x00, 0x45,
	0x7F, 0x82, 0x68, 0x45, 0x00, 0x00, 0x47, 0x7F, 0x78, 0x47, 0x00, 0x00,
	0x48, 0x7F, 0x78, 0x48, 0x00, 0x00, 0x4A, 0x7F, 0x78, 0x4A, 0x00, 0x00,
	0x4C, 0x7F, 0x82, 0x68, 0x43, 0x7F, 0x78, 0x4D, 0x7F, 0x78, 0x4C, 0x7F,
	0x78, 0x4C, 0x00, 0x00, 0x4C, 0x00, 0x00, 0x43, 0x00, 0x00, 0x4D, 0x00,
	0x00, 0x4A, 0x7F, 0x82, 0x68, 0x4A, 0x00, 0x00, 0x41, 0x7F, 0x78, 0x4C,
	0x7F, 0x78, 0x4A, 0x7F, 0x78, 0x4A, 0x00, 0x00, 0x4C, 0x00, 0x00, 0x41,
	0x00, 0x00, 0x48, 0x7F, 0x82, 0x68, 0x40, 0x7F, 0x78, 0x4A, 0x7F, 0x78,
	0x48, 0x7F, 0x78, 0x48, 0x00, 0x00, 0x48, 0x00, 0x00, 0x40, 0x00, 0x00,
	0x4A, 0x00, 0x00, 0x47, 0x7F, 0x82, 0x68, 0x47, 0x00, 0x00, 0x40, 0x7F,
	0x78, 0x40, 0x00, 0x00, 0x4C, 0x7F, 0x78, 0x4C, 0x00, 0x81, 0x70, 0x4C,
	0x7F, 0x78, 0x4C, 0x00, 0x00, 0x58, 0x7F, 0x78, 0x58, 0x00, 0x81, 0x70,
	0x4B, 0x7F, 0x78, 0x4B, 0x00, 0x00, 0x4C, 0x7F, 0x78, 0x4C, 0x00, 0x00,
	0x4B, 0x7F, 0x78, 0x4B, 0x00, 0x00, 0x4C, 0x7F, 0x78, 0x4C, 0x00, 0x00,
	0x47, 0x7F, 0x78, 0x47, 0x00, 0x00, 0x4A, 0x7F, 0x78, 0x4A, 0x00, 0x00,
	0x48, 0x7F, 0x78, 0x48, 0x00, 0x00, 0x45, 0x7F, 0x82, 0x68, 0x3C, 0x7F,
	0x78, 0x40, 0x7F, 0x78, 0x45, 0x7F, 0x78, 0x45, 0x00, 0x00, 0x45, 0x00,
	0x00, 0x3C, 0x00, 0x00, 0x40, 0x00, 0x00, 0x47, 0x7F, 0x82, 0x68, 0x40,
	0x7F, 0x78, 0x44, 0x7F, 0x78, 0x47, 0x7F, 0x78, 0x47, 0x00, 0x00, 0x47,
	0x00, 0x00, 0x40, 0x00, 0x00, 0x44, 0x00, 0x00, 0x48, 0x7F, 0x82, 0x68,
	0x48, 0x00, 0x00, 0x40, 0x7F, 0x78, 0x40, 0x00, 0x00, 0x4C, 0x7F, 0x78,
	0x4C, 0x00, 0x00, 0x4B, 0x7F, 0x78, 0x4B, 0x00, 0x00, 0x4C, 0x7F, 0x78,
	0x4C, 0x00, 0x00, 0x4B, 0x7F, 0x78, 0x4B, 0x00, 0x00, 0x4C, 0x7F, 0x78,
	0x4C, 0x00, 0x00, 0x47, 0x7F, 0x78, 0x47, 0x00, 0x00, 0x4A, 0x7F, 0x78,
	0x4A, 0x00, 0x00, 0x48, 0x7F, 0x78, 0x48, 0x00, 0x00, 0x45, 0x7F, 0x82,
	0x68, 0x3C, 0x7F, 0x78, 0x40, 0x7F, 0x78, 0x45, 0x7F, 0x78, 0x45, 0x00,
	0x00, 0x45, 0x00, 0x00, 0x3C, 0x00, 0x00, 0x40, 0x00, 0x00, 0x47, 0x7F,
	0x82, 0x68, 0x40, 0x7F, 0x78, 0x48, 0x7F, 0x78, 0x47, 0x7F, 0x78, 0x47,
	0x00, 0x00, 0x47, 0x00, 0x00, 0x40, 0x00, 0x00, 0x48, 0x00, 0x00, 0x45,
	0x7F, 0x82, 0x68, 0x45, 0x00, 0x00, 0x40, 0x7F, 0x00, 0x48, 0x7F, 0x78,
	0x48, 0x00, 0x00, 0x40, 0x00, 0x00, 0x41, 0x7F, 0x00, 0x48, 0x7F, 0x78,
	0x48, 0x00, 0x00, 0x41, 0x00, 0x00, 0x40, 0x7F, 0x00, 0x43, 0x7F, 0x00,
	0x48, 0x7F, 0x78, 0x48, 0x00, 0x00, 0x43, 0x00, 0x00, 0x40, 0x00, 0x00,
	0x41, 0x7F, 0x0C, 0x41, 0x00, 0x03, 0x45, 0x7F, 0x0C, 0x45, 0x00, 0x03,
	0x48, 0x7F, 0x82, 0x4A, 0x48, 0x7F, 0x78, 0x4D, 0x7F, 0x81, 0x34, 0x4C,
	0x7F, 0x3C, 0x4C, 0x00, 0x00, 0x48, 0x00, 0x00, 0x48, 0x00, 0x00, 0x4D,
	0x00, 0x00, 0x4C, 0x7F, 0x81, 0x70, 0x4A, 0x7F, 0x78, 0x4A, 0x00, 0x00,
	0x4C, 0x00, 0x78, 0x52, 0x7F, 0x81, 0x34, 0x51, 0x7F, 0x3C, 0x51, 0x00,
	0x00, 0x52, 0x00, 0x00, 0x51, 0x7F, 0x78, 0x51, 0x00, 0x00, 0x4F, 0x7F,
	0x78, 0x4F, 0x00, 0x00, 0x4D, 0x7F, 0x78, 0x4D, 0x00, 0x00, 0x4C, 0x7F,
	0x78, 0x4C, 0x00, 0x00, 0x4A, 0x7F, 0x78, 0x4A, 0x00, 0x00, 0x48, 0x7F,
	0x78, 0x48, 0x00, 0x00, 0x46, 0x7F, 0x81, 0x70, 0x46, 0x00, 0x00, 0x45,
	0x7F, 0x78, 0x45, 0x00, 0x78, 0x45, 0x7F, 0x35, 0x45, 0x00, 0x07, 0x43,
	0x7F, 0x3C, 0x43, 0x00, 0x00, 0x45, 0x7F, 0x35, 0x45, 0x00, 0x07, 0x46,
	0x7F, 0x3C, 0x46, 0x00, 0x00, 0x48, 0x7F, 0x83, 0x60, 0x48, 0x00, 0x00,
	0x4A, 0x7F, 0x78, 0x4A, 0x00, 0x00, 0x4B, 0x7F, 0x78, 0x4B, 0x00, 0x00,
	0x4C, 0x7F, 0x82, 0x68, 0x4C, 0x00, 0x00, 0x4C, 0x7F, 0x78, 0x4C, 0x00,
	0x00, 0x4D, 0x7F, 0x78, 0x4D, 0x00, 0x00, 0x45, 0x7F, 0x78, 0x45, 0x00,
	0x00, 0x48, 0x7F, 0x82, 0x68, 0x48, 0x00, 0x00, 0x4A, 0x7F, 0x82, 0x2C,
	0x47, 0x7F, 0x04, 0x4A, 0x00, 0x38, 0x47, 0x00, 0x00, 0x48, 0x7F, 0x35,
	0x48, 0x00, 0x07, 0x4F, 0x7F, 0x3C, 0x4F, 0x00, 0x00, 0x43, 0x7F, 0x35,
	0x43, 0x00, 0x07, 0x4F, 0x7F, 0x3C, 0x4F, 0x00, 0x00, 0x45, 0x7F, 0x35,
	0x45, 0x00, 0x07, 0x4F, 0x7F, 0x3C, 0x4F, 0x00, 0x00, 0x47, 0x7F, 0x35,
	0x47, 0x00, 0x07, 0x4F, 0x7F, 0x3C, 0x4F, 0x00, 0x00, 0x48, 0x7F, 0x35,
	0x48, 0x00, 0x07, 0x4F, 0x7F, 0x3C, 0x4F, 0x00, 0x00, 0x4A, 0x7F, 0x35,
	0x4A, 0x00, 0x07, 0x4F, 0x7F, 0x3C, 0x4F, 0x00, 0x00, 0x4C, 0x7F, 0x35,
	0x4C, 0x00, 0x07, 0x4F, 0x7F, 0x3C, 0x4F, 0x00, 0x00, 0x54, 0x7F, 0x35,
	0x54, 0x00, 0x07, 0x53, 0x7F, 0x3C, 0x53, 0x00, 0x00, 0x51, 0x7F, 0x35,
	0x51, 0x00, 0x07, 0x4F, 0x7F, 0x3C, 0x4F, 0x00, 0x00, 0x4D, 0x7F, 0x35,
	0x4D, 0x00, 0x07, 0x4C, 0x7F, 0x3C, 0x4C, 0x00, 0x00, 0x4A, 0x7F, 0x35,
	0x4A, 0x00, 0x07, 0x4F, 0x7F, 0x3C, 0x4F, 0x00, 0x00, 0x4D, 0x7F, 0x35,
	0x4D, 0x00, 0x07, 0x4A, 0x7F, 0x3C, 0x4A, 0x00, 0x00, 0x4C, 0x7F, 0x82,
	0x68, 0x4C, 0x00, 0x00, 0x4C, 0x7F, 0x78, 0x4C, 0x00, 0x00, 0x4D, 0x7F,
	0x78, 0x4D, 0x00, 0x00, 0x45, 0x7F, 0x78, 0x45, 0x00, 0x00, 0x48, 0x7F,
	0x82, 0x68, 0x48, 0x00, 0x00, 0x4A, 0x7F, 0x82, 0x2C, 0x47, 0x7F, 0x3C,
	0x47, 0x00, 0x00, 0x4A, 0x00, 0x00, 0x48, 0x7F, 0x35, 0x48, 0x00, 0x07,
	0x4F, 0x7F, 0x3C, 0x4F, 0x00, 0x00, 0x43, 0x7F, 0x35, 0x43, 0x00, 0x07,
	0x4F, 0x7F, 0x3C, 0x4F, 0x00, 0x00, 0x45, 0x7F, 0x35, 0x45, 0x00, 0x07,
	0x4F, 0x7F, 0x3C, 0x4F, 0x00, 0x00, 0x47, 0x7F, 0x35, 0x47, 0x00, 0x07,
	0x4F, 0x7F, 0x3C, 0x4F, 0x00, 0x00, 0x48, 0x7F, 0x35, 0x48, 0x00, 0x07,
	0x4F, 0x7F, 0x3C, 0x4F, 0x00, 0x00, 0x4A, 0x7F, 0x35, 0x4A, 0x00, 0x07,
	0x4F, 0x7F, 0x3C, 0x4F, 0x00, 0x00, 0x4C, 0x7F, 0x35, 0x4C, 0x00, 0x07,
	0x4F, 0x7F, 0x3C, 0x4F, 0x00, 0x00, 0x54, 0x7F, 0x35, 0x54, 0x00, 0x07,
	0x53, 0x7F, 0x3C, 0x53, 0x00, 0x00, 0x51, 0x7F, 0x35, 0x51, 0x00, 0x07,
	0x4F, 0x7F, 0x3C, 0x4F, 0x00, 0x00, 0x4D, 0x7F, 0x35, 0x4D, 0x00, 0x07,
	0x4C, 0x7F, 0x3C, 0x4C, 0x00, 0x00, 0x4A, 0x7F, 0x35, 0x4A, 0x00, 0x07,
	0x4F, 0x7F, 0x3C, 0x4F, 0x00, 0x00, 0x4D, 0x7F, 0x35, 0x4D, 0x00, 0x07,
	0x4A, 0x7F, 0x3C, 0x4A, 0x00, 0x00, 0x4C, 0x7F, 0x35, 0x4C, 0x00, 0x07,
	0x4D, 0x7F, 0x3C, 0x4D, 0x00, 0x00, 0x4C, 0x7F, 0x35, 0x4C, 0x00, 0x07,
	0x4B, 0x7F, 0x3C, 0x4B, 0x00, 0x00, 0x4C, 0x7F, 0x35, 0x4C, 0x00, 0x07,
	0x47, 0x7F, 0x3C, 0x47, 0x00, 0x00, 0x4C, 0x7F, 0x35, 0x4C, 0x00, 0x07,
	0x4B, 0x7F, 0x3C, 0x4B, 0x00, 0x00, 0x4C, 0x7F, 0x35, 0x4C, 0x00, 0x07,
	0x47, 0x7F, 0x3C, 0x47, 0x00, 0x00, 0x4C, 0x7F, 0x35, 0x4C, 0x00, 0x07,
	0x4B, 0x7F, 0x3C, 0x4B, 0x00, 0x00, 0x4C, 0x7F, 0x82, 0x68, 0x4C, 0x00,
	0x00, 0x47, 0x7F, 0x78, 0x47, 0x00, 0x00, 0x4C, 0x7F, 0x78, 0x4C, 0x00,
	0x00, 0x4B, 0x7F, 0x78, 0x4B, 0x00, 0x00, 0x4C, 0x7F, 0x82, 0x68, 0x4C,
	0x00, 0x00, 0x47, 0x7F, 0x78, 0x47, 0x00, 0x00, 0x4C, 0x7F, 0x78, 0x4C,
	0x00, 0x00, 0x4B, 0x7F, 0x78, 0x4B, 0x00, 0x00, 0x4C, 0x7F, 0x78, 0x4C,
	0x00, 0x00, 0x4B, 0x7F, 0x78, 0x4B, 0x00, 0x00, 0x4C, 0x7F, 0x78, 0x4C,
	0x00, 0x00, 0x47, 0x7F, 0x78, 0x47, 0x00, 0x00, 0x4A, 0x7F, 0x78, 0x4A,
	0x00, 0x00, 0x48, 0x7F, 0x78, 0x48, 0x00, 0x00, 0x45, 0x7F, 0x82, 0x68,
	0x3C, 0x7F, 0x78, 0x40, 0x7F, 0x78, 0x45, 0x7F, 0x78, 0x45, 0x00, 0x00,
	0x45, 0x00, 0x00, 0x3C, 0x00, 0x00, 0x40, 0x00, 0x00, 0x47, 0x7F, 0x82,
	0x68, 0x40, 0x7F, 0x78, 0x44, 0x7F, 0x78, 0x47, 0x7F, 0x78, 0x47, 0x00,
	0x00, 0x47, 0x00, 0x00, 0x40, 0x00, 0x00, 0x44, 0x00, 0x00, 0x48, 0x7F,
	0x82, 0x68, 0x48, 0x00, 0x00, 0x40, 0x7F, 0x78, 0x40, 0x00, 0x00, 0x4C,
	0x7F, 0x78, 0x4C, 0x00, 0x00, 0x4B, 0x7F, 0x78, 0x4B, 0x00, 0x00, 0x4C,
	0x7F, 0x78, 0x4C, 0x00, 0x00, 0x4B, 0x7F, 0x78, 0x4B, 0x00, 0x00, 0x4C,
	0x7F, 0x78, 0x4C, 0x00, 0x00, 0x47, 0x7F, 0x78, 0x47, 0x00, 0x00, 0x4A,
	0x7F, 0x78, 0x4A, 0x00, 0x00, 0x48, 0x7F, 0x78, 0x48, 0x00, 0x00, 0x45,
	0x7F, 0x82, 0x68, 0x3C, 0x7F, 0x78, 0x40, 0x7F, 0x78, 0x45, 0x7F, 0x78,
	0x45, 0x00, 0x00, 0x45, 0x00, 0x00, 0x3C, 0x00, 0x00, 0x40, 0x00, 0x00,
	0x47, 0x7F, 0x82, 0x68, 0x40, 0x7F, 0x78, 0x48, 0x7F, 0x78, 0x47, 0x7F,
	0x78, 0x47, 0x00, 0x00, 0x47, 0x00, 0x00, 0x40, 0x00, 0x00, 0x48, 0x00,
	0x00, 0x45, 0x7F, 0x82, 0x68, 0x45, 0x00, 0x00, 0x47, 0x7F, 0x78, 0x48,
	0x7F, 0x78, 0x4A, 0x7F, 0x78, 0x4A, 0x00, 0x00, 0x48, 0x00, 0x00, 0x47,
	0x00, 0x00, 0x4C, 0x7F, 0x82, 0x68, 0x43, 0x7F, 0x78, 0x4D, 0x7F, 0x78,
	0x4C, 0x7F, 0x78, 0x4C, 0x00, 0x00, 0x4C, 0x00, 0x00, 0x43, 0x00, 0x00,
	0x4D, 0x00, 0x00, 0x4A, 0x7F, 0x82, 0x68, 0x4A, 0x00, 0x00, 0x41, 0x7F,
	0x78, 0x4C, 0x7F, 0x78, 0x4A, 0x7F, 0x78, 0x4A, 0x00, 0x00, 0x4C, 0x00,
	0x00, 0x41, 0x00, 0x00, 0x48, 0x7F, 0x82, 0x68, 0x40, 0x7F, 0x78, 0x4A,
	0x7F, 0x78, 0x48, 0x7F, 0x78, 0x48, 0x00, 0x00, 0x48, 0x00, 0x00, 0x40,
	0x00, 0x00, 0x4A, 0x00, 0x00, 0x47, 0x7F, 0x82, 0x68, 0x47, 0x00, 0x00,
	0x40, 0x7F, 0x78, 0x40, 0x00, 0x00, 0x4C, 0x7F, 0x78, 0x4C, 0x00, 0x81,
	0x70, 0x4C, 0x7F, 0x78, 0x4C, 0x00, 0x00, 0x58, 0x7F, 0x78, 0x58, 0x00,
	0x81, 0x70, 0x4B, 0x7F, 0x78, 0x4B, 0x00, 0x00, 0x4C, 0x7F, 0x78, 0x4C,
	0x00, 0x00, 0x4B, 0x7F, 0x78, 0x4B, 0x00, 0x00, 0x4C, 0x7F, 0x78, 0x4C,
	0x00, 0x00, 0x47, 0x7F, 0x78, 0x47, 0x00, 0x00, 0x4A, 0x7F, 0x78, 0x4A,
	0x00, 0x00, 0x48, 0x7F, 0x78, 0x48, 0x00, 0x00, 0x45, 0x7F, 0x82, 0x68,
	0x3C, 0x7F, 0x78, 0x40, 0x7F, 0x78, 0x45, 0x7F, 0x78, 0x45, 0x00, 0x00,
	0x45, 0x00, 0x00, 0x3C, 0x00, 0x00, 0x40, 0x00, 0x00, 0x47, 0x7F, 0x82,
	0x68, 0x40, 0x7F, 0x78, 0x44, 0x7F, 0x78, 0x47, 0x7F, 0x78, 0x47, 0x00,
	0x00, 0x47, 0x00, 0x00, 0x40, 0x00, 0x00, 0x44, 0x00, 0x00, 0x48, 0x7F,
	0x82, 0x68, 0x48, 0x00, 0x00, 0x40, 0x7F, 0x78, 0x40, 0x00, 0x00, 0x4C,
	0x7F, 0x78, 0x4C, 0x00, 0x00, 0x4B, 0x7F, 0x78, 0x4B, 0x00, 0x00, 0x4C,
	0x7F, 0x78, 0x4C, 0x00, 0x00, 0x4B, 0x7F, 0x78, 0x4B, 0x00, 0x00, 0x4C,
	0x7F, 0x78, 0x4C, 0x00, 0x00, 0x47, 0x7F, 0x78, 0x47, 0x00, 0x00, 0x4A,
	0x7F, 0x78, 0x4A, 0x00, 0x00, 0x48, 0x7F, 0x78, 0x48, 0x00, 0x00, 0x45,
	0x7F, 0x82, 0x68, 0x3C, 0x7F, 0x78, 0x40, 0x7F, 0x78, 0x45, 0x7F, 0x78,
	0x45, 0x00, 0x00, 0x45, 0x00, 0x00, 0x3C, 0x00, 0x00, 0x40, 0x00, 0x00,
	0x47, 0x7F, 0x82, 0x68, 0x40, 0x7F, 0x78, 0x48, 0x7F, 0x78, 0x48, 0x00,
	0x00, 0x47, 0x7F, 0x78, 0x47, 0x00, 0x00, 0x40, 0x00, 0x00, 0x47, 0x00,
	0x00, 0x3C, 0x7F, 0x0B, 0x40, 0x7F, 0x07, 0x45, 0x7F, 0x83, 0x4E, 0x40,
	0x00, 0x00, 0x3C, 0x00, 0x03, 0x45, 0x00, 0x81, 0x6D, 0x49, 0x64, 0x00,
	0x46, 0x64, 0x00, 0x43, 0x64, 0x00, 0x40, 0x64, 0x85, 0x50, 0x40, 0x00,
	0x00, 0x49, 0x00, 0x00, 0x46, 0x00, 0x00, 0x43, 0x00, 0x00, 0x4A, 0x64,
	0x00, 0x45, 0x64, 0x00, 0x41, 0x64, 0x83, 0x60, 0x41, 0x00, 0x00, 0x45,
	0x00, 0x00, 0x4A, 0x00, 0x00, 0x49, 0x64, 0x00, 0x4C, 0x64, 0x78, 0x4C,
	0x00, 0x00, 0x49, 0x00, 0x00, 0x4A, 0x64, 0x00, 0x4D, 0x64, 0x78, 0x4D,
	0x00, 0x00, 0x4A, 0x00, 0x00, 0x44, 0x64, 0x00, 0x4A, 0x64, 0x00, 0x4D,
	0x64, 0x83, 0x60, 0x4D, 0x00, 0x00, 0x4A, 0x00, 0x00, 0x44, 0x00, 0x00,
	0x44, 0x64, 0x00, 0x4A, 0x64, 0x00, 0x4D, 0x64, 0x81, 0x70, 0x4D, 0x00,
	0x00, 0x4A, 0x00, 0x00, 0x44, 0x00, 0x00, 0x45, 0x64, 0x00, 0x48, 0x64,
	0x00, 0x4C, 0x64, 0x85, 0x50, 0x4C, 0x00, 0x00, 0x48, 0x00, 0x00, 0x45,
	0x00, 0x00, 0x41, 0x64, 0x00, 0x4A, 0x64, 0x83, 0x60, 0x4A, 0x00, 0x00,
	0x41, 0x00, 0x00, 0x40, 0x64, 0x00, 0x48, 0x64, 0x78, 0x48, 0x00, 0x00,
	0x40, 0x00, 0x00, 0x3E, 0x64, 0x00, 0x47, 0x64, 0x78, 0x47, 0x00, 0x00,
	0x3E, 0x00, 0x00, 0x3C, 0x64, 0x00, 0x42, 0x64, 0x00, 0x45, 0x64, 0x83,
	0x60, 0x45, 0x00, 0x00, 0x42, 0x00, 0x00, 0x3C, 0x00, 0x00, 0x3C, 0x64,
	0x00, 0x45, 0x64, 0x81, 0x70, 0x45, 0x00, 0x00, 0x3C, 0x00, 0x00, 0x3C,
	0x64, 0x00, 0x45, 0x64, 0x81, 0x70, 0x45, 0x00, 0x00, 0x3C, 0x00, 0x00,
	0x40, 0x64, 0x00, 0x48, 0x64, 0x81, 0x70, 0x48, 0x00, 0x00, 0x40, 0x00,
	0x00, 0x3E, 0x64, 0x00, 0x47, 0x64, 0x81, 0x70, 0x47, 0x00, 0x00, 0x3E,
	0x00, 0x00, 0x3C, 0x64, 0x00, 0x45, 0x64, 0x85, 0x50, 0x45, 0x00, 0x00,
	0x3C, 0x00, 0x00, 0x49, 0x64, 0x00, 0x46, 0x64, 0x00, 0x43, 0x64, 0x00,
	0x40, 0x64, 0x85, 0x50, 0x40, 0x00, 0x00, 0x49, 0x00, 0x00, 0x46, 0x00,
	0x00, 0x43, 0x00, 0x00, 0x41, 0x64, 0x00, 0x45, 0x64, 0x00, 0x4A, 0x64,
	0x83, 0x60, 0x4A, 0x00, 0x00, 0x45, 0x00, 0x00, 0x41, 0x00, 0x00, 0x49,
	0x64, 0x00, 0x4C, 0x64, 0x78, 0x4C, 0x00, 0x00, 0x49, 0x00, 0x00, 0x4A,
	0x64, 0x00, 0x4D, 0x64, 0x78, 0x4D, 0x00, 0x00, 0x4A, 0x00, 0x00, 0x4A,
	0x64, 0x00, 0x4D, 0x64, 0x83, 0x60, 0x4D, 0x00, 0x00, 0x4A, 0x00, 0x00,
	0x4A, 0x64, 0x00, 0x4D, 0x64, 0x78, 0x4D, 0x00, 0x00, 0x4A, 0x00, 0x78,
	0x4A, 0x64, 0x00, 0x4D, 0x64, 0x85, 0x50, 0x4D, 0x00, 0x00, 0x4A, 0x00,
	0x00, 0x43, 0x64, 0x00, 0x4B, 0x64, 0x83, 0x60, 0x4B, 0x00, 0x00, 0x43,
	0x00, 0x00, 0x41, 0x64, 0x00, 0x4A, 0x64, 0x78, 0x4A, 0x00, 0x00, 0x41,
	0x00, 0x00, 0x3F, 0x64, 0x00, 0x48, 0x64, 0x78, 0x48, 0x00, 0x00, 0x3F,
	0x00, 0x00, 0x3E, 0x64, 0x00, 0x41, 0x64, 0x00, 0x46, 0x64, 0x83, 0x60,
	0x46, 0x00, 0x00, 0x41, 0x00, 0x00, 0x3E, 0x00, 0x00, 0x3E, 0x64, 0x00,
	0x41, 0x64, 0x00, 0x45, 0x64, 0x81, 0x70, 0x45, 0x00, 0x00, 0x41, 0x00,
	0x00, 0x3E, 0x00, 0x00, 0x44, 0x64, 0x00, 0x41, 0x64, 0x00, 0x3E, 0x64,
	0x83, 0x60, 0x3E, 0x00, 0x00, 0x41, 0x00, 0x00, 0x44, 0x00, 0x00, 0x44,
	0x64, 0x00, 0x41, 0x64, 0x00, 0x3E, 0x64, 0x81, 0x70, 0x3E, 0x00, 0x00,
	0x41, 0x00, 0x00, 0x44, 0x00, 0x00, 0x3C, 0x64, 0x00, 0x40, 0x64, 0x00,
	0x45, 0x64, 0x83, 0x60, 0x45, 0x00, 0x00, 0x40, 0x00, 0x00, 0x3C, 0x00,
	0x81, 0x70, 0x40, 0x64, 0x00, 0x47, 0x64, 0x81, 0x70, 0x47, 0x00, 0x00,
	0x40, 0x00, 0x83, 0x60, 0x39, 0x64, 0x78, 0x39, 0x00, 0x00, 0x3C, 0x64,
	0x78, 0x3C, 0x00, 0x00, 0x40, 0x64, 0x78, 0x40, 0x00, 0x00, 0x45, 0x64,
	0x78, 0x45, 0x00, 0x00, 0x48, 0x64, 0x78, 0x48, 0x00, 0x00, 0x4C, 0x64,
	0x78, 0x4C, 0x00, 0x00, 0x4A, 0x64, 0x78, 0x4A, 0x00, 0x00, 0x48, 0x64,
	0x78, 0x48, 0x00, 0x00, 0x47, 0x64, 0x78, 0x47, 0x00, 0x00, 0x45, 0x64,
	0x78, 0x45, 0x00, 0x00, 0x48, 0x64, 0x78, 0x48, 0x00, 0x00, 0x4C, 0x64,
	0x78, 0x4C, 0x00, 0x00, 0x51, 0x64, 0x78, 0x51, 0x00, 0x00, 0x54, 0x64,
	0x78, 0x54, 0x00, 0x00, 0x58, 0x64, 0x78, 0x58, 0x00, 0x00, 0x56, 0x64,
	0x78, 0x56, 0x00, 0x00, 0x54, 0x64, 0x78, 0x54, 0x00, 0x00, 0x53, 0x64,
	0x78, 0x53, 0x00, 0x00, 0x51, 0x64, 0x78, 0x51, 0x00, 0x00, 0x54, 0x64,
	0x78, 0x54, 0x00, 0x00, 0x58, 0x64, 0x78, 0x58, 0x00, 0x00, 0x5D, 0x64,
	0x78, 0x5D, 0x00, 0x00, 0x60, 0x64, 0x78, 0x60, 0x00, 0x00, 0x64, 0x64,
	0x78, 0x64, 0x00, 0x00, 0x62, 0x64, 0x78, 0x62, 0x00, 0x00, 0x60, 0x64,
	0x78, 0x60, 0x00, 0x00, 0x5F, 0x64, 0x78, 0x5F, 0x00, 0x00, 0x5E, 0x64,
	0x78, 0x5E, 0x00, 0x00, 0x5D, 0x64, 0x78, 0x5D, 0x00, 0x00, 0x5C, 0x64,
	0x78, 0x5C, 0x00, 0x00, 0x5B, 0x64, 0x78, 0x5B, 0x00, 0x00, 0x5A, 0x64,
	0x78, 0x5A, 0x00, 0x00, 0x59, 0x64, 0x78, 0x59, 0x00, 0x00, 0x58, 0x64,
	0x78, 0x58, 0x00, 0x00, 0x57, 0x64, 0x78, 0x57, 0x00, 0x00, 0x56, 0x64,
	0x78, 0x56, 0x00, 0x00, 0x55, 0x64, 0x78, 0x55, 0x00, 0x00, 0x54, 0x64,
	0x78, 0x54, 0x00, 0x00, 0x53, 0x64, 0x78, 0x53, 0x00, 0x00, 0x52, 0x64,
	0x78, 0x52, 0x00, 0x00, 0x51, 0x64, 0x78, 0x51, 0x00, 0x00, 0x50, 0x64,
	0x78, 0x50, 0x00, 0x00, 0x4F, 0x64, 0x78, 0x4F, 0x00, 0x00, 0x4E, 0x64,
	0x78, 0x4E, 0x00, 0x00, 0x4D, 0x64, 0x78, 0x4D, 0x00, 0x00, 0x4C, 0x64,
	0x78, 0x4C, 0x00, 0x00, 0x4B, 0x64, 0x78, 0x4B, 0x00, 0x00, 0x4C, 0x64,
	0x78, 0x4C, 0x00, 0x00, 0x47, 0x64, 0x78, 0x47, 0x00, 0x00, 0x4A, 0x64,
	0x78, 0x4A, 0x00, 0x00, 0x48, 0x64, 0x78, 0x48, 0x00, 0x00, 0x45, 0x64,
	0x82, 0x68, 0x45, 0x00, 0x00, 0x3C, 0x64, 0x78, 0x3C, 0x00, 0x00, 0x40,
	0x64, 0x78, 0x40, 0x00, 0x00, 0x45, 0x64, 0x78, 0x45, 0x00, 0x00, 0x47,
	0x64, 0x82, 0x68, 0x47, 0x00, 0x00, 0x40, 0x64, 0x78, 0x40, 0x00, 0x00,
	0x44, 0x64, 0x78, 0x44, 0x00, 0x00, 0x47, 0x64, 0x78, 0x47, 0x00, 0x00,
	0x48, 0x64, 0x82, 0x68, 0x48, 0x00, 0x00, 0x40, 0x64, 0x78, 0x40, 0x00,
	0x00, 0x4C, 0x64, 0x78, 0x4C, 0x00, 0x00, 0x4B, 0x64, 0x78, 0x4B, 0x00,
	0x00, 0x4C, 0x64, 0x78, 0x4C, 0x00, 0x00, 0x4B, 0x64, 0x78, 0x4B, 0x00,
	0x00, 0x4C, 0x64, 0x78, 0x4C, 0x00, 0x00, 0x47, 0x64, 0x78, 0x47, 0x00,
	0x00, 0x4A, 0x64, 0x78, 0x4A, 0x00, 0x00, 0x48, 0x64, 0x78, 0x48, 0x00,
	0x00, 0x45, 0x64, 0x82, 0x68, 0x45, 0x00, 0x00, 0x3C, 0x64, 0x78, 0x3C,
	0x00, 0x00, 0x40, 0x64, 0x78, 0x40, 0x00, 0x00, 0x45, 0x64, 0x78, 0x45,
	0x00, 0x00, 0x47, 0x64, 0x82, 0x68, 0x47, 0x00, 0x00, 0x40, 0x64, 0x78,
	0x40, 0x00, 0x00, 0x48, 0x64, 0x78, 0x48, 0x00, 0x00, 0x47, 0x64, 0x78,
	0x47, 0x00, 0x00, 0x3C, 0x64, 0x00, 0x45, 0x64, 0x82, 0x68, 0x45, 0x00,
	0x00, 0x3C, 0x00, 0x00, 0x47, 0x64, 0x78, 0x47, 0x00, 0x00, 0x48, 0x64,
	0x78, 0x48, 0x00, 0x00, 0x4A, 0x64, 0x78, 0x4A, 0x00, 0x00, 0x4C, 0x64,
	0x82, 0x68, 0x4C, 0x00, 0x00, 0x43, 0x64, 0x78, 0x43, 0x00, 0x00, 0x4D,
	0x64, 0x78, 0x4D, 0x00, 0x00, 0x4C, 0x64, 0x78, 0x4C, 0x00, 0x00, 0x4A,
	0x64, 0x82, 0x68, 0x4A, 0x00, 0x00, 0x41, 0x64, 0x78, 0x41, 0x00, 0x00,
	0x4C, 0x64, 0x78, 0x4C, 0x00, 0x00, 0x4A, 0x64, 0x78, 0x4A, 0x00, 0x00,
	0x48, 0x64, 0x82, 0x68, 0x48, 0x00, 0x00, 0x40, 0x64, 0x78, 0x40, 0x00,
	0x00, 0x4A, 0x64, 0x78, 0x4A, 0x00, 0x00, 0x48, 0x64, 0x78, 0x48, 0x00,
	0x00, 0x47, 0x64, 0x82, 0x68, 0x47, 0x00, 0x00, 0x40, 0x64, 0x78, 0x40,
	0x00, 0x00, 0x4C, 0x64, 0x78, 0x4C, 0x00, 0x81, 0x70, 0x4C, 0x64, 0x78,
	0x4C, 0x00, 0x00, 0x58, 0x64, 0x78, 0x58, 0x00, 0x81, 0x70, 0x4B, 0x64,
	0x78, 0x4B, 0x00, 0x00, 0x4C, 0x64, 0x78, 0x4C, 0x00, 0x81, 0x70, 0x4B,
	0x64, 0x78, 0x4B, 0x00, 0x00, 0x4C, 0x64, 0x78, 0x4C, 0x00, 0x00, 0x4B,
	0x64, 0x78, 0x4B, 0x00, 0x00, 0x4C, 0x64, 0x78, 0x4C, 0x00, 0x00, 0x4B,
	0x64, 0x78, 0x4B, 0x00, 0x00, 0x4C, 0x64, 0x78, 0x4C, 0x00, 0x00, 0x47,
	0x64, 0x78, 0x47, 0x00, 0x00, 0x4A, 0x64, 0x78, 0x4A, 0x00, 0x00, 0x48,
	0x64, 0x78, 0x48, 0x00, 0x00, 0x45, 0x64, 0x82, 0x68, 0x45, 0x00, 0x00,
	0x3C, 0x64, 0x78, 0x3C, 0x00, 0x00, 0x40, 0x64, 0x78, 0x40, 0x00, 0x00,
	0x45, 0x64, 0x78, 0x45, 0x00, 0x00, 0x47, 0x64, 0x82, 0x68, 0x47, 0x00,
	0x00, 0x40, 0x64, 0x78, 0x40, 0x00, 0x00, 0x44, 0x64, 0x78, 0x44, 0x00,
	0x00, 0x47, 0x64, 0x78, 0x47, 0x00, 0x00, 0x48, 0x64, 0x82, 0x68, 0x48,
	0x00, 0x00, 0x40, 0x64, 0x78, 0x40, 0x00, 0x00, 0x4C, 0x64, 0x78, 0x4C,
	0x00, 0x00, 0x4B, 0x64, 0x78, 0x4B, 0x00, 0x00, 0x4C, 0x64, 0x78, 0x4C,
	0x00, 0x00, 0x4B, 0x64, 0x78, 0x4B, 0x00, 0x00, 0x4C, 0x64, 0x78, 0x4C,
	0x00, 0x00, 0x47, 0x64, 0x78, 0x47, 0x00, 0x00, 0x4A, 0x64, 0x78, 0x4A,
	0x00, 0x00, 0x48, 0x64, 0x78, 0x48, 0x00, 0x00, 0x45, 0x64, 0x82, 0x68,
	0x45, 0x00, 0x00, 0x3C, 0x64, 0x78, 0x3C, 0x00, 0x00, 0x40, 0x64, 0x78,
	0x40, 0x00, 0x00, 0x45, 0x64, 0x78, 0x45, 0x00, 0x00, 0x47, 0x64, 0x82,
	0x68, 0x47, 0x00, 0x00, 0x40, 0x64, 0x78, 0x40, 0x00, 0x00, 0x48, 0x64,
	0x78, 0x48, 0x00, 0x00, 0x47, 0x64, 0x78, 0x47, 0x00, 0x00, 0x3C, 0x64,
	0x11, 0x45, 0x64, 0x85, 0x3F, 0x3C, 0x00, 0x05, 0x45, 0x00, 0x00, 0xFF,
	0x2F, 0x00, 0x4D, 0x54, 0x72, 0x6B, 0x00, 0x00, 0x0D, 0xD3, 0x00, 0xFF,
	0x21, 0x01, 0x00, 0x00, 0xFF, 0x03, 0x00, 0x00, 0xC2, 0x00, 0x00, 0xB2,
	0x07, 0x7F, 0x00, 0x92, 0x00, 0x00, 0x00, 0x00, 0x00, 0x00, 0x00, 0x00,
	0x00, 0x00, 0x00, 0x00, 0x00, 0x00, 0x00, 0x00, 0x00, 0x00, 0x00, 0x00,
	0x00, 0x00, 0x00, 0x00, 0x00, 0x00, 0x00, 0x00, 0x00, 0x00, 0x00, 0x00,
	0x00, 0x00, 0x00, 0x00, 0x00, 0x00, 0x00, 0x00, 0x00, 0x00, 0x00, 0x00,
	0x00, 0x00, 0x00, 0x00, 0x00, 0x00, 0x00, 0x00, 0x00, 0x00, 0x00, 0x00,
	0x00, 0x00, 0x00, 0x00, 0x00, 0x00, 0x00, 0x00, 0x00, 0x00, 0x00, 0x00,
	0x00, 0x00, 0x00, 0x00, 0x00, 0x00, 0x00, 0x00, 0x00, 0x00, 0x00, 0x00,
	0x00, 0x00, 0x00, 0x00, 0x00, 0x00, 0x00, 0x00, 0x00, 0x00, 0x00, 0x00,
	0x00, 0x00, 0x00, 0x8B, 0x20, 0x2D, 0x7F, 0x78, 0x34, 0x7F, 0x78, 0x39,
	0x7F, 0x78, 0x3C, 0x7F, 0x82, 0x68, 0x3C, 0x00, 0x00, 0x2D, 0x00, 0x00,
	0x34, 0x00, 0x00, 0x39, 0x00, 0x00, 0x28, 0x7F, 0x78, 0x34, 0x7F, 0x78,
	0x38, 0x7F, 0x78, 0x3B, 0x7F, 0x82, 0x68, 0x3B, 0x00, 0x00, 0x28, 0x00,
	0x00, 0x34, 0x00, 0x00, 0x38, 0x00, 0x00, 0x2D, 0x7F, 0x78, 0x34, 0x7F,
	0x78, 0x39, 0x7F, 0x78, 0x3C, 0x7F, 0x82, 0x68, 0x3C, 0x00, 0x00, 0x2D,
	0x00, 0x00, 0x34, 0x00, 0x00, 0x39, 0x00, 0x85, 0x50, 0x2D, 0x7F, 0x78,
	0x34, 0x7F, 0x78, 0x39, 0x7F, 0x78, 0x3C, 0x7F, 0x82, 0x68, 0x3C, 0x00,
	0x00, 0x2D, 0x00, 0x00, 0x34, 0x00, 0x00, 0x39, 0x00, 0x00, 0x28, 0x7F,
	0x78, 0x34, 0x7F, 0x78, 0x38, 0x7F, 0x78, 0x3B, 0x7F, 0x82, 0x68, 0x3B,
	0x00, 0x00, 0x28, 0x00, 0x00, 0x34, 0x00, 0x00, 0x38, 0x00, 0x00, 0x2D,
	0x7F, 0x78, 0x34, 0x7F, 0x78, 0x39, 0x7F, 0x78, 0x3C, 0x7F, 0x82, 0x68,
	0x3C, 0x00, 0x00, 0x2D, 0x00, 0x00, 0x34, 0x00, 0x00, 0x39, 0x00, 0x85,
	0x50, 0x2D, 0x7F, 0x78, 0x34, 0x7F, 0x78, 0x39, 0x7F, 0x78, 0x3C, 0x7F,
	0x78, 0x39, 0x7F, 0x78, 0x34, 0x7F, 0x78, 0x34, 0x00, 0x00, 0x34, 0x00,
	0x00, 0x39, 0x00, 0x00, 0x2D, 0x00, 0x00, 0x39, 0x00, 0x00, 0x3C, 0x00,
	0x00, 0x28, 0x7F, 0x78, 0x34, 0x7F, 0x78, 0x38, 0x7F, 0x78, 0x3B, 0x7F,
	0x78, 0x38, 0x7F, 0x78, 0x34, 0x7F, 0x78, 0x34, 0x00, 0x00, 0x34, 0x00,
	0x00, 0x38, 0x00, 0x00, 0x28, 0x00, 0x00, 0x38, 0x00, 0x00, 0x3B, 0x00,
	0x00, 0x2D, 0x7F, 0x78, 0x34, 0x7F, 0x78, 0x39, 0x7F, 0x78, 0x3C, 0x7F,
	0x82, 0x68, 0x3C, 0x00, 0x00, 0x2D, 0x00, 0x00, 0x34, 0x00, 0x00, 0x39,
	0x00, 0x85, 0x50, 0x2D, 0x7F, 0x78, 0x34, 0x7F, 0x78, 0x39, 0x7F, 0x78,
	0x3C, 0x7F, 0x78, 0x39, 0x7F, 0x78, 0x34, 0x7F, 0x78, 0x34, 0x00, 0x00,
	0x34, 0x00, 0x00, 0x39, 0x00, 0x00, 0x2D, 0x00, 0x00, 0x39, 0x00, 0x00,
	0x3C, 0x00, 0x00, 0x28, 0x7F, 0x78, 0x34, 0x7F, 0x78, 0x38, 0x7F, 0x78,
	0x3B, 0x7F, 0x78, 0x38, 0x7F, 0x78, 0x34, 0x7F, 0x78, 0x34, 0x00, 0x00,
	0x34, 0x00, 0x00, 0x38, 0x00, 0x00, 0x28, 0x00, 0x00, 0x38, 0x00, 0x00,
	0x3B, 0x00, 0x00, 0x2D, 0x7F, 0x78, 0x34, 0x7F, 0x78, 0x3C, 0x7F, 0x78,
	0x3C, 0x00, 0x00, 0x34, 0x00, 0x00, 0x2D, 0x00, 0x00, 0x2B, 0x7F, 0x78,
	0x35, 0x7F, 0x78, 0x3B, 0x7F, 0x78, 0x3B, 0x00, 0x00, 0x35, 0x00, 0x00,
	0x2B, 0x00, 0x00, 0x30, 0x7F, 0x78, 0x37, 0x7F, 0x78, 0x3C, 0x7F, 0x78,
	0x40, 0x7F, 0x78, 0x3C, 0x7F, 0x78, 0x37, 0x7F, 0x78, 0x37, 0x00, 0x00,
	0x37, 0x00, 0x00, 0x3C, 0x00, 0x00, 0x30, 0x00, 0x00, 0x3C, 0x00, 0x00,
	0x40, 0x00, 0x00, 0x2B, 0x7F, 0x78, 0x37, 0x7F, 0x78, 0x3B, 0x7F, 0x78,
	0x3B, 0x00, 0x00, 0x37, 0x00, 0x00, 0x2B, 0x00, 0x00, 0x2C, 0x7F, 0x78,
	0x38, 0x7F, 0x78, 0x3B, 0x7F, 0x78, 0x3B, 0x00, 0x00, 0x38, 0x00, 0x00,
	0x2C, 0x00, 0x00, 0x2D, 0x7F, 0x78, 0x34, 0x7F, 0x78, 0x39, 0x7F, 0x78,
	0x3C, 0x7F, 0x78, 0x39, 0x7F, 0x78, 0x34, 0x7F, 0x78, 0x34, 0x00, 0x00,
	0x34, 0x00, 0x00, 0x39, 0x00, 0x00, 0x2D, 0x00, 0x00, 0x39, 0x00, 0x00,
	0x3C, 0x00, 0x00, 0x28, 0x7F, 0x78, 0x34, 0x7F, 0x78, 0x40, 0x7F, 0x78,
	0x40, 0x00, 0x00, 0x34, 0x00, 0x00, 0x28, 0x00, 0x81, 0x70, 0x40, 0x7F,
	0x78, 0x40, 0x00, 0x00, 0x4C, 0x7F, 0x78, 0x4C, 0x00, 0x81, 0x70, 0x4B,
	0x7F, 0x78, 0x4B, 0x00, 0x00, 0x4C, 0x7F, 0x78, 0x4C, 0x00, 0x86, 0x48,
	0x2D, 0x7F, 0x78, 0x34, 0x7F, 0x78, 0x39, 0x7F, 0x78, 0x3C, 0x7F, 0x78,
	0x39, 0x7F, 0x78, 0x34, 0x7F, 0x78, 0x34, 0x00, 0x00, 0x34, 0x00, 0x00,
	0x39, 0x00, 0x00, 0x2D, 0x00, 0x00, 0x39, 0x00, 0x00, 0x3C, 0x00, 0x00,
	0x28, 0x7F, 0x78, 0x34, 0x7F, 0x78, 0x38, 0x7F, 0x78, 0x3B, 0x7F, 0x78,
	0x38, 0x7F, 0x78, 0x34, 0x7F, 0x78, 0x34, 0x00, 0x00, 0x34, 0x00, 0x00,
	0x38, 0x00, 0x00, 0x28, 0x00, 0x00, 0x38, 0x00, 0x00, 0x3B, 0x00, 0x00,
	0x2D, 0x7F, 0x78, 0x34, 0x7F, 0x78, 0x39, 0x7F, 0x78, 0x3C, 0x7F, 0x82,
	0x68, 0x3C, 0x00, 0x00, 0x2D, 0x00, 0x00, 0x34, 0x00, 0x00, 0x39, 0x00,
	0x85, 0x50, 0x2D, 0x7F, 0x78, 0x34, 0x7F, 0x78, 0x39, 0x7F, 0x78, 0x3C,
	0x7F, 0x78, 0x39, 0x7F, 0x78, 0x34, 0x7F, 0x78, 0x34, 0x00, 0x00, 0x34,
	0x00, 0x00, 0x39, 0x00, 0x00, 0x2D, 0x00, 0x00, 0x39, 0x00, 0x00, 0x3C,
	0x00, 0x00, 0x28, 0x7F, 0x78, 0x34, 0x7F, 0x78, 0x38, 0x7F, 0x78, 0x3B,
	0x7F, 0x78, 0x38, 0x7F, 0x78, 0x34, 0x7F, 0x78, 0x34, 0x00, 0x00, 0x34,
	0x00, 0x00, 0x38, 0x00, 0x00, 0x28, 0x00, 0x00, 0x38, 0x00, 0x00, 0x3B,
	0x00, 0x00, 0x2D, 0x7F, 0x78, 0x34, 0x7F, 0x78, 0x3C, 0x7F, 0x78, 0x3C,
	0x00, 0x00, 0x34, 0x00, 0x00, 0x2D, 0x00, 0x00, 0x2B, 0x7F, 0x78, 0x35,
	0x7F, 0x78, 0x3B, 0x7F, 0x78, 0x3B, 0x00, 0x00, 0x35, 0x00, 0x00, 0x2B,
	0x00, 0x00, 0x30, 0x7F, 0x78, 0x37, 0x7F, 0x78, 0x3C, 0x7F, 0x78, 0x40,
	0x7F, 0x78, 0x3C, 0x7F, 0x78, 0x37, 0x7F, 0x78, 0x37, 0x00, 0x00, 0x37,
	0x00, 0x00, 0x3C, 0x00, 0x00, 0x30, 0x00, 0x00, 0x3C, 0x00, 0x00, 0x40,
	0x00, 0x00, 0x2B, 0x7F, 0x78, 0x37, 0x7F, 0x78, 0x3B, 0x7F, 0x78, 0x3B,
	0x00, 0x00, 0x37, 0x00, 0x00, 0x2B, 0x00, 0x00, 0x2C, 0x7F, 0x78, 0x38,
	0x7F, 0x78, 0x3B, 0x7F, 0x78, 0x3B, 0x00, 0x00, 0x38, 0x00, 0x00, 0x2C,
	0x00, 0x00, 0x2D, 0x7F, 0x78, 0x34, 0x7F, 0x78, 0x39, 0x7F, 0x78, 0x3C,
	0x7F, 0x78, 0x39, 0x7F, 0x78, 0x34, 0x7F, 0x78, 0x34, 0x00, 0x00, 0x34,
	0x00, 0x00, 0x39, 0x00, 0x00, 0x2D, 0x00, 0x00, 0x39, 0x00, 0x00, 0x3C,
	0x00, 0x00, 0x28, 0x7F, 0x78, 0x34, 0x7F, 0x78, 0x40, 0x7F, 0x78, 0x40,
	0x00, 0x00, 0x34, 0x00, 0x00, 0x28, 0x00, 0x81, 0x70, 0x40, 0x7F, 0x78,
	0x40, 0x00, 0x00, 0x4C, 0x7F, 0x78, 0x4C, 0x00, 0x81, 0x70, 0x4B, 0x7F,
	0x78, 0x4B, 0x00, 0x00, 0x4C, 0x7F, 0x78, 0x4C, 0x00, 0x86, 0x48, 0x2D,
	0x7F, 0x78, 0x34, 0x7F, 0x78, 0x39, 0x7F, 0x78, 0x3C, 0x7F, 0x78, 0x39,
	0x7F, 0x78, 0x34, 0x7F, 0x78, 0x34, 0x00, 0x00, 0x34, 0x00, 0x00, 0x39,
	0x00, 0x00, 0x2D, 0x00, 0x00, 0x39, 0x00, 0x00, 0x3C, 0x00, 0x00, 0x28,
	0x7F, 0x78, 0x34, 0x7F, 0x78, 0x38, 0x7F, 0x78, 0x3B, 0x7F, 0x78, 0x38,
	0x7F, 0x78, 0x34, 0x7F, 0x78, 0x34, 0x00, 0x00, 0x34, 0x00, 0x00, 0x38,
	0x00, 0x00, 0x28, 0x00, 0x00, 0x38, 0x00, 0x00, 0x3B, 0x00, 0x00, 0x2D,
	0x7F, 0x78, 0x34, 0x7F, 0x78, 0x39, 0x7F, 0x78, 0x3C, 0x7F, 0x82, 0x68,
	0x3C, 0x00, 0x00, 0x2D, 0x00, 0x00, 0x34, 0x00, 0x00, 0x39, 0x00, 0x85,
	0x50, 0x2D, 0x7F, 0x78, 0x34, 0x7F, 0x78, 0x39, 0x7F, 0x78, 0x3C, 0x7F,
	0x78, 0x39, 0x7F, 0x78, 0x34, 0x7F, 0x78, 0x34, 0x00, 0x00, 0x34, 0x00,
	0x00, 0x39, 0x00, 0x00, 0x2D, 0x00, 0x00, 0x39, 0x00, 0x00, 0x3C, 0x00,
	0x00, 0x28, 0x7F, 0x78, 0x34, 0x7F, 0x78, 0x38, 0x7F, 0x78, 0x3B, 0x7F,
	0x78, 0x38, 0x7F, 0x78, 0x34, 0x7F, 0x78, 0x34, 0x00, 0x00, 0x34, 0x00,
	0x00, 0x38, 0x00, 0x00, 0x28, 0x00, 0x00, 0x38, 0x00, 0x00, 0x3B, 0x00,
	0x00, 0x2D, 0x7F, 0x78, 0x34, 0x7F, 0x78, 0x39, 0x7F, 0x78, 0x39, 0x00,
	0x00, 0x34, 0x00, 0x00, 0x2D, 0x00, 0x00, 0x3A, 0x7F, 0x00, 0x3C, 0x7F,
	0x78, 0x3C, 0x00, 0x00, 0x3A, 0x00, 0x00, 0x39, 0x7F, 0x00, 0x3C, 0x7F,
	0x78, 0x3C, 0x00, 0x00, 0x39, 0x00, 0x00, 0x37, 0x7F, 0x00, 0x3A, 0x7F,
	0x00, 0x3C, 0x7F, 0x78, 0x3C, 0x00, 0x00, 0x3A, 0x00, 0x00, 0x37, 0x00,
	0x00, 0x35, 0x7F, 0x78, 0x39, 0x7F, 0x78, 0x3C, 0x7F, 0x78, 0x39, 0x7F,
	0x78, 0x3C, 0x7F, 0x78, 0x39, 0x7F, 0x78, 0x39, 0x00, 0x00, 0x39, 0x00,
	0x00, 0x3C, 0x00, 0x00, 0x35, 0x00, 0x00, 0x3C, 0x00, 0x00, 0x39, 0x00,
	0x00, 0x35, 0x7F, 0x78, 0x3A, 0x7F, 0x78, 0x3E, 0x7F, 0x78, 0x3A, 0x7F,
	0x78, 0x3E, 0x7F, 0x78, 0x3A, 0x7F, 0x78, 0x3A, 0x00, 0x00, 0x3A, 0x00,
	0x00, 0x3E, 0x00, 0x00, 0x35, 0x00, 0x00, 0x3E, 0x00, 0x00, 0x3A, 0x00,
	0x00, 0x35, 0x7F, 0x78, 0x35, 0x00, 0x00, 0x37, 0x7F, 0x78, 0x37, 0x00,
	0x00, 0x40, 0x7F, 0x78, 0x40, 0x00, 0x00, 0x35, 0x7F, 0x00, 0x37, 0x7F,
	0x00, 0x3A, 0x7F, 0x78, 0x3A, 0x00, 0x00, 0x37, 0x00, 0x00, 0x35, 0x00,
	0x00, 0x40, 0x7F, 0x78, 0x40, 0x00, 0x00, 0x35, 0x7F, 0x00, 0x37, 0x7F,
	0x00, 0x3A, 0x7F, 0x78, 0x3A, 0x00, 0x00, 0x37, 0x00, 0x00, 0x35, 0x00,
	0x00, 0x35, 0x7F, 0x78, 0x39, 0x7F, 0x78, 0x3C, 0x7F, 0x78, 0x39, 0x7F,
	0x78, 0x3C, 0x7F, 0x78, 0x39, 0x7F, 0x78, 0x39, 0x00, 0x00, 0x39, 0x00,
	0x00, 0x3C, 0x00, 0x00, 0x35, 0x00, 0x00, 0x3C, 0x00, 0x00, 0x39, 0x00,
	0x00, 0x35, 0x7F, 0x78, 0x39, 0x7F, 0x78, 0x3C, 0x7F, 0x78, 0x39, 0x7F,
	0x78, 0x3C, 0x7F, 0x78, 0x39, 0x7F, 0x78, 0x39, 0x00, 0x00, 0x39, 0x00,
	0x00, 0x3C, 0x00, 0x00, 0x35, 0x00, 0x00, 0x3C, 0x00, 0x00, 0x39, 0x00,
	0x00, 0x2D, 0x7F, 0x78, 0x34, 0x7F, 0x78, 0x3C, 0x7F, 0x78, 0x32, 0x7F,
	0x78, 0x3E, 0x7F, 0x78, 0x35, 0x7F, 0x78, 0x35, 0x00, 0x00, 0x34, 0x00,
	0x00, 0x3C, 0x00, 0x00, 0x2D, 0x00, 0x00, 0x3E, 0x00, 0x00, 0x32, 0x00,
	0x00, 0x37, 0x7F, 0x78, 0x3C, 0x7F, 0x00, 0x40, 0x7F, 0x78, 0x37, 0x7F,
	0x78, 0x3B, 0x7F, 0x00, 0x41, 0x7F, 0x78, 0x37, 0x7F, 0x78, 0x3B, 0x7F,
	0x00, 0x41, 0x7F, 0x78, 0x41, 0x00, 0x00, 0x37, 0x00, 0x00, 0x37, 0x00,
	0x00, 0x3B, 0x00, 0x00, 0x3C, 0x00, 0x00, 0x40, 0x00, 0x00, 0x37, 0x00,
	0x00, 0x41, 0x00, 0x00, 0x3B, 0x00, 0x00, 0x3C, 0x7F, 0x00, 0x40, 0x7F,
	0x78, 0x40, 0x00, 0x00, 0x3C, 0x00, 0x81, 0x70, 0x41, 0x7F, 0x00, 0x43,
	0x7F, 0x78, 0x43, 0x00, 0x00, 0x41, 0x00, 0x00, 0x40, 0x7F, 0x00, 0x43,
	0x7F, 0x78, 0x43, 0x00, 0x00, 0x40, 0x00, 0x00, 0x3E, 0x7F, 0x00, 0x41,
	0x7F, 0x00, 0x43, 0x7F, 0x78, 0x43, 0x00, 0x00, 0x41, 0x00, 0x00, 0x3E,
	0x00, 0x00, 0x37, 0x7F, 0x00, 0x3C, 0x7F, 0x00, 0x40, 0x7F, 0x78, 0x40,
	0x00, 0x00, 0x3C, 0x00, 0x00, 0x37, 0x00, 0x78, 0x35, 0x7F, 0x00, 0x39,
	0x7F, 0x78, 0x39, 0x00, 0x00, 0x35, 0x00, 0x78, 0x37, 0x7F, 0x00, 0x3B,
	0x7F, 0x78, 0x3B, 0x00, 0x00, 0x37, 0x00, 0x78, 0x2D, 0x7F, 0x78, 0x34,
	0x7F, 0x78, 0x3C, 0x7F, 0x78, 0x32, 0x7F, 0x78, 0x3E, 0x7F, 0x78, 0x35,
	0x7F, 0x78, 0x35, 0x00, 0x00, 0x34, 0x00, 0x00, 0x3C, 0x00, 0x00, 0x2D,
	0x00, 0x00, 0x3E, 0x00, 0x00, 0x32, 0x00, 0x00, 0x37, 0x7F, 0x78, 0x3C,
	0x7F, 0x00, 0x40, 0x7F, 0x78, 0x37, 0x7F, 0x78, 0x3B, 0x7F, 0x00, 0x41,
	0x7F, 0x78, 0x37, 0x7F, 0x78, 0x3B, 0x7F, 0x00, 0x41, 0x7F, 0x78, 0x41,
	0x00, 0x00, 0x37, 0x00, 0x00, 0x37, 0x00, 0x00, 0x3B, 0x00, 0x00, 0x3C,
	0x00, 0x00, 0x40, 0x00, 0x00, 0x37, 0x00, 0x00, 0x41, 0x00, 0x00, 0x3B,
	0x00, 0x00, 0x3C, 0x7F, 0x00, 0x40, 0x7F, 0x78, 0x40, 0x00, 0x00, 0x3C,
	0x00, 0x81, 0x70, 0x41, 0x7F, 0x00, 0x43, 0x7F, 0x78, 0x43, 0x00, 0x00,
	0x41, 0x00, 0x00, 0x40, 0x7F, 0x00, 0x43, 0x7F, 0x78, 0x43, 0x00, 0x00,
	0x40, 0x00, 0x00, 0x3E, 0x7F, 0x00, 0x41, 0x7F, 0x00, 0x43, 0x7F, 0x78,
	0x43, 0x00, 0x00, 0x41, 0x00, 0x00, 0x3E, 0x00, 0x00, 0x37, 0x7F, 0x00,
	0x3C, 0x7F, 0x00, 0x40, 0x7F, 0x78, 0x40, 0x00, 0x00, 0x3C, 0x00, 0x00,
	0x37, 0x00, 0x78, 0x35, 0x7F, 0x00, 0x39, 0x7F, 0x78, 0x39, 0x00, 0x00,
	0x35, 0x00, 0x78, 0x37, 0x7F, 0x00, 0x3B, 0x7F, 0x78, 0x3B, 0x00, 0x00,
	0x37, 0x00, 0x78, 0x34, 0x7F, 0x00, 0x37, 0x7F, 0x00, 0x3B, 0x7F, 0x00,
	0x3E, 0x7F, 0x85, 0x50, 0x3E, 0x00, 0x00, 0x34, 0x00, 0x00, 0x37, 0x00,
	0x00, 0x3B, 0x00, 0x90, 0x70, 0x2D, 0x7F, 0x78, 0x34, 0x7F, 0x78, 0x39,
	0x7F, 0x78, 0x3C, 0x7F, 0x78, 0x39, 0x7F, 0x78, 0x34, 0x7F, 0x78, 0x34,
	0x00, 0x00, 0x34, 0x00, 0x00, 0x39, 0x00, 0x00, 0x2D, 0x00, 0x00, 0x39,
	0x00, 0x00, 0x3C, 0x00, 0x00, 0x28, 0x7F, 0x78, 0x34, 0x7F, 0x78, 0x38,
	0x7F, 0x78, 0x3B, 0x7F, 0x78, 0x38, 0x7F, 0x78, 0x34, 0x7F, 0x78, 0x34,
	0x00, 0x00, 0x34, 0x00, 0x00, 0x38, 0x00, 0x00, 0x28, 0x00, 0x00, 0x38,
	0x00, 0x00, 0x3B, 0x00, 0x00, 0x2D, 0x7F, 0x78, 0x34, 0x7F, 0x78, 0x39,
	0x7F, 0x78, 0x3C, 0x7F, 0x82, 0x68, 0x3C, 0x00, 0x00, 0x2D, 0x00, 0x00,
	0x34, 0x00, 0x00, 0x39, 0x00, 0x85, 0x50, 0x2D, 0x7F, 0x78, 0x34, 0x7F,
	0x78, 0x39, 0x7F, 0x78, 0x3C, 0x7F, 0x78, 0x39, 0x7F, 0x78, 0x34, 0x7F,
	0x78, 0x34, 0x00, 0x00, 0x34, 0x00, 0x00, 0x39, 0x00, 0x00, 0x2D, 0x00,
	0x00, 0x39, 0x00, 0x00, 0x3C, 0x00, 0x00, 0x28, 0x7F, 0x78, 0x34, 0x7F,
	0x78, 0x38, 0x7F, 0x78, 0x3B, 0x7F, 0x78, 0x38, 0x7F, 0x78, 0x34, 0x7F,
	0x78, 0x34, 0x00, 0x00, 0x34, 0x00, 0x00, 0x38, 0x00, 0x00, 0x28, 0x00,
	0x00, 0x38, 0x00, 0x00, 0x3B, 0x00, 0x00, 0x2D, 0x7F, 0x78, 0x34, 0x7F,
	0x78, 0x3C, 0x7F, 0x78, 0x3C, 0x00, 0x00, 0x34, 0x00, 0x00, 0x2D, 0x00,
	0x00, 0x2B, 0x7F, 0x78, 0x35, 0x7F, 0x78, 0x3B, 0x7F, 0x78, 0x3B, 0x00,
	0x00, 0x35, 0x00, 0x00, 0x2B, 0x00, 0x00, 0x30, 0x7F, 0x78, 0x37, 0x7F,
	0x78, 0x3C, 0x7F, 0x78, 0x40, 0x7F, 0x78, 0x3C, 0x7F, 0x78, 0x37, 0x7F,
	0x78, 0x37, 0x00, 0x00, 0x37, 0x00, 0x00, 0x3C, 0x00, 0x00, 0x30, 0x00,
	0x00, 0x3C, 0x00, 0x00, 0x40, 0x00, 0x00, 0x2B, 0x7F, 0x78, 0x37, 0x7F,
	0x78, 0x3B, 0x7F, 0x78, 0x3B, 0x00, 0x00, 0x37, 0x00, 0x00, 0x2B, 0x00,
	0x00, 0x2C, 0x7F, 0x78, 0x38, 0x7F, 0x78, 0x3B, 0x7F, 0x78, 0x3B, 0x00,
	0x00, 0x38, 0x00, 0x00, 0x2C, 0x00, 0x00, 0x2D, 0x7F, 0x78, 0x34, 0x7F,
	0x78, 0x39, 0x7F, 0x78, 0x3C, 0x7F, 0x78, 0x39, 0x7F, 0x78, 0x34, 0x7F,
	0x78, 0x34, 0x00, 0x00, 0x34, 0x00, 0x00, 0x39, 0x00, 0x00, 0x2D, 0x00,
	0x00, 0x39, 0x00, 0x00, 0x3C, 0x00, 0x00, 0x28, 0x7F, 0x78, 0x34, 0x7F,
	0x78, 0x40, 0x7F, 0x78, 0x40, 0x00, 0x00, 0x34, 0x00, 0x00, 0x28, 0x00,
	0x81, 0x70, 0x40, 0x7F, 0x78, 0x40, 0x00, 0x00, 0x4C, 0x7F, 0x78, 0x4C,
	0x00, 0x81, 0x70, 0x4B, 0x7F, 0x78, 0x4B, 0x00, 0x00, 0x4C, 0x7F, 0x78,
	0x4C, 0x00, 0x86, 0x48, 0x2D, 0x7F, 0x78, 0x34, 0x7F, 0x78, 0x39, 0x7F,
	0x78, 0x3C, 0x7F, 0x78, 0x39, 0x7F, 0x78, 0x34, 0x7F, 0x78, 0x34, 0x00,
	0x00, 0x34, 0x00, 0x00, 0x39, 0x00, 0x00, 0x2D, 0x00, 0x00, 0x39, 0x00,
	0x00, 0x3C, 0x00, 0x00, 0x28, 0x7F, 0x78, 0x34, 0x7F, 0x78, 0x38, 0x7F,
	0x78, 0x3B, 0x7F, 0x78, 0x38, 0x7F, 0x78, 0x34, 0x7F, 0x78, 0x34, 0x00,
	0x00, 0x34, 0x00, 0x00, 0x38, 0x00, 0x00, 0x28, 0x00, 0x00, 0x38, 0x00,
	0x00, 0x3B, 0x00, 0x00, 0x2D, 0x7F, 0x78, 0x34, 0x7F, 0x78, 0x39, 0x7F,
	0x78, 0x3C, 0x7F, 0x82, 0x68, 0x3C, 0x00, 0x00, 0x2D, 0x00, 0x00, 0x34,
	0x00, 0x00, 0x39, 0x00, 0x85, 0x50, 0x2D, 0x7F, 0x78, 0x34, 0x7F, 0x78,
	0x39, 0x7F, 0x78, 0x3C, 0x7F, 0x78, 0x39, 0x7F, 0x78, 0x34, 0x7F, 0x78,
	0x34, 0x00, 0x00, 0x34, 0x00, 0x00, 0x39, 0x00, 0x00, 0x2D, 0x00, 0x00,
	0x39, 0x00, 0x00, 0x3C, 0x00, 0x00, 0x28, 0x7F, 0x78, 0x34, 0x7F, 0x78,
	0x38, 0x7F, 0x78, 0x3B, 0x7F, 0x78, 0x38, 0x7F, 0x78, 0x34, 0x7F, 0x78,
	0x34, 0x00, 0x00, 0x34, 0x00, 0x00, 0x38, 0x00, 0x00, 0x28, 0x00, 0x00,
	0x38, 0x00, 0x00, 0x3B, 0x00, 0x00, 0x2D, 0x64, 0x00, 0x2D, 0x7F, 0x15,
	0x39, 0x7F, 0x63, 0x2D, 0x00, 0x00, 0x2D, 0x64, 0x78, 0x2D, 0x00, 0x00,
	0x2D, 0x64, 0x78, 0x2D, 0x00, 0x00, 0x2D, 0x64, 0x78, 0x2D, 0x00, 0x00,
	0x2D, 0x00, 0x00, 0x2D, 0x64, 0x06, 0x39, 0x00, 0x72, 0x2D, 0x00, 0x00,
	0x2D, 0x64, 0x78, 0x2D, 0x00, 0x00, 0x2D, 0x64, 0x78, 0x2D, 0x00, 0x00,
	0x2D, 0x64, 0x78, 0x2D, 0x00, 0x00, 0x2D, 0x64, 0x78, 0x2D, 0x00, 0x00,
	0x2D, 0x64, 0x78, 0x2D, 0x00, 0x00, 0x2D, 0x64, 0x78, 0x2D, 0x00, 0x00,
	0x2D, 0x64, 0x78, 0x2D, 0x00, 0x00, 0x2D, 0x64, 0x78, 0x2D, 0x00, 0x00,
	0x2D, 0x64, 0x78, 0x2D, 0x00, 0x00, 0x2D, 0x64, 0x78, 0x2D, 0x00, 0x00,
	0x2D, 0x64, 0x78, 0x2D, 0x00, 0x00, 0x2D, 0x64, 0x78, 0x2D, 0x00, 0x00,
	0x2D, 0x64, 0x78, 0x2D, 0x00, 0x00, 0x2D, 0x64, 0x78, 0x2D, 0x00, 0x00,
	0x2D, 0x64, 0x78, 0x2D, 0x00, 0x00, 0x2D, 0x64, 0x78, 0x2D, 0x00, 0x00,
	0x2D, 0x64, 0x78, 0x2D, 0x00, 0x00, 0x2D, 0x64, 0x78, 0x2D, 0x00, 0x00,
	0x2D, 0x64, 0x78, 0x2D, 0x00, 0x00, 0x2D, 0x64, 0x78, 0x2D, 0x00, 0x00,
	0x2D, 0x64, 0x78, 0x2D, 0x00, 0x00, 0x2D, 0x64, 0x78, 0x2D, 0x00, 0x00,
	0x2D, 0x64, 0x78, 0x2D, 0x00, 0x00, 0x2D, 0x64, 0x78, 0x2D, 0x00, 0x00,
	0x2D, 0x64, 0x78, 0x2D, 0x00, 0x00, 0x26, 0x64, 0x00, 0x2D, 0x64, 0x78,
	0x2D, 0x00, 0x00, 0x26, 0x00, 0x00, 0x26, 0x64, 0x00, 0x2D, 0x64, 0x78,
	0x2D, 0x00, 0x00, 0x26, 0x00, 0x00, 0x26, 0x64, 0x00, 0x2D, 0x64, 0x78,
	0x2D, 0x00, 0x00, 0x26, 0x00, 0x00, 0x26, 0x64, 0x00, 0x2D, 0x64, 0x78,
	0x2D, 0x00, 0x00, 0x26, 0x00, 0x00, 0x26, 0x64, 0x00, 0x2D, 0x64, 0x78,
	0x2D, 0x00, 0x00, 0x26, 0x00, 0x00, 0x26, 0x64, 0x00, 0x2D, 0x64, 0x78,
	0x2D, 0x00, 0x00, 0x26, 0x00, 0x00, 0x26, 0x64, 0x00, 0x2D, 0x64, 0x78,
	0x2D, 0x00, 0x00, 0x26, 0x00, 0x00, 0x26, 0x64, 0x00, 0x2D, 0x64, 0x78,
	0x2D, 0x00, 0x00, 0x26, 0x00, 0x00, 0x26, 0x64, 0x00, 0x2D, 0x64, 0x78,
	0x2D, 0x00, 0x00, 0x26, 0x00, 0x00, 0x26, 0x64, 0x00, 0x2D, 0x64, 0x78,
	0x2D, 0x00, 0x00, 0x26, 0x00, 0x00, 0x26, 0x64, 0x00, 0x2D, 0x64, 0x78,
	0x2D, 0x00, 0x00, 0x26, 0x00, 0x00, 0x26, 0x64, 0x00, 0x2D, 0x64, 0x78,
	0x2D, 0x00, 0x00, 0x26, 0x00, 0x00, 0x28, 0x64, 0x00, 0x2D, 0x64, 0x78,
	0x2D, 0x00, 0x00, 0x28, 0x00, 0x00, 0x28, 0x64, 0x00, 0x2D, 0x64, 0x78,
	0x2D, 0x00, 0x00, 0x28, 0x00, 0x00, 0x28, 0x64, 0x00, 0x2D, 0x64, 0x78,
	0x2D, 0x00, 0x00, 0x28, 0x00, 0x00, 0x28, 0x64, 0x00, 0x2D, 0x64, 0x78,
	0x2D, 0x00, 0x00, 0x28, 0x00, 0x00, 0x28, 0x64, 0x00, 0x2C, 0x64, 0x78,
	0x2C, 0x00, 0x00, 0x28, 0x00, 0x00, 0x28, 0x64, 0x00, 0x2C, 0x64, 0x78,
	0x2C, 0x00, 0x00, 0x28, 0x00, 0x00, 0x21, 0x64, 0x00, 0x2D, 0x64, 0x78,
	0x2D, 0x00, 0x00, 0x21, 0x00, 0x00, 0x2D, 0x64, 0x78, 0x2D, 0x00, 0x00,
	0x2D, 0x64, 0x78, 0x2D, 0x00, 0x00, 0x2D, 0x64, 0x78, 0x2D, 0x00, 0x00,
	0x2D, 0x64, 0x78, 0x2D, 0x00, 0x00, 0x2D, 0x64, 0x78, 0x2D, 0x00, 0x00,
	0x2D, 0x64, 0x78, 0x2D, 0x00, 0x00, 0x2D, 0x64, 0x78, 0x2D, 0x00, 0x00,
	0x2D, 0x64, 0x78, 0x2D, 0x00, 0x00, 0x2D, 0x64, 0x78, 0x2D, 0x00, 0x00,
	0x2D, 0x64, 0x78, 0x2D, 0x00, 0x00, 0x2D, 0x64, 0x78, 0x2D, 0x00, 0x00,
	0x2D, 0x64, 0x78, 0x2D, 0x00, 0x00, 0x2D, 0x64, 0x78, 0x2D, 0x00, 0x00,
	0x2D, 0x64, 0x78, 0x2D, 0x00, 0x00, 0x2D, 0x64, 0x78, 0x2D, 0x00, 0x00,
	0x2D, 0x64, 0x78, 0x2D, 0x00, 0x00, 0x2D, 0x64, 0x78, 0x2D, 0x00, 0x00,
	0x2D, 0x64, 0x78, 0x2D, 0x00, 0x00, 0x2D, 0x64, 0x78, 0x2D, 0x00, 0x00,
	0x2D, 0x64, 0x78, 0x2D, 0x00, 0x00, 0x2D, 0x64, 0x78, 0x2D, 0x00, 0x00,
	0x2D, 0x64, 0x78, 0x2D, 0x00, 0x00, 0x2D, 0x64, 0x78, 0x2D, 0x00, 0x00,
	0x2E, 0x64, 0x78, 0x2E, 0x00, 0x00, 0x2E, 0x64, 0x78, 0x2E, 0x00, 0x00,
	0x2E, 0x64, 0x78, 0x2E, 0x00, 0x00, 0x2E, 0x64, 0x78, 0x2E, 0x00, 0x00,
	0x2E, 0x64, 0x78, 0x2E, 0x00, 0x00, 0x2E, 0x64, 0x78, 0x2E, 0x00, 0x00,
	0x2E, 0x64, 0x78, 0x2E, 0x00, 0x00, 0x2E, 0x64, 0x78, 0x2E, 0x00, 0x00,
	0x2E, 0x64, 0x78, 0x2E, 0x00, 0x00, 0x2E, 0x64, 0x78, 0x2E, 0x00, 0x00,
	0x2E, 0x64, 0x78, 0x2E, 0x00, 0x00, 0x2E, 0x64, 0x78, 0x2E, 0x00, 0x00,
	0x2E, 0x64, 0x78, 0x2E, 0x00, 0x00, 0x2E, 0x64, 0x78, 0x2E, 0x00, 0x00,
	0x2E, 0x64, 0x78, 0x2E, 0x00, 0x00, 0x2E, 0x64, 0x78, 0x2E, 0x00, 0x00,
	0x2E, 0x64, 0x78, 0x2E, 0x00, 0x00, 0x2E, 0x64, 0x78, 0x2E, 0x00, 0x00,
	0x2F, 0x64, 0x78, 0x2F, 0x00, 0x00, 0x2F, 0x64, 0x78, 0x2F, 0x00, 0x00,
	0x2F, 0x64, 0x78, 0x2F, 0x00, 0x00, 0x2F, 0x64, 0x78, 0x2F, 0x00, 0x00,
	0x2F, 0x64, 0x78, 0x2F, 0x00, 0x00, 0x2F, 0x64, 0x78, 0x2F, 0x00, 0x00,
	0x30, 0x64, 0x83, 0x60, 0x30, 0x00, 0x81, 0x70, 0x34, 0x64, 0x00, 0x38,
	0x64, 0x81, 0x70, 0x38, 0x00, 0x00, 0x34, 0x00, 0x83, 0x60, 0x21, 0x64,
	0x82, 0x68, 0x21, 0x00, 0x82, 0x68, 0x39, 0x64, 0x00, 0x3C, 0x64, 0x00,
	0x40, 0x64, 0x82, 0x68, 0x40, 0x00, 0x00, 0x3C, 0x00, 0x00, 0x39, 0x00,
	0x00, 0x39, 0x64, 0x00, 0x3C, 0x64, 0x00, 0x40, 0x64, 0x82, 0x68, 0x40,
	0x00, 0x00, 0x3C, 0x00, 0x00, 0x39, 0x00, 0x82, 0x68, 0x39, 0x64, 0x00,
	0x3C, 0x64, 0x00, 0x40, 0x64, 0x82, 0x68, 0x40, 0x00, 0x00, 0x3C, 0x00,
	0x00, 0x39, 0x00, 0x00, 0x39, 0x64, 0x00, 0x3C, 0x64, 0x00, 0x40, 0x64,
	0x82, 0x68, 0x40, 0x00, 0x00, 0x3C, 0x00, 0x00, 0x39, 0x00, 0x82, 0x68,
	0x39, 0x64, 0x00, 0x3C, 0x64, 0x00, 0x40, 0x64, 0x82, 0x68, 0x40, 0x00,
	0x00, 0x3C, 0x00, 0x00, 0x39, 0x00, 0x00, 0x39, 0x64, 0x00, 0x3C, 0x64,
	0x00, 0x40, 0x64, 0x82, 0x68, 0x40, 0x00, 0x00, 0x3C, 0x00, 0x00, 0x39,
	0x00, 0x93, 0x58, 0x2D, 0x64, 0x78, 0x34, 0x64, 0x78, 0x39, 0x64, 0x83,
	0x60, 0x39, 0x00, 0x00, 0x34, 0x00, 0x00, 0x2D, 0x00, 0x00, 0x28, 0x64,
	0x78, 0x34, 0x64, 0x78, 0x38, 0x64, 0x83, 0x60, 0x38, 0x00, 0x00, 0x34,
	0x00, 0x00, 0x28, 0x00, 0x00, 0x2D, 0x64, 0x78, 0x34, 0x64, 0x78, 0x39,
	0x64, 0x83, 0x60, 0x39, 0x00, 0x00, 0x34, 0x00, 0x00, 0x2D, 0x00, 0x85,
	0x50, 0x2D, 0x64, 0x78, 0x34, 0x64, 0x78, 0x39, 0x64, 0x83, 0x60, 0x39,
	0x00, 0x00, 0x34, 0x00, 0x00, 0x2D, 0x00, 0x00, 0x28, 0x64, 0x78, 0x34,
	0x64, 0x78, 0x38, 0x64, 0x83, 0x60, 0x38, 0x00, 0x00, 0x34, 0x00, 0x00,
	0x28, 0x00, 0x00, 0x2D, 0x64, 0x78, 0x34, 0x64, 0x78, 0x39, 0x64, 0x83,
	0x60, 0x39, 0x00, 0x00, 0x34, 0x00, 0x00, 0x2D, 0x00, 0x00, 0x30, 0x64,
	0x78, 0x37, 0x64, 0x78, 0x3C, 0x64, 0x83, 0x60, 0x3C, 0x00, 0x00, 0x37,
	0x00, 0x00, 0x30, 0x00, 0x00, 0x2B, 0x64, 0x78, 0x37, 0x64, 0x78, 0x3B,
	0x64, 0x83, 0x60, 0x3B, 0x00, 0x00, 0x37, 0x00, 0x00, 0x2B, 0x00, 0x00,
	0x2D, 0x64, 0x78, 0x34, 0x64, 0x78, 0x39, 0x64, 0x83, 0x60, 0x39, 0x00,
	0x00, 0x34, 0x00, 0x00, 0x2D, 0x00, 0x00, 0x28, 0x64, 0x78, 0x34, 0x64,
	0x78, 0x40, 0x64, 0x78, 0x40, 0x00, 0x00, 0x34, 0x00, 0x00, 0x28, 0x00,
	0x81, 0x70, 0x40, 0x64, 0x78, 0x40, 0x00, 0x00, 0x4C, 0x64, 0x78, 0x4C,
	0x00, 0x81, 0x70, 0x4B, 0x64, 0x78, 0x4B, 0x00, 0x00, 0x4C, 0x64, 0x78,
	0x4C, 0x00, 0x81, 0x70, 0x4B, 0x64, 0x78, 0x4B, 0x00, 0x00, 0x4C, 0x64,
	0x78, 0x4C, 0x00, 0x88, 0x38, 0x2D, 0x64, 0x78, 0x34, 0x64, 0x78, 0x39,
	0x64, 0x83, 0x60, 0x39, 0x00, 0x00, 0x34, 0x00, 0x00, 0x2D, 0x00, 0x00,
	0x28, 0x64, 0x78, 0x34, 0x64, 0x78, 0x38, 0x64, 0x83, 0x60, 0x38, 0x00,
	0x00, 0x34, 0x00, 0x00, 0x28, 0x00, 0x00, 0x2D, 0x64, 0x78, 0x34, 0x64,
	0x78, 0x39, 0x64, 0x83, 0x60, 0x39, 0x00, 0x00, 0x34, 0x00, 0x00, 0x2D,
	0x00, 0x85, 0x50, 0x2D, 0x64, 0x78, 0x34, 0x64, 0x78, 0x39, 0x64, 0x83,
	0x60, 0x39, 0x00, 0x00, 0x34, 0x00, 0x00, 0x2D, 0x00, 0x00, 0x28, 0x64,
	0x78, 0x34, 0x64, 0x78, 0x38, 0x64, 0x83, 0x60, 0x38, 0x00, 0x00, 0x34,
	0x00, 0x00, 0x28, 0x00, 0x00, 0x21, 0x64, 0x11, 0x2D, 0x64, 0x85, 0x3F,
	0x21, 0x00, 0x05, 0x2D, 0x00, 0x00, 0xFF, 0x2F, 0x00, 0x4D, 0x54, 0x72,
	0x6B, 0x00, 0x00, 0x00, 0x14, 0x00, 0xFF, 0x21, 0x01, 0x00, 0x00, 0xFF,
	0x03, 0x00, 0x00, 0xC3, 0x00, 0x00, 0xB3, 0x07, 0x7F, 0x00, 0xFF, 0x2F,
	0x00, 0x4D, 0x54, 0x72, 0x6B, 0x00, 0x00, 0x00, 0x14, 0x00, 0xFF, 0x21,
	0x01, 0x00, 0x00, 0xFF, 0x03, 0x00, 0x00, 0xC4, 0x00, 0x00, 0xB4, 0x07,
	0x7F, 0x00, 0xFF, 0x2F, 0x00, 0x4D, 0x54, 0x72, 0x6B, 0x00, 0x00, 0x00,
	0x14, 0x00, 0xFF, 0x21, 0x01, 0x00, 0x00, 0xFF, 0x03, 0x00, 0x00, 0xC5,
	0x00, 0x00, 0xB5, 0x07, 0x7F, 0x00, 0xFF, 0x2F, 0x00, 0x4D, 0x54, 0x72,
	0x6B, 0x00, 0x00, 0x00, 0x14, 0x00, 0xFF, 0x21, 0x01, 0x00, 0x00, 0xFF,
	0x03, 0x00, 0x00, 0xC6, 0x00, 0x00, 0xB6, 0x07, 0x7F, 0x00, 0xFF, 0x2F,
	0x00, 0x4D, 0x54, 0x72, 0x6B, 0x00, 0x00, 0x00, 0x14, 0x00, 0xFF, 0x21,
	0x01, 0x00, 0x00, 0xFF, 0x03, 0x00, 0x00, 0xC7, 0x00, 0x00, 0xB7, 0x07,
	0x7F, 0x00, 0xFF, 0x2F, 0x00, 0x4D, 0x54, 0x72, 0x6B, 0x00, 0x00, 0x00,
	0x14, 0x00, 0xFF, 0x21, 0x01, 0x00, 0x00, 0xFF, 0x03, 0x00, 0x00, 0xC8,
	0x00, 0x00, 0xB8, 0x07, 0x7F, 0x00, 0xFF, 0x2F, 0x00, 0x4D, 0x54, 0x72,
	0x6B, 0x00, 0x00, 0x00, 0x14, 0x00, 0xFF, 0x21, 0x01, 0x00, 0x00, 0xFF,
	0x03, 0x00, 0x00, 0xC9, 0x00, 0x00, 0xB9, 0x07, 0x7F, 0x00, 0xFF, 0x2F,
	0x00, 0x4D, 0x54, 0x72, 0x6B, 0x00, 0x00, 0x00, 0x14, 0x00, 0xFF, 0x21,
	0x01, 0x00, 0x00, 0xFF, 0x03, 0x00, 0x00, 0xCA, 0x00, 0x00, 0xBA, 0x07,
	0x7F, 0x00, 0xFF, 0x2F, 0x00, 0x4D, 0x54, 0x72, 0x6B, 0x00, 0x00, 0x00,
	0x14, 0x00, 0xFF, 0x21, 0x01, 0x00, 0x00, 0xFF, 0x03, 0x00, 0x00, 0xCB,
	0x00, 0x00, 0xBB, 0x07, 0x7F, 0x00, 0xFF, 0x2F, 0x00, 0x4D, 0x54, 0x72,
	0x6B, 0x00, 0x00, 0x00, 0x14, 0x00, 0xFF, 0x21, 0x01, 0x00, 0x00, 0xFF,
	0x03, 0x00, 0x00, 0xCC, 0x00, 0x00, 0xBC, 0x07, 0x7F, 0x00, 0xFF, 0x2F,
	0x00, 0x4D, 0x54, 0x72, 0x6B, 0x00, 0x00, 0x00, 0x14, 0x00, 0xFF, 0x21,
	0x01, 0x00, 0x00, 0xFF, 0x03, 0x00, 0x00, 0xCD, 0x00, 0x00, 0xBD, 0x07,
	0x7F, 0x00, 0xFF, 0x2F, 0x00, 0x4D, 0x54, 0x72, 0x6B, 0x00, 0x00, 0x00,
	0x14, 0x00, 0xFF, 0x21, 0x01, 0x00, 0x00, 0xFF, 0x03, 0x00, 0x00, 0xCE,
	0x00, 0x00, 0xBE, 0x07, 0x7F, 0x00, 0xFF, 0x2F, 0x00, 0x4D, 0x54, 0x72,
	0x6B, 0x00, 0x00, 0x00, 0x14, 0x00, 0xFF, 0x21, 0x01, 0x00, 0x00, 0xFF,
	0x03, 0x00, 0x00, 0xCF, 0x00, 0x00, 0xBF, 0x07, 0x7F, 0x00, 0xFF, 0x2F,
	0x00, 0x0D
};
