/* C:\Users\Administrator\Downloads\告白气球_爱给网_aigei_com.mid (2024/8/24 14:31:49)
   起始位置(h): 00000000, 结束位置(h): 00000FD4, 长度(h): 00000FD5 */

unsigned char mid_gaobai[4053] = {
	0x4D, 0x54, 0x68, 0x64, 0x00, 0x00, 0x00, 0x06, 0x00, 0x01, 0x00, 0x03,
	0x00, 0x78, 0x4D, 0x54, 0x72, 0x6B, 0x00, 0x00, 0x00, 0x1C, 0x00, 0xFF,
	0x58, 0x04, 0x04, 0x02, 0x18, 0x08, 0x00, 0xFF, 0x51, 0x03, 0x0A, 0x2C,
	0x2A, 0x81, 0x96, 0x00, 0xFF, 0x51, 0x03, 0x0A, 0x2C, 0x2A, 0x01, 0xFF,
	0x2F, 0x00, 0x4D, 0x54, 0x72, 0x6B, 0x00, 0x00, 0x0F, 0x8C, 0x00, 0xC0,
	0x00, 0x00, 0xC1, 0x00, 0x81, 0x1F, 0xFF, 0x01, 0x05, 0x73, 0x74, 0x61,
	0x72, 0x74, 0x00, 0x90, 0x4F, 0x5A, 0x3C, 0x80, 0x4F, 0x5A, 0x00, 0x90,
	0x54, 0x5A, 0x3C, 0x53, 0x5A, 0x3C, 0x80, 0x54, 0x5A, 0x00, 0x90, 0x4F,
	0x5A, 0x3C, 0x80, 0x53, 0x5A, 0x00, 0x90, 0x48, 0x5A, 0x3C, 0x80, 0x4F,
	0x5A, 0x03, 0x91, 0x35, 0x5A, 0x39, 0x80, 0x48, 0x5A, 0x03, 0x91, 0x3C,
	0x5A, 0x39, 0x90, 0x4F, 0x5A, 0x03, 0x81, 0x35, 0x5A, 0x00, 0x91, 0x45,
	0x5A, 0x39, 0x90, 0x4A, 0x5A, 0x03, 0x81, 0x3C, 0x5A, 0x39, 0x80, 0x4F,
	0x5A, 0x03, 0x81, 0x45, 0x5A, 0x00, 0x91, 0x37, 0x5A, 0x39, 0x80, 0x4A,
	0x5A, 0x00, 0x90, 0x4C, 0x5A, 0x03, 0x91, 0x3E, 0x5A, 0x3C, 0x81, 0x37,
	0x5A, 0x00, 0x91, 0x47, 0x5A, 0x39, 0x80, 0x4C, 0x5A, 0x00, 0x90, 0x4C,
	0x5A, 0x03, 0x81, 0x3E, 0x5A, 0x39, 0x80, 0x4C, 0x5A, 0x03, 0x81, 0x47,
	0x5A, 0x00, 0x91, 0x30, 0x5A, 0x3C, 0x37, 0x5A, 0x3C, 0x81, 0x30, 0x5A,
	0x00, 0x91, 0x3E, 0x5A, 0x39, 0x90, 0x4F, 0x5A, 0x03, 0x81, 0x37, 0x5A,
	0x00, 0x91, 0x37, 0x5A, 0x39, 0x80, 0x4F, 0x5A, 0x00, 0x90, 0x54, 0x5A,
	0x03, 0x81, 0x3E, 0x5A, 0x00, 0x91, 0x40, 0x5A, 0x39, 0x90, 0x53, 0x5A,
	0x03, 0x81, 0x37, 0x5A, 0x00, 0x91, 0x37, 0x5A, 0x39, 0x80, 0x54, 0x5A,
	0x00, 0x90, 0x4F, 0x5A, 0x03, 0x81, 0x40, 0x5A, 0x00, 0x91, 0x3C, 0x5A,
	0x39, 0x80, 0x53, 0x5A, 0x00, 0x90, 0x48, 0x5A, 0x03, 0x81, 0x37, 0x5A,
	0x39, 0x80, 0x4F, 0x5A, 0x03, 0x81, 0x3C, 0x5A, 0x00, 0x91, 0x35, 0x5A,
	0x39, 0x80, 0x48, 0x5A, 0x03, 0x91, 0x3C, 0x5A, 0x39, 0x90, 0x4F, 0x5A,
	0x03, 0x81, 0x35, 0x5A, 0x00, 0x91, 0x45, 0x5A, 0x39, 0x90, 0x4A, 0x5A,
	0x03, 0x81, 0x3C, 0x5A, 0x00, 0x91, 0x43, 0x5A, 0x39, 0x80, 0x4F, 0x5A,
	0x03, 0x81, 0x45, 0x5A, 0x00, 0x91, 0x37, 0x5A, 0x39, 0x80, 0x4A, 0x5A,
	0x00, 0x90, 0x4C, 0x5A, 0x03, 0x81, 0x43, 0x5A, 0x00, 0x91, 0x3E, 0x5A,
	0x39, 0x90, 0x4D, 0x5A, 0x03, 0x81, 0x37, 0x5A, 0x00, 0x91, 0x45, 0x5A,
	0x39, 0x80, 0x4C, 0x5A, 0x00, 0x90, 0x4C, 0x5A, 0x03, 0x81, 0x3E, 0x5A,
	0x00, 0x91, 0x43, 0x5A, 0x39, 0x80, 0x4D, 0x5A, 0x03, 0x81, 0x45, 0x5A,
	0x00, 0x91, 0x30, 0x5A, 0x39, 0x80, 0x4C, 0x5A, 0x03, 0x81, 0x43, 0x5A,
	0x00, 0x91, 0x37, 0x5A, 0x3C, 0x81, 0x30, 0x5A, 0x00, 0x91, 0x3E, 0x5A,
	0x39, 0x90, 0x4F, 0x5A, 0x03, 0x81, 0x37, 0x5A, 0x00, 0x91, 0x37, 0x5A,
	0x39, 0x80, 0x4F, 0x5A, 0x00, 0x90, 0x4F, 0x5A, 0x00, 0x56, 0x5A, 0x03,
	0x81, 0x3E, 0x5A, 0x39, 0x90, 0x54, 0x5A, 0x03, 0x81, 0x37, 0x5A, 0x39,
	0x80, 0x4F, 0x5A, 0x00, 0x56, 0x5A, 0x00, 0x90, 0x4C, 0x5A, 0x00, 0x53,
	0x5A, 0x03, 0x91, 0x38, 0x5A, 0x00, 0x2C, 0x5A, 0x39, 0x80, 0x54, 0x5A,
	0x00, 0x90, 0x4C, 0x5A, 0x00, 0x54, 0x5A, 0x3C, 0x80, 0x53, 0x5A, 0x00,
	0x4C, 0x5A, 0x03, 0x81, 0x38, 0x5A, 0x00, 0x2C, 0x5A, 0x00, 0x91, 0x2D,
	0x5A, 0x39, 0x80, 0x54, 0x5A, 0x00, 0x4C, 0x5A, 0x03, 0x91, 0x37, 0x5A,
	0x39, 0x90, 0x56, 0x5A, 0x00, 0x4D, 0x5A, 0x03, 0x81, 0x2D, 0x5A, 0x00,
	0x91, 0x3C, 0x5A, 0x39, 0x90, 0x58, 0x5A, 0x00, 0x4F, 0x5A, 0x03, 0x81,
	0x37, 0x5A, 0x39, 0x80, 0x56, 0x5A, 0x00, 0x4D, 0x5A, 0x03, 0x81, 0x3C,
	0x5A, 0x00, 0x91, 0x2B, 0x5A, 0x39, 0x80, 0x58, 0x5A, 0x00, 0x4F, 0x5A,
	0x00, 0x90, 0x4C, 0x5A, 0x00, 0x54, 0x5A, 0x03, 0x91, 0x34, 0x5A, 0x3C,
	0x81, 0x2B, 0x5A, 0x00, 0x91, 0x3C, 0x5A, 0x39, 0x80, 0x54, 0x5A, 0x00,
	0x4C, 0x5A, 0x00, 0x90, 0x51, 0x5A, 0x03, 0x81, 0x34, 0x5A, 0x00, 0x91,
	0x43, 0x5A, 0x3C, 0x81, 0x3C, 0x5A, 0x00, 0x91, 0x29, 0x5A, 0x39, 0x80,
	0x51, 0x5A, 0x03, 0x81, 0x43, 0x5A, 0x00, 0x91, 0x30, 0x5A, 0x39, 0x90,
	0x53, 0x5A, 0x03, 0x81, 0x29, 0x5A, 0x00, 0x91, 0x37, 0x5A, 0x39, 0x90,
	0x54, 0x5A, 0x03, 0x81, 0x30, 0x5A, 0x39, 0x80, 0x53, 0x5A, 0x03, 0x81,
	0x37, 0x5A, 0x00, 0x91, 0x28, 0x5A, 0x39, 0x80, 0x54, 0x5A, 0x00, 0x90,
	0x4F, 0x5A, 0x03, 0x91, 0x30, 0x5A, 0x3C, 0x81, 0x28, 0x5A, 0x00, 0x91,
	0x34, 0x5A, 0x39, 0x80, 0x4F, 0x5A, 0x03, 0x81, 0x30, 0x5A, 0x00, 0x91,
	0x3C, 0x5A, 0x39, 0x90, 0x4F, 0x5A, 0x03, 0x81, 0x34, 0x5A, 0x00, 0x91,
	0x26, 0x5A, 0x39, 0x90, 0x4D, 0x5A, 0x03, 0x81, 0x3C, 0x5A, 0x00, 0x91,
	0x32, 0x5A, 0x2D, 0x35, 0x5A, 0x0C, 0x80, 0x4F, 0x5A, 0x00, 0x90, 0x4C,
	0x5A, 0x03, 0x81, 0x26, 0x5A, 0x39, 0x80, 0x4D, 0x5A, 0x00, 0x90, 0x4A,
	0x5A, 0x03, 0x81, 0x32, 0x5A, 0x00, 0x91, 0x39, 0x5A, 0x2D, 0x81, 0x35,
	0x5A, 0x0C, 0x80, 0x4C, 0x5A, 0x03, 0x91, 0x3C, 0x5A, 0x39, 0x80, 0x4A,
	0x5A, 0x00, 0x90, 0x48, 0x5A, 0x03, 0x81, 0x39, 0x5A, 0x00, 0x3C, 0x5A,
	0x00, 0x91, 0x41, 0x5A, 0x75, 0x80, 0x48, 0x5A, 0x00, 0x90, 0x41, 0x5A,
	0x00, 0x45, 0x5A, 0x00, 0x48, 0x5A, 0x03, 0x81, 0x41, 0x5A, 0x00, 0x91,
	0x2B, 0x5A, 0x75, 0x80, 0x48, 0x5A, 0x00, 0x41, 0x5A, 0x00, 0x45, 0x5A,
	0x03, 0x81, 0x2B, 0x5A, 0x00, 0x91, 0x37, 0x5A, 0x39, 0x90, 0x43, 0x5A,
	0x00, 0x3E, 0x5A, 0x00, 0x47, 0x5A, 0x03, 0x91, 0x1F, 0x5A, 0x39, 0x80,
	0x47, 0x5A, 0x00, 0x3E, 0x5A, 0x00, 0x43, 0x5A, 0x03, 0x81, 0x37, 0x5A,
	0x3C, 0x1F, 0x5A, 0x81, 0x34, 0x91, 0x2D, 0x5A, 0x1B, 0x90, 0x48, 0x5A,
	0x1E, 0x48, 0x5A, 0x03, 0x91, 0x34, 0x5A, 0x1B, 0x80, 0x48, 0x5A, 0x00,
	0x90, 0x47, 0x5A, 0x03, 0x81, 0x34, 0x5A, 0x1B, 0x80, 0x47, 0x5A, 0x00,
	0x48, 0x5A, 0x00, 0x90, 0x48, 0x5A, 0x03, 0x91, 0x37, 0x5A, 0x00, 0x3C,
	0x5A, 0x1E, 0x81, 0x37, 0x5A, 0x00, 0x3C, 0x5A, 0x1E, 0x2D, 0x5A, 0x00,
	0x3C, 0x5A, 0x00, 0x91, 0x37, 0x5A, 0x00, 0x3C, 0x5A, 0x1B, 0x90, 0x47,
	0x5A, 0x1E, 0x80, 0x48, 0x5A, 0x00, 0x47, 0x5A, 0x00, 0x90, 0x48, 0x5A,
	0x1E, 0x47, 0x5A, 0x1E, 0x80, 0x47, 0x5A, 0x00, 0x90, 0x48, 0x5A, 0x03,
	0x81, 0x3C, 0x5A, 0x00, 0x37, 0x5A, 0x00, 0x91, 0x37, 0x5A, 0x00, 0x3C,
	0x5A, 0x1B, 0x80, 0x48, 0x5A, 0x00, 0x48, 0x5A, 0x1E, 0x48, 0x5A, 0x03,
	0x81, 0x3C, 0x5A, 0x00, 0x37, 0x5A, 0x39, 0x90, 0x4A, 0x5A, 0x3C, 0x80,
	0x4A, 0x5A, 0x03, 0x91, 0x28, 0x5A, 0x1B, 0x90, 0x47, 0x5A, 0x1E, 0x47,
	0x5A, 0x03, 0x81, 0x28, 0x5A, 0x00, 0x91, 0x37, 0x5A, 0x00, 0x3B, 0x5A,
	0x00, 0x3E, 0x5A, 0x1B, 0x80, 0x47, 0x5A, 0x00, 0x90, 0x45, 0x5A, 0x03,
	0x81, 0x37, 0x5A, 0x00, 0x3B, 0x5A, 0x00, 0x3E, 0x5A, 0x1B, 0x80, 0x45,
	0x5A, 0x00, 0x47, 0x5A, 0x00, 0x90, 0x47, 0x5A, 0x21, 0x91, 0x3E, 0x5A,
	0x00, 0x37, 0x5A, 0x00, 0x3B, 0x5A, 0x39, 0x90, 0x45, 0x5A, 0x03, 0x81,
	0x3E, 0x5A, 0x00, 0x37, 0x5A, 0x00, 0x3B, 0x5A, 0x1B, 0x80, 0x47, 0x5A,
	0x00, 0x45, 0x5A, 0x00, 0x90, 0x47, 0x5A, 0x1E, 0x45, 0x5A, 0x1E, 0x80,
	0x45, 0x5A, 0x00, 0x90, 0x47, 0x5A, 0x03, 0x91, 0x3E, 0x5A, 0x00, 0x37,
	0x5A, 0x00, 0x3B, 0x5A, 0x1B, 0x80, 0x47, 0x5A, 0x00, 0x47, 0x5A, 0x21,
	0x81, 0x3E, 0x5A, 0x00, 0x37, 0x5A, 0x00, 0x3B, 0x5A, 0x39, 0x90, 0x48,
	0x5A, 0x3C, 0x80, 0x48, 0x5A, 0x03, 0x91, 0x29, 0x5A, 0x3C, 0x81, 0x29,
	0x5A, 0x00, 0x91, 0x39, 0x5A, 0x00, 0x3C, 0x5A, 0x00, 0x43, 0x5A, 0x1D,
	0x81, 0x3C, 0x5A, 0x01, 0x39, 0x5A, 0x00, 0x43, 0x5A, 0x1B, 0x90, 0x45,
	0x5A, 0x02, 0x81, 0x3C, 0x5A, 0x00, 0x45, 0x5A, 0x3A, 0x80, 0x45, 0x5A,
	0x00, 0x90, 0x48, 0x5A, 0x03, 0x91, 0x43, 0x5A, 0x00, 0x39, 0x5A, 0x00,
	0x3C, 0x5A, 0x1B, 0x80, 0x48, 0x5A, 0x1E, 0x90, 0x4C, 0x5A, 0x03, 0x81,
	0x43, 0x5A, 0x00, 0x39, 0x5A, 0x00, 0x3C, 0x5A, 0x1B, 0x80, 0x4C, 0x5A,
	0x1E, 0x90, 0x4A, 0x5A, 0x03, 0x91, 0x43, 0x5A, 0x00, 0x39, 0x5A, 0x00,
	0x3C, 0x5A, 0x1B, 0x80, 0x4A, 0x5A, 0x1E, 0x90, 0x48, 0x5A, 0x03, 0x81,
	0x39, 0x5A, 0x01, 0x3C, 0x5A, 0x01, 0x43, 0x5A, 0x19, 0x80, 0x48, 0x5A,
	0x05, 0x81, 0x43, 0x5A, 0x19, 0x90, 0x4C, 0x5A, 0x1E, 0x80, 0x4C, 0x5A,
	0x15, 0x91, 0x24, 0x5A, 0x3C, 0x81, 0x24, 0x5A, 0x00, 0x91, 0x34, 0x5A,
	0x00, 0x37, 0x5A, 0x00, 0x3E, 0x5A, 0x1E, 0x81, 0x3E, 0x5A, 0x00, 0x34,
	0x5A, 0x00, 0x37, 0x5A, 0x5A, 0x91, 0x3E, 0x5A, 0x00, 0x34, 0x5A, 0x00,
	0x37, 0x5A, 0x3C, 0x81, 0x3E, 0x5A, 0x00, 0x34, 0x5A, 0x00, 0x37, 0x5A,
	0x3C, 0x91, 0x3E, 0x5A, 0x00, 0x34, 0x5A, 0x00, 0x37, 0x5A, 0x00, 0x90,
	0x4C, 0x5A, 0x3C, 0x81, 0x3E, 0x5A, 0x00, 0x34, 0x5A, 0x00, 0x37, 0x5A,
	0x00, 0x80, 0x4C, 0x5A, 0x0F, 0x90, 0x4C, 0x5A, 0x2D, 0x4A, 0x5A, 0x1E,
	0x48, 0x5A, 0x00, 0x80, 0x4A, 0x5A, 0x1C, 0x91, 0x2D, 0x5A, 0x02, 0x80,
	0x4C, 0x5A, 0x00, 0x48, 0x5A, 0x1C, 0x90, 0x48, 0x5A, 0x1E, 0x91, 0x34,
	0x5A, 0x00, 0x90, 0x48, 0x5A, 0x1E, 0x81, 0x34, 0x5A, 0x00, 0x80, 0x48,
	0x5A, 0x00, 0x90, 0x47, 0x5A, 0x1E, 0x80, 0x47, 0x5A, 0x00, 0x91, 0x37,
	0x5A, 0x00, 0x80, 0x48, 0x5A, 0x00, 0x91, 0x3C, 0x5A, 0x00, 0x90, 0x48,
	0x5A, 0x1E, 0x81, 0x37, 0x5A, 0x00, 0x3C, 0x5A, 0x1E, 0x2D, 0x5A, 0x00,
	0x3C, 0x5A, 0x00, 0x91, 0x37, 0x5A, 0x00, 0x3C, 0x5A, 0x1E, 0x90, 0x47,
	0x5A, 0x1E, 0x80, 0x48, 0x5A, 0x00, 0x47, 0x5A, 0x00, 0x90, 0x48, 0x5A,
	0x1E, 0x47, 0x5A, 0x1E, 0x81, 0x3C, 0x5A, 0x00, 0x37, 0x5A, 0x00, 0x80,
	0x47, 0x5A, 0x00, 0x91, 0x37, 0x5A, 0x00, 0x3C, 0x5A, 0x00, 0x90, 0x48,
	0x5A, 0x1E, 0x80, 0x48, 0x5A, 0x00, 0x48, 0x5A, 0x1E, 0x81, 0x3C, 0x5A,
	0x00, 0x37, 0x5A, 0x00, 0x80, 0x48, 0x5A, 0x3C, 0x90, 0x4A, 0x5A, 0x3C,
	0x91, 0x28, 0x5A, 0x00, 0x80, 0x4A, 0x5A, 0x1E, 0x90, 0x47, 0x5A, 0x1E,
	0x81, 0x28, 0x5A, 0x00, 0x91, 0x37, 0x5A, 0x00, 0x3B, 0x5A, 0x00, 0x3E,
	0x5A, 0x00, 0x90, 0x47, 0x5A, 0x1E, 0x81, 0x37, 0x5A, 0x00, 0x3B, 0x5A,
	0x00, 0x3E, 0x5A, 0x00, 0x80, 0x47, 0x5A, 0x00, 0x90, 0x45, 0x5A, 0x1E,
	0x80, 0x45, 0x5A, 0x00, 0x47, 0x5A, 0x00, 0x90, 0x47, 0x5A, 0x1E, 0x91,
	0x3E, 0x5A, 0x00, 0x37, 0x5A, 0x00, 0x3B, 0x5A, 0x3C, 0x81, 0x3E, 0x5A,
	0x00, 0x37, 0x5A, 0x00, 0x3B, 0x5A, 0x00, 0x90, 0x45, 0x5A, 0x1E, 0x80,
	0x47, 0x5A, 0x00, 0x45, 0x5A, 0x00, 0x90, 0x47, 0x5A, 0x1E, 0x45, 0x5A,
	0x1E, 0x91, 0x3E, 0x5A, 0x00, 0x80, 0x45, 0x5A, 0x00, 0x91, 0x37, 0x5A,
	0x00, 0x3B, 0x5A, 0x00, 0x90, 0x47, 0x5A, 0x1E, 0x80, 0x47, 0x5A, 0x00,
	0x47, 0x5A, 0x1E, 0x81, 0x3E, 0x5A, 0x00, 0x37, 0x5A, 0x00, 0x3B, 0x5A,
	0x3C, 0x90, 0x48, 0x5A, 0x3C, 0x80, 0x48, 0x5A, 0x02, 0x91, 0x26, 0x5A,
	0x3C, 0x3C, 0x5A, 0x00, 0x35, 0x5A, 0x00, 0x39, 0x5A, 0x3A, 0x90, 0x45,
	0x5A, 0x02, 0x91, 0x3C, 0x5A, 0x01, 0x81, 0x26, 0x5A, 0x1C, 0x39, 0x5A,
	0x01, 0x35, 0x5A, 0x00, 0x3C, 0x5A, 0x1B, 0x3C, 0x5A, 0x00, 0x45, 0x5A,
	0x01, 0x80, 0x45, 0x5A, 0x00, 0x90, 0x48, 0x5A, 0x1E, 0x80, 0x48, 0x5A,
	0x1E, 0x90, 0x4C, 0x5A, 0x02, 0x91, 0x3C, 0x5A, 0x00, 0x35, 0x5A, 0x00,
	0x39, 0x5A, 0x00, 0x90, 0x41, 0x5A, 0x00, 0x45, 0x5A, 0x1C, 0x80, 0x4C,
	0x5A, 0x02, 0x41, 0x5A, 0x00, 0x45, 0x5A, 0x1C, 0x90, 0x4A, 0x5A, 0x02,
	0x45, 0x5A, 0x00, 0x41, 0x5A, 0x03, 0x91, 0x3C, 0x5A, 0x19, 0x80, 0x4A,
	0x5A, 0x02, 0x41, 0x5A, 0x00, 0x45, 0x5A, 0x1C, 0x90, 0x48, 0x5A, 0x02,
	0x41, 0x5A, 0x00, 0x45, 0x5A, 0x03, 0x81, 0x35, 0x5A, 0x00, 0x39, 0x5A,
	0x00, 0x3C, 0x5A, 0x00, 0x91, 0x2B, 0x5A, 0x00, 0x32, 0x5A, 0x00, 0x37,
	0x5A, 0x19, 0x80, 0x48, 0x5A, 0x01, 0x41, 0x5A, 0x01, 0x45, 0x5A, 0x03,
	0x81, 0x2B, 0x5A, 0x00, 0x32, 0x5A, 0x00, 0x37, 0x5A, 0x1B, 0x90, 0x48,
	0x5A, 0x00, 0x40, 0x5A, 0x00, 0x43, 0x5A, 0x03, 0x91, 0x37, 0x5A, 0x00,
	0x2B, 0x5A, 0x00, 0x32, 0x5A, 0x18, 0x80, 0x48, 0x5A, 0x00, 0x40, 0x5A,
	0x00, 0x43, 0x5A, 0x03, 0x81, 0x37, 0x5A, 0x00, 0x2B, 0x5A, 0x00, 0x32,
	0x5A, 0x78, 0x91, 0x24, 0x5A, 0x3C, 0x81, 0x24, 0x5A, 0x00, 0x91, 0x34,
	0x5A, 0x00, 0x37, 0x5A, 0x00, 0x3E, 0x5A, 0x1E, 0x81, 0x3E, 0x5A, 0x00,
	0x34, 0x5A, 0x00, 0x37, 0x5A, 0x5A, 0x91, 0x3E, 0x5A, 0x00, 0x34, 0x5A,
	0x00, 0x37, 0x5A, 0x3C, 0x81, 0x3E, 0x5A, 0x00, 0x34, 0x5A, 0x00, 0x37,
	0x5A, 0x3C, 0x91, 0x3E, 0x5A, 0x00, 0x34, 0x5A, 0x00, 0x37, 0x5A, 0x3C,
	0x81, 0x3E, 0x5A, 0x00, 0x34, 0x5A, 0x00, 0x37, 0x5A, 0x00, 0x90, 0x51,
	0x5A, 0x3C, 0x53, 0x5A, 0x3B, 0x80, 0x51, 0x5A, 0x01, 0x91, 0x29, 0x5A,
	0x00, 0x90, 0x54, 0x5A, 0x00, 0x4C, 0x5A, 0x1E, 0x80, 0x54, 0x5A, 0x00,
	0x4C, 0x5A, 0x1E, 0x81, 0x29, 0x5A, 0x00, 0x80, 0x53, 0x5A, 0x00, 0x91,
	0x30, 0x5A, 0x00, 0x90, 0x4C, 0x5A, 0x00, 0x54, 0x5A, 0x1E, 0x80, 0x54,
	0x5A, 0x00, 0x4C, 0x5A, 0x1E, 0x81, 0x30, 0x5A, 0x00, 0x91, 0x37, 0x5A,
	0x00, 0x90, 0x54, 0x5A, 0x00, 0x4C, 0x5A, 0x1E, 0x80, 0x54, 0x5A, 0x00,
	0x4C, 0x5A, 0x1E, 0x81, 0x37, 0x5A, 0x00, 0x91, 0x3C, 0x5A, 0x00, 0x90,
	0x54, 0x5A, 0x00, 0x4C, 0x5A, 0x1E, 0x80, 0x54, 0x5A, 0x00, 0x4C, 0x5A,
	0x1E, 0x90, 0x54, 0x5A, 0x00, 0x4C, 0x5A, 0x1E, 0x81, 0x3C, 0x5A, 0x00,
	0x80, 0x54, 0x5A, 0x00, 0x4C, 0x5A, 0x1E, 0x91, 0x43, 0x5A, 0x1E, 0x81,
	0x43, 0x5A, 0x1E, 0x90, 0x51, 0x5A, 0x3C, 0x53, 0x5A, 0x3C, 0x91, 0x29,
	0x5A, 0x00, 0x80, 0x51, 0x5A, 0x00, 0x90, 0x4F, 0x5A, 0x00, 0x54, 0x5A,
	0x1E, 0x80, 0x54, 0x5A, 0x00, 0x4F, 0x5A, 0x1E, 0x81, 0x29, 0x5A, 0x00,
	0x80, 0x53, 0x5A, 0x00, 0x91, 0x32, 0x5A, 0x00, 0x90, 0x4F, 0x5A, 0x00,
	0x54, 0x5A, 0x1E, 0x80, 0x54, 0x5A, 0x00, 0x4F, 0x5A, 0x1E, 0x81, 0x32,
	0x5A, 0x00, 0x91, 0x37, 0x5A, 0x00, 0x90, 0x54, 0x5A, 0x00, 0x4F, 0x5A,
	0x1E, 0x80, 0x54, 0x5A, 0x00, 0x4F, 0x5A, 0x1E, 0x81, 0x37, 0x5A, 0x00,
	0x91, 0x3E, 0x5A, 0x00, 0x90, 0x56, 0x5A, 0x00, 0x4F, 0x5A, 0x1E, 0x80,
	0x56, 0x5A, 0x00, 0x4F, 0x5A, 0x1E, 0x90, 0x56, 0x5A, 0x00, 0x4F, 0x5A,
	0x1E, 0x81, 0x3E, 0x5A, 0x00, 0x80, 0x56, 0x5A, 0x00, 0x4F, 0x5A, 0x1E,
	0x91, 0x43, 0x5A, 0x1E, 0x81, 0x43, 0x5A, 0x1E, 0x90, 0x4F, 0x5A, 0x3C,
	0x51, 0x5A, 0x3C, 0x91, 0x28, 0x5A, 0x00, 0x80, 0x4F, 0x5A, 0x00, 0x90,
	0x4A, 0x5A, 0x00, 0x53, 0x5A, 0x1E, 0x80, 0x53, 0x5A, 0x00, 0x4A, 0x5A,
	0x1E, 0x81, 0x28, 0x5A, 0x00, 0x80, 0x51, 0x5A, 0x00, 0x91, 0x34, 0x5A,
	0x00, 0x90, 0x4A, 0x5A, 0x00, 0x53, 0x5A, 0x1E, 0x80, 0x53, 0x5A, 0x00,
	0x4A, 0x5A, 0x1E, 0x81, 0x34, 0x5A, 0x00, 0x91, 0x37, 0x5A, 0x00, 0x90,
	0x53, 0x5A, 0x00, 0x4A, 0x5A, 0x1E, 0x80, 0x53, 0x5A, 0x00, 0x4A, 0x5A,
	0x1E, 0x81, 0x37, 0x5A, 0x00, 0x91, 0x3E, 0x5A, 0x00, 0x90, 0x53, 0x5A,
	0x00, 0x4A, 0x5A, 0x1E, 0x80, 0x53, 0x5A, 0x00, 0x4A, 0x5A, 0x1E, 0x90,
	0x53, 0x5A, 0x00, 0x4A, 0x5A, 0x1E, 0x81, 0x3E, 0x5A, 0x00, 0x80, 0x53,
	0x5A, 0x00, 0x4A, 0x5A, 0x1E, 0x91, 0x43, 0x5A, 0x1E, 0x81, 0x43, 0x5A,
	0x1E, 0x90, 0x4F, 0x5A, 0x3C, 0x51, 0x5A, 0x3C, 0x91, 0x2D, 0x5A, 0x00,
	0x80, 0x4F, 0x5A, 0x00, 0x90, 0x4A, 0x5A, 0x00, 0x53, 0x5A, 0x1E, 0x80,
	0x53, 0x5A, 0x00, 0x4A, 0x5A, 0x1E, 0x81, 0x2D, 0x5A, 0x00, 0x80, 0x51,
	0x5A, 0x00, 0x91, 0x34, 0x5A, 0x00, 0x90, 0x4A, 0x5A, 0x00, 0x53, 0x5A,
	0x1E, 0x80, 0x53, 0x5A, 0x00, 0x4A, 0x5A, 0x1E, 0x81, 0x34, 0x5A, 0x00,
	0x91, 0x39, 0x5A, 0x00, 0x90, 0x53, 0x5A, 0x00, 0x4A, 0x5A, 0x1E, 0x80,
	0x53, 0x5A, 0x00, 0x4A, 0x5A, 0x1E, 0x81, 0x39, 0x5A, 0x00, 0x91, 0x40,
	0x5A, 0x00, 0x90, 0x54, 0x5A, 0x00, 0x4C, 0x5A, 0x1E, 0x80, 0x54, 0x5A,
	0x00, 0x4C, 0x5A, 0x1E, 0x90, 0x54, 0x5A, 0x00, 0x4C, 0x5A, 0x1E, 0x81,
	0x40, 0x5A, 0x00, 0x80, 0x54, 0x5A, 0x00, 0x4C, 0x5A, 0x1E, 0x91, 0x43,
	0x5A, 0x1E, 0x81, 0x43, 0x5A, 0x1E, 0x90, 0x48, 0x5A, 0x3C, 0x4A, 0x5A,
	0x3C, 0x91, 0x26, 0x5A, 0x00, 0x80, 0x48, 0x5A, 0x00, 0x90, 0x42, 0x5A,
	0x00, 0x45, 0x5A, 0x00, 0x4C, 0x5A, 0x1E, 0x80, 0x4C, 0x5A, 0x00, 0x42,
	0x5A, 0x00, 0x45, 0x5A, 0x1E, 0x81, 0x26, 0x5A, 0x00, 0x91, 0x32, 0x5A,
	0x00, 0x90, 0x45, 0x5A, 0x00, 0x80, 0x4A, 0x5A, 0x00, 0x90, 0x4C, 0x5A,
	0x1E, 0x80, 0x4C, 0x5A, 0x00, 0x45, 0x5A, 0x1E, 0x81, 0x32, 0x5A, 0x00,
	0x91, 0x36, 0x5A, 0x00, 0x90, 0x45, 0x5A, 0x00, 0x4C, 0x5A, 0x1E, 0x80,
	0x4C, 0x5A, 0x00, 0x45, 0x5A, 0x1E, 0x81, 0x36, 0x5A, 0x00, 0x91, 0x39,
	0x5A, 0x00, 0x90, 0x48, 0x5A, 0x00, 0x40, 0x5A, 0x1E, 0x80, 0x48, 0x5A,
	0x00, 0x40, 0x5A, 0x1E, 0x81, 0x39, 0x5A, 0x00, 0x91, 0x3C, 0x5A, 0x00,
	0x90, 0x48, 0x5A, 0x00, 0x40, 0x5A, 0x1E, 0x80, 0x48, 0x5A, 0x00, 0x40,
	0x5A, 0x1E, 0x81, 0x3C, 0x5A, 0x00, 0x91, 0x39, 0x5A, 0x3C, 0x81, 0x39,
	0x5A, 0x00, 0x91, 0x36, 0x5A, 0x00, 0x90, 0x48, 0x5A, 0x00, 0x42, 0x5A,
	0x3C, 0x81, 0x36, 0x5A, 0x00, 0x90, 0x4A, 0x5A, 0x3C, 0x80, 0x48, 0x5A,
	0x00, 0x91, 0x2A, 0x5A, 0x00, 0x80, 0x42, 0x5A, 0x00, 0x90, 0x42, 0x5A,
	0x00, 0x4C, 0x5A, 0x1E, 0x80, 0x4C, 0x5A, 0x00, 0x42, 0x5A, 0x1E, 0x81,
	0x2A, 0x5A, 0x00, 0x80, 0x4A, 0x5A, 0x00, 0x91, 0x32, 0x5A, 0x00, 0x90,
	0x4C, 0x5A, 0x1E, 0x80, 0x4C, 0x5A, 0x1E, 0x81, 0x32, 0x5A, 0x00, 0x91,
	0x36, 0x5A, 0x00, 0x90, 0x4C, 0x5A, 0x1E, 0x80, 0x4C, 0x5A, 0x1E, 0x81,
	0x36, 0x5A, 0x00, 0x91, 0x39, 0x5A, 0x00, 0x90, 0x48, 0x5A, 0x1E, 0x80,
	0x48, 0x5A, 0x1E, 0x81, 0x39, 0x5A, 0x00, 0x91, 0x3C, 0x5A, 0x00, 0x90,
	0x48, 0x5A, 0x00, 0x40, 0x5A, 0x1E, 0x80, 0x48, 0x5A, 0x00, 0x40, 0x5A,
	0x1E, 0x81, 0x3C, 0x5A, 0x00, 0x91, 0x39, 0x5A, 0x3C, 0x81, 0x39, 0x5A,
	0x00, 0x91, 0x36, 0x5A, 0x00, 0x90, 0x48, 0x5A, 0x00, 0x40, 0x5A, 0x3C,
	0x81, 0x36, 0x5A, 0x00, 0x90, 0x4A, 0x5A, 0x3C, 0x80, 0x48, 0x5A, 0x00,
	0x91, 0x2B, 0x5A, 0x00, 0x80, 0x40, 0x5A, 0x00, 0x90, 0x43, 0x5A, 0x00,
	0x4C, 0x5A, 0x1E, 0x80, 0x4C, 0x5A, 0x00, 0x43, 0x5A, 0x1E, 0x81, 0x2B,
	0x5A, 0x00, 0x80, 0x4A, 0x5A, 0x00, 0x91, 0x32, 0x5A, 0x00, 0x90, 0x43,
	0x5A, 0x00, 0x4C, 0x5A, 0x1E, 0x80, 0x4C, 0x5A, 0x00, 0x43, 0x5A, 0x1E,
	0x81, 0x32, 0x5A, 0x00, 0x91, 0x37, 0x5A, 0x00, 0x90, 0x4C, 0x5A, 0x00,
	0x43, 0x5A, 0x1E, 0x80, 0x4C, 0x5A, 0x00, 0x43, 0x5A, 0x1E, 0x81, 0x37,
	0x5A, 0x00, 0x91, 0x32, 0x5A, 0x00, 0x90, 0x4C, 0x5A, 0x00, 0x43, 0x5A,
	0x1E, 0x80, 0x4C, 0x5A, 0x00, 0x43, 0x5A, 0x1E, 0x81, 0x32, 0x5A, 0x00,
	0x91, 0x39, 0x5A, 0x00, 0x90, 0x48, 0x5A, 0x00, 0x41, 0x5A, 0x3C, 0x81,
	0x39, 0x5A, 0x00, 0x80, 0x48, 0x5A, 0x00, 0x41, 0x5A, 0x00, 0x91, 0x32,
	0x5A, 0x3C, 0x81, 0x32, 0x5A, 0x00, 0x91, 0x3B, 0x5A, 0x00, 0x90, 0x41,
	0x5A, 0x00, 0x4A, 0x5A, 0x3C, 0x81, 0x3B, 0x5A, 0x00, 0x80, 0x41, 0x5A,
	0x00, 0x4A, 0x5A, 0x00, 0x91, 0x32, 0x5A, 0x00, 0x90, 0x41, 0x5A, 0x00,
	0x4A, 0x5A, 0x3C, 0x81, 0x32, 0x5A, 0x00, 0x91, 0x2B, 0x5A, 0x00, 0x37,
	0x5A, 0x1E, 0x81, 0x37, 0x5A, 0x00, 0x2B, 0x5A, 0x1E, 0x80, 0x41, 0x5A,
	0x00, 0x91, 0x37, 0x5A, 0x00, 0x80, 0x4A, 0x5A, 0x00, 0x91, 0x2B, 0x5A,
	0x00, 0x90, 0x3C, 0x5A, 0x1E, 0x81, 0x37, 0x5A, 0x00, 0x2B, 0x5A, 0x00,
	0x80, 0x3C, 0x5A, 0x1E, 0x91, 0x37, 0x5A, 0x00, 0x2B, 0x5A, 0x00, 0x90,
	0x3C, 0x5A, 0x1E, 0x81, 0x37, 0x5A, 0x00, 0x2B, 0x5A, 0x00, 0x80, 0x3C,
	0x5A, 0x1E, 0x91, 0x37, 0x5A, 0x00, 0x2B, 0x5A, 0x00, 0x90, 0x3C, 0x5A,
	0x1E, 0x81, 0x37, 0x5A, 0x00, 0x2B, 0x5A, 0x00, 0x80, 0x3C, 0x5A, 0x1E,
	0x91, 0x37, 0x5A, 0x00, 0x2B, 0x5A, 0x00, 0x90, 0x3C, 0x5A, 0x00, 0x39,
	0x5A, 0x1E, 0x80, 0x3C, 0x5A, 0x00, 0x39, 0x5A, 0x1E, 0x81, 0x37, 0x5A,
	0x00, 0x2B, 0x5A, 0x00, 0x90, 0x43, 0x5A, 0x1E, 0x80, 0x43, 0x5A, 0x1E,
	0x90, 0x4D, 0x5A, 0x1E, 0x80, 0x4D, 0x5A, 0x1E, 0x90, 0x4C, 0x5A, 0x3C,
	0x91, 0x30, 0x5A, 0x1E, 0x81, 0x30, 0x5A, 0x00, 0x80, 0x4C, 0x5A, 0x1E,
	0x91, 0x37, 0x5A, 0x1E, 0x81, 0x37, 0x5A, 0x1E, 0x91, 0x3E, 0x5A, 0x00,
	0x90, 0x4D, 0x5A, 0x1E, 0x81, 0x3E, 0x5A, 0x00, 0x80, 0x4D, 0x5A, 0x1E,
	0x91, 0x40, 0x5A, 0x00, 0x90, 0x4C, 0x5A, 0x1E, 0x81, 0x40, 0x5A, 0x1E,
	0x91, 0x34, 0x5A, 0x1E, 0x81, 0x34, 0x5A, 0x1E, 0x80, 0x4C, 0x5A, 0x00,
	0x91, 0x3B, 0x5A, 0x00, 0x90, 0x4A, 0x5A, 0x1E, 0x81, 0x3B, 0x5A, 0x00,
	0x80, 0x4A, 0x5A, 0x1E, 0x91, 0x44, 0x5A, 0x1E, 0x81, 0x44, 0x5A, 0x1E,
	0x91, 0x40, 0x5A, 0x00, 0x90, 0x48, 0x5A, 0x1E, 0x81, 0x40, 0x5A, 0x1E,
	0x80, 0x48, 0x5A, 0x00, 0x91, 0x39, 0x5A, 0x1E, 0x81, 0x39, 0x5A, 0x1E,
	0x91, 0x40, 0x5A, 0x1E, 0x81, 0x40, 0x5A, 0x1E, 0x91, 0x48, 0x5A, 0x00,
	0x90, 0x4A, 0x5A, 0x1E, 0x81, 0x48, 0x5A, 0x00, 0x80, 0x4A, 0x5A, 0x1E,
	0x90, 0x4C, 0x5A, 0x3C, 0x91, 0x37, 0x5A, 0x1E, 0x81, 0x37, 0x5A, 0x1E,
	0x80, 0x4C, 0x5A, 0x00, 0x91, 0x3E, 0x5A, 0x00, 0x90, 0x48, 0x5A, 0x1E,
	0x81, 0x3E, 0x5A, 0x00, 0x80, 0x48, 0x5A, 0x1E, 0x91, 0x47, 0x5A, 0x1E,
	0x81, 0x47, 0x5A, 0x1E, 0x91, 0x43, 0x5A, 0x1E, 0x81, 0x43, 0x5A, 0x1E,
	0x91, 0x35, 0x5A, 0x00, 0x90, 0x45, 0x5A, 0x1E, 0x81, 0x35, 0x5A, 0x00,
	0x80, 0x45, 0x5A, 0x1E, 0x91, 0x3C, 0x5A, 0x1E, 0x81, 0x3C, 0x5A, 0x1E,
	0x91, 0x43, 0x5A, 0x00, 0x90, 0x48, 0x5A, 0x1E, 0x81, 0x43, 0x5A, 0x00,
	0x80, 0x48, 0x5A, 0x1E, 0x90, 0x4F, 0x5A, 0x00, 0x47, 0x5A, 0x3C, 0x91,
	0x37, 0x5A, 0x00, 0x80, 0x4F, 0x5A, 0x00, 0x47, 0x5A, 0x1E, 0x81, 0x37,
	0x5A, 0x1E, 0x91, 0x3E, 0x5A, 0x00, 0x90, 0x48, 0x5A, 0x1E, 0x81, 0x3E,
	0x5A, 0x01, 0x80, 0x48, 0x5A, 0x1D, 0x91, 0x43, 0x5A, 0x00, 0x90, 0x4C,
	0x5A, 0x00, 0x43, 0x5A, 0x1E, 0x81, 0x43, 0x5A, 0x1E, 0x80, 0x43, 0x5A,
	0x00, 0x91, 0x48, 0x5A, 0x01, 0x80, 0x4C, 0x5A, 0x1D, 0x81, 0x48, 0x5A,
	0x1E, 0x91, 0x3C, 0x5A, 0x1E, 0x81, 0x3C, 0x5A, 0x1E, 0x91, 0x43, 0x5A,
	0x1E, 0x81, 0x43, 0x5A, 0x1E, 0x91, 0x48, 0x5A, 0x1E, 0x81, 0x48, 0x5A,
	0x1E, 0x90, 0x48, 0x5A, 0x00, 0x91, 0x4A, 0x5A, 0x1E, 0x81, 0x4A, 0x5A,
	0x1E, 0x80, 0x48, 0x5A, 0x00, 0x91, 0x4C, 0x5A, 0x1E, 0x81, 0x4C, 0x5A,
	0x1E, 0x90, 0x43, 0x5A, 0x3C, 0x80, 0x43, 0x5A, 0x00, 0x90, 0x45, 0x5A,
	0x00, 0x4D, 0x5A, 0x1E, 0x80, 0x4D, 0x5A, 0x00, 0x45, 0x5A, 0x1E, 0x90,
	0x4C, 0x5A, 0x00, 0x43, 0x5A, 0x2D, 0x80, 0x43, 0x5A, 0x0F, 0x91, 0x3C,
	0x5A, 0x00, 0x80, 0x4C, 0x5A, 0x1E, 0x81, 0x3C, 0x5A, 0x1E, 0x91, 0x43,
	0x5A, 0x1E, 0x81, 0x43, 0x5A, 0x1E, 0x91, 0x4A, 0x5A, 0x00, 0x90, 0x4D,
	0x5A, 0x00, 0x45, 0x5A, 0x1E, 0x81, 0x4A, 0x5A, 0x00, 0x80, 0x4D, 0x5A,
	0x00, 0x45, 0x5A, 0x1E, 0x90, 0x4C, 0x5A, 0x00, 0x91, 0x4C, 0x5A, 0x00,
	0x90, 0x43, 0x5A, 0x1E, 0x80, 0x4C, 0x5A, 0x00, 0x81, 0x4C, 0x5A, 0x00,
	0x80, 0x43, 0x5A, 0x1E, 0x91, 0x34, 0x5A, 0x1E, 0x81, 0x34, 0x5A, 0x1E,
	0x91, 0x3B, 0x5A, 0x00, 0x90, 0x47, 0x5A, 0x00, 0x4A, 0x5A, 0x1E, 0x81,
	0x3B, 0x5A, 0x00, 0x80, 0x47, 0x5A, 0x00, 0x4A, 0x5A, 0x1E, 0x91, 0x42,
	0x5A, 0x1E, 0x81, 0x42, 0x5A, 0x1E, 0x91, 0x40, 0x5A, 0x00, 0x90, 0x48,
	0x5A, 0x00, 0x40, 0x5A, 0x1E, 0x81, 0x40, 0x5A, 0x1E, 0x80, 0x48, 0x5A,
	0x00, 0x91, 0x39, 0x5A, 0x00, 0x80, 0x40, 0x5A, 0x1E, 0x81, 0x39, 0x5A,
	0x1E, 0x91, 0x40, 0x5A, 0x1E, 0x81, 0x40, 0x5A, 0x1E, 0x91, 0x48, 0x5A,
	0x00, 0x90, 0x4A, 0x5A, 0x00, 0x43, 0x5A, 0x1E, 0x81, 0x48, 0x5A, 0x00,
	0x80, 0x4A, 0x5A, 0x00, 0x43, 0x5A, 0x1E, 0x90, 0x4C, 0x5A, 0x00, 0x43,
	0x5A, 0x00, 0x46, 0x5A, 0x3C, 0x80, 0x4C, 0x5A, 0x00, 0x43, 0x5A, 0x00,
	0x46, 0x5A, 0x3C, 0x91, 0x37, 0x5A, 0x1E, 0x81, 0x37, 0x5A, 0x1E, 0x91,
	0x43, 0x5A, 0x00, 0x90, 0x51, 0x5A, 0x00, 0x48, 0x5A, 0x1E, 0x81, 0x43,
	0x5A, 0x00, 0x80, 0x51, 0x5A, 0x00, 0x48, 0x5A, 0x1E, 0x91, 0x3C, 0x5A,
	0x00, 0x90, 0x43, 0x5A, 0x00, 0x3A, 0x5A, 0x00, 0x3E, 0x5A, 0x1E, 0x81,
	0x3C, 0x5A, 0x00, 0x80, 0x43, 0x5A, 0x00, 0x3A, 0x5A, 0x00, 0x3E, 0x5A,
	0x1E, 0x91, 0x35, 0x5A, 0x00, 0x90, 0x4C, 0x5A, 0x1E, 0x81, 0x35, 0x5A,
	0x00, 0x80, 0x4C, 0x5A, 0x1E, 0x91, 0x3C, 0x5A, 0x1E, 0x81, 0x3C, 0x5A,
	0x1E, 0x90, 0x45, 0x5A, 0x00, 0x91, 0x45, 0x5A, 0x1E, 0x80, 0x45, 0x5A,
	0x00, 0x81, 0x45, 0x5A, 0x1E, 0x90, 0x48, 0x5A, 0x00, 0x40, 0x5A, 0x3C,
	0x91, 0x37, 0x5A, 0x00, 0x80, 0x48, 0x5A, 0x00, 0x40, 0x5A, 0x1E, 0x81,
	0x37, 0x5A, 0x1E, 0x91, 0x3E, 0x5A, 0x00, 0x90, 0x4A, 0x5A, 0x00, 0x41,
	0x5A, 0x1E, 0x81, 0x3E, 0x5A, 0x00, 0x80, 0x4A, 0x5A, 0x00, 0x41, 0x5A,
	0x1E, 0x91, 0x47, 0x5A, 0x1E, 0x81, 0x47, 0x5A, 0x1E, 0x90, 0x48, 0x5A,
	0x00, 0x40, 0x5A, 0x3C, 0x91, 0x30, 0x5A, 0x00, 0x80, 0x48, 0x5A, 0x00,
	0x40, 0x5A, 0x1E, 0x81, 0x30, 0x5A, 0x1E, 0x91, 0x37, 0x5A, 0x1E, 0x81,
	0x37, 0x5A, 0x1E, 0x91, 0x3C, 0x5A, 0x1E, 0x81, 0x3C, 0x5A, 0x1E, 0x91,
	0x3E, 0x5A, 0x1E, 0x81, 0x3E, 0x5A, 0x1E, 0x91, 0x40, 0x5A, 0x1E, 0x81,
	0x40, 0x5A, 0x1E, 0x90, 0x43, 0x5A, 0x1E, 0x80, 0x43, 0x5A, 0x1E, 0x90,
	0x4D, 0x5A, 0x1E, 0x80, 0x4D, 0x5A, 0x1E, 0x90, 0x4C, 0x5A, 0x3C, 0x91,
	0x3C, 0x5A, 0x00, 0x80, 0x4C, 0x5A, 0x1E, 0x81, 0x3C, 0x5A, 0x1E, 0x91,
	0x40, 0x5A, 0x1E, 0x81, 0x40, 0x5A, 0x1E, 0x91, 0x43, 0x5A, 0x00, 0x90,
	0x4D, 0x5A, 0x1E, 0x81, 0x43, 0x5A, 0x00, 0x80, 0x4D, 0x5A, 0x1E, 0x90,
	0x4C, 0x5A, 0x3C, 0x80, 0x4C, 0x5A, 0x3C, 0x91, 0x3B, 0x5A, 0x00, 0x90,
	0x4A, 0x5A, 0x1E, 0x81, 0x3B, 0x5A, 0x00, 0x80, 0x4A, 0x5A, 0x1E, 0x91,
	0x3E, 0x5A, 0x1E, 0x81, 0x3E, 0x5A, 0x1E, 0x91, 0x44, 0x5A, 0x00, 0x90,
	0x48, 0x5A, 0x1E, 0x81, 0x44, 0x5A, 0x1E, 0x80, 0x48, 0x5A, 0x00, 0x91,
	0x39, 0x5A, 0x1E, 0x81, 0x39, 0x5A, 0x1E, 0x91, 0x3C, 0x5A, 0x1E, 0x81,
	0x3C, 0x5A, 0x1E, 0x91, 0x43, 0x5A, 0x00, 0x90, 0x4A, 0x5A, 0x1E, 0x81,
	0x43, 0x5A, 0x00, 0x80, 0x4A, 0x5A, 0x1E, 0x90, 0x4C, 0x5A, 0x00, 0x43,
	0x5A, 0x3C, 0x80, 0x4C, 0x5A, 0x00, 0x43, 0x5A, 0x3C, 0x91, 0x37, 0x5A,
	0x1E, 0x81, 0x37, 0x5A, 0x1E, 0x90, 0x51, 0x5A, 0x00, 0x46, 0x5A, 0x3C,
	0x91, 0x3C, 0x5A, 0x00, 0x40, 0x5A, 0x81, 0x52, 0x80, 0x51, 0x5A, 0x00,
	0x46, 0x5A, 0x5A, 0x81, 0x40, 0x5A, 0x00, 0x3C, 0x5A, 0x81, 0x70, 0x91,
	0x35, 0x5A, 0x00, 0x90, 0x4C, 0x5A, 0x1E, 0x81, 0x35, 0x5A, 0x00, 0x80,
	0x4C, 0x5A, 0x1E, 0x91, 0x3C, 0x5A, 0x1E, 0x81, 0x3C, 0x5A, 0x1E, 0x91,
	0x40, 0x5A, 0x00, 0x90, 0x45, 0x5A, 0x1E, 0x81, 0x40, 0x5A, 0x00, 0x80,
	0x45, 0x5A, 0x1E, 0x90, 0x48, 0x5A, 0x3C, 0x91, 0x2B, 0x5A, 0x1E, 0x81,
	0x2B, 0x5A, 0x1E, 0x80, 0x48, 0x5A, 0x00, 0x91, 0x32, 0x5A, 0x00, 0x90,
	0x4A, 0x5A, 0x0F, 0x81, 0x32, 0x5A, 0x0F, 0x80, 0x4A, 0x5A, 0x1E, 0x91,
	0x37, 0x5A, 0x1E, 0x81, 0x37, 0x5A, 0x1E, 0x90, 0x48, 0x5A, 0x3C, 0x91,
	0x30, 0x5A, 0x1E, 0x81, 0x30, 0x5A, 0x1E, 0x91, 0x37, 0x5A, 0x1E, 0x81,
	0x37, 0x5A, 0x1E, 0x91, 0x3C, 0x5A, 0x1E, 0x81, 0x3C, 0x5A, 0x1E, 0x91,
	0x40, 0x5A, 0x1E, 0x81, 0x40, 0x5A, 0x1E, 0x91, 0x43, 0x5A, 0x81, 0x70,
	0x81, 0x43, 0x5A, 0x00, 0x80, 0x48, 0x5A, 0x00, 0xFF, 0x01, 0x03, 0x65,
	0x6E, 0x64, 0x01, 0xFF, 0x2F, 0x00, 0x4D, 0x54, 0x72, 0x6B, 0x00, 0x00,
	0x00, 0x07, 0x00, 0xC0, 0x00, 0x01, 0xFF, 0x2F, 0x00
};
