/* C:\Users\Administrator\Downloads\甜甜的-周杰伦_爱给网_aigei_com.mid (2024/8/17 19:43:36)
   起始位置(h): 00000000, 结束位置(h): 00001B77, 长度(h): 00001B78 */

const unsigned char tiantiande_h[7032] = {
	0x4D, 0x54, 0x68, 0x64, 0x00, 0x00, 0x00, 0x06, 0x00, 0x01, 0x00, 0x02,
	0x01, 0xE0, 0x4D, 0x54, 0x72, 0x6B, 0x00, 0x00, 0x0D, 0x21, 0x00, 0xFF,
	0x03, 0x07, 0xE9, 0x92, 0xA2, 0xE7, 0x90, 0xB4, 0x00, 0x00, 0xFF, 0x58,
	0x04, 0x02, 0x02, 0x18, 0x08, 0x00, 0xFF, 0x59, 0x02, 0x00, 0x00, 0x00,
	0xFF, 0x51, 0x03, 0x07, 0xE4, 0x79, 0x00, 0xB0, 0x79, 0x00, 0x00, 0xC0,
	0x00, 0x00, 0xB0, 0x07, 0x64, 0x00, 0x0A, 0x40, 0x00, 0x5B, 0x00, 0x00,
	0x5D, 0x00, 0x00, 0xFF, 0x21, 0x01, 0x00, 0x81, 0x70, 0x90, 0x4F, 0x3A,
	0x81, 0x63, 0x4F, 0x00, 0x0D, 0x54, 0x4C, 0x81, 0x63, 0x54, 0x00, 0x0D,
	0x53, 0x40, 0x81, 0x63, 0x53, 0x00, 0x0D, 0xFF, 0x58, 0x04, 0x04, 0x02,
	0x18, 0x08, 0x00, 0x90, 0x51, 0x40, 0x83, 0x47, 0x51, 0x00, 0x19, 0x51,
	0x43, 0x81, 0x63, 0x51, 0x00, 0x0D, 0x54, 0x47, 0x81, 0x63, 0x54, 0x00,
	0x0D, 0x53, 0x40, 0x83, 0x47, 0x53, 0x00, 0x19, 0x51, 0x41, 0x81, 0x63,
	0x51, 0x00, 0x0D, 0x53, 0x44, 0x81, 0x63, 0x53, 0x00, 0x0D, 0x4F, 0x3C,
	0x83, 0x47, 0x4F, 0x00, 0x19, 0x54, 0x4B, 0x81, 0x63, 0x54, 0x00, 0x0D,
	0x54, 0x42, 0x81, 0x63, 0x54, 0x00, 0x81, 0x7D, 0x4C, 0x3A, 0x81, 0x63,
	0x4C, 0x00, 0x0D, 0x4C, 0x43, 0x81, 0x63, 0x4C, 0x00, 0x0D, 0x4F, 0x46,
	0x81, 0x63, 0x4F, 0x00, 0x0D, 0x4D, 0x41, 0x83, 0x47, 0x4D, 0x00, 0x19,
	0x4D, 0x44, 0x81, 0x63, 0x4D, 0x00, 0x0D, 0x51, 0x4A, 0x81, 0x63, 0x51,
	0x00, 0x0D, 0x4F, 0x3E, 0x83, 0x47, 0x4F, 0x00, 0x19, 0x4F, 0x44, 0x81,
	0x63, 0x4F, 0x00, 0x0D, 0x4D, 0x3F, 0x81, 0x63, 0x4D, 0x00, 0x0D, 0x4F,
	0x48, 0x88, 0x73, 0x4F, 0x00, 0x3D, 0x4F, 0x41, 0x81, 0x63, 0x4F, 0x00,
	0x0D, 0x54, 0x4A, 0x81, 0x63, 0x54, 0x00, 0x0D, 0x53, 0x41, 0x81, 0x63,
	0x53, 0x00, 0x0B, 0xFF, 0x59, 0x02, 0x00, 0x00, 0x02, 0x90, 0x51, 0x41,
	0x83, 0x47, 0x51, 0x00, 0x19, 0x51, 0x44, 0x81, 0x63, 0x51, 0x00, 0x0D,
	0x54, 0x48, 0x81, 0x63, 0x54, 0x00, 0x0D, 0x53, 0x41, 0x83, 0x47, 0x53,
	0x00, 0x19, 0x51, 0x42, 0x81, 0x63, 0x51, 0x00, 0x0D, 0x53, 0x46, 0x81,
	0x63, 0x53, 0x00, 0x0D, 0x4F, 0x3E, 0x81, 0x63, 0x4F, 0x00, 0x0D, 0x54,
	0x48, 0x81, 0x63, 0x54, 0x00, 0x0D, 0x54, 0x44, 0x81, 0x63, 0x54, 0x00,
	0x0D, 0x54, 0x40, 0x81, 0x63, 0x54, 0x00, 0x81, 0x7D, 0x4C, 0x3B, 0x81,
	0x63, 0x4C, 0x00, 0x0D, 0x4C, 0x43, 0x81, 0x63, 0x4C, 0x00, 0x0D, 0x4F,
	0x47, 0x81, 0x63, 0x4F, 0x00, 0x0D, 0x4D, 0x42, 0x83, 0x47, 0x4D, 0x00,
	0x19, 0x4D, 0x46, 0x81, 0x63, 0x4D, 0x00, 0x0D, 0x4C, 0x3E, 0x81, 0x63,
	0x4C, 0x00, 0x0D, 0x4A, 0x3C, 0x83, 0x47, 0x4A, 0x00, 0x19, 0x4A, 0x45,
	0x81, 0x63, 0x4A, 0x00, 0x0D, 0x48, 0x3C, 0x87, 0x0F, 0x48, 0x00, 0x31,
	0x43, 0x4A, 0x00, 0x48, 0x4A, 0x00, 0x4C, 0x4A, 0x83, 0x47, 0x43, 0x00,
	0x00, 0x48, 0x00, 0x00, 0x4C, 0x00, 0x19, 0x43, 0x34, 0x81, 0x63, 0x43,
	0x00, 0x0D, 0x48, 0x4E, 0x00, 0x4D, 0x4E, 0x83, 0x47, 0x48, 0x00, 0x00,
	0x4D, 0x00, 0x19, 0x43, 0x43, 0x00, 0x48, 0x43, 0x00, 0x4C, 0x43, 0x85,
	0x2B, 0x43, 0x00, 0x00, 0x48, 0x00, 0x00, 0x4C, 0x00, 0x25, 0x43, 0x42,
	0x00, 0x48, 0x42, 0x00, 0x4C, 0x42, 0x83, 0x47, 0x43, 0x00, 0x00, 0x48,
	0x00, 0x00, 0x4C, 0x00, 0x19, 0x43, 0x34, 0x81, 0x63, 0x43, 0x00, 0x0D,
	0x48, 0x4F, 0x00, 0x4D, 0x4F, 0x83, 0x31, 0xFF, 0x59, 0x02, 0x00, 0x00,
	0x16, 0x90, 0x48, 0x00, 0x00, 0x4D, 0x00, 0x19, 0x43, 0x43, 0x00, 0x48,
	0x43, 0x00, 0x4C, 0x43, 0x85, 0x2B, 0x43, 0x00, 0x00, 0x48, 0x00, 0x00,
	0x4C, 0x00, 0x25, 0x43, 0x42, 0x00, 0x48, 0x42, 0x00, 0x4C, 0x42, 0x83,
	0x47, 0x43, 0x00, 0x00, 0x48, 0x00, 0x00, 0x4C, 0x00, 0x19, 0x43, 0x32,
	0x81, 0x63, 0x43, 0x00, 0x0D, 0x48, 0x4D, 0x00, 0x4D, 0x4D, 0x83, 0x47,
	0x48, 0x00, 0x00, 0x4D, 0x00, 0x19, 0x43, 0x43, 0x00, 0x48, 0x43, 0x00,
	0x4C, 0x43, 0x8A, 0x57, 0x43, 0x00, 0x00, 0x48, 0x00, 0x00, 0x4C, 0x00,
	0x49, 0x4C, 0x45, 0x81, 0x63, 0x4C, 0x00, 0x0D, 0x4D, 0x46, 0x81, 0x63,
	0x4D, 0x00, 0x0D, 0x4F, 0x48, 0x83, 0x47, 0x4F, 0x00, 0x19, 0x4F, 0x40,
	0x83, 0x47, 0x4F, 0x00, 0x19, 0x4D, 0x3F, 0x81, 0x63, 0x4D, 0x00, 0x0D,
	0x4C, 0x3C, 0x81, 0x63, 0x4C, 0x00, 0x0D, 0x4A, 0x3E, 0x83, 0x47, 0x4A,
	0x00, 0x19, 0x48, 0x3E, 0x83, 0x47, 0x48, 0x00, 0x19, 0x48, 0x3F, 0x83,
	0x47, 0x48, 0x00, 0x19, 0x4A, 0x4A, 0x81, 0x63, 0x4A, 0x00, 0x0D, 0x48,
	0x3F, 0x81, 0x63, 0x48, 0x00, 0x0D, 0x47, 0x3D, 0x81, 0x63, 0x47, 0x00,
	0x0D, 0x48, 0x43, 0x81, 0x63, 0x48, 0x00, 0x0D, 0x4C, 0x4B, 0x83, 0x47,
	0x4C, 0x00, 0x19, 0x4C, 0x44, 0x83, 0x47, 0x4C, 0x00, 0x19, 0x4A, 0x41,
	0x81, 0x63, 0x4A, 0x00, 0x0D, 0x4C, 0x46, 0x81, 0x63, 0x4C, 0x00, 0x0D,
	0x4D, 0x44, 0x83, 0x47, 0x4D, 0x00, 0x15, 0xFF, 0x59, 0x02, 0x00, 0x00,
	0x04, 0x90, 0x4C, 0x42, 0x87, 0x0F, 0x4C, 0x00, 0x31, 0x4C, 0x46, 0x81,
	0x63, 0x4C, 0x00, 0x0D, 0x4C, 0x44, 0x81, 0x63, 0x4C, 0x00, 0x0D, 0x4C,
	0x42, 0x81, 0x63, 0x4C, 0x00, 0x0D, 0x4D, 0x44, 0x81, 0x63, 0x4D, 0x00,
	0x0D, 0x4F, 0x49, 0x83, 0x47, 0x4F, 0x00, 0x19, 0x4F, 0x40, 0x83, 0x47,
	0x4F, 0x00, 0x19, 0x4D, 0x41, 0x81, 0x63, 0x4D, 0x00, 0x0D, 0x4C, 0x3C,
	0x81, 0x63, 0x4C, 0x00, 0x0D, 0x4A, 0x3D, 0x83, 0x47, 0x4A, 0x00, 0x19,
	0x45, 0x40, 0x00, 0x48, 0x40, 0x83, 0x47, 0x45, 0x00, 0x00, 0x48, 0x00,
	0x19, 0x48, 0x3F, 0x83, 0x47, 0x48, 0x00, 0x19, 0x44, 0x4B, 0x00, 0x4A,
	0x4B, 0x81, 0x63, 0x44, 0x00, 0x00, 0x4A, 0x00, 0x0D, 0x4C, 0x45, 0x81,
	0x63, 0x4C, 0x00, 0x0D, 0x4A, 0x3E, 0x83, 0x47, 0x4A, 0x00, 0x19, 0x48,
	0x3F, 0x83, 0x47, 0x48, 0x00, 0x19, 0x48, 0x40, 0x83, 0x47, 0x48, 0x00,
	0x19, 0x47, 0x4A, 0x00, 0x4A, 0x4A, 0x81, 0x63, 0x47, 0x00, 0x00, 0x4A,
	0x00, 0x0D, 0x4C, 0x45, 0x81, 0x63, 0x4C, 0x00, 0x0D, 0x4A, 0x3D, 0x83,
	0x47, 0x4A, 0x00, 0x19, 0x48, 0x41, 0x87, 0x0F, 0x48, 0x00, 0x84, 0x11,
	0x4C, 0x3D, 0x81, 0x63, 0x4C, 0x00, 0x0D, 0x4D, 0x44, 0x81, 0x63, 0x4D,
	0x00, 0x0B, 0xFF, 0x59, 0x02, 0x00, 0x00, 0x02, 0x90, 0x4F, 0x4B, 0x83,
	0x47, 0x4F, 0x00, 0x19, 0x4F, 0x44, 0x81, 0x63, 0x4F, 0x00, 0x0D, 0x4F,
	0x40, 0x81, 0x63, 0x4F, 0x00, 0x0D, 0x4D, 0x3F, 0x81, 0x63, 0x4D, 0x00,
	0x0D, 0x4C, 0x3D, 0x81, 0x63, 0x4C, 0x00, 0x0D, 0x4A, 0x3C, 0x83, 0x47,
	0x4A, 0x00, 0x19, 0x48, 0x3F, 0x83, 0x47, 0x48, 0x00, 0x19, 0x48, 0x40,
	0x83, 0x47, 0x48, 0x00, 0x19, 0x4A, 0x4A, 0x81, 0x63, 0x4A, 0x00, 0x0D,
	0x48, 0x3D, 0x81, 0x63, 0x48, 0x00, 0x0D, 0x47, 0x3E, 0x81, 0x63, 0x47,
	0x00, 0x0D, 0x48, 0x42, 0x81, 0x63, 0x48, 0x00, 0x0D, 0x4C, 0x4D, 0x83,
	0x47, 0x4C, 0x00, 0x19, 0x4C, 0x44, 0x83, 0x47, 0x4C, 0x00, 0x19, 0x4A,
	0x3F, 0x81, 0x63, 0x4A, 0x00, 0x0D, 0x4C, 0x46, 0x81, 0x63, 0x4C, 0x00,
	0x0D, 0x4D, 0x44, 0x83, 0x47, 0x4D, 0x00, 0x19, 0x4C, 0x40, 0x87, 0x0F,
	0x4C, 0x00, 0x84, 0x11, 0x4C, 0x3D, 0x81, 0x63, 0x4C, 0x00, 0x0D, 0x4D,
	0x43, 0x81, 0x63, 0x4D, 0x00, 0x0D, 0x48, 0x48, 0x00, 0x4F, 0x48, 0x83,
	0x47, 0x48, 0x00, 0x00, 0x4F, 0x00, 0x19, 0x4F, 0x42, 0x83, 0x47, 0x4F,
	0x00, 0x19, 0x4A, 0x45, 0x00, 0x4F, 0x45, 0x81, 0x63, 0x4A, 0x00, 0x00,
	0x4F, 0x00, 0x0D, 0x48, 0x4C, 0x81, 0x63, 0x48, 0x00, 0x0D, 0x48, 0x45,
	0x81, 0x63, 0x48, 0x00, 0x0D, 0x4A, 0x47, 0x81, 0x63, 0x4A, 0x00, 0x0B,
	0xFF, 0x59, 0x02, 0x00, 0x00, 0x02, 0x90, 0x45, 0x4B, 0x00, 0x4C, 0x4B,
	0x83, 0x47, 0x45, 0x00, 0x00, 0x4C, 0x00, 0x19, 0x4C, 0x42, 0x83, 0x47,
	0x4C, 0x00, 0x19, 0x44, 0x41, 0x00, 0x4A, 0x41, 0x81, 0x63, 0x44, 0x00,
	0x00, 0x4A, 0x00, 0x0D, 0x48, 0x3E, 0x81, 0x63, 0x48, 0x00, 0x0D, 0x48,
	0x42, 0x81, 0x63, 0x48, 0x00, 0x0D, 0x4A, 0x46, 0x81, 0x63, 0x4A, 0x00,
	0x0D, 0x48, 0x4A, 0x00, 0x4C, 0x4A, 0x83, 0x47, 0x48, 0x00, 0x00, 0x4C,
	0x00, 0x19, 0x4C, 0x43, 0x83, 0x47, 0x4C, 0x00, 0x19, 0x43, 0x3D, 0x00,
	0x4A, 0x3D, 0x81, 0x63, 0x43, 0x00, 0x00, 0x4A, 0x00, 0x0D, 0x48, 0x3F,
	0x83, 0x47, 0x48, 0x00, 0x19, 0x40, 0x43, 0x00, 0x48, 0x43, 0x88, 0x73,
	0x40, 0x00, 0x00, 0x48, 0x00, 0x84, 0x1D, 0x4F, 0x3D, 0x81, 0x63, 0x4F,
	0x00, 0x0D, 0x4F, 0x42, 0x81, 0x63, 0x4F, 0x00, 0x0D, 0x48, 0x44, 0x00,
	0x4F, 0x44, 0x81, 0x63, 0x48, 0x00, 0x00, 0x4F, 0x00, 0x0D, 0x4F, 0x44,
	0x81, 0x63, 0x4F, 0x00, 0x0D, 0x4F, 0x41, 0x81, 0x63, 0x4F, 0x00, 0x0D,
	0x4F, 0x43, 0x81, 0x63, 0x4F, 0x00, 0x0D, 0x4A, 0x44, 0x00, 0x4F, 0x44,
	0x81, 0x63, 0x4A, 0x00, 0x00, 0x4F, 0x00, 0x0D, 0x51, 0x47, 0x81, 0x63,
	0x51, 0x00, 0x0D, 0x4F, 0x3F, 0x81, 0x63, 0x4F, 0x00, 0x0D, 0x4D, 0x3D,
	0x81, 0x63, 0x4D, 0x00, 0x0D, 0x48, 0x49, 0x00, 0x4F, 0x49, 0x83, 0x47,
	0x48, 0x00, 0x00, 0x4F, 0x00, 0x19, 0x4F, 0x44, 0x81, 0x63, 0x4F, 0x00,
	0x0D, 0x4F, 0x41, 0x81, 0x63, 0x4F, 0x00, 0x83, 0x6D, 0x4F, 0x3F, 0x81,
	0x63, 0x4F, 0x00, 0x0D, 0x4F, 0x41, 0x81, 0x63, 0x4F, 0x00, 0x0B, 0xFF,
	0x59, 0x02, 0x00, 0x00, 0x02, 0x90, 0x48, 0x3E, 0x00, 0x4D, 0x3E, 0x81,
	0x63, 0x48, 0x00, 0x00, 0x4D, 0x00, 0x0D, 0x4D, 0x41, 0x81, 0x63, 0x4D,
	0x00, 0x0D, 0x4D, 0x44, 0x81, 0x63, 0x4D, 0x00, 0x0D, 0x4C, 0x3D, 0x81,
	0x63, 0x4C, 0x00, 0x0D, 0x4C, 0x46, 0x81, 0x63, 0x4C, 0x00, 0x0D, 0x4A,
	0x3C, 0x81, 0x63, 0x4A, 0x00, 0x0D, 0x4C, 0x47, 0x81, 0x63, 0x4C, 0x00,
	0x0D, 0x4D, 0x43, 0x81, 0x63, 0x4D, 0x00, 0x0D, 0x48, 0x41, 0x00, 0x4C,
	0x41, 0x83, 0x47, 0x48, 0x00, 0x00, 0x4C, 0x00, 0x19, 0x48, 0x45, 0x00,
	0x4C, 0x45, 0x81, 0x63, 0x48, 0x00, 0x00, 0x4C, 0x00, 0x0D, 0x48, 0x42,
	0x00, 0x4C, 0x42, 0x81, 0x63, 0x48, 0x00, 0x00, 0x4C, 0x00, 0x83, 0x6D,
	0x4F, 0x3E, 0x81, 0x63, 0x4F, 0x00, 0x0D, 0x4F, 0x3F, 0x81, 0x63, 0x4F,
	0x00, 0x0D, 0x48, 0x48, 0x00, 0x51, 0x48, 0x83, 0x47, 0x48, 0x00, 0x00,
	0x51, 0x00, 0x19, 0x51, 0x43, 0x83, 0x47, 0x51, 0x00, 0x19, 0x47, 0x45,
	0x00, 0x51, 0x45, 0x81, 0x63, 0x47, 0x00, 0x00, 0x51, 0x00, 0x0D, 0x53,
	0x46, 0x81, 0x63, 0x53, 0x00, 0x0D, 0x53, 0x43, 0x83, 0x47, 0x53, 0x00,
	0x19, 0x4C, 0x48, 0x00, 0x54, 0x48, 0x83, 0x47, 0x4C, 0x00, 0x00, 0x54,
	0x00, 0x19, 0x4F, 0x3C, 0x81, 0x63, 0x4F, 0x00, 0x0D, 0x4C, 0x3B, 0x83,
	0x47, 0x4C, 0x00, 0x19, 0x4F, 0x49, 0x85, 0x2B, 0x4F, 0x00, 0x1F, 0xFF,
	0x59, 0x02, 0x00, 0x00, 0x06, 0x90, 0x48, 0x41, 0x00, 0x4D, 0x41, 0x81,
	0x63, 0x48, 0x00, 0x00, 0x4D, 0x00, 0x0D, 0x4D, 0x41, 0x81, 0x63, 0x4D,
	0x00, 0x0D, 0x4D, 0x41, 0x81, 0x63, 0x4D, 0x00, 0x0D, 0x4C, 0x3F, 0x81,
	0x63, 0x4C, 0x00, 0x0D, 0x48, 0x3B, 0x81, 0x63, 0x48, 0x00, 0x0D, 0x4C,
	0x4A, 0x83, 0x47, 0x4C, 0x00, 0x19, 0x4A, 0x3D, 0x8A, 0x57, 0x4A, 0x00,
	0x49, 0x4A, 0x4D, 0x00, 0x51, 0x4D, 0x83, 0x47, 0x4A, 0x00, 0x00, 0x51,
	0x00, 0x19, 0x4A, 0x41, 0x00, 0x4F, 0x41, 0x81, 0x63, 0x4A, 0x00, 0x00,
	0x4F, 0x00, 0x0D, 0x43, 0x38, 0x00, 0x47, 0x38, 0x83, 0x47, 0x43, 0x00,
	0x00, 0x47, 0x00, 0x85, 0x69, 0x4F, 0x39, 0x81, 0x63, 0x4F, 0x00, 0x0D,
	0x54, 0x4D, 0x81, 0x63, 0x54, 0x00, 0x0D, 0x53, 0x3D, 0x81, 0x63, 0x53,
	0x00, 0x0D, 0x48, 0x40, 0x00, 0x51, 0x40, 0x83, 0x47, 0x48, 0x00, 0x00,
	0x51, 0x00, 0x19, 0x51, 0x46, 0x81, 0x63, 0x51, 0x00, 0x0D, 0x54, 0x48,
	0x81, 0x63, 0x54, 0x00, 0x0D, 0x4A, 0x40, 0x00, 0x53, 0x40, 0x83, 0x47,
	0x4A, 0x00, 0x00, 0x53, 0x00, 0x19, 0x51, 0x3F, 0x81, 0x63, 0x51, 0x00,
	0x0D, 0x53, 0x46, 0x81, 0x63, 0x53, 0x00, 0x0D, 0x4C, 0x3D, 0x00, 0x4F,
	0x3D, 0x83, 0x47, 0x4C, 0x00, 0x00, 0x4F, 0x00, 0x19, 0x54, 0x4D, 0x81,
	0x63, 0x54, 0x00, 0x0D, 0x54, 0x41, 0x81, 0x63, 0x54, 0x00, 0x81, 0x7D,
	0x4C, 0x3D, 0x81, 0x63, 0x4C, 0x00, 0x0D, 0x4C, 0x43, 0x81, 0x63, 0x4C,
	0x00, 0x0D, 0x4F, 0x45, 0x81, 0x63, 0x4F, 0x00, 0x0B, 0xFF, 0x59, 0x02,
	0x00, 0x00, 0x02, 0x90, 0x48, 0x40, 0x00, 0x4D, 0x40, 0x83, 0x47, 0x48,
	0x00, 0x00, 0x4D, 0x00, 0x19, 0x4D, 0x46, 0x81, 0x63, 0x4D, 0x00, 0x0D,
	0x51, 0x49, 0x81, 0x63, 0x51, 0x00, 0x0D, 0x4A, 0x3F, 0x00, 0x4F, 0x3F,
	0x83, 0x47, 0x4A, 0x00, 0x00, 0x4F, 0x00, 0x19, 0x4F, 0x46, 0x81, 0x63,
	0x4F, 0x00, 0x0D, 0x4D, 0x3B, 0x81, 0x63, 0x4D, 0x00, 0x0D, 0x48, 0x46,
	0x00, 0x4F, 0x46, 0x88, 0x73, 0x48, 0x00, 0x00, 0x4F, 0x00, 0x3D, 0x4F,
	0x41, 0x81, 0x63, 0x4F, 0x00, 0x0D, 0x54, 0x4B, 0x81, 0x63, 0x54, 0x00,
	0x0D, 0x53, 0x41, 0x81, 0x63, 0x53, 0x00, 0x0D, 0x48, 0x40, 0x00, 0x51,
	0x40, 0x83, 0x47, 0x48, 0x00, 0x00, 0x51, 0x00, 0x19, 0x51, 0x45, 0x81,
	0x63, 0x51, 0x00, 0x0D, 0x54, 0x48, 0x81, 0x63, 0x54, 0x00, 0x0D, 0x4A,
	0x41, 0x00, 0x53, 0x41, 0x83, 0x47, 0x4A, 0x00, 0x00, 0x53, 0x00, 0x19,
	0x51, 0x40, 0x81, 0x63, 0x51, 0x00, 0x0D, 0x53, 0x45, 0x81, 0x63, 0x53,
	0x00, 0x0D, 0x4C, 0x3D, 0x00, 0x4F, 0x3D, 0x81, 0x63, 0x4C, 0x00, 0x00,
	0x4F, 0x00, 0x0D, 0x54, 0x4B, 0x81, 0x63, 0x54, 0x00, 0x0D, 0x54, 0x41,
	0x81, 0x63, 0x54, 0x00, 0x0D, 0x54, 0x40, 0x81, 0x63, 0x54, 0x00, 0x81,
	0x7D, 0x4C, 0x3A, 0x81, 0x63, 0x4C, 0x00, 0x0D, 0x4C, 0x42, 0x81, 0x63,
	0x4C, 0x00, 0x0D, 0x4F, 0x47, 0x81, 0x63, 0x4F, 0x00, 0x0D, 0x48, 0x41,
	0x00, 0x4D, 0x41, 0x83, 0x47, 0x48, 0x00, 0x00, 0x4D, 0x00, 0x19, 0x4D,
	0x45, 0x81, 0x63, 0x4D, 0x00, 0x0D, 0x4C, 0x3D, 0x81, 0x63, 0x4C, 0x00,
	0x0D, 0x4A, 0x3E, 0x83, 0x47, 0x4A, 0x00, 0x19, 0x4A, 0x45, 0x81, 0x63,
	0x4A, 0x00, 0x0D, 0xFF, 0x59, 0x02, 0x00, 0x00, 0x00, 0x90, 0x48, 0x3C,
	0x88, 0x73, 0x48, 0x00, 0x3D, 0x48, 0x43, 0x81, 0x63, 0x48, 0x00, 0x0D,
	0x4F, 0x4E, 0x81, 0x63, 0x4F, 0x00, 0x0D, 0x54, 0x4B, 0x81, 0x63, 0x54,
	0x00, 0x0D, 0x53, 0x40, 0x81, 0x63, 0x53, 0x00, 0x0D, 0x48, 0x41, 0x00,
	0x51, 0x41, 0x83, 0x47, 0x48, 0x00, 0x00, 0x51, 0x00, 0x19, 0x51, 0x44,
	0x81, 0x63, 0x51, 0x00, 0x0D, 0x54, 0x48, 0x81, 0x63, 0x54, 0x00, 0x0D,
	0x4A, 0x3E, 0x00, 0x53, 0x3E, 0x83, 0x47, 0x4A, 0x00, 0x00, 0x53, 0x00,
	0x19, 0x51, 0x41, 0x81, 0x63, 0x51, 0x00, 0x0D, 0x53, 0x47, 0x81, 0x63,
	0x53, 0x00, 0x0D, 0x4C, 0x40, 0x00, 0x4F, 0x40, 0x83, 0x47, 0x4C, 0x00,
	0x00, 0x4F, 0x00, 0x19, 0x54, 0x4A, 0x81, 0x63, 0x54, 0x00, 0x0D, 0x54,
	0x43, 0x81, 0x63, 0x54, 0x00, 0x81, 0x7D, 0x4C, 0x3D, 0x81, 0x63, 0x4C,
	0x00, 0x0D, 0x4C, 0x42, 0x81, 0x63, 0x4C, 0x00, 0x0D, 0x4F, 0x46, 0x81,
	0x63, 0x4F, 0x00, 0x0D, 0x48, 0x3F, 0x00, 0x4D, 0x3F, 0x83, 0x47, 0x48,
	0x00, 0x00, 0x4D, 0x00, 0x19, 0x4D, 0x46, 0x81, 0x63, 0x4D, 0x00, 0x0D,
	0x51, 0x47, 0x81, 0x63, 0x51, 0x00, 0x0D, 0x4A, 0x3F, 0x00, 0x4F, 0x3F,
	0x83, 0x47, 0x4A, 0x00, 0x00, 0x4F, 0x00, 0x19, 0x4F, 0x43, 0x81, 0x63,
	0x4F, 0x00, 0x0D, 0x4D, 0x3E, 0x81, 0x63, 0x4D, 0x00, 0x0D, 0x48, 0x48,
	0x00, 0x4F, 0x48, 0x88, 0x73, 0x48, 0x00, 0x00, 0x4F, 0x00, 0x3D, 0x4F,
	0x43, 0x81, 0x63, 0x4F, 0x00, 0x0D, 0x54, 0x4B, 0x81, 0x63, 0x54, 0x00,
	0x0D, 0x53, 0x40, 0x81, 0x63, 0x53, 0x00, 0x0B, 0xFF, 0x59, 0x02, 0x00,
	0x00, 0x02, 0x90, 0x48, 0x3E, 0x00, 0x51, 0x3E, 0x83, 0x47, 0x48, 0x00,
	0x00, 0x51, 0x00, 0x19, 0x51, 0x43, 0x81, 0x63, 0x51, 0x00, 0x0D, 0x54,
	0x48, 0x81, 0x63, 0x54, 0x00, 0x0D, 0x4A, 0x3E, 0x00, 0x53, 0x3E, 0x83,
	0x47, 0x4A, 0x00, 0x00, 0x53, 0x00, 0x19, 0x51, 0x40, 0x81, 0x63, 0x51,
	0x00, 0x0D, 0x53, 0x46, 0x81, 0x63, 0x53, 0x00, 0x0D, 0x4F, 0x3E, 0x81,
	0x63, 0x4F, 0x00, 0x0D, 0x4C, 0x3C, 0x81, 0x63, 0x4C, 0x00, 0x0D, 0x54,
	0x50, 0x81, 0x63, 0x54, 0x00, 0x0D, 0x54, 0x40, 0x81, 0x63, 0x54, 0x00,
	0x81, 0x7D, 0x4C, 0x3C, 0x81, 0x63, 0x4C, 0x00, 0x0D, 0x4C, 0x43, 0x81,
	0x63, 0x4C, 0x00, 0x0D, 0x4F, 0x45, 0x81, 0x63, 0x4F, 0x00, 0x0D, 0x48,
	0x3F, 0x00, 0x4D, 0x3F, 0x83, 0x47, 0x48, 0x00, 0x00, 0x4D, 0x00, 0x19,
	0x4D, 0x45, 0x81, 0x63, 0x4D, 0x00, 0x0D, 0x4C, 0x3E, 0x81, 0x63, 0x4C,
	0x00, 0x0D, 0x4A, 0x3E, 0x83, 0x47, 0x4A, 0x00, 0x19, 0x4A, 0x45, 0x81,
	0x63, 0x4A, 0x00, 0x0D, 0x48, 0x3B, 0x8A, 0x57, 0x48, 0x00, 0x49, 0x4F,
	0x56, 0x81, 0x63, 0x4F, 0x00, 0x0D, 0x54, 0x4F, 0x81, 0x63, 0x54, 0x00,
	0x0D, 0x53, 0x3F, 0x81, 0x63, 0x53, 0x00, 0x0D, 0x48, 0x3F, 0x00, 0x51,
	0x3F, 0x83, 0x47, 0x48, 0x00, 0x00, 0x51, 0x00, 0x19, 0x51, 0x45, 0x81,
	0x63, 0x51, 0x00, 0x0D, 0x54, 0x48, 0x81, 0x63, 0x54, 0x00, 0x0D, 0x4A,
	0x3D, 0x00, 0x53, 0x3D, 0x83, 0x47, 0x4A, 0x00, 0x00, 0x53, 0x00, 0x19,
	0x51, 0x3F, 0x81, 0x63, 0x51, 0x00, 0x0D, 0x53, 0x44, 0x81, 0x63, 0x53,
	0x00, 0x0B, 0xFF, 0x59, 0x02, 0x00, 0x00, 0x02, 0x90, 0x4C, 0x3F, 0x00,
	0x4F, 0x3F, 0x83, 0x47, 0x4C, 0x00, 0x00, 0x4F, 0x00, 0x19, 0x54, 0x4A,
	0x81, 0x63, 0x54, 0x00, 0x0D, 0x54, 0x43, 0x81, 0x63, 0x54, 0x00, 0x81,
	0x7D, 0x4C, 0x3A, 0x81, 0x63, 0x4C, 0x00, 0x0D, 0x4C, 0x42, 0x81, 0x63,
	0x4C, 0x00, 0x0D, 0x4F, 0x46, 0x81, 0x63, 0x4F, 0x00, 0x0D, 0x48, 0x42,
	0x00, 0x4D, 0x42, 0x83, 0x47, 0x48, 0x00, 0x00, 0x4D, 0x00, 0x19, 0x4D,
	0x42, 0x81, 0x63, 0x4D, 0x00, 0x0D, 0x51, 0x48, 0x81, 0x63, 0x51, 0x00,
	0x0D, 0x4A, 0x3C, 0x00, 0x4F, 0x3C, 0x83, 0x47, 0x4A, 0x00, 0x00, 0x4F,
	0x00, 0x19, 0x4F, 0x44, 0x81, 0x63, 0x4F, 0x00, 0x0D, 0x4D, 0x3C, 0x81,
	0x63, 0x4D, 0x00, 0x0D, 0x48, 0x48, 0x00, 0x4F, 0x48, 0x88, 0x73, 0x48,
	0x00, 0x00, 0x4F, 0x00, 0x3D, 0x4F, 0x43, 0x81, 0x63, 0x4F, 0x00, 0x0D,
	0x54, 0x49, 0x81, 0x63, 0x54, 0x00, 0x0D, 0x53, 0x3E, 0x81, 0x63, 0x53,
	0x00, 0x0D, 0x48, 0x3F, 0x00, 0x51, 0x3F, 0x83, 0x47, 0x48, 0x00, 0x00,
	0x51, 0x00, 0x19, 0x51, 0x44, 0x81, 0x63, 0x51, 0x00, 0x0D, 0x54, 0x48,
	0x81, 0x63, 0x54, 0x00, 0x0D, 0x4A, 0x3E, 0x00, 0x53, 0x3E, 0x83, 0x47,
	0x4A, 0x00, 0x00, 0x53, 0x00, 0x19, 0x51, 0x40, 0x81, 0x63, 0x51, 0x00,
	0x0D, 0x53, 0x47, 0x81, 0x63, 0x53, 0x00, 0x0B, 0xFF, 0x59, 0x02, 0x00,
	0x00, 0x02, 0x90, 0x4C, 0x40, 0x00, 0x4F, 0x40, 0x81, 0x63, 0x4C, 0x00,
	0x00, 0x4F, 0x00, 0x0D, 0x54, 0x49, 0x81, 0x63, 0x54, 0x00, 0x0D, 0x54,
	0x45, 0x81, 0x63, 0x54, 0x00, 0x0D, 0x54, 0x41, 0x81, 0x63, 0x54, 0x00,
	0x81, 0x7D, 0x4C, 0x3C, 0x81, 0x63, 0x4C, 0x00, 0x0D, 0x4C, 0x44, 0x81,
	0x63, 0x4C, 0x00, 0x0D, 0x4F, 0x46, 0x81, 0x63, 0x4F, 0x00, 0x0D, 0x48,
	0x42, 0x00, 0x4D, 0x42, 0x83, 0x47, 0x48, 0x00, 0x00, 0x4D, 0x00, 0x19,
	0x4D, 0x43, 0x81, 0x63, 0x4D, 0x00, 0x0D, 0x4C, 0x3E, 0x81, 0x63, 0x4C,
	0x00, 0x0D, 0x47, 0x3C, 0x00, 0x4A, 0x3C, 0x83, 0x47, 0x47, 0x00, 0x00,
	0x4A, 0x00, 0x19, 0x4A, 0x3F, 0x83, 0x47, 0x4A, 0x00, 0x19, 0x43, 0x41,
	0x00, 0x48, 0x41, 0x88, 0x73, 0x43, 0x00, 0x00, 0x48, 0x00, 0x3D, 0x4F,
	0x37, 0x81, 0x63, 0x4F, 0x00, 0x0D, 0x54, 0x48, 0x81, 0x63, 0x54, 0x00,
	0x0D, 0x53, 0x41, 0x81, 0x63, 0x53, 0x00, 0x0D, 0x48, 0x41, 0x00, 0x51,
	0x41, 0x83, 0x47, 0x48, 0x00, 0x00, 0x51, 0x00, 0x19, 0x51, 0x43, 0x81,
	0x63, 0x51, 0x00, 0x0D, 0x54, 0x48, 0x81, 0x63, 0x54, 0x00, 0x0D, 0x4A,
	0x3F, 0x00, 0x53, 0x3F, 0x83, 0x47, 0x4A, 0x00, 0x00, 0x53, 0x00, 0x19,
	0x51, 0x42, 0x81, 0x63, 0x51, 0x00, 0x0D, 0x53, 0x44, 0x81, 0x63, 0x53,
	0x00, 0x0D, 0x4C, 0x40, 0x00, 0x4F, 0x40, 0x83, 0x47, 0x4C, 0x00, 0x00,
	0x4F, 0x00, 0x19, 0x54, 0x4B, 0x81, 0x63, 0x54, 0x00, 0x0D, 0x54, 0x43,
	0x81, 0x63, 0x54, 0x00, 0x81, 0x7D, 0x4C, 0x3A, 0x81, 0x63, 0x4C, 0x00,
	0x0D, 0x4C, 0x44, 0x81, 0x63, 0x4C, 0x00, 0x0D, 0x4F, 0x45, 0x81, 0x63,
	0x4F, 0x00, 0x0B, 0xFF, 0x59, 0x02, 0x00, 0x00, 0x02, 0x90, 0x48, 0x3F,
	0x00, 0x4D, 0x3F, 0x83, 0x47, 0x48, 0x00, 0x00, 0x4D, 0x00, 0x19, 0x4D,
	0x42, 0x81, 0x63, 0x4D, 0x00, 0x0D, 0x51, 0x48, 0x81, 0x63, 0x51, 0x00,
	0x0D, 0x4A, 0x3D, 0x00, 0x4F, 0x3D, 0x83, 0x47, 0x4A, 0x00, 0x00, 0x4F,
	0x00, 0x19, 0x4F, 0x44, 0x81, 0x63, 0x4F, 0x00, 0x0D, 0x4D, 0x3C, 0x81,
	0x63, 0x4D, 0x00, 0x0D, 0x48, 0x49, 0x00, 0x4F, 0x49, 0x88, 0x73, 0x48,
	0x00, 0x00, 0x4F, 0x00, 0x3D, 0x4F, 0x43, 0x81, 0x63, 0x4F, 0x00, 0x0D,
	0x54, 0x49, 0x81, 0x63, 0x54, 0x00, 0x0D, 0x53, 0x3E, 0x81, 0x63, 0x53,
	0x00, 0x0D, 0x48, 0x40, 0x00, 0x51, 0x40, 0x83, 0x47, 0x48, 0x00, 0x00,
	0x51, 0x00, 0x19, 0x51, 0x45, 0x81, 0x63, 0x51, 0x00, 0x0D, 0x54, 0x46,
	0x81, 0x63, 0x54, 0x00, 0x0D, 0x4A, 0x3E, 0x00, 0x53, 0x3E, 0x83, 0x47,
	0x4A, 0x00, 0x00, 0x53, 0x00, 0x19, 0x51, 0x42, 0x81, 0x63, 0x51, 0x00,
	0x0D, 0x53, 0x44, 0x81, 0x63, 0x53, 0x00, 0x0D, 0x4F, 0x3F, 0x81, 0x63,
	0x4F, 0x00, 0x0D, 0x4C, 0x3A, 0x81, 0x63, 0x4C, 0x00, 0x0D, 0x54, 0x50,
	0x81, 0x63, 0x54, 0x00, 0x0D, 0x54, 0x40, 0x81, 0x63, 0x54, 0x00, 0x81,
	0x7D, 0x4C, 0x3B, 0x81, 0x63, 0x4C, 0x00, 0x0D, 0x4C, 0x45, 0x81, 0x63,
	0x4C, 0x00, 0x0D, 0x4F, 0x48, 0x81, 0x63, 0x4F, 0x00, 0x0B, 0xFF, 0x59,
	0x02, 0x00, 0x00, 0x02, 0x90, 0x48, 0x3F, 0x00, 0x4D, 0x3F, 0x83, 0x47,
	0x48, 0x00, 0x00, 0x4D, 0x00, 0x19, 0x4D, 0x43, 0x81, 0x63, 0x4D, 0x00,
	0x0D, 0x4C, 0x3F, 0x81, 0x63, 0x4C, 0x00, 0x0D, 0x4A, 0x3C, 0x83, 0x47,
	0x4A, 0x00, 0x19, 0x4A, 0x40, 0x83, 0x47, 0x4A, 0x00, 0x19, 0x48, 0x3F,
	0x85, 0x2B, 0x48, 0x00, 0x25, 0x43, 0x47, 0x00, 0x48, 0x47, 0x00, 0x4C,
	0x47, 0x83, 0x47, 0x43, 0x00, 0x00, 0x48, 0x00, 0x00, 0x4C, 0x00, 0x19,
	0x43, 0x34, 0x81, 0x63, 0x43, 0x00, 0x0D, 0x48, 0x4C, 0x00, 0x4D, 0x4C,
	0x81, 0x63, 0x48, 0x00, 0x00, 0x4D, 0x00, 0x0D, 0x4A, 0x3D, 0x81, 0x63,
	0x4A, 0x00, 0x0D, 0x43, 0x48, 0x00, 0x48, 0x48, 0x00, 0x4C, 0x48, 0x85,
	0x2B, 0x43, 0x00, 0x00, 0x48, 0x00, 0x00, 0x4C, 0x00, 0x25, 0x43, 0x41,
	0x00, 0x48, 0x41, 0x00, 0x4C, 0x41, 0x83, 0x47, 0x43, 0x00, 0x00, 0x48,
	0x00, 0x00, 0x4C, 0x00, 0x19, 0x43, 0x35, 0x81, 0x63, 0x43, 0x00, 0x0D,
	0x48, 0x4D, 0x00, 0x4D, 0x4D, 0x81, 0x63, 0x48, 0x00, 0x00, 0x4D, 0x00,
	0x0D, 0x4A, 0x3D, 0x81, 0x63, 0x4A, 0x00, 0x0D, 0x43, 0x49, 0x00, 0x48,
	0x49, 0x00, 0x4C, 0x49, 0x85, 0x2B, 0x43, 0x00, 0x00, 0x48, 0x00, 0x00,
	0x4C, 0x00, 0x25, 0x43, 0x43, 0x00, 0x48, 0x43, 0x00, 0x4C, 0x43, 0x83,
	0x47, 0x43, 0x00, 0x00, 0x48, 0x00, 0x00, 0x4C, 0x00, 0x19, 0x43, 0x31,
	0x81, 0x63, 0x43, 0x00, 0x0D, 0x48, 0x4F, 0x00, 0x4D, 0x4F, 0x81, 0x63,
	0x48, 0x00, 0x00, 0x4D, 0x00, 0x0D, 0x4A, 0x3D, 0x81, 0x63, 0x4A, 0x00,
	0x0D, 0x43, 0x48, 0x00, 0x48, 0x48, 0x00, 0x4C, 0x48, 0x8E, 0x1F, 0x43,
	0x00, 0x00, 0x48, 0x00, 0x00, 0x4C, 0x00, 0x01, 0xFF, 0x2F, 0x00, 0x4D,
	0x54, 0x72, 0x6B, 0x00, 0x00, 0x0E, 0x39, 0x00, 0xFF, 0x03, 0x07, 0xE9,
	0x92, 0xA2, 0xE7, 0x90, 0xB4, 0x00, 0x00, 0xFF, 0x59, 0x02, 0x00, 0x00,
	0x00, 0xB1, 0x79, 0x00, 0x00, 0xC1, 0x00, 0x00, 0xB1, 0x07, 0x64, 0x00,
	0x0A, 0x40, 0x00, 0x5B, 0x00, 0x00, 0x5D, 0x00, 0x00, 0xFF, 0x21, 0x01,
	0x00, 0x87, 0x40, 0x91, 0x29, 0x40, 0x83, 0x47, 0x29, 0x00, 0x19, 0x39,
	0x55, 0x00, 0x3C, 0x55, 0x81, 0x63, 0x39, 0x00, 0x00, 0x3C, 0x00, 0x0D,
	0x29, 0x34, 0x81, 0x63, 0x29, 0x00, 0x0D, 0x29, 0x41, 0x83, 0x47, 0x29,
	0x00, 0x19, 0x37, 0x56, 0x00, 0x3B, 0x56, 0x81, 0x63, 0x37, 0x00, 0x00,
	0x3B, 0x00, 0x0D, 0x29, 0x34, 0x81, 0x63, 0x29, 0x00, 0x0D, 0x28, 0x3E,
	0x83, 0x47, 0x28, 0x00, 0x19, 0x37, 0x57, 0x00, 0x3B, 0x57, 0x81, 0x63,
	0x37, 0x00, 0x00, 0x3B, 0x00, 0x0D, 0x28, 0x34, 0x81, 0x63, 0x28, 0x00,
	0x0D, 0x2D, 0x51, 0x00, 0x34, 0x51, 0x83, 0x47, 0x2D, 0x00, 0x00, 0x34,
	0x00, 0x19, 0x28, 0x3D, 0x00, 0x30, 0x3D, 0x83, 0x47, 0x28, 0x00, 0x00,
	0x30, 0x00, 0x19, 0x26, 0x33, 0x83, 0x47, 0x26, 0x00, 0x19, 0x35, 0x53,
	0x00, 0x39, 0x53, 0x81, 0x63, 0x35, 0x00, 0x00, 0x39, 0x00, 0x0D, 0x26,
	0x33, 0x81, 0x63, 0x26, 0x00, 0x0D, 0x2B, 0x46, 0x83, 0x47, 0x2B, 0x00,
	0x19, 0x37, 0x59, 0x00, 0x3B, 0x59, 0x81, 0x63, 0x37, 0x00, 0x00, 0x3B,
	0x00, 0x0D, 0x26, 0x33, 0x81, 0x63, 0x26, 0x00, 0x0D, 0x24, 0x3D, 0x83,
	0x47, 0x24, 0x00, 0x19, 0x34, 0x56, 0x00, 0x37, 0x56, 0x81, 0x63, 0x34,
	0x00, 0x00, 0x37, 0x00, 0x0D, 0x24, 0x35, 0x81, 0x63, 0x24, 0x00, 0x0D,
	0x24, 0x50, 0x00, 0x30, 0x50, 0x83, 0x47, 0x24, 0x00, 0x00, 0x30, 0x00,
	0x19, 0x28, 0x4D, 0x00, 0x34, 0x4D, 0x83, 0x47, 0x28, 0x00, 0x00, 0x34,
	0x00, 0x17, 0xFF, 0x59, 0x02, 0x00, 0x00, 0x02, 0x91, 0x29, 0x35, 0x83,
	0x47, 0x29, 0x00, 0x19, 0x39, 0x56, 0x00, 0x3C, 0x56, 0x81, 0x63, 0x39,
	0x00, 0x00, 0x3C, 0x00, 0x0D, 0x29, 0x32, 0x81, 0x63, 0x29, 0x00, 0x0D,
	0x2B, 0x44, 0x83, 0x47, 0x2B, 0x00, 0x19, 0x37, 0x58, 0x00, 0x3B, 0x58,
	0x81, 0x63, 0x37, 0x00, 0x00, 0x3B, 0x00, 0x0D, 0x2B, 0x33, 0x81, 0x63,
	0x2B, 0x00, 0x0D, 0x28, 0x3A, 0x83, 0x47, 0x28, 0x00, 0x19, 0x37, 0x54,
	0x00, 0x3B, 0x54, 0x81, 0x63, 0x37, 0x00, 0x00, 0x3B, 0x00, 0x0D, 0x28,
	0x32, 0x81, 0x63, 0x28, 0x00, 0x0D, 0x2D, 0x52, 0x00, 0x34, 0x52, 0x83,
	0x47, 0x2D, 0x00, 0x00, 0x34, 0x00, 0x19, 0x28, 0x3F, 0x00, 0x30, 0x3F,
	0x83, 0x47, 0x28, 0x00, 0x00, 0x30, 0x00, 0x19, 0x26, 0x35, 0x83, 0x47,
	0x26, 0x00, 0x19, 0x35, 0x55, 0x00, 0x39, 0x55, 0x81, 0x63, 0x35, 0x00,
	0x00, 0x39, 0x00, 0x0D, 0x26, 0x33, 0x81, 0x63, 0x26, 0x00, 0x0D, 0x2B,
	0x49, 0x83, 0x47, 0x2B, 0x00, 0x19, 0x37, 0x56, 0x00, 0x3B, 0x56, 0x81,
	0x63, 0x37, 0x00, 0x00, 0x3B, 0x00, 0x0D, 0x2B, 0x33, 0x81, 0x63, 0x2B,
	0x00, 0x0D, 0x24, 0x36, 0x83, 0x47, 0x24, 0x00, 0x19, 0x34, 0x52, 0x00,
	0x37, 0x52, 0x81, 0x63, 0x34, 0x00, 0x00, 0x37, 0x00, 0x0D, 0x24, 0x33,
	0x81, 0x63, 0x24, 0x00, 0x0D, 0x24, 0x40, 0x83, 0x47, 0x24, 0x00, 0x19,
	0x2B, 0x4E, 0x83, 0x47, 0x2B, 0x00, 0x19, 0x24, 0x3A, 0x83, 0x47, 0x24,
	0x00, 0x19, 0x34, 0x55, 0x00, 0x37, 0x55, 0x81, 0x63, 0x34, 0x00, 0x00,
	0x37, 0x00, 0x0D, 0x24, 0x32, 0x81, 0x63, 0x24, 0x00, 0x0D, 0x24, 0x41,
	0x83, 0x47, 0x24, 0x00, 0x19, 0x2B, 0x4B, 0x83, 0x31, 0xFF, 0x59, 0x02,
	0x00, 0x00, 0x16, 0x91, 0x2B, 0x00, 0x19, 0x24, 0x39, 0x83, 0x47, 0x24,
	0x00, 0x19, 0x34, 0x55, 0x00, 0x37, 0x55, 0x81, 0x63, 0x34, 0x00, 0x00,
	0x37, 0x00, 0x0D, 0x24, 0x34, 0x81, 0x63, 0x24, 0x00, 0x0D, 0x24, 0x40,
	0x83, 0x47, 0x24, 0x00, 0x19, 0x2B, 0x4D, 0x83, 0x47, 0x2B, 0x00, 0x19,
	0x24, 0x3C, 0x8E, 0x1F, 0x24, 0x00, 0x61, 0x30, 0x57, 0x83, 0x47, 0x30,
	0x00, 0x19, 0x34, 0x51, 0x00, 0x37, 0x51, 0x81, 0x63, 0x34, 0x00, 0x00,
	0x37, 0x00, 0x0D, 0x30, 0x38, 0x81, 0x63, 0x30, 0x00, 0x0D, 0x2F, 0x3E,
	0x83, 0x47, 0x2F, 0x00, 0x19, 0x32, 0x4C, 0x00, 0x37, 0x4C, 0x83, 0x47,
	0x32, 0x00, 0x00, 0x37, 0x00, 0x19, 0x2D, 0x38, 0x83, 0x47, 0x2D, 0x00,
	0x19, 0x34, 0x51, 0x00, 0x37, 0x51, 0x81, 0x63, 0x34, 0x00, 0x00, 0x37,
	0x00, 0x0D, 0x2D, 0x35, 0x81, 0x63, 0x2D, 0x00, 0x0D, 0x2B, 0x3B, 0x83,
	0x47, 0x2B, 0x00, 0x19, 0x32, 0x55, 0x00, 0x37, 0x55, 0x81, 0x63, 0x32,
	0x00, 0x00, 0x37, 0x00, 0x0D, 0x2B, 0x34, 0x81, 0x63, 0x2B, 0x00, 0x0D,
	0x29, 0x3D, 0x83, 0x47, 0x29, 0x00, 0x19, 0x35, 0x56, 0x00, 0x39, 0x56,
	0x81, 0x63, 0x35, 0x00, 0x00, 0x39, 0x00, 0x0D, 0x29, 0x33, 0x81, 0x63,
	0x29, 0x00, 0x0D, 0x2B, 0x42, 0x83, 0x47, 0x2B, 0x00, 0x19, 0x37, 0x55,
	0x00, 0x3B, 0x55, 0x81, 0x63, 0x37, 0x00, 0x00, 0x3B, 0x00, 0x0D, 0x2B,
	0x35, 0x81, 0x63, 0x2B, 0x00, 0x09, 0xFF, 0x59, 0x02, 0x00, 0x00, 0x04,
	0x91, 0x30, 0x49, 0x83, 0x47, 0x30, 0x00, 0x19, 0x34, 0x4F, 0x00, 0x37,
	0x4F, 0x81, 0x63, 0x34, 0x00, 0x00, 0x37, 0x00, 0x0D, 0x30, 0x3A, 0x81,
	0x63, 0x30, 0x00, 0x0D, 0x30, 0x4C, 0x00, 0x37, 0x4C, 0x83, 0x47, 0x30,
	0x00, 0x00, 0x37, 0x00, 0x19, 0x2B, 0x32, 0x83, 0x47, 0x2B, 0x00, 0x19,
	0x30, 0x49, 0x83, 0x47, 0x30, 0x00, 0x19, 0x34, 0x52, 0x00, 0x37, 0x52,
	0x81, 0x63, 0x34, 0x00, 0x00, 0x37, 0x00, 0x0D, 0x30, 0x37, 0x81, 0x63,
	0x30, 0x00, 0x0D, 0x2E, 0x3C, 0x83, 0x47, 0x2E, 0x00, 0x19, 0x32, 0x4D,
	0x00, 0x37, 0x4D, 0x83, 0x47, 0x32, 0x00, 0x00, 0x37, 0x00, 0x19, 0x29,
	0x35, 0x83, 0x47, 0x29, 0x00, 0x19, 0x35, 0x54, 0x00, 0x37, 0x54, 0x81,
	0x63, 0x35, 0x00, 0x00, 0x37, 0x00, 0x0D, 0x29, 0x33, 0x81, 0x63, 0x29,
	0x00, 0x0D, 0x29, 0x3F, 0x83, 0x47, 0x29, 0x00, 0x19, 0x35, 0x58, 0x00,
	0x38, 0x58, 0x81, 0x63, 0x35, 0x00, 0x00, 0x38, 0x00, 0x0D, 0x29, 0x32,
	0x81, 0x63, 0x29, 0x00, 0x0D, 0x2B, 0x47, 0x83, 0x47, 0x2B, 0x00, 0x19,
	0x32, 0x58, 0x00, 0x37, 0x58, 0x81, 0x63, 0x32, 0x00, 0x00, 0x37, 0x00,
	0x0D, 0x2B, 0x35, 0x81, 0x63, 0x2B, 0x00, 0x0D, 0x2B, 0x3E, 0x83, 0x47,
	0x2B, 0x00, 0x19, 0x37, 0x56, 0x00, 0x3B, 0x56, 0x81, 0x63, 0x37, 0x00,
	0x00, 0x3B, 0x00, 0x0D, 0x2B, 0x32, 0x81, 0x63, 0x2B, 0x00, 0x0D, 0x30,
	0x4B, 0x83, 0x47, 0x30, 0x00, 0x19, 0x34, 0x52, 0x00, 0x37, 0x52, 0x81,
	0x63, 0x34, 0x00, 0x00, 0x37, 0x00, 0x0D, 0x30, 0x36, 0x81, 0x63, 0x30,
	0x00, 0x0D, 0x30, 0x4E, 0x00, 0x37, 0x4E, 0x83, 0x47, 0x30, 0x00, 0x00,
	0x37, 0x00, 0x19, 0x2B, 0x2F, 0x83, 0x47, 0x2B, 0x00, 0x17, 0xFF, 0x59,
	0x02, 0x00, 0x00, 0x02, 0x91, 0x30, 0x4B, 0x83, 0x47, 0x30, 0x00, 0x19,
	0x34, 0x50, 0x00, 0x37, 0x50, 0x81, 0x63, 0x34, 0x00, 0x00, 0x37, 0x00,
	0x0D, 0x30, 0x38, 0x81, 0x63, 0x30, 0x00, 0x0D, 0x2F, 0x3D, 0x83, 0x47,
	0x2F, 0x00, 0x19, 0x32, 0x4D, 0x00, 0x37, 0x4D, 0x83, 0x47, 0x32, 0x00,
	0x00, 0x37, 0x00, 0x19, 0x2D, 0x38, 0x83, 0x47, 0x2D, 0x00, 0x19, 0x34,
	0x52, 0x00, 0x37, 0x52, 0x81, 0x63, 0x34, 0x00, 0x00, 0x37, 0x00, 0x0D,
	0x2D, 0x35, 0x81, 0x63, 0x2D, 0x00, 0x0D, 0x2B, 0x39, 0x83, 0x47, 0x2B,
	0x00, 0x19, 0x32, 0x56, 0x00, 0x37, 0x56, 0x81, 0x63, 0x32, 0x00, 0x00,
	0x37, 0x00, 0x0D, 0x2B, 0x32, 0x81, 0x63, 0x2B, 0x00, 0x0D, 0x29, 0x3E,
	0x83, 0x47, 0x29, 0x00, 0x19, 0x35, 0x57, 0x00, 0x39, 0x57, 0x81, 0x63,
	0x35, 0x00, 0x00, 0x39, 0x00, 0x0D, 0x29, 0x34, 0x81, 0x63, 0x29, 0x00,
	0x0D, 0x2B, 0x43, 0x83, 0x47, 0x2B, 0x00, 0x19, 0x37, 0x57, 0x00, 0x3B,
	0x57, 0x81, 0x63, 0x37, 0x00, 0x00, 0x3B, 0x00, 0x0D, 0x2B, 0x33, 0x81,
	0x63, 0x2B, 0x00, 0x0D, 0x30, 0x4B, 0x83, 0x47, 0x30, 0x00, 0x19, 0x34,
	0x50, 0x00, 0x37, 0x50, 0x81, 0x63, 0x34, 0x00, 0x00, 0x37, 0x00, 0x0D,
	0x30, 0x36, 0x81, 0x63, 0x30, 0x00, 0x0D, 0x30, 0x4D, 0x00, 0x37, 0x4D,
	0x83, 0x47, 0x30, 0x00, 0x00, 0x37, 0x00, 0x19, 0x2B, 0x31, 0x83, 0x47,
	0x2B, 0x00, 0x19, 0x30, 0x4A, 0x83, 0x47, 0x30, 0x00, 0x19, 0x34, 0x51,
	0x00, 0x37, 0x51, 0x81, 0x63, 0x34, 0x00, 0x00, 0x37, 0x00, 0x0D, 0x30,
	0x38, 0x81, 0x63, 0x30, 0x00, 0x0D, 0x2E, 0x3C, 0x83, 0x47, 0x2E, 0x00,
	0x19, 0x32, 0x50, 0x00, 0x37, 0x50, 0x83, 0x47, 0x32, 0x00, 0x00, 0x37,
	0x00, 0x17, 0xFF, 0x59, 0x02, 0x00, 0x00, 0x02, 0x91, 0x29, 0x36, 0x83,
	0x47, 0x29, 0x00, 0x19, 0x35, 0x54, 0x00, 0x37, 0x54, 0x81, 0x63, 0x35,
	0x00, 0x00, 0x37, 0x00, 0x0D, 0x29, 0x31, 0x81, 0x63, 0x29, 0x00, 0x0D,
	0x29, 0x40, 0x83, 0x47, 0x29, 0x00, 0x19, 0x35, 0x56, 0x00, 0x38, 0x56,
	0x81, 0x63, 0x35, 0x00, 0x00, 0x38, 0x00, 0x0D, 0x29, 0x34, 0x81, 0x63,
	0x29, 0x00, 0x0D, 0x2B, 0x48, 0x83, 0x47, 0x2B, 0x00, 0x19, 0x32, 0x58,
	0x00, 0x37, 0x58, 0x81, 0x63, 0x32, 0x00, 0x00, 0x37, 0x00, 0x0D, 0x2B,
	0x31, 0x81, 0x63, 0x2B, 0x00, 0x0D, 0x2B, 0x3E, 0x83, 0x47, 0x2B, 0x00,
	0x19, 0x37, 0x59, 0x00, 0x3B, 0x59, 0x81, 0x63, 0x37, 0x00, 0x00, 0x3B,
	0x00, 0x0D, 0x2B, 0x35, 0x81, 0x63, 0x2B, 0x00, 0x0D, 0x24, 0x34, 0x83,
	0x47, 0x24, 0x00, 0x19, 0x34, 0x55, 0x00, 0x37, 0x55, 0x81, 0x63, 0x34,
	0x00, 0x00, 0x37, 0x00, 0x0D, 0x24, 0x32, 0x81, 0x63, 0x24, 0x00, 0x0D,
	0x30, 0x52, 0x00, 0x37, 0x52, 0x83, 0x47, 0x30, 0x00, 0x00, 0x37, 0x00,
	0x19, 0x28, 0x32, 0x83, 0x47, 0x28, 0x00, 0x19, 0x29, 0x44, 0x83, 0x47,
	0x29, 0x00, 0x19, 0x37, 0x59, 0x00, 0x3C, 0x59, 0x81, 0x63, 0x37, 0x00,
	0x00, 0x3C, 0x00, 0x0D, 0x29, 0x32, 0x81, 0x63, 0x29, 0x00, 0x0D, 0x2B,
	0x42, 0x83, 0x47, 0x2B, 0x00, 0x19, 0x37, 0x57, 0x00, 0x3B, 0x57, 0x81,
	0x63, 0x37, 0x00, 0x00, 0x3B, 0x00, 0x0D, 0x2B, 0x33, 0x81, 0x63, 0x2B,
	0x00, 0x0D, 0x28, 0x3B, 0x83, 0x47, 0x28, 0x00, 0x19, 0x37, 0x53, 0x00,
	0x3C, 0x53, 0x81, 0x63, 0x37, 0x00, 0x00, 0x3C, 0x00, 0x0D, 0x28, 0x34,
	0x81, 0x63, 0x28, 0x00, 0x0D, 0x2D, 0x51, 0x00, 0x34, 0x51, 0x83, 0x47,
	0x2D, 0x00, 0x00, 0x34, 0x00, 0x19, 0x28, 0x3F, 0x00, 0x30, 0x3F, 0x83,
	0x47, 0x28, 0x00, 0x00, 0x30, 0x00, 0x17, 0xFF, 0x59, 0x02, 0x00, 0x00,
	0x02, 0x91, 0x26, 0x33, 0x83, 0x47, 0x26, 0x00, 0x19, 0x32, 0x54, 0x00,
	0x35, 0x54, 0x81, 0x63, 0x32, 0x00, 0x00, 0x35, 0x00, 0x0D, 0x26, 0x32,
	0x81, 0x63, 0x26, 0x00, 0x0D, 0x2B, 0x46, 0x83, 0x47, 0x2B, 0x00, 0x19,
	0x32, 0x59, 0x00, 0x37, 0x59, 0x81, 0x63, 0x32, 0x00, 0x00, 0x37, 0x00,
	0x0D, 0x2B, 0x35, 0x81, 0x63, 0x2B, 0x00, 0x0D, 0x24, 0x37, 0x83, 0x47,
	0x24, 0x00, 0x19, 0x34, 0x54, 0x00, 0x37, 0x54, 0x81, 0x63, 0x34, 0x00,
	0x00, 0x37, 0x00, 0x0D, 0x24, 0x30, 0x81, 0x63, 0x24, 0x00, 0x0D, 0x24,
	0x50, 0x00, 0x30, 0x50, 0x83, 0x47, 0x24, 0x00, 0x00, 0x30, 0x00, 0x19,
	0x28, 0x4C, 0x00, 0x34, 0x4C, 0x83, 0x47, 0x28, 0x00, 0x00, 0x34, 0x00,
	0x19, 0x29, 0x36, 0x83, 0x47, 0x29, 0x00, 0x19, 0x35, 0x55, 0x00, 0x39,
	0x55, 0x81, 0x63, 0x35, 0x00, 0x00, 0x39, 0x00, 0x0D, 0x29, 0x31, 0x81,
	0x63, 0x29, 0x00, 0x0D, 0x2C, 0x47, 0x83, 0x47, 0x2C, 0x00, 0x19, 0x34,
	0x58, 0x00, 0x38, 0x58, 0x81, 0x63, 0x34, 0x00, 0x00, 0x38, 0x00, 0x0D,
	0x2C, 0x32, 0x81, 0x63, 0x2C, 0x00, 0x0D, 0x2D, 0x43, 0x83, 0x47, 0x2D,
	0x00, 0x19, 0x37, 0x58, 0x00, 0x3C, 0x58, 0x81, 0x63, 0x37, 0x00, 0x00,
	0x3C, 0x00, 0x0D, 0x2D, 0x32, 0x81, 0x63, 0x2D, 0x00, 0x0D, 0x2B, 0x39,
	0x83, 0x47, 0x2B, 0x00, 0x19, 0x37, 0x57, 0x00, 0x3C, 0x57, 0x81, 0x63,
	0x37, 0x00, 0x00, 0x3C, 0x00, 0x0D, 0x2B, 0x31, 0x81, 0x63, 0x2B, 0x00,
	0x07, 0xFF, 0x59, 0x02, 0x00, 0x00, 0x06, 0x91, 0x26, 0x38, 0x83, 0x47,
	0x26, 0x00, 0x19, 0x32, 0x53, 0x00, 0x35, 0x53, 0x81, 0x63, 0x32, 0x00,
	0x00, 0x35, 0x00, 0x0D, 0x26, 0x34, 0x81, 0x63, 0x26, 0x00, 0x0D, 0x26,
	0x3E, 0x83, 0x47, 0x26, 0x00, 0x19, 0x32, 0x58, 0x00, 0x35, 0x58, 0x81,
	0x63, 0x32, 0x00, 0x00, 0x35, 0x00, 0x0D, 0x29, 0x34, 0x81, 0x63, 0x29,
	0x00, 0x0D, 0x2B, 0x48, 0x83, 0x47, 0x2B, 0x00, 0x19, 0x37, 0x57, 0x00,
	0x3C, 0x57, 0x81, 0x63, 0x37, 0x00, 0x00, 0x3C, 0x00, 0x0D, 0x2B, 0x31,
	0x83, 0x47, 0x2B, 0x00, 0x19, 0x2B, 0x43, 0x81, 0x63, 0x2B, 0x00, 0x0D,
	0x37, 0x53, 0x00, 0x3C, 0x53, 0x83, 0x47, 0x37, 0x00, 0x00, 0x3C, 0x00,
	0x19, 0x2B, 0x36, 0x00, 0x32, 0x36, 0x83, 0x47, 0x2B, 0x00, 0x00, 0x32,
	0x00, 0x8B, 0x39, 0x29, 0x3F, 0x83, 0x47, 0x29, 0x00, 0x19, 0x39, 0x57,
	0x00, 0x3C, 0x57, 0x81, 0x63, 0x39, 0x00, 0x00, 0x3C, 0x00, 0x0D, 0x29,
	0x33, 0x81, 0x63, 0x29, 0x00, 0x0D, 0x29, 0x3E, 0x83, 0x47, 0x29, 0x00,
	0x19, 0x37, 0x56, 0x00, 0x3B, 0x56, 0x81, 0x63, 0x37, 0x00, 0x00, 0x3B,
	0x00, 0x0D, 0x29, 0x33, 0x81, 0x63, 0x29, 0x00, 0x0D, 0x28, 0x3F, 0x83,
	0x47, 0x28, 0x00, 0x19, 0x37, 0x58, 0x00, 0x3B, 0x58, 0x81, 0x63, 0x37,
	0x00, 0x00, 0x3B, 0x00, 0x0D, 0x28, 0x33, 0x81, 0x63, 0x28, 0x00, 0x0D,
	0x2D, 0x53, 0x00, 0x34, 0x53, 0x83, 0x47, 0x2D, 0x00, 0x00, 0x34, 0x00,
	0x19, 0x28, 0x3D, 0x00, 0x30, 0x3D, 0x83, 0x47, 0x28, 0x00, 0x00, 0x30,
	0x00, 0x17, 0xFF, 0x59, 0x02, 0x00, 0x00, 0x02, 0x91, 0x26, 0x35, 0x83,
	0x47, 0x26, 0x00, 0x19, 0x35, 0x52, 0x00, 0x39, 0x52, 0x81, 0x63, 0x35,
	0x00, 0x00, 0x39, 0x00, 0x0D, 0x26, 0x32, 0x81, 0x63, 0x26, 0x00, 0x0D,
	0x2B, 0x47, 0x83, 0x47, 0x2B, 0x00, 0x19, 0x37, 0x5A, 0x00, 0x3B, 0x5A,
	0x81, 0x63, 0x37, 0x00, 0x00, 0x3B, 0x00, 0x0D, 0x26, 0x34, 0x81, 0x63,
	0x26, 0x00, 0x0D, 0x24, 0x3D, 0x83, 0x47, 0x24, 0x00, 0x19, 0x34, 0x58,
	0x00, 0x37, 0x58, 0x81, 0x63, 0x34, 0x00, 0x00, 0x37, 0x00, 0x0D, 0x24,
	0x34, 0x81, 0x63, 0x24, 0x00, 0x0D, 0x24, 0x53, 0x00, 0x30, 0x53, 0x83,
	0x47, 0x24, 0x00, 0x00, 0x30, 0x00, 0x19, 0x28, 0x4B, 0x00, 0x34, 0x4B,
	0x83, 0x47, 0x28, 0x00, 0x00, 0x34, 0x00, 0x19, 0x29, 0x34, 0x83, 0x47,
	0x29, 0x00, 0x19, 0x39, 0x55, 0x00, 0x3C, 0x55, 0x81, 0x63, 0x39, 0x00,
	0x00, 0x3C, 0x00, 0x0D, 0x29, 0x33, 0x81, 0x63, 0x29, 0x00, 0x0D, 0x2B,
	0x42, 0x83, 0x47, 0x2B, 0x00, 0x19, 0x37, 0x58, 0x00, 0x3B, 0x58, 0x81,
	0x63, 0x37, 0x00, 0x00, 0x3B, 0x00, 0x0D, 0x2B, 0x34, 0x81, 0x63, 0x2B,
	0x00, 0x0D, 0x28, 0x3E, 0x83, 0x47, 0x28, 0x00, 0x19, 0x37, 0x54, 0x00,
	0x3B, 0x54, 0x81, 0x63, 0x37, 0x00, 0x00, 0x3B, 0x00, 0x0D, 0x28, 0x34,
	0x81, 0x63, 0x28, 0x00, 0x0D, 0x2D, 0x53, 0x00, 0x34, 0x53, 0x83, 0x47,
	0x2D, 0x00, 0x00, 0x34, 0x00, 0x19, 0x28, 0x3E, 0x00, 0x30, 0x3E, 0x83,
	0x47, 0x28, 0x00, 0x00, 0x30, 0x00, 0x19, 0x26, 0x34, 0x83, 0x47, 0x26,
	0x00, 0x19, 0x35, 0x55, 0x00, 0x39, 0x55, 0x81, 0x63, 0x35, 0x00, 0x00,
	0x39, 0x00, 0x0D, 0x26, 0x33, 0x81, 0x63, 0x26, 0x00, 0x0D, 0x2B, 0x49,
	0x83, 0x47, 0x2B, 0x00, 0x19, 0x37, 0x58, 0x00, 0x3B, 0x58, 0x81, 0x63,
	0x37, 0x00, 0x00, 0x3B, 0x00, 0x0D, 0xFF, 0x59, 0x02, 0x00, 0x00, 0x00,
	0x91, 0x2B, 0x32, 0x81, 0x63, 0x2B, 0x00, 0x0D, 0x24, 0x34, 0x83, 0x47,
	0x24, 0x00, 0x19, 0x34, 0x53, 0x00, 0x37, 0x53, 0x81, 0x63, 0x34, 0x00,
	0x00, 0x37, 0x00, 0x0D, 0x24, 0x31, 0x81, 0x63, 0x24, 0x00, 0x0D, 0x24,
	0x42, 0x81, 0x63, 0x24, 0x00, 0x0D, 0x30, 0x53, 0x81, 0x63, 0x30, 0x00,
	0x0D, 0x34, 0x50, 0x00, 0x37, 0x50, 0x83, 0x47, 0x34, 0x00, 0x00, 0x37,
	0x00, 0x19, 0x29, 0x36, 0x83, 0x47, 0x29, 0x00, 0x19, 0x39, 0x53, 0x00,
	0x3C, 0x53, 0x81, 0x63, 0x39, 0x00, 0x00, 0x3C, 0x00, 0x0D, 0x29, 0x34,
	0x81, 0x63, 0x29, 0x00, 0x0D, 0x29, 0x41, 0x83, 0x47, 0x29, 0x00, 0x19,
	0x37, 0x58, 0x00, 0x3B, 0x58, 0x81, 0x63, 0x37, 0x00, 0x00, 0x3B, 0x00,
	0x0D, 0x29, 0x34, 0x81, 0x63, 0x29, 0x00, 0x0D, 0x28, 0x3F, 0x83, 0x47,
	0x28, 0x00, 0x19, 0x37, 0x57, 0x00, 0x3B, 0x57, 0x81, 0x63, 0x37, 0x00,
	0x00, 0x3B, 0x00, 0x0D, 0x28, 0x31, 0x81, 0x63, 0x28, 0x00, 0x0D, 0x2D,
	0x52, 0x00, 0x34, 0x52, 0x83, 0x47, 0x2D, 0x00, 0x00, 0x34, 0x00, 0x19,
	0x28, 0x3B, 0x00, 0x30, 0x3B, 0x83, 0x47, 0x28, 0x00, 0x00, 0x30, 0x00,
	0x19, 0x26, 0x35, 0x83, 0x47, 0x26, 0x00, 0x19, 0x35, 0x52, 0x00, 0x39,
	0x52, 0x81, 0x63, 0x35, 0x00, 0x00, 0x39, 0x00, 0x0D, 0x26, 0x31, 0x81,
	0x63, 0x26, 0x00, 0x0D, 0x2B, 0x46, 0x83, 0x47, 0x2B, 0x00, 0x19, 0x37,
	0x57, 0x00, 0x3B, 0x57, 0x81, 0x63, 0x37, 0x00, 0x00, 0x3B, 0x00, 0x0D,
	0x26, 0x33, 0x81, 0x63, 0x26, 0x00, 0x0D, 0x24, 0x3C, 0x83, 0x47, 0x24,
	0x00, 0x19, 0x34, 0x55, 0x00, 0x37, 0x55, 0x81, 0x63, 0x34, 0x00, 0x00,
	0x37, 0x00, 0x0D, 0x24, 0x32, 0x81, 0x63, 0x24, 0x00, 0x0D, 0x24, 0x50,
	0x00, 0x30, 0x50, 0x83, 0x47, 0x24, 0x00, 0x00, 0x30, 0x00, 0x19, 0x28,
	0x4B, 0x00, 0x34, 0x4B, 0x83, 0x47, 0x28, 0x00, 0x00, 0x34, 0x00, 0x17,
	0xFF, 0x59, 0x02, 0x00, 0x00, 0x02, 0x91, 0x29, 0x33, 0x83, 0x47, 0x29,
	0x00, 0x19, 0x39, 0x56, 0x00, 0x3C, 0x56, 0x81, 0x63, 0x39, 0x00, 0x00,
	0x3C, 0x00, 0x0D, 0x29, 0x31, 0x81, 0x63, 0x29, 0x00, 0x0D, 0x2B, 0x45,
	0x83, 0x47, 0x2B, 0x00, 0x19, 0x37, 0x55, 0x00, 0x3B, 0x55, 0x81, 0x63,
	0x37, 0x00, 0x00, 0x3B, 0x00, 0x0D, 0x2B, 0x31, 0x81, 0x63, 0x2B, 0x00,
	0x0D, 0x28, 0x3D, 0x83, 0x47, 0x28, 0x00, 0x19, 0x37, 0x54, 0x00, 0x3B,
	0x54, 0x81, 0x63, 0x37, 0x00, 0x00, 0x3B, 0x00, 0x0D, 0x28, 0x32, 0x81,
	0x63, 0x28, 0x00, 0x0D, 0x2D, 0x52, 0x00, 0x34, 0x52, 0x83, 0x47, 0x2D,
	0x00, 0x00, 0x34, 0x00, 0x19, 0x28, 0x3E, 0x00, 0x30, 0x3E, 0x83, 0x47,
	0x28, 0x00, 0x00, 0x30, 0x00, 0x19, 0x26, 0x34, 0x83, 0x47, 0x26, 0x00,
	0x19, 0x35, 0x53, 0x00, 0x39, 0x53, 0x81, 0x63, 0x35, 0x00, 0x00, 0x39,
	0x00, 0x0D, 0x26, 0x31, 0x81, 0x63, 0x26, 0x00, 0x0D, 0x2B, 0x48, 0x83,
	0x47, 0x2B, 0x00, 0x19, 0x37, 0x58, 0x00, 0x3B, 0x58, 0x81, 0x63, 0x37,
	0x00, 0x00, 0x3B, 0x00, 0x0D, 0x2B, 0x33, 0x81, 0x63, 0x2B, 0x00, 0x0D,
	0x24, 0x35, 0x83, 0x47, 0x24, 0x00, 0x19, 0x34, 0x56, 0x00, 0x37, 0x56,
	0x81, 0x63, 0x34, 0x00, 0x00, 0x37, 0x00, 0x0D, 0x24, 0x34, 0x81, 0x63,
	0x24, 0x00, 0x0D, 0x24, 0x40, 0x81, 0x63, 0x24, 0x00, 0x0D, 0x30, 0x55,
	0x81, 0x63, 0x30, 0x00, 0x0D, 0x34, 0x4E, 0x00, 0x37, 0x4E, 0x83, 0x47,
	0x34, 0x00, 0x00, 0x37, 0x00, 0x19, 0x35, 0x44, 0x83, 0x47, 0x35, 0x00,
	0x19, 0x39, 0x4F, 0x00, 0x3C, 0x4F, 0x83, 0x47, 0x39, 0x00, 0x00, 0x3C,
	0x00, 0x19, 0x35, 0x39, 0x83, 0x47, 0x35, 0x00, 0x19, 0x3B, 0x50, 0x00,
	0x3E, 0x50, 0x83, 0x47, 0x3B, 0x00, 0x00, 0x3E, 0x00, 0x17, 0xFF, 0x59,
	0x02, 0x00, 0x00, 0x02, 0x91, 0x34, 0x35, 0x83, 0x47, 0x34, 0x00, 0x19,
	0x37, 0x4B, 0x00, 0x3B, 0x4B, 0x83, 0x47, 0x37, 0x00, 0x00, 0x3B, 0x00,
	0x19, 0x39, 0x40, 0x83, 0x47, 0x39, 0x00, 0x19, 0x3C, 0x4E, 0x00, 0x40,
	0x4E, 0x83, 0x47, 0x3C, 0x00, 0x00, 0x40, 0x00, 0x19, 0x32, 0x35, 0x83,
	0x47, 0x32, 0x00, 0x19, 0x39, 0x4D, 0x00, 0x3C, 0x4D, 0x83, 0x47, 0x39,
	0x00, 0x00, 0x3C, 0x00, 0x19, 0x37, 0x3B, 0x83, 0x47, 0x37, 0x00, 0x19,
	0x3B, 0x4C, 0x00, 0x3E, 0x4C, 0x83, 0x47, 0x3B, 0x00, 0x00, 0x3E, 0x00,
	0x19, 0x30, 0x35, 0x81, 0x63, 0x30, 0x00, 0x0D, 0x34, 0x45, 0x81, 0x63,
	0x34, 0x00, 0x0D, 0x3C, 0x4D, 0x81, 0x63, 0x3C, 0x00, 0x0D, 0x37, 0x3C,
	0x83, 0x47, 0x37, 0x00, 0x19, 0x34, 0x3B, 0x81, 0x63, 0x34, 0x00, 0x0D,
	0x37, 0x4E, 0x00, 0x3C, 0x4E, 0x83, 0x47, 0x37, 0x00, 0x00, 0x3C, 0x00,
	0x19, 0x29, 0x37, 0x81, 0x63, 0x29, 0x00, 0x0D, 0x30, 0x4B, 0x81, 0x63,
	0x30, 0x00, 0x0D, 0x35, 0x4D, 0x81, 0x63, 0x35, 0x00, 0x0D, 0x39, 0x48,
	0x81, 0x63, 0x39, 0x00, 0x0D, 0x2B, 0x32, 0x81, 0x63, 0x2B, 0x00, 0x0D,
	0x32, 0x49, 0x81, 0x63, 0x32, 0x00, 0x0D, 0x37, 0x4A, 0x81, 0x63, 0x37,
	0x00, 0x0D, 0x3B, 0x4C, 0x81, 0x63, 0x3B, 0x00, 0x0B, 0xFF, 0x59, 0x02,
	0x00, 0x00, 0x02, 0x91, 0x28, 0x35, 0x81, 0x63, 0x28, 0x00, 0x0D, 0x32,
	0x4E, 0x81, 0x63, 0x32, 0x00, 0x0D, 0x37, 0x4C, 0x81, 0x63, 0x37, 0x00,
	0x0D, 0x3B, 0x4A, 0x81, 0x63, 0x3B, 0x00, 0x0D, 0x2D, 0x34, 0x81, 0x63,
	0x2D, 0x00, 0x0D, 0x34, 0x49, 0x81, 0x63, 0x34, 0x00, 0x0D, 0x39, 0x4B,
	0x81, 0x63, 0x39, 0x00, 0x0D, 0x3C, 0x48, 0x81, 0x63, 0x3C, 0x00, 0x0D,
	0x26, 0x35, 0x81, 0x63, 0x26, 0x00, 0x0D, 0x2D, 0x4C, 0x81, 0x63, 0x2D,
	0x00, 0x0D, 0x30, 0x49, 0x81, 0x63, 0x30, 0x00, 0x0D, 0x35, 0x4D, 0x81,
	0x63, 0x35, 0x00, 0x0D, 0x2B, 0x35, 0x83, 0x47, 0x2B, 0x00, 0x19, 0x37,
	0x53, 0x00, 0x3B, 0x53, 0x83, 0x47, 0x37, 0x00, 0x00, 0x3B, 0x00, 0x19,
	0x24, 0x34, 0x81, 0x63, 0x24, 0x00, 0x0D, 0x2B, 0x4B, 0x81, 0x63, 0x2B,
	0x00, 0x0D, 0x30, 0x4B, 0x81, 0x63, 0x30, 0x00, 0x0D, 0x34, 0x4A, 0x81,
	0x63, 0x34, 0x00, 0x0D, 0x37, 0x4F, 0x00, 0x3C, 0x4F, 0x83, 0x47, 0x37,
	0x00, 0x00, 0x3C, 0x00, 0x19, 0x28, 0x35, 0x00, 0x34, 0x35, 0x83, 0x47,
	0x28, 0x00, 0x00, 0x34, 0x00, 0x19, 0x29, 0x32, 0x83, 0x47, 0x29, 0x00,
	0x19, 0x39, 0x54, 0x00, 0x3C, 0x54, 0x81, 0x63, 0x39, 0x00, 0x00, 0x3C,
	0x00, 0x0D, 0x29, 0x32, 0x81, 0x63, 0x29, 0x00, 0x0D, 0x29, 0x3E, 0x83,
	0x47, 0x29, 0x00, 0x19, 0x37, 0x59, 0x00, 0x3B, 0x59, 0x81, 0x63, 0x37,
	0x00, 0x00, 0x3B, 0x00, 0x0D, 0x29, 0x31, 0x81, 0x63, 0x29, 0x00, 0x0D,
	0x28, 0x3E, 0x83, 0x47, 0x28, 0x00, 0x19, 0x37, 0x54, 0x00, 0x3B, 0x54,
	0x81, 0x63, 0x37, 0x00, 0x00, 0x3B, 0x00, 0x0D, 0x28, 0x34, 0x81, 0x63,
	0x28, 0x00, 0x0D, 0x2D, 0x52, 0x00, 0x34, 0x52, 0x83, 0x47, 0x2D, 0x00,
	0x00, 0x34, 0x00, 0x19, 0x28, 0x3F, 0x00, 0x30, 0x3F, 0x83, 0x47, 0x28,
	0x00, 0x00, 0x30, 0x00, 0x17, 0xFF, 0x59, 0x02, 0x00, 0x00, 0x02, 0x91,
	0x26, 0x35, 0x83, 0x47, 0x26, 0x00, 0x19, 0x35, 0x56, 0x00, 0x39, 0x56,
	0x81, 0x63, 0x35, 0x00, 0x00, 0x39, 0x00, 0x0D, 0x26, 0x33, 0x81, 0x63,
	0x26, 0x00, 0x0D, 0x2B, 0x47, 0x83, 0x47, 0x2B, 0x00, 0x19, 0x37, 0x5A,
	0x00, 0x3B, 0x5A, 0x81, 0x63, 0x37, 0x00, 0x00, 0x3B, 0x00, 0x0D, 0x26,
	0x31, 0x81, 0x63, 0x26, 0x00, 0x0D, 0x24, 0x3C, 0x83, 0x47, 0x24, 0x00,
	0x19, 0x34, 0x56, 0x00, 0x37, 0x56, 0x81, 0x63, 0x34, 0x00, 0x00, 0x37,
	0x00, 0x0D, 0x24, 0x31, 0x81, 0x63, 0x24, 0x00, 0x0D, 0x24, 0x50, 0x00,
	0x30, 0x50, 0x83, 0x47, 0x24, 0x00, 0x00, 0x30, 0x00, 0x19, 0x28, 0x4B,
	0x00, 0x34, 0x4B, 0x83, 0x47, 0x28, 0x00, 0x00, 0x34, 0x00, 0x19, 0x29,
	0x34, 0x83, 0x47, 0x29, 0x00, 0x19, 0x39, 0x52, 0x00, 0x3C, 0x52, 0x81,
	0x63, 0x39, 0x00, 0x00, 0x3C, 0x00, 0x0D, 0x29, 0x31, 0x81, 0x63, 0x29,
	0x00, 0x0D, 0x2B, 0x44, 0x83, 0x47, 0x2B, 0x00, 0x19, 0x37, 0x56, 0x00,
	0x3B, 0x56, 0x81, 0x63, 0x37, 0x00, 0x00, 0x3B, 0x00, 0x0D, 0x2B, 0x34,
	0x81, 0x63, 0x2B, 0x00, 0x0D, 0x28, 0x3E, 0x83, 0x47, 0x28, 0x00, 0x19,
	0x37, 0x54, 0x00, 0x3B, 0x54, 0x81, 0x63, 0x37, 0x00, 0x00, 0x3B, 0x00,
	0x0D, 0x28, 0x32, 0x81, 0x63, 0x28, 0x00, 0x0D, 0x2D, 0x4F, 0x00, 0x34,
	0x4F, 0x83, 0x47, 0x2D, 0x00, 0x00, 0x34, 0x00, 0x19, 0x28, 0x3C, 0x00,
	0x30, 0x3C, 0x83, 0x47, 0x28, 0x00, 0x00, 0x30, 0x00, 0x17, 0xFF, 0x59,
	0x02, 0x00, 0x00, 0x02, 0x91, 0x26, 0x35, 0x83, 0x47, 0x26, 0x00, 0x19,
	0x35, 0x55, 0x00, 0x39, 0x55, 0x81, 0x63, 0x35, 0x00, 0x00, 0x39, 0x00,
	0x0D, 0x26, 0x32, 0x81, 0x63, 0x26, 0x00, 0x0D, 0x2B, 0x49, 0x83, 0x47,
	0x2B, 0x00, 0x19, 0x37, 0x59, 0x00, 0x3B, 0x59, 0x81, 0x63, 0x37, 0x00,
	0x00, 0x3B, 0x00, 0x0D, 0x2B, 0x32, 0x81, 0x63, 0x2B, 0x00, 0x0D, 0x24,
	0x36, 0x83, 0x47, 0x24, 0x00, 0x19, 0x34, 0x54, 0x00, 0x37, 0x54, 0x81,
	0x63, 0x34, 0x00, 0x00, 0x37, 0x00, 0x0D, 0x24, 0x30, 0x81, 0x63, 0x24,
	0x00, 0x0D, 0x24, 0x3D, 0x83, 0x47, 0x24, 0x00, 0x19, 0x2B, 0x4F, 0x83,
	0x47, 0x2B, 0x00, 0x19, 0x24, 0x3A, 0x83, 0x47, 0x24, 0x00, 0x19, 0x34,
	0x55, 0x00, 0x37, 0x55, 0x81, 0x63, 0x34, 0x00, 0x00, 0x37, 0x00, 0x0D,
	0x24, 0x34, 0x81, 0x63, 0x24, 0x00, 0x0D, 0x24, 0x41, 0x83, 0x47, 0x24,
	0x00, 0x19, 0x2B, 0x4F, 0x83, 0x47, 0x2B, 0x00, 0x19, 0x24, 0x3D, 0x83,
	0x47, 0x24, 0x00, 0x19, 0x34, 0x53, 0x00, 0x37, 0x53, 0x81, 0x63, 0x34,
	0x00, 0x00, 0x37, 0x00, 0x0D, 0x24, 0x32, 0x81, 0x63, 0x24, 0x00, 0x0D,
	0x24, 0x41, 0x83, 0x47, 0x24, 0x00, 0x19, 0x2B, 0x4E, 0x83, 0x47, 0x2B,
	0x00, 0x19, 0x24, 0x3B, 0x8E, 0x1F, 0x24, 0x00, 0x01, 0xFF, 0x2F, 0x00
};
