/* C:\Users\Administrator\Downloads\`lemon tree.mid (2024/8/24 13:11:17)
   起始位置(h): 00000000, 结束位置(h): 0000227F, 长度(h): 00002280 */

unsigned char rawData[8832] = {
	0x4D, 0x54, 0x68, 0x64, 0x00, 0x00, 0x00, 0x06, 0x00, 0x01, 0x00, 0x04,
	0x01, 0x00, 0x4D, 0x54, 0x72, 0x6B, 0x00, 0x00, 0x00, 0x21, 0x00, 0xFF,
	0x51, 0x03, 0x0B, 0x71, 0xB0, 0x00, 0xFF, 0x59, 0x02, 0xFC, 0x00, 0x00,
	0xFF, 0x03, 0x04, 0x00, 0x00, 0x00, 0x60, 0x00, 0xFF, 0x58, 0x04, 0x04,
	0x02, 0x18, 0x08, 0x00, 0xFF, 0x2F, 0x00, 0x4D, 0x54, 0x72, 0x6B, 0x00,
	0x00, 0x0C, 0xA9, 0x00, 0xB0, 0x00, 0x00, 0x00, 0x20, 0x00, 0x00, 0xC0,
	0x00, 0x00, 0xFF, 0x03, 0x06, 0x50, 0x69, 0x61, 0x6E, 0x6F, 0x00, 0x00,
	0xB0, 0x07, 0x7F, 0x00, 0x40, 0x00, 0x00, 0x5B, 0x30, 0x00, 0x0A, 0x33,
	0x00, 0x07, 0x64, 0x00, 0x40, 0x00, 0x00, 0x5B, 0x30, 0x00, 0x0A, 0x33,
	0x00, 0x07, 0x64, 0xA0, 0x00, 0x90, 0x48, 0x44, 0x81, 0x00, 0x80, 0x48,
	0x00, 0x00, 0x90, 0x48, 0x4D, 0x40, 0x80, 0x48, 0x00, 0x00, 0x90, 0x4D,
	0x55, 0x82, 0x40, 0x80, 0x4D, 0x00, 0x00, 0x90, 0x46, 0x3E, 0x81, 0x00,
	0x80, 0x46, 0x00, 0x00, 0x90, 0x46, 0x4C, 0x40, 0x80, 0x46, 0x00, 0x00,
	0x90, 0x4B, 0x55, 0x82, 0x40, 0x80, 0x4B, 0x00, 0x00, 0x90, 0x48, 0x47,
	0x81, 0x00, 0x80, 0x48, 0x00, 0x00, 0x90, 0x48, 0x4D, 0x81, 0x00, 0x80,
	0x48, 0x00, 0x00, 0x90, 0x48, 0x4E, 0x81, 0x00, 0x80, 0x48, 0x00, 0x00,
	0x90, 0x46, 0x46, 0x40, 0x80, 0x46, 0x00, 0x00, 0x90, 0x44, 0x47, 0x40,
	0x80, 0x44, 0x00, 0x00, 0x90, 0x46, 0x50, 0x81, 0x00, 0x80, 0x46, 0x00,
	0x00, 0x90, 0x46, 0x4C, 0x40, 0x80, 0x46, 0x00, 0x00, 0x90, 0x48, 0x4D,
	0x40, 0x80, 0x48, 0x00, 0x82, 0x00, 0x90, 0x48, 0x48, 0x81, 0x00, 0x80,
	0x48, 0x00, 0x00, 0x90, 0x48, 0x48, 0x40, 0x80, 0x48, 0x00, 0x00, 0x90,
	0x4D, 0x58, 0x81, 0x00, 0x80, 0x4D, 0x00, 0x00, 0x90, 0x4D, 0x55, 0x40,
	0x80, 0x4D, 0x00, 0x00, 0x90, 0x4D, 0x4C, 0x81, 0x00, 0x80, 0x4D, 0x00,
	0x00, 0x90, 0x46, 0x41, 0x81, 0x00, 0x80, 0x46, 0x00, 0x00, 0x90, 0x46,
	0x4A, 0x40, 0x80, 0x46, 0x00, 0x00, 0x90, 0x4B, 0x57, 0x82, 0x40, 0x80,
	0x4B, 0x00, 0x00, 0x90, 0x46, 0x42, 0x81, 0x00, 0x80, 0x46, 0x00, 0x00,
	0x90, 0x44, 0x46, 0x81, 0x00, 0x80, 0x44, 0x00, 0x00, 0x90, 0x46, 0x52,
	0x81, 0x00, 0x80, 0x46, 0x00, 0x00, 0x90, 0x46, 0x4A, 0x40, 0x80, 0x46,
	0x00, 0x00, 0x90, 0x44, 0x43, 0x40, 0x80, 0x44, 0x00, 0x00, 0x90, 0x46,
	0x4B, 0x81, 0x00, 0x80, 0x46, 0x00, 0x00, 0x90, 0x46, 0x4C, 0x40, 0x80,
	0x46, 0x00, 0x00, 0x90, 0x48, 0x56, 0x40, 0x80, 0x48, 0x00, 0x40, 0x90,
	0x4B, 0x47, 0x81, 0x00, 0x80, 0x4B, 0x00, 0x00, 0x90, 0x48, 0x45, 0x40,
	0x80, 0x48, 0x00, 0x00, 0x90, 0x46, 0x47, 0x81, 0x00, 0x80, 0x46, 0x00,
	0x00, 0x90, 0x46, 0x51, 0x40, 0x80, 0x46, 0x00, 0x00, 0x90, 0x44, 0x47,
	0x40, 0x80, 0x44, 0x00, 0x00, 0x90, 0x46, 0x54, 0x81, 0x00, 0x80, 0x46,
	0x00, 0x00, 0x90, 0x48, 0x52, 0x81, 0x00, 0x80, 0x48, 0x00, 0x82, 0x00,
	0x90, 0x46, 0x41, 0x40, 0x80, 0x46, 0x00, 0x00, 0x90, 0x48, 0x4E, 0x81,
	0x00, 0x80, 0x48, 0x00, 0x00, 0x90, 0x46, 0x46, 0x40, 0x80, 0x46, 0x00,
	0x00, 0x90, 0x44, 0x49, 0x81, 0x00, 0x80, 0x44, 0x00, 0x00, 0x90, 0x41,
	0x48, 0x81, 0x00, 0x80, 0x41, 0x00, 0x86, 0x00, 0x90, 0x48, 0x48, 0x81,
	0x00, 0x80, 0x48, 0x00, 0x00, 0x90, 0x48, 0x47, 0x40, 0x80, 0x48, 0x00,
	0x00, 0x90, 0x4D, 0x57, 0x82, 0x40, 0x80, 0x4D, 0x00, 0x00, 0x90, 0x46,
	0x3F, 0x81, 0x00, 0x80, 0x46, 0x00, 0x00, 0x90, 0x46, 0x4E, 0x40, 0x80,
	0x46, 0x00, 0x00, 0x90, 0x4B, 0x58, 0x82, 0x40, 0x80, 0x4B, 0x00, 0x00,
	0x90, 0x48, 0x44, 0x81, 0x00, 0x80, 0x48, 0x00, 0x00, 0x90, 0x48, 0x49,
	0x81, 0x00, 0x80, 0x48, 0x00, 0x00, 0x90, 0x48, 0x4D, 0x81, 0x00, 0x80,
	0x48, 0x00, 0x00, 0x90, 0x46, 0x45, 0x40, 0x80, 0x46, 0x00, 0x00, 0x90,
	0x44, 0x44, 0x40, 0x80, 0x44, 0x00, 0x00, 0x90, 0x46, 0x4F, 0x81, 0x00,
	0x80, 0x46, 0x00, 0x00, 0x90, 0x46, 0x4A, 0x40, 0x80, 0x46, 0x00, 0x00,
	0x90, 0x48, 0x50, 0x40, 0x80, 0x48, 0x00, 0x82, 0x00, 0x90, 0x48, 0x45,
	0x81, 0x00, 0x80, 0x48, 0x00, 0x00, 0x90, 0x48, 0x48, 0x40, 0x80, 0x48,
	0x00, 0x00, 0x90, 0x4D, 0x58, 0x81, 0x00, 0x80, 0x4D, 0x00, 0x00, 0x90,
	0x50, 0x52, 0x81, 0x40, 0x80, 0x50, 0x00, 0x00, 0x90, 0x4F, 0x48, 0x81,
	0x00, 0x80, 0x4F, 0x00, 0x00, 0x90, 0x4B, 0x46, 0x40, 0x80, 0x4B, 0x00,
	0x00, 0x90, 0x48, 0x44, 0x82, 0x40, 0x80, 0x48, 0x00, 0x00, 0x90, 0x46,
	0x49, 0x81, 0x00, 0x80, 0x46, 0x00, 0x00, 0x90, 0x44, 0x48, 0x81, 0x00,
	0x80, 0x44, 0x00, 0x00, 0x90, 0x46, 0x4F, 0x81, 0x00, 0x80, 0x46, 0x00,
	0x00, 0x90, 0x46, 0x53, 0x40, 0x80, 0x46, 0x00, 0x00, 0x90, 0x44, 0x46,
	0x40, 0x80, 0x44, 0x00, 0x00, 0x90, 0x46, 0x54, 0x81, 0x00, 0x80, 0x46,
	0x00, 0x00, 0x90, 0x46, 0x52, 0x40, 0x80, 0x46, 0x00, 0x00, 0x90, 0x48,
	0x4E, 0x40, 0x80, 0x48, 0x00, 0x40, 0x90, 0x4B, 0x46, 0x81, 0x00, 0x80,
	0x4B, 0x00, 0x00, 0x90, 0x48, 0x44, 0x40, 0x80, 0x48, 0x00, 0x00, 0x90,
	0x46, 0x46, 0x81, 0x00, 0x80, 0x46, 0x00, 0x00, 0x90, 0x46, 0x4F, 0x40,
	0x80, 0x46, 0x00, 0x00, 0x90, 0x44, 0x45, 0x40, 0x80, 0x44, 0x00, 0x00,
	0x90, 0x46, 0x4E, 0x81, 0x00, 0x80, 0x46, 0x00, 0x00, 0x90, 0x48, 0x51,
	0x81, 0x00, 0x80, 0x48, 0x00, 0x82, 0x00, 0x90, 0x46, 0x46, 0x40, 0x80,
	0x46, 0x00, 0x00, 0x90, 0x48, 0x4D, 0x81, 0x00, 0x80, 0x48, 0x00, 0x00,
	0x90, 0x46, 0x46, 0x40, 0x80, 0x46, 0x00, 0x00, 0x90, 0x44, 0x46, 0x81,
	0x00, 0x80, 0x44, 0x00, 0x00, 0x90, 0x41, 0x43, 0x81, 0x00, 0x80, 0x41,
	0x00, 0x85, 0x00, 0x90, 0x3F, 0x47, 0x81, 0x00, 0x80, 0x3F, 0x00, 0x00,
	0x90, 0x48, 0x57, 0x81, 0x00, 0x80, 0x48, 0x00, 0x00, 0x90, 0x49, 0x54,
	0x40, 0x80, 0x49, 0x00, 0x00, 0x90, 0x4B, 0x51, 0x82, 0x40, 0x80, 0x4B,
	0x00, 0x00, 0x90, 0x4B, 0x4F, 0x81, 0x00, 0x80, 0x4B, 0x00, 0x00, 0x90,
	0x4D, 0x53, 0x40, 0x80, 0x4D, 0x00, 0x00, 0x90, 0x46, 0x3D, 0x82, 0x40,
	0x80, 0x46, 0x00, 0x00, 0x90, 0x44, 0x44, 0x40, 0x80, 0x44, 0x00, 0x00,
	0x90, 0x44, 0x48, 0x40, 0x80, 0x44, 0x00, 0x00, 0x90, 0x44, 0x49, 0x40,
	0x80, 0x44, 0x00, 0x00, 0x90, 0x44, 0x4D, 0x40, 0x80, 0x44, 0x00, 0x00,
	0x90, 0x44, 0x4C, 0x40, 0x80, 0x44, 0x00, 0x00, 0x90, 0x44, 0x4B, 0x40,
	0x80, 0x44, 0x00, 0x00, 0x90, 0x44, 0x4D, 0x40, 0x80, 0x44, 0x00, 0x00,
	0x90, 0x46, 0x51, 0x40, 0x80, 0x46, 0x00, 0x00, 0x90, 0x48, 0x52, 0x81,
	0x00, 0x80, 0x48, 0x00, 0x00, 0x90, 0x4B, 0x55, 0x40, 0x80, 0x4B, 0x00,
	0x00, 0x90, 0x48, 0x48, 0x40, 0x80, 0x48, 0x00, 0x81, 0x00, 0x90, 0x48,
	0x45, 0x81, 0x00, 0x80, 0x48, 0x00, 0x00, 0x90, 0x46, 0x47, 0x81, 0x00,
	0x80, 0x46, 0x00, 0x00, 0x90, 0x44, 0x4A, 0x81, 0x00, 0x80, 0x44, 0x00,
	0x00, 0x90, 0x44, 0x48, 0x81, 0x00, 0x80, 0x44, 0x00, 0x00, 0x90, 0x44,
	0x4B, 0x40, 0x80, 0x44, 0x00, 0x00, 0x90, 0x46, 0x50, 0x82, 0x40, 0x80,
	0x46, 0x00, 0x00, 0x90, 0x44, 0x44, 0x40, 0x80, 0x44, 0x00, 0x00, 0x90,
	0x44, 0x4A, 0x40, 0x80, 0x44, 0x00, 0x00, 0x90, 0x44, 0x52, 0x40, 0x80,
	0x44, 0x00, 0x00, 0x90, 0x44, 0x48, 0x40, 0x80, 0x44, 0x00, 0x00, 0x90,
	0x46, 0x51, 0x81, 0x00, 0x80, 0x46, 0x00, 0x00, 0x90, 0x48, 0x53, 0x40,
	0x80, 0x48, 0x00, 0x00, 0x90, 0x48, 0x50, 0x82, 0x40, 0x80, 0x48, 0x00,
	0x00, 0x90, 0x44, 0x58, 0x00, 0x48, 0x58, 0x00, 0x4B, 0x58, 0x82, 0x00,
	0x80, 0x4B, 0x00, 0x00, 0x44, 0x00, 0x00, 0x48, 0x00, 0x81, 0x00, 0x90,
	0x3F, 0x43, 0x81, 0x00, 0x80, 0x3F, 0x00, 0x00, 0x90, 0x48, 0x5E, 0x81,
	0x00, 0x80, 0x48, 0x00, 0x00, 0x90, 0x49, 0x52, 0x40, 0x80, 0x49, 0x00,
	0x00, 0x90, 0x4B, 0x53, 0x82, 0x40, 0x80, 0x4B, 0x00, 0x00, 0x90, 0x4B,
	0x4D, 0x81, 0x00, 0x80, 0x4B, 0x00, 0x00, 0x90, 0x4D, 0x51, 0x40, 0x80,
	0x4D, 0x00, 0x00, 0x90, 0x46, 0x3F, 0x82, 0x40, 0x80, 0x46, 0x00, 0x00,
	0x90, 0x44, 0x48, 0x40, 0x80, 0x44, 0x00, 0x00, 0x90, 0x44, 0x53, 0x40,
	0x80, 0x44, 0x00, 0x00, 0x90, 0x44, 0x4E, 0x40, 0x80, 0x44, 0x00, 0x00,
	0x90, 0x44, 0x4D, 0x40, 0x80, 0x44, 0x00, 0x00, 0x90, 0x44, 0x4E, 0x40,
	0x80, 0x44, 0x00, 0x00, 0x90, 0x44, 0x47, 0x40, 0x80, 0x44, 0x00, 0x00,
	0x90, 0x44, 0x4F, 0x40, 0x80, 0x44, 0x00, 0x00, 0x90, 0x46, 0x53, 0x40,
	0x80, 0x46, 0x00, 0x00, 0x90, 0x48, 0x53, 0x81, 0x00, 0x80, 0x48, 0x00,
	0x00, 0x90, 0x4B, 0x55, 0x40, 0x80, 0x4B, 0x00, 0x00, 0x90, 0x48, 0x4A,
	0x40, 0x80, 0x48, 0x00, 0x40, 0x90, 0x4B, 0x45, 0x81, 0x00, 0x80, 0x4B,
	0x00, 0x00, 0x90, 0x4B, 0x4C, 0x40, 0x80, 0x4B, 0x00, 0x00, 0x90, 0x4B,
	0x48, 0x81, 0x00, 0x80, 0x4B, 0x00, 0x00, 0x90, 0x49, 0x49, 0x81, 0x00,
	0x80, 0x49, 0x00, 0x00, 0x90, 0x49, 0x4E, 0x81, 0x00, 0x80, 0x49, 0x00,
	0x00, 0x90, 0x48, 0x48, 0x83, 0x00, 0x80, 0x48, 0x00, 0x00, 0x90, 0x46,
	0x45, 0x40, 0x80, 0x46, 0x00, 0x00, 0x90, 0x46, 0x49, 0x40, 0x80, 0x46,
	0x00, 0x00, 0x90, 0x46, 0x4D, 0x40, 0x80, 0x46, 0x00, 0x00, 0x90, 0x44,
	0x47, 0x40, 0x80, 0x44, 0x00, 0x00, 0x90, 0x48, 0x56, 0x81, 0x00, 0x80,
	0x48, 0x00, 0x00, 0x90, 0x44, 0x49, 0x40, 0x80, 0x44, 0x00, 0x00, 0x90,
	0x46, 0x53, 0x82, 0x40, 0x80, 0x46, 0x00, 0x00, 0x90, 0x4F, 0x58, 0x84,
	0x00, 0x80, 0x4F, 0x00, 0x00, 0x90, 0x48, 0x41, 0x82, 0x00, 0x80, 0x48,
	0x00, 0x83, 0x00, 0x90, 0x48, 0x44, 0x40, 0x80, 0x48, 0x00, 0x00, 0x90,
	0x49, 0x4E, 0x40, 0x80, 0x49, 0x00, 0x00, 0x90, 0x4B, 0x50, 0x40, 0x80,
	0x4B, 0x00, 0x00, 0x90, 0x49, 0x4C, 0x81, 0x00, 0x80, 0x49, 0x00, 0x00,
	0x90, 0x48, 0x49, 0x40, 0x80, 0x48, 0x00, 0x00, 0x90, 0x48, 0x4E, 0x81,
	0x00, 0x80, 0x48, 0x00, 0x00, 0x90, 0x4D, 0x56, 0x40, 0x80, 0x4D, 0x00,
	0x00, 0x90, 0x48, 0x41, 0x82, 0x40, 0x80, 0x48, 0x00, 0x81, 0x00, 0x90,
	0x48, 0x42, 0x40, 0x80, 0x48, 0x00, 0x00, 0x90, 0x49, 0x4F, 0x40, 0x80,
	0x49, 0x00, 0x00, 0x90, 0x4B, 0x50, 0x40, 0x80, 0x4B, 0x00, 0x00, 0x90,
	0x49, 0x4A, 0x81, 0x00, 0x80, 0x49, 0x00, 0x00, 0x90, 0x48, 0x4A, 0x40,
	0x80, 0x48, 0x00, 0x00, 0x90, 0x4D, 0x51, 0x81, 0x00, 0x80, 0x4D, 0x00,
	0x00, 0x90, 0x48, 0x47, 0x40, 0x80, 0x48, 0x00, 0x00, 0x90, 0x46, 0x44,
	0x82, 0x40, 0x80, 0x46, 0x00, 0x82, 0x00, 0x90, 0x46, 0x43, 0x40, 0x80,
	0x46, 0x00, 0x00, 0x90, 0x48, 0x52, 0x81, 0x00, 0x80, 0x48, 0x00, 0x00,
	0x90, 0x46, 0x47, 0x40, 0x80, 0x46, 0x00, 0x00, 0x90, 0x44, 0x4A, 0x81,
	0x00, 0x80, 0x44, 0x00, 0x00, 0x90, 0x41, 0x45, 0x83, 0x00, 0x80, 0x41,
	0x00, 0x84, 0x00, 0x90, 0x48, 0x3F, 0x81, 0x00, 0x80, 0x48, 0x00, 0x00,
	0x90, 0x48, 0x4B, 0x40, 0x80, 0x48, 0x00, 0x00, 0x90, 0x4D, 0x53, 0x82,
	0x40, 0x80, 0x4D, 0x00, 0x00, 0x90, 0x46, 0x3A, 0x81, 0x00, 0x80, 0x46,
	0x00, 0x00, 0x90, 0x46, 0x4A, 0x40, 0x80, 0x46, 0x00, 0x00, 0x90, 0x4B,
	0x59, 0x82, 0x40, 0x80, 0x4B, 0x00, 0x00, 0x90, 0x48, 0x43, 0x81, 0x00,
	0x80, 0x48, 0x00, 0x00, 0x90, 0x48, 0x47, 0x81, 0x00, 0x80, 0x48, 0x00,
	0x00, 0x90, 0x48, 0x4F, 0x81, 0x00, 0x80, 0x48, 0x00, 0x00, 0x90, 0x46,
	0x48, 0x40, 0x80, 0x46, 0x00, 0x00, 0x90, 0x44, 0x44, 0x40, 0x80, 0x44,
	0x00, 0x00, 0x90, 0x46, 0x4E, 0x81, 0x00, 0x80, 0x46, 0x00, 0x00, 0x90,
	0x46, 0x4D, 0x40, 0x80, 0x46, 0x00, 0x00, 0x90, 0x48, 0x52, 0x40, 0x80,
	0x48, 0x00, 0x82, 0x00, 0x90, 0x48, 0x41, 0x81, 0x00, 0x80, 0x48, 0x00,
	0x00, 0x90, 0x48, 0x4C, 0x40, 0x80, 0x48, 0x00, 0x00, 0x90, 0x4D, 0x56,
	0x81, 0x00, 0x80, 0x4D, 0x00, 0x00, 0x90, 0x50, 0x4F, 0x81, 0x40, 0x80,
	0x50, 0x00, 0x00, 0x90, 0x4F, 0x48, 0x81, 0x00, 0x80, 0x4F, 0x00, 0x00,
	0x90, 0x4B, 0x44, 0x40, 0x80, 0x4B, 0x00, 0x00, 0x90, 0x48, 0x46, 0x82,
	0x40, 0x80, 0x48, 0x00, 0x00, 0x90, 0x46, 0x47, 0x81, 0x00, 0x80, 0x46,
	0x00, 0x00, 0x90, 0x44, 0x4A, 0x81, 0x00, 0x80, 0x44, 0x00, 0x00, 0x90,
	0x46, 0x4E, 0x81, 0x00, 0x80, 0x46, 0x00, 0x00, 0x90, 0x46, 0x49, 0x40,
	0x80, 0x46, 0x00, 0x00, 0x90, 0x44, 0x45, 0x40, 0x80, 0x44, 0x00, 0x00,
	0x90, 0x46, 0x50, 0x81, 0x00, 0x80, 0x46, 0x00, 0x00, 0x90, 0x46, 0x4D,
	0x40, 0x80, 0x46, 0x00, 0x00, 0x90, 0x48, 0x4D, 0x40, 0x80, 0x48, 0x00,
	0x40, 0x90, 0x4B, 0x48, 0x81, 0x00, 0x80, 0x4B, 0x00, 0x00, 0x90, 0x48,
	0x47, 0x40, 0x80, 0x48, 0x00, 0x00, 0x90, 0x46, 0x46, 0x81, 0x00, 0x80,
	0x46, 0x00, 0x00, 0x90, 0x46, 0x47, 0x40, 0x80, 0x46, 0x00, 0x00, 0x90,
	0x44, 0x49, 0x40, 0x80, 0x44, 0x00, 0x00, 0x90, 0x46, 0x50, 0x81, 0x00,
	0x80, 0x46, 0x00, 0x00, 0x90, 0x48, 0x54, 0x81, 0x00, 0x80, 0x48, 0x00,
	0x82, 0x00, 0x90, 0x46, 0x3E, 0x40, 0x80, 0x46, 0x00, 0x00, 0x90, 0x48,
	0x4E, 0x81, 0x00, 0x80, 0x48, 0x00, 0x00, 0x90, 0x46, 0x47, 0x40, 0x80,
	0x46, 0x00, 0x00, 0x90, 0x44, 0x47, 0x81, 0x00, 0x80, 0x44, 0x00, 0x00,
	0x90, 0x41, 0x41, 0x81, 0x00, 0x80, 0x41, 0x00, 0x87, 0x00, 0x90, 0x48,
	0x44, 0x82, 0x00, 0x80, 0x48, 0x00, 0x00, 0x90, 0x49, 0x4F, 0x81, 0x00,
	0x80, 0x49, 0x00, 0x00, 0x90, 0x49, 0x52, 0x81, 0x40, 0x80, 0x49, 0x00,
	0x00, 0x90, 0x48, 0x4B, 0x40, 0x80, 0x48, 0x00, 0x82, 0x00, 0x90, 0x48,
	0x45, 0x81, 0x00, 0x80, 0x48, 0x00, 0x00, 0x90, 0x46, 0x48, 0x81, 0x00,
	0x80, 0x46, 0x00, 0x00, 0x90, 0x46, 0x49, 0x81, 0x00, 0x80, 0x46, 0x00,
	0x00, 0x90, 0x44, 0x49, 0x40, 0x80, 0x44, 0x00, 0x00, 0x90, 0x41, 0x42,
	0x84, 0x40, 0x80, 0x41, 0x00, 0x81, 0x00, 0x90, 0x46, 0x48, 0x82, 0x00,
	0x80, 0x46, 0x00, 0x00, 0x90, 0x48, 0x4F, 0x81, 0x00, 0x80, 0x48, 0x00,
	0x00, 0x90, 0x48, 0x4D, 0x81, 0x40, 0x80, 0x48, 0x00, 0x00, 0x90, 0x46,
	0x45, 0x40, 0x80, 0x46, 0x00, 0x82, 0x00, 0x90, 0x44, 0x47, 0x81, 0x00,
	0x80, 0x44, 0x00, 0x00, 0x90, 0x44, 0x4E, 0x81, 0x00, 0x80, 0x44, 0x00,
	0x00, 0x90, 0x46, 0x54, 0x81, 0x00, 0x80, 0x46, 0x00, 0x00, 0x90, 0x44,
	0x49, 0x81, 0x00, 0x80, 0x44, 0x00, 0x40, 0x90, 0x48, 0x46, 0x40, 0x80,
	0x48, 0x00, 0x00, 0x90, 0x49, 0x4F, 0x40, 0x80, 0x49, 0x00, 0x00, 0x90,
	0x48, 0x46, 0x40, 0x80, 0x48, 0x00, 0x00, 0x90, 0x49, 0x4C, 0x40, 0x80,
	0x49, 0x00, 0x00, 0x90, 0x48, 0x47, 0x40, 0x80, 0x48, 0x00, 0x00, 0x90,
	0x48, 0x4E, 0x81, 0x00, 0x80, 0x48, 0x00, 0x00, 0x90, 0x48, 0x4B, 0x81,
	0x00, 0x80, 0x48, 0x00, 0x00, 0x90, 0x48, 0x4C, 0x40, 0x80, 0x48, 0x00,
	0x00, 0x90, 0x4D, 0x53, 0x82, 0x40, 0x80, 0x4D, 0x00, 0x00, 0x90, 0x46,
	0x3D, 0x81, 0x00, 0x80, 0x46, 0x00, 0x00, 0x90, 0x46, 0x4A, 0x40, 0x80,
	0x46, 0x00, 0x00, 0x90, 0x4B, 0x56, 0x82, 0x40, 0x80, 0x4B, 0x00, 0x00,
	0x90, 0x48, 0x43, 0x81, 0x00, 0x80, 0x48, 0x00, 0x00, 0x90, 0x48, 0x4D,
	0x81, 0x00, 0x80, 0x48, 0x00, 0x00, 0x90, 0x48, 0x4D, 0x81, 0x00, 0x80,
	0x48, 0x00, 0x00, 0x90, 0x46, 0x46, 0x40, 0x80, 0x46, 0x00, 0x00, 0x90,
	0x44, 0x47, 0x40, 0x80, 0x44, 0x00, 0x00, 0x90, 0x46, 0x4F, 0x81, 0x00,
	0x80, 0x46, 0x00, 0x00, 0x90, 0x46, 0x4D, 0x40, 0x80, 0x46, 0x00, 0x00,
	0x90, 0x48, 0x50, 0x40, 0x80, 0x48, 0x00, 0x40, 0x90, 0x4B, 0x44, 0x81,
	0x00, 0x80, 0x4B, 0x00, 0x00, 0x90, 0x48, 0x46, 0x40, 0x80, 0x48, 0x00,
	0x00, 0x90, 0x46, 0x44, 0x81, 0x00, 0x80, 0x46, 0x00, 0x00, 0x90, 0x46,
	0x50, 0x40, 0x80, 0x46, 0x00, 0x00, 0x90, 0x44, 0x46, 0x40, 0x80, 0x44,
	0x00, 0x00, 0x90, 0x46, 0x4E, 0x81, 0x00, 0x80, 0x46, 0x00, 0x00, 0x90,
	0x48, 0x56, 0x81, 0x00, 0x80, 0x48, 0x00, 0x82, 0x00, 0x90, 0x46, 0x46,
	0x40, 0x80, 0x46, 0x00, 0x00, 0x90, 0x48, 0x50, 0x81, 0x00, 0x80, 0x48,
	0x00, 0x00, 0x90, 0x46, 0x4B, 0x40, 0x80, 0x46, 0x00, 0x00, 0x90, 0x44,
	0x45, 0x81, 0x00, 0x80, 0x44, 0x00, 0x00, 0x90, 0x41, 0x49, 0x81, 0x00,
	0x80, 0x41, 0x00, 0x85, 0x00, 0x90, 0x3F, 0x3F, 0x81, 0x00, 0x80, 0x3F,
	0x00, 0x00, 0x90, 0x48, 0x57, 0x81, 0x00, 0x80, 0x48, 0x00, 0x00, 0x90,
	0x49, 0x55, 0x40, 0x80, 0x49, 0x00, 0x00, 0x90, 0x4B, 0x50, 0x82, 0x40,
	0x80, 0x4B, 0x00, 0x00, 0x90, 0x4B, 0x4A, 0x81, 0x00, 0x80, 0x4B, 0x00,
	0x00, 0x90, 0x4D, 0x4E, 0x40, 0x80, 0x4D, 0x00, 0x00, 0x90, 0x46, 0x40,
	0x82, 0x40, 0x80, 0x46, 0x00, 0x00, 0x90, 0x44, 0x43, 0x40, 0x80, 0x44,
	0x00, 0x00, 0x90, 0x44, 0x4B, 0x40, 0x80, 0x44, 0x00, 0x00, 0x90, 0x44,
	0x4A, 0x40, 0x80, 0x44, 0x00, 0x00, 0x90, 0x44, 0x4A, 0x40, 0x80, 0x44,
	0x00, 0x00, 0x90, 0x44, 0x48, 0x40, 0x80, 0x44, 0x00, 0x00, 0x90, 0x44,
	0x4B, 0x40, 0x80, 0x44, 0x00, 0x00, 0x90, 0x44, 0x4D, 0x40, 0x80, 0x44,
	0x00, 0x00, 0x90, 0x46, 0x56, 0x40, 0x80, 0x46, 0x00, 0x00, 0x90, 0x48,
	0x52, 0x81, 0x00, 0x80, 0x48, 0x00, 0x00, 0x90, 0x4B, 0x55, 0x40, 0x80,
	0x4B, 0x00, 0x00, 0x90, 0x48, 0x48, 0x40, 0x80, 0x48, 0x00, 0x81, 0x00,
	0x90, 0x48, 0x45, 0x81, 0x00, 0x80, 0x48, 0x00, 0x00, 0x90, 0x46, 0x44,
	0x81, 0x00, 0x80, 0x46, 0x00, 0x00, 0x90, 0x44, 0x46, 0x81, 0x00, 0x80,
	0x44, 0x00, 0x00, 0x90, 0x44, 0x48, 0x81, 0x00, 0x80, 0x44, 0x00, 0x00,
	0x90, 0x44, 0x4A, 0x40, 0x80, 0x44, 0x00, 0x00, 0x90, 0x46, 0x50, 0x82,
	0x40, 0x80, 0x46, 0x00, 0x00, 0x90, 0x44, 0x44, 0x40, 0x80, 0x44, 0x00,
	0x00, 0x90, 0x44, 0x4C, 0x40, 0x80, 0x44, 0x00, 0x00, 0x90, 0x44, 0x4B,
	0x40, 0x80, 0x44, 0x00, 0x00, 0x90, 0x44, 0x49, 0x40, 0x80, 0x44, 0x00,
	0x00, 0x90, 0x46, 0x52, 0x81, 0x00, 0x80, 0x46, 0x00, 0x00, 0x90, 0x48,
	0x53, 0x40, 0x80, 0x48, 0x00, 0x00, 0x90, 0x48, 0x4D, 0x82, 0x40, 0x80,
	0x48, 0x00, 0x00, 0x90, 0x44, 0x51, 0x00, 0x48, 0x51, 0x00, 0x4B, 0x51,
	0x82, 0x00, 0x80, 0x48, 0x00, 0x00, 0x4B, 0x00, 0x00, 0x44, 0x00, 0x81,
	0x00, 0x90, 0x3F, 0x45, 0x81, 0x00, 0x80, 0x3F, 0x00, 0x00, 0x90, 0x48,
	0x5D, 0x81, 0x00, 0x80, 0x48, 0x00, 0x00, 0x90, 0x49, 0x52, 0x40, 0x80,
	0x49, 0x00, 0x00, 0x90, 0x4B, 0x55, 0x82, 0x40, 0x80, 0x4B, 0x00, 0x00,
	0x90, 0x4B, 0x52, 0x81, 0x00, 0x80, 0x4B, 0x00, 0x00, 0x90, 0x4D, 0x53,
	0x40, 0x80, 0x4D, 0x00, 0x00, 0x90, 0x46, 0x45, 0x82, 0x40, 0x80, 0x46,
	0x00, 0x00, 0x90, 0x44, 0x4A, 0x40, 0x80, 0x44, 0x00, 0x00, 0x90, 0x44,
	0x4C, 0x40, 0x80, 0x44, 0x00, 0x00, 0x90, 0x44, 0x4C, 0x40, 0x80, 0x44,
	0x00, 0x00, 0x90, 0x44, 0x4F, 0x40, 0x80, 0x44, 0x00, 0x00, 0x90, 0x44,
	0x4A, 0x40, 0x80, 0x44, 0x00, 0x00, 0x90, 0x44, 0x4B, 0x40, 0x80, 0x44,
	0x00, 0x00, 0x90, 0x44, 0x4B, 0x40, 0x80, 0x44, 0x00, 0x00, 0x90, 0x46,
	0x52, 0x40, 0x80, 0x46, 0x00, 0x00, 0x90, 0x48, 0x51, 0x81, 0x00, 0x80,
	0x48, 0x00, 0x00, 0x90, 0x4B, 0x55, 0x40, 0x80, 0x4B, 0x00, 0x00, 0x90,
	0x48, 0x46, 0x40, 0x80, 0x48, 0x00, 0x40, 0x90, 0x4B, 0x48, 0x81, 0x00,
	0x80, 0x4B, 0x00, 0x00, 0x90, 0x4B, 0x4A, 0x40, 0x80, 0x4B, 0x00, 0x00,
	0x90, 0x4B, 0x4D, 0x81, 0x00, 0x80, 0x4B, 0x00, 0x00, 0x90, 0x49, 0x48,
	0x81, 0x00, 0x80, 0x49, 0x00, 0x00, 0x90, 0x49, 0x4A, 0x81, 0x00, 0x80,
	0x49, 0x00, 0x00, 0x90, 0x48, 0x42, 0x81, 0x00, 0x80, 0x48, 0x00, 0x00,
	0x90, 0x46, 0x42, 0x82, 0x00, 0x80, 0x46, 0x00, 0x00, 0x90, 0x46, 0x4F,
	0x40, 0x80, 0x46, 0x00, 0x00, 0x90, 0x46, 0x4E, 0x40, 0x80, 0x46, 0x00,
	0x00, 0x90, 0x46, 0x51, 0x40, 0x80, 0x46, 0x00, 0x00, 0x90, 0x44, 0x48,
	0x40, 0x80, 0x44, 0x00, 0x00, 0x90, 0x48, 0x53, 0x81, 0x00, 0x80, 0x48,
	0x00, 0x00, 0x90, 0x44, 0x44, 0x40, 0x80, 0x44, 0x00, 0x00, 0x90, 0x46,
	0x51, 0x82, 0x40, 0x80, 0x46, 0x00, 0x00, 0x90, 0x4B, 0x56, 0x82, 0x00,
	0x80, 0x4B, 0x00, 0x81, 0x00, 0x90, 0x3F, 0x43, 0x81, 0x00, 0x80, 0x3F,
	0x00, 0x00, 0x90, 0x48, 0x5C, 0x81, 0x00, 0x80, 0x48, 0x00, 0x00, 0x90,
	0x49, 0x52, 0x40, 0x80, 0x49, 0x00, 0x00, 0x90, 0x4B, 0x53, 0x82, 0x40,
	0x80, 0x4B, 0x00, 0x00, 0x90, 0x4B, 0x47, 0x81, 0x00, 0x80, 0x4B, 0x00,
	0x00, 0x90, 0x4D, 0x51, 0x40, 0x80, 0x4D, 0x00, 0x00, 0x90, 0x46, 0x3E,
	0x82, 0x40, 0x80, 0x46, 0x00, 0x00, 0x90, 0x44, 0x49, 0x40, 0x80, 0x44,
	0x00, 0x00, 0x90, 0x44, 0x4E, 0x40, 0x80, 0x44, 0x00, 0x00, 0x90, 0x44,
	0x4A, 0x40, 0x80, 0x44, 0x00, 0x00, 0x90, 0x44, 0x4D, 0x40, 0x80, 0x44,
	0x00, 0x00, 0x90, 0x44, 0x4C, 0x40, 0x80, 0x44, 0x00, 0x00, 0x90, 0x44,
	0x4D, 0x40, 0x80, 0x44, 0x00, 0x00, 0x90, 0x44, 0x50, 0x40, 0x80, 0x44,
	0x00, 0x00, 0x90, 0x46, 0x52, 0x40, 0x80, 0x46, 0x00, 0x00, 0x90, 0x48,
	0x51, 0x81, 0x00, 0x80, 0x48, 0x00, 0x00, 0x90, 0x4B, 0x53, 0x40, 0x80,
	0x4B, 0x00, 0x00, 0x90, 0x48, 0x4A, 0x40, 0x80, 0x48, 0x00, 0x40, 0x90,
	0x4B, 0x49, 0x81, 0x00, 0x80, 0x4B, 0x00, 0x00, 0x90, 0x4B, 0x46, 0x40,
	0x80, 0x4B, 0x00, 0x00, 0x90, 0x4B, 0x47, 0x81, 0x00, 0x80, 0x4B, 0x00,
	0x00, 0x90, 0x49, 0x43, 0x81, 0x00, 0x80, 0x49, 0x00, 0x00, 0x90, 0x49,
	0x49, 0x81, 0x00, 0x80, 0x49, 0x00, 0x00, 0x90, 0x48, 0x46, 0x81, 0x00,
	0x80, 0x48, 0x00, 0x00, 0x90, 0x46, 0x47, 0x82, 0x00, 0x80, 0x46, 0x00,
	0x81, 0x00, 0x90, 0x4B, 0x44, 0x81, 0x00, 0x80, 0x4B, 0x00, 0x00, 0x90,
	0x4B, 0x48, 0x81, 0x00, 0x80, 0x4B, 0x00, 0x00, 0x90, 0x49, 0x48, 0x81,
	0x00, 0x80, 0x49, 0x00, 0x00, 0x90, 0x50, 0x5C, 0x81, 0x00, 0x80, 0x50,
	0x00, 0x00, 0x90, 0x48, 0x40, 0x81, 0x00, 0x80, 0x48, 0x00, 0x00, 0x90,
	0x46, 0x47, 0x82, 0x00, 0x80, 0x46, 0x00, 0x81, 0x00, 0x90, 0x4B, 0x46,
	0x81, 0x00, 0x80, 0x4B, 0x00, 0x00, 0x90, 0x4B, 0x4D, 0x81, 0x00, 0x80,
	0x4B, 0x00, 0x00, 0x90, 0x49, 0x45, 0x81, 0x00, 0x80, 0x49, 0x00, 0x00,
	0x90, 0x50, 0x5D, 0x81, 0x00, 0x80, 0x50, 0x00, 0x00, 0x90, 0x48, 0x44,
	0x81, 0x00, 0x80, 0x48, 0x00, 0x00, 0x90, 0x46, 0x46, 0x82, 0x00, 0x80,
	0x46, 0x00, 0x00, 0x90, 0x46, 0x4C, 0x40, 0x80, 0x46, 0x00, 0x00, 0x90,
	0x46, 0x4F, 0x40, 0x80, 0x46, 0x00, 0x00, 0x90, 0x46, 0x4A, 0x40, 0x80,
	0x46, 0x00, 0x00, 0x90, 0x48, 0x55, 0x40, 0x80, 0x48, 0x00, 0x00, 0x90,
	0x46, 0x49, 0x81, 0x00, 0x80, 0x46, 0x00, 0x00, 0x90, 0x44, 0x49, 0x40,
	0x80, 0x44, 0x00, 0x00, 0x90, 0x44, 0x4A, 0x84, 0x40, 0x80, 0x44, 0x00,
	0x00, 0xFF, 0x2F, 0x00, 0x4D, 0x54, 0x72, 0x6B, 0x00, 0x00, 0x0C, 0x2F,
	0x00, 0xB1, 0x00, 0x00, 0x00, 0x20, 0x00, 0x00, 0xC1, 0x00, 0x00, 0xFF,
	0x03, 0x04, 0xE6, 0x97, 0xA0, 0x00, 0x00, 0xB1, 0x07, 0x7F, 0x81, 0x00,
	0x91, 0x38, 0x51, 0x00, 0x35, 0x51, 0x81, 0x00, 0x81, 0x38, 0x00, 0x00,
	0x35, 0x00, 0x81, 0x00, 0x91, 0x38, 0x51, 0x00, 0x35, 0x51, 0x81, 0x00,
	0x81, 0x38, 0x00, 0x00, 0x35, 0x00, 0x81, 0x00, 0x91, 0x37, 0x57, 0x00,
	0x33, 0x57, 0x81, 0x00, 0x81, 0x37, 0x00, 0x00, 0x33, 0x00, 0x81, 0x00,
	0x91, 0x37, 0x55, 0x00, 0x33, 0x55, 0x81, 0x00, 0x81, 0x37, 0x00, 0x00,
	0x33, 0x00, 0x81, 0x00, 0x91, 0x38, 0x57, 0x00, 0x35, 0x57, 0x81, 0x00,
	0x81, 0x38, 0x00, 0x00, 0x35, 0x00, 0x81, 0x00, 0x91, 0x38, 0x53, 0x00,
	0x35, 0x53, 0x81, 0x00, 0x81, 0x38, 0x00, 0x00, 0x35, 0x00, 0x81, 0x00,
	0x91, 0x37, 0x56, 0x00, 0x33, 0x56, 0x81, 0x00, 0x81, 0x37, 0x00, 0x00,
	0x33, 0x00, 0x83, 0x00, 0x91, 0x35, 0x52, 0x00, 0x31, 0x52, 0x81, 0x00,
	0x81, 0x35, 0x00, 0x00, 0x31, 0x00, 0x81, 0x00, 0x91, 0x35, 0x55, 0x00,
	0x31, 0x55, 0x81, 0x00, 0x81, 0x35, 0x00, 0x00, 0x31, 0x00, 0x81, 0x00,
	0x91, 0x37, 0x51, 0x00, 0x33, 0x51, 0x81, 0x00, 0x81, 0x37, 0x00, 0x00,
	0x33, 0x00, 0x81, 0x00, 0x91, 0x37, 0x54, 0x00, 0x33, 0x54, 0x81, 0x00,
	0x81, 0x37, 0x00, 0x00, 0x33, 0x00, 0x81, 0x00, 0x91, 0x38, 0x54, 0x00,
	0x35, 0x54, 0x81, 0x00, 0x81, 0x38, 0x00, 0x00, 0x35, 0x00, 0x84, 0x00,
	0x91, 0x38, 0x54, 0x00, 0x35, 0x54, 0x82, 0x00, 0x81, 0x38, 0x00, 0x00,
	0x35, 0x00, 0x81, 0x00, 0x91, 0x35, 0x59, 0x00, 0x38, 0x59, 0x81, 0x00,
	0x81, 0x38, 0x00, 0x00, 0x35, 0x00, 0x81, 0x00, 0x91, 0x38, 0x57, 0x00,
	0x35, 0x57, 0x81, 0x00, 0x81, 0x35, 0x00, 0x00, 0x38, 0x00, 0x81, 0x00,
	0x91, 0x33, 0x52, 0x00, 0x37, 0x52, 0x81, 0x00, 0x81, 0x37, 0x00, 0x00,
	0x33, 0x00, 0x81, 0x00, 0x91, 0x37, 0x53, 0x00, 0x33, 0x53, 0x81, 0x00,
	0x81, 0x33, 0x00, 0x00, 0x37, 0x00, 0x81, 0x00, 0x91, 0x35, 0x58, 0x00,
	0x38, 0x58, 0x81, 0x00, 0x81, 0x35, 0x00, 0x00, 0x38, 0x00, 0x81, 0x00,
	0x91, 0x35, 0x59, 0x00, 0x38, 0x59, 0x81, 0x00, 0x81, 0x38, 0x00, 0x00,
	0x35, 0x00, 0x81, 0x00, 0x91, 0x33, 0x55, 0x00, 0x37, 0x55, 0x81, 0x00,
	0x81, 0x37, 0x00, 0x00, 0x33, 0x00, 0x81, 0x00, 0x91, 0x37, 0x59, 0x00,
	0x33, 0x59, 0x81, 0x00, 0x81, 0x37, 0x00, 0x00, 0x33, 0x00, 0x81, 0x00,
	0x91, 0x35, 0x59, 0x00, 0x38, 0x59, 0x81, 0x00, 0x81, 0x38, 0x00, 0x00,
	0x35, 0x00, 0x81, 0x00, 0x91, 0x35, 0x55, 0x00, 0x38, 0x55, 0x81, 0x00,
	0x81, 0x35, 0x00, 0x00, 0x38, 0x00, 0x81, 0x00, 0x91, 0x33, 0x59, 0x00,
	0x37, 0x59, 0x81, 0x00, 0x81, 0x37, 0x00, 0x00, 0x33, 0x00, 0x81, 0x00,
	0x91, 0x37, 0x58, 0x00, 0x33, 0x58, 0x81, 0x00, 0x81, 0x33, 0x00, 0x00,
	0x37, 0x00, 0x81, 0x00, 0x91, 0x35, 0x57, 0x00, 0x38, 0x57, 0x81, 0x00,
	0x81, 0x35, 0x00, 0x00, 0x38, 0x00, 0x81, 0x00, 0x91, 0x35, 0x56, 0x00,
	0x38, 0x56, 0x81, 0x00, 0x81, 0x38, 0x00, 0x00, 0x35, 0x00, 0x81, 0x00,
	0x91, 0x33, 0x52, 0x00, 0x37, 0x52, 0x81, 0x00, 0x81, 0x37, 0x00, 0x00,
	0x33, 0x00, 0x83, 0x00, 0x91, 0x31, 0x54, 0x00, 0x35, 0x54, 0x81, 0x00,
	0x81, 0x35, 0x00, 0x00, 0x31, 0x00, 0x81, 0x00, 0x91, 0x31, 0x55, 0x00,
	0x35, 0x55, 0x81, 0x00, 0x81, 0x31, 0x00, 0x00, 0x35, 0x00, 0x81, 0x00,
	0x91, 0x37, 0x54, 0x00, 0x33, 0x54, 0x81, 0x00, 0x81, 0x37, 0x00, 0x00,
	0x33, 0x00, 0x81, 0x00, 0x91, 0x37, 0x56, 0x00, 0x33, 0x56, 0x81, 0x00,
	0x81, 0x37, 0x00, 0x00, 0x33, 0x00, 0x81, 0x00, 0x91, 0x35, 0x54, 0x00,
	0x38, 0x54, 0x81, 0x00, 0x81, 0x35, 0x00, 0x00, 0x38, 0x00, 0x87, 0x00,
	0x91, 0x35, 0x54, 0x00, 0x38, 0x54, 0x81, 0x00, 0x81, 0x38, 0x00, 0x00,
	0x35, 0x00, 0x81, 0x00, 0x91, 0x38, 0x55, 0x00, 0x35, 0x55, 0x81, 0x00,
	0x81, 0x35, 0x00, 0x00, 0x38, 0x00, 0x81, 0x00, 0x91, 0x33, 0x55, 0x00,
	0x37, 0x55, 0x81, 0x00, 0x81, 0x37, 0x00, 0x00, 0x33, 0x00, 0x81, 0x00,
	0x91, 0x37, 0x53, 0x00, 0x33, 0x53, 0x81, 0x00, 0x81, 0x33, 0x00, 0x00,
	0x37, 0x00, 0x81, 0x00, 0x91, 0x35, 0x56, 0x00, 0x38, 0x56, 0x81, 0x00,
	0x81, 0x35, 0x00, 0x00, 0x38, 0x00, 0x81, 0x00, 0x91, 0x35, 0x55, 0x00,
	0x38, 0x55, 0x81, 0x00, 0x81, 0x38, 0x00, 0x00, 0x35, 0x00, 0x81, 0x00,
	0x91, 0x33, 0x52, 0x00, 0x37, 0x52, 0x81, 0x00, 0x81, 0x37, 0x00, 0x00,
	0x33, 0x00, 0x81, 0x00, 0x91, 0x37, 0x52, 0x00, 0x33, 0x52, 0x81, 0x00,
	0x81, 0x37, 0x00, 0x00, 0x33, 0x00, 0x81, 0x00, 0x91, 0x35, 0x57, 0x00,
	0x38, 0x57, 0x81, 0x00, 0x81, 0x38, 0x00, 0x00, 0x35, 0x00, 0x81, 0x00,
	0x91, 0x38, 0x55, 0x00, 0x35, 0x55, 0x81, 0x00, 0x81, 0x35, 0x00, 0x00,
	0x38, 0x00, 0x81, 0x00, 0x91, 0x33, 0x56, 0x00, 0x37, 0x56, 0x81, 0x00,
	0x81, 0x37, 0x00, 0x00, 0x33, 0x00, 0x81, 0x00, 0x91, 0x37, 0x53, 0x00,
	0x33, 0x53, 0x81, 0x00, 0x81, 0x33, 0x00, 0x00, 0x37, 0x00, 0x81, 0x00,
	0x91, 0x35, 0x55, 0x00, 0x38, 0x55, 0x81, 0x00, 0x81, 0x35, 0x00, 0x00,
	0x38, 0x00, 0x81, 0x00, 0x91, 0x35, 0x58, 0x00, 0x38, 0x58, 0x81, 0x00,
	0x81, 0x38, 0x00, 0x00, 0x35, 0x00, 0x81, 0x00, 0x91, 0x33, 0x56, 0x00,
	0x37, 0x56, 0x81, 0x00, 0x81, 0x37, 0x00, 0x00, 0x33, 0x00, 0x83, 0x00,
	0x91, 0x31, 0x56, 0x00, 0x35, 0x56, 0x81, 0x00, 0x81, 0x35, 0x00, 0x00,
	0x31, 0x00, 0x81, 0x00, 0x91, 0x31, 0x57, 0x00, 0x35, 0x57, 0x81, 0x00,
	0x81, 0x31, 0x00, 0x00, 0x35, 0x00, 0x81, 0x00, 0x91, 0x37, 0x52, 0x00,
	0x33, 0x52, 0x81, 0x00, 0x81, 0x37, 0x00, 0x00, 0x33, 0x00, 0x81, 0x00,
	0x91, 0x37, 0x55, 0x00, 0x33, 0x55, 0x81, 0x00, 0x81, 0x37, 0x00, 0x00,
	0x33, 0x00, 0x81, 0x00, 0x91, 0x35, 0x58, 0x00, 0x38, 0x58, 0x81, 0x00,
	0x81, 0x35, 0x00, 0x00, 0x38, 0x00, 0x87, 0x00, 0x91, 0x38, 0x62, 0x00,
	0x3C, 0x62, 0x81, 0x00, 0x81, 0x3C, 0x00, 0x00, 0x38, 0x00, 0x81, 0x00,
	0x91, 0x3C, 0x5C, 0x00, 0x38, 0x5C, 0x81, 0x00, 0x81, 0x38, 0x00, 0x00,
	0x3C, 0x00, 0x81, 0x00, 0x91, 0x33, 0x54, 0x00, 0x37, 0x54, 0x81, 0x00,
	0x81, 0x37, 0x00, 0x00, 0x33, 0x00, 0x81, 0x00, 0x91, 0x37, 0x59, 0x00,
	0x33, 0x59, 0x81, 0x00, 0x81, 0x33, 0x00, 0x00, 0x37, 0x00, 0x81, 0x00,
	0x91, 0x35, 0x53, 0x00, 0x38, 0x53, 0x81, 0x00, 0x81, 0x38, 0x00, 0x00,
	0x35, 0x00, 0x81, 0x00, 0x91, 0x35, 0x57, 0x00, 0x38, 0x57, 0x81, 0x00,
	0x81, 0x38, 0x00, 0x00, 0x35, 0x00, 0x81, 0x00, 0x91, 0x30, 0x58, 0x00,
	0x33, 0x58, 0x81, 0x00, 0x81, 0x33, 0x00, 0x00, 0x30, 0x00, 0x81, 0x00,
	0x91, 0x30, 0x53, 0x00, 0x33, 0x53, 0x81, 0x00, 0x81, 0x30, 0x00, 0x00,
	0x33, 0x00, 0x81, 0x00, 0x91, 0x2E, 0x53, 0x00, 0x31, 0x53, 0x81, 0x00,
	0x81, 0x2E, 0x00, 0x00, 0x31, 0x00, 0x81, 0x00, 0x91, 0x2E, 0x53, 0x00,
	0x31, 0x53, 0x81, 0x00, 0x81, 0x31, 0x00, 0x00, 0x2E, 0x00, 0x81, 0x00,
	0x91, 0x37, 0x55, 0x00, 0x33, 0x55, 0x81, 0x00, 0x81, 0x33, 0x00, 0x00,
	0x37, 0x00, 0x81, 0x00, 0x91, 0x33, 0x51, 0x00, 0x37, 0x51, 0x81, 0x00,
	0x81, 0x37, 0x00, 0x00, 0x33, 0x00, 0x81, 0x00, 0x91, 0x38, 0x61, 0x00,
	0x3C, 0x61, 0x81, 0x00, 0x81, 0x3C, 0x00, 0x00, 0x38, 0x00, 0x00, 0x91,
	0x33, 0x4B, 0x81, 0x00, 0x81, 0x33, 0x00, 0x00, 0x91, 0x3C, 0x5D, 0x00,
	0x38, 0x5D, 0x81, 0x00, 0x81, 0x38, 0x00, 0x00, 0x3C, 0x00, 0x85, 0x00,
	0x91, 0x38, 0x62, 0x00, 0x3C, 0x62, 0x81, 0x00, 0x81, 0x3C, 0x00, 0x00,
	0x38, 0x00, 0x81, 0x00, 0x91, 0x3C, 0x5D, 0x00, 0x38, 0x5D, 0x81, 0x00,
	0x81, 0x38, 0x00, 0x00, 0x3C, 0x00, 0x81, 0x00, 0x91, 0x33, 0x53, 0x00,
	0x37, 0x53, 0x81, 0x00, 0x81, 0x37, 0x00, 0x00, 0x33, 0x00, 0x81, 0x00,
	0x91, 0x37, 0x55, 0x00, 0x33, 0x55, 0x81, 0x00, 0x81, 0x33, 0x00, 0x00,
	0x37, 0x00, 0x81, 0x00, 0x91, 0x35, 0x55, 0x00, 0x38, 0x55, 0x81, 0x00,
	0x81, 0x38, 0x00, 0x00, 0x35, 0x00, 0x81, 0x00, 0x91, 0x35, 0x57, 0x00,
	0x38, 0x57, 0x81, 0x00, 0x81, 0x38, 0x00, 0x00, 0x35, 0x00, 0x81, 0x00,
	0x91, 0x30, 0x52, 0x00, 0x33, 0x52, 0x81, 0x00, 0x81, 0x30, 0x00, 0x00,
	0x33, 0x00, 0x81, 0x00, 0x91, 0x33, 0x55, 0x00, 0x30, 0x55, 0x81, 0x00,
	0x81, 0x30, 0x00, 0x00, 0x33, 0x00, 0x81, 0x00, 0x91, 0x2E, 0x52, 0x00,
	0x31, 0x52, 0x81, 0x00, 0x81, 0x2E, 0x00, 0x00, 0x31, 0x00, 0x81, 0x00,
	0x91, 0x2E, 0x56, 0x00, 0x31, 0x56, 0x81, 0x00, 0x81, 0x31, 0x00, 0x00,
	0x2E, 0x00, 0x81, 0x00, 0x91, 0x35, 0x5A, 0x00, 0x31, 0x5A, 0x81, 0x00,
	0x81, 0x31, 0x00, 0x00, 0x35, 0x00, 0x81, 0x00, 0x91, 0x31, 0x57, 0x00,
	0x35, 0x57, 0x81, 0x00, 0x81, 0x31, 0x00, 0x00, 0x35, 0x00, 0x81, 0x00,
	0x91, 0x33, 0x57, 0x00, 0x37, 0x57, 0x81, 0x00, 0x81, 0x37, 0x00, 0x00,
	0x33, 0x00, 0x81, 0x00, 0x91, 0x37, 0x52, 0x00, 0x33, 0x52, 0x81, 0x00,
	0x81, 0x33, 0x00, 0x00, 0x37, 0x00, 0x85, 0x00, 0x91, 0x38, 0x56, 0x00,
	0x35, 0x56, 0x81, 0x00, 0x81, 0x35, 0x00, 0x00, 0x38, 0x00, 0x81, 0x00,
	0x91, 0x38, 0x52, 0x00, 0x35, 0x52, 0x81, 0x00, 0x81, 0x38, 0x00, 0x00,
	0x35, 0x00, 0x81, 0x00, 0x91, 0x33, 0x54, 0x00, 0x37, 0x54, 0x81, 0x00,
	0x81, 0x33, 0x00, 0x00, 0x37, 0x00, 0x81, 0x00, 0x91, 0x37, 0x5A, 0x00,
	0x33, 0x5A, 0x81, 0x00, 0x81, 0x33, 0x00, 0x00, 0x37, 0x00, 0x81, 0x00,
	0x91, 0x35, 0x53, 0x00, 0x38, 0x53, 0x81, 0x00, 0x81, 0x38, 0x00, 0x00,
	0x35, 0x00, 0x81, 0x00, 0x91, 0x38, 0x55, 0x00, 0x35, 0x55, 0x81, 0x00,
	0x81, 0x35, 0x00, 0x00, 0x38, 0x00, 0x81, 0x00, 0x91, 0x33, 0x55, 0x00,
	0x37, 0x55, 0x81, 0x00, 0x81, 0x33, 0x00, 0x00, 0x37, 0x00, 0x83, 0x00,
	0x91, 0x31, 0x57, 0x00, 0x35, 0x57, 0x81, 0x00, 0x81, 0x35, 0x00, 0x00,
	0x31, 0x00, 0x81, 0x00, 0x91, 0x35, 0x56, 0x00, 0x31, 0x56, 0x81, 0x00,
	0x81, 0x31, 0x00, 0x00, 0x35, 0x00, 0x81, 0x00, 0x91, 0x37, 0x56, 0x00,
	0x33, 0x56, 0x81, 0x00, 0x81, 0x37, 0x00, 0x00, 0x33, 0x00, 0x81, 0x00,
	0x91, 0x37, 0x56, 0x00, 0x33, 0x56, 0x81, 0x00, 0x81, 0x33, 0x00, 0x00,
	0x37, 0x00, 0x81, 0x00, 0x91, 0x35, 0x56, 0x00, 0x38, 0x56, 0x81, 0x00,
	0x81, 0x38, 0x00, 0x00, 0x35, 0x00, 0x84, 0x00, 0x91, 0x38, 0x54, 0x00,
	0x35, 0x54, 0x82, 0x00, 0x81, 0x38, 0x00, 0x00, 0x35, 0x00, 0x81, 0x00,
	0x91, 0x35, 0x53, 0x00, 0x38, 0x53, 0x81, 0x00, 0x81, 0x38, 0x00, 0x00,
	0x35, 0x00, 0x81, 0x00, 0x91, 0x38, 0x5B, 0x00, 0x35, 0x5B, 0x81, 0x00,
	0x81, 0x35, 0x00, 0x00, 0x38, 0x00, 0x81, 0x00, 0x91, 0x33, 0x59, 0x00,
	0x37, 0x59, 0x81, 0x00, 0x81, 0x37, 0x00, 0x00, 0x33, 0x00, 0x81, 0x00,
	0x91, 0x37, 0x59, 0x00, 0x33, 0x59, 0x81, 0x00, 0x81, 0x33, 0x00, 0x00,
	0x37, 0x00, 0x81, 0x00, 0x91, 0x35, 0x54, 0x00, 0x38, 0x54, 0x81, 0x00,
	0x81, 0x35, 0x00, 0x00, 0x38, 0x00, 0x81, 0x00, 0x91, 0x35, 0x54, 0x00,
	0x38, 0x54, 0x81, 0x00, 0x81, 0x35, 0x00, 0x00, 0x38, 0x00, 0x81, 0x00,
	0x91, 0x33, 0x56, 0x00, 0x37, 0x56, 0x81, 0x00, 0x81, 0x33, 0x00, 0x00,
	0x37, 0x00, 0x81, 0x00, 0x91, 0x37, 0x57, 0x00, 0x33, 0x57, 0x81, 0x00,
	0x81, 0x37, 0x00, 0x00, 0x33, 0x00, 0x81, 0x00, 0x91, 0x35, 0x53, 0x00,
	0x38, 0x53, 0x81, 0x00, 0x81, 0x38, 0x00, 0x00, 0x35, 0x00, 0x81, 0x00,
	0x91, 0x38, 0x56, 0x00, 0x35, 0x56, 0x81, 0x00, 0x81, 0x35, 0x00, 0x00,
	0x38, 0x00, 0x81, 0x00, 0x91, 0x33, 0x51, 0x00, 0x37, 0x51, 0x81, 0x00,
	0x81, 0x37, 0x00, 0x00, 0x33, 0x00, 0x81, 0x00, 0x91, 0x37, 0x52, 0x00,
	0x33, 0x52, 0x81, 0x00, 0x81, 0x33, 0x00, 0x00, 0x37, 0x00, 0x81, 0x00,
	0x91, 0x35, 0x52, 0x00, 0x38, 0x52, 0x81, 0x00, 0x81, 0x35, 0x00, 0x00,
	0x38, 0x00, 0x81, 0x00, 0x91, 0x35, 0x53, 0x00, 0x38, 0x53, 0x81, 0x00,
	0x81, 0x35, 0x00, 0x00, 0x38, 0x00, 0x81, 0x00, 0x91, 0x33, 0x50, 0x00,
	0x37, 0x50, 0x81, 0x00, 0x81, 0x33, 0x00, 0x00, 0x37, 0x00, 0x83, 0x00,
	0x91, 0x31, 0x54, 0x00, 0x35, 0x54, 0x81, 0x00, 0x81, 0x31, 0x00, 0x00,
	0x35, 0x00, 0x81, 0x00, 0x91, 0x31, 0x54, 0x00, 0x35, 0x54, 0x81, 0x00,
	0x81, 0x31, 0x00, 0x00, 0x35, 0x00, 0x81, 0x00, 0x91, 0x37, 0x57, 0x00,
	0x33, 0x57, 0x81, 0x00, 0x81, 0x37, 0x00, 0x00, 0x33, 0x00, 0x81, 0x00,
	0x91, 0x37, 0x56, 0x00, 0x33, 0x56, 0x81, 0x00, 0x81, 0x33, 0x00, 0x00,
	0x37, 0x00, 0x81, 0x00, 0x91, 0x35, 0x56, 0x00, 0x38, 0x56, 0x81, 0x00,
	0x81, 0x35, 0x00, 0x00, 0x38, 0x00, 0x87, 0x00, 0x91, 0x34, 0x53, 0x00,
	0x37, 0x53, 0x81, 0x00, 0x81, 0x37, 0x00, 0x00, 0x34, 0x00, 0x81, 0x00,
	0x91, 0x34, 0x54, 0x00, 0x37, 0x54, 0x81, 0x00, 0x81, 0x37, 0x00, 0x00,
	0x34, 0x00, 0x81, 0x00, 0x91, 0x37, 0x55, 0x00, 0x34, 0x55, 0x81, 0x00,
	0x81, 0x34, 0x00, 0x00, 0x37, 0x00, 0x81, 0x00, 0x91, 0x37, 0x57, 0x00,
	0x34, 0x57, 0x81, 0x00, 0x81, 0x37, 0x00, 0x00, 0x34, 0x00, 0x81, 0x00,
	0x91, 0x35, 0x50, 0x00, 0x38, 0x50, 0x81, 0x00, 0x81, 0x38, 0x00, 0x00,
	0x35, 0x00, 0x81, 0x00, 0x91, 0x35, 0x54, 0x00, 0x38, 0x54, 0x81, 0x00,
	0x81, 0x38, 0x00, 0x00, 0x35, 0x00, 0x81, 0x00, 0x91, 0x38, 0x56, 0x00,
	0x35, 0x56, 0x81, 0x00, 0x81, 0x38, 0x00, 0x00, 0x35, 0x00, 0x81, 0x00,
	0x91, 0x38, 0x52, 0x00, 0x35, 0x52, 0x81, 0x00, 0x81, 0x38, 0x00, 0x00,
	0x35, 0x00, 0x81, 0x00, 0x91, 0x33, 0x55, 0x00, 0x37, 0x55, 0x81, 0x00,
	0x81, 0x37, 0x00, 0x00, 0x33, 0x00, 0x81, 0x00, 0x91, 0x33, 0x56, 0x00,
	0x37, 0x56, 0x81, 0x00, 0x81, 0x37, 0x00, 0x00, 0x33, 0x00, 0x81, 0x00,
	0x91, 0x37, 0x57, 0x00, 0x33, 0x57, 0x81, 0x00, 0x81, 0x33, 0x00, 0x00,
	0x37, 0x00, 0x81, 0x00, 0x91, 0x37, 0x4F, 0x00, 0x33, 0x4F, 0x81, 0x00,
	0x81, 0x37, 0x00, 0x00, 0x33, 0x00, 0x81, 0x00, 0x91, 0x38, 0x5B, 0x00,
	0x3C, 0x5B, 0x81, 0x00, 0x81, 0x3C, 0x00, 0x00, 0x38, 0x00, 0x81, 0x00,
	0x91, 0x38, 0x5C, 0x00, 0x3C, 0x5C, 0x81, 0x00, 0x81, 0x3C, 0x00, 0x00,
	0x38, 0x00, 0x85, 0x00, 0x91, 0x35, 0x56, 0x00, 0x38, 0x56, 0x81, 0x00,
	0x81, 0x38, 0x00, 0x00, 0x35, 0x00, 0x81, 0x00, 0x91, 0x38, 0x52, 0x00,
	0x35, 0x52, 0x81, 0x00, 0x81, 0x38, 0x00, 0x00, 0x35, 0x00, 0x81, 0x00,
	0x91, 0x33, 0x57, 0x00, 0x37, 0x57, 0x81, 0x00, 0x81, 0x37, 0x00, 0x00,
	0x33, 0x00, 0x81, 0x00, 0x91, 0x37, 0x56, 0x00, 0x33, 0x56, 0x81, 0x00,
	0x81, 0x37, 0x00, 0x00, 0x33, 0x00, 0x81, 0x00, 0x91, 0x35, 0x55, 0x00,
	0x38, 0x55, 0x81, 0x00, 0x81, 0x38, 0x00, 0x00, 0x35, 0x00, 0x81, 0x00,
	0x91, 0x35, 0x55, 0x00, 0x38, 0x55, 0x81, 0x00, 0x81, 0x35, 0x00, 0x00,
	0x38, 0x00, 0x81, 0x00, 0x91, 0x33, 0x5C, 0x00, 0x37, 0x5C, 0x81, 0x00,
	0x81, 0x33, 0x00, 0x00, 0x37, 0x00, 0x81, 0x00, 0x91, 0x37, 0x56, 0x00,
	0x33, 0x56, 0x81, 0x00, 0x81, 0x33, 0x00, 0x00, 0x37, 0x00, 0x81, 0x00,
	0x91, 0x31, 0x55, 0x00, 0x35, 0x55, 0x81, 0x00, 0x81, 0x31, 0x00, 0x00,
	0x35, 0x00, 0x81, 0x00, 0x91, 0x31, 0x53, 0x00, 0x35, 0x53, 0x81, 0x00,
	0x81, 0x35, 0x00, 0x00, 0x31, 0x00, 0x81, 0x00, 0x91, 0x37, 0x4D, 0x00,
	0x33, 0x4D, 0x81, 0x00, 0x81, 0x37, 0x00, 0x00, 0x33, 0x00, 0x81, 0x00,
	0x91, 0x37, 0x55, 0x00, 0x33, 0x55, 0x81, 0x00, 0x81, 0x33, 0x00, 0x00,
	0x37, 0x00, 0x81, 0x00, 0x91, 0x35, 0x59, 0x00, 0x38, 0x59, 0x81, 0x00,
	0x81, 0x38, 0x00, 0x00, 0x35, 0x00, 0x83, 0x00, 0x91, 0x38, 0x56, 0x00,
	0x35, 0x56, 0x81, 0x00, 0x81, 0x38, 0x00, 0x00, 0x35, 0x00, 0x00, 0x91,
	0x38, 0x4F, 0x00, 0x35, 0x4F, 0x81, 0x00, 0x81, 0x38, 0x00, 0x00, 0x35,
	0x00, 0x00, 0x91, 0x35, 0x4E, 0x00, 0x38, 0x4E, 0x81, 0x00, 0x81, 0x38,
	0x00, 0x00, 0x35, 0x00, 0x81, 0x00, 0x91, 0x38, 0x5F, 0x00, 0x3C, 0x5F,
	0x81, 0x00, 0x81, 0x3C, 0x00, 0x00, 0x38, 0x00, 0x81, 0x00, 0x91, 0x3C,
	0x60, 0x00, 0x38, 0x60, 0x81, 0x00, 0x81, 0x3C, 0x00, 0x00, 0x38, 0x00,
	0x81, 0x00, 0x91, 0x33, 0x57, 0x00, 0x37, 0x57, 0x81, 0x00, 0x81, 0x37,
	0x00, 0x00, 0x33, 0x00, 0x81, 0x00, 0x91, 0x37, 0x52, 0x00, 0x33, 0x52,
	0x81, 0x00, 0x81, 0x37, 0x00, 0x00, 0x33, 0x00, 0x81, 0x00, 0x91, 0x35,
	0x56, 0x00, 0x38, 0x56, 0x81, 0x00, 0x81, 0x35, 0x00, 0x00, 0x38, 0x00,
	0x81, 0x00, 0x91, 0x35, 0x54, 0x00, 0x38, 0x54, 0x81, 0x00, 0x81, 0x35,
	0x00, 0x00, 0x38, 0x00, 0x81, 0x00, 0x91, 0x30, 0x58, 0x00, 0x33, 0x58,
	0x81, 0x00, 0x81, 0x30, 0x00, 0x00, 0x33, 0x00, 0x81, 0x00, 0x91, 0x30,
	0x52, 0x00, 0x33, 0x52, 0x81, 0x00, 0x81, 0x33, 0x00, 0x00, 0x30, 0x00,
	0x81, 0x00, 0x91, 0x2E, 0x56, 0x00, 0x31, 0x56, 0x81, 0x00, 0x81, 0x31,
	0x00, 0x00, 0x2E, 0x00, 0x81, 0x00, 0x91, 0x2E, 0x56, 0x00, 0x31, 0x56,
	0x81, 0x00, 0x81, 0x31, 0x00, 0x00, 0x2E, 0x00, 0x81, 0x00, 0x91, 0x37,
	0x5C, 0x00, 0x33, 0x5C, 0x81, 0x00, 0x81, 0x37, 0x00, 0x00, 0x33, 0x00,
	0x81, 0x00, 0x91, 0x33, 0x57, 0x00, 0x37, 0x57, 0x81, 0x00, 0x81, 0x33,
	0x00, 0x00, 0x37, 0x00, 0x81, 0x00, 0x91, 0x38, 0x61, 0x00, 0x3C, 0x61,
	0x81, 0x00, 0x81, 0x3C, 0x00, 0x00, 0x38, 0x00, 0x81, 0x00, 0x91, 0x3C,
	0x60, 0x00, 0x38, 0x60, 0x81, 0x00, 0x81, 0x3C, 0x00, 0x00, 0x38, 0x00,
	0x85, 0x00, 0x91, 0x38, 0x64, 0x00, 0x3C, 0x64, 0x81, 0x00, 0x81, 0x3C,
	0x00, 0x00, 0x38, 0x00, 0x81, 0x00, 0x91, 0x3C, 0x5F, 0x00, 0x38, 0x5F,
	0x81, 0x00, 0x81, 0x3C, 0x00, 0x00, 0x38, 0x00, 0x81, 0x00, 0x91, 0x33,
	0x53, 0x00, 0x37, 0x53, 0x81, 0x00, 0x81, 0x37, 0x00, 0x00, 0x33, 0x00,
	0x81, 0x00, 0x91, 0x37, 0x54, 0x00, 0x33, 0x54, 0x81, 0x00, 0x81, 0x37,
	0x00, 0x00, 0x33, 0x00, 0x81, 0x00, 0x91, 0x35, 0x53, 0x00, 0x38, 0x53,
	0x81, 0x00, 0x81, 0x35, 0x00, 0x00, 0x38, 0x00, 0x81, 0x00, 0x91, 0x35,
	0x59, 0x00, 0x38, 0x59, 0x81, 0x00, 0x81, 0x35, 0x00, 0x00, 0x38, 0x00,
	0x81, 0x00, 0x91, 0x30, 0x5B, 0x00, 0x33, 0x5B, 0x81, 0x00, 0x81, 0x30,
	0x00, 0x00, 0x33, 0x00, 0x81, 0x00, 0x91, 0x33, 0x55, 0x00, 0x30, 0x55,
	0x81, 0x00, 0x81, 0x30, 0x00, 0x00, 0x33, 0x00, 0x81, 0x00, 0x91, 0x2E,
	0x56, 0x00, 0x31, 0x56, 0x81, 0x00, 0x81, 0x31, 0x00, 0x00, 0x2E, 0x00,
	0x81, 0x00, 0x91, 0x2E, 0x52, 0x00, 0x31, 0x52, 0x81, 0x00, 0x81, 0x31,
	0x00, 0x00, 0x2E, 0x00, 0x81, 0x00, 0x91, 0x35, 0x55, 0x00, 0x31, 0x55,
	0x81, 0x00, 0x81, 0x35, 0x00, 0x00, 0x31, 0x00, 0x81, 0x00, 0x91, 0x31,
	0x54, 0x00, 0x35, 0x54, 0x81, 0x00, 0x81, 0x31, 0x00, 0x00, 0x35, 0x00,
	0x81, 0x00, 0x91, 0x33, 0x54, 0x00, 0x37, 0x54, 0x81, 0x00, 0x81, 0x37,
	0x00, 0x00, 0x33, 0x00, 0x81, 0x00, 0x91, 0x37, 0x54, 0x00, 0x33, 0x54,
	0x81, 0x00, 0x81, 0x37, 0x00, 0x00, 0x33, 0x00, 0x85, 0x00, 0x91, 0x38,
	0x61, 0x00, 0x3C, 0x61, 0x81, 0x00, 0x81, 0x3C, 0x00, 0x00, 0x38, 0x00,
	0x81, 0x00, 0x91, 0x3C, 0x62, 0x00, 0x38, 0x62, 0x81, 0x00, 0x81, 0x3C,
	0x00, 0x00, 0x38, 0x00, 0x81, 0x00, 0x91, 0x33, 0x56, 0x00, 0x37, 0x56,
	0x81, 0x00, 0x81, 0x37, 0x00, 0x00, 0x33, 0x00, 0x81, 0x00, 0x91, 0x37,
	0x54, 0x00, 0x33, 0x54, 0x81, 0x00, 0x81, 0x37, 0x00, 0x00, 0x33, 0x00,
	0x81, 0x00, 0x91, 0x35, 0x52, 0x00, 0x38, 0x52, 0x81, 0x00, 0x81, 0x35,
	0x00, 0x00, 0x38, 0x00, 0x81, 0x00, 0x91, 0x35, 0x57, 0x00, 0x38, 0x57,
	0x81, 0x00, 0x81, 0x35, 0x00, 0x00, 0x38, 0x00, 0x81, 0x00, 0x91, 0x30,
	0x50, 0x00, 0x33, 0x50, 0x81, 0x00, 0x81, 0x30, 0x00, 0x00, 0x33, 0x00,
	0x81, 0x00, 0x91, 0x33, 0x56, 0x00, 0x30, 0x56, 0x81, 0x00, 0x81, 0x30,
	0x00, 0x00, 0x33, 0x00, 0x81, 0x00, 0x91, 0x31, 0x52, 0x00, 0x35, 0x52,
	0x81, 0x00, 0x81, 0x35, 0x00, 0x00, 0x31, 0x00, 0x81, 0x00, 0x91, 0x31,
	0x52, 0x00, 0x35, 0x52, 0x81, 0x00, 0x81, 0x35, 0x00, 0x00, 0x31, 0x00,
	0x81, 0x00, 0x91, 0x37, 0x57, 0x00, 0x33, 0x57, 0x81, 0x00, 0x81, 0x37,
	0x00, 0x00, 0x33, 0x00, 0x81, 0x00, 0x91, 0x33, 0x51, 0x00, 0x37, 0x51,
	0x81, 0x00, 0x81, 0x37, 0x00, 0x00, 0x33, 0x00, 0x81, 0x00, 0x91, 0x31,
	0x56, 0x00, 0x35, 0x56, 0x81, 0x00, 0x81, 0x35, 0x00, 0x00, 0x31, 0x00,
	0x81, 0x00, 0x91, 0x31, 0x54, 0x00, 0x35, 0x54, 0x81, 0x00, 0x81, 0x35,
	0x00, 0x00, 0x31, 0x00, 0x81, 0x00, 0x91, 0x37, 0x52, 0x00, 0x33, 0x52,
	0x81, 0x00, 0x81, 0x37, 0x00, 0x00, 0x33, 0x00, 0x81, 0x00, 0x91, 0x33,
	0x55, 0x00, 0x37, 0x55, 0x81, 0x00, 0x81, 0x37, 0x00, 0x00, 0x33, 0x00,
	0x81, 0x00, 0x91, 0x31, 0x52, 0x00, 0x35, 0x52, 0x81, 0x00, 0x81, 0x35,
	0x00, 0x00, 0x31, 0x00, 0x81, 0x00, 0x91, 0x31, 0x56, 0x00, 0x35, 0x56,
	0x81, 0x00, 0x81, 0x35, 0x00, 0x00, 0x31, 0x00, 0x81, 0x00, 0x91, 0x37,
	0x57, 0x00, 0x33, 0x57, 0x81, 0x00, 0x81, 0x37, 0x00, 0x00, 0x33, 0x00,
	0x81, 0x00, 0x91, 0x33, 0x53, 0x00, 0x37, 0x53, 0x81, 0x00, 0x81, 0x37,
	0x00, 0x00, 0x33, 0x00, 0x00, 0x91, 0x33, 0x50, 0x00, 0x38, 0x50, 0x88,
	0x00, 0x81, 0x33, 0x00, 0x00, 0x38, 0x00, 0x00, 0xFF, 0x2F, 0x00, 0x4D,
	0x54, 0x72, 0x6B, 0x00, 0x00, 0x09, 0x59, 0x00, 0xB2, 0x00, 0x00, 0x00,
	0x20, 0x00, 0x00, 0xC2, 0x00, 0x00, 0xFF, 0x03, 0x04, 0xE6, 0x97, 0xA0,
	0x00, 0x00, 0xB2, 0x07, 0x7F, 0x00, 0x92, 0x29, 0x44, 0x81, 0x00, 0x82,
	0x29, 0x00, 0x81, 0x00, 0x92, 0x29, 0x40, 0x81, 0x00, 0x82, 0x29, 0x00,
	0x81, 0x00, 0x92, 0x24, 0x44, 0x81, 0x00, 0x82, 0x24, 0x00, 0x81, 0x00,
	0x92, 0x24, 0x42, 0x81, 0x00, 0x82, 0x24, 0x00, 0x81, 0x00, 0x92, 0x29,
	0x41, 0x81, 0x00, 0x82, 0x29, 0x00, 0x81, 0x00, 0x92, 0x29, 0x44, 0x81,
	0x00, 0x82, 0x29, 0x00, 0x81, 0x00, 0x92, 0x24, 0x47, 0x81, 0x00, 0x82,
	0x24, 0x00, 0x81, 0x00, 0x92, 0x24, 0x44, 0x81, 0x00, 0x82, 0x24, 0x00,
	0x00, 0x92, 0x23, 0x4C, 0x81, 0x00, 0x82, 0x23, 0x00, 0x00, 0x92, 0x22,
	0x49, 0x81, 0x00, 0x82, 0x22, 0x00, 0x81, 0x00, 0x92, 0x22, 0x43, 0x81,
	0x00, 0x82, 0x22, 0x00, 0x81, 0x00, 0x92, 0x24, 0x43, 0x81, 0x00, 0x82,
	0x24, 0x00, 0x81, 0x00, 0x92, 0x24, 0x47, 0x81, 0x00, 0x82, 0x24, 0x00,
	0x81, 0x00, 0x92, 0x29, 0x42, 0x81, 0x00, 0x82, 0x29, 0x00, 0x81, 0x00,
	0x92, 0x24, 0x48, 0x81, 0x00, 0x82, 0x24, 0x00, 0x00, 0x92, 0x27, 0x4B,
	0x81, 0x00, 0x82, 0x27, 0x00, 0x00, 0x92, 0x29, 0x50, 0x82, 0x00, 0x82,
	0x29, 0x00, 0x82, 0x00, 0x92, 0x29, 0x44, 0x81, 0x00, 0x82, 0x29, 0x00,
	0x81, 0x00, 0x92, 0x29, 0x41, 0x81, 0x00, 0x82, 0x29, 0x00, 0x81, 0x00,
	0x92, 0x24, 0x46, 0x81, 0x00, 0x82, 0x24, 0x00, 0x81, 0x00, 0x92, 0x24,
	0x41, 0x81, 0x00, 0x82, 0x24, 0x00, 0x81, 0x00, 0x92, 0x29, 0x45, 0x81,
	0x00, 0x82, 0x29, 0x00, 0x81, 0x00, 0x92, 0x29, 0x44, 0x81, 0x00, 0x82,
	0x29, 0x00, 0x81, 0x00, 0x92, 0x24, 0x46, 0x81, 0x00, 0x82, 0x24, 0x00,
	0x81, 0x00, 0x92, 0x24, 0x42, 0x81, 0x00, 0x82, 0x24, 0x00, 0x81, 0x00,
	0x92, 0x29, 0x40, 0x81, 0x00, 0x82, 0x29, 0x00, 0x81, 0x00, 0x92, 0x29,
	0x42, 0x81, 0x00, 0x82, 0x29, 0x00, 0x81, 0x00, 0x92, 0x24, 0x41, 0x81,
	0x00, 0x82, 0x24, 0x00, 0x81, 0x00, 0x92, 0x24, 0x44, 0x81, 0x00, 0x82,
	0x24, 0x00, 0x81, 0x00, 0x92, 0x29, 0x46, 0x81, 0x00, 0x82, 0x29, 0x00,
	0x81, 0x00, 0x92, 0x29, 0x45, 0x81, 0x00, 0x82, 0x29, 0x00, 0x81, 0x00,
	0x92, 0x24, 0x40, 0x81, 0x00, 0x82, 0x24, 0x00, 0x81, 0x00, 0x92, 0x24,
	0x43, 0x81, 0x00, 0x82, 0x24, 0x00, 0x00, 0x92, 0x23, 0x4D, 0x81, 0x00,
	0x82, 0x23, 0x00, 0x00, 0x92, 0x22, 0x51, 0x81, 0x00, 0x82, 0x22, 0x00,
	0x81, 0x00, 0x92, 0x22, 0x42, 0x81, 0x00, 0x82, 0x22, 0x00, 0x81, 0x00,
	0x92, 0x24, 0x43, 0x81, 0x00, 0x82, 0x24, 0x00, 0x81, 0x00, 0x92, 0x24,
	0x42, 0x81, 0x00, 0x82, 0x24, 0x00, 0x81, 0x00, 0x92, 0x29, 0x46, 0x81,
	0x00, 0x82, 0x29, 0x00, 0x81, 0x00, 0x92, 0x24, 0x43, 0x81, 0x00, 0x82,
	0x24, 0x00, 0x00, 0x92, 0x27, 0x4D, 0x81, 0x00, 0x82, 0x27, 0x00, 0x00,
	0x92, 0x29, 0x4A, 0x82, 0x00, 0x82, 0x29, 0x00, 0x82, 0x00, 0x92, 0x29,
	0x40, 0x81, 0x00, 0x82, 0x29, 0x00, 0x81, 0x00, 0x92, 0x29, 0x46, 0x81,
	0x00, 0x82, 0x29, 0x00, 0x81, 0x00, 0x92, 0x24, 0x41, 0x81, 0x00, 0x82,
	0x24, 0x00, 0x81, 0x00, 0x92, 0x24, 0x43, 0x81, 0x00, 0x82, 0x24, 0x00,
	0x81, 0x00, 0x92, 0x29, 0x40, 0x81, 0x00, 0x82, 0x29, 0x00, 0x81, 0x00,
	0x92, 0x29, 0x44, 0x81, 0x00, 0x82, 0x29, 0x00, 0x81, 0x00, 0x92, 0x24,
	0x47, 0x81, 0x00, 0x82, 0x24, 0x00, 0x81, 0x00, 0x92, 0x24, 0x40, 0x81,
	0x00, 0x82, 0x24, 0x00, 0x81, 0x00, 0x92, 0x29, 0x43, 0x81, 0x00, 0x82,
	0x29, 0x00, 0x81, 0x00, 0x92, 0x29, 0x44, 0x81, 0x00, 0x82, 0x29, 0x00,
	0x81, 0x00, 0x92, 0x24, 0x46, 0x81, 0x00, 0x82, 0x24, 0x00, 0x81, 0x00,
	0x92, 0x24, 0x48, 0x81, 0x00, 0x82, 0x24, 0x00, 0x81, 0x00, 0x92, 0x29,
	0x45, 0x81, 0x00, 0x82, 0x29, 0x00, 0x81, 0x00, 0x92, 0x29, 0x4B, 0x81,
	0x00, 0x82, 0x29, 0x00, 0x81, 0x00, 0x92, 0x24, 0x46, 0x81, 0x00, 0x82,
	0x24, 0x00, 0x81, 0x00, 0x92, 0x24, 0x42, 0x81, 0x00, 0x82, 0x24, 0x00,
	0x00, 0x92, 0x23, 0x49, 0x81, 0x00, 0x82, 0x23, 0x00, 0x00, 0x92, 0x22,
	0x4C, 0x81, 0x00, 0x82, 0x22, 0x00, 0x81, 0x00, 0x92, 0x22, 0x43, 0x81,
	0x00, 0x82, 0x22, 0x00, 0x81, 0x00, 0x92, 0x24, 0x44, 0x81, 0x00, 0x82,
	0x24, 0x00, 0x81, 0x00, 0x92, 0x24, 0x45, 0x81, 0x00, 0x82, 0x24, 0x00,
	0x81, 0x00, 0x92, 0x29, 0x41, 0x81, 0x00, 0x82, 0x29, 0x00, 0x81, 0x00,
	0x92, 0x24, 0x45, 0x81, 0x00, 0x82, 0x24, 0x00, 0x00, 0x92, 0x27, 0x4F,
	0x81, 0x00, 0x82, 0x27, 0x00, 0x00, 0x92, 0x29, 0x4D, 0x82, 0x00, 0x82,
	0x29, 0x00, 0x82, 0x00, 0x92, 0x2C, 0x42, 0x81, 0x00, 0x82, 0x2C, 0x00,
	0x81, 0x00, 0x92, 0x27, 0x45, 0x81, 0x00, 0x82, 0x27, 0x00, 0x81, 0x00,
	0x92, 0x27, 0x45, 0x81, 0x00, 0x82, 0x27, 0x00, 0x81, 0x00, 0x92, 0x2E,
	0x45, 0x81, 0x00, 0x82, 0x2E, 0x00, 0x81, 0x00, 0x92, 0x29, 0x45, 0x81,
	0x00, 0x82, 0x29, 0x00, 0x81, 0x00, 0x92, 0x24, 0x42, 0x81, 0x00, 0x82,
	0x24, 0x00, 0x81, 0x00, 0x92, 0x24, 0x46, 0x81, 0x00, 0x82, 0x24, 0x00,
	0x81, 0x00, 0x92, 0x2B, 0x4A, 0x81, 0x00, 0x82, 0x2B, 0x00, 0x81, 0x00,
	0x92, 0x22, 0x40, 0x81, 0x00, 0x82, 0x22, 0x00, 0x81, 0x00, 0x92, 0x29,
	0x47, 0x81, 0x00, 0x82, 0x29, 0x00, 0x81, 0x00, 0x92, 0x27, 0x45, 0x81,
	0x00, 0x82, 0x27, 0x00, 0x81, 0x00, 0x92, 0x2E, 0x46, 0x81, 0x00, 0x82,
	0x2E, 0x00, 0x81, 0x00, 0x92, 0x2C, 0x44, 0x81, 0x00, 0x82, 0x2C, 0x00,
	0x83, 0x00, 0x92, 0x2C, 0x47, 0x81, 0x00, 0x82, 0x2C, 0x00, 0x00, 0x92,
	0x27, 0x48, 0x81, 0x00, 0x82, 0x27, 0x00, 0x00, 0x92, 0x29, 0x4D, 0x81,
	0x00, 0x82, 0x29, 0x00, 0x00, 0x92, 0x2B, 0x4D, 0x81, 0x00, 0x82, 0x2B,
	0x00, 0x00, 0x92, 0x2C, 0x4B, 0x81, 0x00, 0x82, 0x2C, 0x00, 0x81, 0x00,
	0x92, 0x27, 0x48, 0x81, 0x00, 0x82, 0x27, 0x00, 0x81, 0x00, 0x92, 0x27,
	0x46, 0x81, 0x00, 0x82, 0x27, 0x00, 0x81, 0x00, 0x92, 0x2E, 0x44, 0x81,
	0x00, 0x82, 0x2E, 0x00, 0x81, 0x00, 0x92, 0x29, 0x45, 0x81, 0x00, 0x82,
	0x29, 0x00, 0x81, 0x00, 0x92, 0x24, 0x44, 0x81, 0x00, 0x82, 0x24, 0x00,
	0x81, 0x00, 0x92, 0x24, 0x45, 0x81, 0x00, 0x82, 0x24, 0x00, 0x81, 0x00,
	0x92, 0x2B, 0x46, 0x81, 0x00, 0x82, 0x2B, 0x00, 0x81, 0x00, 0x92, 0x22,
	0x42, 0x81, 0x00, 0x82, 0x22, 0x00, 0x81, 0x00, 0x92, 0x29, 0x46, 0x81,
	0x00, 0x82, 0x29, 0x00, 0x81, 0x00, 0x92, 0x25, 0x4B, 0x81, 0x00, 0x82,
	0x25, 0x00, 0x81, 0x00, 0x92, 0x2C, 0x44, 0x81, 0x00, 0x82, 0x2C, 0x00,
	0x81, 0x00, 0x92, 0x27, 0x45, 0x81, 0x00, 0x82, 0x27, 0x00, 0x81, 0x00,
	0x92, 0x2E, 0x46, 0x81, 0x00, 0x82, 0x2E, 0x00, 0x81, 0x00, 0x92, 0x2E,
	0x44, 0x81, 0x00, 0x82, 0x2E, 0x00, 0x00, 0x92, 0x27, 0x42, 0x81, 0x00,
	0x82, 0x27, 0x00, 0x00, 0x92, 0x29, 0x4B, 0x81, 0x00, 0x82, 0x29, 0x00,
	0x00, 0x92, 0x2B, 0x4F, 0x81, 0x00, 0x82, 0x2B, 0x00, 0x00, 0x92, 0x29,
	0x4B, 0x81, 0x00, 0x82, 0x29, 0x00, 0x81, 0x00, 0x92, 0x29, 0x45, 0x81,
	0x00, 0x82, 0x29, 0x00, 0x81, 0x00, 0x92, 0x24, 0x47, 0x81, 0x00, 0x82,
	0x24, 0x00, 0x81, 0x00, 0x92, 0x24, 0x3F, 0x81, 0x00, 0x82, 0x24, 0x00,
	0x81, 0x00, 0x92, 0x29, 0x47, 0x81, 0x00, 0x82, 0x29, 0x00, 0x81, 0x00,
	0x92, 0x29, 0x42, 0x81, 0x00, 0x82, 0x29, 0x00, 0x81, 0x00, 0x92, 0x24,
	0x44, 0x81, 0x00, 0x82, 0x24, 0x00, 0x81, 0x00, 0x92, 0x24, 0x42, 0x81,
	0x00, 0x82, 0x24, 0x00, 0x00, 0x92, 0x23, 0x4A, 0x81, 0x00, 0x82, 0x23,
	0x00, 0x00, 0x92, 0x22, 0x4E, 0x81, 0x00, 0x82, 0x22, 0x00, 0x81, 0x00,
	0x92, 0x22, 0x47, 0x81, 0x00, 0x82, 0x22, 0x00, 0x81, 0x00, 0x92, 0x24,
	0x43, 0x81, 0x00, 0x82, 0x24, 0x00, 0x81, 0x00, 0x92, 0x24, 0x48, 0x81,
	0x00, 0x82, 0x24, 0x00, 0x81, 0x00, 0x92, 0x29, 0x44, 0x81, 0x00, 0x82,
	0x29, 0x00, 0x81, 0x00, 0x92, 0x24, 0x48, 0x81, 0x00, 0x82, 0x24, 0x00,
	0x00, 0x92, 0x27, 0x4C, 0x81, 0x00, 0x82, 0x27, 0x00, 0x00, 0x92, 0x29,
	0x4C, 0x82, 0x00, 0x82, 0x29, 0x00, 0x82, 0x00, 0x92, 0x29, 0x46, 0x81,
	0x00, 0x82, 0x29, 0x00, 0x81, 0x00, 0x92, 0x29, 0x42, 0x81, 0x00, 0x82,
	0x29, 0x00, 0x81, 0x00, 0x92, 0x24, 0x44, 0x81, 0x00, 0x82, 0x24, 0x00,
	0x81, 0x00, 0x92, 0x24, 0x43, 0x81, 0x00, 0x82, 0x24, 0x00, 0x81, 0x00,
	0x92, 0x29, 0x45, 0x81, 0x00, 0x82, 0x29, 0x00, 0x81, 0x00, 0x92, 0x29,
	0x44, 0x81, 0x00, 0x82, 0x29, 0x00, 0x81, 0x00, 0x92, 0x24, 0x43, 0x81,
	0x00, 0x82, 0x24, 0x00, 0x81, 0x00, 0x92, 0x24, 0x47, 0x81, 0x00, 0x82,
	0x24, 0x00, 0x81, 0x00, 0x92, 0x29, 0x43, 0x81, 0x00, 0x82, 0x29, 0x00,
	0x81, 0x00, 0x92, 0x29, 0x48, 0x81, 0x00, 0x82, 0x29, 0x00, 0x81, 0x00,
	0x92, 0x24, 0x45, 0x81, 0x00, 0x82, 0x24, 0x00, 0x81, 0x00, 0x92, 0x24,
	0x45, 0x81, 0x00, 0x82, 0x24, 0x00, 0x81, 0x00, 0x92, 0x29, 0x43, 0x81,
	0x00, 0x82, 0x29, 0x00, 0x81, 0x00, 0x92, 0x29, 0x47, 0x81, 0x00, 0x82,
	0x29, 0x00, 0x81, 0x00, 0x92, 0x24, 0x43, 0x81, 0x00, 0x82, 0x24, 0x00,
	0x81, 0x00, 0x92, 0x24, 0x42, 0x81, 0x00, 0x82, 0x24, 0x00, 0x00, 0x92,
	0x23, 0x46, 0x81, 0x00, 0x82, 0x23, 0x00, 0x00, 0x92, 0x22, 0x48, 0x81,
	0x00, 0x82, 0x22, 0x00, 0x81, 0x00, 0x92, 0x22, 0x47, 0x81, 0x00, 0x82,
	0x22, 0x00, 0x81, 0x00, 0x92, 0x24, 0x40, 0x81, 0x00, 0x82, 0x24, 0x00,
	0x81, 0x00, 0x92, 0x24, 0x42, 0x81, 0x00, 0x82, 0x24, 0x00, 0x81, 0x00,
	0x92, 0x29, 0x47, 0x81, 0x00, 0x82, 0x29, 0x00, 0x81, 0x00, 0x92, 0x24,
	0x42, 0x81, 0x00, 0x82, 0x24, 0x00, 0x00, 0x92, 0x27, 0x50, 0x81, 0x00,
	0x82, 0x27, 0x00, 0x00, 0x92, 0x24, 0x4A, 0x40, 0x82, 0x24, 0x00, 0x00,
	0x92, 0x29, 0x53, 0x40, 0x82, 0x29, 0x00, 0x00, 0x92, 0x2F, 0x57, 0x40,
	0x82, 0x2F, 0x00, 0x00, 0x92, 0x30, 0x4F, 0x40, 0x82, 0x30, 0x00, 0x00,
	0x92, 0x31, 0x4E, 0x40, 0x82, 0x31, 0x00, 0x00, 0x92, 0x30, 0x4D, 0x40,
	0x82, 0x30, 0x00, 0x00, 0x92, 0x2F, 0x49, 0x40, 0x82, 0x2F, 0x00, 0x00,
	0x92, 0x30, 0x4C, 0x40, 0x82, 0x30, 0x00, 0x00, 0x92, 0x30, 0x52, 0x81,
	0x00, 0x82, 0x30, 0x00, 0x81, 0x00, 0x92, 0x2B, 0x43, 0x81, 0x00, 0x82,
	0x2B, 0x00, 0x81, 0x00, 0x92, 0x30, 0x46, 0x81, 0x00, 0x82, 0x30, 0x00,
	0x81, 0x00, 0x92, 0x2B, 0x40, 0x81, 0x00, 0x82, 0x2B, 0x00, 0x81, 0x00,
	0x92, 0x29, 0x42, 0x81, 0x00, 0x82, 0x29, 0x00, 0x81, 0x00, 0x92, 0x30,
	0x45, 0x81, 0x00, 0x82, 0x30, 0x00, 0x81, 0x00, 0x92, 0x29, 0x43, 0x81,
	0x00, 0x82, 0x29, 0x00, 0x81, 0x00, 0x92, 0x30, 0x49, 0x81, 0x00, 0x82,
	0x30, 0x00, 0x81, 0x00, 0x92, 0x27, 0x42, 0x81, 0x00, 0x82, 0x27, 0x00,
	0x81, 0x00, 0x92, 0x2E, 0x46, 0x81, 0x00, 0x82, 0x2E, 0x00, 0x81, 0x00,
	0x92, 0x27, 0x44, 0x81, 0x00, 0x82, 0x27, 0x00, 0x81, 0x00, 0x92, 0x2E,
	0x45, 0x81, 0x00, 0x82, 0x2E, 0x00, 0x81, 0x00, 0x92, 0x2C, 0x47, 0x81,
	0x00, 0x82, 0x2C, 0x00, 0x81, 0x00, 0x92, 0x33, 0x49, 0x81, 0x00, 0x82,
	0x33, 0x00, 0x81, 0x00, 0x92, 0x30, 0x44, 0x81, 0x00, 0x82, 0x30, 0x00,
	0x00, 0x92, 0x24, 0x3F, 0x81, 0x00, 0x82, 0x24, 0x00, 0x00, 0x92, 0x25,
	0x47, 0x81, 0x00, 0x82, 0x25, 0x00, 0x00, 0x92, 0x28, 0x51, 0x81, 0x00,
	0x82, 0x28, 0x00, 0x00, 0x92, 0x29, 0x4E, 0x81, 0x00, 0x82, 0x29, 0x00,
	0x81, 0x00, 0x92, 0x29, 0x46, 0x81, 0x00, 0x82, 0x29, 0x00, 0x81, 0x00,
	0x92, 0x24, 0x41, 0x81, 0x00, 0x82, 0x24, 0x00, 0x81, 0x00, 0x92, 0x24,
	0x41, 0x81, 0x00, 0x82, 0x24, 0x00, 0x81, 0x00, 0x92, 0x29, 0x44, 0x81,
	0x00, 0x82, 0x29, 0x00, 0x81, 0x00, 0x92, 0x29, 0x48, 0x81, 0x00, 0x82,
	0x29, 0x00, 0x81, 0x00, 0x92, 0x24, 0x43, 0x81, 0x00, 0x82, 0x24, 0x00,
	0x81, 0x00, 0x92, 0x24, 0x44, 0x81, 0x00, 0x82, 0x24, 0x00, 0x81, 0x00,
	0x92, 0x22, 0x45, 0x81, 0x00, 0x82, 0x22, 0x00, 0x81, 0x00, 0x92, 0x22,
	0x41, 0x81, 0x00, 0x82, 0x22, 0x00, 0x81, 0x00, 0x92, 0x24, 0x44, 0x81,
	0x00, 0x82, 0x24, 0x00, 0x81, 0x00, 0x92, 0x24, 0x46, 0x81, 0x00, 0x82,
	0x24, 0x00, 0x81, 0x00, 0x92, 0x29, 0x3D, 0x81, 0x00, 0x82, 0x29, 0x00,
	0x81, 0x00, 0x92, 0x24, 0x43, 0x81, 0x00, 0x82, 0x24, 0x00, 0x00, 0x92,
	0x27, 0x4B, 0x81, 0x00, 0x82, 0x27, 0x00, 0x00, 0x92, 0x29, 0x4D, 0x81,
	0x00, 0x82, 0x29, 0x00, 0x83, 0x00, 0x92, 0x2C, 0x44, 0x81, 0x00, 0x82,
	0x2C, 0x00, 0x81, 0x00, 0x92, 0x27, 0x4A, 0x81, 0x00, 0x82, 0x27, 0x00,
	0x81, 0x00, 0x92, 0x27, 0x4B, 0x81, 0x00, 0x82, 0x27, 0x00, 0x81, 0x00,
	0x92, 0x2E, 0x43, 0x81, 0x00, 0x82, 0x2E, 0x00, 0x81, 0x00, 0x92, 0x29,
	0x43, 0x81, 0x00, 0x82, 0x29, 0x00, 0x81, 0x00, 0x92, 0x24, 0x45, 0x81,
	0x00, 0x82, 0x24, 0x00, 0x81, 0x00, 0x92, 0x24, 0x41, 0x81, 0x00, 0x82,
	0x24, 0x00, 0x81, 0x00, 0x92, 0x2B, 0x49, 0x81, 0x00, 0x82, 0x2B, 0x00,
	0x81, 0x00, 0x92, 0x22, 0x41, 0x81, 0x00, 0x82, 0x22, 0x00, 0x81, 0x00,
	0x92, 0x29, 0x45, 0x81, 0x00, 0x82, 0x29, 0x00, 0x81, 0x00, 0x92, 0x27,
	0x46, 0x81, 0x00, 0x82, 0x27, 0x00, 0x81, 0x00, 0x92, 0x2E, 0x46, 0x81,
	0x00, 0x82, 0x2E, 0x00, 0x81, 0x00, 0x92, 0x2C, 0x42, 0x81, 0x00, 0x82,
	0x2C, 0x00, 0x81, 0x00, 0x92, 0x33, 0x49, 0x81, 0x00, 0x82, 0x33, 0x00,
	0x81, 0x00, 0x92, 0x2C, 0x45, 0x81, 0x00, 0x82, 0x2C, 0x00, 0x00, 0x92,
	0x27, 0x4B, 0x81, 0x00, 0x82, 0x27, 0x00, 0x00, 0x92, 0x29, 0x4F, 0x81,
	0x00, 0x82, 0x29, 0x00, 0x00, 0x92, 0x2B, 0x4E, 0x81, 0x00, 0x82, 0x2B,
	0x00, 0x00, 0x92, 0x2C, 0x4B, 0x81, 0x00, 0x82, 0x2C, 0x00, 0x81, 0x00,
	0x92, 0x27, 0x45, 0x81, 0x00, 0x82, 0x27, 0x00, 0x81, 0x00, 0x92, 0x27,
	0x48, 0x81, 0x00, 0x82, 0x27, 0x00, 0x81, 0x00, 0x92, 0x2E, 0x44, 0x81,
	0x00, 0x82, 0x2E, 0x00, 0x81, 0x00, 0x92, 0x29, 0x44, 0x81, 0x00, 0x82,
	0x29, 0x00, 0x81, 0x00, 0x92, 0x24, 0x44, 0x81, 0x00, 0x82, 0x24, 0x00,
	0x81, 0x00, 0x92, 0x24, 0x47, 0x81, 0x00, 0x82, 0x24, 0x00, 0x81, 0x00,
	0x92, 0x2B, 0x45, 0x81, 0x00, 0x82, 0x2B, 0x00, 0x81, 0x00, 0x92, 0x22,
	0x47, 0x81, 0x00, 0x82, 0x22, 0x00, 0x81, 0x00, 0x92, 0x29, 0x4B, 0x81,
	0x00, 0x82, 0x29, 0x00, 0x81, 0x00, 0x92, 0x25, 0x45, 0x81, 0x00, 0x82,
	0x25, 0x00, 0x81, 0x00, 0x92, 0x2C, 0x48, 0x81, 0x00, 0x82, 0x2C, 0x00,
	0x81, 0x00, 0x92, 0x27, 0x43, 0x81, 0x00, 0x82, 0x27, 0x00, 0x81, 0x00,
	0x92, 0x2E, 0x44, 0x81, 0x00, 0x82, 0x2E, 0x00, 0x81, 0x00, 0x92, 0x2E,
	0x48, 0x81, 0x00, 0x82, 0x2E, 0x00, 0x00, 0x92, 0x27, 0x46, 0x81, 0x00,
	0x82, 0x27, 0x00, 0x00, 0x92, 0x29, 0x4E, 0x81, 0x00, 0x82, 0x29, 0x00,
	0x00, 0x92, 0x2B, 0x51, 0x81, 0x00, 0x82, 0x2B, 0x00, 0x00, 0x92, 0x2C,
	0x4D, 0x81, 0x00, 0x82, 0x2C, 0x00, 0x81, 0x00, 0x92, 0x27, 0x46, 0x81,
	0x00, 0x82, 0x27, 0x00, 0x81, 0x00, 0x92, 0x27, 0x48, 0x81, 0x00, 0x82,
	0x27, 0x00, 0x81, 0x00, 0x92, 0x2E, 0x43, 0x81, 0x00, 0x82, 0x2E, 0x00,
	0x81, 0x00, 0x92, 0x29, 0x41, 0x81, 0x00, 0x82, 0x29, 0x00, 0x81, 0x00,
	0x92, 0x24, 0x41, 0x81, 0x00, 0x82, 0x24, 0x00, 0x81, 0x00, 0x92, 0x24,
	0x43, 0x81, 0x00, 0x82, 0x24, 0x00, 0x81, 0x00, 0x92, 0x2B, 0x49, 0x81,
	0x00, 0x82, 0x2B, 0x00, 0x81, 0x00, 0x92, 0x25, 0x3F, 0x81, 0x00, 0x82,
	0x25, 0x00, 0x81, 0x00, 0x92, 0x2C, 0x44, 0x81, 0x00, 0x82, 0x2C, 0x00,
	0x81, 0x00, 0x92, 0x27, 0x40, 0x81, 0x00, 0x82, 0x27, 0x00, 0x81, 0x00,
	0x92, 0x2E, 0x40, 0x81, 0x00, 0x82, 0x2E, 0x00, 0x81, 0x00, 0x92, 0x25,
	0x45, 0x81, 0x00, 0x82, 0x25, 0x00, 0x81, 0x00, 0x92, 0x2C, 0x48, 0x81,
	0x00, 0x82, 0x2C, 0x00, 0x81, 0x00, 0x92, 0x27, 0x42, 0x81, 0x00, 0x82,
	0x27, 0x00, 0x81, 0x00, 0x92, 0x2E, 0x44, 0x81, 0x00, 0x82, 0x2E, 0x00,
	0x81, 0x00, 0x92, 0x25, 0x3C, 0x81, 0x00, 0x82, 0x25, 0x00, 0x81, 0x00,
	0x92, 0x2C, 0x42, 0x81, 0x00, 0x82, 0x2C, 0x00, 0x81, 0x00, 0x92, 0x27,
	0x49, 0x81, 0x00, 0x82, 0x27, 0x00, 0x81, 0x00, 0x92, 0x2E, 0x42, 0x81,
	0x00, 0x82, 0x2E, 0x00, 0x81, 0x00, 0x92, 0x2C, 0x50, 0x00, 0x30, 0x50,
	0x88, 0x00, 0x82, 0x30, 0x00, 0x00, 0x2C, 0x00, 0x00, 0xFF, 0x2F, 0x00
};
