/* C:\Users\Administrator\Downloads\一笑江湖（DJ弹鼓版）_爱给网_aigei_com.mid (2024/8/17 11:54:56)
   起始位置(h): 00000000, 结束位置(h): 00002CA5, 长度(h): 00002CA6 */

unsigned char rawData[11430] = {
	0x4D, 0x54, 0x68, 0x64, 0x00, 0x00, 0x00, 0x06, 0x00, 0x01, 0x00, 0x02,
	0x01, 0x80, 0x4D, 0x54, 0x72, 0x6B, 0x00, 0x00, 0x00, 0x13, 0x00, 0xFF,
	0x51, 0x03, 0x07, 0xA1, 0x20, 0x00, 0xFF, 0x58, 0x04, 0x04, 0x02, 0x18,
	0x08, 0x01, 0xFF, 0x2F, 0x00, 0x4D, 0x54, 0x72, 0x6B, 0x00, 0x00, 0x2C,
	0x75, 0x26, 0xB0, 0x40, 0x7F, 0x81, 0x51, 0x40, 0x00, 0x03, 0x90, 0x4D,
	0x58, 0x22, 0xB0, 0x40, 0x7F, 0x7D, 0x90, 0x3D, 0x3E, 0x00, 0x50, 0x56,
	0x0E, 0x4D, 0x00, 0x25, 0x3D, 0x00, 0x75, 0x4D, 0x58, 0x02, 0x48, 0x3B,
	0x06, 0xB0, 0x40, 0x00, 0x06, 0x40, 0x7F, 0x3D, 0x90, 0x48, 0x00, 0x08,
	0x50, 0x00, 0x83, 0x40, 0x4D, 0x00, 0x81, 0x02, 0x49, 0x4C, 0x01, 0x52,
	0x51, 0x01, 0xB0, 0x40, 0x00, 0x00, 0x90, 0x36, 0x58, 0x01, 0x42, 0x46,
	0x4F, 0xB0, 0x40, 0x7F, 0x4D, 0x90, 0x49, 0x00, 0x09, 0x3D, 0x54, 0x01,
	0x49, 0x4A, 0x81, 0x1B, 0xB0, 0x40, 0x00, 0x0C, 0x90, 0x42, 0x00, 0x00,
	0x52, 0x00, 0x04, 0x46, 0x53, 0x00, 0x52, 0x51, 0x00, 0x4E, 0x48, 0x01,
	0x42, 0x4A, 0x03, 0xB0, 0x40, 0x7F, 0x81, 0x1D, 0x90, 0x55, 0x4C, 0x81,
	0x29, 0x54, 0x4C, 0x03, 0x4B, 0x47, 0x05, 0x38, 0x51, 0x00, 0x44, 0x42,
	0x00, 0xB0, 0x40, 0x00, 0x00, 0x90, 0x42, 0x00, 0x04, 0x3D, 0x00, 0x1E,
	0xB0, 0x40, 0x7F, 0x08, 0x90, 0x46, 0x00, 0x2E, 0x49, 0x00, 0x3D, 0x4B,
	0x00, 0x0C, 0x4B, 0x47, 0x00, 0x3F, 0x52, 0x81, 0x1D, 0x4B, 0x00, 0x08,
	0x44, 0x00, 0x03, 0x4B, 0x4B, 0x01, 0x48, 0x4E, 0x00, 0x44, 0x4D, 0x04,
	0x55, 0x00, 0x02, 0xB0, 0x40, 0x00, 0x01, 0x90, 0x54, 0x00, 0x0C, 0x52,
	0x00, 0x08, 0x4E, 0x00, 0x00, 0xB0, 0x40, 0x7F, 0x07, 0x90, 0x36, 0x00,
	0x7B, 0x48, 0x00, 0x00, 0x4B, 0x00, 0x04, 0x50, 0x4F, 0x01, 0x48, 0x41,
	0x02, 0x4B, 0x3C, 0x81, 0x28, 0xB0, 0x40, 0x00, 0x02, 0x90, 0x48, 0x00,
	0x00, 0x50, 0x00, 0x00, 0x3F, 0x00, 0x01, 0x44, 0x00, 0x00, 0x4B, 0x00,
	0x04, 0x50, 0x4D, 0x00, 0x48, 0x46, 0x00, 0x35, 0x51, 0x03, 0x38, 0x00,
	0x3D, 0xB0, 0x40, 0x7F, 0x64, 0x90, 0x48, 0x00, 0x04, 0x3C, 0x54, 0x01,
	0x48, 0x44, 0x81, 0x1C, 0xB0, 0x40, 0x00, 0x04, 0x90, 0x4B, 0x54, 0x01,
	0x44, 0x50, 0x01, 0x41, 0x45, 0x11, 0xB0, 0x40, 0x7F, 0x10, 0x90, 0x35,
	0x00, 0x82, 0x0C, 0x3C, 0x00, 0x23, 0x4D, 0x51, 0x00, 0x2E, 0x4F, 0x04,
	0x50, 0x00, 0x02, 0xB0, 0x40, 0x00, 0x01, 0x90, 0x44, 0x00, 0x00, 0x4B,
	0x00, 0x2B, 0xB0, 0x40, 0x7F, 0x0F, 0x90, 0x41, 0x00, 0x62, 0x35, 0x53,
	0x4F, 0x48, 0x00, 0x59, 0xB0, 0x40, 0x00, 0x00, 0x90, 0x50, 0x50, 0x05,
	0x3A, 0x4D, 0x00, 0x49, 0x45, 0x01, 0x3D, 0x51, 0x01, 0x46, 0x47, 0x0B,
	0xB0, 0x40, 0x7F, 0x81, 0x0B, 0x90, 0x4D, 0x00, 0x05, 0x4D, 0x4F, 0x81,
	0x2C, 0xB0, 0x40, 0x00, 0x03, 0x90, 0x35, 0x00, 0x00, 0x4B, 0x54, 0x01,
	0x3D, 0x00, 0x00, 0x33, 0x48, 0x01, 0x49, 0x00, 0x00, 0x4D, 0x00, 0x00,
	0x46, 0x00, 0x01, 0x3A, 0x00, 0x10, 0x50, 0x00, 0x08, 0xB0, 0x40, 0x7F,
	0x81, 0x0E, 0x90, 0x3A, 0x4D, 0x04, 0x46, 0x42, 0x81, 0x20, 0x3F, 0x50,
	0x01, 0x42, 0x47, 0x10, 0x2E, 0x00, 0x81, 0x0E, 0x49, 0x51, 0x81, 0x2A,
	0x50, 0x4F, 0x06, 0x2C, 0x47, 0x09, 0x3A, 0x00, 0x01, 0x33, 0x00, 0x00,
	0x46, 0x00, 0x02, 0x42, 0x00, 0x00, 0xB0, 0x40, 0x00, 0x26, 0x40, 0x7F,
	0x10, 0x90, 0x3F, 0x00, 0x5C, 0x4B, 0x00, 0x08, 0x3F, 0x41, 0x00, 0x4B,
	0x43, 0x03, 0x33, 0x45, 0x81, 0x16, 0x4B, 0x00, 0x08, 0x4B, 0x56, 0x07,
	0x48, 0x48, 0x02, 0xB0, 0x40, 0x00, 0x01, 0x90, 0x3C, 0x53, 0x00, 0x44,
	0x45, 0x01, 0x38, 0x4B, 0x1B, 0xB0, 0x40, 0x7F, 0x82, 0x29, 0x90, 0x4D,
	0x52, 0x05, 0x31, 0x47, 0x02, 0xB0, 0x40, 0x00, 0x1A, 0x40, 0x7F, 0x81,
	0x03, 0x90, 0x38, 0x00, 0x00, 0x44, 0x00, 0x06, 0x38, 0x4E, 0x04, 0x44,
	0x41, 0x81, 0x1F, 0x49, 0x00, 0x02, 0x41, 0x4B, 0x02, 0x3D, 0x52, 0x00,
	0x49, 0x47, 0x00, 0x33, 0x00, 0x00, 0x48, 0x00, 0x01, 0x4B, 0x00, 0x00,
	0x3F, 0x00, 0x00, 0x3C, 0x00, 0x00, 0xB0, 0x40, 0x00, 0x01, 0x90, 0x50,
	0x00, 0x19, 0xB0, 0x40, 0x7F, 0x54, 0x90, 0x2C, 0x00, 0x81, 0x62, 0x29,
	0x4B, 0x0B, 0xB0, 0x40, 0x00, 0x18, 0x40, 0x7F, 0x73, 0x90, 0x4D, 0x00,
	0x05, 0x4D, 0x52, 0x05, 0x30, 0x4C, 0x81, 0x2B, 0x50, 0x4D, 0x02, 0x35,
	0x4D, 0x05, 0x45, 0x45, 0x00, 0x39, 0x4A, 0x81, 0x0F, 0x4D, 0x00, 0x0B,
	0x4D, 0x50, 0x81, 0x2F, 0x52, 0x4E, 0x02, 0x2A, 0x4D, 0x0B, 0x41, 0x00,
	0x04, 0x29, 0x00, 0x00, 0x30, 0x00, 0x01, 0x49, 0x00, 0x00, 0x39, 0x00,
	0x00, 0xB0, 0x40, 0x00, 0x02, 0x90, 0x35, 0x00, 0x01, 0x31, 0x00, 0x00,
	0x3D, 0x00, 0x00, 0x45, 0x00, 0x00, 0x38, 0x00, 0x01, 0x44, 0x00, 0x0E,
	0xB0, 0x40, 0x7F, 0x81, 0x06, 0x90, 0x31, 0x49, 0x81, 0x26, 0x4D, 0x00,
	0x00, 0x52, 0x00, 0x04, 0xB0, 0x40, 0x00, 0x01, 0x90, 0x2A, 0x00, 0x03,
	0x52, 0x53, 0x01, 0x36, 0x56, 0x01, 0x3A, 0x53, 0x03, 0x46, 0x4A, 0x0A,
	0x50, 0x00, 0x0F, 0xB0, 0x40, 0x7F, 0x7B, 0x90, 0x31, 0x00, 0x05, 0x61,
	0x4C, 0x04, 0x55, 0x4A, 0x01, 0x31, 0x49, 0x06, 0x61, 0x00, 0x81, 0x21,
	0x54, 0x51, 0x01, 0x2C, 0x4B, 0x02, 0x60, 0x4F, 0x04, 0x60, 0x00, 0x0A,
	0xB0, 0x40, 0x00, 0x0E, 0x40, 0x7F, 0x81, 0x01, 0x90, 0x33, 0x49, 0x01,
	0x4B, 0x46, 0x81, 0x29, 0x52, 0x00, 0x05, 0xB0, 0x40, 0x00, 0x04, 0x90,
	0x52, 0x54, 0x02, 0x3C, 0x56, 0x00, 0x48, 0x50, 0x01, 0x38, 0x4F, 0x13,
	0xB0, 0x40, 0x7F, 0x81, 0x02, 0x90, 0x33, 0x00, 0x00, 0x54, 0x00, 0x06,
	0x3F, 0x49, 0x00, 0x54, 0x4D, 0x00, 0x60, 0x4E, 0x03, 0x33, 0x49, 0x07,
	0x60, 0x00, 0x81, 0x21, 0x55, 0x00, 0x05, 0x55, 0x4D, 0x03, 0x61, 0x50,
	0x02, 0x2E, 0x4E, 0x2C, 0x36, 0x00, 0x07, 0x3C, 0x00, 0x55, 0x3F, 0x00,
	0x0F, 0x48, 0x00, 0x05, 0xB0, 0x40, 0x00, 0x00, 0x90, 0x48, 0x49, 0x01,
	0x35, 0x56, 0x01, 0x41, 0x46, 0x10, 0xB0, 0x40, 0x7F, 0x81, 0x12, 0x90,
	0x3A, 0x00, 0x00, 0x46, 0x00, 0x00, 0x54, 0x00, 0x05, 0x5C, 0x5F, 0x01,
	0x31, 0x00, 0x02, 0x38, 0x00, 0x00, 0x49, 0x53, 0x02, 0x3A, 0x54, 0x00,
	0x46, 0x50, 0x00, 0x3D, 0x56, 0x06, 0x2C, 0x00, 0x17, 0x52, 0x00, 0x63,
	0x4B, 0x00, 0x17, 0x35, 0x00, 0x06, 0x59, 0x59, 0x00, 0x65, 0x56, 0x03,
	0x35, 0x55, 0x81, 0x20, 0x2E, 0x00, 0x00, 0x59, 0x00, 0x00, 0x65, 0x00,
	0x04, 0x59, 0x59, 0x02, 0x65, 0x5C, 0x00, 0x2E, 0x52, 0x0A, 0x55, 0x00,
	0x81, 0x12, 0x35, 0x00, 0x00, 0x41, 0x00, 0x09, 0x41, 0x44, 0x00, 0x35,
	0x57, 0x81, 0x18, 0x5C, 0x00, 0x08, 0x3A, 0x00, 0x00, 0x3D, 0x00, 0x00,
	0x46, 0x00, 0x00, 0x49, 0x00, 0x03, 0x5C, 0x5C, 0x02, 0x49, 0x50, 0x02,
	0x46, 0x50, 0x03, 0x3D, 0x54, 0x00, 0x3A, 0x54, 0x81, 0x17, 0x35, 0x00,
	0x00, 0x59, 0x00, 0x00, 0x65, 0x00, 0x04, 0x59, 0x5A, 0x00, 0x65, 0x5D,
	0x02, 0x35, 0x59, 0x81, 0x2E, 0x27, 0x51, 0x00, 0x63, 0x5C, 0x00, 0x57,
	0x5E, 0x02, 0xB0, 0x40, 0x00, 0x04, 0x90, 0x59, 0x00, 0x01, 0x35, 0x00,
	0x00, 0x65, 0x00, 0x00, 0x2E, 0x00, 0x00, 0x5C, 0x00, 0x01, 0x61, 0x00,
	0x04, 0x48, 0x00, 0x00, 0x49, 0x00, 0x08, 0x33, 0x00, 0x00, 0x3D, 0x00,
	0x00, 0x46, 0x00, 0x07, 0x3A, 0x00, 0x00, 0xB0, 0x40, 0x7F, 0x5C, 0x90,
	0x41, 0x00, 0x3B, 0x2E, 0x50, 0x5F, 0x57, 0x00, 0x2E, 0x63, 0x00, 0x16,
	0x49, 0x4C, 0x02, 0x42, 0x49, 0x01, 0x3F, 0x4D, 0x00, 0x36, 0x58, 0x05,
	0x33, 0x49, 0x81, 0x1A, 0x2E, 0x00, 0x06, 0x55, 0x49, 0x03, 0x61, 0x4C,
	0x00, 0x2E, 0x4A, 0x07, 0x61, 0x00, 0x81, 0x1D, 0x63, 0x5D, 0x02, 0x57,
	0x5F, 0x00, 0x4B, 0x52, 0x0B, 0x29, 0x49, 0x81, 0x21, 0x30, 0x49, 0x81,
	0x26, 0x54, 0x52, 0x00, 0x48, 0x54, 0x03, 0x35, 0x52, 0x01, 0x41, 0x4B,
	0x01, 0x45, 0x4E, 0x00, 0x39, 0x52, 0x81, 0x17, 0x30, 0x00, 0x09, 0x30,
	0x4A, 0x81, 0x27, 0x2E, 0x00, 0x04, 0x52, 0x52, 0x01, 0x2E, 0x4B, 0x01,
	0x4D, 0x44, 0x01, 0x46, 0x47, 0x09, 0x63, 0x00, 0x03, 0x35, 0x00, 0x00,
	0x3F, 0x00, 0x01, 0x33, 0x00, 0x00, 0x48, 0x00, 0x00, 0x4B, 0x00, 0x00,
	0x36, 0x00, 0x00, 0x39, 0x00, 0x00, 0x55, 0x00, 0x00, 0x45, 0x00, 0x01,
	0x49, 0x00, 0x00, 0x57, 0x00, 0x06, 0xB0, 0x40, 0x00, 0x04, 0x90, 0x42,
	0x00, 0x08, 0x27, 0x00, 0x00, 0x30, 0x00, 0x00, 0x54, 0x00, 0x00, 0xB0,
	0x40, 0x7F, 0x07, 0x90, 0x41, 0x00, 0x7B, 0x35, 0x56, 0x02, 0x41, 0x48,
	0x81, 0x1B, 0xB0, 0x40, 0x00, 0x0C, 0x90, 0x46, 0x00, 0x00, 0x4D, 0x00,
	0x04, 0x4D, 0x46, 0x04, 0x3A, 0x50, 0x03, 0x46, 0x46, 0x0C, 0xB0, 0x40,
	0x7F, 0x81, 0x0E, 0x90, 0x3C, 0x5B, 0x01, 0x48, 0x4B, 0x81, 0x28, 0x3D,
	0x5A, 0x00, 0x49, 0x51, 0x82, 0x28, 0x29, 0x00, 0x00, 0x52, 0x00, 0x17,
	0x46, 0x00, 0x05, 0x46, 0x58, 0x81, 0x1C, 0x49, 0x00, 0x06, 0x49, 0x59,
	0x81, 0x2B, 0x49, 0x00, 0x05, 0x49, 0x58, 0x05, 0x2A, 0x4F, 0x05, 0x41,
	0x00, 0x04, 0x3A, 0x00, 0x00, 0x3C, 0x00, 0x00, 0x46, 0x00, 0x00, 0x48,
	0x00, 0x01, 0x3D, 0x00, 0x01, 0xB0, 0x40, 0x00, 0x02, 0x90, 0x4D, 0x00,
	0x08, 0x2E, 0x00, 0x00, 0x35, 0x00, 0x0F, 0xB0, 0x40, 0x7F, 0x81, 0x07,
	0x90, 0x31, 0x4A, 0x81, 0x22, 0x46, 0x55, 0x03, 0x36, 0x58, 0x01, 0x3A,
	0x53, 0x02, 0x42, 0x4B, 0x81, 0x1B, 0x4D, 0x53, 0x81, 0x29, 0x4B, 0x53,
	0x04, 0x2C, 0x4A, 0x07, 0xB0, 0x40, 0x00, 0x0F, 0x40, 0x7F, 0x81, 0x07,
	0x90, 0x33, 0x4B, 0x81, 0x2C, 0x49, 0x00, 0x07, 0x49, 0x58, 0x03, 0x3C,
	0x55, 0x00, 0x38, 0x4F, 0x02, 0x4B, 0x00, 0x00, 0x42, 0x00, 0x00, 0x4D,
	0x00, 0x00, 0x44, 0x49, 0x01, 0x36, 0x00, 0x00, 0x3A, 0x00, 0x02, 0x46,
	0x00, 0x00, 0xB0, 0x40, 0x00, 0x08, 0x90, 0x2A, 0x00, 0x08, 0x31, 0x00,
	0x07, 0xB0, 0x40, 0x7F, 0x7F, 0x90, 0x4B, 0x50, 0x81, 0x32, 0x4D, 0x56,
	0x05, 0x29, 0x4D, 0x09, 0xB0, 0x40, 0x00, 0x06, 0x90, 0x4B, 0x00, 0x02,
	0x3C, 0x00, 0x04, 0x2C, 0x00, 0x00, 0x33, 0x00, 0x0F, 0xB0, 0x40, 0x7F,
	0x08, 0x90, 0x49, 0x00, 0x76, 0x30, 0x47, 0x81, 0x2B, 0x48, 0x55, 0x03,
	0x38, 0x00, 0x00, 0x44, 0x00, 0x02, 0x35, 0x4D, 0x01, 0x38, 0x4D, 0x01,
	0xB0, 0x40, 0x00, 0x02, 0x90, 0x44, 0x44, 0x11, 0xB0, 0x40, 0x7F, 0x82,
	0x31, 0x90, 0x46, 0x53, 0x02, 0x2E, 0x49, 0x07, 0xB0, 0x40, 0x00, 0x10,
	0x40, 0x7F, 0x81, 0x02, 0x90, 0x35, 0x00, 0x07, 0x35, 0x4D, 0x81, 0x2A,
	0x46, 0x00, 0x00, 0x4D, 0x00, 0x03, 0xB0, 0x40, 0x00, 0x05, 0x90, 0x46,
	0x53, 0x02, 0x4D, 0x49, 0x01, 0x3D, 0x52, 0x01, 0x3A, 0x4F, 0x00, 0x49,
	0x48, 0x0B, 0xB0, 0x40, 0x7F, 0x81, 0x0A, 0x90, 0x44, 0x00, 0x05, 0x44,
	0x51, 0x81, 0x2C, 0x46, 0x00, 0x08, 0x46, 0x52, 0x01, 0x2A, 0x4A, 0x02,
	0x30, 0x00, 0x01, 0xB0, 0x40, 0x00, 0x00, 0x90, 0x2E, 0x00, 0x00, 0x3A,
	0x00, 0x00, 0x3D, 0x00, 0x01, 0x35, 0x00, 0x00, 0x48, 0x00, 0x00, 0x4D,
	0x00, 0x01, 0x29, 0x00, 0x00, 0x38, 0x00, 0x01, 0x49, 0x00, 0x17, 0xB0,
	0x40, 0x7F, 0x81, 0x04, 0x90, 0x31, 0x48, 0x39, 0x3A, 0x40, 0x61, 0xB0,
	0x40, 0x00, 0x06, 0x90, 0x46, 0x00, 0x08, 0x3A, 0x00, 0x04, 0x46, 0x53,
	0x04, 0x44, 0x00, 0x01, 0x3A, 0x51, 0x01, 0x36, 0x55, 0x02, 0x42, 0x44,
	0x13, 0xB0, 0x40, 0x7F, 0x81, 0x06, 0x90, 0x4D, 0x51, 0x81, 0x2A, 0x4B,
	0x51, 0x05, 0x2C, 0x46, 0x04, 0xB0, 0x40, 0x00, 0x09, 0x40, 0x7F, 0x81,
	0x17, 0x90, 0x3F, 0x43, 0x01, 0x33, 0x49, 0x81, 0x26, 0xB0, 0x40, 0x00,
	0x01, 0x90, 0x49, 0x53, 0x06, 0x3C, 0x51, 0x01, 0x38, 0x4C, 0x04, 0xB0,
	0x40, 0x7F, 0x01, 0x90, 0x44, 0x44, 0x81, 0x0A, 0x4B, 0x00, 0x0B, 0x4B,
	0x4E, 0x81, 0x25, 0x31, 0x00, 0x00, 0x4D, 0x00, 0x04, 0x4D, 0x54, 0x05,
	0x31, 0x4C, 0x02, 0xB0, 0x40, 0x00, 0x1C, 0x40, 0x7F, 0x81, 0x02, 0x90,
	0x38, 0x00, 0x00, 0x44, 0x00, 0x06, 0x38, 0x4F, 0x03, 0x44, 0x44, 0x81,
	0x18, 0x49, 0x00, 0x00, 0x4D, 0x00, 0x05, 0x4D, 0x53, 0x02, 0x41, 0x4B,
	0x01, 0x49, 0x4A, 0x00, 0x3A, 0x00, 0x01, 0x3D, 0x52, 0x01, 0xB0, 0x40,
	0x00, 0x02, 0x90, 0x42, 0x00, 0x00, 0x2C, 0x00, 0x01, 0x33, 0x00, 0x00,
	0x36, 0x00, 0x00, 0x4B, 0x00, 0x00, 0x3F, 0x00, 0x00, 0x3C, 0x00, 0x00,
	0x46, 0x00, 0x01, 0x44, 0x00, 0x0A, 0x2A, 0x00, 0x17, 0xB0, 0x40, 0x7F,
	0x78, 0x90, 0x50, 0x51, 0x81, 0x24, 0x31, 0x00, 0x00, 0x49, 0x00, 0x00,
	0x4D, 0x00, 0x04, 0x4D, 0x55, 0x03, 0x31, 0x4B, 0x03, 0x49, 0x46, 0x0D,
	0xB0, 0x40, 0x00, 0x17, 0x40, 0x7F, 0x7B, 0x90, 0x38, 0x00, 0x04, 0x4B,
	0x44, 0x01, 0x38, 0x52, 0x02, 0x44, 0x45, 0x81, 0x22, 0x49, 0x00, 0x00,
	0x4D, 0x00, 0x07, 0x4D, 0x54, 0x00, 0x3D, 0x00, 0x02, 0xB0, 0x40, 0x00,
	0x02, 0x90, 0x49, 0x4B, 0x00, 0x3D, 0x53, 0x13, 0xB0, 0x40, 0x7F, 0x81,
	0x03, 0x90, 0x38, 0x00, 0x00, 0x44, 0x00, 0x00, 0x50, 0x00, 0x06, 0x50,
	0x50, 0x04, 0x38, 0x50, 0x01, 0x44, 0x47, 0x81, 0x16, 0x41, 0x00, 0x0D,
	0x52, 0x50, 0x05, 0x2A, 0x4D, 0x01, 0xB0, 0x40, 0x00, 0x01, 0x90, 0x3D,
	0x00, 0x00, 0x38, 0x00, 0x00, 0x50, 0x00, 0x00, 0x49, 0x00, 0x00, 0x44,
	0x00, 0x01, 0x4D, 0x00, 0x0A, 0x31, 0x00, 0x17, 0xB0, 0x40, 0x7F, 0x81,
	0x00, 0x90, 0x31, 0x47, 0x01, 0x49, 0x38, 0x81, 0x04, 0x4B, 0x00, 0x25,
	0x50, 0x54, 0x01, 0x36, 0x52, 0x03, 0x3A, 0x4F, 0x01, 0x42, 0x46, 0x02,
	0x46, 0x46, 0x06, 0xB0, 0x40, 0x00, 0x1B, 0x40, 0x7F, 0x78, 0x90, 0x4D,
	0x4F, 0x81, 0x2A, 0x4B, 0x52, 0x04, 0x2C, 0x47, 0x0A, 0xB0, 0x40, 0x00,
	0x0B, 0x40, 0x7F, 0x81, 0x07, 0x90, 0x33, 0x49, 0x81, 0x24, 0x49, 0x00,
	0x07, 0x49, 0x53, 0x00, 0x50, 0x00, 0x00, 0xB0, 0x40, 0x00, 0x01, 0x90,
	0x3A, 0x00, 0x01, 0x3C, 0x53, 0x00, 0x36, 0x00, 0x00, 0x4D, 0x00, 0x01,
	0x46, 0x00, 0x01, 0x38, 0x4E, 0x01, 0x44, 0x49, 0x04, 0x31, 0x00, 0x00,
	0x42, 0x00, 0x00, 0x52, 0x00, 0x0F, 0xB0, 0x40, 0x7F, 0x08, 0x90, 0x2A,
	0x00, 0x7B, 0x4B, 0x00, 0x09, 0x4B, 0x4F, 0x81, 0x34, 0x50, 0x4F, 0x04,
	0x29, 0x47, 0x00, 0xB0, 0x40, 0x00, 0x01, 0x90, 0x49, 0x00, 0x02, 0x3C,
	0x00, 0x13, 0xB0, 0x40, 0x7F, 0x81, 0x0F, 0x90, 0x4D, 0x4F, 0x05, 0x48,
	0x40, 0x01, 0x30, 0x49, 0x81, 0x1E, 0x38, 0x00, 0x00, 0x48, 0x00, 0x00,
	0x4D, 0x00, 0x05, 0x4D, 0x51, 0x01, 0x35, 0x50, 0x03, 0x48, 0x4C, 0x00,
	0x41, 0x46, 0x01, 0x38, 0x4D, 0x02, 0xB0, 0x40, 0x00, 0x0B, 0x90, 0x33,
	0x00, 0x0F, 0x2C, 0x00, 0x10, 0xB0, 0x40, 0x7F, 0x6B, 0x90, 0x4B, 0x00,
	0x04, 0x4B, 0x51, 0x81, 0x2A, 0x46, 0x53, 0x04, 0x2E, 0x4A, 0x04, 0xB0,
	0x40, 0x00, 0x0A, 0x40, 0x7F, 0x81, 0x12, 0x90, 0x35, 0x00, 0x07, 0x35,
	0x53, 0x81, 0x21, 0x4B, 0x00, 0x00, 0x30, 0x00, 0x01, 0x46, 0x00, 0x01,
	0x29, 0x00, 0x01, 0x48, 0x00, 0x00, 0x4D, 0x00, 0x03, 0x46, 0x54, 0x00,
	0xB0, 0x40, 0x00, 0x03, 0x90, 0x50, 0x00, 0x02, 0x3D, 0x52, 0x00, 0x49,
	0x48, 0x00, 0x3A, 0x4F, 0x0D, 0x44, 0x00, 0x00, 0xB0, 0x40, 0x7F, 0x81,
	0x10, 0x90, 0x44, 0x52, 0x81, 0x2B, 0x46, 0x00, 0x06, 0x2A, 0x4B, 0x00,
	0x46, 0x55, 0x03, 0x41, 0x00, 0x00, 0xB0, 0x40, 0x00, 0x02, 0x90, 0x49,
	0x00, 0x04, 0x38, 0x00, 0x08, 0x35, 0x00, 0x08, 0xB0, 0x40, 0x7F, 0x07,
	0x90, 0x2E, 0x00, 0x81, 0x09, 0x31, 0x49, 0x81, 0x0E, 0xB0, 0x40, 0x00,
	0x0D, 0x90, 0x3A, 0x00, 0x00, 0x46, 0x00, 0x08, 0xB0, 0x40, 0x7F, 0x02,
	0x90, 0x36, 0x56, 0x01, 0x3A, 0x50, 0x00, 0x46, 0x4A, 0x00, 0x42, 0x47,
	0x04, 0x44, 0x00, 0x81, 0x16, 0x4D, 0x53, 0x81, 0x30, 0x4B, 0x55, 0x06,
	0x2C, 0x47, 0x0A, 0xB0, 0x40, 0x00, 0x13, 0x40, 0x7F, 0x81, 0x03, 0x90,
	0x33, 0x49, 0x81, 0x2A, 0x48, 0x55, 0x02, 0x3C, 0x55, 0x01, 0x38, 0x4D,
	0x00, 0xB0, 0x40, 0x00, 0x13, 0x90, 0x2A, 0x00, 0x00, 0x3D, 0x00, 0x00,
	0xB0, 0x40, 0x7F, 0x81, 0x03, 0x90, 0x48, 0x00, 0x05, 0x48, 0x52, 0x64,
	0xB0, 0x40, 0x00, 0x21, 0x40, 0x7F, 0x1F, 0x90, 0x46, 0x00, 0x0B, 0x46,
	0x55, 0x01, 0x2E, 0x4F, 0x81, 0x26, 0x35, 0x55, 0x01, 0x41, 0x45, 0x81,
	0x1E, 0x3A, 0x00, 0x06, 0x3A, 0x50, 0x04, 0xB0, 0x40, 0x00, 0x04, 0x90,
	0x33, 0x00, 0x00, 0x3C, 0x00, 0x01, 0x31, 0x00, 0x00, 0x42, 0x00, 0x00,
	0x38, 0x00, 0x00, 0x48, 0x00, 0x01, 0x4B, 0x00, 0x01, 0x2C, 0x00, 0x00,
	0x36, 0x00, 0x0E, 0x4D, 0x00, 0x17, 0xB0, 0x40, 0x7F, 0x70, 0x40, 0x00,
	0x08, 0x90, 0x3C, 0x5A, 0x01, 0x48, 0x48, 0x28, 0xB0, 0x40, 0x7F, 0x76,
	0x40, 0x00, 0x08, 0x90, 0x3D, 0x57, 0x01, 0x49, 0x4F, 0x13, 0xB0, 0x40,
	0x7F, 0x82, 0x2C, 0x90, 0x3A, 0x00, 0x00, 0x46, 0x00, 0x07, 0x46, 0x56,
	0x03, 0x3A, 0x53, 0x03, 0xB0, 0x40, 0x00, 0x02, 0x90, 0x48, 0x00, 0x00,
	0x41, 0x00, 0x04, 0x35, 0x00, 0x13, 0x3C, 0x00, 0x08, 0xB0, 0x40, 0x7F,
	0x78, 0x90, 0x48, 0x56, 0x81, 0x2C, 0x49, 0x00, 0x05, 0x49, 0x56, 0x05,
	0x2A, 0x4F, 0x01, 0x48, 0x00, 0x01, 0xB0, 0x40, 0x00, 0x0B, 0x90, 0x2E,
	0x00, 0x00, 0x3A, 0x00, 0x0F, 0x3D, 0x00, 0x00, 0xB0, 0x40, 0x7F, 0x2E,
	0x90, 0x46, 0x00, 0x4D, 0x49, 0x00, 0x06, 0x49, 0x52, 0x01, 0x31, 0x4A,
	0x81, 0x2A, 0x49, 0x00, 0x05, 0xB0, 0x40, 0x00, 0x02, 0x90, 0x49, 0x54,
	0x02, 0x36, 0x54, 0x00, 0x2A, 0x00, 0x02, 0x3A, 0x4E, 0x00, 0x42, 0x48,
	0x1B, 0xB0, 0x40, 0x7F, 0x7B, 0x90, 0x31, 0x00, 0x06, 0x31, 0x49, 0x01,
	0x46, 0x4D, 0x81, 0x26, 0x4B, 0x51, 0x0F, 0x2C, 0x48, 0x81, 0x16, 0x49,
	0x00, 0x05, 0x49, 0x52, 0x01, 0x33, 0x44, 0x0B, 0xB0, 0x40, 0x00, 0x0E,
	0x40, 0x7F, 0x26, 0x90, 0x4B, 0x00, 0x0B, 0x4B, 0x4F, 0x66, 0x3C, 0x58,
	0x01, 0x38, 0x4D, 0x01, 0x48, 0x48, 0x02, 0x44, 0x48, 0x81, 0x10, 0x33,
	0x00, 0x00, 0x49, 0x00, 0x07, 0x49, 0x51, 0x02, 0x33, 0x46, 0x4C, 0x4B,
	0x00, 0x05, 0x4B, 0x4E, 0x07, 0xB0, 0x40, 0x00, 0x1A, 0x40, 0x7F, 0x3D,
	0x90, 0x4D, 0x52, 0x04, 0x29, 0x48, 0x81, 0x16, 0x48, 0x00, 0x00, 0x4D,
	0x00, 0x05, 0x4D, 0x50, 0x06, 0x30, 0x48, 0x00, 0x48, 0x3E, 0x81, 0x1E,
	0x48, 0x00, 0x00, 0x4D, 0x00, 0x08, 0x38, 0x00, 0x01, 0x4D, 0x4E, 0x02,
	0x48, 0x46, 0x01, 0x35, 0x4D, 0x05, 0x38, 0x4A, 0x81, 0x10, 0x30, 0x00,
	0x08, 0x50, 0x4E, 0x03, 0x30, 0x47, 0x81, 0x1E, 0x4D, 0x00, 0x05, 0x4D,
	0x52, 0x03, 0x2E, 0x4E, 0x81, 0x1A, 0x35, 0x00, 0x00, 0x4B, 0x00, 0x05,
	0x4B, 0x4F, 0x01, 0x35, 0x4C, 0x4E, 0x4D, 0x00, 0x07, 0x4D, 0x4F, 0x5D,
	0x3A, 0x00, 0x00, 0x46, 0x00, 0x00, 0x49, 0x00, 0x04, 0x3D, 0x55, 0x02,
	0x3A, 0x4F, 0x00, 0x49, 0x4B, 0x04, 0x46, 0x49, 0x81, 0x10, 0x35, 0x00,
	0x00, 0x46, 0x00, 0x05, 0x46, 0x50, 0x01, 0x35, 0x4E, 0x46, 0x48, 0x00,
	0x05, 0x48, 0x51, 0x57, 0x49, 0x00, 0x0B, 0x49, 0x53, 0x05, 0x2A, 0x4A,
	0x81, 0x19, 0x31, 0x00, 0x00, 0x3D, 0x00, 0x00, 0x49, 0x00, 0x08, 0x49,
	0x51, 0x02, 0x31, 0x4A, 0x01, 0x3D, 0x4A, 0x81, 0x1E, 0x36, 0x00, 0x00,
	0x49, 0x00, 0x08, 0x3A, 0x00, 0x00, 0x42, 0x00, 0x01, 0x49, 0x53, 0x01,
	0x36, 0x53, 0x02, 0x3A, 0x4F, 0x00, 0x42, 0x46, 0x81, 0x16, 0x31, 0x00,
	0x00, 0x46, 0x00, 0x06, 0x46, 0x4E, 0x02, 0x31, 0x4A, 0x81, 0x21, 0x4B,
	0x00, 0x07, 0x2C, 0x00, 0x04, 0x4B, 0x4E, 0x06, 0x2C, 0x48, 0x02, 0xB0,
	0x40, 0x00, 0x13, 0x40, 0x7F, 0x81, 0x03, 0x90, 0x33, 0x00, 0x00, 0x49,
	0x00, 0x04, 0x49, 0x50, 0x00, 0x33, 0x43, 0x48, 0x4B, 0x00, 0x07, 0x4B,
	0x50, 0x5D, 0x38, 0x00, 0x00, 0x3C, 0x00, 0x00, 0x44, 0x00, 0x00, 0x48,
	0x00, 0x06, 0x3C, 0x55, 0x02, 0x48, 0x45, 0x00, 0x38, 0x49, 0x02, 0x44,
	0x43, 0x81, 0x10, 0x33, 0x00, 0x00, 0x49, 0x00, 0x07, 0x49, 0x50, 0x04,
	0x33, 0x46, 0x1B, 0x50, 0x00, 0x2E, 0x4B, 0x00, 0x04, 0x4B, 0x4E, 0x58,
	0x31, 0x00, 0x00, 0x4D, 0x00, 0x07, 0x4D, 0x52, 0x03, 0x31, 0x4D, 0x81,
	0x18, 0x38, 0x00, 0x00, 0x4D, 0x00, 0x06, 0x4D, 0x4D, 0x01, 0x44, 0x00,
	0x00, 0x48, 0x00, 0x03, 0x38, 0x49, 0x01, 0x48, 0x3B, 0x01, 0x44, 0x42,
	0x81, 0x1D, 0x3D, 0x00, 0x00, 0x49, 0x00, 0x00, 0x4D, 0x00, 0x07, 0x4D,
	0x51, 0x00, 0x41, 0x4A, 0x01, 0xB0, 0x40, 0x00, 0x03, 0x90, 0x49, 0x47,
	0x00, 0x3D, 0x4F, 0x02, 0x33, 0x00, 0x01, 0x3C, 0x00, 0x09, 0xB0, 0x40,
	0x7F, 0x0F, 0x90, 0x30, 0x00, 0x00, 0x42, 0x00, 0x7B, 0x36, 0x00, 0x00,
	0x44, 0x00, 0x00, 0x4B, 0x00, 0x08, 0x38, 0x00, 0x00, 0x50, 0x4E, 0x02,
	0x4B, 0x43, 0x01, 0x44, 0x43, 0x02, 0x38, 0x4B, 0x02, 0x2A, 0x00, 0x08,
	0x2E, 0x00, 0x36, 0x29, 0x00, 0x64, 0x4D, 0x00, 0x07, 0x4D, 0x52, 0x04,
	0x29, 0x4C, 0x01, 0xB0, 0x40, 0x00, 0x09, 0x90, 0x41, 0x00, 0x01, 0x3D,
	0x00, 0x08, 0x46, 0x00, 0x08, 0xB0, 0x40, 0x7F, 0x08, 0x90, 0x49, 0x00,
	0x07, 0x3A, 0x00, 0x08, 0x48, 0x00, 0x0F, 0x35, 0x00, 0x08, 0x31, 0x00,
	0x4D, 0x4B, 0x00, 0x0B, 0x4B, 0x4C, 0x01, 0x48, 0x40, 0x00, 0x30, 0x46,
	0x48, 0x30, 0x00, 0x00, 0x4D, 0x00, 0x08, 0x4D, 0x4F, 0x02, 0x30, 0x45,
	0x5C, 0x35, 0x4E, 0x02, 0x39, 0x4C, 0x02, 0x45, 0x42, 0x81, 0x14, 0x30,
	0x00, 0x00, 0x4D, 0x00, 0x06, 0x4D, 0x4F, 0x03, 0x30, 0x41, 0x4B, 0x35,
	0x00, 0x00, 0x39, 0x00, 0x00, 0x50, 0x00, 0x05, 0x50, 0x49, 0x05, 0x39,
	0x3C, 0x01, 0x35, 0x3A, 0x59, 0x52, 0x4C, 0x03, 0x2A, 0x4A, 0x05, 0xB0,
	0x40, 0x00, 0x0F, 0x40, 0x7F, 0x81, 0x0A, 0x90, 0x52, 0x00, 0x08, 0x52,
	0x4D, 0x04, 0x31, 0x45, 0x00, 0x49, 0x3B, 0x81, 0x1D, 0x49, 0x00, 0x00,
	0x52, 0x00, 0x0A, 0x49, 0x4C, 0x01, 0xB0, 0x40, 0x00, 0x00, 0x90, 0x52,
	0x52, 0x00, 0x3A, 0x53, 0x00, 0x36, 0x53, 0x01, 0x46, 0x4C, 0x00, 0x4B,
	0x00, 0x04, 0x35, 0x00, 0x00, 0x4E, 0x44, 0x01, 0x29, 0x00, 0x00, 0x48,
	0x00, 0x06, 0x30, 0x00, 0x08, 0x44, 0x00, 0x08, 0x39, 0x00, 0x00, 0x45,
	0x00, 0x00, 0xB0, 0x40, 0x7F, 0x5C, 0x90, 0x4E, 0x00, 0x26, 0x31, 0x00,
	0x00, 0x50, 0x00, 0x07, 0x50, 0x4E, 0x04, 0x31, 0x44, 0x01, 0x3D, 0x43,
	0x0B, 0x2A, 0x00, 0x81, 0x12, 0x2C, 0x00, 0x00, 0x50, 0x00, 0x05, 0x50,
	0x4D, 0x01, 0x2C, 0x44, 0x02, 0x44, 0x3E, 0x09, 0xB0, 0x40, 0x00, 0x16,
	0x40, 0x7F, 0x7B, 0x90, 0x4D, 0x00, 0x06, 0x4D, 0x52, 0x01, 0x33, 0x45,
	0x52, 0x4B, 0x51, 0x57, 0x2C, 0x00, 0x00, 0x38, 0x00, 0x06, 0x3C, 0x56,
	0x00, 0x38, 0x4E, 0x01, 0x2C, 0x44, 0x01, 0x44, 0x00, 0x01, 0x48, 0x49,
	0x0A, 0x44, 0x45, 0x81, 0x0F, 0x33, 0x00, 0x00, 0x49, 0x00, 0x06, 0x49,
	0x53, 0x03, 0x33, 0x46, 0x43, 0x4B, 0x00, 0x05, 0x4B, 0x4D, 0x57, 0x50,
	0x00, 0x08, 0x50, 0x4E, 0x06, 0x29, 0x46, 0x0C, 0xB0, 0x40, 0x00, 0x00,
	0x90, 0x31, 0x00, 0x02, 0x46, 0x00, 0x00, 0x3C, 0x00, 0x13, 0x36, 0x00,
	0x00, 0x3A, 0x00, 0x00, 0x3D, 0x00, 0x00, 0xB0, 0x40, 0x7F, 0x7A, 0x90,
	0x48, 0x00, 0x00, 0x50, 0x00, 0x07, 0x50, 0x4C, 0x02, 0x30, 0x45, 0x02,
	0x48, 0x42, 0x81, 0x26, 0x44, 0x00, 0x00, 0x48, 0x00, 0x00, 0x50, 0x00,
	0x05, 0x50, 0x4D, 0x01, 0x41, 0x42, 0x00, 0x44, 0x49, 0x02, 0x38, 0x00,
	0x01, 0x48, 0x4B, 0x01, 0x35, 0x4F, 0x02, 0x38, 0x49, 0x81, 0x15, 0x48,
	0x00, 0x08, 0x30, 0x00, 0x04, 0x48, 0x53, 0x00, 0x30, 0x41, 0x81, 0x1D,
	0x48, 0x00, 0x05, 0x48, 0x50, 0x04, 0x2E, 0x4C, 0x81, 0x20, 0x35, 0x00,
	0x00, 0x44, 0x00, 0x00, 0x48, 0x00, 0x07, 0x48, 0x47, 0x02, 0x44, 0x52,
	0x01, 0x35, 0x4A, 0x49, 0x46, 0x53, 0x5E, 0x49, 0x00, 0x00, 0x4D, 0x00,
	0x06, 0x3D, 0x53, 0x02, 0x3A, 0x4E, 0x01, 0x49, 0x44, 0x00, 0x4D, 0x45,
	0x81, 0x11, 0x35, 0x00, 0x00, 0x44, 0x00, 0x00, 0x48, 0x00, 0x06, 0x44,
	0x54, 0x03, 0x35, 0x4F, 0x01, 0x48, 0x49, 0x05, 0x52, 0x00, 0x81, 0x19,
	0x46, 0x00, 0x05, 0x27, 0x46, 0x01, 0x46, 0x50, 0x19, 0x44, 0x00, 0x04,
	0x44, 0x29, 0x7F, 0x2E, 0x00, 0x00, 0x44, 0x00, 0x09, 0x44, 0x37, 0x02,
	0x2E, 0x49, 0x49, 0x4D, 0x00, 0x06, 0x4D, 0x54, 0x56, 0x4B, 0x00, 0x08,
	0x33, 0x00, 0x03, 0x36, 0x53, 0x00, 0x4B, 0x4A, 0x01, 0x3F, 0x4A, 0x00,
	0x42, 0x46, 0x00, 0x33, 0x48, 0x01, 0xB0, 0x40, 0x00, 0x01, 0x90, 0x38,
	0x00, 0x00, 0x30, 0x00, 0x00, 0x35, 0x00, 0x01, 0x49, 0x00, 0x00, 0x29,
	0x00, 0x00, 0x48, 0x00, 0x01, 0x41, 0x00, 0x01, 0x3A, 0x00, 0x00, 0x44,
	0x00, 0x00, 0x4D, 0x00, 0x01, 0x3D, 0x00, 0x01, 0x50, 0x00, 0x0C, 0x2C,
	0x00, 0x08, 0xB0, 0x40, 0x7F, 0x81, 0x06, 0x90, 0x4D, 0x50, 0x01, 0x3A,
	0x43, 0x03, 0x2E, 0x00, 0x05, 0x2E, 0x46, 0x81, 0x1C, 0x4D, 0x00, 0x08,
	0x4D, 0x51, 0x04, 0x29, 0x4C, 0x18, 0xB0, 0x40, 0x00, 0x0A, 0x40, 0x7F,
	0x7E, 0x90, 0x30, 0x4A, 0x42, 0x4B, 0x00, 0x07, 0x4B, 0x53, 0x60, 0x35,
	0x52, 0x01, 0x41, 0x41, 0x00, 0x48, 0x49, 0x02, 0x38, 0x4E, 0x05, 0x44,
	0x42, 0x81, 0x17, 0x30, 0x00, 0x04, 0x49, 0x54, 0x04, 0x30, 0x46, 0x81,
	0x20, 0x27, 0x00, 0x00, 0x2E, 0x00, 0x00, 0x46, 0x00, 0x08, 0x46, 0x55,
	0x03, 0x2E, 0x4F, 0x81, 0x17, 0x35, 0x00, 0x00, 0x41, 0x00, 0x09, 0x35,
	0x53, 0x01, 0x41, 0x44, 0x81, 0x26, 0x3A, 0x00, 0x00, 0x49, 0x00, 0x04,
	0xB0, 0x40, 0x00, 0x05, 0x90, 0x3A, 0x50, 0x02, 0x3D, 0x57, 0x00, 0x49,
	0x4D, 0x0C, 0x36, 0x00, 0x00, 0xB0, 0x40, 0x7F, 0x6C, 0x90, 0x42, 0x00,
	0x1F, 0x35, 0x00, 0x00, 0x41, 0x00, 0x09, 0x35, 0x50, 0x01, 0x41, 0x44,
	0x05, 0x38, 0x00, 0x00, 0x3F, 0x00, 0x05, 0xB0, 0x40, 0x00, 0x1A, 0x40,
	0x7F, 0x81, 0x02, 0x90, 0x3A, 0x00, 0x00, 0x3D, 0x00, 0x00, 0x46, 0x00,
	0x00, 0x49, 0x00, 0x05, 0x3D, 0x54, 0x02, 0x49, 0x49, 0x02, 0x3A, 0x4F,
	0x01, 0x46, 0x4B, 0x81, 0x10, 0x4D, 0x00, 0x05, 0x4D, 0x4F, 0x81, 0x2C,
	0x49, 0x00, 0x05, 0x50, 0x4E, 0x00, 0x49, 0x3D, 0x81, 0x1C, 0x4D, 0x00,
	0x05, 0x4D, 0x52, 0x81, 0x28, 0x52, 0x4E, 0x02, 0x2A, 0x4B, 0x08, 0xB0,
	0x40, 0x00, 0x01, 0x90, 0x48, 0x00, 0x03, 0x33, 0x00, 0x00, 0x29, 0x00,
	0x00, 0x2E, 0x00, 0x01, 0x3D, 0x00, 0x00, 0x3A, 0x00, 0x01, 0x4D, 0x00,
	0x00, 0x49, 0x00, 0x00, 0x50, 0x00, 0x00, 0x4B, 0x00, 0x0B, 0x30, 0x00,
	0x00, 0x41, 0x00, 0x00, 0x44, 0x00, 0x07, 0x35, 0x00, 0x08, 0xB0, 0x40,
	0x7F, 0x81, 0x02, 0x90, 0x31, 0x47, 0x03, 0x49, 0x3C, 0x81, 0x1F, 0x46,
	0x00, 0x00, 0x52, 0x00, 0x04, 0x52, 0x51, 0x00, 0x3A, 0x50, 0x00, 0x36,
	0x52, 0x03, 0x46, 0x4A, 0x00, 0x4E, 0x45, 0x02, 0x42, 0x46, 0x04, 0xB0,
	0x40, 0x00, 0x19, 0x40, 0x7F, 0x81, 0x0A, 0x90, 0x31, 0x00, 0x02, 0x61,
	0x49, 0x01, 0x55, 0x47, 0x02, 0x31, 0x47, 0x03, 0x61, 0x00, 0x1F, 0x42,
	0x00, 0x81, 0x07, 0x54, 0x4B, 0x00, 0x2C, 0x4A, 0x01, 0x60, 0x4A, 0x08,
	0xB0, 0x40, 0x00, 0x02, 0x90, 0x60, 0x00, 0x17, 0xB0, 0x40, 0x7F, 0x81,
	0x0A, 0x90, 0x4B, 0x44, 0x02, 0x33, 0x46, 0x81, 0x1F, 0x4B, 0x00, 0x00,
	0x52, 0x00, 0x04, 0xB0, 0x40, 0x00, 0x04, 0x90, 0x52, 0x51, 0x00, 0x48,
	0x4D, 0x01, 0x3C, 0x53, 0x00, 0x4B, 0x4D, 0x02, 0x38, 0x4A, 0x0C, 0xB0,
	0x40, 0x7F, 0x81, 0x0B, 0x90, 0x33, 0x00, 0x00, 0x4B, 0x00, 0x04, 0x50,
	0x50, 0x02, 0x33, 0x48, 0x00, 0x4B, 0x45, 0x81, 0x2A, 0x31, 0x00, 0x00,
	0x49, 0x00, 0x00, 0x50, 0x00, 0x05, 0x50, 0x4E, 0x00, 0x49, 0x41, 0x02,
	0x31, 0x47, 0x02, 0xB0, 0x40, 0x00, 0x1E, 0x40, 0x7F, 0x81, 0x02, 0x90,
	0x49, 0x00, 0x04, 0x3D, 0x53, 0x00, 0x49, 0x4A, 0x81, 0x25, 0x4B, 0x00,
	0x03, 0xB0, 0x40, 0x00, 0x01, 0x90, 0x4B, 0x4F, 0x02, 0x30, 0x4A, 0x11,
	0xB0, 0x40, 0x7F, 0x81, 0x12, 0x90, 0x38, 0x00, 0x05, 0x38, 0x4A, 0x01,
	0x44, 0x40, 0x81, 0x20, 0x4D, 0x52, 0x03, 0x2E, 0x4B, 0x81, 0x22, 0x35,
	0x51, 0x02, 0x41, 0x3F, 0x81, 0x1F, 0x3D, 0x00, 0x00, 0x49, 0x00, 0x00,
	0x50, 0x00, 0x05, 0xB0, 0x40, 0x00, 0x02, 0x90, 0x50, 0x55, 0x00, 0x3A,
	0x00, 0x00, 0x46, 0x00, 0x04, 0x49, 0x4B, 0x00, 0x3D, 0x56, 0x00, 0x3A,
	0x4C, 0x01, 0x46, 0x48, 0x1A, 0xB0, 0x40, 0x7F, 0x7B, 0x90, 0x35, 0x00,
	0x00, 0x41, 0x00, 0x00, 0x48, 0x00, 0x00, 0x4D, 0x00, 0x04, 0x4D, 0x4E,
	0x02, 0x41, 0x49, 0x00, 0x35, 0x51, 0x02, 0x48, 0x45, 0x81, 0x28, 0x33,
	0x00, 0x00, 0x4B, 0x00, 0x05, 0xB0, 0x40, 0x00, 0x00, 0x90, 0x4B, 0x54,
	0x02, 0x33, 0x46, 0x18, 0xB0, 0x40, 0x7F, 0x81, 0x03, 0x90, 0x3A, 0x00,
	0x07, 0x46, 0x00, 0x03, 0x3A, 0x50, 0x02, 0x46, 0x44, 0x67, 0x2A, 0x00,
	0x3B, 0xB0, 0x40, 0x00, 0x01, 0x90, 0x42, 0x4A, 0x01, 0x3F, 0x53, 0x27,
	0xB0, 0x40, 0x7F, 0x1F, 0x90, 0x3C, 0x00, 0x00, 0x4E, 0x00, 0x00, 0x52,
	0x00, 0x00, 0x54, 0x00, 0x00, 0x55, 0x00, 0x54, 0x3A, 0x00, 0x00, 0x49,
	0x00, 0x08, 0x46, 0x00, 0x01, 0x49, 0x53, 0x02, 0x3A, 0x4C, 0x01, 0x46,
	0x47, 0x13, 0x2C, 0x00, 0x81, 0x0A, 0x4B, 0x00, 0x00, 0x50, 0x00, 0x04,
	0x50, 0x4D, 0x01, 0x2C, 0x45, 0x04, 0x4B, 0x3A, 0x04, 0x3A, 0x00, 0x01,
	0x42, 0x00, 0x00, 0x49, 0x00, 0x01, 0x48, 0x00, 0x00, 0xB0, 0x40, 0x00,
	0x01, 0x90, 0x41, 0x00, 0x01, 0x3F, 0x00, 0x00, 0x35, 0x00, 0x01, 0x4D,
	0x00, 0x05, 0x30, 0x00, 0x00, 0x36, 0x00, 0x08, 0x31, 0x00, 0x00, 0x38,
	0x00, 0x00, 0x44, 0x00, 0x07, 0x3D, 0x00, 0x00, 0xB0, 0x40, 0x7F, 0x81,
	0x03, 0x90, 0x4B, 0x00, 0x08, 0x33, 0x00, 0x00, 0x4B, 0x40, 0x03, 0x3F,
	0x41, 0x02, 0x33, 0x45, 0x81, 0x1C, 0x4B, 0x00, 0x03, 0xB0, 0x40, 0x00,
	0x03, 0x90, 0x4B, 0x56, 0x04, 0x3C, 0x52, 0x00, 0x48, 0x47, 0x01, 0x38,
	0x4E, 0x00, 0x44, 0x48, 0x23, 0xB0, 0x40, 0x7F, 0x73, 0x90, 0x33, 0x00,
	0x00, 0x3F, 0x00, 0x08, 0x3F, 0x41, 0x01, 0x33, 0x47, 0x81, 0x2C, 0x4D,
	0x50, 0x02, 0x31, 0x49, 0x00, 0x49, 0x3F, 0x81, 0x23, 0x38, 0x00, 0x00,
	0x44, 0x00, 0x05, 0x38, 0x4E, 0x03, 0x44, 0x43, 0x81, 0x19, 0x49, 0x00,
	0x0A, 0x41, 0x4C, 0x01, 0x49, 0x46, 0x00, 0x3D, 0x53, 0x02, 0xB0, 0x40,
	0x00, 0x12, 0x40, 0x7F, 0x81, 0x0A, 0x90, 0x38, 0x00, 0x00, 0x44, 0x00,
	0x05, 0x38, 0x4A, 0x04, 0x44, 0x3C, 0x81, 0x18, 0x3D, 0x00, 0x00, 0x41,
	0x00, 0x00, 0x49, 0x00, 0x0B, 0x41, 0x4C, 0x00, 0x49, 0x48, 0x01, 0x3D,
	0x4F, 0x81, 0x16, 0x38, 0x00, 0x00, 0x4D, 0x00, 0x04, 0x4D, 0x4E, 0x07,
	0x38, 0x46, 0x81, 0x1E, 0x3D, 0x00, 0x00, 0x41, 0x00, 0x00, 0x49, 0x00,
	0x00, 0x50, 0x00, 0x08, 0x50, 0x50, 0x00, 0x49, 0x47, 0x02, 0x41, 0x47,
	0x00, 0x3D, 0x4E, 0x05, 0x31, 0x00, 0x01, 0x33, 0x00, 0x01, 0x44, 0x00,
	0x01, 0xB0, 0x40, 0x00, 0x14, 0x40, 0x7F, 0x17, 0x90, 0x46, 0x00, 0x0F,
	0x3C, 0x00, 0x5C, 0x38, 0x00, 0x00, 0x4D, 0x00, 0x06, 0x4D, 0x50, 0x05,
	0x38, 0x48, 0x81, 0x24, 0x52, 0x4E, 0x02, 0x2E, 0x00, 0x03, 0x2A, 0x4B,
	0x03, 0xB0, 0x40, 0x00, 0x06, 0x90, 0x4B, 0x00, 0x01, 0x50, 0x00, 0x00,
	0x4D, 0x00, 0x00, 0x3F, 0x00, 0x0A, 0x3D, 0x00, 0x00, 0x41, 0x00, 0x08,
	0x49, 0x00, 0x08, 0x38, 0x00, 0x00, 0xB0, 0x40, 0x7F, 0x17, 0x90, 0x2C,
	0x00, 0x3D, 0x48, 0x00, 0x32, 0x31, 0x46, 0x81, 0x1D, 0x52, 0x00, 0x07,
	0x52, 0x53, 0x03, 0x4E, 0x47, 0x00, 0x36, 0x52, 0x00, 0x3A, 0x50, 0x01,
	0x46, 0x4D, 0x09, 0x2A, 0x00, 0x01, 0xB0, 0x40, 0x00, 0x19, 0x40, 0x7F,
	0x74, 0x90, 0x31, 0x00, 0x05, 0x61, 0x4B, 0x03, 0x55, 0x47, 0x03, 0x31,
	0x43, 0x04, 0x61, 0x00, 0x81, 0x20, 0x54, 0x4D, 0x01, 0x2C, 0x44, 0x03,
	0x60, 0x4A, 0x05, 0x60, 0x00, 0x81, 0x20, 0x3F, 0x42, 0x02, 0x4B, 0x45,
	0x02, 0x33, 0x46, 0x81, 0x1F, 0x52, 0x00, 0x04, 0xB0, 0x40, 0x00, 0x03,
	0x90, 0x52, 0x51, 0x01, 0x3C, 0x51, 0x01, 0x48, 0x4D, 0x02, 0x38, 0x49,
	0x04, 0x36, 0x00, 0x0F, 0xB0, 0x40, 0x7F, 0x81, 0x03, 0x90, 0x33, 0x00,
	0x00, 0x54, 0x00, 0x05, 0x54, 0x4C, 0x01, 0x33, 0x48, 0x81, 0x2A, 0x55,
	0x00, 0x05, 0x55, 0x4D, 0x02, 0x61, 0x4D, 0x00, 0x2E, 0x4C, 0x09, 0x61,
	0x00, 0x26, 0x3C, 0x00, 0x7D, 0x35, 0x56, 0x00, 0x41, 0x46, 0x3C, 0x3A,
	0x00, 0x00, 0x3F, 0x00, 0x00, 0x46, 0x00, 0x00, 0x48, 0x00, 0x00, 0x4B,
	0x00, 0x00, 0x52, 0x00, 0x1E, 0x4E, 0x00, 0x27, 0x38, 0x00, 0x1E, 0x54,
	0x00, 0x05, 0x5C, 0x5E, 0x00, 0xB0, 0x40, 0x00, 0x05, 0x90, 0x49, 0x53,
	0x01, 0x46, 0x4F, 0x01, 0x3D, 0x56, 0x00, 0x2C, 0x00, 0x00, 0x3A, 0x51,
	0x0B, 0x33, 0x00, 0x08, 0xB0, 0x40, 0x7F, 0x55, 0x90, 0x55, 0x00, 0x2E,
	0x35, 0x00, 0x04, 0x59, 0x5A, 0x00, 0x65, 0x59, 0x04, 0x35, 0x53, 0x81,
	0x21, 0x59, 0x00, 0x07, 0x2E, 0x00, 0x00, 0x3A, 0x00, 0x00, 0x65, 0x00,
	0x04, 0x59, 0x5B, 0x02, 0x65, 0x5C, 0x01, 0x3A, 0x50, 0x02, 0x2E, 0x51,
	0x81, 0x19, 0x35, 0x00, 0x00, 0x41, 0x00, 0x08, 0x41, 0x48, 0x00, 0x35,
	0x56, 0x81, 0x21, 0x3A, 0x00, 0x00, 0x3D, 0x00, 0x00, 0x46, 0x00, 0x00,
	0x49, 0x00, 0x00, 0x5C, 0x00, 0x04, 0x5C, 0x5F, 0x01, 0x49, 0x51, 0x01,
	0x46, 0x4F, 0x03, 0x3A, 0x53, 0x01, 0x3D, 0x56, 0x81, 0x17, 0x35, 0x00,
	0x00, 0x59, 0x00, 0x00, 0x65, 0x00, 0x04, 0x59, 0x55, 0x00, 0x65, 0x57,
	0x02, 0x35, 0x54, 0x81, 0x2D, 0x27, 0x50, 0x01, 0x63, 0x5C, 0x00, 0x57,
	0x5C, 0x05, 0xB0, 0x40, 0x00, 0x03, 0x90, 0x59, 0x00, 0x0B, 0x5C, 0x00,
	0x00, 0xB0, 0x40, 0x7F, 0x1F, 0x90, 0x57, 0x00, 0x10, 0x31, 0x00, 0x63,
	0x2E, 0x00, 0x04, 0x2E, 0x50, 0x04, 0x63, 0x00, 0x0F, 0x65, 0x00, 0x46,
	0x49, 0x00, 0x4B, 0x4B, 0x4A, 0x01, 0x49, 0x4B, 0x03, 0x42, 0x4A, 0x00,
	0x36, 0x57, 0x09, 0xB0, 0x40, 0x00, 0x04, 0x90, 0x3A, 0x00, 0x00, 0x46,
	0x00, 0x0F, 0x3D, 0x00, 0x08, 0x41, 0x00, 0x00, 0xB0, 0x40, 0x7F, 0x73,
	0x90, 0x2E, 0x00, 0x05, 0x55, 0x49, 0x04, 0x61, 0x4E, 0x01, 0x2E, 0x4B,
	0x81, 0x1F, 0x4B, 0x00, 0x05, 0x63, 0x60, 0x02, 0x4B, 0x51, 0x01, 0x57,
	0x61, 0x08, 0x29, 0x47, 0x81, 0x1F, 0x30, 0x48, 0x81, 0x1B, 0x35, 0x00,
	0x07, 0x35, 0x53, 0x01, 0x54, 0x54, 0x02, 0x48, 0x55, 0x01, 0x41, 0x4D,
	0x00, 0x39, 0x50, 0x01, 0x45, 0x4C, 0x81, 0x0E, 0x27, 0x00, 0x0F, 0x30,
	0x00, 0x04, 0x30, 0x46, 0x81, 0x25, 0x2E, 0x00, 0x04, 0x52, 0x51, 0x01,
	0x2E, 0x4B, 0x01, 0x4D, 0x44, 0x01, 0x46, 0x46, 0x0B, 0x30, 0x00, 0x00,
	0x35, 0x00, 0x01, 0x29, 0x00, 0x00, 0x61, 0x00, 0x00, 0xB0, 0x40, 0x00,
	0x00, 0x90, 0x45, 0x00, 0x01, 0x39, 0x00, 0x00, 0x36, 0x00, 0x00, 0x48,
	0x00, 0x00, 0x4B, 0x00, 0x00, 0x63, 0x00, 0x01, 0x54, 0x00, 0x00, 0x55,
	0x00, 0x0A, 0x42, 0x00, 0x07, 0x57, 0x00, 0x00, 0xB0, 0x40, 0x7F, 0x08,
	0x90, 0x49, 0x00, 0x27, 0x41, 0x00, 0x55, 0x35, 0x55, 0x02, 0x41, 0x45,
	0x78, 0x4D, 0x00, 0x2E, 0x46, 0x00, 0x04, 0x3A, 0x53, 0x00, 0x46, 0x46,
	0x03, 0xB0, 0x40, 0x00, 0x18, 0x40, 0x7F, 0x07, 0x90, 0x52, 0x00, 0x7F,
	0x3C, 0x5C, 0x01, 0x48, 0x4E, 0x81, 0x03, 0xB0, 0x40, 0x00, 0x21, 0x40,
	0x7F, 0x04, 0x90, 0x3D, 0x5A, 0x00, 0x49, 0x51, 0x81, 0x16, 0x49, 0x00,
	0x04, 0x49, 0x58, 0x81, 0x2A, 0x44, 0x54, 0x81, 0x1C, 0x2E, 0x00, 0x00,
	0x41, 0x00, 0x06, 0x2E, 0x42, 0x02, 0x41, 0x4B, 0x81, 0x29, 0x46, 0x00,
	0x05, 0x46, 0x58, 0x00, 0x2A, 0x4F, 0x06, 0xB0, 0x40, 0x00, 0x01, 0x90,
	0x3C, 0x00, 0x00, 0x2E, 0x00, 0x00, 0x41, 0x00, 0x00, 0x3A, 0x00, 0x00,
	0x49, 0x00, 0x01, 0x3D, 0x00, 0x00, 0x48, 0x00, 0x02, 0x44, 0x00, 0x08,
	0x35, 0x00, 0x0F, 0xB0, 0x40, 0x7F, 0x81, 0x03, 0x90, 0x2A, 0x00, 0x0A,
	0x2A, 0x47, 0x81, 0x17, 0x46, 0x00, 0x06, 0x46, 0x55, 0x00, 0x36, 0x5A,
	0x00, 0xB0, 0x40, 0x00, 0x01, 0x90, 0x31, 0x4F, 0x1F, 0xB0, 0x40, 0x7F,
	0x77, 0x90, 0x46, 0x00, 0x04, 0x2A, 0x00, 0x04, 0xB0, 0x40, 0x00, 0x01,
	0x90, 0x49, 0x56, 0x00, 0x2A, 0x4E, 0x12, 0xB0, 0x40, 0x7F, 0x81, 0x12,
	0x90, 0x36, 0x00, 0x0B, 0x48, 0x54, 0x03, 0x2C, 0x47, 0x05, 0x3F, 0x42,
	0x08, 0xB0, 0x40, 0x00, 0x13, 0x40, 0x7F, 0x81, 0x03, 0x90, 0x2C, 0x00,
	0x04, 0x2C, 0x45, 0x81, 0x2C, 0x3F, 0x00, 0x07, 0xB0, 0x40, 0x00, 0x01,
	0x90, 0x3F, 0x4B, 0x02, 0x46, 0x54, 0x00, 0x33, 0x51, 0x01, 0x38, 0x4F,
	0x0B, 0x44, 0x41, 0x09, 0xB0, 0x40, 0x7F, 0x81, 0x03, 0x90, 0x44, 0x00,
	0x07, 0x2C, 0x00, 0x03, 0x44, 0x54, 0x01, 0x2C, 0x43, 0x06, 0xB0, 0x40,
	0x00, 0x15, 0x40, 0x7F, 0x81, 0x0A, 0x90, 0x31, 0x00, 0x00, 0x44, 0x00,
	0x08, 0x44, 0x53, 0x03, 0x31, 0x4C, 0x81, 0x1E, 0x49, 0x00, 0x01, 0xB0,
	0x40, 0x00, 0x03, 0x90, 0x3D, 0x56, 0x00, 0x49, 0x4D, 0x13, 0xB0, 0x40,
	0x7F, 0x81, 0x0B, 0x90, 0x48, 0x00, 0x08, 0x41, 0x47, 0x00, 0x48, 0x46,
	0x02, 0x30, 0x4B, 0x1B, 0xB0, 0x40, 0x00, 0x10, 0x40, 0x7F, 0x6B, 0x40,
	0x00, 0x01, 0x90, 0x3F, 0x00, 0x08, 0x48, 0x00, 0x03, 0x3F, 0x54, 0x04,
	0x48, 0x4D, 0x00, 0x3C, 0x57, 0x08, 0xB0, 0x40, 0x7F, 0x81, 0x1A, 0x90,
	0x49, 0x00, 0x07, 0x3D, 0x00, 0x04, 0x49, 0x4D, 0x00, 0x3F, 0x00, 0x00,
	0x3D, 0x55, 0x00, 0x2E, 0x4D, 0x00, 0x31, 0x00, 0x01, 0x3A, 0x4E, 0x00,
	0xB0, 0x40, 0x00, 0x00, 0x90, 0x33, 0x00, 0x02, 0x2C, 0x00, 0x02, 0x30,
	0x00, 0x02, 0x3C, 0x00, 0x05, 0x2A, 0x00, 0x07, 0xB0, 0x40, 0x7F, 0x81,
	0x03, 0x90, 0x2E, 0x00, 0x0A, 0x2E, 0x4F, 0x81, 0x1F, 0x38, 0x00, 0x07,
	0x3A, 0x00, 0x00, 0x44, 0x00, 0x00, 0x46, 0x00, 0x04, 0xB0, 0x40, 0x00,
	0x01, 0x90, 0x44, 0x50, 0x00, 0x46, 0x48, 0x00, 0x35, 0x50, 0x04, 0x3A,
	0x51, 0x07, 0x48, 0x00, 0x08, 0xB0, 0x40, 0x7F, 0x81, 0x0A, 0x90, 0x2E,
	0x00, 0x00, 0x44, 0x00, 0x06, 0x4D, 0x4B, 0x03, 0x2E, 0x4F, 0x01, 0x44,
	0x3D, 0x81, 0x22, 0x27, 0x4D, 0x01, 0x4B, 0x4E, 0x01, 0x3F, 0x54, 0x63,
	0xB0, 0x40, 0x00, 0x2A, 0x40, 0x7F, 0x0F, 0x90, 0x27, 0x00, 0x05, 0x27,
	0x48, 0x81, 0x24, 0x4B, 0x00, 0x07, 0x4B, 0x47, 0x01, 0x2E, 0x00, 0x00,
	0x3F, 0x00, 0x04, 0x2E, 0x44, 0x00, 0x3F, 0x43, 0x06, 0x33, 0x45, 0x81,
	0x0F, 0x3D, 0x00, 0x00, 0x49, 0x00, 0x04, 0xB0, 0x40, 0x00, 0x07, 0x90,
	0x3D, 0x55, 0x00, 0x3A, 0x00, 0x00, 0x49, 0x52, 0x14, 0xB0, 0x40, 0x7F,
	0x08, 0x90, 0x4D, 0x00, 0x6B, 0x41, 0x00, 0x17, 0x44, 0x00, 0x06, 0x44,
	0x54, 0x03, 0x2C, 0x45, 0x02, 0x38, 0x48, 0x23, 0x35, 0x00, 0x7B, 0x2C,
	0x00, 0x06, 0x2C, 0x41, 0x81, 0x1B, 0x33, 0x00, 0x00, 0x38, 0x00, 0x00,
	0x3F, 0x00, 0x00, 0x44, 0x00, 0x00, 0x4B, 0x00, 0x07, 0x3F, 0x4E, 0x00,
	0x4B, 0x4F, 0x02, 0x33, 0x47, 0x02, 0x38, 0x4E, 0x00, 0x44, 0x4C, 0x81,
	0x26, 0x2C, 0x00, 0x04, 0x2C, 0x43, 0x81, 0x23, 0x25, 0x45, 0x03, 0x41,
	0x4C, 0x00, 0x4D, 0x4A, 0x81, 0x19, 0x25, 0x00, 0x0B, 0x25, 0x47, 0x81,
	0x16, 0x46, 0x00, 0x02, 0xB0, 0x40, 0x00, 0x0D, 0x90, 0x2C, 0x00, 0x05,
	0x2C, 0x40, 0x00, 0x31, 0x47, 0x0B, 0xB0, 0x40, 0x7F, 0x81, 0x12, 0x90,
	0x25, 0x00, 0x09, 0x25, 0x49, 0x81, 0x20, 0x25, 0x00, 0x0B, 0x25, 0x46,
	0x81, 0x16, 0x25, 0x00, 0x00, 0x41, 0x00, 0x00, 0x4D, 0x00, 0x04, 0x25,
	0x41, 0x01, 0x41, 0x4B, 0x01, 0x4D, 0x47, 0x81, 0x20, 0x49, 0x00, 0x00,
	0x33, 0x00, 0x01, 0x3F, 0x00, 0x00, 0x4B, 0x00, 0x00, 0x38, 0x00, 0x02,
	0x2C, 0x00, 0x00, 0x31, 0x00, 0x00, 0x44, 0x00, 0x01, 0x3D, 0x00, 0x08,
	0x44, 0x51, 0x02, 0x2C, 0x41, 0x00, 0x31, 0x49, 0x60, 0x27, 0x00, 0x36,
	0x25, 0x00, 0x00, 0x41, 0x00, 0x00, 0x4D, 0x00, 0x04, 0x25, 0x44, 0x02,
	0x4D, 0x4C, 0x01, 0x41, 0x49, 0x08, 0x2E, 0x00, 0x81, 0x24, 0x46, 0x58,
	0x00, 0x2A, 0x4B, 0x81, 0x27, 0x2A, 0x00, 0x05, 0x2A, 0x45, 0x81, 0x1C,
	0x31, 0x00, 0x00, 0x46, 0x00, 0x05, 0x31, 0x4A, 0x00, 0x36, 0x54, 0x00,
	0x46, 0x52, 0x81, 0x1C, 0x2A, 0x00, 0x04, 0x2A, 0x49, 0x01, 0x49, 0x52,
	0x81, 0x24, 0x2C, 0x00, 0x04, 0x48, 0x50, 0x02, 0x2C, 0x47, 0x05, 0x3F,
	0x41, 0x81, 0x1E, 0x2C, 0x00, 0x04, 0x2C, 0x48, 0x81, 0x25, 0x46, 0x00,
	0x05, 0x4B, 0x4C, 0x04, 0x33, 0x4C, 0x00, 0x46, 0x53, 0x02, 0x38, 0x4C,
	0x81, 0x16, 0x2C, 0x00, 0x00, 0x48, 0x00, 0x06, 0x48, 0x52, 0x01, 0x2C,
	0x49, 0x81, 0x2A, 0x49, 0x00, 0x07, 0x49, 0x53, 0x04, 0x2E, 0x4E, 0x81,
	0x16, 0x2E, 0x00, 0x0C, 0x2E, 0x4D, 0x81, 0x1D, 0x41, 0x00, 0x00, 0x48,
	0x00, 0x08, 0x48, 0x4C, 0x01, 0x50, 0x50, 0x02, 0x41, 0x47, 0x03, 0x35,
	0x50, 0x01, 0x3A, 0x4F, 0x04, 0xB0, 0x40, 0x00, 0x01, 0x90, 0x2C, 0x00,
	0x00, 0x33, 0x00, 0x00, 0x49, 0x00, 0x02, 0x2A, 0x00, 0x00, 0x38, 0x00,
	0x00, 0x3F, 0x00, 0x01, 0x25, 0x00, 0x00, 0x44, 0x00, 0x08, 0x31, 0x00,
	0x08, 0x4B, 0x00, 0x07, 0x36, 0x00, 0x10, 0xB0, 0x40, 0x7F, 0x0F, 0x90,
	0x4D, 0x00, 0x5C, 0x2E, 0x00, 0x06, 0x4D, 0x50, 0x03, 0x2E, 0x50, 0x81,
	0x20, 0x2E, 0x00, 0x00, 0x46, 0x00, 0x00, 0x4D, 0x00, 0x05, 0x4D, 0x50,
	0x03, 0x2E, 0x51, 0x03, 0x46, 0x45, 0x00, 0xB0, 0x40, 0x00, 0x23, 0x40,
	0x7F, 0x7B, 0x90, 0x2E, 0x00, 0x04, 0x2E, 0x53, 0x81, 0x1C, 0xB0, 0x40,
	0x00, 0x01, 0x90, 0x35, 0x00, 0x05, 0x4B, 0x52, 0x03, 0x3A, 0x00, 0x03,
	0x35, 0x4D, 0x02, 0x3A, 0x4B, 0x03, 0x46, 0x00, 0x06, 0x46, 0x36, 0x09,
	0xB0, 0x40, 0x7F, 0x27, 0x90, 0x41, 0x00, 0x63, 0x2E, 0x00, 0x00, 0x3A,
	0x00, 0x00, 0x4D, 0x00, 0x06, 0x3A, 0x47, 0x04, 0x4D, 0x4D, 0x00, 0x2E,
	0x4C, 0x81, 0x1F, 0x4B, 0x00, 0x03, 0x27, 0x4C, 0x01, 0x4B, 0x54, 0x04,
	0xB0, 0x40, 0x00, 0x1F, 0x40, 0x7F, 0x17, 0x90, 0x50, 0x00, 0x64, 0x27,
	0x00, 0x04, 0x27, 0x46, 0x81, 0x2C, 0x2E, 0x00, 0x00, 0x46, 0x00, 0x01,
	0x3F, 0x44, 0x03, 0x33, 0x48, 0x01, 0x2E, 0x4D, 0x02, 0x46, 0x41, 0x81,
	0x13, 0x27, 0x00, 0x04, 0x27, 0x44, 0x01, 0x49, 0x53, 0x03, 0xB0, 0x40,
	0x00, 0x17, 0x40, 0x7F, 0x07, 0x90, 0x3A, 0x00, 0x00, 0x48, 0x00, 0x81,
	0x0A, 0x4B, 0x00, 0x07, 0x4B, 0x50, 0x09, 0x29, 0x49, 0x0F, 0x35, 0x00,
	0x81, 0x0A, 0x29, 0x00, 0x07, 0x29, 0x41, 0x04, 0x39, 0x43, 0x05, 0x39,
	0x00, 0x81, 0x1F, 0x48, 0x55, 0x00, 0x35, 0x53, 0x04, 0x30, 0x46, 0x11,
	0xB0, 0x40, 0x00, 0x13, 0x40, 0x7F, 0x74, 0x90, 0x29, 0x00, 0x08, 0x44,
	0x52, 0x02, 0x29, 0x3F, 0x81, 0x26, 0x2E, 0x00, 0x00, 0x46, 0x00, 0x07,
	0x46, 0x55, 0x03, 0x2E, 0x49, 0x81, 0x18, 0x29, 0x00, 0x00, 0x35, 0x00,
	0x09, 0x41, 0x47, 0x01, 0x35, 0x55, 0x01, 0x29, 0x42, 0x81, 0x25, 0x46,
	0x00, 0x00, 0x49, 0x00, 0x06, 0x3D, 0x57, 0x01, 0x49, 0x4B, 0x01, 0x3A,
	0x51, 0x03, 0x46, 0x4B, 0x81, 0x0F, 0x35, 0x00, 0x00, 0x41, 0x00, 0x00,
	0x48, 0x00, 0x0A, 0x35, 0x54, 0x00, 0x41, 0x49, 0x00, 0x48, 0x48, 0x81,
	0x1F, 0x3D, 0x00, 0x07, 0x3A, 0x00, 0x00, 0x46, 0x00, 0x00, 0x49, 0x00,
	0x04, 0x3D, 0x53, 0x00, 0x49, 0x47, 0x02, 0x3A, 0x4F, 0x01, 0x46, 0x4A,
	0x81, 0x13, 0x35, 0x00, 0x00, 0x41, 0x00, 0x00, 0x48, 0x00, 0x08, 0x35,
	0x53, 0x01, 0x41, 0x41, 0x01, 0x48, 0x47, 0x81, 0x1F, 0x3D, 0x00, 0x00,
	0x46, 0x00, 0x00, 0x49, 0x00, 0x00, 0x4D, 0x00, 0x04, 0xB0, 0x40, 0x00,
	0x04, 0x90, 0x3A, 0x00, 0x00, 0x46, 0x55, 0x03, 0x3D, 0x54, 0x00, 0x49,
	0x4B, 0x01, 0x3A, 0x4F, 0x13, 0xB0, 0x40, 0x7F, 0x81, 0x0A, 0x90, 0x48,
	0x00, 0x04, 0x48, 0x56, 0x81, 0x25, 0x49, 0x00, 0x03, 0xB0, 0x40, 0x00,
	0x04, 0x90, 0x49, 0x55, 0x04, 0x2A, 0x4F, 0x03, 0x41, 0x00, 0x02, 0x2E,
	0x00, 0x04, 0x35, 0x00, 0x01, 0x44, 0x00, 0x0A, 0xB0, 0x40, 0x7F, 0x07,
	0x90, 0x33, 0x00, 0x7B, 0x3A, 0x00, 0x00, 0x49, 0x00, 0x06, 0x49, 0x52,
	0x02, 0x31, 0x49, 0x03, 0x3A, 0x46, 0x81, 0x1E, 0x3A, 0x00, 0x00, 0x49,
	0x00, 0x07, 0x49, 0x53, 0x01, 0x46, 0x00, 0x03, 0x36, 0x55, 0x00, 0x3A,
	0x51, 0x06, 0x46, 0x4A, 0x01, 0xB0, 0x40, 0x00, 0x15, 0x90, 0x27, 0x00,
	0x00, 0x3F, 0x00, 0x07, 0x48, 0x00, 0x00, 0x4B, 0x00, 0x00, 0xB0, 0x40,
	0x7F, 0x08, 0x90, 0x29, 0x00, 0x00, 0x3D, 0x00, 0x73, 0x31, 0x00, 0x00,
	0x46, 0x00, 0x06, 0x31, 0x49, 0x00, 0x46, 0x4F, 0x81, 0x28, 0x4B, 0x53,
	0x03, 0x2C, 0x4B, 0x81, 0x1F, 0xB0, 0x40, 0x00, 0x02, 0x90, 0x49, 0x00,
	0x05, 0x49, 0x52, 0x01, 0x33, 0x44, 0x09, 0xB0, 0x40, 0x7F, 0x2F, 0x90,
	0x30, 0x00, 0x17, 0x4B, 0x00, 0x04, 0x4B, 0x4F, 0x5F, 0x36, 0x00, 0x05,
	0x3C, 0x57, 0x01, 0x48, 0x45, 0x01, 0x38, 0x4B, 0x01, 0x44, 0x44, 0x04,
	0x36, 0x42, 0x81, 0x0E, 0x33, 0x00, 0x00, 0x49, 0x00, 0x07, 0x49, 0x50,
	0x03, 0x33, 0x42, 0x4A, 0x4B, 0x00, 0x06, 0x4B, 0x4D, 0x60, 0x4D, 0x51,
	0x03, 0x29, 0x4B, 0x06, 0xB0, 0x40, 0x00, 0x05, 0x40, 0x7F, 0x81, 0x02,
	0x90, 0x4D, 0x00, 0x08, 0x48, 0x00, 0x04, 0x4D, 0x50, 0x01, 0x48, 0x3E,
	0x01, 0x30, 0x49, 0x81, 0x23, 0x48, 0x00, 0x00, 0x4D, 0x00, 0x07, 0x4D,
	0x54, 0x01, 0x38, 0x00, 0x00, 0x44, 0x00, 0x01, 0x48, 0x49, 0x02, 0x35,
	0x4D, 0x01, 0x41, 0x47, 0x07, 0x44, 0x48, 0x00, 0x38, 0x49, 0x81, 0x16,
	0x30, 0x00, 0x04, 0x50, 0x4E, 0x04, 0x30, 0x4A, 0x81, 0x21, 0x4D, 0x00,
	0x08, 0x4D, 0x51, 0x03, 0x2E, 0x4C, 0x81, 0x16, 0x35, 0x00, 0x00, 0x4B,
	0x00, 0x06, 0x4B, 0x50, 0x02, 0x35, 0x49, 0x4D, 0x4D, 0x00, 0x09, 0x4D,
	0x50, 0x5A, 0x3A, 0x00, 0x08, 0x49, 0x00, 0x00, 0x4D, 0x00, 0x02, 0x3A,
	0x4E, 0x01, 0x3D, 0x54, 0x03, 0x49, 0x47, 0x00, 0x4D, 0x41, 0x81, 0x14,
	0x35, 0x00, 0x00, 0x46, 0x00, 0x06, 0x46, 0x4E, 0x01, 0x35, 0x4B, 0x45,
	0x48, 0x00, 0x06, 0x48, 0x52, 0x5E, 0x2A, 0x00, 0x00, 0x49, 0x00, 0x06,
	0x49, 0x51, 0x06, 0x2A, 0x4A, 0x81, 0x16, 0x31, 0x00, 0x00, 0x49, 0x00,
	0x05, 0x49, 0x4C, 0x01, 0x31, 0x4A, 0x81, 0x23, 0x36, 0x00, 0x00, 0x49,
	0x00, 0x07, 0x3A, 0x00, 0x00, 0x46, 0x00, 0x02, 0x49, 0x4D, 0x01, 0x36,
	0x51, 0x01, 0x3A, 0x4D, 0x01, 0x42, 0x41, 0x06, 0xB0, 0x40, 0x00, 0x00,
	0x90, 0x46, 0x44, 0x14, 0xB0, 0x40, 0x7F, 0x7B, 0x90, 0x31, 0x00, 0x00,
	0x46, 0x00, 0x09, 0x46, 0x4B, 0x02, 0x31, 0x47, 0x81, 0x1E, 0x2C, 0x00,
	0x00, 0x4B, 0x00, 0x05, 0x4B, 0x4F, 0x02, 0x2C, 0x48, 0x41, 0xB0, 0x40,
	0x00, 0x14, 0x40, 0x7F, 0x4D, 0x90, 0x33, 0x00, 0x00, 0x49, 0x00, 0x04,
	0x49, 0x51, 0x01, 0x33, 0x46, 0x40, 0x4B, 0x00, 0x0B, 0x4B, 0x51, 0x60,
	0x38, 0x00, 0x00, 0x3C, 0x00, 0x00, 0x44, 0x00, 0x00, 0x48, 0x00, 0x06,
	0x3C, 0x55, 0x00, 0x38, 0x4C, 0x01, 0x48, 0x45, 0x04, 0x44, 0x46, 0x81,
	0x17, 0x49, 0x00, 0x07, 0x33, 0x00, 0x03, 0x49, 0x4E, 0x03, 0x33, 0x44,
	0x47, 0x4B, 0x00, 0x06, 0x4B, 0x4F, 0x56, 0x31, 0x00, 0x00, 0x3D, 0x00,
	0x00, 0x4D, 0x00, 0x07, 0x4D, 0x52, 0x04, 0x3D, 0x44, 0x00, 0x31, 0x4B,
	0x81, 0x1E, 0x38, 0x00, 0x00, 0x44, 0x00, 0x00, 0x4D, 0x00, 0x04, 0x4D,
	0x4E, 0x05, 0x38, 0x49, 0x00, 0x44, 0x41, 0x81, 0x19, 0x3D, 0x00, 0x00,
	0x41, 0x00, 0x00, 0x49, 0x00, 0x00, 0x4D, 0x00, 0x07, 0x4D, 0x52, 0x02,
	0x41, 0x49, 0x01, 0x3D, 0x4F, 0x01, 0x49, 0x43, 0x05, 0x2E, 0x00, 0x01,
	0x3A, 0x00, 0x00, 0x35, 0x00, 0x01, 0x33, 0x00, 0x00, 0x4B, 0x00, 0x00,
	0x48, 0x00, 0x00, 0xB0, 0x40, 0x00, 0x01, 0x90, 0x44, 0x00, 0x00, 0x30,
	0x00, 0x00, 0x3C, 0x00, 0x00, 0x46, 0x00, 0x00, 0x36, 0x00, 0x0B, 0x42,
	0x00, 0x08, 0xB0, 0x40, 0x7F, 0x08, 0x90, 0x50, 0x00, 0x81, 0x02, 0x2A,
	0x00, 0x00, 0x38, 0x00, 0x02, 0x50, 0x4F, 0x03, 0x4B, 0x41, 0x00, 0x38,
	0x4B, 0x00, 0x44, 0x44, 0x81, 0x1C, 0x4D, 0x00, 0x07, 0x4D, 0x51, 0x01,
	0x29, 0x00, 0x04, 0x29, 0x4C, 0x08, 0xB0, 0x40, 0x00, 0x01, 0x90, 0x45,
	0x38, 0x12, 0xB0, 0x40, 0x7F, 0x7B, 0x90, 0x4B, 0x00, 0x07, 0x4B, 0x4D,
	0x02, 0x30, 0x4A, 0x4B, 0x4D, 0x00, 0x0A, 0x4D, 0x50, 0x4B, 0x45, 0x00,
	0x08, 0x35, 0x4F, 0x02, 0x45, 0x44, 0x00, 0x39, 0x4B, 0x81, 0x17, 0x4D,
	0x00, 0x08, 0x30, 0x00, 0x02, 0x4D, 0x4C, 0x04, 0x30, 0x44, 0x46, 0x50,
	0x00, 0x07, 0x50, 0x4E, 0x5B, 0x2A, 0x4B, 0x00, 0x52, 0x4B, 0x81, 0x1C,
	0x31, 0x00, 0x00, 0x52, 0x00, 0x07, 0x52, 0x4C, 0x04, 0x31, 0x4B, 0x81,
	0x26, 0x41, 0x00, 0x00, 0x52, 0x00, 0x03, 0x4D, 0x00, 0x01, 0x52, 0x53,
	0x00, 0x36, 0x56, 0x00, 0x30, 0x00, 0x00, 0x3A, 0x56, 0x00, 0x39, 0x00,
	0x00, 0x29, 0x00, 0x01, 0x46, 0x4F, 0x00, 0x50, 0x00, 0x00, 0x35, 0x00,
	0x0A, 0x2C, 0x00, 0x00, 0x44, 0x00, 0x00, 0x45, 0x00, 0x08, 0x2A, 0x00,
	0x00, 0x3D, 0x00, 0x00, 0x49, 0x00, 0x00, 0x4B, 0x00, 0x03, 0xB0, 0x40,
	0x00, 0x04, 0x90, 0x38, 0x00, 0x08, 0xB0, 0x40, 0x7F, 0x73, 0x90, 0x31,
	0x00, 0x05, 0x50, 0x4D, 0x05, 0x49, 0x40, 0x01, 0x31, 0x48, 0x00, 0x3D,
	0x47, 0x81, 0x1E, 0x50, 0x00, 0x05, 0x50, 0x4D, 0x04, 0x2C, 0x45, 0x81,
	0x09, 0xB0, 0x40, 0x00, 0x17, 0x40, 0x7F, 0x02, 0x90, 0x4D, 0x53, 0x01,
	0x33, 0x44, 0x4E, 0x4B, 0x4F, 0x5D, 0x3C, 0x57, 0x01, 0x38, 0x4E, 0x02,
	0x48, 0x49, 0x03, 0x44, 0x48, 0x81, 0x0F, 0x49, 0x00, 0x07, 0x33, 0x00,
	0x02, 0x49, 0x54, 0x09, 0x33, 0x43, 0x42, 0x4B, 0x00, 0x04, 0x4B, 0x4C,
	0x58, 0x48, 0x00, 0x00, 0x50, 0x00, 0x05, 0x48, 0x40, 0x00, 0x50, 0x4F,
	0x03, 0x29, 0x48, 0x12, 0x3C, 0x00, 0x00, 0x49, 0x00, 0x01, 0x36, 0x00,
	0x00, 0xB0, 0x40, 0x00, 0x00, 0x90, 0x46, 0x00, 0x00, 0x4D, 0x00, 0x0C,
	0x3A, 0x00, 0x00, 0x3D, 0x00, 0x07, 0x31, 0x00, 0x00, 0xB0, 0x40, 0x7F,
	0x08, 0x90, 0x44, 0x00, 0x73, 0x48, 0x00, 0x00, 0x4B, 0x00, 0x00, 0x50,
	0x00, 0x05, 0x50, 0x4C, 0x04, 0x48, 0x44, 0x00, 0x30, 0x43, 0x02, 0x4B,
	0x3C, 0x05, 0x52, 0x00, 0x81, 0x19, 0x38, 0x00, 0x00, 0x50, 0x00, 0x05,
	0x50, 0x50, 0x03, 0x35, 0x4A, 0x04, 0x38, 0x4A, 0x00, 0x44, 0x47, 0x08,
	0xB0, 0x40, 0x00, 0x13, 0x40, 0x7F, 0x7A, 0x90, 0x30, 0x00, 0x00, 0x48,
	0x00, 0x06, 0x48, 0x50, 0x00, 0x30, 0x41, 0x81, 0x23, 0x48, 0x00, 0x05,
	0x48, 0x4E, 0x06, 0x2E, 0x4A, 0x81, 0x17, 0x35, 0x00, 0x00, 0x44, 0x00,
	0x06, 0x44, 0x53, 0x01, 0x35, 0x4C, 0x02, 0xB0, 0x40, 0x00, 0x1D, 0x40,
	0x7F, 0x2E, 0x90, 0x2E, 0x00, 0x04, 0x2E, 0x35, 0x02, 0x46, 0x52, 0x5E,
	0x3D, 0x53, 0x01, 0x3A, 0x4B, 0x01, 0x49, 0x4A, 0x81, 0x10, 0x35, 0x00,
	0x00, 0x44, 0x00, 0x04, 0x44, 0x50, 0x01, 0x41, 0x46, 0x02, 0x35, 0x4F,
	0x81, 0x28, 0xB0, 0x40, 0x00, 0x02, 0x90, 0x46, 0x00, 0x04, 0x27, 0x46,
	0x01, 0x46, 0x51, 0x12, 0xB0, 0x40, 0x7F, 0x81, 0x0A, 0x90, 0x2E, 0x00,
	0x0B, 0x2E, 0x4C, 0x4E, 0x4D, 0x52, 0x58, 0x4B, 0x00, 0x07, 0x33, 0x00,
	0x03, 0x36, 0x54, 0x00, 0x4B, 0x49, 0x01, 0x42, 0x44, 0x00, 0x33, 0x46,
	0x3F, 0xB0, 0x40, 0x00, 0x0A, 0x40, 0x7F, 0x4D, 0x90, 0x2E, 0x00, 0x00,
	0x4D, 0x00, 0x04, 0x4D, 0x50, 0x04, 0x2E, 0x47, 0x17, 0x30, 0x00, 0x00,
	0x48, 0x00, 0x81, 0x0A, 0x4D, 0x00, 0x05, 0x4D, 0x53, 0x02, 0x29, 0x00,
	0x05, 0x29, 0x48, 0x81, 0x25, 0x30, 0x47, 0x01, 0x48, 0x3E, 0x44, 0x4B,
	0x00, 0x03, 0x4B, 0x52, 0x59, 0x35, 0x00, 0x07, 0x38, 0x00, 0x00, 0x41,
	0x00, 0x00, 0x44, 0x00, 0x00, 0x48, 0x00, 0x03, 0x35, 0x4F, 0x01, 0x48,
	0x46, 0x01, 0x41, 0x41, 0x01, 0x38, 0x4D, 0x02, 0x44, 0x40, 0x81, 0x1A,
	0x30, 0x00, 0x00, 0x49, 0x00, 0x04, 0x49, 0x53, 0x02, 0x30, 0x42, 0x81,
	0x0F, 0xB0, 0x40, 0x00, 0x14, 0x90, 0x2E, 0x00, 0x00, 0x46, 0x00, 0x06,
	0x46, 0x53, 0x01, 0xB0, 0x40, 0x7F, 0x03, 0x90, 0x2E, 0x4C, 0x81, 0x17,
	0x35, 0x00, 0x00, 0x41, 0x00, 0x0A, 0x35, 0x53, 0x01, 0x41, 0x42, 0x81,
	0x26, 0x3A, 0x00, 0x00, 0x3D, 0x00, 0x00, 0x49, 0x00, 0x04, 0x3D, 0x53,
	0x01, 0x49, 0x47, 0x01, 0x3A, 0x4A, 0x81, 0x1B, 0x35, 0x00, 0x00, 0x41,
	0x00, 0x0A, 0x35, 0x4F, 0x01, 0x41, 0x43, 0x81, 0x25, 0x3A, 0x00, 0x00,
	0x3D, 0x00, 0x00, 0x46, 0x00, 0x00, 0x49, 0x00, 0x05, 0x3D, 0x53, 0x04,
	0x49, 0x4A, 0x00, 0x3A, 0x4F, 0x01, 0x46, 0x4A, 0x0D, 0x50, 0x00, 0x81,
	0x03, 0x4D, 0x00, 0x05, 0x4D, 0x4F, 0x81, 0x24, 0x49, 0x00, 0x05, 0x50,
	0x4C, 0x01, 0x49, 0x3B, 0x81, 0x1B, 0x49, 0x00, 0x00, 0x4D, 0x00, 0x05,
	0x4D, 0x51, 0x01, 0x49, 0x3D, 0x66, 0x2C, 0x00, 0x42, 0x52, 0x4F, 0x04,
	0x2A, 0x4B, 0x0A, 0xB0, 0x40, 0x00, 0x03, 0x90, 0x33, 0x00, 0x00, 0x29,
	0x00, 0x01, 0x38, 0x00, 0x00, 0x2E, 0x00, 0x00, 0x35, 0x00, 0x00, 0x3A,
	0x00, 0x01, 0x46, 0x00, 0x00, 0x41, 0x00, 0x01, 0x48, 0x00, 0x00, 0x3D,
	0x00, 0x00, 0x4D, 0x00, 0x01, 0x4B, 0x00, 0x00, 0x49, 0x00, 0x00, 0x44,
	0x00, 0x01, 0x50, 0x00, 0x04, 0x42, 0x00, 0x08, 0x30, 0x00, 0x00, 0x36,
	0x00, 0x07, 0x27, 0x00, 0x08, 0xB0, 0x40, 0x7F, 0x75, 0x90, 0x31, 0x45,
	0x81, 0x27, 0x52, 0x00, 0x09, 0x52, 0x52, 0x01, 0x36, 0x54, 0x00, 0x3A,
	0x52, 0x01, 0x49, 0x47, 0x01, 0x46, 0x4A, 0x01, 0x2A, 0x00, 0x08, 0xB0,
	0x40, 0x00, 0x29, 0x40, 0x7F, 0x6B, 0x90, 0x31, 0x00, 0x00, 0x61, 0x4B,
	0x01, 0x55, 0x49, 0x03, 0x31, 0x44, 0x04, 0x61, 0x00, 0x81, 0x24, 0x54,
	0x4F, 0x01, 0x60, 0x4C, 0x01, 0x2C, 0x48, 0x0A, 0x60, 0x00, 0x04, 0xB0,
	0x40, 0x00, 0x13, 0x40, 0x7F, 0x81, 0x05, 0x90, 0x33, 0x44, 0x00, 0x4B,
	0x43, 0x81, 0x1F, 0x52, 0x00, 0x07, 0x52, 0x4E, 0x02, 0xB0, 0x40, 0x00,
	0x01, 0x90, 0x3C, 0x51, 0x01, 0x48, 0x49, 0x01, 0x44, 0x47, 0x01, 0x38,
	0x49, 0x03, 0x44, 0x00, 0x0F, 0xB0, 0x40, 0x7F, 0x81, 0x03, 0x90, 0x33,
	0x00, 0x05, 0x50, 0x51, 0x02, 0x3A, 0x00, 0x00, 0x3F, 0x44, 0x03, 0x33,
	0x48, 0x81, 0x26, 0x31, 0x00, 0x00, 0x50, 0x00, 0x03, 0xB0, 0x40, 0x00,
	0x01, 0x90, 0x50, 0x4C, 0x00, 0x38, 0x00, 0x03, 0x44, 0x3D, 0x02, 0x3D,
	0x49, 0x02, 0x31, 0x48, 0x0C, 0x36, 0x00, 0x00, 0xB0, 0x40, 0x7F, 0x10,
	0x90, 0x3C, 0x00, 0x4C, 0x55, 0x00, 0x36, 0x3D, 0x00, 0x00, 0x49, 0x00,
	0x05, 0x3D, 0x54, 0x00, 0x49, 0x4E, 0x81, 0x1C, 0x4B, 0x00, 0x00, 0x54,
	0x00, 0x04, 0x4B, 0x53, 0x03, 0x30, 0x4A, 0x01, 0x2C, 0x00, 0x00, 0x44,
	0x00, 0x07, 0xB0, 0x40, 0x00, 0x18, 0x40, 0x7F, 0x08, 0x90, 0x52, 0x00,
	0x07, 0x50, 0x00, 0x10, 0x48, 0x00, 0x6A, 0x38, 0x4C, 0x03, 0x44, 0x42,
	0x81, 0x1C, 0x4D, 0x51, 0x02, 0x2E, 0x4D, 0x81, 0x29, 0x35, 0x50, 0x01,
	0x48, 0x47, 0x01, 0x41, 0x3E, 0x81, 0x21, 0x3D, 0x00, 0x00, 0x46, 0x00,
	0x00, 0x49, 0x00, 0x00, 0x4D, 0x00, 0x03, 0x50, 0x50, 0x04, 0x3A, 0x4A,
	0x00, 0x3D, 0x51, 0x03, 0x49, 0x43, 0x00, 0x4D, 0x45, 0x01, 0x46, 0x46,
	0x06, 0xB0, 0x40, 0x00, 0x06, 0x40, 0x7F, 0x81, 0x0A, 0x90, 0x35, 0x00,
	0x00, 0x4D, 0x00, 0x05, 0x4D, 0x4E, 0x00, 0x35, 0x4F, 0x07, 0x48, 0x00,
	0x02, 0x4B, 0x00, 0x05, 0x38, 0x00, 0x04, 0x3F, 0x00, 0x1F, 0x31, 0x00,
	0x00, 0x44, 0x00, 0x66, 0xB0, 0x40, 0x00, 0x05, 0x90, 0x30, 0x00, 0x00,
	0x41, 0x00, 0x08, 0x33, 0x00, 0x00, 0x46, 0x00, 0x06, 0x4B, 0x54, 0x02,
	0x33, 0x45, 0x07, 0x49, 0x00, 0x10, 0xB0, 0x40, 0x7F, 0x45, 0x90, 0x50,
	0x00, 0x3D, 0x3A, 0x00, 0x0B, 0x3A, 0x4D, 0x02, 0x46, 0x41, 0x81, 0x18,
	0xB0, 0x40, 0x00, 0x0B, 0x90, 0x3F, 0x4F, 0x01, 0x42, 0x47, 0x1F, 0xB0,
	0x40, 0x7F, 0x81, 0x02, 0x90, 0x3A, 0x00, 0x00, 0x46, 0x00, 0x03, 0xB0,
	0x40, 0x00, 0x03, 0x90, 0x49, 0x51, 0x04, 0x3A, 0x4C, 0x01, 0x46, 0x44,
	0x0C, 0xB0, 0x40, 0x7F, 0x08, 0x90, 0x3D, 0x00, 0x81, 0x0A, 0x50, 0x4E,
	0x00, 0x35, 0x00, 0x02, 0x2C, 0x46, 0x06, 0x4D, 0x00, 0x04, 0x3A, 0x00,
	0x00, 0x49, 0x00, 0x06, 0xB0, 0x40, 0x00, 0x05, 0x90, 0x2E, 0x00, 0x08,
	0x42, 0x00, 0x07, 0xB0, 0x40, 0x7F, 0x08, 0x90, 0x33, 0x00, 0x73, 0x4B,
	0x00, 0x07, 0x4B, 0x44, 0x03, 0x33, 0x47, 0x81, 0x18, 0x4B, 0x00, 0x07,
	0x4B, 0x54, 0x03, 0xB0, 0x40, 0x00, 0x02, 0x90, 0x48, 0x45, 0x00, 0x38,
	0x4D, 0x00, 0x3C, 0x52, 0x03, 0x44, 0x44, 0x0F, 0xB0, 0x40, 0x7F, 0x81,
	0x0B, 0x90, 0x33, 0x00, 0x00, 0x3F, 0x00, 0x08, 0x3F, 0x42, 0x01, 0x33,
	0x46, 0x81, 0x23, 0x4D, 0x52, 0x03, 0x49, 0x40, 0x01, 0x31, 0x4B, 0x0C,
	0xB0, 0x40, 0x00, 0x0B, 0x40, 0x7F, 0x81, 0x0A, 0x90, 0x38, 0x00, 0x00,
	0x44, 0x00, 0x05, 0x38, 0x4E, 0x03, 0x44, 0x44, 0x81, 0x21, 0x49, 0x00,
	0x06, 0x41, 0x4A, 0x00, 0x3D, 0x54, 0x01, 0x49, 0x49, 0x01, 0x46, 0x00,
	0x04, 0x4D, 0x00, 0x00, 0xB0, 0x40, 0x00, 0x02, 0x90, 0x3C, 0x00, 0x02,
	0x50, 0x00, 0x07, 0x48, 0x00, 0x10, 0x3F, 0x00, 0x00, 0xB0, 0x40, 0x7F,
	0x08, 0x90, 0x2C, 0x00, 0x7A, 0x38, 0x00, 0x00, 0x44, 0x00, 0x06, 0x38,
	0x4D, 0x03, 0x44, 0x3F, 0x81, 0x19, 0x3D, 0x00, 0x00, 0x41, 0x00, 0x00,
	0x49, 0x00, 0x05, 0x3D, 0x51, 0x01, 0x49, 0x48, 0x03, 0x41, 0x48, 0x81,
	0x18, 0x38, 0x00, 0x06, 0x4D, 0x4F, 0x05, 0x38, 0x47, 0x81, 0x1E, 0x3D,
	0x00, 0x00, 0x41, 0x00, 0x00, 0x49, 0x00, 0x08, 0x50, 0x51, 0x00, 0x49,
	0x46, 0x02, 0x41, 0x48, 0x00, 0x3D, 0x50, 0x06, 0xB0, 0x40, 0x00, 0x03,
	0x90, 0x44, 0x00, 0x13, 0x31, 0x00, 0x00, 0x33, 0x00, 0x00, 0x4B, 0x00,
	0x10, 0xB0, 0x40, 0x7F, 0x6B, 0x90, 0x4D, 0x00, 0x08, 0x38, 0x00, 0x00,
	0x4D, 0x4F, 0x05, 0x38, 0x49, 0x03, 0x44, 0x42, 0x81, 0x2D, 0x52, 0x4D,
	0x03, 0x41, 0x00, 0x01, 0x2A, 0x4C, 0x08, 0xB0, 0x40, 0x00, 0x02, 0x90,
	0x4D, 0x00, 0x01, 0x50, 0x00, 0x00, 0x44, 0x00, 0x0B, 0x38, 0x00, 0x00,
	0x3D, 0x00, 0x00, 0x49, 0x00, 0x1F, 0xB0, 0x40, 0x7F, 0x77, 0x90, 0x44,
	0x40, 0x01, 0x31, 0x48, 0x81, 0x1C, 0x52, 0x00, 0x0C, 0x52, 0x54, 0x00,
	0x36, 0x54, 0x00, 0x3A, 0x54, 0x00, 0x46, 0x4D, 0x02, 0x42, 0x46, 0x04,
	0x4E, 0x46, 0x02, 0x2A, 0x00, 0x00, 0x31, 0x00, 0x08, 0xB0, 0x40, 0x00,
	0x13, 0x90, 0x44, 0x00, 0x00, 0xB0, 0x40, 0x7F, 0x78, 0x90, 0x61, 0x48,
	0x02, 0x55, 0x45, 0x04, 0x31, 0x48, 0x04, 0x61, 0x00, 0x81, 0x20, 0x60,
	0x4B, 0x00, 0x54, 0x4E, 0x02, 0x2C, 0x49, 0x07, 0x60, 0x00, 0x01, 0xB0,
	0x40, 0x00, 0x0E, 0x40, 0x7F, 0x3E, 0x90, 0x42, 0x00, 0x50, 0x3F, 0x3F,
	0x02, 0x4B, 0x43, 0x01, 0x33, 0x43, 0x81, 0x1B, 0x52, 0x00, 0x07, 0x52,
	0x50, 0x00, 0x3C, 0x52, 0x01, 0x48, 0x4D, 0x02, 0x38, 0x4B, 0x81, 0x1F,
	0x33, 0x00, 0x00, 0x54, 0x00, 0x05, 0x54, 0x4E, 0x03, 0x60, 0x4E, 0x00,
	0x33, 0x47, 0x81, 0x29, 0x3A, 0x00, 0x00, 0x55, 0x00, 0x03, 0x55, 0x4B,
	0x03, 0x61, 0x4E, 0x01, 0x2E, 0x4F, 0x06, 0x31, 0x00, 0x01, 0x3F, 0x00,
	0x00, 0x54, 0x00, 0x00, 0x52, 0x00, 0x01, 0x4E, 0x00, 0x00, 0x2C, 0x00,
	0x00, 0x38, 0x00, 0x01, 0x3C, 0x00, 0x00, 0xB0, 0x40, 0x00, 0x01, 0x90,
	0x46, 0x00, 0x00, 0x48, 0x00, 0x00, 0x36, 0x00, 0x01, 0x4B, 0x00, 0x05,
	0x60, 0x00, 0x07, 0x33, 0x00, 0x08, 0xB0, 0x40, 0x7F, 0x81, 0x08, 0x90,
	0x48, 0x47, 0x02, 0x35, 0x56, 0x00, 0x41, 0x44, 0x08, 0x48, 0x00, 0x81,
	0x1E, 0x5C, 0x5D, 0x00, 0xB0, 0x40, 0x00, 0x06, 0x90, 0x49, 0x50, 0x00,
	0x46, 0x4F, 0x01, 0x3A, 0x50, 0x00, 0x3D, 0x53, 0x13, 0xB0, 0x40, 0x7F,
	0x08, 0x90, 0x55, 0x00, 0x7B, 0x35, 0x00, 0x04, 0x59, 0x5A, 0x01, 0x65,
	0x58, 0x01, 0x35, 0x54, 0x81, 0x23, 0x2E, 0x00, 0x00, 0x59, 0x00, 0x04,
	0x59, 0x58, 0x04, 0x2E, 0x53, 0x0A, 0x3A, 0x00, 0x00, 0xB0, 0x40, 0x00,
	0x02, 0x90, 0x3D, 0x00, 0x0A, 0x41, 0x00, 0x00, 0xB0, 0x40, 0x7F, 0x08,
	0x90, 0x49, 0x00, 0x08, 0x46, 0x00, 0x7B, 0x35, 0x00, 0x06, 0x48, 0x46,
	0x03, 0x35, 0x52, 0x00, 0x41, 0x46, 0x06, 0x48, 0x00, 0x81, 0x12, 0x5C,
	0x00, 0x04, 0x5C, 0x5B, 0x07, 0x3A, 0x53, 0x00, 0x46, 0x4E, 0x01, 0x49,
	0x4F, 0x00, 0x3D, 0x53, 0x81, 0x1D, 0x35, 0x00, 0x00, 0x59, 0x00, 0x00,
	0x65, 0x00, 0x04, 0x59, 0x56, 0x01, 0x65, 0x58, 0x00, 0x35, 0x53, 0x81,
	0x27, 0x63, 0x5F, 0x01, 0x57, 0x5F, 0x00, 0x27, 0x4E, 0x05, 0xB0, 0x40,
	0x00, 0x01, 0x90, 0x41, 0x00, 0x00, 0x35, 0x00, 0x00, 0x3A, 0x00, 0x00,
	0x2E, 0x00, 0x01, 0x65, 0x00, 0x00, 0x46, 0x00, 0x00, 0x59, 0x00, 0x00,
	0x5C, 0x00, 0x01, 0x3D, 0x00, 0x01, 0x49, 0x00, 0x02, 0x61, 0x00, 0x10,
	0xB0, 0x40, 0x7F, 0x26, 0x90, 0x57, 0x00, 0x08, 0x63, 0x00, 0x60, 0x2E,
	0x4E, 0x81, 0x27, 0x49, 0x48, 0x01, 0x36, 0x57, 0x00, 0x4B, 0x48, 0x00,
	0x42, 0x49, 0x01, 0x3F, 0x44, 0x08, 0xB0, 0x40, 0x00, 0x12, 0x40, 0x7F,
	0x81, 0x03, 0x90, 0x2E, 0x00, 0x04, 0x55, 0x4A, 0x02, 0x61, 0x4B, 0x04,
	0x2E, 0x4C, 0x81, 0x1F, 0x4B, 0x00, 0x05, 0x63, 0x5D, 0x03, 0x4B, 0x4F,
	0x01, 0x57, 0x5F, 0x08, 0x29, 0x4A, 0x81, 0x10, 0x27, 0x00, 0x0D, 0x30,
	0x49, 0x81, 0x23, 0x35, 0x53, 0x01, 0x54, 0x54, 0x02, 0x48, 0x54, 0x01,
	0x45, 0x4D, 0x00, 0x41, 0x4B, 0x01, 0x39, 0x52, 0x81, 0x16, 0x30, 0x00,
	0x0A, 0x30, 0x45, 0x81, 0x1E, 0x2E, 0x00, 0x05, 0x52, 0x50, 0x04, 0x2E,
	0x4A, 0x01, 0x46, 0x47, 0x00, 0x4D, 0x3F, 0x06, 0xB0, 0x40, 0x00, 0x0F,
	0x90, 0x61, 0x00, 0x10, 0xB0, 0x40, 0x7F, 0x7A, 0x90, 0x35, 0x00, 0x00,
	0x41, 0x00, 0x00, 0x63, 0x00, 0x0A, 0x35, 0x54, 0x01, 0x41, 0x3F, 0x81,
	0x07, 0x54, 0x00, 0x1F, 0x46, 0x00, 0x00, 0x49, 0x00, 0x00, 0x4D, 0x00,
	0x05, 0x3A, 0x51, 0x00, 0x3D, 0x55, 0x00, 0x4D, 0x45, 0x01, 0x46, 0x49,
	0x01, 0x49, 0x46, 0x81, 0x13, 0x35, 0x00, 0x00, 0x41, 0x00, 0x00, 0x48,
	0x00, 0x07, 0x57, 0x00, 0x01, 0x48, 0x49, 0x00, 0x35, 0x52, 0x02, 0x41,
	0x45, 0x81, 0x17, 0x55, 0x00, 0x0F, 0x3A, 0x00, 0x00, 0x3D, 0x00, 0x00,
	0x46, 0x00, 0x00, 0x49, 0x00, 0x05, 0x3D, 0x52, 0x02, 0x3A, 0x50, 0x01,
	0x49, 0x46, 0x01, 0x46, 0x46, 0x81, 0x11, 0x35, 0x00, 0x00, 0x41, 0x00,
	0x00, 0x48, 0x00, 0x00, 0x4D, 0x00, 0x04, 0x4D, 0x53, 0x02, 0x48, 0x45,
	0x00, 0x35, 0x51, 0x04, 0x41, 0x47, 0x81, 0x1F, 0x3A, 0x00, 0x00, 0x3D,
	0x00, 0x00, 0x49, 0x00, 0x00, 0x4D, 0x00, 0x04, 0x2E, 0x00, 0x03, 0x50,
	0x53, 0x04, 0x3A, 0x4C, 0x00, 0x49, 0x49, 0x00, 0x3D, 0x51, 0x00, 0x4D,
	0x48, 0x81, 0x16, 0x4D, 0x00, 0x05, 0x4D, 0x51, 0x03, 0x36, 0x00, 0x81,
	0x29, 0x52, 0x00, 0x05, 0x52, 0x50, 0x05, 0x2A, 0x4C, 0x09, 0x48, 0x00,
	0x00, 0x45, 0x00, 0x00, 0x29, 0x00, 0x00, 0x30, 0x00, 0x00, 0x39, 0x00,
	0x00, 0x35, 0x00, 0x00, 0x3F, 0x00, 0x00, 0x49, 0x00, 0x00, 0x41, 0x00,
	0x01, 0x4B, 0x00, 0x00, 0xB0, 0x40, 0x00, 0x03, 0x90, 0x42, 0x00, 0x08,
	0x3D, 0x00, 0x07, 0xB0, 0x40, 0x7F, 0x08, 0x90, 0x3A, 0x00, 0x7E, 0x31,
	0x45, 0x81, 0x1E, 0x46, 0x00, 0x00, 0x52, 0x00, 0x08, 0x49, 0x49, 0x00,
	0x52, 0x53, 0x01, 0x3A, 0x55, 0x00, 0x36, 0x54, 0x02, 0x46, 0x4D, 0x01,
	0x4E, 0x43, 0x0B, 0xB0, 0x40, 0x00, 0x17, 0x40, 0x7F, 0x73, 0x90, 0x31,
	0x00, 0x00, 0x49, 0x00, 0x08, 0x55, 0x49, 0x02, 0x31, 0x45, 0x02, 0x49,
	0x3F, 0x81, 0x23, 0x54, 0x4D, 0x01, 0x2C, 0x48, 0x81, 0x28, 0x3F, 0x44,
	0x01, 0x4B, 0x43, 0x01, 0x50, 0x00, 0x01, 0x33, 0x47, 0x81, 0x19, 0x52,
	0x00, 0x05, 0x52, 0x50, 0x03, 0x3C, 0x51, 0x01, 0x44, 0x48, 0x00, 0x48,
	0x4B, 0x02, 0x38, 0x4A, 0x81, 0x1D, 0x33, 0x00, 0x00, 0x3F, 0x00, 0x00,
	0x48, 0x00, 0x06, 0x50, 0x50, 0x01, 0x3F, 0x45, 0x01, 0x33, 0x48, 0x00,
	0x48, 0x44, 0x81, 0x21, 0x31, 0x00, 0x00, 0x49, 0x00, 0x00, 0x50, 0x00,
	0x05, 0x50, 0x4E, 0x01, 0x49, 0x3F, 0x05, 0x31, 0x4A, 0x09, 0xB0, 0x40,
	0x00, 0x13, 0x40, 0x7F, 0x81, 0x02, 0x90, 0x49, 0x00, 0x04, 0x3D, 0x56,
	0x01, 0x49, 0x4D, 0x81, 0x1D, 0x4B, 0x00, 0x03, 0xB0, 0x40, 0x00, 0x02,
	0x90, 0x38, 0x00, 0x01, 0x4B, 0x52, 0x01, 0x55, 0x00, 0x00, 0x54, 0x00,
	0x00, 0x50, 0x00, 0x00, 0x3C, 0x00, 0x00, 0x4D, 0x00, 0x01, 0x44, 0x00,
	0x00, 0x52, 0x00, 0x00, 0x30, 0x4C, 0x01, 0x3D, 0x00, 0x00, 0x3F, 0x00,
	0x03, 0x3C, 0x42, 0x0B, 0x2A, 0x00, 0x00, 0x46, 0x00, 0x07, 0x2C, 0x00,
	0x00, 0xB0, 0x40, 0x7F, 0x08, 0x90, 0x48, 0x00, 0x00, 0x4E, 0x00, 0x81,
	0x0C, 0x38, 0x4E, 0x01, 0x44, 0x40, 0x81, 0x1C, 0x4D, 0x53, 0x01, 0x2E,
	0x4D, 0x81, 0x24, 0x35, 0x51, 0x02, 0x41, 0x41, 0x81, 0x1E, 0x3A, 0x00,
	0x00, 0x49, 0x00, 0x07, 0x50, 0x51, 0x04, 0x49, 0x44, 0x00, 0x3D, 0x50,
	0x01, 0x3A, 0x4D, 0x03, 0x46, 0x45, 0x81, 0x12, 0x35, 0x00, 0x00, 0x4D,
	0x00, 0x07, 0x35, 0x51, 0x00, 0x4D, 0x50, 0x08, 0xB0, 0x40, 0x00, 0x27,
	0x40, 0x7F, 0x7B, 0x90, 0x33, 0x00, 0x00, 0x4B, 0x00, 0x04, 0x4B, 0x52,
	0x01, 0x33, 0x46, 0x81, 0x24, 0x3A, 0x00, 0x00, 0x46, 0x00, 0x05, 0x3A,
	0x49, 0x03, 0x46, 0x3E, 0x81, 0x1E, 0x3F, 0x50, 0x00, 0x42, 0x49, 0x1A,
	0xB0, 0x40, 0x00, 0x55, 0x40, 0x7F, 0x2E, 0x90, 0x3A, 0x00, 0x00, 0x46,
	0x00, 0x00, 0x49, 0x00, 0x05, 0x49, 0x51, 0x04, 0x3A, 0x4C, 0x02, 0x46,
	0x47, 0x81, 0x16, 0x3C, 0x00, 0x08, 0x50, 0x00, 0x05, 0x50, 0x4F, 0x02,
	0x2C, 0x47, 0x81, 0x1A, 0x4B, 0x00, 0x08, 0x33, 0x00, 0x03, 0x4B, 0x3F,
	0x05, 0x33, 0x46, 0x81, 0x20, 0x4B, 0x00, 0x05, 0x4B, 0x54, 0x03, 0x38,
	0x00, 0x03, 0x48, 0x46, 0x01, 0x3C, 0x52, 0x01, 0x38, 0x4B, 0x81, 0x15,
	0x33, 0x00, 0x00, 0x3F, 0x00, 0x04, 0x3F, 0x3E, 0x03, 0x33, 0x44, 0x81,
	0x29, 0x31, 0x00, 0x00, 0x4D, 0x00, 0x06, 0x4D, 0x50, 0x03, 0x31, 0x48,
	0x03, 0xB0, 0x40, 0x00, 0x13, 0x40, 0x7F, 0x81, 0x0A, 0x90, 0x38, 0x00,
	0x00, 0x44, 0x00, 0x00, 0x4B, 0x00, 0x04, 0x38, 0x4D, 0x01, 0x4B, 0x3F,
	0x01, 0x44, 0x41, 0x81, 0x2B, 0x3D, 0x00, 0x00, 0x41, 0x00, 0x00, 0x49,
	0x00, 0x00, 0xB0, 0x40, 0x00, 0x04, 0x90, 0x41, 0x4A, 0x00, 0x49, 0x44,
	0x01, 0x3D, 0x53, 0x07, 0x2C, 0x00, 0x02, 0x3C, 0x00, 0x03, 0x48, 0x00,
	0x06, 0xB0, 0x40, 0x7F, 0x08, 0x90, 0x36, 0x00, 0x0F, 0x42, 0x00, 0x08,
	0x30, 0x00, 0x6B, 0x38, 0x00, 0x00, 0x44, 0x00, 0x05, 0x38, 0x4E, 0x02,
	0x44, 0x3F, 0x81, 0x1B, 0x3D, 0x00, 0x00, 0x41, 0x00, 0x00, 0x49, 0x00,
	0x0A, 0x41, 0x48, 0x01, 0x49, 0x4B, 0x00, 0x3D, 0x50, 0x04, 0x35, 0x00,
	0x81, 0x12, 0x38, 0x00, 0x00, 0x4D, 0x00, 0x07, 0x4D, 0x4F, 0x04, 0x38,
	0x4A, 0x81, 0x1E, 0x3A, 0x00, 0x00, 0x3D, 0x00, 0x00, 0x49, 0x00, 0x00,
	0x4D, 0x00, 0x00, 0x50, 0x00, 0x06, 0x50, 0x51, 0x00, 0x4D, 0x48, 0x03,
	0x3D, 0x50, 0x00, 0x49, 0x43, 0x04, 0xB0, 0x40, 0x00, 0x05, 0x90, 0x2E,
	0x00, 0x05, 0x3F, 0x00, 0x08, 0x33, 0x00, 0x07, 0x46, 0x00, 0x08, 0x31,
	0x00, 0x00, 0x4B, 0x00, 0x00, 0xB0, 0x40, 0x7F, 0x0F, 0x90, 0x41, 0x00,
	0x6C, 0x38, 0x00, 0x00, 0x4D, 0x00, 0x05, 0x4D, 0x4D, 0x06, 0x38, 0x4A,
	0x0C, 0x44, 0x00, 0x05, 0x44, 0x38, 0x81, 0x1B, 0x52, 0x4D, 0x02, 0x2A,
	0x4B, 0x09, 0xB0, 0x40, 0x00, 0x02, 0x90, 0x50, 0x00, 0x0B, 0x3D, 0x00,
	0x08, 0x38, 0x00, 0x00, 0x49, 0x00, 0x07, 0x4D, 0x00, 0x08, 0xB0, 0x40,
	0x7F, 0x78, 0x90, 0x31, 0x45, 0x81, 0x1D, 0x44, 0x00, 0x00, 0x52, 0x00,
	0x05, 0x49, 0x49, 0x02, 0x52, 0x50, 0x02, 0x36, 0x51, 0x01, 0x46, 0x4B,
	0x00, 0x3A, 0x50, 0x10, 0xB0, 0x40, 0x00, 0x14, 0x40, 0x7F, 0x73, 0x90,
	0x31, 0x00, 0x06, 0x55, 0x46, 0x01, 0x61, 0x49, 0x01, 0x31, 0x44, 0x07,
	0x61, 0x00, 0x81, 0x1F, 0x2C, 0x46, 0x01, 0x54, 0x4C, 0x03, 0x60, 0x4A,
	0x06, 0x60, 0x00, 0x81, 0x19, 0x3F, 0x40, 0x04, 0x33, 0x45, 0x00, 0x4B,
	0x43, 0x81, 0x26, 0x52, 0x00, 0x05, 0x52, 0x4E, 0x04, 0x48, 0x4D, 0x00,
	0x3C, 0x51, 0x01, 0x38, 0x4A, 0x81, 0x17, 0x33, 0x00, 0x00, 0x54, 0x00,
	0x05, 0x54, 0x4E, 0x01, 0x33, 0x48, 0x81, 0x2B, 0x55, 0x00, 0x04, 0x55,
	0x4B, 0x02, 0x61, 0x4B, 0x01, 0x2E, 0x4C, 0x81, 0x1A, 0x48, 0x00, 0x06,
	0x48, 0x47, 0x02, 0x35, 0x55, 0x00, 0x41, 0x45, 0x81, 0x21, 0x3A, 0x00,
	0x00, 0x46, 0x00, 0x00, 0x49, 0x00, 0x06, 0x5C, 0x5C, 0x03, 0x46, 0x50,
	0x01, 0x49, 0x50, 0x01, 0x3A, 0x4F, 0x00, 0x3D, 0x54, 0x02, 0x33, 0x00,
	0x81, 0x14, 0x2A, 0x00, 0x00, 0x3C, 0x00, 0x05, 0x2C, 0x00, 0x03, 0x35,
	0x00, 0x04, 0x65, 0x59, 0x00, 0x59, 0x5A, 0x00, 0x35, 0x54, 0x04, 0x36,
	0x00, 0x00, 0x3F, 0x00, 0x07, 0x54, 0x00, 0x08, 0x4B, 0x00, 0x00, 0x52,
	0x00, 0x08, 0x38, 0x00, 0x07, 0x48, 0x00, 0x7B, 0x2E, 0x00, 0x00, 0x59,
	0x00, 0x00, 0x65, 0x00, 0x08, 0x55, 0x00, 0x02, 0x59, 0x55, 0x00, 0x65,
	0x5A, 0x02, 0x2E, 0x4E, 0x81, 0x1D, 0x35, 0x00, 0x00, 0x41, 0x00, 0x06,
	0x41, 0x45, 0x01, 0x35, 0x52, 0x81, 0x22, 0x3A, 0x00, 0x00, 0x3D, 0x00,
	0x00, 0x46, 0x00, 0x00, 0x49, 0x00, 0x00, 0x5C, 0x00, 0x06, 0x5C, 0x5B,
	0x02, 0x49, 0x53, 0x02, 0x3A, 0x51, 0x00, 0x46, 0x50, 0x01, 0x3D, 0x55,
	0x81, 0x16, 0x35, 0x00, 0x00, 0x59, 0x00, 0x00, 0x65, 0x00, 0x05, 0x59,
	0x59, 0x02, 0x65, 0x57, 0x02, 0x35, 0x54, 0x81, 0x31, 0x63, 0x5E, 0x00,
	0x27, 0x4A, 0x01, 0x57, 0x5D, 0x07, 0x41, 0x00, 0x01, 0x35, 0x00, 0x01,
	0x59, 0x00, 0x00, 0x31, 0x00, 0x00, 0x61, 0x00, 0x00, 0x5C, 0x00, 0x00,
	0x3A, 0x00, 0x00, 0x49, 0x00, 0x00, 0x46, 0x00, 0x03, 0xB0, 0x40, 0x00,
	0x09, 0x90, 0x3D, 0x00, 0x07, 0x2E, 0x00, 0x00, 0xB0, 0x40, 0x7F, 0x81,
	0x0E, 0x90, 0x2E, 0x4E, 0x00, 0x3A, 0x45, 0x81, 0x07, 0x65, 0x00, 0x1E,
	0x4B, 0x4C, 0x02, 0x36, 0x55, 0x00, 0x42, 0x47, 0x02, 0x33, 0x48, 0x01,
	0x3F, 0x47, 0x81, 0x15, 0x2E, 0x00, 0x08, 0x55, 0x48, 0x02, 0x2E, 0x47,
	0x00, 0x61, 0x4C, 0x81, 0x1F, 0x4B, 0x00, 0x00, 0x57, 0x00, 0x00, 0x63,
	0x00, 0x05, 0x63, 0x5A, 0x00, 0x4B, 0x4E, 0x00, 0x57, 0x5E, 0x00, 0x1D,
	0x4E, 0x07, 0x29, 0x48, 0x1D, 0xB0, 0x40, 0x00, 0x05, 0x40, 0x7F, 0x7F,
	0x90, 0x30, 0x43, 0x81, 0x23, 0x54, 0x52, 0x01, 0x60, 0x52, 0x05, 0x48,
	0x4F, 0x01, 0x41, 0x47, 0x00, 0x35, 0x4E, 0x05, 0x45, 0x48, 0x01, 0x39,
	0x4E, 0x42, 0x27, 0x00, 0x54, 0x30, 0x00, 0x07, 0x30, 0x46, 0x81, 0x1B,
	0x60, 0x00, 0x0F, 0x2E, 0x00, 0x04, 0x52, 0x4E, 0x02, 0x4D, 0x43, 0x02,
	0x61, 0x00, 0x03, 0x2E, 0x45, 0x07, 0xB0, 0x40, 0x00, 0x01, 0x90, 0x4B,
	0x00, 0x0C, 0x1D, 0x00, 0x00, 0x36, 0x00, 0x00, 0xB0, 0x40, 0x7F, 0x0F,
	0x90, 0x33, 0x00, 0x08, 0x42, 0x00, 0x07, 0x63, 0x00, 0x18, 0x3F, 0x00,
	0x26, 0x45, 0x00, 0x26, 0x35, 0x00, 0x00, 0x41, 0x00, 0x08, 0x3A, 0x00,
	0x01, 0x35, 0x54, 0x02, 0x41, 0x44, 0x0C, 0x39, 0x00, 0x81, 0x0B, 0x48,
	0x00, 0x0A, 0xB0, 0x40, 0x00, 0x05, 0x90, 0x4D, 0x00, 0x00, 0x54, 0x00,
	0x02, 0x30, 0x00, 0x01, 0x52, 0x00, 0x01, 0x4D, 0x42, 0x02, 0x3A, 0x52,
	0x00, 0x46, 0x46, 0x02, 0x57, 0x00, 0x0F, 0xB0, 0x40, 0x7F, 0x0F, 0x90,
	0x55, 0x00, 0x7F, 0x3C, 0x58, 0x01, 0x48, 0x47, 0x81, 0x28, 0x49, 0x4F,
	0x00, 0x3D, 0x58, 0x81, 0x16, 0x4D, 0x00, 0x0B, 0x4D, 0x54, 0x81, 0x1E,
	0x49, 0x00, 0x05, 0x50, 0x4C, 0x01, 0x49, 0x3C, 0x81, 0x1B, 0x3C, 0x00,
	0x00, 0x49, 0x00, 0x00, 0x4D, 0x00, 0x04, 0x3C, 0x40, 0x01, 0x4D, 0x53,
	0x00, 0x49, 0x41, 0x81, 0x24, 0x29, 0x00, 0x0F, 0x49, 0x00, 0x05, 0x49,
	0x4B, 0x00, 0x52, 0x4E, 0x01, 0xB0, 0x40, 0x00, 0x01, 0x90, 0x36, 0x58,
	0x01, 0x42, 0x45, 0x03, 0x3A, 0x00, 0x01, 0x41, 0x00, 0x00, 0x46, 0x00,
	0x00, 0x50, 0x00, 0x00, 0x48, 0x00, 0x00, 0x3C, 0x00, 0x00, 0x3D, 0x00,
	0x01, 0x4D, 0x00, 0x0A, 0x35, 0x00, 0x08, 0x2E, 0x00, 0x17, 0xB0, 0x40,
	0x7F, 0x6C, 0x90, 0x49, 0x00, 0x0A, 0x3D, 0x56, 0x01, 0x49, 0x4A, 0x81,
	0x1E, 0x42, 0x00, 0x00, 0x52, 0x00, 0x04, 0x52, 0x4B, 0x00, 0x4E, 0x41,
	0x02, 0x42, 0x46, 0x00, 0xB0, 0x40, 0x00, 0x11, 0x40, 0x7F, 0x81, 0x0E,
	0x90, 0x55, 0x49, 0x81, 0x2A, 0x54, 0x49, 0x05, 0xB0, 0x40, 0x00, 0x01,
	0x90, 0x44, 0x43, 0x00, 0x38, 0x50, 0x01, 0x55, 0x00, 0x00, 0x52, 0x00,
	0x02, 0x42, 0x00, 0x11, 0x3D, 0x00, 0x0F, 0xB0, 0x40, 0x7F, 0x08, 0x90,
	0x36, 0x00, 0x00, 0x49, 0x00, 0x6F, 0x4B, 0x47, 0x01, 0x3F, 0x50, 0x81,
	0x1C, 0x44, 0x00, 0x0C, 0x44, 0x4F, 0x00, 0x52, 0x4D, 0x05, 0xB0, 0x40,
	0x00, 0x16, 0x90, 0x4E, 0x00, 0x07, 0xB0, 0x40, 0x7F, 0x81, 0x03, 0x90,
	0x44, 0x00, 0x00, 0x4B, 0x00, 0x00, 0x54, 0x00, 0x04, 0x50, 0x4D, 0x00,
	0x44, 0x3C, 0x01, 0x4B, 0x39, 0x81, 0x1C, 0x4B, 0x00, 0x00, 0x50, 0x00,
	0x08, 0x44, 0x00, 0x02, 0x4D, 0x49, 0x00, 0xB0, 0x40, 0x00, 0x01, 0x90,
	0x4B, 0x3E, 0x00, 0x50, 0x4C, 0x01, 0x44, 0x3E, 0x02, 0x41, 0x49, 0x09,
	0x3F, 0x00, 0x10, 0x38, 0x00, 0x07, 0xB0, 0x40, 0x7F, 0x08, 0x90, 0x52,
	0x00, 0x55, 0x4B, 0x00, 0x1E, 0x44, 0x00, 0x05, 0x44, 0x51, 0x81, 0x28,
	0x48, 0x50, 0x00, 0x4B, 0x52, 0x81, 0x6A, 0x41, 0x00, 0x5C, 0x4D, 0x00,
	0x05, 0x4D, 0x54, 0x06, 0x3A, 0x50, 0x01, 0xB0, 0x40, 0x00, 0x03, 0x90,
	0x46, 0x48, 0x18, 0xB0, 0x40, 0x7F, 0x26, 0x90, 0x50, 0x00, 0x5E, 0x41,
	0x4C, 0x81, 0x20, 0x46, 0x00, 0x02, 0x50, 0x52, 0x02, 0x46, 0x50, 0x81,
	0x1D, 0x4D, 0x00, 0x04, 0x4D, 0x53, 0x81, 0x25, 0x4B, 0x00, 0x05, 0xB0,
	0x40, 0x00, 0x03, 0x90, 0x44, 0x00, 0x03, 0x4B, 0x55, 0x00, 0x36, 0x55,
	0x08, 0x3A, 0x00, 0x00, 0x46, 0x00, 0x00, 0x41, 0x00, 0x01, 0x50, 0x00,
	0x00, 0x4D, 0x00, 0x03, 0x48, 0x00, 0x26, 0xB0, 0x40, 0x7F, 0x7F, 0x90,
	0x3D, 0x50, 0x00, 0x49, 0x48, 0x81, 0x21, 0x42, 0x4A, 0x81, 0x1E, 0x49,
	0x00, 0x04, 0x49, 0x55, 0x81, 0x25, 0x4B, 0x00, 0x04, 0x50, 0x4E, 0x02,
	0x44, 0x44, 0x00, 0x4B, 0x3F, 0x03, 0x38, 0x4D, 0x01, 0xB0, 0x40, 0x00,
	0x03, 0x90, 0x3D, 0x00, 0x01, 0x42, 0x00, 0x01, 0x36, 0x00, 0x5C, 0x4B,
	0x00, 0x00, 0xB0, 0x40, 0x7F, 0x39, 0x90, 0x4B, 0x46, 0x01, 0x3F, 0x4E,
	0x81, 0x16, 0x49, 0x00, 0x0F, 0x44, 0x00, 0x00, 0x4B, 0x00, 0x04, 0x4B,
	0x4F, 0x01, 0x44, 0x4E, 0x05, 0xB0, 0x40, 0x00, 0x0D, 0x40, 0x7F, 0x82,
	0x46, 0x90, 0x4D, 0x53, 0x03, 0x3D, 0x50, 0x01, 0x49, 0x48, 0x06, 0x3F,
	0x00, 0x00, 0x4B, 0x00, 0x00, 0x50, 0x00, 0x01, 0x44, 0x00, 0x05, 0xB0,
	0x40, 0x00, 0x49, 0x40, 0x7F, 0x4A, 0x90, 0x44, 0x4F, 0x81, 0x24, 0x49,
	0x00, 0x04, 0x49, 0x4F, 0x04, 0xB0, 0x40, 0x00, 0x54, 0x40, 0x7F, 0x3D,
	0x90, 0x4D, 0x00, 0x0A, 0x4D, 0x53, 0x81, 0x2C, 0x4B, 0x54, 0x05, 0x48,
	0x42, 0x01, 0x3C, 0x54, 0x02, 0xB0, 0x40, 0x00, 0x1A, 0x40, 0x7F, 0x7A,
	0x90, 0x4D, 0x00, 0x07, 0x4D, 0x52, 0x03, 0x46, 0x50, 0x81, 0x1F, 0x3D,
	0x00, 0x04, 0x3D, 0x40, 0x01, 0x50, 0x4C, 0x81, 0x1D, 0x4D, 0x00, 0x04,
	0x4D, 0x53, 0x67, 0x38, 0x00, 0x3E, 0x49, 0x00, 0x0A, 0xB0, 0x40, 0x00,
	0x01, 0x90, 0x49, 0x47, 0x00, 0x52, 0x4B, 0x01, 0x36, 0x58, 0x0A, 0x3D,
	0x00, 0x00, 0x48, 0x00, 0x00, 0x44, 0x00, 0x01, 0x3C, 0x00, 0x00, 0x46,
	0x00, 0x00, 0x4B, 0x00, 0x00, 0x50, 0x00, 0x01, 0x4D, 0x00, 0x44, 0xB0,
	0x40, 0x7F, 0x07, 0x90, 0x49, 0x00, 0x5A, 0x3D, 0x51, 0x00, 0x49, 0x47,
	0x81, 0x15, 0x52, 0x00, 0x0B, 0x52, 0x48, 0x01, 0x42, 0x48, 0x81, 0x21,
	0x55, 0x46, 0x81, 0x28, 0x54, 0x46, 0x01, 0x60, 0x45, 0x03, 0x44, 0x40,
	0x03, 0x38, 0x50, 0x01, 0xB0, 0x40, 0x00, 0x04, 0x90, 0x60, 0x00, 0x0F,
	0x36, 0x00, 0x3E, 0xB0, 0x40, 0x7F, 0x49, 0x90, 0x4B, 0x44, 0x00, 0x3F,
	0x4F, 0x81, 0x1D, 0x3D, 0x00, 0x08, 0x42, 0x00, 0x00, 0x44, 0x00, 0x00,
	0x52, 0x00, 0x03, 0xB0, 0x40, 0x00, 0x01, 0x90, 0x44, 0x4C, 0x00, 0x38,
	0x00, 0x01, 0x52, 0x4C, 0x30, 0x49, 0x00, 0x00, 0x55, 0x00, 0x1F, 0xB0,
	0x40, 0x7F, 0x45, 0x90, 0x54, 0x00, 0x0B, 0x54, 0x4A, 0x01, 0x60, 0x46,
	0x04, 0x60, 0x00, 0x81, 0x12, 0x3F, 0x00, 0x1A, 0xB0, 0x40, 0x00, 0x01,
	0x90, 0x55, 0x48, 0x02, 0x41, 0x48, 0x01, 0x52, 0x00, 0x17, 0xB0, 0x40,
	0x7F, 0x81, 0x03, 0x90, 0x44, 0x00, 0x04, 0x44, 0x4F, 0x81, 0x28, 0x5C,
	0x61, 0x00, 0x48, 0x51, 0x02, 0x60, 0x4F, 0x01, 0xB0, 0x40, 0x00, 0x02,
	0x90, 0x41, 0x00, 0x26, 0xB0, 0x40, 0x7F, 0x08, 0x90, 0x55, 0x00, 0x3D,
	0x54, 0x00, 0x2E, 0x4B, 0x00, 0x03, 0x59, 0x5C, 0x00, 0x65, 0x5E, 0x81,
	0x1E, 0x59, 0x00, 0x00, 0x65, 0x00, 0x07, 0xB0, 0x40, 0x00, 0x05, 0x90,
	0x59, 0x5F, 0x00, 0x65, 0x5F, 0x04, 0x3A, 0x57, 0x2E, 0xB0, 0x40, 0x7F,
	0x71, 0x90, 0x41, 0x4D, 0x81, 0x26, 0x57, 0x5F, 0x01, 0x46, 0x56, 0x00,
	0x63, 0x5B, 0x01, 0x44, 0x00, 0x01, 0x5C, 0x00, 0x00, 0x48, 0x00, 0x03,
	0xB0, 0x40, 0x00, 0x00, 0x90, 0x59, 0x00, 0x07, 0x60, 0x00, 0x1E, 0xB0,
	0x40, 0x7F, 0x6C, 0x90, 0x65, 0x00, 0x0B, 0x65, 0x5E, 0x00, 0x59, 0x5C,
	0x81, 0x2B, 0xB0, 0x40, 0x00, 0x02, 0x90, 0x57, 0x00, 0x00, 0x63, 0x00,
	0x04, 0x63, 0x58, 0x00, 0x57, 0x5C, 0x01, 0x3F, 0x55, 0x00, 0x59, 0x00,
	0x02, 0x65, 0x00, 0x09, 0x3A, 0x00, 0x07, 0x41, 0x00, 0x08, 0xB0, 0x40,
	0x7F, 0x81, 0x03, 0x90, 0x46, 0x00, 0x04, 0x46, 0x54, 0x81, 0x27, 0x4B,
	0x53, 0x81, 0x22, 0x55, 0x4A, 0x01, 0x61, 0x48, 0x81, 0x25, 0x57, 0x00,
	0x00, 0x63, 0x00, 0x04, 0x63, 0x5C, 0x01, 0x41, 0x4F, 0x00, 0x57, 0x5C,
	0x10, 0xB0, 0x40, 0x00, 0x28, 0x40, 0x7F, 0x6E, 0x90, 0x48, 0x56, 0x81,
	0x17, 0x4B, 0x00, 0x0A, 0x4B, 0x43, 0x01, 0x54, 0x4B, 0x81, 0x1E, 0x48,
	0x00, 0x0B, 0x50, 0x4E, 0x00, 0x48, 0x3F, 0x05, 0x4B, 0x00, 0x04, 0x4B,
	0x33, 0x81, 0x1D, 0x46, 0x00, 0x05, 0x4D, 0x45, 0x01, 0x52, 0x4F, 0x02,
	0x46, 0x50, 0x02, 0x3A, 0x53, 0x00, 0xB0, 0x40, 0x00, 0x03, 0x90, 0x48,
	0x00, 0x01, 0x61, 0x00, 0x01, 0x63, 0x00, 0x00, 0x41, 0x00, 0x01, 0x57,
	0x00, 0x00, 0x54, 0x00, 0x01, 0x4B, 0x00, 0x00, 0x55, 0x00, 0x01, 0x50,
	0x00, 0x05, 0x3F, 0x00, 0x36, 0xB0, 0x40, 0x7F, 0x60, 0x90, 0x41, 0x50,
	0x81, 0x15, 0x46, 0x00, 0x0C, 0x46, 0x57, 0x81, 0x28, 0x48, 0x58, 0x81,
	0x28, 0x49, 0x5A, 0x0D, 0x52, 0x00, 0x82, 0x31, 0xB0, 0x40, 0x00, 0x03,
	0x90, 0x4D, 0x00, 0x0B, 0x4D, 0x58, 0x32, 0xB0, 0x40, 0x7F, 0x82, 0x15,
	0x90, 0x41, 0x00, 0x07, 0x46, 0x00, 0x02, 0x41, 0x36, 0x00, 0xB0, 0x40,
	0x00, 0x02, 0x90, 0x52, 0x52, 0x01, 0x46, 0x3E, 0x48, 0xB0, 0x40, 0x7F,
	0x82, 0x10, 0x90, 0x3A, 0x00, 0x02, 0xB0, 0x40, 0x00, 0x66, 0x40, 0x7F,
	0x50, 0x90, 0x49, 0x00, 0x01, 0x52, 0x00, 0x0B, 0xB0, 0x40, 0x00, 0x85,
	0x06, 0x90, 0x4D, 0x00, 0x88, 0x4A, 0x41, 0x00, 0x00, 0x46, 0x00, 0x00,
	0x48, 0x00, 0x01, 0xFF, 0x2F, 0x00
};
