/* C:\Users\Administrator\Downloads\愚人园-柠檬树[1](Fool_s_Garden_-_Lem_爱给网_aigei_com.mid (2024/8/24 12:53:52)
   起始位置(h): 00000000, 结束位置(h): 0000771B, 长度(h): 0000771C */

unsigned char rawData[30492] = {
	0x4D, 0x54, 0x68, 0x64, 0x00, 0x00, 0x00, 0x06, 0x00, 0x01, 0x00, 0x13,
	0x00, 0xC0, 0x4D, 0x54, 0x72, 0x6B, 0x00, 0x00, 0x00, 0x55, 0x00, 0xFF,
	0x01, 0x08, 0x4C, 0x65, 0x6D, 0x6E, 0x54, 0x72, 0x65, 0x65, 0x00, 0xFF,
	0x51, 0x03, 0x06, 0x7E, 0x3B, 0x00, 0xF0, 0x05, 0x7E, 0x7F, 0x09, 0x01,
	0xF7, 0x17, 0xF0, 0x29, 0x41, 0x10, 0x45, 0x12, 0x10, 0x00, 0x00, 0x54,
	0x6F, 0x70, 0x48, 0x69, 0x74, 0x73, 0x20, 0x20, 0x28, 0x63, 0x29, 0x20,
	0x62, 0x79, 0x20, 0x43, 0x61, 0x73, 0x70, 0x61, 0x72, 0x69, 0x2D, 0x53,
	0x6F, 0x66, 0x74, 0x77, 0x61, 0x72, 0x65, 0x5B, 0xF7, 0x85, 0xAE, 0x69,
	0xF0, 0x05, 0x7E, 0x7F, 0x09, 0x02, 0xF7, 0x00, 0xFF, 0x2F, 0x00, 0x4D,
	0x54, 0x72, 0x6B, 0x00, 0x00, 0x00, 0xCA, 0x00, 0xFF, 0x03, 0x0C, 0x53,
	0x6F, 0x66, 0x74, 0x20, 0x6B, 0x61, 0x72, 0x61, 0x6F, 0x6B, 0x65, 0x00,
	0xFF, 0x01, 0x13, 0x40, 0x4B, 0x4D, 0x49, 0x44, 0x49, 0x20, 0x4B, 0x41,
	0x52, 0x41, 0x4F, 0x4B, 0x52, 0x20, 0x46, 0x49, 0x4C, 0x45, 0x00, 0xFF,
	0x03, 0x0C, 0x53, 0x6F, 0x66, 0x74, 0x20, 0x6B, 0x61, 0x72, 0x61, 0x6F,
	0x6B, 0x65, 0x00, 0xFF, 0x01, 0x13, 0x40, 0x4B, 0x4D, 0x49, 0x44, 0x49,
	0x20, 0x4B, 0x41, 0x52, 0x41, 0x4F, 0x4B, 0x52, 0x20, 0x46, 0x49, 0x4C,
	0x45, 0x00, 0xFF, 0x03, 0x0C, 0x53, 0x6F, 0x66, 0x74, 0x20, 0x4B, 0x61,
	0x72, 0x61, 0x6F, 0x6B, 0x65, 0x00, 0xFF, 0x01, 0x13, 0x40, 0x4B, 0x4D,
	0x49, 0x44, 0x49, 0x20, 0x4B, 0x41, 0x52, 0x41, 0x4F, 0x4B, 0x45, 0x20,
	0x46, 0x49, 0x4C, 0x45, 0x00, 0xFF, 0x01, 0x06, 0x40, 0x56, 0x30, 0x31,
	0x30, 0x30, 0x00, 0xFF, 0x01, 0x26, 0x40, 0x49, 0x4C, 0x79, 0x72, 0x69,
	0x63, 0x73, 0x20, 0x65, 0x6E, 0x74, 0x65, 0x72, 0x65, 0x64, 0x20, 0x62,
	0x79, 0x20, 0x56, 0x65, 0x69, 0x6B, 0x6B, 0x6F, 0x20, 0x48, 0x6F, 0x66,
	0x66, 0x6D, 0x65, 0x69, 0x73, 0x74, 0x65, 0x72, 0x00, 0xFF, 0x01, 0x19,
	0x40, 0x49, 0x65, 0x2D, 0x6D, 0x61, 0x69, 0x6C, 0x3A, 0x20, 0x76, 0x61,
	0x68, 0x32, 0x36, 0x30, 0x38, 0x40, 0x61, 0x6F, 0x6C, 0x2E, 0x63, 0x6F,
	0x6D, 0x00, 0xFF, 0x2F, 0x00, 0x4D, 0x54, 0x72, 0x6B, 0x00, 0x00, 0x0B,
	0xC8, 0x00, 0xFF, 0x01, 0x06, 0x40, 0x4C, 0x45, 0x4E, 0x47, 0x4C, 0x00,
	0xFF, 0x01, 0x26, 0x40, 0x54, 0x4C, 0x45, 0x4D, 0x4F, 0x4E, 0x20, 0x54,
	0x52, 0x45, 0x45, 0x20, 0x20, 0x20, 0x20, 0x20, 0x20, 0x2D, 0x20, 0x20,
	0x20, 0x20, 0x20, 0x20, 0x46, 0x6F, 0x6F, 0x6C, 0x27, 0x73, 0x20, 0x47,
	0x61, 0x72, 0x64, 0x65, 0x6E, 0xBB, 0x3B, 0xFF, 0x01, 0x01, 0x2F, 0x00,
	0xFF, 0x01, 0x04, 0x49, 0x27, 0x6D, 0x20, 0x40, 0xFF, 0x01, 0x03, 0x73,
	0x69, 0x74, 0x81, 0x00, 0xFF, 0x01, 0x05, 0x74, 0x69, 0x6E, 0x67, 0x20,
	0x81, 0x40, 0xFF, 0x01, 0x05, 0x68, 0x65, 0x72, 0x65, 0x20, 0x81, 0x40,
	0xFF, 0x01, 0x01, 0x2F, 0x00, 0xFF, 0x01, 0x03, 0x49, 0x6E, 0x20, 0x81,
	0x40, 0xFF, 0x01, 0x02, 0x61, 0x20, 0x40, 0xFF, 0x01, 0x03, 0x62, 0x6F,
	0x72, 0x81, 0x00, 0xFF, 0x01, 0x04, 0x69, 0x6E, 0x67, 0x20, 0x81, 0x40,
	0xFF, 0x01, 0x06, 0x72, 0x6F, 0x6F, 0x6D, 0x2C, 0x20, 0x83, 0x00, 0xFF,
	0x01, 0x01, 0x2F, 0x00, 0xFF, 0x01, 0x05, 0x49, 0x74, 0x27, 0x73, 0x20,
	0x40, 0xFF, 0x01, 0x05, 0x6A, 0x75, 0x73, 0x74, 0x20, 0x81, 0x00, 0xFF,
	0x01, 0x01, 0x61, 0x40, 0xFF, 0x01, 0x02, 0x6E, 0x6F, 0x81, 0x00, 0xFF,
	0x01, 0x05, 0x74, 0x68, 0x65, 0x72, 0x20, 0x40, 0xFF, 0x01, 0x03, 0x72,
	0x61, 0x69, 0x81, 0x00, 0xFF, 0x01, 0x03, 0x6E, 0x79, 0x20, 0x40, 0xFF,
	0x01, 0x03, 0x73, 0x75, 0x6E, 0x81, 0x00, 0xFF, 0x01, 0x04, 0x64, 0x61,
	0x79, 0x20, 0x40, 0xFF, 0x01, 0x02, 0x61, 0x66, 0x81, 0x00, 0xFF, 0x01,
	0x03, 0x74, 0x65, 0x72, 0x81, 0x40, 0xFF, 0x01, 0x04, 0x6E, 0x6F, 0x6F,
	0x6E, 0x83, 0x00, 0xFF, 0x01, 0x01, 0x2F, 0x00, 0xFF, 0x01, 0x04, 0x49,
	0x27, 0x6D, 0x20, 0x40, 0xFF, 0x01, 0x03, 0x77, 0x61, 0x73, 0x81, 0x00,
	0xFF, 0x01, 0x05, 0x74, 0x69, 0x6E, 0x67, 0x20, 0x40, 0xFF, 0x01, 0x03,
	0x6D, 0x79, 0x20, 0x81, 0x00, 0xFF, 0x01, 0x05, 0x74, 0x69, 0x6D, 0x65,
	0x20, 0x81, 0x40, 0xFF, 0x01, 0x01, 0x2F, 0x00, 0xFF, 0x01, 0x02, 0x49,
	0x20, 0x40, 0xFF, 0x01, 0x04, 0x67, 0x6F, 0x74, 0x20, 0x81, 0x40, 0xFF,
	0x01, 0x03, 0x6E, 0x6F, 0x74, 0x81, 0x00, 0xFF, 0x01, 0x05, 0x68, 0x69,
	0x6E, 0x67, 0x20, 0x40, 0xFF, 0x01, 0x03, 0x74, 0x6F, 0x20, 0x81, 0x00,
	0xFF, 0x01, 0x04, 0x64, 0x6F, 0x2C, 0x20, 0x83, 0x00, 0xFF, 0x01, 0x01,
	0x2F, 0x00, 0xFF, 0x01, 0x04, 0x49, 0x27, 0x6D, 0x20, 0x40, 0xFF, 0x01,
	0x04, 0x68, 0x61, 0x6E, 0x67, 0x81, 0x00, 0xFF, 0x01, 0x04, 0x69, 0x6E,
	0x67, 0x20, 0x40, 0xFF, 0x01, 0x01, 0x61, 0x81, 0x00, 0xFF, 0x01, 0x05,
	0x72, 0x6F, 0x75, 0x6E, 0x64, 0x81, 0x40, 0xFF, 0x01, 0x01, 0x2F, 0x00,
	0xFF, 0x01, 0x02, 0x49, 0x27, 0x81, 0x40, 0xFF, 0x01, 0x02, 0x6D, 0x20,
	0x40, 0xFF, 0x01, 0x03, 0x77, 0x61, 0x69, 0x81, 0x00, 0xFF, 0x01, 0x05,
	0x74, 0x69, 0x6E, 0x67, 0x20, 0x40, 0xFF, 0x01, 0x04, 0x66, 0x6F, 0x72,
	0x20, 0x81, 0x00, 0xFF, 0x01, 0x03, 0x79, 0x6F, 0x75, 0x81, 0x40, 0xFF,
	0x01, 0x01, 0x2F, 0x00, 0xFF, 0x01, 0x04, 0x42, 0x75, 0x74, 0x20, 0x81,
	0x40, 0xFF, 0x01, 0x03, 0x6E, 0x6F, 0x74, 0x81, 0x40, 0xFF, 0x01, 0x05,
	0x68, 0x69, 0x6E, 0x67, 0x20, 0x40, 0xFF, 0x01, 0x01, 0x65, 0x81, 0x00,
	0xFF, 0x01, 0x04, 0x76, 0x65, 0x72, 0x20, 0x40, 0xFF, 0x01, 0x03, 0x68,
	0x61, 0x70, 0x81, 0x00, 0xFF, 0x01, 0x05, 0x70, 0x65, 0x6E, 0x73, 0x20,
	0x86, 0x00, 0xFF, 0x01, 0x01, 0x2F, 0x00, 0xFF, 0x01, 0x04, 0x41, 0x6E,
	0x64, 0x20, 0x40, 0xFF, 0x01, 0x02, 0x49, 0x20, 0x81, 0x00, 0xFF, 0x01,
	0x01, 0x77, 0x81, 0x40, 0xFF, 0x01, 0x02, 0x6F, 0x6E, 0x40, 0xFF, 0x01,
	0x03, 0x64, 0x65, 0x72, 0x8A, 0x00, 0xFF, 0x01, 0x01, 0x2F, 0x00, 0xFF,
	0x01, 0x04, 0x49, 0x27, 0x6D, 0x20, 0x40, 0xFF, 0x01, 0x03, 0x64, 0x72,
	0x69, 0x81, 0x00, 0xFF, 0x01, 0x05, 0x76, 0x69, 0x6E, 0x67, 0x20, 0x40,
	0xFF, 0x01, 0x01, 0x61, 0x81, 0x00, 0xFF, 0x01, 0x06, 0x72, 0x6F, 0x75,
	0x6E, 0x64, 0x20, 0x83, 0x40, 0xFF, 0x01, 0x03, 0x69, 0x6E, 0x20, 0x81,
	0x00, 0xFF, 0x01, 0x03, 0x6D, 0x79, 0x20, 0x81, 0x40, 0xFF, 0x01, 0x05,
	0x63, 0x61, 0x72, 0x2C, 0x20, 0x83, 0x00, 0xFF, 0x01, 0x01, 0x2F, 0x00,
	0xFF, 0x01, 0x04, 0x49, 0x27, 0x6D, 0x20, 0x40, 0xFF, 0x01, 0x03, 0x64,
	0x72, 0x69, 0x81, 0x00, 0xFF, 0x01, 0x05, 0x76, 0x69, 0x6E, 0x67, 0x20,
	0x40, 0xFF, 0x01, 0x04, 0x74, 0x6F, 0x6F, 0x20, 0x81, 0x00, 0xFF, 0x01,
	0x05, 0x66, 0x61, 0x73, 0x74, 0x20, 0x81, 0x40, 0xFF, 0x01, 0x00, 0x81,
	0x40, 0xFF, 0x01, 0x01, 0x2F, 0x00, 0xFF, 0x01, 0x04, 0x49, 0x27, 0x6D,
	0x20, 0x40, 0xFF, 0x01, 0x03, 0x64, 0x72, 0x69, 0x81, 0x00, 0xFF, 0x01,
	0x05, 0x76, 0x69, 0x6E, 0x67, 0x20, 0x40, 0xFF, 0x01, 0x04, 0x74, 0x6F,
	0x6F, 0x20, 0x81, 0x00, 0xFF, 0x01, 0x03, 0x66, 0x61, 0x72, 0x83, 0x00,
	0xFF, 0x01, 0x01, 0x2F, 0x00, 0xFF, 0x01, 0x04, 0x49, 0x27, 0x64, 0x20,
	0x40, 0xFF, 0x01, 0x05, 0x6C, 0x69, 0x6B, 0x65, 0x20, 0x81, 0x40, 0xFF,
	0x01, 0x03, 0x74, 0x6F, 0x20, 0x81, 0x00, 0xFF, 0x01, 0x07, 0x63, 0x68,
	0x61, 0x6E, 0x67, 0x65, 0x20, 0x81, 0x40, 0xFF, 0x01, 0x03, 0x6D, 0x79,
	0x20, 0x82, 0x00, 0xFF, 0x01, 0x06, 0x70, 0x6F, 0x69, 0x6E, 0x74, 0x20,
	0x81, 0x20, 0xFF, 0x01, 0x03, 0x6F, 0x66, 0x20, 0x81, 0x20, 0xFF, 0x01,
	0x06, 0x76, 0x69, 0x65, 0x77, 0x2C, 0x20, 0x83, 0x00, 0xFF, 0x01, 0x01,
	0x2F, 0x00, 0xFF, 0x01, 0x02, 0x49, 0x20, 0x40, 0xFF, 0x01, 0x05, 0x66,
	0x65, 0x65, 0x6C, 0x20, 0x81, 0x40, 0xFF, 0x01, 0x03, 0x73, 0x6F, 0x20,
	0x81, 0x00, 0xFF, 0x01, 0x07, 0x6C, 0x6F, 0x6E, 0x65, 0x6C, 0x79, 0x20,
	0x81, 0x40, 0xFF, 0x01, 0x02, 0x49, 0x27, 0x81, 0x40, 0xFF, 0x01, 0x02,
	0x6D, 0x20, 0x40, 0xFF, 0x01, 0x03, 0x77, 0x61, 0x69, 0x81, 0x00, 0xFF,
	0x01, 0x05, 0x74, 0x69, 0x6E, 0x67, 0x20, 0x40, 0xFF, 0x01, 0x04, 0x66,
	0x6F, 0x72, 0x20, 0x81, 0x00, 0xFF, 0x01, 0x03, 0x79, 0x6F, 0x75, 0x81,
	0x40, 0xFF, 0x01, 0x01, 0x2F, 0x00, 0xFF, 0x01, 0x04, 0x42, 0x75, 0x74,
	0x20, 0x81, 0x40, 0xFF, 0x01, 0x03, 0x6E, 0x6F, 0x74, 0x81, 0x40, 0xFF,
	0x01, 0x05, 0x68, 0x69, 0x6E, 0x67, 0x20, 0x40, 0xFF, 0x01, 0x01, 0x65,
	0x81, 0x00, 0xFF, 0x01, 0x04, 0x76, 0x65, 0x72, 0x20, 0x40, 0xFF, 0x01,
	0x03, 0x68, 0x61, 0x70, 0x81, 0x00, 0xFF, 0x01, 0x05, 0x70, 0x65, 0x6E,
	0x73, 0x20, 0x86, 0x00, 0xFF, 0x01, 0x01, 0x2F, 0x00, 0xFF, 0x01, 0x04,
	0x41, 0x6E, 0x64, 0x20, 0x40, 0xFF, 0x01, 0x02, 0x49, 0x20, 0x81, 0x00,
	0xFF, 0x01, 0x01, 0x77, 0x81, 0x40, 0xFF, 0x01, 0x02, 0x6F, 0x6E, 0x40,
	0xFF, 0x01, 0x03, 0x64, 0x65, 0x72, 0x8A, 0x00, 0xFF, 0x01, 0x01, 0x2F,
	0x00, 0xFF, 0x01, 0x02, 0x49, 0x20, 0x40, 0xFF, 0x01, 0x03, 0x77, 0x6F,
	0x6E, 0x81, 0x40, 0xFF, 0x01, 0x04, 0x64, 0x65, 0x72, 0x20, 0x81, 0x00,
	0xFF, 0x01, 0x04, 0x68, 0x6F, 0x77, 0x20, 0x83, 0x00, 0xFF, 0x01, 0x01,
	0x2F, 0x00, 0xFF, 0x01, 0x02, 0x49, 0x20, 0x40, 0xFF, 0x01, 0x03, 0x77,
	0x6F, 0x6E, 0x81, 0x40, 0xFF, 0x01, 0x04, 0x64, 0x65, 0x72, 0x20, 0x81,
	0x00, 0xFF, 0x01, 0x04, 0x77, 0x68, 0x79, 0x20, 0x83, 0x40, 0xFF, 0x01,
	0x01, 0x2F, 0x00, 0xFF, 0x01, 0x03, 0x59, 0x65, 0x73, 0x81, 0x00, 0xFF,
	0x01, 0x03, 0x74, 0x65, 0x72, 0x40, 0xFF, 0x01, 0x04, 0x64, 0x61, 0x79,
	0x20, 0x81, 0x00, 0xFF, 0x01, 0x04, 0x79, 0x6F, 0x75, 0x20, 0x40, 0xFF,
	0x01, 0x05, 0x74, 0x6F, 0x6C, 0x64, 0x20, 0x81, 0x00, 0xFF, 0x01, 0x03,
	0x6D, 0x65, 0x20, 0x40, 0xFF, 0x01, 0x06, 0x27, 0x62, 0x6F, 0x75, 0x74,
	0x20, 0x81, 0x00, 0xFF, 0x01, 0x04, 0x74, 0x68, 0x65, 0x20, 0x40, 0xFF,
	0x01, 0x05, 0x62, 0x6C, 0x75, 0x65, 0x20, 0x81, 0x00, 0xFF, 0x01, 0x05,
	0x62, 0x6C, 0x75, 0x65, 0x20, 0x81, 0x40, 0xFF, 0x01, 0x03, 0x73, 0x6B,
	0x79, 0x82, 0x00, 0xFF, 0x01, 0x01, 0x2F, 0x00, 0xFF, 0x01, 0x04, 0x41,
	0x6E, 0x64, 0x20, 0x81, 0x00, 0xFF, 0x01, 0x04, 0x61, 0x6C, 0x6C, 0x20,
	0x82, 0x00, 0xFF, 0x01, 0x05, 0x74, 0x68, 0x61, 0x74, 0x20, 0x81, 0x00,
	0xFF, 0x01, 0x02, 0x49, 0x20, 0x81, 0x40, 0xFF, 0x01, 0x04, 0x63, 0x61,
	0x6E, 0x20, 0x81, 0x40, 0xFF, 0x01, 0x04, 0x73, 0x65, 0x65, 0x20, 0x83,
	0x00, 0xFF, 0x01, 0x01, 0x2F, 0x00, 0xFF, 0x01, 0x03, 0x49, 0x73, 0x20,
	0x40, 0xFF, 0x01, 0x05, 0x6A, 0x75, 0x73, 0x74, 0x20, 0x81, 0x00, 0xFF,
	0x01, 0x02, 0x61, 0x20, 0x40, 0xFF, 0x01, 0x03, 0x79, 0x65, 0x6C, 0x81,
	0x00, 0xFF, 0x01, 0x04, 0x6C, 0x6F, 0x77, 0x20, 0x40, 0xFF, 0x01, 0x02,
	0x6C, 0x65, 0x81, 0x00, 0xFF, 0x01, 0x04, 0x6D, 0x6F, 0x6E, 0x20, 0x81,
	0x40, 0xFF, 0x01, 0x05, 0x74, 0x72, 0x65, 0x65, 0x20, 0x89, 0x00, 0xFF,
	0x01, 0x01, 0x2F, 0x00, 0xFF, 0x01, 0x04, 0x49, 0x27, 0x6D, 0x20, 0x40,
	0xFF, 0x01, 0x03, 0x74, 0x75, 0x72, 0x81, 0x00, 0xFF, 0x01, 0x05, 0x6E,
	0x69, 0x6E, 0x67, 0x20, 0x40, 0xFF, 0x01, 0x03, 0x6D, 0x79, 0x20, 0x81,
	0x00, 0xFF, 0x01, 0x05, 0x68, 0x65, 0x61, 0x64, 0x20, 0x83, 0x40, 0xFF,
	0x01, 0x03, 0x75, 0x70, 0x20, 0x81, 0x00, 0xFF, 0x01, 0x04, 0x61, 0x6E,
	0x64, 0x20, 0x81, 0x40, 0xFF, 0x01, 0x05, 0x64, 0x6F, 0x77, 0x6E, 0x20,
	0x83, 0x00, 0xFF, 0x01, 0x01, 0x2F, 0x00, 0xFF, 0x01, 0x04, 0x49, 0x27,
	0x6D, 0x20, 0x40, 0xFF, 0x01, 0x03, 0x74, 0x75, 0x72, 0x81, 0x00, 0xFF,
	0x01, 0x05, 0x6E, 0x69, 0x6E, 0x67, 0x20, 0x40, 0xFF, 0x01, 0x03, 0x74,
	0x75, 0x72, 0x81, 0x00, 0xFF, 0x01, 0x05, 0x6E, 0x69, 0x6E, 0x67, 0x20,
	0x40, 0xFF, 0x01, 0x01, 0x2F, 0x00, 0xFF, 0x01, 0x03, 0x74, 0x75, 0x72,
	0x81, 0x00, 0xFF, 0x01, 0x05, 0x6E, 0x69, 0x6E, 0x67, 0x20, 0x40, 0xFF,
	0x01, 0x03, 0x74, 0x75, 0x72, 0x81, 0x00, 0xFF, 0x01, 0x05, 0x6E, 0x69,
	0x6E, 0x67, 0x20, 0x40, 0xFF, 0x01, 0x03, 0x74, 0x75, 0x72, 0x81, 0x00,
	0xFF, 0x01, 0x05, 0x6E, 0x69, 0x6E, 0x67, 0x20, 0x40, 0xFF, 0x01, 0x01,
	0x61, 0x81, 0x00, 0xFF, 0x01, 0x05, 0x72, 0x6F, 0x75, 0x6E, 0x64, 0x82,
	0x00, 0xFF, 0x01, 0x01, 0x2F, 0x00, 0xFF, 0x01, 0x04, 0x41, 0x6E, 0x64,
	0x20, 0x81, 0x00, 0xFF, 0x01, 0x04, 0x61, 0x6C, 0x6C, 0x20, 0x82, 0x00,
	0xFF, 0x01, 0x05, 0x74, 0x68, 0x61, 0x74, 0x20, 0x81, 0x00, 0xFF, 0x01,
	0x02, 0x49, 0x20, 0x81, 0x40, 0xFF, 0x01, 0x04, 0x63, 0x61, 0x6E, 0x20,
	0x81, 0x40, 0xFF, 0x01, 0x04, 0x73, 0x65, 0x65, 0x20, 0x83, 0x00, 0xFF,
	0x01, 0x01, 0x2F, 0x00, 0xFF, 0x01, 0x03, 0x49, 0x73, 0x20, 0x40, 0xFF,
	0x01, 0x05, 0x6A, 0x75, 0x73, 0x74, 0x20, 0x81, 0x00, 0xFF, 0x01, 0x02,
	0x61, 0x20, 0x40, 0xFF, 0x01, 0x03, 0x79, 0x65, 0x6C, 0x81, 0x00, 0xFF,
	0x01, 0x04, 0x6C, 0x6F, 0x77, 0x20, 0x40, 0xFF, 0x01, 0x02, 0x6C, 0x65,
	0x81, 0x00, 0xFF, 0x01, 0x04, 0x6D, 0x6F, 0x6E, 0x20, 0x81, 0x40, 0xFF,
	0x01, 0x04, 0x74, 0x72, 0x65, 0x65, 0x86, 0x40, 0xFF, 0x01, 0x01, 0x2F,
	0x00, 0xFF, 0x01, 0x05, 0x44, 0x69, 0x70, 0x2C, 0x20, 0x83, 0x00, 0xFF,
	0x01, 0x03, 0x64, 0x61, 0x20, 0x87, 0x00, 0xFF, 0x01, 0x03, 0x64, 0x61,
	0x20, 0x40, 0xFF, 0x01, 0x03, 0x64, 0x69, 0x20, 0x81, 0x00, 0xFF, 0x01,
	0x03, 0x64, 0x61, 0x20, 0x81, 0x40, 0xFF, 0x01, 0x03, 0x64, 0x61, 0x20,
	0x81, 0x40, 0xFF, 0x01, 0x03, 0x64, 0x69, 0x20, 0x40, 0xFF, 0x01, 0x04,
	0x64, 0x61, 0x70, 0x20, 0x81, 0x00, 0xFF, 0x01, 0x03, 0x64, 0x69, 0x20,
	0x81, 0x40, 0xFF, 0x01, 0x03, 0x64, 0x69, 0x20, 0x84, 0x40, 0xFF, 0x01,
	0x00, 0x40, 0xFF, 0x01, 0x00, 0x81, 0x00, 0xFF, 0x01, 0x00, 0x81, 0x40,
	0xFF, 0x01, 0x00, 0x81, 0x40, 0xFF, 0x01, 0x00, 0x40, 0xFF, 0x01, 0x00,
	0x81, 0x00, 0xFF, 0x01, 0x00, 0x81, 0x40, 0xFF, 0x01, 0x00, 0x85, 0x00,
	0xFF, 0x01, 0x00, 0x81, 0x40, 0xFF, 0x01, 0x00, 0x81, 0x00, 0xFF, 0x01,
	0x00, 0x40, 0xFF, 0x01, 0x00, 0x81, 0x00, 0xFF, 0x01, 0x00, 0x8C, 0x00,
	0xFF, 0x01, 0x01, 0x2F, 0x00, 0xFF, 0x01, 0x04, 0x49, 0x27, 0x6D, 0x20,
	0x40, 0xFF, 0x01, 0x03, 0x73, 0x69, 0x74, 0x81, 0x00, 0xFF, 0x01, 0x05,
	0x74, 0x69, 0x6E, 0x67, 0x20, 0x81, 0x40, 0xFF, 0x01, 0x05, 0x68, 0x65,
	0x72, 0x65, 0x20, 0x81, 0x40, 0xFF, 0x01, 0x01, 0x2F, 0x00, 0xFF, 0x01,
	0x02, 0x49, 0x20, 0x82, 0x00, 0xFF, 0x01, 0x05, 0x6D, 0x69, 0x73, 0x73,
	0x20, 0x81, 0x40, 0xFF, 0x01, 0x04, 0x74, 0x68, 0x65, 0x20, 0x81, 0x00,
	0xFF, 0x01, 0x07, 0x70, 0x6F, 0x77, 0x65, 0x72, 0x2C, 0x20, 0x83, 0x00,
	0xFF, 0x01, 0x01, 0x2F, 0x00, 0xFF, 0x01, 0x04, 0x49, 0x27, 0x64, 0x20,
	0x40, 0xFF, 0x01, 0x05, 0x6C, 0x69, 0x6B, 0x65, 0x20, 0x81, 0x00, 0xFF,
	0x01, 0x03, 0x74, 0x6F, 0x20, 0x40, 0xFF, 0x01, 0x03, 0x67, 0x6F, 0x20,
	0x81, 0x00, 0xFF, 0x01, 0x04, 0x6F, 0x75, 0x74, 0x20, 0x83, 0x40, 0xFF,
	0x01, 0x02, 0x74, 0x61, 0x81, 0x00, 0xFF, 0x01, 0x05, 0x6B, 0x69, 0x6E,
	0x67, 0x20, 0x40, 0xFF, 0x01, 0x02, 0x61, 0x20, 0x81, 0x00, 0xFF, 0x01,
	0x06, 0x73, 0x68, 0x6F, 0x77, 0x65, 0x72, 0x83, 0x00, 0xFF, 0x01, 0x01,
	0x2F, 0x00, 0xFF, 0x01, 0x04, 0x42, 0x75, 0x74, 0x20, 0x40, 0xFF, 0x01,
	0x08, 0x74, 0x68, 0x65, 0x72, 0x65, 0x27, 0x73, 0x20, 0x81, 0x00, 0xFF,
	0x01, 0x02, 0x61, 0x20, 0x40, 0xFF, 0x01, 0x03, 0x68, 0x65, 0x61, 0x81,
	0x00, 0xFF, 0x01, 0x03, 0x76, 0x79, 0x20, 0x40, 0xFF, 0x01, 0x06, 0x63,
	0x6C, 0x6F, 0x75, 0x64, 0x20, 0x81, 0x40, 0xFF, 0x01, 0x02, 0x69, 0x6E,
	0x81, 0x40, 0xFF, 0x01, 0x05, 0x73, 0x69, 0x64, 0x65, 0x20, 0x81, 0x20,
	0xFF, 0x01, 0x03, 0x6D, 0x79, 0x20, 0x81, 0x20, 0xFF, 0x01, 0x06, 0x68,
	0x65, 0x61, 0x64, 0x2C, 0x20, 0x83, 0x00, 0xFF, 0x01, 0x01, 0x2F, 0x00,
	0xFF, 0x01, 0x02, 0x49, 0x20, 0x40, 0xFF, 0x01, 0x05, 0x66, 0x65, 0x65,
	0x6C, 0x20, 0x81, 0x40, 0xFF, 0x01, 0x03, 0x73, 0x6F, 0x20, 0x81, 0x00,
	0xFF, 0x01, 0x03, 0x74, 0x69, 0x72, 0x81, 0x40, 0xFF, 0x01, 0x02, 0x64,
	0x20, 0x81, 0x40, 0xFF, 0x01, 0x04, 0x70, 0x75, 0x74, 0x20, 0x40, 0xFF,
	0x01, 0x02, 0x6D, 0x79, 0x81, 0x00, 0xFF, 0x01, 0x05, 0x73, 0x65, 0x6C,
	0x66, 0x20, 0x40, 0xFF, 0x01, 0x05, 0x69, 0x6E, 0x74, 0x6F, 0x20, 0x81,
	0x00, 0xFF, 0x01, 0x03, 0x62, 0x65, 0x64, 0x81, 0x40, 0xFF, 0x01, 0x01,
	0x2F, 0x00, 0xFF, 0x01, 0x06, 0x57, 0x68, 0x65, 0x72, 0x65, 0x20, 0x81,
	0x40, 0xFF, 0x01, 0x02, 0x6E, 0x6F, 0x81, 0x40, 0xFF, 0x01, 0x06, 0x74,
	0x68, 0x69, 0x6E, 0x67, 0x20, 0x40, 0xFF, 0x01, 0x01, 0x65, 0x81, 0x00,
	0xFF, 0x01, 0x04, 0x76, 0x65, 0x72, 0x20, 0x40, 0xFF, 0x01, 0x03, 0x68,
	0x61, 0x70, 0x81, 0x00, 0xFF, 0x01, 0x05, 0x70, 0x65, 0x6E, 0x73, 0x20,
	0x86, 0x00, 0xFF, 0x01, 0x01, 0x2F, 0x00, 0xFF, 0x01, 0x04, 0x41, 0x6E,
	0x64, 0x20, 0x40, 0xFF, 0x01, 0x02, 0x49, 0x20, 0x81, 0x00, 0xFF, 0x01,
	0x01, 0x77, 0x81, 0x40, 0xFF, 0x01, 0x02, 0x6F, 0x6E, 0x40, 0xFF, 0x01,
	0x03, 0x64, 0x65, 0x72, 0x8C, 0x00, 0xFF, 0x01, 0x01, 0x2F, 0x00, 0xFF,
	0x01, 0x01, 0x49, 0x83, 0x00, 0xFF, 0x01, 0x02, 0x73, 0x6F, 0x81, 0x40,
	0xFF, 0x01, 0x02, 0x6C, 0x61, 0x82, 0x40, 0xFF, 0x01, 0x05, 0x74, 0x69,
	0x6F, 0x6E, 0x20, 0x83, 0x40, 0xFF, 0x01, 0x03, 0x69, 0x73, 0x20, 0x81,
	0x40, 0xFF, 0x01, 0x04, 0x6E, 0x6F, 0x74, 0x20, 0x81, 0x40, 0xFF, 0x01,
	0x05, 0x67, 0x6F, 0x6F, 0x64, 0x20, 0x81, 0x40, 0xFF, 0x01, 0x04, 0x66,
	0x6F, 0x72, 0x20, 0x81, 0x00, 0xFF, 0x01, 0x01, 0x6D, 0x81, 0x40, 0xFF,
	0x01, 0x02, 0x65, 0x20, 0x40, 0xFF, 0x01, 0x00, 0x86, 0x00, 0xFF, 0x01,
	0x01, 0x2F, 0x00, 0xFF, 0x01, 0x01, 0x49, 0x83, 0x00, 0xFF, 0x01, 0x02,
	0x73, 0x6F, 0x81, 0x40, 0xFF, 0x01, 0x02, 0x6C, 0x61, 0x82, 0x40, 0xFF,
	0x01, 0x05, 0x74, 0x69, 0x6F, 0x6E, 0x20, 0x83, 0x40, 0xFF, 0x01, 0x01,
	0x2F, 0x00, 0xFF, 0x01, 0x02, 0x49, 0x20, 0x81, 0x40, 0xFF, 0x01, 0x06,
	0x64, 0x6F, 0x6E, 0x27, 0x74, 0x20, 0x81, 0x40, 0xFF, 0x01, 0x05, 0x77,
	0x61, 0x6E, 0x74, 0x20, 0x81, 0x40, 0xFF, 0x01, 0x03, 0x74, 0x6F, 0x20,
	0x82, 0x40, 0xFF, 0x01, 0x04, 0x73, 0x69, 0x74, 0x20, 0x40, 0xFF, 0x01,
	0x03, 0x6F, 0x6E, 0x20, 0x81, 0x00, 0xFF, 0x01, 0x02, 0x61, 0x20, 0x40,
	0xFF, 0x01, 0x02, 0x6C, 0x65, 0x81, 0x00, 0xFF, 0x01, 0x04, 0x6D, 0x6F,
	0x6E, 0x20, 0x40, 0xFF, 0x01, 0x04, 0x74, 0x72, 0x65, 0x65, 0x81, 0x00,
	0xFF, 0x01, 0x01, 0x2F, 0x00, 0xFF, 0x01, 0x04, 0x49, 0x27, 0x6D, 0x20,
	0x40, 0xFF, 0x01, 0x04, 0x73, 0x74, 0x65, 0x70, 0x81, 0x00, 0xFF, 0x01,
	0x05, 0x70, 0x69, 0x6E, 0x27, 0x20, 0x40, 0xFF, 0x01, 0x01, 0x61, 0x81,
	0x00, 0xFF, 0x01, 0x06, 0x72, 0x6F, 0x75, 0x6E, 0x64, 0x20, 0x81, 0x40,
	0xFF, 0x01, 0x03, 0x69, 0x6E, 0x20, 0x81, 0x40, 0xFF, 0x01, 0x02, 0x61,
	0x20, 0x40, 0xFF, 0x01, 0x03, 0x64, 0x65, 0x73, 0x81, 0x00, 0xFF, 0x01,
	0x04, 0x65, 0x72, 0x74, 0x20, 0x40, 0xFF, 0x01, 0x03, 0x6F, 0x66, 0x20,
	0x81, 0x00, 0xFF, 0x01, 0x05, 0x6A, 0x6F, 0x79, 0x2C, 0x20, 0x83, 0x40,
	0xFF, 0x01, 0x01, 0x2F, 0x00, 0xFF, 0x01, 0x02, 0x42, 0x61, 0x81, 0x00,
	0xFF, 0x01, 0x03, 0x62, 0x79, 0x20, 0x40, 0xFF, 0x01, 0x01, 0x61, 0x81,
	0x00, 0xFF, 0x01, 0x02, 0x6E, 0x79, 0x40, 0xFF, 0x01, 0x04, 0x68, 0x6F,
	0x77, 0x20, 0x81, 0x00, 0xFF, 0x01, 0x05, 0x49, 0x27, 0x6C, 0x6C, 0x20,
	0x40, 0xFF, 0x01, 0x04, 0x67, 0x65, 0x74, 0x20, 0x81, 0x00, 0xFF, 0x01,
	0x03, 0x61, 0x6E, 0x20, 0x40, 0xFF, 0x01, 0x02, 0x6F, 0x74, 0x81, 0x00,
	0xFF, 0x01, 0x04, 0x68, 0x65, 0x72, 0x20, 0x81, 0x40, 0xFF, 0x01, 0x03,
	0x74, 0x6F, 0x79, 0x81, 0x40, 0xFF, 0x01, 0x01, 0x2F, 0x00, 0xFF, 0x01,
	0x04, 0x41, 0x6E, 0x64, 0x20, 0x81, 0x40, 0xFF, 0x01, 0x01, 0x65, 0x81,
	0x40, 0xFF, 0x01, 0x04, 0x76, 0x65, 0x72, 0x79, 0x40, 0xFF, 0x01, 0x06,
	0x74, 0x68, 0x69, 0x6E, 0x67, 0x20, 0x81, 0x00, 0xFF, 0x01, 0x05, 0x77,
	0x69, 0x6C, 0x6C, 0x20, 0x40, 0xFF, 0x01, 0x03, 0x68, 0x61, 0x70, 0x81,
	0x00, 0xFF, 0x01, 0x04, 0x70, 0x65, 0x6E, 0x20, 0x86, 0x00, 0xFF, 0x01,
	0x01, 0x2F, 0x00, 0xFF, 0x01, 0x04, 0x41, 0x6E, 0x64, 0x20, 0x40, 0xFF,
	0x01, 0x07, 0x79, 0x6F, 0x75, 0x27, 0x6C, 0x6C, 0x20, 0x81, 0x00, 0xFF,
	0x01, 0x01, 0x77, 0x81, 0x40, 0xFF, 0x01, 0x02, 0x6F, 0x6E, 0x40, 0xFF,
	0x01, 0x03, 0x64, 0x65, 0x72, 0x8A, 0x00, 0xFF, 0x01, 0x01, 0x2F, 0x00,
	0xFF, 0x01, 0x04, 0x41, 0x6E, 0x64, 0x20, 0x40, 0xFF, 0x01, 0x01, 0x61,
	0x81, 0x40, 0xFF, 0x01, 0x01, 0x6C, 0x81, 0x00, 0xFF, 0x01, 0x02, 0x6C,
	0x20, 0x83, 0x00, 0xFF, 0x01, 0x05, 0x74, 0x68, 0x61, 0x74, 0x20, 0x40,
	0xFF, 0x01, 0x02, 0x49, 0x20, 0x81, 0x40, 0xFF, 0x01, 0x04, 0x63, 0x61,
	0x6E, 0x20, 0x81, 0x00, 0xFF, 0x01, 0x04, 0x73, 0x65, 0x65, 0x20, 0x83,
	0x40, 0xFF, 0x01, 0x01, 0x2F, 0x00, 0xFF, 0x01, 0x04, 0x41, 0x6C, 0x6C,
	0x20, 0x81, 0x00, 0xFF, 0x01, 0x05, 0x74, 0x68, 0x61, 0x74, 0x20, 0x40,
	0xFF, 0x01, 0x02, 0x49, 0x20, 0x81, 0x00, 0xFF, 0x01, 0x04, 0x63, 0x61,
	0x6E, 0x20, 0x40, 0xFF, 0x01, 0x03, 0x73, 0x65, 0x65, 0x81, 0x00, 0xFF,
	0x01, 0x01, 0x2F, 0x00, 0xFF, 0x01, 0x03, 0x49, 0x73, 0x20, 0x40, 0xFF,
	0x01, 0x05, 0x6A, 0x75, 0x73, 0x74, 0x20, 0x81, 0x00, 0xFF, 0x01, 0x02,
	0x61, 0x20, 0x40, 0xFF, 0x01, 0x07, 0x79, 0x65, 0x6C, 0x6C, 0x6F, 0x77,
	0x20, 0x81, 0x00, 0xFF, 0x01, 0x06, 0x6C, 0x65, 0x6D, 0x6F, 0x6E, 0x20,
	0x81, 0x40, 0xFF, 0x01, 0x04, 0x74, 0x72, 0x65, 0x65, 0x82, 0x00, 0xFF,
	0x01, 0x01, 0x2F, 0x00, 0xFF, 0x01, 0x01, 0x41, 0x81, 0x00, 0xFF, 0x01,
	0x03, 0x6C, 0x6C, 0x20, 0x82, 0x00, 0xFF, 0x01, 0x05, 0x74, 0x68, 0x61,
	0x74, 0x20, 0x81, 0x00, 0xFF, 0x01, 0x02, 0x49, 0x20, 0x81, 0x40, 0xFF,
	0x01, 0x04, 0x63, 0x61, 0x6E, 0x20, 0x81, 0x40, 0xFF, 0x01, 0x04, 0x73,
	0x65, 0x65, 0x20, 0x83, 0x00, 0xFF, 0x01, 0x03, 0x49, 0x73, 0x20, 0x40,
	0xFF, 0x01, 0x05, 0x6A, 0x75, 0x73, 0x74, 0x20, 0x81, 0x00, 0xFF, 0x01,
	0x02, 0x61, 0x20, 0x40, 0xFF, 0x01, 0x03, 0x79, 0x65, 0x6C, 0x81, 0x00,
	0xFF, 0x01, 0x04, 0x6C, 0x6F, 0x77, 0x20, 0x40, 0xFF, 0x01, 0x02, 0x6C,
	0x65, 0x81, 0x00, 0xFF, 0x01, 0x04, 0x6D, 0x6F, 0x6E, 0x20, 0x81, 0x40,
	0xFF, 0x01, 0x05, 0x74, 0x72, 0x65, 0x65, 0x20, 0x89, 0x00, 0xFF, 0x01,
	0x00, 0x00, 0xFF, 0x2F, 0x00, 0x4D, 0x54, 0x72, 0x6B, 0x00, 0x00, 0x0A,
	0xDA, 0x1B, 0xB0, 0x79, 0x00, 0x10, 0x00, 0x00, 0x81, 0x10, 0xC0, 0x05,
	0x60, 0xB0, 0x07, 0x67, 0x31, 0x01, 0x00, 0x03, 0x02, 0x00, 0x0A, 0x05,
	0x00, 0x22, 0x0A, 0x28, 0x02, 0x0B, 0x7F, 0x02, 0x40, 0x00, 0x05, 0x41,
	0x00, 0x57, 0x5B, 0x50, 0x60, 0x5D, 0x46, 0x30, 0xE0, 0x00, 0x40, 0x30,
	0xB0, 0x65, 0x00, 0x00, 0x64, 0x00, 0x30, 0x06, 0x02, 0xB5, 0x70, 0x90,
	0x46, 0x7D, 0x32, 0x46, 0x00, 0x0E, 0x48, 0x7D, 0x59, 0x48, 0x00, 0x27,
	0x48, 0x7D, 0x81, 0x21, 0x48, 0x00, 0x1F, 0x4D, 0x7D, 0x81, 0x20, 0x4D,
	0x00, 0x20, 0x4D, 0x7D, 0x81, 0x23, 0x4D, 0x00, 0x1D, 0x4D, 0x7D, 0x32,
	0x4D, 0x00, 0x0E, 0x46, 0x7D, 0x63, 0x46, 0x00, 0x1D, 0x46, 0x7D, 0x81,
	0x20, 0x46, 0x00, 0x20, 0x4B, 0x7D, 0x82, 0x73, 0x4B, 0x00, 0x0D, 0x46,
	0x7D, 0x36, 0x46, 0x00, 0x0A, 0x48, 0x7D, 0x6B, 0x48, 0x00, 0x15, 0x48,
	0x7D, 0x2F, 0x48, 0x00, 0x11, 0x48, 0x7D, 0x72, 0x48, 0x00, 0x0E, 0x48,
	0x7D, 0x2F, 0x48, 0x00, 0x11, 0x48, 0x7D, 0x75, 0x48, 0x00, 0x0B, 0x46,
	0x7D, 0x2F, 0x46, 0x00, 0x11, 0x44, 0x7D, 0x75, 0x44, 0x00, 0x0B, 0x44,
	0x7D, 0x2E, 0x44, 0x00, 0x12, 0x46, 0x7D, 0x65, 0x46, 0x00, 0x1B, 0x46,
	0x7D, 0x81, 0x20, 0x46, 0x00, 0x20, 0x48, 0x7D, 0x81, 0x73, 0x48, 0x00,
	0x81, 0x0D, 0x46, 0x7D, 0x39, 0x46, 0x00, 0x07, 0x48, 0x7D, 0x75, 0x48,
	0x00, 0x0B, 0x48, 0x7D, 0x30, 0x48, 0x00, 0x10, 0x48, 0x7D, 0x66, 0x48,
	0x00, 0x1A, 0x4D, 0x7D, 0x81, 0x24, 0x4D, 0x00, 0x1C, 0x4D, 0x7D, 0x2E,
	0x4D, 0x00, 0x12, 0x4D, 0x7D, 0x81, 0x1A, 0x4D, 0x00, 0x26, 0x46, 0x7D,
	0x72, 0x46, 0x00, 0x0E, 0x46, 0x7D, 0x2C, 0x46, 0x00, 0x14, 0x46, 0x7D,
	0x5E, 0x46, 0x00, 0x22, 0x4B, 0x7D, 0x81, 0x7E, 0x4B, 0x00, 0x81, 0x02,
	0x44, 0x7D, 0x2D, 0x44, 0x00, 0x13, 0x46, 0x7D, 0x70, 0x46, 0x00, 0x10,
	0x46, 0x7D, 0x30, 0x46, 0x00, 0x10, 0x44, 0x7D, 0x6A, 0x44, 0x00, 0x16,
	0x46, 0x7D, 0x81, 0x29, 0x46, 0x00, 0x17, 0x46, 0x7D, 0x81, 0x2F, 0x46,
	0x00, 0x11, 0x44, 0x7D, 0x2C, 0x44, 0x00, 0x14, 0x46, 0x7D, 0x6A, 0x46,
	0x00, 0x16, 0x46, 0x7D, 0x2F, 0x46, 0x00, 0x11, 0x46, 0x7D, 0x6A, 0x46,
	0x00, 0x16, 0x48, 0x7D, 0x81, 0x29, 0x48, 0x00, 0x17, 0x4B, 0x7D, 0x81,
	0x29, 0x4B, 0x00, 0x17, 0x48, 0x7D, 0x81, 0x1C, 0x48, 0x00, 0x24, 0x46,
	0x7D, 0x2D, 0x46, 0x00, 0x13, 0x46, 0x7D, 0x6D, 0x46, 0x00, 0x13, 0x44,
	0x7D, 0x2A, 0x44, 0x00, 0x16, 0x46, 0x7D, 0x77, 0x46, 0x00, 0x09, 0x48,
	0x7D, 0x83, 0x4A, 0x48, 0x00, 0x82, 0x36, 0x48, 0x7D, 0x2B, 0x48, 0x00,
	0x15, 0x48, 0x7D, 0x74, 0x48, 0x00, 0x0C, 0x46, 0x7D, 0x81, 0x2D, 0x46,
	0x00, 0x13, 0x44, 0x7D, 0x34, 0x44, 0x00, 0x0C, 0x41, 0x7D, 0x82, 0x6B,
	0x41, 0x00, 0x87, 0x15, 0x46, 0x7D, 0x32, 0x46, 0x00, 0x0E, 0x48, 0x7D,
	0x6A, 0x48, 0x00, 0x16, 0x48, 0x7D, 0x34, 0x48, 0x00, 0x0C, 0x48, 0x7D,
	0x6A, 0x48, 0x00, 0x16, 0x4D, 0x7D, 0x83, 0x16, 0x4D, 0x00, 0x2A, 0x46,
	0x7D, 0x6D, 0x46, 0x00, 0x13, 0x46, 0x7D, 0x81, 0x27, 0x46, 0x00, 0x19,
	0x4B, 0x7D, 0x82, 0x4A, 0x4B, 0x00, 0x36, 0x46, 0x7D, 0x34, 0x46, 0x00,
	0x0C, 0x48, 0x7D, 0x71, 0x48, 0x00, 0x0F, 0x48, 0x7D, 0x37, 0x48, 0x00,
	0x09, 0x48, 0x7D, 0x71, 0x48, 0x00, 0x0F, 0x48, 0x7D, 0x81, 0x27, 0x48,
	0x00, 0x19, 0x48, 0x7D, 0x81, 0x2D, 0x48, 0x00, 0x13, 0x44, 0x7D, 0x36,
	0x44, 0x00, 0x0A, 0x46, 0x7D, 0x72, 0x46, 0x00, 0x0E, 0x46, 0x7D, 0x2B,
	0x46, 0x00, 0x15, 0x46, 0x7D, 0x6F, 0x46, 0x00, 0x11, 0x48, 0x7D, 0x82,
	0x03, 0x48, 0x00, 0x7D, 0x46, 0x7D, 0x31, 0x46, 0x00, 0x0F, 0x48, 0x7D,
	0x81, 0x25, 0x48, 0x00, 0x1B, 0x48, 0x7D, 0x74, 0x48, 0x00, 0x0C, 0x4D,
	0x7D, 0x81, 0x22, 0x4D, 0x00, 0x1E, 0x50, 0x7D, 0x81, 0x6F, 0x50, 0x00,
	0x11, 0x4F, 0x7D, 0x81, 0x12, 0x4F, 0x00, 0x0E, 0x4B, 0x7D, 0x81, 0x19,
	0x4B, 0x00, 0x07, 0x48, 0x7D, 0x82, 0x03, 0x48, 0x00, 0x7D, 0x44, 0x7D,
	0x31, 0x44, 0x00, 0x0F, 0x46, 0x7D, 0x81, 0x23, 0x46, 0x00, 0x1D, 0x44,
	0x7D, 0x6C, 0x44, 0x00, 0x14, 0x46, 0x7D, 0x81, 0x23, 0x46, 0x00, 0x1D,
	0x46, 0x7D, 0x81, 0x2C, 0x46, 0x00, 0x14, 0x44, 0x7D, 0x30, 0x44, 0x00,
	0x10, 0x46, 0x7D, 0x68, 0x46, 0x00, 0x18, 0x46, 0x7D, 0x33, 0x46, 0x00,
	0x0D, 0x46, 0x7D, 0x72, 0x46, 0x00, 0x0E, 0x48, 0x7D, 0x81, 0x29, 0x48,
	0x00, 0x17, 0x4B, 0x7D, 0x81, 0x29, 0x4B, 0x00, 0x17, 0x48, 0x7D, 0x81,
	0x1C, 0x48, 0x00, 0x24, 0x46, 0x7D, 0x2D, 0x46, 0x00, 0x13, 0x46, 0x7D,
	0x6D, 0x46, 0x00, 0x13, 0x44, 0x7D, 0x2A, 0x44, 0x00, 0x16, 0x46, 0x7D,
	0x77, 0x46, 0x00, 0x09, 0x48, 0x7D, 0x83, 0x4A, 0x48, 0x00, 0x82, 0x36,
	0x48, 0x7D, 0x2B, 0x48, 0x00, 0x15, 0x48, 0x7D, 0x74, 0x48, 0x00, 0x0C,
	0x46, 0x7D, 0x81, 0x2D, 0x46, 0x00, 0x13, 0x44, 0x7D, 0x34, 0x44, 0x00,
	0x0C, 0x41, 0x7D, 0x82, 0x6B, 0x41, 0x00, 0x87, 0x15, 0x3F, 0x7D, 0x39,
	0x3F, 0x00, 0x07, 0x48, 0x7D, 0x81, 0x2F, 0x48, 0x00, 0x11, 0x49, 0x7D,
	0x6E, 0x49, 0x00, 0x12, 0x4B, 0x7D, 0x82, 0x6A, 0x4B, 0x00, 0x16, 0x48,
	0x7D, 0x36, 0x48, 0x00, 0x0A, 0x4B, 0x7D, 0x81, 0x27, 0x4B, 0x00, 0x19,
	0x4D, 0x7D, 0x6E, 0x4D, 0x00, 0x12, 0x46, 0x7D, 0x83, 0x19, 0x46, 0x00,
	0x27, 0x44, 0x7D, 0x61, 0x44, 0x00, 0x1F, 0x44, 0x7D, 0x1F, 0x44, 0x00,
	0x21, 0x44, 0x7D, 0x61, 0x44, 0x00, 0x1F, 0x44, 0x7D, 0x1F, 0x44, 0x00,
	0x21, 0x44, 0x7D, 0x67, 0x44, 0x00, 0x19, 0x44, 0x7D, 0x20, 0x44, 0x00,
	0x20, 0x44, 0x7D, 0x61, 0x44, 0x00, 0x1F, 0x46, 0x7D, 0x2D, 0x46, 0x00,
	0x13, 0x48, 0x7D, 0x60, 0x48, 0x00, 0x20, 0x4B, 0x7D, 0x81, 0x2D, 0x4B,
	0x00, 0x13, 0x48, 0x7D, 0x81, 0x6C, 0x48, 0x00, 0x14, 0x48, 0x7D, 0x5C,
	0x48, 0x00, 0x24, 0x46, 0x7D, 0x81, 0x74, 0x46, 0x00, 0x0C, 0x44, 0x7D,
	0x53, 0x44, 0x00, 0x2D, 0x44, 0x7D, 0x81, 0x1C, 0x44, 0x00, 0x24, 0x44,
	0x7D, 0x81, 0x21, 0x44, 0x00, 0x1F, 0x46, 0x7D, 0x82, 0x5C, 0x46, 0x00,
	0x24, 0x44, 0x7D, 0x1F, 0x44, 0x00, 0x21, 0x44, 0x7D, 0x64, 0x44, 0x00,
	0x1C, 0x44, 0x7D, 0x1E, 0x44, 0x00, 0x22, 0x44, 0x7D, 0x5B, 0x44, 0x00,
	0x25, 0x44, 0x7D, 0x20, 0x44, 0x00, 0x20, 0x46, 0x7D, 0x6E, 0x46, 0x00,
	0x12, 0x48, 0x7D, 0x81, 0x0F, 0x48, 0x00, 0x31, 0x48, 0x7D, 0x83, 0x10,
	0x48, 0x00, 0x85, 0x70, 0x3F, 0x7D, 0x37, 0x3F, 0x00, 0x09, 0x48, 0x7D,
	0x67, 0x48, 0x00, 0x19, 0x48, 0x7D, 0x2F, 0x48, 0x00, 0x11, 0x49, 0x7D,
	0x71, 0x49, 0x00, 0x0F, 0x4B, 0x7D, 0x82, 0x6A, 0x4B, 0x00, 0x56, 0x4B,
	0x7D, 0x4D, 0x4B, 0x00, 0x33, 0x4D, 0x7D, 0x81, 0x32, 0x4D, 0x00, 0x0E,
	0x46, 0x7D, 0x82, 0x53, 0x46, 0x00, 0x2D, 0x43, 0x7D, 0x3B, 0x43, 0x00,
	0x05, 0x44, 0x7D, 0x5A, 0x44, 0x00, 0x26, 0x44, 0x7D, 0x26, 0x44, 0x00,
	0x1A, 0x44, 0x7D, 0x5F, 0x44, 0x00, 0x21, 0x44, 0x7D, 0x27, 0x44, 0x00,
	0x19, 0x44, 0x7D, 0x5E, 0x44, 0x00, 0x22, 0x44, 0x7D, 0x1D, 0x44, 0x00,
	0x23, 0x44, 0x7D, 0x5A, 0x44, 0x00, 0x26, 0x46, 0x7D, 0x24, 0x46, 0x00,
	0x1C, 0x48, 0x7D, 0x5B, 0x48, 0x00, 0x25, 0x48, 0x7D, 0x2E, 0x48, 0x00,
	0x12, 0x4B, 0x7D, 0x64, 0x4B, 0x00, 0x1C, 0x48, 0x7D, 0x81, 0x6E, 0x48,
	0x00, 0x12, 0x4B, 0x7D, 0x6F, 0x4B, 0x00, 0x11, 0x4B, 0x7D, 0x81, 0x7D,
	0x4B, 0x00, 0x03, 0x49, 0x7D, 0x6B, 0x49, 0x00, 0x15, 0x49, 0x7D, 0x81,
	0x2E, 0x49, 0x00, 0x12, 0x48, 0x7D, 0x81, 0x31, 0x48, 0x00, 0x0F, 0x48,
	0x7D, 0x82, 0x5B, 0x48, 0x00, 0x25, 0x44, 0x7D, 0x31, 0x44, 0x00, 0x0F,
	0x46, 0x7D, 0x67, 0x46, 0x00, 0x19, 0x46, 0x7D, 0x21, 0x46, 0x00, 0x1F,
	0x46, 0x7D, 0x61, 0x46, 0x00, 0x1F, 0x44, 0x7D, 0x2E, 0x44, 0x00, 0x12,
	0x48, 0x7D, 0x69, 0x48, 0x00, 0x17, 0x44, 0x7D, 0x81, 0x10, 0x44, 0x00,
	0x30, 0x46, 0x7D, 0x83, 0x33, 0x46, 0x00, 0x83, 0x0D, 0x4B, 0x7D, 0x81,
	0x46, 0x4B, 0x00, 0x81, 0x3A, 0x48, 0x7D, 0x73, 0x48, 0x00, 0x86, 0x0D,
	0x48, 0x7D, 0x3C, 0x48, 0x00, 0x04, 0x49, 0x7D, 0x5B, 0x49, 0x00, 0x25,
	0x4B, 0x7D, 0x81, 0x2D, 0x4B, 0x00, 0x13, 0x49, 0x7D, 0x81, 0x30, 0x49,
	0x00, 0x10, 0x46, 0x7D, 0x17, 0x46, 0x00, 0x29, 0x48, 0x7D, 0x68, 0x48,
	0x00, 0x18, 0x4D, 0x7D, 0x81, 0x21, 0x4D, 0x00, 0x1F, 0x48, 0x7D, 0x5B,
	0x48, 0x00, 0x83, 0x65, 0x48, 0x7D, 0x2F, 0x48, 0x00, 0x11, 0x49, 0x7D,
	0x60, 0x49, 0x00, 0x20, 0x4B, 0x7D, 0x81, 0x26, 0x4B, 0x00, 0x1A, 0x49,
	0x7D, 0x81, 0x29, 0x49, 0x00, 0x17, 0x48, 0x7D, 0x1B, 0x48, 0x00, 0x25,
	0x4D, 0x7D, 0x5D, 0x4D, 0x00, 0x23, 0x48, 0x7D, 0x63, 0x48, 0x00, 0x5D,
	0x46, 0x7D, 0x81, 0x2C, 0x46, 0x00, 0x83, 0x54, 0x48, 0x7D, 0x53, 0x48,
	0x00, 0x6D, 0x46, 0x7D, 0x79, 0x46, 0x00, 0x07, 0x44, 0x7D, 0x35, 0x44,
	0x00, 0x0B, 0x41, 0x7D, 0x67, 0x41, 0x00, 0x19, 0x41, 0x7D, 0x81, 0x71,
	0x41, 0x00, 0x8A, 0x0F, 0x46, 0x7D, 0x2C, 0x46, 0x00, 0x14, 0x48, 0x7D,
	0x51, 0x48, 0x00, 0x2F, 0x48, 0x7D, 0x81, 0x25, 0x48, 0x00, 0x1B, 0x4D,
	0x7D, 0x81, 0x2B, 0x4D, 0x00, 0x15, 0x4D, 0x7D, 0x81, 0x64, 0x4D, 0x00,
	0x1C, 0x46, 0x7D, 0x81, 0x1E, 0x46, 0x00, 0x22, 0x46, 0x7D, 0x68, 0x46,
	0x00, 0x18, 0x4B, 0x7D, 0x81, 0x70, 0x4B, 0x00, 0x81, 0x10, 0x46, 0x7D,
	0x36, 0x46, 0x00, 0x0A, 0x48, 0x7D, 0x65, 0x48, 0x00, 0x1B, 0x48, 0x7D,
	0x2C, 0x48, 0x00, 0x14, 0x48, 0x7D, 0x6D, 0x48, 0x00, 0x13, 0x48, 0x7D,
	0x81, 0x6A, 0x48, 0x00, 0x81, 0x56, 0x46, 0x7D, 0x65, 0x46, 0x00, 0x1B,
	0x46, 0x7D, 0x2C, 0x46, 0x00, 0x14, 0x46, 0x7D, 0x6D, 0x46, 0x00, 0x13,
	0x48, 0x7D, 0x81, 0x6A, 0x48, 0x00, 0x81, 0x16, 0x46, 0x7D, 0x32, 0x46,
	0x00, 0x0E, 0x48, 0x7D, 0x6C, 0x48, 0x00, 0x14, 0x48, 0x7D, 0x28, 0x48,
	0x00, 0x18, 0x48, 0x7D, 0x6A, 0x48, 0x00, 0x16, 0x48, 0x7D, 0x2A, 0x48,
	0x00, 0x16, 0x4D, 0x7D, 0x81, 0x33, 0x4D, 0x00, 0x0D, 0x50, 0x7D, 0x7A,
	0x50, 0x00, 0x46, 0x4F, 0x7D, 0x81, 0x17, 0x4F, 0x00, 0x09, 0x4B, 0x7D,
	0x81, 0x15, 0x4B, 0x00, 0x0B, 0x48, 0x7D, 0x82, 0x41, 0x48, 0x00, 0x3F,
	0x44, 0x7D, 0x36, 0x44, 0x00, 0x0A, 0x46, 0x7D, 0x81, 0x24, 0x46, 0x00,
	0x1C, 0x44, 0x7D, 0x5B, 0x44, 0x00, 0x25, 0x46, 0x7D, 0x81, 0x0D, 0x46,
	0x00, 0x33, 0x46, 0x7D, 0x81, 0x17, 0x46, 0x00, 0x29, 0x44, 0x7D, 0x38,
	0x44, 0x00, 0x08, 0x46, 0x7D, 0x65, 0x46, 0x00, 0x1B, 0x46, 0x7D, 0x28,
	0x46, 0x00, 0x18, 0x46, 0x7D, 0x66, 0x46, 0x00, 0x1A, 0x48, 0x7D, 0x81,
	0x22, 0x48, 0x00, 0x1E, 0x4B, 0x7D, 0x81, 0x29, 0x4B, 0x00, 0x17, 0x48,
	0x7D, 0x81, 0x1C, 0x48, 0x00, 0x24, 0x46, 0x7D, 0x2D, 0x46, 0x00, 0x13,
	0x46, 0x7D, 0x6D, 0x46, 0x00, 0x13, 0x44, 0x7D, 0x2A, 0x44, 0x00, 0x16,
	0x46, 0x7D, 0x77, 0x46, 0x00, 0x09, 0x48, 0x7D, 0x83, 0x4A, 0x48, 0x00,
	0x82, 0x36, 0x48, 0x7D, 0x2B, 0x48, 0x00, 0x15, 0x48, 0x7D, 0x74, 0x48,
	0x00, 0x0C, 0x46, 0x7D, 0x81, 0x2D, 0x46, 0x00, 0x13, 0x44, 0x7D, 0x34,
	0x44, 0x00, 0x0C, 0x41, 0x7D, 0x82, 0x6B, 0x41, 0x00, 0x89, 0x15, 0x48,
	0x7D, 0x82, 0x62, 0x48, 0x00, 0x1E, 0x49, 0x7D, 0x81, 0x2D, 0x49, 0x00,
	0x13, 0x49, 0x7D, 0x82, 0x38, 0x49, 0x00, 0x08, 0x48, 0x7D, 0x82, 0x7B,
	0x48, 0x00, 0x45, 0x48, 0x7D, 0x81, 0x24, 0x48, 0x00, 0x1C, 0x46, 0x7D,
	0x81, 0x25, 0x46, 0x00, 0x1B, 0x46, 0x7D, 0x81, 0x24, 0x46, 0x00, 0x1C,
	0x44, 0x7D, 0x71, 0x44, 0x00, 0x0F, 0x46, 0x7D, 0x81, 0x3B, 0x46, 0x00,
	0x05, 0x44, 0x7D, 0x3D, 0x44, 0x00, 0x03, 0x41, 0x7D, 0x83, 0x09, 0x41,
	0x00, 0x82, 0x77, 0x46, 0x7D, 0x82, 0x77, 0x46, 0x00, 0x09, 0x48, 0x7D,
	0x81, 0x20, 0x48, 0x00, 0x20, 0x48, 0x7D, 0x82, 0x33, 0x48, 0x00, 0x0D,
	0x46, 0x7D, 0x82, 0x54, 0x46, 0x00, 0x6C, 0x44, 0x7D, 0x78, 0x44, 0x00,
	0x48, 0x44, 0x7D, 0x76, 0x44, 0x00, 0x4A, 0x46, 0x7D, 0x81, 0x23, 0x46,
	0x00, 0x1D, 0x44, 0x7D, 0x81, 0x07, 0x44, 0x00, 0x81, 0x39, 0x48, 0x7D,
	0x22, 0x48, 0x00, 0x1E, 0x48, 0x7D, 0x6D, 0x48, 0x00, 0x13, 0x46, 0x7D,
	0x20, 0x46, 0x00, 0x20, 0x48, 0x7D, 0x64, 0x48, 0x00, 0x1C, 0x46, 0x7D,
	0x20, 0x46, 0x00, 0x20, 0x48, 0x7D, 0x6E, 0x48, 0x00, 0x12, 0x46, 0x7D,
	0x24, 0x46, 0x00, 0x1C, 0x48, 0x7D, 0x63, 0x48, 0x00, 0x1D, 0x48, 0x7D,
	0x1E, 0x48, 0x00, 0x22, 0x48, 0x7D, 0x66, 0x48, 0x00, 0x1A, 0x4D, 0x7D,
	0x81, 0x00, 0x4D, 0x00, 0x40, 0x4D, 0x7D, 0x81, 0x28, 0x4D, 0x00, 0x18,
	0x4D, 0x7D, 0x26, 0x4D, 0x00, 0x1A, 0x46, 0x7D, 0x63, 0x46, 0x00, 0x1D,
	0x46, 0x7D, 0x19, 0x46, 0x00, 0x27, 0x46, 0x7D, 0x5B, 0x46, 0x00, 0x25,
	0x4B, 0x7D, 0x82, 0x7A, 0x4B, 0x00, 0x46, 0x48, 0x7D, 0x64, 0x48, 0x00,
	0x1C, 0x48, 0x7D, 0x1E, 0x48, 0x00, 0x22, 0x48, 0x7D, 0x62, 0x48, 0x00,
	0x1E, 0x48, 0x7D, 0x1F, 0x48, 0x00, 0x21, 0x48, 0x7D, 0x52, 0x48, 0x00,
	0x2E, 0x46, 0x7D, 0x25, 0x46, 0x00, 0x1B, 0x44, 0x7D, 0x61, 0x44, 0x00,
	0x1F, 0x44, 0x7D, 0x18, 0x44, 0x00, 0x28, 0x46, 0x7D, 0x53, 0x46, 0x00,
	0x2D, 0x46, 0x7D, 0x7C, 0x46, 0x00, 0x44, 0x48, 0x7D, 0x81, 0x07, 0x48,
	0x00, 0x39, 0x4B, 0x7D, 0x81, 0x29, 0x4B, 0x00, 0x17, 0x47, 0x7D, 0x81,
	0x1C, 0x47, 0x00, 0x24, 0x46, 0x7D, 0x2D, 0x46, 0x00, 0x13, 0x46, 0x7D,
	0x6D, 0x46, 0x00, 0x13, 0x44, 0x7D, 0x2A, 0x44, 0x00, 0x16, 0x46, 0x7D,
	0x77, 0x46, 0x00, 0x09, 0x48, 0x7D, 0x83, 0x4A, 0x48, 0x00, 0x82, 0x36,
	0x48, 0x7D, 0x2B, 0x48, 0x00, 0x15, 0x48, 0x7D, 0x74, 0x48, 0x00, 0x0C,
	0x46, 0x7D, 0x81, 0x2D, 0x46, 0x00, 0x13, 0x44, 0x7D, 0x34, 0x44, 0x00,
	0x0C, 0x41, 0x7D, 0x82, 0x6B, 0x41, 0x00, 0x87, 0x15, 0x3F, 0x7D, 0x39,
	0x3F, 0x00, 0x07, 0x48, 0x7D, 0x81, 0x2F, 0x48, 0x00, 0x11, 0x49, 0x7D,
	0x6E, 0x49, 0x00, 0x12, 0x4B, 0x7D, 0x82, 0x6A, 0x4B, 0x00, 0x16, 0x48,
	0x7D, 0x36, 0x48, 0x00, 0x0A, 0x4B, 0x7D, 0x81, 0x27, 0x4B, 0x00, 0x19,
	0x4D, 0x7D, 0x6E, 0x4D, 0x00, 0x12, 0x46, 0x7D, 0x83, 0x19, 0x46, 0x00,
	0x27, 0x44, 0x7D, 0x61, 0x44, 0x00, 0x1F, 0x44, 0x7D, 0x1F, 0x44, 0x00,
	0x21, 0x44, 0x7D, 0x61, 0x44, 0x00, 0x1F, 0x44, 0x7D, 0x1F, 0x44, 0x00,
	0x21, 0x44, 0x7D, 0x67, 0x44, 0x00, 0x19, 0x44, 0x7D, 0x20, 0x44, 0x00,
	0x20, 0x44, 0x7D, 0x61, 0x44, 0x00, 0x1F, 0x46, 0x7D, 0x2D, 0x46, 0x00,
	0x13, 0x48, 0x7D, 0x60, 0x48, 0x00, 0x20, 0x4B, 0x7D, 0x81, 0x2D, 0x4B,
	0x00, 0x13, 0x48, 0x7D, 0x81, 0x6C, 0x48, 0x00, 0x14, 0x48, 0x7D, 0x5C,
	0x48, 0x00, 0x24, 0x46, 0x7D, 0x81, 0x74, 0x46, 0x00, 0x0C, 0x44, 0x7D,
	0x53, 0x44, 0x00, 0x2D, 0x44, 0x7D, 0x81, 0x1C, 0x44, 0x00, 0x24, 0x44,
	0x7D, 0x81, 0x21, 0x44, 0x00, 0x1F, 0x46, 0x7D, 0x82, 0x5C, 0x46, 0x00,
	0x24, 0x44, 0x7D, 0x1F, 0x44, 0x00, 0x21, 0x44, 0x7D, 0x64, 0x44, 0x00,
	0x1C, 0x44, 0x7D, 0x1E, 0x44, 0x00, 0x22, 0x44, 0x7D, 0x5B, 0x44, 0x00,
	0x25, 0x44, 0x7D, 0x20, 0x44, 0x00, 0x20, 0x46, 0x7D, 0x6E, 0x46, 0x00,
	0x12, 0x48, 0x7D, 0x81, 0x0F, 0x48, 0x00, 0x31, 0x48, 0x7D, 0x83, 0x10,
	0x48, 0x00, 0x85, 0x70, 0x3F, 0x7D, 0x37, 0x3F, 0x00, 0x09, 0x48, 0x7D,
	0x67, 0x48, 0x00, 0x19, 0x48, 0x7D, 0x2F, 0x48, 0x00, 0x11, 0x49, 0x7D,
	0x71, 0x49, 0x00, 0x0F, 0x4B, 0x7D, 0x82, 0x6A, 0x4B, 0x00, 0x56, 0x4B,
	0x7D, 0x4D, 0x4B, 0x00, 0x33, 0x4D, 0x7D, 0x81, 0x32, 0x4D, 0x00, 0x0E,
	0x46, 0x7D, 0x82, 0x53, 0x46, 0x00, 0x2D, 0x43, 0x7D, 0x3B, 0x43, 0x00,
	0x05, 0x44, 0x7D, 0x5A, 0x44, 0x00, 0x26, 0x44, 0x7D, 0x26, 0x44, 0x00,
	0x1A, 0x44, 0x7D, 0x5F, 0x44, 0x00, 0x21, 0x44, 0x7D, 0x27, 0x44, 0x00,
	0x19, 0x44, 0x7D, 0x5E, 0x44, 0x00, 0x22, 0x44, 0x7D, 0x1D, 0x44, 0x00,
	0x23, 0x44, 0x7D, 0x5A, 0x44, 0x00, 0x26, 0x46, 0x7D, 0x24, 0x46, 0x00,
	0x1C, 0x48, 0x7D, 0x5B, 0x48, 0x00, 0x25, 0x48, 0x7D, 0x2E, 0x48, 0x00,
	0x12, 0x4B, 0x7D, 0x64, 0x4B, 0x00, 0x1C, 0x48, 0x7D, 0x81, 0x6E, 0x48,
	0x00, 0x12, 0x4B, 0x7D, 0x6F, 0x4B, 0x00, 0x11, 0x4B, 0x7D, 0x81, 0x7D,
	0x4B, 0x00, 0x03, 0x49, 0x7D, 0x6B, 0x49, 0x00, 0x15, 0x49, 0x7D, 0x81,
	0x2E, 0x49, 0x00, 0x12, 0x48, 0x7D, 0x81, 0x31, 0x48, 0x00, 0x0F, 0x48,
	0x7D, 0x82, 0x5B, 0x48, 0x00, 0x25, 0x44, 0x7D, 0x31, 0x44, 0x00, 0x0F,
	0x46, 0x7D, 0x67, 0x46, 0x00, 0x19, 0x46, 0x7D, 0x21, 0x46, 0x00, 0x1F,
	0x46, 0x7D, 0x61, 0x46, 0x00, 0x1F, 0x44, 0x7D, 0x2E, 0x44, 0x00, 0x12,
	0x48, 0x7D, 0x69, 0x48, 0x00, 0x17, 0x44, 0x7D, 0x81, 0x10, 0x44, 0x00,
	0x30, 0x46, 0x7D, 0x81, 0x2F, 0x46, 0x00, 0x11, 0x4B, 0x7D, 0x34, 0x4B,
	0x00, 0x0C, 0x4B, 0x7D, 0x6D, 0x4B, 0x00, 0x13, 0x4D, 0x7D, 0x81, 0x1F,
	0x4D, 0x00, 0x21, 0x4B, 0x7D, 0x81, 0x26, 0x4B, 0x00, 0x1A, 0x4D, 0x7D,
	0x81, 0x26, 0x4D, 0x00, 0x1A, 0x4B, 0x7D, 0x81, 0x25, 0x4B, 0x00, 0x1B,
	0x49, 0x7D, 0x29, 0x49, 0x00, 0x17, 0x48, 0x7D, 0x81, 0x2F, 0x48, 0x00,
	0x11, 0x49, 0x7D, 0x6E, 0x49, 0x00, 0x12, 0x4B, 0x7D, 0x82, 0x6A, 0x4B,
	0x00, 0x16, 0x48, 0x7D, 0x36, 0x48, 0x00, 0x0A, 0x4B, 0x7D, 0x81, 0x27,
	0x4B, 0x00, 0x19, 0x4D, 0x7D, 0x6E, 0x4D, 0x00, 0x12, 0x46, 0x7D, 0x83,
	0x19, 0x46, 0x00, 0x27, 0x44, 0x7D, 0x61, 0x44, 0x00, 0x1F, 0x44, 0x7D,
	0x1F, 0x44, 0x00, 0x21, 0x44, 0x7D, 0x61, 0x44, 0x00, 0x1F, 0x44, 0x7D,
	0x1F, 0x44, 0x00, 0x21, 0x44, 0x7D, 0x67, 0x44, 0x00, 0x19, 0x44, 0x7D,
	0x20, 0x44, 0x00, 0x20, 0x44, 0x7D, 0x61, 0x44, 0x00, 0x1F, 0x46, 0x7D,
	0x2D, 0x46, 0x00, 0x13, 0x48, 0x7D, 0x60, 0x48, 0x00, 0x20, 0x4B, 0x7D,
	0x81, 0x2D, 0x4B, 0x00, 0x13, 0x48, 0x7D, 0x81, 0x6C, 0x48, 0x00, 0x14,
	0x4B, 0x7D, 0x5C, 0x4B, 0x00, 0x24, 0x4B, 0x7D, 0x81, 0x74, 0x4B, 0x00,
	0x0C, 0x49, 0x7D, 0x53, 0x49, 0x00, 0x2D, 0x49, 0x7D, 0x81, 0x1C, 0x49,
	0x00, 0x24, 0x48, 0x7D, 0x81, 0x21, 0x48, 0x00, 0x1F, 0x46, 0x7D, 0x82,
	0x5C, 0x46, 0x00, 0x82, 0x24, 0x4B, 0x7D, 0x5C, 0x4B, 0x00, 0x24, 0x4D,
	0x7D, 0x81, 0x74, 0x4D, 0x00, 0x0C, 0x4B, 0x7D, 0x53, 0x4B, 0x00, 0x2D,
	0x4B, 0x7D, 0x81, 0x1C, 0x4B, 0x00, 0x24, 0x48, 0x7D, 0x81, 0x21, 0x48,
	0x00, 0x1F, 0x46, 0x7D, 0x82, 0x5C, 0x46, 0x00, 0x82, 0x24, 0x4B, 0x7D,
	0x5C, 0x4B, 0x00, 0x24, 0x4D, 0x7D, 0x81, 0x74, 0x4D, 0x00, 0x0C, 0x4B,
	0x7D, 0x53, 0x4B, 0x00, 0x2D, 0x50, 0x7D, 0x81, 0x1C, 0x50, 0x00, 0x24,
	0x48, 0x7D, 0x81, 0x21, 0x48, 0x00, 0x1F, 0x46, 0x7D, 0x82, 0x5C, 0x46,
	0x00, 0x24, 0x46, 0x7D, 0x1F, 0x46, 0x00, 0x21, 0x46, 0x7D, 0x64, 0x46,
	0x00, 0x1C, 0x46, 0x7D, 0x1E, 0x46, 0x00, 0x22, 0x46, 0x7D, 0x5B, 0x46,
	0x00, 0x25, 0x48, 0x7D, 0x20, 0x48, 0x00, 0x20, 0x46, 0x7D, 0x6E, 0x46,
	0x00, 0x12, 0x44, 0x7D, 0x81, 0x0F, 0x44, 0x00, 0x31, 0x44, 0x7D, 0x84,
	0x50, 0x44, 0x00, 0x00, 0xFF, 0x2F, 0x00, 0x4D, 0x54, 0x72, 0x6B, 0x00,
	0x00, 0x00, 0xFF, 0x1C, 0xB1, 0x79, 0x00, 0x10, 0x00, 0x00, 0x81, 0x10,
	0xC1, 0x05, 0x60, 0xB1, 0x07, 0x6F, 0x31, 0x01, 0x00, 0x03, 0x02, 0x00,
	0x0A, 0x05, 0x00, 0x22, 0x0A, 0x5A, 0x02, 0x0B, 0x7F, 0x02, 0x40, 0x00,
	0x05, 0x41, 0x00, 0x57, 0x5B, 0x50, 0x60, 0x5D, 0x46, 0x30, 0xE1, 0x00,
	0x40, 0x30, 0xB1, 0x65, 0x00, 0x00, 0x64, 0x00, 0x30, 0x06, 0x02, 0x82,
	0x8C, 0x70, 0x91, 0x4F, 0x6D, 0x6F, 0x4F, 0x00, 0x11, 0x4F, 0x6D, 0x81,
	0x7D, 0x4F, 0x00, 0x03, 0x4D, 0x6D, 0x6B, 0x4D, 0x00, 0x15, 0x4D, 0x6D,
	0x81, 0x2E, 0x4D, 0x00, 0x12, 0x4B, 0x6D, 0x81, 0x31, 0x4B, 0x00, 0x0F,
	0x4A, 0x6D, 0x82, 0x5B, 0x4A, 0x00, 0x81, 0x89, 0x25, 0x4C, 0x6D, 0x82,
	0x62, 0x4C, 0x00, 0x1E, 0x4D, 0x6D, 0x81, 0x2D, 0x4D, 0x00, 0x13, 0x4D,
	0x6D, 0x82, 0x38, 0x4D, 0x00, 0x08, 0x4C, 0x6D, 0x82, 0x7B, 0x4C, 0x00,
	0x8E, 0x05, 0x4F, 0x6D, 0x82, 0x77, 0x4F, 0x00, 0x09, 0x50, 0x6D, 0x81,
	0x20, 0x50, 0x00, 0x20, 0x50, 0x6D, 0x82, 0x33, 0x50, 0x00, 0x0D, 0x4F,
	0x6D, 0x82, 0x54, 0x4F, 0x00, 0x81, 0x83, 0x2C, 0x4F, 0x6D, 0x6F, 0x4F,
	0x00, 0x11, 0x4F, 0x6D, 0x81, 0x7D, 0x4F, 0x00, 0x03, 0x4D, 0x6D, 0x6B,
	0x4D, 0x00, 0x15, 0x4D, 0x6D, 0x81, 0x2E, 0x4D, 0x00, 0x12, 0x4B, 0x6D,
	0x81, 0x31, 0x4B, 0x00, 0x0F, 0x4A, 0x6D, 0x82, 0x5B, 0x4A, 0x00, 0xC8,
	0x25, 0x46, 0x6D, 0x35, 0x46, 0x00, 0x0B, 0x49, 0x6D, 0x6D, 0x49, 0x00,
	0x13, 0x49, 0x6D, 0x33, 0x49, 0x00, 0x0D, 0x49, 0x6D, 0x70, 0x49, 0x00,
	0x10, 0x4B, 0x6D, 0x34, 0x4B, 0x00, 0x0C, 0x49, 0x6D, 0x6E, 0x49, 0x00,
	0x12, 0x48, 0x6D, 0x81, 0x2E, 0x48, 0x00, 0x12, 0x48, 0x6D, 0x84, 0x50,
	0x48, 0x00, 0x00, 0xFF, 0x2F, 0x00, 0x4D, 0x54, 0x72, 0x6B, 0x00, 0x00,
	0x07, 0xA3, 0x19, 0xB2, 0x79, 0x00, 0x10, 0x00, 0x00, 0x81, 0x10, 0xC2,
	0x20, 0x60, 0xB2, 0x07, 0x63, 0x31, 0x01, 0x00, 0x03, 0x02, 0x00, 0x0A,
	0x05, 0x00, 0x22, 0x0A, 0x40, 0x02, 0x0B, 0x7F, 0x02, 0x40, 0x00, 0x05,
	0x41, 0x00, 0x57, 0x5B, 0x46, 0x60, 0x5D, 0x3C, 0x30, 0xE2, 0x00, 0x40,
	0x30, 0xB2, 0x65, 0x00, 0x00, 0x64, 0x00, 0x30, 0x06, 0x02, 0x86, 0x30,
	0x92, 0x29, 0x72, 0x5A, 0x29, 0x00, 0x82, 0x26, 0x29, 0x72, 0x5D, 0x29,
	0x00, 0x82, 0x23, 0x24, 0x72, 0x5A, 0x24, 0x00, 0x82, 0x26, 0x24, 0x72,
	0x5D, 0x24, 0x00, 0x82, 0x23, 0x29, 0x72, 0x5A, 0x29, 0x00, 0x82, 0x26,
	0x29, 0x72, 0x5D, 0x29, 0x00, 0x82, 0x23, 0x24, 0x72, 0x5A, 0x24, 0x00,
	0x82, 0x26, 0x24, 0x72, 0x5D, 0x24, 0x00, 0x63, 0x23, 0x72, 0x5D, 0x23,
	0x00, 0x63, 0x22, 0x72, 0x5A, 0x22, 0x00, 0x82, 0x26, 0x22, 0x72, 0x5D,
	0x22, 0x00, 0x82, 0x23, 0x24, 0x72, 0x5A, 0x24, 0x00, 0x82, 0x26, 0x24,
	0x72, 0x5D, 0x24, 0x00, 0x82, 0x23, 0x29, 0x72, 0x5A, 0x29, 0x00, 0x82,
	0x26, 0x24, 0x72, 0x5D, 0x24, 0x00, 0x63, 0x27, 0x72, 0x5D, 0x27, 0x00,
	0x63, 0x29, 0x72, 0x5A, 0x29, 0x00, 0x85, 0x26, 0x29, 0x72, 0x5A, 0x29,
	0x00, 0x82, 0x26, 0x29, 0x72, 0x5D, 0x29, 0x00, 0x82, 0x23, 0x24, 0x72,
	0x5A, 0x24, 0x00, 0x82, 0x26, 0x24, 0x72, 0x5D, 0x24, 0x00, 0x82, 0x23,
	0x29, 0x72, 0x5A, 0x29, 0x00, 0x82, 0x26, 0x29, 0x72, 0x5D, 0x29, 0x00,
	0x82, 0x23, 0x24, 0x72, 0x5A, 0x24, 0x00, 0x82, 0x26, 0x24, 0x72, 0x5D,
	0x24, 0x00, 0x82, 0x23, 0x29, 0x72, 0x5A, 0x29, 0x00, 0x82, 0x26, 0x29,
	0x72, 0x5D, 0x29, 0x00, 0x82, 0x23, 0x24, 0x72, 0x5A, 0x24, 0x00, 0x82,
	0x26, 0x24, 0x72, 0x5D, 0x24, 0x00, 0x82, 0x23, 0x29, 0x72, 0x5A, 0x29,
	0x00, 0x82, 0x26, 0x29, 0x72, 0x5D, 0x29, 0x00, 0x82, 0x23, 0x24, 0x72,
	0x5A, 0x24, 0x00, 0x82, 0x26, 0x24, 0x72, 0x5D, 0x24, 0x00, 0x82, 0x23,
	0x22, 0x72, 0x5A, 0x22, 0x00, 0x82, 0x26, 0x22, 0x72, 0x5D, 0x22, 0x00,
	0x82, 0x23, 0x24, 0x72, 0x5A, 0x24, 0x00, 0x82, 0x26, 0x24, 0x72, 0x5D,
	0x24, 0x00, 0x82, 0x23, 0x29, 0x72, 0x5A, 0x29, 0x00, 0x82, 0x26, 0x24,
	0x72, 0x5D, 0x24, 0x00, 0x63, 0x27, 0x72, 0x5D, 0x27, 0x00, 0x63, 0x29,
	0x72, 0x5A, 0x29, 0x00, 0x85, 0x26, 0x29, 0x72, 0x5A, 0x29, 0x00, 0x82,
	0x26, 0x29, 0x72, 0x5D, 0x29, 0x00, 0x82, 0x23, 0x24, 0x72, 0x5A, 0x24,
	0x00, 0x82, 0x26, 0x24, 0x72, 0x5D, 0x24, 0x00, 0x82, 0x23, 0x29, 0x72,
	0x5A, 0x29, 0x00, 0x82, 0x26, 0x29, 0x72, 0x5D, 0x29, 0x00, 0x82, 0x23,
	0x24, 0x72, 0x5A, 0x24, 0x00, 0x82, 0x26, 0x24, 0x72, 0x5D, 0x24, 0x00,
	0x82, 0x23, 0x29, 0x72, 0x5A, 0x29, 0x00, 0x82, 0x26, 0x29, 0x72, 0x5D,
	0x29, 0x00, 0x82, 0x23, 0x24, 0x72, 0x5A, 0x24, 0x00, 0x82, 0x26, 0x24,
	0x72, 0x5D, 0x24, 0x00, 0x82, 0x23, 0x29, 0x72, 0x5A, 0x29, 0x00, 0x82,
	0x26, 0x29, 0x72, 0x5D, 0x29, 0x00, 0x82, 0x23, 0x24, 0x72, 0x5A, 0x24,
	0x00, 0x82, 0x26, 0x24, 0x72, 0x5D, 0x24, 0x00, 0x82, 0x23, 0x22, 0x72,
	0x5A, 0x22, 0x00, 0x82, 0x26, 0x22, 0x72, 0x5D, 0x22, 0x00, 0x82, 0x23,
	0x24, 0x72, 0x5A, 0x24, 0x00, 0x82, 0x26, 0x24, 0x72, 0x5D, 0x24, 0x00,
	0x82, 0x23, 0x29, 0x72, 0x5A, 0x29, 0x00, 0x82, 0x26, 0x24, 0x72, 0x5D,
	0x24, 0x00, 0x63, 0x27, 0x72, 0x5D, 0x27, 0x00, 0x63, 0x29, 0x72, 0x5A,
	0x29, 0x00, 0x85, 0x26, 0x2C, 0x7F, 0x82, 0x2C, 0x2C, 0x00, 0x54, 0x27,
	0x7F, 0x82, 0x16, 0x27, 0x00, 0x2A, 0x2C, 0x7F, 0x1E, 0x2C, 0x00, 0x22,
	0x27, 0x7F, 0x82, 0x16, 0x27, 0x00, 0x2A, 0x27, 0x7F, 0x1E, 0x27, 0x00,
	0x22, 0x2E, 0x7F, 0x82, 0x2C, 0x2E, 0x00, 0x54, 0x29, 0x7F, 0x82, 0x2C,
	0x29, 0x00, 0x54, 0x30, 0x7F, 0x82, 0x2C, 0x30, 0x00, 0x54, 0x24, 0x7F,
	0x82, 0x16, 0x24, 0x00, 0x2A, 0x24, 0x7F, 0x26, 0x24, 0x00, 0x1A, 0x2B,
	0x7F, 0x81, 0x1C, 0x2B, 0x00, 0x24, 0x24, 0x7F, 0x81, 0x1C, 0x24, 0x00,
	0x24, 0x25, 0x7F, 0x82, 0x2C, 0x25, 0x00, 0x54, 0x2C, 0x7F, 0x82, 0x11,
	0x2C, 0x00, 0x2F, 0x25, 0x7F, 0x31, 0x25, 0x00, 0x0F, 0x27, 0x7F, 0x82,
	0x2C, 0x27, 0x00, 0x54, 0x22, 0x7F, 0x82, 0x2C, 0x22, 0x00, 0x54, 0x2C,
	0x7F, 0x82, 0x2C, 0x2C, 0x00, 0x54, 0x27, 0x7F, 0x82, 0x11, 0x27, 0x00,
	0x2F, 0x2C, 0x7F, 0x25, 0x2C, 0x00, 0x1B, 0x27, 0x7F, 0x69, 0x27, 0x00,
	0x17, 0x27, 0x7F, 0x2A, 0x27, 0x00, 0x16, 0x25, 0x7F, 0x6B, 0x25, 0x00,
	0x55, 0x24, 0x7F, 0x6B, 0x24, 0x00, 0x55, 0x22, 0x7F, 0x6B, 0x22, 0x00,
	0x55, 0x2C, 0x7F, 0x82, 0x2C, 0x2C, 0x00, 0x54, 0x27, 0x7F, 0x82, 0x16,
	0x27, 0x00, 0x2A, 0x2C, 0x7F, 0x1E, 0x2C, 0x00, 0x22, 0x27, 0x7F, 0x82,
	0x16, 0x27, 0x00, 0x2A, 0x27, 0x7F, 0x1E, 0x27, 0x00, 0x22, 0x2E, 0x7F,
	0x81, 0x1C, 0x2E, 0x00, 0x24, 0x27, 0x7F, 0x81, 0x1C, 0x27, 0x00, 0x24,
	0x29, 0x7F, 0x82, 0x2C, 0x29, 0x00, 0x54, 0x30, 0x7F, 0x82, 0x2C, 0x30,
	0x00, 0x54, 0x24, 0x7F, 0x82, 0x16, 0x24, 0x00, 0x2A, 0x24, 0x7F, 0x26,
	0x24, 0x00, 0x1A, 0x2B, 0x7F, 0x81, 0x1C, 0x2B, 0x00, 0x24, 0x24, 0x7F,
	0x81, 0x1C, 0x24, 0x00, 0x24, 0x25, 0x7F, 0x82, 0x16, 0x25, 0x00, 0x2A,
	0x25, 0x7F, 0x26, 0x25, 0x00, 0x1A, 0x2C, 0x7F, 0x81, 0x1C, 0x2C, 0x00,
	0x24, 0x25, 0x7F, 0x81, 0x1C, 0x25, 0x00, 0x24, 0x32, 0x7F, 0x82, 0x16,
	0x32, 0x00, 0x2A, 0x26, 0x7F, 0x1E, 0x26, 0x00, 0x22, 0x22, 0x7F, 0x82,
	0x5C, 0x22, 0x00, 0x24, 0x27, 0x7F, 0x82, 0x16, 0x27, 0x00, 0x2A, 0x27,
	0x7F, 0x26, 0x27, 0x00, 0x1A, 0x22, 0x7F, 0x82, 0x5C, 0x22, 0x00, 0x24,
	0x1B, 0x7F, 0x84, 0x40, 0x25, 0x77, 0x81, 0x1C, 0x1B, 0x00, 0x00, 0x25,
	0x00, 0x24, 0x29, 0x72, 0x5A, 0x29, 0x00, 0x82, 0x26, 0x29, 0x72, 0x82,
	0x1D, 0x29, 0x00, 0x63, 0x24, 0x72, 0x5A, 0x24, 0x00, 0x82, 0x26, 0x24,
	0x72, 0x82, 0x1D, 0x24, 0x00, 0x63, 0x29, 0x72, 0x5A, 0x29, 0x00, 0x82,
	0x26, 0x29, 0x72, 0x82, 0x1D, 0x29, 0x00, 0x63, 0x24, 0x72, 0x5A, 0x24,
	0x00, 0x82, 0x26, 0x24, 0x72, 0x81, 0x3D, 0x24, 0x00, 0x03, 0x23, 0x72,
	0x81, 0x3D, 0x23, 0x00, 0x03, 0x22, 0x72, 0x5A, 0x22, 0x00, 0x82, 0x26,
	0x22, 0x72, 0x82, 0x1D, 0x22, 0x00, 0x63, 0x24, 0x72, 0x5A, 0x24, 0x00,
	0x82, 0x26, 0x24, 0x72, 0x82, 0x1D, 0x24, 0x00, 0x63, 0x29, 0x72, 0x5A,
	0x29, 0x00, 0x82, 0x26, 0x24, 0x72, 0x5D, 0x24, 0x00, 0x63, 0x27, 0x72,
	0x81, 0x0D, 0x27, 0x00, 0x33, 0x29, 0x72, 0x5A, 0x29, 0x00, 0x85, 0x26,
	0x29, 0x72, 0x5A, 0x29, 0x00, 0x82, 0x26, 0x29, 0x72, 0x82, 0x1D, 0x29,
	0x00, 0x63, 0x24, 0x72, 0x5A, 0x24, 0x00, 0x82, 0x26, 0x24, 0x72, 0x82,
	0x1D, 0x24, 0x00, 0x63, 0x29, 0x72, 0x5A, 0x29, 0x00, 0x82, 0x26, 0x29,
	0x72, 0x82, 0x1D, 0x29, 0x00, 0x63, 0x24, 0x72, 0x5A, 0x24, 0x00, 0x82,
	0x26, 0x24, 0x72, 0x82, 0x1D, 0x24, 0x00, 0x63, 0x29, 0x72, 0x5A, 0x29,
	0x00, 0x82, 0x26, 0x29, 0x72, 0x82, 0x1D, 0x29, 0x00, 0x63, 0x24, 0x72,
	0x5A, 0x24, 0x00, 0x82, 0x26, 0x24, 0x72, 0x82, 0x1D, 0x24, 0x00, 0x63,
	0x29, 0x72, 0x5A, 0x29, 0x00, 0x82, 0x26, 0x29, 0x72, 0x82, 0x1D, 0x29,
	0x00, 0x63, 0x24, 0x72, 0x5A, 0x24, 0x00, 0x82, 0x26, 0x24, 0x72, 0x82,
	0x1D, 0x24, 0x00, 0x63, 0x22, 0x72, 0x5A, 0x22, 0x00, 0x82, 0x26, 0x22,
	0x72, 0x82, 0x1D, 0x22, 0x00, 0x63, 0x24, 0x72, 0x5A, 0x24, 0x00, 0x82,
	0x26, 0x24, 0x72, 0x82, 0x1D, 0x24, 0x00, 0x63, 0x29, 0x72, 0x5A, 0x29,
	0x00, 0x82, 0x26, 0x24, 0x72, 0x5D, 0x24, 0x00, 0x63, 0x27, 0x72, 0x5D,
	0x27, 0x00, 0x63, 0x29, 0x72, 0x5A, 0x29, 0x00, 0x85, 0x26, 0x24, 0x72,
	0x81, 0x31, 0x24, 0x00, 0x6F, 0x24, 0x6F, 0x54, 0x24, 0x00, 0x0C, 0x1F,
	0x6F, 0x51, 0x1F, 0x00, 0x81, 0x4F, 0x1F, 0x6F, 0x54, 0x1F, 0x00, 0x0C,
	0x24, 0x6F, 0x51, 0x24, 0x00, 0x81, 0x4F, 0x24, 0x6F, 0x54, 0x24, 0x00,
	0x0C, 0x2B, 0x6F, 0x81, 0x31, 0x2B, 0x00, 0x0F, 0x28, 0x6F, 0x81, 0x34,
	0x28, 0x00, 0x0C, 0x29, 0x72, 0x51, 0x29, 0x00, 0x81, 0x4F, 0x29, 0x6F,
	0x54, 0x29, 0x00, 0x0C, 0x24, 0x6F, 0x51, 0x24, 0x00, 0x81, 0x4F, 0x24,
	0x6F, 0x54, 0x24, 0x00, 0x0C, 0x29, 0x6F, 0x51, 0x29, 0x00, 0x81, 0x4F,
	0x29, 0x6F, 0x54, 0x29, 0x00, 0x0C, 0x2C, 0x6F, 0x81, 0x31, 0x2C, 0x00,
	0x0F, 0x29, 0x6F, 0x81, 0x34, 0x29, 0x00, 0x0C, 0x27, 0x72, 0x51, 0x27,
	0x00, 0x81, 0x4F, 0x27, 0x6F, 0x54, 0x27, 0x00, 0x0C, 0x22, 0x6F, 0x51,
	0x22, 0x00, 0x81, 0x4F, 0x22, 0x6F, 0x54, 0x22, 0x00, 0x0C, 0x1B, 0x6F,
	0x5C, 0x1B, 0x00, 0x81, 0x44, 0x27, 0x6F, 0x54, 0x27, 0x00, 0x0C, 0x2B,
	0x6F, 0x81, 0x32, 0x2B, 0x00, 0x0E, 0x27, 0x6F, 0x81, 0x34, 0x27, 0x00,
	0x0C, 0x2C, 0x6F, 0x5C, 0x2C, 0x00, 0x81, 0x44, 0x2C, 0x6F, 0x54, 0x2C,
	0x00, 0x0C, 0x2E, 0x6F, 0x52, 0x2E, 0x00, 0x6E, 0x2C, 0x6F, 0x54, 0x2C,
	0x00, 0x6C, 0x2B, 0x72, 0x5C, 0x2B, 0x00, 0x82, 0x24, 0x24, 0x76, 0x54,
	0x24, 0x00, 0x82, 0x2C, 0x29, 0x72, 0x5A, 0x29, 0x00, 0x82, 0x26, 0x29,
	0x72, 0x82, 0x1D, 0x29, 0x00, 0x63, 0x24, 0x72, 0x5A, 0x24, 0x00, 0x82,
	0x26, 0x24, 0x72, 0x82, 0x1D, 0x24, 0x00, 0x63, 0x29, 0x72, 0x5A, 0x29,
	0x00, 0x82, 0x26, 0x29, 0x72, 0x82, 0x1D, 0x29, 0x00, 0x63, 0x24, 0x72,
	0x5A, 0x24, 0x00, 0x82, 0x26, 0x24, 0x72, 0x81, 0x3D, 0x24, 0x00, 0x03,
	0x23, 0x72, 0x81, 0x3D, 0x23, 0x00, 0x03, 0x22, 0x72, 0x5A, 0x22, 0x00,
	0x82, 0x26, 0x22, 0x72, 0x82, 0x1D, 0x22, 0x00, 0x63, 0x24, 0x72, 0x5A,
	0x24, 0x00, 0x82, 0x26, 0x24, 0x72, 0x82, 0x1D, 0x24, 0x00, 0x63, 0x29,
	0x72, 0x5A, 0x29, 0x00, 0x82, 0x26, 0x24, 0x72, 0x5D, 0x24, 0x00, 0x63,
	0x27, 0x72, 0x81, 0x0D, 0x27, 0x00, 0x33, 0x29, 0x72, 0x5A, 0x29, 0x00,
	0x85, 0x26, 0x2C, 0x7F, 0x82, 0x2C, 0x2C, 0x00, 0x54, 0x27, 0x7F, 0x82,
	0x16, 0x27, 0x00, 0x2A, 0x2C, 0x7F, 0x1E, 0x2C, 0x00, 0x22, 0x27, 0x7F,
	0x82, 0x16, 0x27, 0x00, 0x2A, 0x27, 0x7F, 0x1E, 0x27, 0x00, 0x22, 0x2E,
	0x7F, 0x82, 0x2C, 0x2E, 0x00, 0x54, 0x29, 0x7F, 0x82, 0x2C, 0x29, 0x00,
	0x54, 0x30, 0x7F, 0x81, 0x26, 0x30, 0x00, 0x1A, 0x2C, 0x7F, 0x81, 0x24,
	0x2C, 0x00, 0x1C, 0x2B, 0x7F, 0x82, 0x46, 0x2B, 0x00, 0x3A, 0x27, 0x7F,
	0x81, 0x1C, 0x27, 0x00, 0x24, 0x24, 0x7F, 0x81, 0x1C, 0x24, 0x00, 0x24,
	0x25, 0x7F, 0x82, 0x2C, 0x25, 0x00, 0x54, 0x2C, 0x7F, 0x82, 0x11, 0x2C,
	0x00, 0x2F, 0x25, 0x7F, 0x31, 0x25, 0x00, 0x0F, 0x27, 0x7F, 0x82, 0x2C,
	0x27, 0x00, 0x54, 0x22, 0x7F, 0x82, 0x2C, 0x22, 0x00, 0x54, 0x2C, 0x7F,
	0x82, 0x2C, 0x2C, 0x00, 0x54, 0x27, 0x7F, 0x82, 0x11, 0x27, 0x00, 0x2F,
	0x2C, 0x7F, 0x25, 0x2C, 0x00, 0x1B, 0x27, 0x7F, 0x69, 0x27, 0x00, 0x17,
	0x27, 0x7F, 0x2A, 0x27, 0x00, 0x16, 0x25, 0x7F, 0x6B, 0x25, 0x00, 0x55,
	0x24, 0x7F, 0x6B, 0x24, 0x00, 0x55, 0x2E, 0x7F, 0x6B, 0x2E, 0x00, 0x55,
	0x2C, 0x7F, 0x82, 0x2C, 0x2C, 0x00, 0x54, 0x27, 0x7F, 0x82, 0x16, 0x27,
	0x00, 0x2A, 0x2C, 0x7F, 0x1E, 0x2C, 0x00, 0x22, 0x27, 0x7F, 0x82, 0x16,
	0x27, 0x00, 0x2A, 0x27, 0x7F, 0x1E, 0x27, 0x00, 0x22, 0x2E, 0x7F, 0x81,
	0x1C, 0x2E, 0x00, 0x24, 0x27, 0x7F, 0x81, 0x1C, 0x27, 0x00, 0x24, 0x29,
	0x7F, 0x82, 0x2C, 0x29, 0x00, 0x54, 0x30, 0x7F, 0x81, 0x1C, 0x30, 0x00,
	0x24, 0x2C, 0x7F, 0x81, 0x1C, 0x2C, 0x00, 0x24, 0x2B, 0x7F, 0x82, 0x46,
	0x2B, 0x00, 0x3A, 0x27, 0x7F, 0x81, 0x1C, 0x27, 0x00, 0x24, 0x24, 0x7F,
	0x81, 0x1C, 0x24, 0x00, 0x24, 0x25, 0x7F, 0x82, 0x16, 0x25, 0x00, 0x2A,
	0x25, 0x7F, 0x26, 0x25, 0x00, 0x1A, 0x2C, 0x7F, 0x81, 0x1C, 0x2C, 0x00,
	0x24, 0x25, 0x7F, 0x81, 0x1C, 0x25, 0x00, 0x24, 0x26, 0x7F, 0x82, 0x16,
	0x26, 0x00, 0x2A, 0x26, 0x7F, 0x1E, 0x26, 0x00, 0x22, 0x2C, 0x7F, 0x82,
	0x5C, 0x2C, 0x00, 0x24, 0x27, 0x7F, 0x82, 0x16, 0x27, 0x00, 0x2A, 0x27,
	0x7F, 0x26, 0x27, 0x00, 0x1A, 0x2E, 0x7F, 0x82, 0x5C, 0x2E, 0x00, 0x24,
	0x27, 0x7F, 0x81, 0x23, 0x27, 0x00, 0x1D, 0x29, 0x7F, 0x81, 0x23, 0x29,
	0x00, 0x1D, 0x2B, 0x7F, 0x81, 0x23, 0x2B, 0x00, 0x1D, 0x2E, 0x7F, 0x81,
	0x23, 0x2E, 0x00, 0x1D, 0x2C, 0x7F, 0x82, 0x2C, 0x2C, 0x00, 0x54, 0x27,
	0x7F, 0x82, 0x16, 0x27, 0x00, 0x2A, 0x2C, 0x7F, 0x1E, 0x2C, 0x00, 0x22,
	0x27, 0x7F, 0x82, 0x46, 0x27, 0x00, 0x3A, 0x2E, 0x7F, 0x82, 0x41, 0x2E,
	0x00, 0x3F, 0x29, 0x7F, 0x82, 0x40, 0x29, 0x00, 0x40, 0x2C, 0x7F, 0x82,
	0x40, 0x2C, 0x00, 0x40, 0x2B, 0x7F, 0x82, 0x46, 0x2B, 0x00, 0x3A, 0x27,
	0x7F, 0x82, 0x4B, 0x27, 0x00, 0x35, 0x25, 0x7F, 0x82, 0x46, 0x25, 0x00,
	0x3A, 0x2C, 0x7F, 0x81, 0x1C, 0x2C, 0x00, 0x24, 0x25, 0x7F, 0x81, 0x1C,
	0x25, 0x00, 0x24, 0x27, 0x7F, 0x82, 0x46, 0x27, 0x00, 0x3A, 0x2E, 0x7F,
	0x82, 0x4B, 0x2E, 0x00, 0x35, 0x25, 0x7F, 0x82, 0x46, 0x25, 0x00, 0x3A,
	0x2C, 0x7F, 0x81, 0x1C, 0x2C, 0x00, 0x24, 0x25, 0x7F, 0x81, 0x1C, 0x25,
	0x00, 0x24, 0x27, 0x7F, 0x82, 0x46, 0x27, 0x00, 0x83, 0x3A, 0x25, 0x7F,
	0x82, 0x46, 0x25, 0x00, 0x3A, 0x2C, 0x7F, 0x81, 0x1C, 0x2C, 0x00, 0x24,
	0x25, 0x7F, 0x81, 0x1C, 0x25, 0x00, 0x24, 0x27, 0x7F, 0x84, 0x06, 0x27,
	0x00, 0x81, 0x7A, 0x2C, 0x7F, 0x8C, 0x26, 0x2C, 0x00, 0x00, 0xFF, 0x2F,
	0x00, 0x4D, 0x54, 0x72, 0x6B, 0x00, 0x00, 0x03, 0x2E, 0x0E, 0xB3, 0x79,
	0x00, 0x10, 0x00, 0x00, 0x81, 0x10, 0xC3, 0x32, 0x60, 0xB3, 0x07, 0x60,
	0x31, 0x01, 0x00, 0x03, 0x02, 0x00, 0x0A, 0x05, 0x00, 0x22, 0x0A, 0x3B,
	0x02, 0x0B, 0x7F, 0x02, 0x40, 0x00, 0x05, 0x41, 0x00, 0x57, 0x5B, 0x5E,
	0x60, 0x5D, 0x40, 0x30, 0xE3, 0x00, 0x40, 0x30, 0xB3, 0x65, 0x00, 0x00,
	0x64, 0x00, 0x30, 0x06, 0x02, 0x81, 0xC6, 0x30, 0x93, 0x3C, 0x47, 0x00,
	0x3F, 0x47, 0x00, 0x44, 0x47, 0x85, 0x7F, 0x3C, 0x00, 0x00, 0x44, 0x00,
	0x01, 0x3A, 0x47, 0x00, 0x43, 0x47, 0x85, 0x7F, 0x3F, 0x00, 0x00, 0x3A,
	0x00, 0x00, 0x43, 0x00, 0x01, 0x3C, 0x47, 0x00, 0x41, 0x47, 0x00, 0x44,
	0x47, 0x85, 0x7F, 0x41, 0x00, 0x00, 0x44, 0x00, 0x01, 0x3F, 0x47, 0x00,
	0x43, 0x47, 0x85, 0x7F, 0x3C, 0x00, 0x00, 0x3F, 0x00, 0x00, 0x43, 0x00,
	0x01, 0x38, 0x47, 0x00, 0x3D, 0x47, 0x00, 0x41, 0x47, 0x85, 0x7F, 0x38,
	0x00, 0x00, 0x3D, 0x00, 0x00, 0x41, 0x00, 0x01, 0x3A, 0x47, 0x00, 0x3F,
	0x47, 0x00, 0x43, 0x47, 0x85, 0x7F, 0x3A, 0x00, 0x00, 0x43, 0x00, 0x01,
	0x3C, 0x47, 0x00, 0x44, 0x47, 0x85, 0x7F, 0x3C, 0x00, 0x00, 0x44, 0x00,
	0x01, 0x3A, 0x47, 0x00, 0x43, 0x47, 0x85, 0x7F, 0x3F, 0x00, 0x00, 0x3A,
	0x00, 0x00, 0x43, 0x00, 0x01, 0x3C, 0x47, 0x00, 0x3F, 0x47, 0x00, 0x44,
	0x47, 0x85, 0x7F, 0x3C, 0x00, 0x00, 0x44, 0x00, 0x01, 0x3A, 0x47, 0x00,
	0x43, 0x47, 0x85, 0x7F, 0x3F, 0x00, 0x00, 0x3A, 0x00, 0x00, 0x43, 0x00,
	0x01, 0x3C, 0x47, 0x00, 0x41, 0x47, 0x00, 0x44, 0x47, 0x85, 0x7F, 0x41,
	0x00, 0x00, 0x44, 0x00, 0x01, 0x3F, 0x47, 0x00, 0x43, 0x47, 0x85, 0x7F,
	0x3C, 0x00, 0x00, 0x3F, 0x00, 0x00, 0x43, 0x00, 0x01, 0x38, 0x47, 0x00,
	0x3D, 0x47, 0x00, 0x41, 0x47, 0x85, 0x7F, 0x38, 0x00, 0x00, 0x3D, 0x00,
	0x01, 0x3A, 0x47, 0x00, 0x3E, 0x47, 0x85, 0x7F, 0x41, 0x00, 0x00, 0x3E,
	0x00, 0x01, 0x3F, 0x47, 0x00, 0x43, 0x47, 0x8B, 0x7F, 0x3A, 0x00, 0x00,
	0x3F, 0x00, 0x00, 0x43, 0x00, 0xF8, 0x01, 0x3A, 0x3B, 0x00, 0x3C, 0x3B,
	0x00, 0x40, 0x3B, 0x8B, 0x7F, 0x3A, 0x00, 0x00, 0x40, 0x00, 0x01, 0x38,
	0x3B, 0x00, 0x41, 0x3B, 0x8B, 0x7F, 0x3C, 0x00, 0x00, 0x38, 0x00, 0x00,
	0x41, 0x00, 0x01, 0x3A, 0x3B, 0x00, 0x3F, 0x3B, 0x00, 0x43, 0x3B, 0x8B,
	0x7F, 0x3A, 0x00, 0x00, 0x43, 0x00, 0x01, 0x3C, 0x3B, 0x00, 0x44, 0x3B,
	0x85, 0x7F, 0x3F, 0x00, 0x00, 0x44, 0x00, 0x01, 0x40, 0x3B, 0x00, 0x43,
	0x3B, 0x83, 0x2F, 0x3C, 0x00, 0x00, 0x40, 0x00, 0x00, 0x43, 0x00, 0xB2,
	0x51, 0x3C, 0x47, 0x00, 0x3F, 0x47, 0x00, 0x44, 0x47, 0x85, 0x7F, 0x3C,
	0x00, 0x00, 0x44, 0x00, 0x01, 0x3A, 0x47, 0x00, 0x43, 0x47, 0x85, 0x7F,
	0x3F, 0x00, 0x00, 0x3A, 0x00, 0x00, 0x43, 0x00, 0x01, 0x3C, 0x47, 0x00,
	0x41, 0x47, 0x00, 0x44, 0x47, 0x85, 0x7F, 0x41, 0x00, 0x00, 0x44, 0x00,
	0x01, 0x3F, 0x47, 0x00, 0x43, 0x47, 0x85, 0x7F, 0x3C, 0x00, 0x00, 0x3F,
	0x00, 0x00, 0x43, 0x00, 0x01, 0x38, 0x47, 0x00, 0x3D, 0x47, 0x00, 0x41,
	0x47, 0x85, 0x7F, 0x38, 0x00, 0x00, 0x3D, 0x00, 0x00, 0x41, 0x00, 0x01,
	0x3A, 0x47, 0x00, 0x3F, 0x47, 0x00, 0x43, 0x47, 0x85, 0x7F, 0x3A, 0x00,
	0x00, 0x43, 0x00, 0x01, 0x3C, 0x47, 0x00, 0x44, 0x47, 0x85, 0x7F, 0x3C,
	0x00, 0x00, 0x44, 0x00, 0x01, 0x3A, 0x47, 0x00, 0x43, 0x47, 0x85, 0x7F,
	0x3F, 0x00, 0x00, 0x3A, 0x00, 0x00, 0x43, 0x00, 0x01, 0x3C, 0x47, 0x00,
	0x3F, 0x47, 0x00, 0x44, 0x47, 0x85, 0x7F, 0x3C, 0x00, 0x00, 0x44, 0x00,
	0x01, 0x3A, 0x47, 0x00, 0x43, 0x47, 0x85, 0x7F, 0x3F, 0x00, 0x00, 0x3A,
	0x00, 0x00, 0x43, 0x00, 0x01, 0x3C, 0x47, 0x00, 0x41, 0x47, 0x00, 0x44,
	0x47, 0x85, 0x7F, 0x41, 0x00, 0x00, 0x44, 0x00, 0x01, 0x3F, 0x47, 0x00,
	0x43, 0x47, 0x85, 0x7F, 0x3C, 0x00, 0x00, 0x3F, 0x00, 0x00, 0x43, 0x00,
	0x01, 0x38, 0x47, 0x00, 0x3D, 0x47, 0x00, 0x41, 0x47, 0x85, 0x7F, 0x38,
	0x00, 0x00, 0x3D, 0x00, 0x01, 0x3A, 0x47, 0x00, 0x3E, 0x47, 0x85, 0x7F,
	0x41, 0x00, 0x00, 0x3E, 0x00, 0x01, 0x3F, 0x47, 0x00, 0x43, 0x47, 0x8B,
	0x7F, 0x3A, 0x00, 0x00, 0x3F, 0x00, 0x00, 0x43, 0x00, 0x01, 0x3C, 0x47,
	0x00, 0x3F, 0x47, 0x00, 0x44, 0x47, 0x85, 0x7F, 0x3C, 0x00, 0x00, 0x44,
	0x00, 0x01, 0x3A, 0x47, 0x00, 0x43, 0x47, 0x85, 0x7F, 0x3F, 0x00, 0x00,
	0x3A, 0x00, 0x00, 0x43, 0x00, 0x01, 0x3C, 0x47, 0x00, 0x41, 0x47, 0x00,
	0x44, 0x47, 0x85, 0x7F, 0x41, 0x00, 0x00, 0x44, 0x00, 0x01, 0x3F, 0x47,
	0x00, 0x43, 0x47, 0x85, 0x7F, 0x3C, 0x00, 0x00, 0x3F, 0x00, 0x00, 0x43,
	0x00, 0x01, 0x38, 0x47, 0x00, 0x3D, 0x47, 0x00, 0x41, 0x47, 0x85, 0x7F,
	0x38, 0x00, 0x00, 0x3D, 0x00, 0x00, 0x41, 0x00, 0x01, 0x3A, 0x47, 0x00,
	0x3F, 0x47, 0x00, 0x43, 0x47, 0x85, 0x7F, 0x3A, 0x00, 0x00, 0x3F, 0x00,
	0x00, 0x43, 0x00, 0x01, 0x38, 0x47, 0x00, 0x3D, 0x47, 0x00, 0x41, 0x47,
	0x85, 0x7F, 0x38, 0x00, 0x00, 0x3D, 0x00, 0x00, 0x41, 0x00, 0x01, 0x3A,
	0x47, 0x00, 0x3F, 0x47, 0x00, 0x43, 0x47, 0x81, 0x0F, 0x3A, 0x00, 0x00,
	0x3F, 0x00, 0x00, 0x43, 0x00, 0x84, 0x71, 0x38, 0x47, 0x00, 0x3D, 0x47,
	0x00, 0x41, 0x47, 0x85, 0x7F, 0x38, 0x00, 0x00, 0x3D, 0x00, 0x00, 0x41,
	0x00, 0x01, 0x37, 0x47, 0x00, 0x3A, 0x47, 0x00, 0x3F, 0x47, 0x85, 0x7F,
	0x37, 0x00, 0x00, 0x3A, 0x00, 0x00, 0x3F, 0x00, 0x01, 0x33, 0x47, 0x00,
	0x38, 0x47, 0x00, 0x3C, 0x47, 0x8C, 0x5F, 0x33, 0x00, 0x00, 0x38, 0x00,
	0x00, 0x3C, 0x00, 0x00, 0xFF, 0x2F, 0x00, 0x4D, 0x54, 0x72, 0x6B, 0x00,
	0x00, 0x02, 0x63, 0x16, 0xB4, 0x79, 0x00, 0x10, 0x00, 0x00, 0x81, 0x10,
	0xC4, 0x34, 0x60, 0xB4, 0x07, 0x6C, 0x31, 0x01, 0x00, 0x03, 0x02, 0x00,
	0x0A, 0x05, 0x00, 0x22, 0x0A, 0x50, 0x02, 0x0B, 0x7F, 0x02, 0x40, 0x00,
	0x05, 0x41, 0x00, 0x57, 0x5B, 0x5B, 0x60, 0x5D, 0x1A, 0x30, 0xE4, 0x00,
	0x40, 0x30, 0xB4, 0x65, 0x00, 0x00, 0x64, 0x00, 0x30, 0x06, 0x01, 0x81,
	0xF6, 0x30, 0x94, 0x3F, 0x66, 0x00, 0x44, 0x66, 0x85, 0x79, 0x44, 0x00,
	0x07, 0x43, 0x66, 0x82, 0x7D, 0x3F, 0x00, 0x01, 0x43, 0x00, 0x02, 0x41,
	0x66, 0x00, 0x46, 0x66, 0x82, 0x7C, 0x41, 0x00, 0x00, 0x46, 0x00, 0x04,
	0x3C, 0x66, 0x00, 0x41, 0x66, 0x85, 0x79, 0x41, 0x00, 0x07, 0x3F, 0x5E,
	0x82, 0x79, 0x3F, 0x00, 0x34, 0x3C, 0x00, 0x82, 0xA2, 0x53, 0x3F, 0x66,
	0x00, 0x44, 0x66, 0x85, 0x79, 0x44, 0x00, 0x07, 0x43, 0x66, 0x82, 0x7D,
	0x3F, 0x00, 0x01, 0x43, 0x00, 0x02, 0x41, 0x66, 0x00, 0x46, 0x66, 0x82,
	0x7C, 0x41, 0x00, 0x00, 0x46, 0x00, 0x04, 0x3C, 0x66, 0x00, 0x41, 0x66,
	0x85, 0x79, 0x41, 0x00, 0x07, 0x3F, 0x5E, 0x84, 0x09, 0x3F, 0x00, 0x04,
	0x3C, 0x00, 0x99, 0x73, 0x3C, 0x69, 0x00, 0x3F, 0x6E, 0x00, 0x44, 0x69,
	0x85, 0x79, 0x44, 0x00, 0x06, 0x3C, 0x00, 0x01, 0x3A, 0x69, 0x00, 0x43,
	0x69, 0x82, 0x7D, 0x3F, 0x00, 0x01, 0x43, 0x00, 0x02, 0x41, 0x75, 0x00,
	0x46, 0x69, 0x82, 0x7C, 0x41, 0x00, 0x00, 0x46, 0x00, 0x03, 0x3A, 0x00,
	0x01, 0x38, 0x69, 0x00, 0x3C, 0x69, 0x00, 0x41, 0x69, 0x85, 0x79, 0x41,
	0x00, 0x06, 0x38, 0x00, 0x01, 0x37, 0x69, 0x00, 0x3F, 0x61, 0x84, 0x09,
	0x3F, 0x00, 0x04, 0x3C, 0x00, 0x02, 0x37, 0x00, 0x84, 0x71, 0x44, 0x75,
	0x00, 0x48, 0x77, 0x81, 0x0A, 0xE4, 0x00, 0x3F, 0x0F, 0x00, 0x3E, 0x08,
	0x00, 0x3D, 0x08, 0x00, 0x3C, 0x0F, 0x00, 0x3A, 0x08, 0x00, 0x38, 0x08,
	0x00, 0x34, 0x07, 0x00, 0x2E, 0x08, 0x00, 0x2A, 0x08, 0x00, 0x27, 0x08,
	0x00, 0x23, 0x07, 0x00, 0x1F, 0x08, 0x00, 0x1A, 0x07, 0x00, 0x15, 0x08,
	0x00, 0x11, 0x08, 0x00, 0x0E, 0x08, 0x00, 0x0A, 0x07, 0x00, 0x06, 0x08,
	0x00, 0x01, 0x08, 0x00, 0x00, 0x3B, 0x94, 0x44, 0x00, 0x01, 0x48, 0x00,
	0x07, 0xE4, 0x00, 0x40, 0x09, 0xC4, 0x35, 0x08, 0x94, 0x3F, 0x6B, 0x00,
	0x43, 0x75, 0x00, 0x46, 0x6E, 0x28, 0x3F, 0x00, 0x00, 0x43, 0x00, 0x02,
	0x46, 0x00, 0x81, 0x16, 0x3F, 0x6B, 0x00, 0x43, 0x75, 0x00, 0x46, 0x6E,
	0x28, 0x3F, 0x00, 0x00, 0x43, 0x00, 0x02, 0x46, 0x00, 0x81, 0x16, 0x3F,
	0x6B, 0x00, 0x43, 0x75, 0x00, 0x46, 0x6E, 0x28, 0x3F, 0x00, 0x00, 0x43,
	0x00, 0x02, 0x46, 0x00, 0x81, 0x16, 0x3F, 0x6B, 0x00, 0x43, 0x75, 0x00,
	0x46, 0x6E, 0x28, 0x3F, 0x00, 0x00, 0x43, 0x00, 0x02, 0x46, 0x00, 0x82,
	0x26, 0xC4, 0x34, 0x81, 0x70, 0x94, 0x44, 0x75, 0x00, 0x48, 0x77, 0x81,
	0x0A, 0xE4, 0x00, 0x3F, 0x0F, 0x00, 0x3E, 0x08, 0x00, 0x3D, 0x08, 0x00,
	0x3C, 0x0F, 0x00, 0x3A, 0x08, 0x00, 0x38, 0x08, 0x00, 0x34, 0x07, 0x00,
	0x2E, 0x08, 0x00, 0x2A, 0x08, 0x00, 0x27, 0x08, 0x00, 0x23, 0x07, 0x00,
	0x1F, 0x08, 0x00, 0x1A, 0x07, 0x00, 0x15, 0x08, 0x00, 0x11, 0x08, 0x00,
	0x0E, 0x08, 0x00, 0x0A, 0x07, 0x00, 0x06, 0x08, 0x00, 0x01, 0x08, 0x00,
	0x00, 0x3B, 0x94, 0x44, 0x00, 0x01, 0x48, 0x00, 0x07, 0xE4, 0x00, 0x40,
	0x09, 0xC4, 0x35, 0x08, 0x94, 0x3F, 0x6B, 0x00, 0x43, 0x75, 0x00, 0x46,
	0x6E, 0x28, 0x3F, 0x00, 0x00, 0x43, 0x00, 0x02, 0x46, 0x00, 0x81, 0x16,
	0x3F, 0x6B, 0x00, 0x43, 0x75, 0x00, 0x46, 0x6E, 0x28, 0x3F, 0x00, 0x00,
	0x43, 0x00, 0x02, 0x46, 0x00, 0x81, 0x16, 0x3F, 0x6B, 0x00, 0x43, 0x75,
	0x00, 0x46, 0x6E, 0x28, 0x3F, 0x00, 0x00, 0x43, 0x00, 0x02, 0x46, 0x00,
	0x81, 0x16, 0x3F, 0x6B, 0x00, 0x43, 0x75, 0x00, 0x46, 0x6E, 0x28, 0x3F,
	0x00, 0x00, 0x43, 0x00, 0x02, 0x46, 0x00, 0x82, 0x26, 0xC4, 0x34, 0x81,
	0x70, 0x94, 0x44, 0x6E, 0x00, 0x48, 0x6F, 0x82, 0x7C, 0x44, 0x00, 0x00,
	0x48, 0x00, 0x04, 0x43, 0x6A, 0x00, 0x46, 0x68, 0x00, 0x4B, 0x6A, 0x82,
	0x7C, 0x4B, 0x00, 0x81, 0x10, 0x43, 0x00, 0x00, 0x46, 0x00, 0x00, 0xFF,
	0x2F, 0x00, 0x4D, 0x54, 0x72, 0x6B, 0x00, 0x00, 0x06, 0x07, 0x15, 0xB5,
	0x79, 0x00, 0x10, 0x00, 0x00, 0x81, 0x10, 0xC5, 0x32, 0x60, 0xB5, 0x07,
	0x61, 0x31, 0x01, 0x00, 0x03, 0x02, 0x00, 0x0A, 0x05, 0x00, 0x22, 0x0A,
	0x45, 0x02, 0x0B, 0x7F, 0x02, 0x40, 0x00, 0x05, 0x41, 0x00, 0x57, 0x5B,
	0x5B, 0x60, 0x5D, 0x28, 0x30, 0xE5, 0x00, 0x40, 0x30, 0xB5, 0x65, 0x00,
	0x00, 0x64, 0x00, 0x30, 0x06, 0x02, 0xFE, 0x30, 0x95, 0x35, 0x58, 0x00,
	0x3C, 0x58, 0x85, 0x7F, 0x35, 0x00, 0x00, 0x3C, 0x00, 0x01, 0x3F, 0x68,
	0x00, 0x46, 0x5F, 0x85, 0x7F, 0x3F, 0x00, 0x00, 0x46, 0x00, 0x01, 0x41,
	0x68, 0x00, 0x48, 0x65, 0x85, 0x7F, 0x41, 0x00, 0x00, 0x48, 0x00, 0x01,
	0x3F, 0x68, 0x00, 0x46, 0x65, 0x85, 0x7F, 0x3F, 0x00, 0x00, 0x46, 0x00,
	0x01, 0x41, 0x68, 0x00, 0x48, 0x65, 0x85, 0x7F, 0x41, 0x00, 0x00, 0x48,
	0x00, 0x01, 0x3F, 0x68, 0x00, 0x46, 0x65, 0x85, 0x7F, 0x3F, 0x00, 0x00,
	0x46, 0x00, 0x01, 0x41, 0x68, 0x00, 0x48, 0x65, 0x85, 0x7F, 0x41, 0x00,
	0x00, 0x48, 0x00, 0x01, 0x3F, 0x68, 0x00, 0x46, 0x65, 0x82, 0x7F, 0x3F,
	0x00, 0x00, 0x46, 0x00, 0x01, 0x3C, 0x68, 0x00, 0x43, 0x65, 0x82, 0x7F,
	0x3C, 0x00, 0x00, 0x43, 0x00, 0x01, 0x3D, 0x68, 0x00, 0x44, 0x65, 0x85,
	0x7F, 0x3D, 0x00, 0x00, 0x44, 0x00, 0x01, 0x3C, 0x68, 0x00, 0x43, 0x65,
	0x85, 0x7F, 0x3C, 0x00, 0x00, 0x43, 0x00, 0x01, 0x35, 0x68, 0x00, 0x3C,
	0x65, 0x87, 0x0F, 0x35, 0x00, 0x00, 0x3C, 0x00, 0x84, 0x11, 0xC5, 0x30,
	0x60, 0x95, 0x50, 0x55, 0x85, 0x7F, 0x50, 0x00, 0x01, 0x4F, 0x55, 0x82,
	0x7F, 0x4F, 0x00, 0x01, 0x4B, 0x55, 0x82, 0x7F, 0x4B, 0x00, 0x01, 0x4D,
	0x55, 0x84, 0x3F, 0x4D, 0x00, 0x01, 0x50, 0x55, 0x81, 0x3F, 0x50, 0x00,
	0x01, 0x4F, 0x55, 0x82, 0x7F, 0x4F, 0x00, 0x01, 0x4B, 0x55, 0x82, 0x7F,
	0x4B, 0x00, 0x01, 0x4D, 0x55, 0x85, 0x7F, 0x4D, 0x00, 0x01, 0x4B, 0x55,
	0x82, 0x7F, 0x4B, 0x00, 0x01, 0x49, 0x55, 0x82, 0x7F, 0x49, 0x00, 0x01,
	0x48, 0x55, 0x85, 0x7F, 0x48, 0x00, 0x01, 0x46, 0x55, 0x82, 0x7F, 0x46,
	0x00, 0x01, 0x4B, 0x55, 0x82, 0x7F, 0x4B, 0x00, 0x01, 0x50, 0x55, 0x85,
	0x7F, 0x50, 0x00, 0x01, 0x4F, 0x55, 0x82, 0x7F, 0x4F, 0x00, 0x01, 0x52,
	0x55, 0x82, 0x7F, 0x52, 0x00, 0x01, 0x50, 0x55, 0x7F, 0x50, 0x00, 0x01,
	0x4F, 0x55, 0x3F, 0x4F, 0x00, 0x01, 0x4D, 0x55, 0x82, 0x7F, 0x4D, 0x00,
	0x01, 0x50, 0x55, 0x81, 0x3F, 0x50, 0x00, 0x01, 0x4F, 0x55, 0x82, 0x7F,
	0x4F, 0x00, 0x01, 0x4B, 0x55, 0x82, 0x7F, 0x4B, 0x00, 0x01, 0x4D, 0x55,
	0x82, 0x7F, 0x4D, 0x00, 0x01, 0x50, 0x55, 0x82, 0x7F, 0x50, 0x00, 0x01,
	0x52, 0x55, 0x82, 0x7F, 0x52, 0x00, 0x01, 0x54, 0x55, 0x82, 0x7F, 0x54,
	0x00, 0x01, 0x52, 0x55, 0x82, 0x7F, 0x52, 0x00, 0x89, 0x01, 0x41, 0x67,
	0x00, 0x48, 0x5D, 0x85, 0x7F, 0x41, 0x00, 0x01, 0x3C, 0x67, 0x81, 0x40,
	0x4F, 0x53, 0x82, 0x7F, 0x48, 0x00, 0x01, 0x54, 0x4B, 0x81, 0x3F, 0x3C,
	0x00, 0x00, 0x4F, 0x00, 0x00, 0x54, 0x00, 0x01, 0x41, 0x67, 0x00, 0x4D,
	0x55, 0x00, 0x50, 0x47, 0x85, 0x7F, 0x41, 0x00, 0x00, 0x4D, 0x00, 0x00,
	0x50, 0x00, 0x01, 0x3C, 0x67, 0x00, 0x4B, 0x55, 0x00, 0x4F, 0x47, 0x84,
	0x3F, 0x3C, 0x00, 0x00, 0x4B, 0x00, 0x00, 0x4F, 0x00, 0x01, 0x3B, 0x67,
	0x00, 0x4F, 0x4B, 0x00, 0x54, 0x4B, 0x81, 0x3F, 0x3B, 0x00, 0x00, 0x4F,
	0x00, 0x00, 0x54, 0x00, 0x01, 0x3A, 0x67, 0x00, 0x50, 0x55, 0x00, 0x54,
	0x47, 0x85, 0x7F, 0x3A, 0x00, 0x00, 0x50, 0x00, 0x00, 0x54, 0x00, 0x01,
	0x3C, 0x67, 0x00, 0x4F, 0x55, 0x00, 0x54, 0x47, 0x84, 0x40, 0x3F, 0x67,
	0x81, 0x3F, 0x3C, 0x00, 0x00, 0x4F, 0x00, 0x00, 0x54, 0x00, 0x00, 0x3F,
	0x00, 0x01, 0x41, 0x67, 0x00, 0x50, 0x55, 0x00, 0x54, 0x47, 0x86, 0x5F,
	0x41, 0x00, 0x00, 0x50, 0x00, 0x00, 0x54, 0x00, 0x84, 0x71, 0xC5, 0x32,
	0x30, 0x95, 0x3C, 0x58, 0x00, 0x41, 0x58, 0x85, 0x7F, 0x3C, 0x00, 0x00,
	0x41, 0x00, 0x01, 0x3C, 0x68, 0x00, 0x43, 0x68, 0x85, 0x7F, 0x3C, 0x00,
	0x00, 0x43, 0x00, 0x01, 0x41, 0x68, 0x00, 0x44, 0x68, 0x85, 0x7F, 0x41,
	0x00, 0x00, 0x44, 0x00, 0x01, 0x3C, 0x68, 0x00, 0x43, 0x65, 0x82, 0x7F,
	0x43, 0x00, 0x01, 0x48, 0x65, 0x82, 0x7F, 0x3C, 0x00, 0x00, 0x48, 0x00,
	0x01, 0x41, 0x68, 0x00, 0x48, 0x65, 0x88, 0x7F, 0x41, 0x00, 0x00, 0x48,
	0x00, 0x01, 0x3F, 0x68, 0x00, 0x46, 0x65, 0x82, 0x7F, 0x3F, 0x00, 0x00,
	0x46, 0x00, 0x01, 0x41, 0x68, 0x00, 0x48, 0x65, 0x85, 0x7F, 0x41, 0x00,
	0x00, 0x48, 0x00, 0x01, 0x3F, 0x68, 0x00, 0x46, 0x65, 0x82, 0x7F, 0x3F,
	0x00, 0x00, 0x46, 0x00, 0x01, 0x3C, 0x68, 0x00, 0x43, 0x65, 0x82, 0x7F,
	0x3C, 0x00, 0x00, 0x43, 0x00, 0x01, 0x3A, 0x68, 0x00, 0x41, 0x65, 0x85,
	0x7F, 0x3A, 0x00, 0x01, 0x3C, 0x68, 0x82, 0x7F, 0x41, 0x00, 0x01, 0x3F,
	0x65, 0x82, 0x7F, 0x3C, 0x00, 0x00, 0x3F, 0x00, 0x01, 0x3C, 0x68, 0x00,
	0x41, 0x65, 0x87, 0x0F, 0x3C, 0x00, 0x00, 0x41, 0x00, 0x84, 0x11, 0xC5,
	0x30, 0x82, 0x20, 0x95, 0x48, 0x63, 0x00, 0x4C, 0x62, 0x16, 0x48, 0x00,
	0x00, 0x4C, 0x00, 0x81, 0x2A, 0x44, 0x70, 0x00, 0x50, 0x70, 0x00, 0x54,
	0x6E, 0x81, 0x3F, 0x44, 0x00, 0x00, 0x50, 0x00, 0x00, 0x54, 0x00, 0x01,
	0x4F, 0x61, 0x00, 0x52, 0x61, 0x1A, 0x4F, 0x00, 0x01, 0x52, 0x00, 0x82,
	0x65, 0x48, 0x6B, 0x00, 0x4C, 0x6B, 0x1A, 0x48, 0x00, 0x01, 0x4C, 0x00,
	0x81, 0x25, 0x44, 0x70, 0x00, 0x50, 0x70, 0x00, 0x54, 0x6D, 0x81, 0x3F,
	0x44, 0x00, 0x00, 0x50, 0x00, 0x00, 0x54, 0x00, 0x01, 0x4F, 0x61, 0x00,
	0x52, 0x61, 0x1A, 0x4F, 0x00, 0x01, 0x52, 0x00, 0x82, 0x65, 0x4F, 0x63,
	0x00, 0x52, 0x62, 0x16, 0x4F, 0x00, 0x00, 0x52, 0x00, 0x81, 0x2A, 0x43,
	0x6F, 0x00, 0x4F, 0x6F, 0x00, 0x52, 0x6D, 0x81, 0x3F, 0x43, 0x00, 0x00,
	0x4F, 0x00, 0x00, 0x52, 0x00, 0x01, 0x50, 0x61, 0x00, 0x54, 0x61, 0x1A,
	0x50, 0x00, 0x01, 0x54, 0x00, 0x82, 0x65, 0x4D, 0x6B, 0x00, 0x50, 0x6B,
	0x1A, 0x4D, 0x00, 0x01, 0x50, 0x00, 0x81, 0x25, 0x43, 0x70, 0x00, 0x4F,
	0x70, 0x00, 0x52, 0x6D, 0x81, 0x3F, 0x43, 0x00, 0x00, 0x4F, 0x00, 0x00,
	0x52, 0x00, 0x01, 0x50, 0x61, 0x00, 0x54, 0x61, 0x1A, 0x50, 0x00, 0x01,
	0x54, 0x00, 0x82, 0x65, 0x4F, 0x63, 0x00, 0x52, 0x62, 0x16, 0x4F, 0x00,
	0x00, 0x52, 0x00, 0x81, 0x2A, 0x3F, 0x6F, 0x00, 0x50, 0x6F, 0x00, 0x54,
	0x6D, 0x81, 0x3F, 0x3F, 0x00, 0x00, 0x50, 0x00, 0x00, 0x54, 0x00, 0x01,
	0x4F, 0x61, 0x00, 0x52, 0x61, 0x1A, 0x4F, 0x00, 0x01, 0x52, 0x00, 0x82,
	0x65, 0x4F, 0x6B, 0x00, 0x52, 0x6B, 0x1A, 0x4F, 0x00, 0x01, 0x52, 0x00,
	0x81, 0x25, 0x3F, 0x70, 0x00, 0x50, 0x70, 0x00, 0x54, 0x6D, 0x81, 0x3F,
	0x3F, 0x00, 0x00, 0x50, 0x00, 0x00, 0x54, 0x00, 0x01, 0x4F, 0x61, 0x00,
	0x52, 0x61, 0x1A, 0x52, 0x00, 0x01, 0x4F, 0x00, 0x82, 0x65, 0x50, 0x5D,
	0x81, 0x3F, 0x50, 0x00, 0x01, 0x52, 0x63, 0x2F, 0x52, 0x00, 0x81, 0x11,
	0x41, 0x71, 0x81, 0x3F, 0x41, 0x00, 0x01, 0x40, 0x6C, 0x82, 0x7F, 0x40,
	0x00, 0x01, 0x3C, 0x67, 0x00, 0x43, 0x56, 0x00, 0x48, 0x4E, 0x82, 0x7C,
	0x43, 0x00, 0x00, 0x48, 0x00, 0x03, 0x3C, 0x00, 0x01, 0x3C, 0x5F, 0x00,
	0x41, 0x62, 0x00, 0x43, 0x5F, 0x00, 0x48, 0x49, 0x85, 0x7F, 0x41, 0x00,
	0x00, 0x48, 0x00, 0x01, 0x3F, 0x5F, 0x00, 0x46, 0x54, 0x85, 0x7F, 0x43,
	0x00, 0x00, 0x3F, 0x00, 0x00, 0x46, 0x00, 0x01, 0x41, 0x5F, 0x00, 0x44,
	0x5F, 0x00, 0x4F, 0x57, 0x82, 0x7F, 0x4F, 0x00, 0x01, 0x4D, 0x5B, 0x82,
	0x7F, 0x41, 0x00, 0x00, 0x44, 0x00, 0x00, 0x4D, 0x00, 0x01, 0x3F, 0x5C,
	0x00, 0x43, 0x55, 0x00, 0x4B, 0x5A, 0x82, 0x7F, 0x3C, 0x00, 0x00, 0x3F,
	0x00, 0x00, 0x43, 0x00, 0x00, 0x4B, 0x00, 0x01, 0x3C, 0x5C, 0x00, 0x3F,
	0x5F, 0x00, 0x48, 0x5F, 0x82, 0x7F, 0x3C, 0x00, 0x00, 0x3F, 0x00, 0x00,
	0x48, 0x00, 0x01, 0x3D, 0x66, 0x00, 0x44, 0x66, 0x00, 0x48, 0x66, 0x00,
	0x50, 0x5E, 0x85, 0x7F, 0x3D, 0x00, 0x00, 0x44, 0x00, 0x00, 0x48, 0x00,
	0x00, 0x50, 0x00, 0x01, 0x3C, 0x66, 0x00, 0x43, 0x66, 0x00, 0x4F, 0x59,
	0x82, 0x7F, 0x43, 0x00, 0x01, 0x3F, 0x66, 0x00, 0x46, 0x66, 0x82, 0x7F,
	0x3F, 0x00, 0x00, 0x46, 0x00, 0x01, 0x41, 0x66, 0x00, 0x48, 0x66, 0x85,
	0x7F, 0x4F, 0x00, 0x01, 0x4D, 0x5F, 0x5F, 0x3C, 0x00, 0x00, 0x41, 0x00,
	0x00, 0x48, 0x00, 0x00, 0x4D, 0x00, 0x85, 0x21, 0x50, 0x55, 0x85, 0x7F,
	0x50, 0x00, 0x01, 0x4F, 0x55, 0x82, 0x7F, 0x4F, 0x00, 0x01, 0x4B, 0x55,
	0x82, 0x7F, 0x4B, 0x00, 0x01, 0x4D, 0x55, 0x84, 0x3F, 0x4D, 0x00, 0x01,
	0x50, 0x55, 0x81, 0x3F, 0x50, 0x00, 0x01, 0x4F, 0x55, 0x82, 0x7F, 0x4F,
	0x00, 0x01, 0x4B, 0x55, 0x82, 0x7F, 0x4B, 0x00, 0x01, 0x4D, 0x55, 0x85,
	0x7F, 0x4D, 0x00, 0x01, 0x4B, 0x55, 0x82, 0x7F, 0x4B, 0x00, 0x01, 0x49,
	0x55, 0x82, 0x7F, 0x49, 0x00, 0x01, 0x48, 0x55, 0x85, 0x7F, 0x48, 0x00,
	0x01, 0x46, 0x55, 0x82, 0x7F, 0x46, 0x00, 0x01, 0x4B, 0x55, 0x82, 0x7F,
	0x4B, 0x00, 0x01, 0x50, 0x55, 0x85, 0x7F, 0x50, 0x00, 0x01, 0x4F, 0x55,
	0x82, 0x7F, 0x4F, 0x00, 0x01, 0x52, 0x55, 0x82, 0x7F, 0x52, 0x00, 0x01,
	0x50, 0x55, 0x7F, 0x50, 0x00, 0x01, 0x4F, 0x55, 0x3F, 0x4F, 0x00, 0x01,
	0x4D, 0x55, 0x82, 0x7F, 0x4D, 0x00, 0x01, 0x50, 0x55, 0x81, 0x3F, 0x50,
	0x00, 0x01, 0x4F, 0x55, 0x82, 0x7F, 0x4F, 0x00, 0x01, 0x4B, 0x55, 0x82,
	0x7F, 0x4B, 0x00, 0x01, 0x4D, 0x55, 0x82, 0x7F, 0x4D, 0x00, 0x01, 0x50,
	0x55, 0x82, 0x7F, 0x50, 0x00, 0x01, 0x52, 0x55, 0x82, 0x7F, 0x52, 0x00,
	0x01, 0x54, 0x55, 0x82, 0x7F, 0x54, 0x00, 0x01, 0x52, 0x55, 0x82, 0x7F,
	0x52, 0x00, 0x89, 0x01, 0x38, 0x78, 0x85, 0x7F, 0x38, 0x00, 0x01, 0x3A,
	0x78, 0x85, 0x7F, 0x3A, 0x00, 0x01, 0x35, 0x78, 0x82, 0x7F, 0x35, 0x00,
	0x01, 0x38, 0x78, 0x82, 0x7F, 0x38, 0x00, 0x01, 0x37, 0x78, 0x82, 0x7F,
	0x37, 0x00, 0x01, 0x33, 0x78, 0x82, 0x7F, 0x33, 0x00, 0x01, 0x31, 0x78,
	0x85, 0x7F, 0x31, 0x00, 0x01, 0x33, 0x78, 0x85, 0x7F, 0x33, 0x00, 0x01,
	0x31, 0x78, 0x85, 0x7F, 0x31, 0x00, 0x01, 0x33, 0x78, 0x5F, 0x33, 0x00,
	0x85, 0x21, 0x31, 0x78, 0x81, 0x3F, 0x31, 0x00, 0x01, 0x33, 0x78, 0x81,
	0x3F, 0x33, 0x00, 0x01, 0x31, 0x78, 0x81, 0x3F, 0x31, 0x00, 0x01, 0x30,
	0x78, 0x81, 0x3F, 0x30, 0x00, 0x01, 0x2E, 0x78, 0x85, 0x7F, 0x2E, 0x00,
	0x01, 0x2C, 0x78, 0x00, 0x38, 0x6D, 0x8D, 0x3F, 0x2C, 0x00, 0x00, 0x38,
	0x00, 0x00, 0xFF, 0x2F, 0x00, 0x4D, 0x54, 0x72, 0x6B, 0x00, 0x00, 0x0D,
	0x1C, 0x14, 0xB6, 0x79, 0x00, 0x10, 0x00, 0x00, 0x81, 0x10, 0xC6, 0x2D,
	0x60, 0xB6, 0x07, 0x64, 0x31, 0x01, 0x00, 0x03, 0x02, 0x00, 0x0A, 0x05,
	0x00, 0x22, 0x0A, 0x55, 0x02, 0x0B, 0x7F, 0x02, 0x40, 0x00, 0x05, 0x41,
	0x00, 0x57, 0x5B, 0x5D, 0x60, 0x5D, 0x3F, 0x30, 0xE6, 0x00, 0x40, 0x30,
	0xB6, 0x65, 0x00, 0x00, 0x64, 0x00, 0x30, 0x06, 0x02, 0x86, 0x30, 0x96,
	0x35, 0x72, 0x29, 0x35, 0x00, 0x81, 0x17, 0x3C, 0x72, 0x00, 0x41, 0x72,
	0x00, 0x44, 0x72, 0x00, 0x50, 0x54, 0x25, 0x41, 0x00, 0x02, 0x44, 0x00,
	0x00, 0x50, 0x00, 0x02, 0x3C, 0x00, 0x81, 0x17, 0x35, 0x72, 0x2F, 0x35,
	0x00, 0x81, 0x11, 0x3C, 0x72, 0x00, 0x41, 0x72, 0x00, 0x44, 0x72, 0x00,
	0x50, 0x54, 0x28, 0x41, 0x00, 0x02, 0x44, 0x00, 0x00, 0x50, 0x00, 0x05,
	0x3C, 0x00, 0x81, 0x11, 0x30, 0x72, 0x29, 0x30, 0x00, 0x81, 0x17, 0x3C,
	0x72, 0x00, 0x3F, 0x72, 0x00, 0x43, 0x72, 0x00, 0x4F, 0x54, 0x25, 0x3F,
	0x00, 0x02, 0x43, 0x00, 0x00, 0x4F, 0x00, 0x02, 0x3C, 0x00, 0x81, 0x17,
	0x30, 0x72, 0x2F, 0x30, 0x00, 0x81, 0x11, 0x3C, 0x72, 0x00, 0x3F, 0x72,
	0x00, 0x43, 0x72, 0x00, 0x4F, 0x54, 0x28, 0x3F, 0x00, 0x02, 0x43, 0x00,
	0x00, 0x4F, 0x00, 0x05, 0x3C, 0x00, 0x81, 0x11, 0x35, 0x72, 0x29, 0x35,
	0x00, 0x81, 0x17, 0x3C, 0x72, 0x00, 0x41, 0x72, 0x00, 0x44, 0x72, 0x00,
	0x50, 0x54, 0x25, 0x41, 0x00, 0x02, 0x44, 0x00, 0x00, 0x50, 0x00, 0x02,
	0x3C, 0x00, 0x81, 0x17, 0x35, 0x72, 0x2F, 0x35, 0x00, 0x81, 0x11, 0x3C,
	0x72, 0x00, 0x41, 0x72, 0x00, 0x44, 0x72, 0x00, 0x50, 0x54, 0x28, 0x41,
	0x00, 0x02, 0x44, 0x00, 0x00, 0x50, 0x00, 0x05, 0x3C, 0x00, 0x81, 0x11,
	0x30, 0x72, 0x29, 0x30, 0x00, 0x81, 0x17, 0x3C, 0x72, 0x00, 0x3F, 0x72,
	0x00, 0x43, 0x72, 0x00, 0x4F, 0x54, 0x25, 0x3F, 0x00, 0x02, 0x43, 0x00,
	0x00, 0x4F, 0x00, 0x02, 0x3C, 0x00, 0x81, 0x17, 0x30, 0x72, 0x2F, 0x30,
	0x00, 0x81, 0x11, 0x2F, 0x72, 0x00, 0x3C, 0x72, 0x00, 0x3F, 0x72, 0x00,
	0x43, 0x72, 0x00, 0x4F, 0x54, 0x28, 0x3F, 0x00, 0x02, 0x43, 0x00, 0x00,
	0x4F, 0x00, 0x05, 0x2F, 0x00, 0x00, 0x3C, 0x00, 0x81, 0x11, 0x2E, 0x72,
	0x29, 0x2E, 0x00, 0x81, 0x17, 0x3A, 0x72, 0x00, 0x3D, 0x72, 0x00, 0x44,
	0x72, 0x00, 0x4D, 0x54, 0x25, 0x3D, 0x00, 0x02, 0x44, 0x00, 0x00, 0x4D,
	0x00, 0x02, 0x3A, 0x00, 0x81, 0x17, 0x2E, 0x72, 0x2F, 0x2E, 0x00, 0x81,
	0x11, 0x3A, 0x72, 0x00, 0x3D, 0x72, 0x00, 0x44, 0x72, 0x00, 0x4D, 0x54,
	0x28, 0x3D, 0x00, 0x02, 0x44, 0x00, 0x00, 0x4D, 0x00, 0x05, 0x3A, 0x00,
	0x81, 0x11, 0x30, 0x72, 0x29, 0x30, 0x00, 0x81, 0x17, 0x3C, 0x72, 0x00,
	0x3F, 0x72, 0x00, 0x43, 0x72, 0x00, 0x4F, 0x54, 0x25, 0x3F, 0x00, 0x02,
	0x43, 0x00, 0x00, 0x4F, 0x00, 0x02, 0x3C, 0x00, 0x81, 0x17, 0x30, 0x72,
	0x2F, 0x30, 0x00, 0x81, 0x11, 0x3C, 0x72, 0x00, 0x3F, 0x72, 0x00, 0x43,
	0x72, 0x00, 0x4F, 0x54, 0x28, 0x3F, 0x00, 0x02, 0x43, 0x00, 0x00, 0x4F,
	0x00, 0x05, 0x3C, 0x00, 0x81, 0x11, 0x35, 0x72, 0x29, 0x35, 0x00, 0x81,
	0x17, 0x3C, 0x72, 0x00, 0x41, 0x72, 0x00, 0x44, 0x72, 0x00, 0x50, 0x54,
	0x25, 0x44, 0x00, 0x00, 0x50, 0x00, 0x02, 0x3C, 0x00, 0x02, 0x41, 0x00,
	0x81, 0x17, 0x30, 0x72, 0x2F, 0x30, 0x00, 0x81, 0x11, 0x33, 0x72, 0x00,
	0x3C, 0x72, 0x00, 0x3F, 0x72, 0x00, 0x43, 0x72, 0x00, 0x4F, 0x54, 0x28,
	0x3F, 0x00, 0x02, 0x43, 0x00, 0x00, 0x4F, 0x00, 0x05, 0x33, 0x00, 0x00,
	0x3C, 0x00, 0x81, 0x11, 0x35, 0x72, 0x00, 0x3C, 0x72, 0x00, 0x41, 0x72,
	0x00, 0x44, 0x72, 0x00, 0x50, 0x54, 0x25, 0x44, 0x00, 0x00, 0x50, 0x00,
	0x02, 0x3C, 0x00, 0x02, 0x41, 0x00, 0x06, 0x35, 0x00, 0x85, 0x51, 0x35,
	0x72, 0x29, 0x35, 0x00, 0x81, 0x17, 0x3C, 0x72, 0x00, 0x41, 0x72, 0x00,
	0x44, 0x72, 0x25, 0x41, 0x00, 0x02, 0x44, 0x00, 0x02, 0x3C, 0x00, 0x81,
	0x17, 0x35, 0x72, 0x2F, 0x35, 0x00, 0x81, 0x11, 0x3C, 0x72, 0x00, 0x41,
	0x72, 0x00, 0x44, 0x72, 0x28, 0x41, 0x00, 0x02, 0x44, 0x00, 0x05, 0x3C,
	0x00, 0x81, 0x11, 0x30, 0x72, 0x29, 0x30, 0x00, 0x81, 0x17, 0x3C, 0x72,
	0x00, 0x3F, 0x72, 0x00, 0x43, 0x72, 0x25, 0x3F, 0x00, 0x02, 0x43, 0x00,
	0x02, 0x3C, 0x00, 0x81, 0x17, 0x30, 0x72, 0x2F, 0x30, 0x00, 0x81, 0x11,
	0x3C, 0x72, 0x00, 0x3F, 0x72, 0x00, 0x43, 0x72, 0x28, 0x3F, 0x00, 0x02,
	0x43, 0x00, 0x05, 0x3C, 0x00, 0x81, 0x11, 0x35, 0x72, 0x29, 0x35, 0x00,
	0x81, 0x17, 0x3C, 0x72, 0x00, 0x41, 0x72, 0x00, 0x44, 0x72, 0x25, 0x41,
	0x00, 0x02, 0x44, 0x00, 0x02, 0x3C, 0x00, 0x81, 0x17, 0x35, 0x72, 0x2F,
	0x35, 0x00, 0x81, 0x11, 0x3C, 0x72, 0x00, 0x41, 0x72, 0x00, 0x44, 0x72,
	0x28, 0x41, 0x00, 0x02, 0x44, 0x00, 0x05, 0x3C, 0x00, 0x81, 0x11, 0x30,
	0x72, 0x29, 0x30, 0x00, 0x81, 0x17, 0x3C, 0x72, 0x00, 0x3F, 0x72, 0x00,
	0x43, 0x72, 0x25, 0x3F, 0x00, 0x02, 0x43, 0x00, 0x02, 0x3C, 0x00, 0x81,
	0x17, 0x30, 0x72, 0x2F, 0x30, 0x00, 0x81, 0x11, 0x3C, 0x72, 0x00, 0x3F,
	0x72, 0x00, 0x43, 0x72, 0x28, 0x3F, 0x00, 0x02, 0x43, 0x00, 0x05, 0x3C,
	0x00, 0x81, 0x11, 0x35, 0x72, 0x29, 0x35, 0x00, 0x81, 0x17, 0x3C, 0x72,
	0x00, 0x41, 0x72, 0x00, 0x44, 0x72, 0x25, 0x41, 0x00, 0x02, 0x44, 0x00,
	0x02, 0x3C, 0x00, 0x81, 0x17, 0x35, 0x72, 0x2F, 0x35, 0x00, 0x81, 0x11,
	0x3C, 0x72, 0x00, 0x41, 0x72, 0x00, 0x44, 0x72, 0x28, 0x41, 0x00, 0x02,
	0x44, 0x00, 0x05, 0x3C, 0x00, 0x81, 0x11, 0x30, 0x72, 0x29, 0x30, 0x00,
	0x81, 0x17, 0x3C, 0x72, 0x00, 0x3F, 0x72, 0x00, 0x43, 0x72, 0x25, 0x3F,
	0x00, 0x02, 0x43, 0x00, 0x02, 0x3C, 0x00, 0x81, 0x17, 0x30, 0x72, 0x2F,
	0x30, 0x00, 0x81, 0x11, 0x3C, 0x72, 0x00, 0x3F, 0x72, 0x00, 0x43, 0x72,
	0x28, 0x3F, 0x00, 0x02, 0x43, 0x00, 0x05, 0x3C, 0x00, 0x81, 0x11, 0x35,
	0x72, 0x29, 0x35, 0x00, 0x81, 0x17, 0x3C, 0x72, 0x00, 0x41, 0x72, 0x00,
	0x44, 0x72, 0x25, 0x41, 0x00, 0x02, 0x44, 0x00, 0x02, 0x3C, 0x00, 0x81,
	0x17, 0x35, 0x72, 0x2F, 0x35, 0x00, 0x81, 0x11, 0x3C, 0x72, 0x00, 0x41,
	0x72, 0x00, 0x44, 0x72, 0x28, 0x41, 0x00, 0x02, 0x44, 0x00, 0x05, 0x3C,
	0x00, 0x81, 0x11, 0x30, 0x72, 0x29, 0x30, 0x00, 0x81, 0x17, 0x3C, 0x72,
	0x00, 0x3F, 0x72, 0x00, 0x43, 0x72, 0x25, 0x3F, 0x00, 0x02, 0x43, 0x00,
	0x02, 0x3C, 0x00, 0x81, 0x17, 0x30, 0x72, 0x2F, 0x30, 0x00, 0x81, 0x11,
	0x3C, 0x72, 0x00, 0x3F, 0x72, 0x00, 0x43, 0x72, 0x28, 0x3F, 0x00, 0x02,
	0x43, 0x00, 0x05, 0x3C, 0x00, 0x81, 0x11, 0x2E, 0x72, 0x29, 0x2E, 0x00,
	0x81, 0x17, 0x3A, 0x72, 0x00, 0x3D, 0x72, 0x00, 0x44, 0x72, 0x25, 0x3A,
	0x00, 0x02, 0x3D, 0x00, 0x02, 0x44, 0x00, 0x81, 0x17, 0x2E, 0x72, 0x2F,
	0x2E, 0x00, 0x81, 0x11, 0x3A, 0x72, 0x00, 0x3D, 0x72, 0x00, 0x44, 0x72,
	0x28, 0x3A, 0x00, 0x02, 0x3D, 0x00, 0x05, 0x44, 0x00, 0x81, 0x11, 0x30,
	0x72, 0x29, 0x30, 0x00, 0x81, 0x17, 0x3C, 0x72, 0x00, 0x3F, 0x72, 0x00,
	0x43, 0x72, 0x25, 0x3F, 0x00, 0x02, 0x43, 0x00, 0x02, 0x3C, 0x00, 0x81,
	0x17, 0x30, 0x72, 0x2F, 0x30, 0x00, 0x81, 0x11, 0x3C, 0x72, 0x00, 0x3F,
	0x72, 0x00, 0x43, 0x72, 0x28, 0x3F, 0x00, 0x02, 0x43, 0x00, 0x05, 0x3C,
	0x00, 0x81, 0x11, 0x35, 0x72, 0x29, 0x35, 0x00, 0x81, 0x17, 0x3C, 0x72,
	0x00, 0x41, 0x72, 0x00, 0x44, 0x72, 0x25, 0x44, 0x00, 0x02, 0x3C, 0x00,
	0x02, 0x41, 0x00, 0x81, 0x17, 0x30, 0x72, 0x2F, 0x30, 0x00, 0x81, 0x11,
	0x3C, 0x72, 0x00, 0x3F, 0x72, 0x00, 0x43, 0x72, 0x28, 0x3F, 0x00, 0x02,
	0x43, 0x00, 0x05, 0x3C, 0x00, 0x81, 0x11, 0x3C, 0x72, 0x00, 0x41, 0x72,
	0x00, 0x44, 0x72, 0x25, 0x44, 0x00, 0x02, 0x3C, 0x00, 0x02, 0x41, 0x00,
	0x85, 0x57, 0x35, 0x72, 0x29, 0x35, 0x00, 0x81, 0x17, 0x3C, 0x72, 0x00,
	0x41, 0x72, 0x00, 0x44, 0x72, 0x25, 0x41, 0x00, 0x02, 0x44, 0x00, 0x02,
	0x3C, 0x00, 0x81, 0x17, 0x35, 0x72, 0x2F, 0x35, 0x00, 0x81, 0x11, 0x3C,
	0x72, 0x00, 0x41, 0x72, 0x00, 0x44, 0x72, 0x28, 0x41, 0x00, 0x02, 0x44,
	0x00, 0x05, 0x3C, 0x00, 0x81, 0x11, 0x30, 0x72, 0x29, 0x30, 0x00, 0x81,
	0x17, 0x3C, 0x72, 0x00, 0x3F, 0x72, 0x00, 0x43, 0x72, 0x25, 0x3F, 0x00,
	0x02, 0x43, 0x00, 0x02, 0x3C, 0x00, 0x81, 0x17, 0x30, 0x72, 0x2F, 0x30,
	0x00, 0x81, 0x11, 0x3C, 0x72, 0x00, 0x3F, 0x72, 0x00, 0x43, 0x72, 0x28,
	0x3F, 0x00, 0x02, 0x43, 0x00, 0x05, 0x3C, 0x00, 0x81, 0x11, 0x35, 0x72,
	0x29, 0x35, 0x00, 0x81, 0x17, 0x3C, 0x72, 0x00, 0x41, 0x72, 0x00, 0x44,
	0x72, 0x25, 0x41, 0x00, 0x02, 0x44, 0x00, 0x02, 0x3C, 0x00, 0x81, 0x17,
	0x35, 0x72, 0x2F, 0x35, 0x00, 0x81, 0x11, 0x3C, 0x72, 0x00, 0x41, 0x72,
	0x00, 0x44, 0x72, 0x28, 0x41, 0x00, 0x02, 0x44, 0x00, 0x05, 0x3C, 0x00,
	0x81, 0x11, 0x30, 0x72, 0x29, 0x30, 0x00, 0x81, 0x17, 0x3C, 0x72, 0x00,
	0x3F, 0x72, 0x00, 0x43, 0x72, 0x25, 0x3F, 0x00, 0x02, 0x43, 0x00, 0x02,
	0x3C, 0x00, 0x81, 0x17, 0x30, 0x72, 0x2F, 0x30, 0x00, 0x81, 0x11, 0x3C,
	0x72, 0x00, 0x3F, 0x72, 0x00, 0x43, 0x72, 0x28, 0x3F, 0x00, 0x02, 0x43,
	0x00, 0x05, 0x3C, 0x00, 0x81, 0x11, 0x35, 0x72, 0x29, 0x35, 0x00, 0x81,
	0x17, 0x3C, 0x72, 0x00, 0x41, 0x72, 0x00, 0x44, 0x72, 0x25, 0x41, 0x00,
	0x02, 0x44, 0x00, 0x02, 0x3C, 0x00, 0x81, 0x17, 0x35, 0x72, 0x2F, 0x35,
	0x00, 0x81, 0x11, 0x3C, 0x72, 0x00, 0x41, 0x72, 0x00, 0x44, 0x72, 0x28,
	0x41, 0x00, 0x02, 0x44, 0x00, 0x05, 0x3C, 0x00, 0x81, 0x11, 0x30, 0x72,
	0x29, 0x30, 0x00, 0x81, 0x17, 0x3C, 0x72, 0x00, 0x3F, 0x72, 0x00, 0x43,
	0x72, 0x25, 0x3F, 0x00, 0x02, 0x43, 0x00, 0x02, 0x3C, 0x00, 0x81, 0x17,
	0x30, 0x72, 0x2F, 0x30, 0x00, 0x81, 0x11, 0x3C, 0x72, 0x00, 0x3F, 0x72,
	0x00, 0x43, 0x72, 0x28, 0x3F, 0x00, 0x02, 0x43, 0x00, 0x05, 0x3C, 0x00,
	0x81, 0x11, 0x35, 0x72, 0x29, 0x35, 0x00, 0x81, 0x17, 0x3C, 0x72, 0x00,
	0x41, 0x72, 0x00, 0x44, 0x72, 0x25, 0x41, 0x00, 0x02, 0x44, 0x00, 0x02,
	0x3C, 0x00, 0x81, 0x17, 0x35, 0x72, 0x2F, 0x35, 0x00, 0x81, 0x11, 0x3C,
	0x72, 0x00, 0x41, 0x72, 0x00, 0x44, 0x72, 0x28, 0x41, 0x00, 0x02, 0x44,
	0x00, 0x05, 0x3C, 0x00, 0x81, 0x11, 0x30, 0x72, 0x29, 0x30, 0x00, 0x81,
	0x17, 0x3C, 0x72, 0x00, 0x3F, 0x72, 0x00, 0x43, 0x72, 0x25, 0x3F, 0x00,
	0x02, 0x43, 0x00, 0x02, 0x3C, 0x00, 0x81, 0x17, 0x30, 0x72, 0x2F, 0x30,
	0x00, 0x81, 0x11, 0x3C, 0x72, 0x00, 0x3F, 0x72, 0x00, 0x43, 0x72, 0x28,
	0x3F, 0x00, 0x02, 0x43, 0x00, 0x05, 0x3C, 0x00, 0x81, 0x11, 0x2E, 0x72,
	0x29, 0x2E, 0x00, 0x81, 0x17, 0x3A, 0x72, 0x00, 0x3D, 0x72, 0x00, 0x44,
	0x72, 0x25, 0x3A, 0x00, 0x02, 0x3D, 0x00, 0x02, 0x44, 0x00, 0x81, 0x17,
	0x2E, 0x72, 0x2F, 0x2E, 0x00, 0x81, 0x11, 0x3A, 0x72, 0x00, 0x3D, 0x72,
	0x00, 0x44, 0x72, 0x28, 0x3A, 0x00, 0x02, 0x3D, 0x00, 0x05, 0x44, 0x00,
	0x81, 0x11, 0x30, 0x72, 0x29, 0x30, 0x00, 0x81, 0x17, 0x3C, 0x72, 0x00,
	0x3F, 0x72, 0x00, 0x43, 0x72, 0x25, 0x3F, 0x00, 0x02, 0x43, 0x00, 0x02,
	0x3C, 0x00, 0x81, 0x17, 0x30, 0x72, 0x2F, 0x30, 0x00, 0x81, 0x11, 0x3C,
	0x72, 0x00, 0x3F, 0x72, 0x00, 0x43, 0x72, 0x28, 0x3F, 0x00, 0x02, 0x43,
	0x00, 0x05, 0x3C, 0x00, 0x81, 0x11, 0x35, 0x72, 0x29, 0x35, 0x00, 0x81,
	0x17, 0x3C, 0x72, 0x00, 0x41, 0x72, 0x00, 0x44, 0x72, 0x25, 0x44, 0x00,
	0x02, 0x3C, 0x00, 0x02, 0x41, 0x00, 0x81, 0x17, 0x30, 0x72, 0x2F, 0x30,
	0x00, 0x81, 0x11, 0x3C, 0x72, 0x00, 0x3F, 0x72, 0x00, 0x43, 0x72, 0x28,
	0x3F, 0x00, 0x02, 0x43, 0x00, 0x05, 0x3C, 0x00, 0x81, 0x11, 0x3C, 0x72,
	0x00, 0x41, 0x72, 0x00, 0x44, 0x72, 0x25, 0x44, 0x00, 0x02, 0x3C, 0x00,
	0x02, 0x41, 0x00, 0xE5, 0x57, 0x35, 0x72, 0x29, 0x35, 0x00, 0x81, 0x17,
	0x3C, 0x72, 0x00, 0x41, 0x72, 0x00, 0x44, 0x72, 0x25, 0x41, 0x00, 0x02,
	0x44, 0x00, 0x02, 0x3C, 0x00, 0x81, 0x17, 0x35, 0x72, 0x2F, 0x35, 0x00,
	0x81, 0x11, 0x3C, 0x72, 0x00, 0x41, 0x72, 0x00, 0x44, 0x72, 0x28, 0x41,
	0x00, 0x02, 0x44, 0x00, 0x05, 0x3C, 0x00, 0x81, 0x11, 0x30, 0x72, 0x29,
	0x30, 0x00, 0x81, 0x17, 0x3C, 0x72, 0x00, 0x3F, 0x72, 0x00, 0x43, 0x72,
	0x25, 0x3F, 0x00, 0x02, 0x43, 0x00, 0x02, 0x3C, 0x00, 0x81, 0x17, 0x30,
	0x72, 0x2F, 0x30, 0x00, 0x81, 0x11, 0x3C, 0x72, 0x00, 0x3F, 0x72, 0x00,
	0x43, 0x72, 0x28, 0x3F, 0x00, 0x02, 0x43, 0x00, 0x05, 0x3C, 0x00, 0x81,
	0x11, 0x35, 0x72, 0x29, 0x35, 0x00, 0x81, 0x17, 0x3C, 0x72, 0x00, 0x41,
	0x72, 0x00, 0x44, 0x72, 0x25, 0x41, 0x00, 0x02, 0x44, 0x00, 0x02, 0x3C,
	0x00, 0x81, 0x17, 0x35, 0x72, 0x2F, 0x35, 0x00, 0x81, 0x11, 0x3C, 0x72,
	0x00, 0x41, 0x72, 0x00, 0x44, 0x72, 0x28, 0x41, 0x00, 0x02, 0x44, 0x00,
	0x05, 0x3C, 0x00, 0x81, 0x11, 0x30, 0x72, 0x29, 0x30, 0x00, 0x81, 0x17,
	0x3C, 0x72, 0x00, 0x3F, 0x72, 0x00, 0x43, 0x72, 0x25, 0x3F, 0x00, 0x02,
	0x43, 0x00, 0x02, 0x3C, 0x00, 0x81, 0x17, 0x30, 0x72, 0x2F, 0x30, 0x00,
	0x81, 0x11, 0x3C, 0x72, 0x00, 0x3F, 0x72, 0x00, 0x43, 0x72, 0x28, 0x3F,
	0x00, 0x02, 0x43, 0x00, 0x05, 0x3C, 0x00, 0x81, 0x11, 0x2E, 0x72, 0x29,
	0x2E, 0x00, 0x81, 0x17, 0x3A, 0x72, 0x00, 0x3D, 0x72, 0x00, 0x44, 0x72,
	0x25, 0x3A, 0x00, 0x02, 0x3D, 0x00, 0x02, 0x44, 0x00, 0x81, 0x17, 0x2E,
	0x72, 0x2F, 0x2E, 0x00, 0x81, 0x11, 0x3A, 0x72, 0x00, 0x3D, 0x72, 0x00,
	0x44, 0x72, 0x28, 0x3A, 0x00, 0x02, 0x3D, 0x00, 0x05, 0x44, 0x00, 0x81,
	0x11, 0x30, 0x72, 0x29, 0x30, 0x00, 0x81, 0x17, 0x3C, 0x72, 0x00, 0x3F,
	0x72, 0x00, 0x43, 0x72, 0x25, 0x3F, 0x00, 0x02, 0x43, 0x00, 0x02, 0x3C,
	0x00, 0x81, 0x17, 0x30, 0x72, 0x2F, 0x30, 0x00, 0x81, 0x11, 0x3C, 0x72,
	0x00, 0x3F, 0x72, 0x00, 0x43, 0x72, 0x28, 0x3F, 0x00, 0x02, 0x43, 0x00,
	0x05, 0x3C, 0x00, 0x81, 0x11, 0x35, 0x72, 0x29, 0x35, 0x00, 0x81, 0x17,
	0x3C, 0x72, 0x00, 0x41, 0x72, 0x00, 0x44, 0x72, 0x25, 0x44, 0x00, 0x02,
	0x3C, 0x00, 0x02, 0x41, 0x00, 0x81, 0x17, 0x30, 0x72, 0x2F, 0x30, 0x00,
	0x81, 0x11, 0x3C, 0x72, 0x00, 0x3F, 0x72, 0x00, 0x43, 0x72, 0x28, 0x3F,
	0x00, 0x02, 0x43, 0x00, 0x05, 0x3C, 0x00, 0x81, 0x11, 0x3C, 0x72, 0x00,
	0x41, 0x72, 0x00, 0x44, 0x72, 0x25, 0x44, 0x00, 0x02, 0x3C, 0x00, 0x02,
	0x41, 0x00, 0x85, 0x57, 0x35, 0x72, 0x29, 0x35, 0x00, 0x81, 0x17, 0x3C,
	0x72, 0x00, 0x41, 0x72, 0x00, 0x44, 0x72, 0x25, 0x41, 0x00, 0x02, 0x44,
	0x00, 0x02, 0x3C, 0x00, 0x81, 0x17, 0x35, 0x72, 0x2F, 0x35, 0x00, 0x81,
	0x11, 0x3C, 0x72, 0x00, 0x41, 0x72, 0x00, 0x44, 0x72, 0x28, 0x41, 0x00,
	0x02, 0x44, 0x00, 0x05, 0x3C, 0x00, 0x81, 0x11, 0x30, 0x72, 0x29, 0x30,
	0x00, 0x81, 0x17, 0x3C, 0x72, 0x00, 0x3F, 0x72, 0x00, 0x43, 0x72, 0x25,
	0x3F, 0x00, 0x02, 0x43, 0x00, 0x02, 0x3C, 0x00, 0x81, 0x17, 0x30, 0x72,
	0x2F, 0x30, 0x00, 0x81, 0x11, 0x3C, 0x72, 0x00, 0x3F, 0x72, 0x00, 0x43,
	0x72, 0x28, 0x3F, 0x00, 0x02, 0x43, 0x00, 0x05, 0x3C, 0x00, 0x81, 0x11,
	0x35, 0x72, 0x29, 0x35, 0x00, 0x81, 0x17, 0x3C, 0x72, 0x00, 0x41, 0x72,
	0x00, 0x44, 0x72, 0x25, 0x41, 0x00, 0x02, 0x44, 0x00, 0x02, 0x3C, 0x00,
	0x81, 0x17, 0x35, 0x72, 0x2F, 0x35, 0x00, 0x81, 0x11, 0x3C, 0x72, 0x00,
	0x41, 0x72, 0x00, 0x44, 0x72, 0x28, 0x41, 0x00, 0x02, 0x44, 0x00, 0x05,
	0x3C, 0x00, 0x81, 0x11, 0x30, 0x72, 0x29, 0x30, 0x00, 0x81, 0x17, 0x3C,
	0x72, 0x00, 0x3F, 0x72, 0x00, 0x43, 0x72, 0x25, 0x3F, 0x00, 0x02, 0x43,
	0x00, 0x02, 0x3C, 0x00, 0x81, 0x17, 0x30, 0x72, 0x2F, 0x30, 0x00, 0x81,
	0x11, 0x3C, 0x72, 0x00, 0x3F, 0x72, 0x00, 0x43, 0x72, 0x28, 0x3F, 0x00,
	0x02, 0x43, 0x00, 0x05, 0x3C, 0x00, 0x81, 0x11, 0x35, 0x72, 0x29, 0x35,
	0x00, 0x81, 0x17, 0x3C, 0x72, 0x00, 0x41, 0x72, 0x00, 0x44, 0x72, 0x25,
	0x41, 0x00, 0x02, 0x44, 0x00, 0x02, 0x3C, 0x00, 0x81, 0x17, 0x35, 0x72,
	0x2F, 0x35, 0x00, 0x81, 0x11, 0x3C, 0x72, 0x00, 0x41, 0x72, 0x00, 0x44,
	0x72, 0x28, 0x41, 0x00, 0x02, 0x44, 0x00, 0x05, 0x3C, 0x00, 0x81, 0x11,
	0x30, 0x72, 0x29, 0x30, 0x00, 0x81, 0x17, 0x3C, 0x72, 0x00, 0x3F, 0x72,
	0x00, 0x43, 0x72, 0x25, 0x3F, 0x00, 0x02, 0x43, 0x00, 0x02, 0x3C, 0x00,
	0x81, 0x17, 0x30, 0x72, 0x2F, 0x30, 0x00, 0x81, 0x11, 0x3C, 0x72, 0x00,
	0x3F, 0x72, 0x00, 0x43, 0x72, 0x28, 0x3F, 0x00, 0x02, 0x43, 0x00, 0x05,
	0x3C, 0x00, 0x81, 0x11, 0x35, 0x72, 0x29, 0x35, 0x00, 0x81, 0x17, 0x3C,
	0x72, 0x00, 0x41, 0x72, 0x00, 0x44, 0x72, 0x25, 0x41, 0x00, 0x02, 0x44,
	0x00, 0x02, 0x3C, 0x00, 0x81, 0x17, 0x35, 0x72, 0x2F, 0x35, 0x00, 0x81,
	0x11, 0x3C, 0x72, 0x00, 0x41, 0x72, 0x00, 0x44, 0x72, 0x28, 0x41, 0x00,
	0x02, 0x44, 0x00, 0x05, 0x3C, 0x00, 0x81, 0x11, 0x30, 0x72, 0x29, 0x30,
	0x00, 0x81, 0x17, 0x3C, 0x72, 0x00, 0x3F, 0x72, 0x00, 0x43, 0x72, 0x25,
	0x3F, 0x00, 0x02, 0x43, 0x00, 0x02, 0x3C, 0x00, 0x81, 0x17, 0x30, 0x72,
	0x2F, 0x30, 0x00, 0x81, 0x11, 0x3C, 0x72, 0x00, 0x3F, 0x72, 0x00, 0x43,
	0x72, 0x28, 0x3F, 0x00, 0x02, 0x43, 0x00, 0x05, 0x3C, 0x00, 0x81, 0x11,
	0x2E, 0x72, 0x29, 0x2E, 0x00, 0x81, 0x17, 0x3A, 0x72, 0x00, 0x3D, 0x72,
	0x00, 0x44, 0x72, 0x25, 0x3A, 0x00, 0x02, 0x3D, 0x00, 0x02, 0x44, 0x00,
	0x81, 0x17, 0x2E, 0x72, 0x2F, 0x2E, 0x00, 0x81, 0x11, 0x3A, 0x72, 0x00,
	0x3D, 0x72, 0x00, 0x44, 0x72, 0x28, 0x3A, 0x00, 0x02, 0x3D, 0x00, 0x05,
	0x44, 0x00, 0x81, 0x11, 0x30, 0x72, 0x29, 0x30, 0x00, 0x81, 0x17, 0x3C,
	0x72, 0x00, 0x3F, 0x72, 0x00, 0x43, 0x72, 0x25, 0x3F, 0x00, 0x02, 0x43,
	0x00, 0x02, 0x3C, 0x00, 0x81, 0x17, 0x30, 0x72, 0x2F, 0x30, 0x00, 0x81,
	0x11, 0x3C, 0x72, 0x00, 0x3F, 0x72, 0x00, 0x43, 0x72, 0x28, 0x3F, 0x00,
	0x02, 0x43, 0x00, 0x05, 0x3C, 0x00, 0x81, 0x11, 0x35, 0x72, 0x29, 0x35,
	0x00, 0x81, 0x17, 0x3C, 0x72, 0x00, 0x41, 0x72, 0x00, 0x44, 0x72, 0x25,
	0x44, 0x00, 0x02, 0x3C, 0x00, 0x02, 0x41, 0x00, 0x81, 0x17, 0x30, 0x72,
	0x2F, 0x30, 0x00, 0x81, 0x11, 0x3C, 0x72, 0x00, 0x3F, 0x72, 0x00, 0x43,
	0x72, 0x28, 0x3F, 0x00, 0x02, 0x43, 0x00, 0x05, 0x3C, 0x00, 0x81, 0x11,
	0x3C, 0x72, 0x00, 0x41, 0x72, 0x00, 0x44, 0x72, 0x25, 0x44, 0x00, 0x02,
	0x3C, 0x00, 0x02, 0x41, 0x00, 0x85, 0x57, 0x30, 0x72, 0x00, 0x3C, 0x72,
	0x2A, 0x30, 0x00, 0x00, 0x3C, 0x00, 0x81, 0x16, 0x43, 0x72, 0x2A, 0x43,
	0x00, 0x81, 0x16, 0x40, 0x72, 0x28, 0x40, 0x00, 0x81, 0x18, 0x3C, 0x72,
	0x00, 0x48, 0x72, 0x2F, 0x3C, 0x00, 0x00, 0x48, 0x00, 0x82, 0x51, 0x43,
	0x72, 0x2A, 0x43, 0x00, 0x81, 0x16, 0x40, 0x72, 0x28, 0x40, 0x00, 0x81,
	0x18, 0x3C, 0x72, 0x00, 0x48, 0x72, 0x2F, 0x3C, 0x00, 0x00, 0x48, 0x00,
	0x82, 0x51, 0x44, 0x72, 0x2A, 0x44, 0x00, 0x81, 0x16, 0x41, 0x72, 0x28,
	0x41, 0x00, 0x81, 0x18, 0x3C, 0x72, 0x00, 0x48, 0x72, 0x2F, 0x3C, 0x00,
	0x00, 0x48, 0x00, 0x82, 0x51, 0x44, 0x72, 0x2A, 0x44, 0x00, 0x81, 0x16,
	0x41, 0x72, 0x28, 0x41, 0x00, 0x81, 0x18, 0x3C, 0x72, 0x00, 0x48, 0x72,
	0x2F, 0x3C, 0x00, 0x00, 0x48, 0x00, 0x82, 0x51, 0x43, 0x72, 0x2A, 0x43,
	0x00, 0x81, 0x16, 0x3F, 0x72, 0x28, 0x3F, 0x00, 0x81, 0x18, 0x3A, 0x72,
	0x00, 0x46, 0x72, 0x2F, 0x3A, 0x00, 0x00, 0x46, 0x00, 0x82, 0x51, 0x43,
	0x72, 0x2A, 0x43, 0x00, 0x81, 0x16, 0x3F, 0x72, 0x28, 0x3F, 0x00, 0x81,
	0x18, 0x3A, 0x72, 0x00, 0x46, 0x72, 0x2F, 0x3A, 0x00, 0x00, 0x46, 0x00,
	0x82, 0x51, 0x3C, 0x72, 0x2A, 0x3C, 0x00, 0x81, 0x16, 0x3F, 0x72, 0x00,
	0x46, 0x67, 0x28, 0x3F, 0x00, 0x00, 0x46, 0x00, 0x81, 0x18, 0x3C, 0x72,
	0x00, 0x44, 0x72, 0x2F, 0x3C, 0x00, 0x00, 0x44, 0x00, 0x81, 0x11, 0x34,
	0x78, 0x00, 0x3C, 0x72, 0x2A, 0x34, 0x00, 0x00, 0x3C, 0x00, 0x81, 0x16,
	0x3C, 0x72, 0x00, 0x40, 0x72, 0x00, 0x43, 0x6B, 0x28, 0x3C, 0x00, 0x00,
	0x40, 0x00, 0x00, 0x43, 0x00, 0x81, 0x18, 0x30, 0x74, 0x00, 0x3C, 0x72,
	0x00, 0x40, 0x72, 0x00, 0x43, 0x6F, 0x2A, 0x30, 0x00, 0x05, 0x3C, 0x00,
	0x00, 0x40, 0x00, 0x00, 0x43, 0x00, 0x82, 0x51, 0x35, 0x72, 0x29, 0x35,
	0x00, 0x81, 0x17, 0x3C, 0x72, 0x00, 0x41, 0x72, 0x00, 0x44, 0x72, 0x25,
	0x41, 0x00, 0x02, 0x44, 0x00, 0x02, 0x3C, 0x00, 0x81, 0x17, 0x35, 0x72,
	0x2F, 0x35, 0x00, 0x81, 0x11, 0x3C, 0x72, 0x00, 0x41, 0x72, 0x00, 0x44,
	0x72, 0x28, 0x41, 0x00, 0x02, 0x44, 0x00, 0x05, 0x3C, 0x00, 0x81, 0x11,
	0x30, 0x72, 0x29, 0x30, 0x00, 0x81, 0x17, 0x3C, 0x72, 0x00, 0x3F, 0x72,
	0x00, 0x43, 0x72, 0x25, 0x3F, 0x00, 0x02, 0x43, 0x00, 0x02, 0x3C, 0x00,
	0x81, 0x17, 0x30, 0x72, 0x2F, 0x30, 0x00, 0x81, 0x11, 0x3C, 0x72, 0x00,
	0x3F, 0x72, 0x00, 0x43, 0x72, 0x28, 0x3F, 0x00, 0x02, 0x43, 0x00, 0x05,
	0x3C, 0x00, 0x81, 0x11, 0x35, 0x72, 0x29, 0x35, 0x00, 0x81, 0x17, 0x3C,
	0x72, 0x00, 0x41, 0x72, 0x00, 0x44, 0x72, 0x25, 0x41, 0x00, 0x02, 0x44,
	0x00, 0x02, 0x3C, 0x00, 0x81, 0x17, 0x35, 0x72, 0x2F, 0x35, 0x00, 0x81,
	0x11, 0x3C, 0x72, 0x00, 0x41, 0x72, 0x00, 0x44, 0x72, 0x28, 0x41, 0x00,
	0x02, 0x44, 0x00, 0x05, 0x3C, 0x00, 0x81, 0x11, 0x30, 0x72, 0x29, 0x30,
	0x00, 0x81, 0x17, 0x3C, 0x72, 0x00, 0x3F, 0x72, 0x00, 0x43, 0x72, 0x25,
	0x3F, 0x00, 0x02, 0x43, 0x00, 0x02, 0x3C, 0x00, 0x81, 0x17, 0x30, 0x72,
	0x2F, 0x30, 0x00, 0x81, 0x11, 0x3C, 0x72, 0x00, 0x3F, 0x72, 0x00, 0x43,
	0x72, 0x28, 0x3F, 0x00, 0x02, 0x43, 0x00, 0x05, 0x3C, 0x00, 0x81, 0x11,
	0x2E, 0x72, 0x29, 0x2E, 0x00, 0x81, 0x17, 0x3A, 0x72, 0x00, 0x3D, 0x72,
	0x00, 0x44, 0x72, 0x25, 0x3A, 0x00, 0x02, 0x3D, 0x00, 0x02, 0x44, 0x00,
	0x81, 0x17, 0x2E, 0x72, 0x2F, 0x2E, 0x00, 0x81, 0x11, 0x3A, 0x72, 0x00,
	0x3D, 0x72, 0x00, 0x44, 0x72, 0x28, 0x3A, 0x00, 0x02, 0x3D, 0x00, 0x05,
	0x44, 0x00, 0x81, 0x11, 0x30, 0x72, 0x29, 0x30, 0x00, 0x81, 0x17, 0x3C,
	0x72, 0x00, 0x3F, 0x72, 0x00, 0x43, 0x72, 0x25, 0x3F, 0x00, 0x02, 0x43,
	0x00, 0x02, 0x3C, 0x00, 0x81, 0x17, 0x30, 0x72, 0x2F, 0x30, 0x00, 0x81,
	0x11, 0x3C, 0x72, 0x00, 0x3F, 0x72, 0x00, 0x43, 0x72, 0x28, 0x3F, 0x00,
	0x02, 0x43, 0x00, 0x05, 0x3C, 0x00, 0x81, 0x11, 0x35, 0x72, 0x29, 0x35,
	0x00, 0x81, 0x17, 0x3C, 0x72, 0x00, 0x41, 0x72, 0x00, 0x44, 0x72, 0x25,
	0x44, 0x00, 0x02, 0x3C, 0x00, 0x02, 0x41, 0x00, 0x81, 0x17, 0x30, 0x72,
	0x2F, 0x30, 0x00, 0x81, 0x11, 0x3C, 0x72, 0x00, 0x3F, 0x72, 0x00, 0x43,
	0x72, 0x28, 0x3F, 0x00, 0x02, 0x43, 0x00, 0x05, 0x3C, 0x00, 0x81, 0x11,
	0x3C, 0x72, 0x00, 0x41, 0x72, 0x00, 0x44, 0x72, 0x25, 0x44, 0x00, 0x02,
	0x3C, 0x00, 0x02, 0x41, 0x00, 0x00, 0xFF, 0x2F, 0x00, 0x4D, 0x54, 0x72,
	0x6B, 0x00, 0x00, 0x04, 0xF8, 0x0D, 0xB7, 0x79, 0x00, 0x10, 0x00, 0x00,
	0x81, 0x10, 0xC7, 0x3A, 0x60, 0xB7, 0x07, 0x69, 0x31, 0x01, 0x00, 0x03,
	0x02, 0x00, 0x0A, 0x05, 0x00, 0x22, 0x0A, 0x28, 0x02, 0x0B, 0x7F, 0x02,
	0x40, 0x00, 0x05, 0x41, 0x00, 0x57, 0x5B, 0x5B, 0x60, 0x5D, 0x59, 0x30,
	0xE7, 0x00, 0x40, 0x30, 0xB7, 0x65, 0x00, 0x00, 0x64, 0x00, 0x30, 0x06,
	0x02, 0xB6, 0x30, 0x97, 0x29, 0x69, 0x3F, 0x29, 0x00, 0x82, 0x41, 0x24,
	0x69, 0x82, 0x0D, 0x24, 0x00, 0x13, 0x29, 0x69, 0x48, 0x29, 0x00, 0x18,
	0x30, 0x69, 0x3C, 0x30, 0x00, 0x82, 0x44, 0x24, 0x69, 0x82, 0x13, 0x24,
	0x00, 0x0D, 0x27, 0x69, 0x48, 0x27, 0x00, 0x18, 0x29, 0x69, 0x3F, 0x29,
	0x00, 0x82, 0x41, 0x24, 0x69, 0x82, 0x0D, 0x24, 0x00, 0x13, 0x29, 0x69,
	0x48, 0x29, 0x00, 0x18, 0x30, 0x69, 0x3C, 0x30, 0x00, 0x82, 0x44, 0x24,
	0x69, 0x82, 0x13, 0x24, 0x00, 0x0D, 0x27, 0x69, 0x48, 0x27, 0x00, 0x18,
	0x29, 0x69, 0x3F, 0x29, 0x00, 0x82, 0x41, 0x24, 0x69, 0x82, 0x0D, 0x24,
	0x00, 0x13, 0x29, 0x69, 0x48, 0x29, 0x00, 0x18, 0x30, 0x69, 0x3C, 0x30,
	0x00, 0x82, 0x44, 0x24, 0x69, 0x82, 0x13, 0x24, 0x00, 0x0D, 0x27, 0x69,
	0x48, 0x27, 0x00, 0x18, 0x29, 0x69, 0x3F, 0x29, 0x00, 0x82, 0x41, 0x24,
	0x69, 0x82, 0x0D, 0x24, 0x00, 0x13, 0x29, 0x69, 0x48, 0x29, 0x00, 0x18,
	0x30, 0x69, 0x3C, 0x30, 0x00, 0x82, 0x44, 0x24, 0x69, 0x82, 0x13, 0x24,
	0x00, 0x0D, 0x23, 0x69, 0x48, 0x23, 0x00, 0x18, 0x22, 0x69, 0x3F, 0x22,
	0x00, 0x82, 0x41, 0x29, 0x69, 0x82, 0x0D, 0x29, 0x00, 0x13, 0x27, 0x69,
	0x48, 0x27, 0x00, 0x18, 0x24, 0x69, 0x3C, 0x24, 0x00, 0x82, 0x44, 0x2B,
	0x69, 0x82, 0x13, 0x2B, 0x00, 0x0D, 0x27, 0x69, 0x48, 0x27, 0x00, 0x18,
	0x29, 0x69, 0x3F, 0x29, 0x00, 0x82, 0x41, 0x24, 0x69, 0x4D, 0x24, 0x00,
	0x73, 0x27, 0x69, 0x48, 0x27, 0x00, 0x78, 0x29, 0x69, 0x3C, 0x29, 0x00,
	0x85, 0x44, 0x29, 0x69, 0x3F, 0x29, 0x00, 0x82, 0x41, 0x24, 0x69, 0x82,
	0x0D, 0x24, 0x00, 0x13, 0x29, 0x69, 0x48, 0x29, 0x00, 0x18, 0x30, 0x69,
	0x3C, 0x30, 0x00, 0x82, 0x44, 0x24, 0x69, 0x82, 0x13, 0x24, 0x00, 0x0D,
	0x27, 0x69, 0x48, 0x27, 0x00, 0x18, 0x29, 0x69, 0x3F, 0x29, 0x00, 0x82,
	0x41, 0x24, 0x69, 0x82, 0x0D, 0x24, 0x00, 0x13, 0x29, 0x69, 0x48, 0x29,
	0x00, 0x18, 0x30, 0x69, 0x3C, 0x30, 0x00, 0x82, 0x44, 0x24, 0x69, 0x82,
	0x13, 0x24, 0x00, 0x0D, 0x27, 0x69, 0x48, 0x27, 0x00, 0x18, 0x29, 0x69,
	0x3F, 0x29, 0x00, 0x82, 0x41, 0x24, 0x69, 0x82, 0x0D, 0x24, 0x00, 0x13,
	0x29, 0x69, 0x48, 0x29, 0x00, 0x18, 0x30, 0x69, 0x3C, 0x30, 0x00, 0x82,
	0x44, 0x24, 0x69, 0x82, 0x13, 0x24, 0x00, 0x0D, 0x27, 0x69, 0x48, 0x27,
	0x00, 0x18, 0x29, 0x69, 0x3F, 0x29, 0x00, 0x82, 0x41, 0x24, 0x69, 0x82,
	0x0D, 0x24, 0x00, 0x13, 0x29, 0x69, 0x48, 0x29, 0x00, 0x18, 0x30, 0x69,
	0x3C, 0x30, 0x00, 0x82, 0x44, 0x24, 0x69, 0x82, 0x13, 0x24, 0x00, 0x0D,
	0x23, 0x69, 0x48, 0x23, 0x00, 0x18, 0x22, 0x69, 0x3F, 0x22, 0x00, 0x82,
	0x41, 0x29, 0x69, 0x82, 0x0D, 0x29, 0x00, 0x13, 0x27, 0x69, 0x48, 0x27,
	0x00, 0x18, 0x24, 0x69, 0x3C, 0x24, 0x00, 0x82, 0x44, 0x2B, 0x69, 0x82,
	0x13, 0x2B, 0x00, 0x0D, 0x27, 0x69, 0x48, 0x27, 0x00, 0x18, 0x29, 0x69,
	0x3F, 0x29, 0x00, 0x82, 0x41, 0x24, 0x69, 0x4D, 0x24, 0x00, 0x73, 0x27,
	0x69, 0x48, 0x27, 0x00, 0x78, 0x29, 0x69, 0x3C, 0x29, 0x00, 0xE5, 0x44,
	0x29, 0x69, 0x3F, 0x29, 0x00, 0x82, 0x41, 0x24, 0x69, 0x82, 0x0D, 0x24,
	0x00, 0x13, 0x29, 0x69, 0x48, 0x29, 0x00, 0x18, 0x30, 0x69, 0x3C, 0x30,
	0x00, 0x82, 0x44, 0x24, 0x69, 0x82, 0x13, 0x24, 0x00, 0x0D, 0x27, 0x69,
	0x48, 0x27, 0x00, 0x18, 0x29, 0x69, 0x3F, 0x29, 0x00, 0x82, 0x41, 0x24,
	0x69, 0x82, 0x0D, 0x24, 0x00, 0x13, 0x29, 0x69, 0x48, 0x29, 0x00, 0x18,
	0x30, 0x69, 0x3C, 0x30, 0x00, 0x82, 0x44, 0x24, 0x69, 0x81, 0x33, 0x24,
	0x00, 0x0D, 0x23, 0x69, 0x81, 0x28, 0x23, 0x00, 0x18, 0x22, 0x69, 0x3F,
	0x22, 0x00, 0x82, 0x41, 0x29, 0x69, 0x82, 0x0D, 0x29, 0x00, 0x13, 0x27,
	0x69, 0x48, 0x27, 0x00, 0x18, 0x24, 0x69, 0x3C, 0x24, 0x00, 0x82, 0x44,
	0x2B, 0x69, 0x82, 0x13, 0x2B, 0x00, 0x0D, 0x27, 0x69, 0x48, 0x27, 0x00,
	0x18, 0x29, 0x69, 0x3F, 0x29, 0x00, 0x82, 0x41, 0x24, 0x69, 0x4D, 0x24,
	0x00, 0x73, 0x27, 0x69, 0x48, 0x27, 0x00, 0x78, 0x29, 0x69, 0x3C, 0x29,
	0x00, 0x85, 0x44, 0x29, 0x69, 0x3F, 0x29, 0x00, 0x82, 0x41, 0x24, 0x69,
	0x82, 0x0D, 0x24, 0x00, 0x13, 0x29, 0x69, 0x48, 0x29, 0x00, 0x18, 0x30,
	0x69, 0x3C, 0x30, 0x00, 0x82, 0x44, 0x24, 0x69, 0x82, 0x13, 0x24, 0x00,
	0x0D, 0x27, 0x69, 0x48, 0x27, 0x00, 0x18, 0x29, 0x69, 0x3F, 0x29, 0x00,
	0x82, 0x41, 0x24, 0x69, 0x82, 0x0D, 0x24, 0x00, 0x13, 0x29, 0x69, 0x48,
	0x29, 0x00, 0x18, 0x30, 0x69, 0x3C, 0x30, 0x00, 0x82, 0x44, 0x24, 0x69,
	0x82, 0x13, 0x24, 0x00, 0x0D, 0x27, 0x69, 0x48, 0x27, 0x00, 0x18, 0x29,
	0x69, 0x3F, 0x29, 0x00, 0x82, 0x41, 0x24, 0x69, 0x82, 0x0D, 0x24, 0x00,
	0x13, 0x29, 0x69, 0x48, 0x29, 0x00, 0x18, 0x30, 0x69, 0x3C, 0x30, 0x00,
	0x82, 0x44, 0x24, 0x69, 0x82, 0x13, 0x24, 0x00, 0x0D, 0x27, 0x69, 0x48,
	0x27, 0x00, 0x18, 0x29, 0x69, 0x3F, 0x29, 0x00, 0x82, 0x41, 0x24, 0x69,
	0x82, 0x0D, 0x24, 0x00, 0x13, 0x29, 0x69, 0x48, 0x29, 0x00, 0x18, 0x30,
	0x69, 0x3C, 0x30, 0x00, 0x82, 0x44, 0x24, 0x69, 0x82, 0x13, 0x24, 0x00,
	0x0D, 0x23, 0x69, 0x48, 0x23, 0x00, 0x18, 0x22, 0x69, 0x3F, 0x22, 0x00,
	0x82, 0x41, 0x29, 0x69, 0x82, 0x0D, 0x29, 0x00, 0x13, 0x27, 0x69, 0x48,
	0x27, 0x00, 0x18, 0x24, 0x69, 0x3C, 0x24, 0x00, 0x82, 0x44, 0x2B, 0x69,
	0x82, 0x13, 0x2B, 0x00, 0x0D, 0x27, 0x69, 0x48, 0x27, 0x00, 0x18, 0x29,
	0x69, 0x3F, 0x29, 0x00, 0x82, 0x41, 0x24, 0x69, 0x4D, 0x24, 0x00, 0x73,
	0x27, 0x69, 0x48, 0x27, 0x00, 0x78, 0x29, 0x69, 0x3C, 0x29, 0x00, 0x24,
	0x20, 0x73, 0x3C, 0x20, 0x00, 0x24, 0x22, 0x73, 0x38, 0x22, 0x00, 0x28,
	0x24, 0x73, 0x4D, 0x24, 0x00, 0x13, 0x25, 0x73, 0x58, 0x25, 0x00, 0x08,
	0x24, 0x73, 0x58, 0x24, 0x00, 0x08, 0x22, 0x73, 0x58, 0x22, 0x00, 0x08,
	0x23, 0x73, 0x58, 0x23, 0x00, 0x08, 0x24, 0x72, 0x51, 0x24, 0x00, 0x81,
	0x4F, 0x24, 0x6F, 0x54, 0x24, 0x00, 0x0C, 0x1F, 0x6F, 0x51, 0x1F, 0x00,
	0x81, 0x4F, 0x1F, 0x6F, 0x54, 0x1F, 0x00, 0x0C, 0x24, 0x6F, 0x51, 0x24,
	0x00, 0x81, 0x4F, 0x24, 0x6F, 0x54, 0x24, 0x00, 0x0C, 0x2B, 0x6F, 0x81,
	0x31, 0x2B, 0x00, 0x0F, 0x28, 0x6F, 0x81, 0x34, 0x28, 0x00, 0x0C, 0x29,
	0x72, 0x51, 0x29, 0x00, 0x81, 0x4F, 0x29, 0x6F, 0x54, 0x29, 0x00, 0x0C,
	0x24, 0x6F, 0x51, 0x24, 0x00, 0x81, 0x4F, 0x24, 0x6F, 0x54, 0x24, 0x00,
	0x0C, 0x29, 0x6F, 0x51, 0x29, 0x00, 0x81, 0x4F, 0x29, 0x6F, 0x54, 0x29,
	0x00, 0x0C, 0x2C, 0x6F, 0x81, 0x31, 0x2C, 0x00, 0x0F, 0x29, 0x6F, 0x81,
	0x34, 0x29, 0x00, 0x0C, 0x27, 0x72, 0x51, 0x27, 0x00, 0x81, 0x4F, 0x27,
	0x6F, 0x54, 0x27, 0x00, 0x0C, 0x22, 0x6F, 0x51, 0x22, 0x00, 0x81, 0x4F,
	0x22, 0x6F, 0x54, 0x22, 0x00, 0x0C, 0x1B, 0x6F, 0x5C, 0x1B, 0x00, 0x81,
	0x44, 0x27, 0x6F, 0x54, 0x27, 0x00, 0x0C, 0x2B, 0x6F, 0x81, 0x32, 0x2B,
	0x00, 0x0E, 0x27, 0x6F, 0x81, 0x34, 0x27, 0x00, 0x0C, 0x2C, 0x6F, 0x5C,
	0x2C, 0x00, 0x81, 0x44, 0x2C, 0x6F, 0x54, 0x2C, 0x00, 0x0C, 0x2E, 0x6F,
	0x52, 0x2E, 0x00, 0x6E, 0x2C, 0x6F, 0x54, 0x2C, 0x00, 0x6C, 0x2B, 0x6F,
	0x5C, 0x2B, 0x00, 0x82, 0x24, 0x24, 0x6F, 0x54, 0x24, 0x00, 0x82, 0x2C,
	0x29, 0x69, 0x3F, 0x29, 0x00, 0x82, 0x41, 0x24, 0x69, 0x82, 0x0D, 0x24,
	0x00, 0x13, 0x29, 0x69, 0x48, 0x29, 0x00, 0x18, 0x30, 0x69, 0x3C, 0x30,
	0x00, 0x82, 0x44, 0x24, 0x69, 0x82, 0x13, 0x24, 0x00, 0x0D, 0x27, 0x69,
	0x48, 0x27, 0x00, 0x18, 0x29, 0x69, 0x3F, 0x29, 0x00, 0x82, 0x41, 0x24,
	0x69, 0x82, 0x0D, 0x24, 0x00, 0x13, 0x29, 0x69, 0x48, 0x29, 0x00, 0x18,
	0x30, 0x69, 0x3C, 0x30, 0x00, 0x82, 0x44, 0x24, 0x69, 0x81, 0x33, 0x24,
	0x00, 0x0D, 0x23, 0x69, 0x81, 0x28, 0x23, 0x00, 0x18, 0x22, 0x69, 0x3F,
	0x22, 0x00, 0x82, 0x41, 0x29, 0x69, 0x82, 0x0D, 0x29, 0x00, 0x13, 0x27,
	0x69, 0x48, 0x27, 0x00, 0x18, 0x24, 0x69, 0x3C, 0x24, 0x00, 0x82, 0x44,
	0x2B, 0x69, 0x82, 0x13, 0x2B, 0x00, 0x0D, 0x27, 0x69, 0x48, 0x27, 0x00,
	0x18, 0x29, 0x69, 0x3F, 0x29, 0x00, 0x82, 0x41, 0x24, 0x69, 0x4D, 0x24,
	0x00, 0x73, 0x27, 0x69, 0x48, 0x27, 0x00, 0x78, 0x29, 0x69, 0x3C, 0x29,
	0x00, 0x00, 0xFF, 0x2F, 0x00, 0x4D, 0x54, 0x72, 0x6B, 0x00, 0x00, 0x01,
	0x10, 0x17, 0xB8, 0x79, 0x00, 0x10, 0x00, 0x00, 0x81, 0x10, 0xC8, 0x45,
	0x60, 0xB8, 0x07, 0x60, 0x31, 0x01, 0x00, 0x03, 0x02, 0x00, 0x0A, 0x05,
	0x00, 0x22, 0x0A, 0x4B, 0x02, 0x0B, 0x7F, 0x02, 0x40, 0x00, 0x05, 0x41,
	0x00, 0x57, 0x5B, 0x62, 0x60, 0x5D, 0x17, 0x30, 0xE8, 0x00, 0x40, 0x30,
	0xB8, 0x65, 0x00, 0x00, 0x64, 0x00, 0x30, 0x06, 0x02, 0xFE, 0x30, 0x98,
	0x48, 0x34, 0x85, 0x7D, 0x48, 0x00, 0x03, 0x4B, 0x5B, 0x85, 0x7D, 0x4B,
	0x00, 0x03, 0x4D, 0x5B, 0x85, 0x7C, 0x4D, 0x00, 0x04, 0x4F, 0x5B, 0x85,
	0x7A, 0x4F, 0x00, 0x06, 0x50, 0x5B, 0x85, 0x1B, 0x50, 0x00, 0x05, 0x52,
	0x55, 0x5B, 0x52, 0x00, 0x05, 0x4F, 0x5B, 0x82, 0x7B, 0x4F, 0x00, 0x05,
	0x4B, 0x5B, 0x82, 0x7B, 0x4B, 0x00, 0x05, 0x4D, 0x5B, 0x85, 0x7B, 0x4D,
	0x00, 0x05, 0x4B, 0x5B, 0x82, 0x7B, 0x4B, 0x00, 0x05, 0x48, 0x5B, 0x82,
	0x7B, 0x48, 0x00, 0x05, 0x49, 0x5B, 0x85, 0x7C, 0x49, 0x00, 0x04, 0x48,
	0x5B, 0x82, 0x7C, 0x48, 0x00, 0x04, 0x4B, 0x5B, 0x82, 0x7B, 0x4B, 0x00,
	0x05, 0x4D, 0x5B, 0x87, 0x0C, 0x4D, 0x00, 0x81, 0x94, 0x74, 0x4D, 0x35,
	0x85, 0x7D, 0x4D, 0x00, 0x03, 0x4B, 0x5B, 0x85, 0x7D, 0x4B, 0x00, 0x03,
	0x4D, 0x5B, 0x85, 0x7C, 0x4D, 0x00, 0x04, 0x4F, 0x5B, 0x85, 0x7A, 0x4F,
	0x00, 0x06, 0x50, 0x5B, 0x85, 0x1B, 0x50, 0x00, 0x05, 0x52, 0x55, 0x5B,
	0x52, 0x00, 0x05, 0x4F, 0x5B, 0x82, 0x7B, 0x4F, 0x00, 0x05, 0x4B, 0x5B,
	0x82, 0x7B, 0x4B, 0x00, 0x05, 0x4D, 0x5B, 0x85, 0x7B, 0x4D, 0x00, 0x05,
	0x4B, 0x5B, 0x82, 0x7B, 0x4B, 0x00, 0x05, 0x48, 0x5B, 0x82, 0x7B, 0x48,
	0x00, 0x05, 0x49, 0x5B, 0x85, 0x7C, 0x49, 0x00, 0x04, 0x48, 0x5B, 0x82,
	0x7C, 0x48, 0x00, 0x04, 0x4B, 0x5B, 0x82, 0x7B, 0x4B, 0x00, 0x05, 0x4D,
	0x5B, 0x87, 0x0C, 0x4D, 0x00, 0x00, 0xFF, 0x2F, 0x00, 0x4D, 0x54, 0x72,
	0x6B, 0x00, 0x00, 0x12, 0x8F, 0x1A, 0xB9, 0x79, 0x00, 0x10, 0x00, 0x00,
	0x81, 0x10, 0xC9, 0x00, 0x60, 0xB9, 0x07, 0x65, 0x31, 0x01, 0x00, 0x03,
	0x02, 0x00, 0x0A, 0x05, 0x00, 0x22, 0x0A, 0x40, 0x02, 0x0B, 0x7F, 0x02,
	0x40, 0x00, 0x05, 0x41, 0x00, 0x57, 0x5B, 0x4E, 0x60, 0x5D, 0x14, 0x30,
	0xE9, 0x00, 0x40, 0x30, 0xB9, 0x65, 0x00, 0x00, 0x64, 0x00, 0x30, 0x06,
	0x02, 0x30, 0x99, 0x1F, 0x29, 0x2F, 0x1F, 0x00, 0x81, 0x11, 0x1F, 0x26,
	0x2F, 0x1F, 0x00, 0x81, 0x11, 0x1F, 0x23, 0x2F, 0x1F, 0x00, 0x81, 0x11,
	0x1F, 0x20, 0x2F, 0x1F, 0x00, 0xAE, 0x10, 0x31, 0x31, 0x01, 0x1C, 0x6F,
	0x00, 0x2E, 0x4F, 0x00, 0x3B, 0x56, 0x00, 0x3C, 0x6A, 0x10, 0x27, 0x67,
	0x09, 0x50, 0x6A, 0x05, 0x31, 0x00, 0x10, 0x50, 0x00, 0x01, 0x1C, 0x00,
	0x00, 0x2E, 0x00, 0x00, 0x3B, 0x00, 0x00, 0x3C, 0x00, 0x0E, 0x31, 0x01,
	0x02, 0x27, 0x00, 0x01, 0x51, 0x61, 0x10, 0x31, 0x00, 0x28, 0x51, 0x00,
	0x08, 0x2C, 0x28, 0x2F, 0x2C, 0x00, 0x81, 0x91, 0x51, 0x24, 0x7F, 0x00,
	0x31, 0x64, 0x2F, 0x24, 0x00, 0x00, 0x31, 0x00, 0x81, 0x11, 0x26, 0x7F,
	0x00, 0x33, 0x6B, 0x00, 0x36, 0x63, 0x2F, 0x26, 0x00, 0x00, 0x33, 0x00,
	0x00, 0x36, 0x00, 0x81, 0x11, 0x24, 0x7F, 0x00, 0x33, 0x6B, 0x2F, 0x24,
	0x00, 0x00, 0x33, 0x00, 0x81, 0x11, 0x26, 0x7F, 0x00, 0x33, 0x6B, 0x00,
	0x36, 0x63, 0x2F, 0x26, 0x00, 0x00, 0x33, 0x00, 0x00, 0x36, 0x00, 0x51,
	0x2A, 0x64, 0x2F, 0x2A, 0x00, 0x11, 0x24, 0x7F, 0x00, 0x33, 0x64, 0x2F,
	0x24, 0x00, 0x00, 0x33, 0x00, 0x81, 0x11, 0x26, 0x7F, 0x00, 0x33, 0x6B,
	0x00, 0x36, 0x63, 0x2F, 0x26, 0x00, 0x00, 0x33, 0x00, 0x00, 0x36, 0x00,
	0x81, 0x11, 0x24, 0x7F, 0x00, 0x33, 0x6B, 0x2F, 0x24, 0x00, 0x00, 0x33,
	0x00, 0x81, 0x11, 0x26, 0x7F, 0x00, 0x33, 0x6B, 0x00, 0x36, 0x63, 0x2F,
	0x26, 0x00, 0x00, 0x33, 0x00, 0x00, 0x36, 0x00, 0x51, 0x24, 0x7F, 0x2F,
	0x24, 0x00, 0x11, 0x24, 0x7F, 0x00, 0x33, 0x64, 0x2F, 0x24, 0x00, 0x00,
	0x33, 0x00, 0x81, 0x11, 0x26, 0x7F, 0x00, 0x33, 0x6B, 0x00, 0x36, 0x63,
	0x2F, 0x26, 0x00, 0x00, 0x33, 0x00, 0x00, 0x36, 0x00, 0x81, 0x11, 0x24,
	0x7F, 0x00, 0x33, 0x6B, 0x2F, 0x24, 0x00, 0x00, 0x33, 0x00, 0x81, 0x11,
	0x26, 0x7F, 0x00, 0x33, 0x6B, 0x00, 0x36, 0x63, 0x2F, 0x26, 0x00, 0x00,
	0x33, 0x00, 0x00, 0x36, 0x00, 0x81, 0x11, 0x24, 0x7F, 0x00, 0x33, 0x64,
	0x2F, 0x24, 0x00, 0x00, 0x33, 0x00, 0x81, 0x11, 0x26, 0x7F, 0x00, 0x33,
	0x6B, 0x00, 0x36, 0x63, 0x2F, 0x26, 0x00, 0x00, 0x33, 0x00, 0x00, 0x36,
	0x00, 0x51, 0x2A, 0x6A, 0x2F, 0x2A, 0x00, 0x11, 0x24, 0x7F, 0x00, 0x33,
	0x6B, 0x2F, 0x24, 0x00, 0x00, 0x33, 0x00, 0x81, 0x11, 0x26, 0x7F, 0x00,
	0x33, 0x6B, 0x00, 0x36, 0x63, 0x2F, 0x26, 0x00, 0x00, 0x33, 0x00, 0x00,
	0x36, 0x00, 0x81, 0x11, 0x24, 0x7F, 0x00, 0x33, 0x64, 0x2F, 0x24, 0x00,
	0x00, 0x33, 0x00, 0x81, 0x11, 0x26, 0x7F, 0x00, 0x33, 0x6B, 0x00, 0x36,
	0x63, 0x2F, 0x26, 0x00, 0x00, 0x33, 0x00, 0x00, 0x36, 0x00, 0x81, 0x11,
	0x24, 0x7F, 0x00, 0x33, 0x6B, 0x2F, 0x24, 0x00, 0x00, 0x33, 0x00, 0x81,
	0x11, 0x26, 0x7F, 0x00, 0x33, 0x6B, 0x00, 0x36, 0x63, 0x2F, 0x26, 0x00,
	0x00, 0x33, 0x00, 0x00, 0x36, 0x00, 0x81, 0x11, 0x24, 0x7F, 0x00, 0x33,
	0x64, 0x2F, 0x24, 0x00, 0x00, 0x33, 0x00, 0x81, 0x11, 0x26, 0x7F, 0x00,
	0x33, 0x6B, 0x00, 0x36, 0x63, 0x2F, 0x26, 0x00, 0x00, 0x33, 0x00, 0x00,
	0x36, 0x00, 0x81, 0x11, 0x24, 0x7F, 0x00, 0x33, 0x6B, 0x2F, 0x24, 0x00,
	0x00, 0x33, 0x00, 0x51, 0x2A, 0x6A, 0x2F, 0x2A, 0x00, 0x11, 0x26, 0x7F,
	0x00, 0x33, 0x6B, 0x00, 0x36, 0x63, 0x2F, 0x26, 0x00, 0x00, 0x33, 0x00,
	0x00, 0x36, 0x00, 0x81, 0x11, 0x24, 0x7F, 0x00, 0x33, 0x64, 0x2F, 0x24,
	0x00, 0x00, 0x33, 0x00, 0x81, 0x11, 0x26, 0x7F, 0x00, 0x33, 0x6B, 0x00,
	0x36, 0x63, 0x2F, 0x26, 0x00, 0x00, 0x33, 0x00, 0x00, 0x36, 0x00, 0x81,
	0x11, 0x24, 0x7F, 0x00, 0x33, 0x6B, 0x2F, 0x24, 0x00, 0x00, 0x33, 0x00,
	0x81, 0x11, 0x26, 0x7F, 0x00, 0x33, 0x6B, 0x00, 0x36, 0x63, 0x2F, 0x26,
	0x00, 0x00, 0x33, 0x00, 0x00, 0x36, 0x00, 0x81, 0x11, 0x24, 0x7F, 0x00,
	0x33, 0x64, 0x2F, 0x24, 0x00, 0x00, 0x33, 0x00, 0x51, 0x2C, 0x6A, 0x2F,
	0x2C, 0x00, 0x11, 0x26, 0x7F, 0x00, 0x33, 0x6B, 0x00, 0x36, 0x63, 0x2F,
	0x26, 0x00, 0x00, 0x33, 0x00, 0x00, 0x36, 0x00, 0x51, 0x2A, 0x63, 0x2F,
	0x2A, 0x00, 0x11, 0x24, 0x7F, 0x00, 0x29, 0x63, 0x00, 0x33, 0x6B, 0x2F,
	0x24, 0x00, 0x00, 0x29, 0x00, 0x00, 0x33, 0x00, 0x51, 0x25, 0x6A, 0x2F,
	0x25, 0x00, 0x11, 0x26, 0x7F, 0x00, 0x2B, 0x63, 0x00, 0x33, 0x6B, 0x00,
	0x36, 0x63, 0x2F, 0x26, 0x00, 0x00, 0x2B, 0x00, 0x00, 0x33, 0x00, 0x00,
	0x36, 0x00, 0x51, 0x25, 0x6A, 0x2F, 0x25, 0x00, 0x11, 0x24, 0x7F, 0x00,
	0x31, 0x5C, 0x2F, 0x24, 0x00, 0x00, 0x31, 0x00, 0x81, 0x11, 0x26, 0x7F,
	0x00, 0x33, 0x6B, 0x00, 0x36, 0x63, 0x2F, 0x26, 0x00, 0x00, 0x33, 0x00,
	0x00, 0x36, 0x00, 0x81, 0x11, 0x24, 0x7F, 0x00, 0x33, 0x6B, 0x2F, 0x24,
	0x00, 0x00, 0x33, 0x00, 0x81, 0x11, 0x26, 0x7F, 0x00, 0x33, 0x6B, 0x00,
	0x36, 0x63, 0x2F, 0x26, 0x00, 0x00, 0x33, 0x00, 0x00, 0x36, 0x00, 0x51,
	0x2A, 0x64, 0x2F, 0x2A, 0x00, 0x11, 0x24, 0x7F, 0x00, 0x33, 0x64, 0x2F,
	0x24, 0x00, 0x00, 0x33, 0x00, 0x81, 0x11, 0x26, 0x7F, 0x00, 0x33, 0x6B,
	0x00, 0x36, 0x63, 0x2F, 0x26, 0x00, 0x00, 0x33, 0x00, 0x00, 0x36, 0x00,
	0x81, 0x11, 0x24, 0x7F, 0x00, 0x33, 0x6B, 0x2F, 0x24, 0x00, 0x00, 0x33,
	0x00, 0x81, 0x11, 0x26, 0x7F, 0x00, 0x33, 0x6B, 0x00, 0x36, 0x63, 0x2F,
	0x26, 0x00, 0x00, 0x33, 0x00, 0x00, 0x36, 0x00, 0x51, 0x24, 0x7F, 0x2F,
	0x24, 0x00, 0x11, 0x24, 0x7F, 0x00, 0x33, 0x64, 0x2F, 0x24, 0x00, 0x00,
	0x33, 0x00, 0x81, 0x11, 0x26, 0x7F, 0x00, 0x33, 0x6B, 0x00, 0x36, 0x63,
	0x2F, 0x26, 0x00, 0x00, 0x33, 0x00, 0x00, 0x36, 0x00, 0x81, 0x11, 0x24,
	0x7F, 0x00, 0x33, 0x6B, 0x2F, 0x24, 0x00, 0x00, 0x33, 0x00, 0x81, 0x11,
	0x26, 0x7F, 0x00, 0x33, 0x6B, 0x00, 0x36, 0x63, 0x2F, 0x26, 0x00, 0x00,
	0x33, 0x00, 0x00, 0x36, 0x00, 0x81, 0x11, 0x24, 0x7F, 0x00, 0x33, 0x64,
	0x2F, 0x24, 0x00, 0x00, 0x33, 0x00, 0x81, 0x11, 0x26, 0x7F, 0x00, 0x33,
	0x6B, 0x00, 0x36, 0x63, 0x2F, 0x26, 0x00, 0x00, 0x33, 0x00, 0x00, 0x36,
	0x00, 0x51, 0x2A, 0x6A, 0x2F, 0x2A, 0x00, 0x11, 0x24, 0x7F, 0x00, 0x33,
	0x6B, 0x2F, 0x24, 0x00, 0x00, 0x33, 0x00, 0x81, 0x11, 0x26, 0x7F, 0x00,
	0x33, 0x6B, 0x00, 0x36, 0x63, 0x2F, 0x26, 0x00, 0x00, 0x33, 0x00, 0x00,
	0x36, 0x00, 0x81, 0x11, 0x24, 0x7F, 0x00, 0x33, 0x64, 0x2F, 0x24, 0x00,
	0x00, 0x33, 0x00, 0x81, 0x11, 0x26, 0x7F, 0x00, 0x33, 0x6B, 0x00, 0x36,
	0x63, 0x2F, 0x26, 0x00, 0x00, 0x33, 0x00, 0x00, 0x36, 0x00, 0x81, 0x11,
	0x24, 0x7F, 0x00, 0x33, 0x6B, 0x2F, 0x24, 0x00, 0x00, 0x33, 0x00, 0x81,
	0x11, 0x26, 0x7F, 0x00, 0x33, 0x6B, 0x00, 0x36, 0x63, 0x2F, 0x26, 0x00,
	0x00, 0x33, 0x00, 0x00, 0x36, 0x00, 0x81, 0x11, 0x24, 0x7F, 0x00, 0x33,
	0x64, 0x2F, 0x24, 0x00, 0x00, 0x33, 0x00, 0x81, 0x11, 0x26, 0x7F, 0x00,
	0x33, 0x6B, 0x00, 0x36, 0x63, 0x2F, 0x26, 0x00, 0x00, 0x33, 0x00, 0x00,
	0x36, 0x00, 0x81, 0x11, 0x24, 0x7F, 0x00, 0x33, 0x6B, 0x2F, 0x24, 0x00,
	0x00, 0x33, 0x00, 0x51, 0x2A, 0x6A, 0x2F, 0x2A, 0x00, 0x11, 0x26, 0x7F,
	0x00, 0x33, 0x6B, 0x00, 0x36, 0x63, 0x2F, 0x26, 0x00, 0x00, 0x33, 0x00,
	0x00, 0x36, 0x00, 0x81, 0x11, 0x24, 0x7F, 0x00, 0x33, 0x64, 0x2F, 0x24,
	0x00, 0x00, 0x33, 0x00, 0x81, 0x11, 0x26, 0x7F, 0x00, 0x33, 0x6B, 0x00,
	0x36, 0x63, 0x2F, 0x26, 0x00, 0x00, 0x33, 0x00, 0x00, 0x36, 0x00, 0x81,
	0x11, 0x24, 0x7F, 0x00, 0x33, 0x6B, 0x2F, 0x24, 0x00, 0x00, 0x33, 0x00,
	0x81, 0x11, 0x26, 0x7F, 0x00, 0x33, 0x6B, 0x00, 0x36, 0x63, 0x2F, 0x26,
	0x00, 0x00, 0x33, 0x00, 0x00, 0x36, 0x00, 0x51, 0x24, 0x7F, 0x2F, 0x24,
	0x00, 0x11, 0x24, 0x7F, 0x00, 0x37, 0x76, 0x2F, 0x24, 0x00, 0x00, 0x37,
	0x00, 0x82, 0x51, 0x24, 0x7F, 0x00, 0x2B, 0x63, 0x2F, 0x24, 0x00, 0x00,
	0x2B, 0x00, 0x51, 0x24, 0x7F, 0x2F, 0x24, 0x00, 0x11, 0x24, 0x7F, 0x00,
	0x29, 0x63, 0x2F, 0x24, 0x00, 0x00, 0x29, 0x00, 0x81, 0x11, 0x24, 0x7F,
	0x00, 0x31, 0x6B, 0x2F, 0x24, 0x00, 0x00, 0x31, 0x00, 0x81, 0x11, 0x26,
	0x7F, 0x00, 0x2E, 0x5F, 0x2F, 0x26, 0x00, 0x00, 0x2E, 0x00, 0x81, 0x11,
	0x24, 0x7F, 0x00, 0x2E, 0x58, 0x2F, 0x24, 0x00, 0x00, 0x2E, 0x00, 0x81,
	0x11, 0x26, 0x7F, 0x00, 0x2E, 0x58, 0x2F, 0x26, 0x00, 0x00, 0x2E, 0x00,
	0x81, 0x11, 0x24, 0x7F, 0x00, 0x2E, 0x65, 0x2F, 0x24, 0x00, 0x00, 0x2E,
	0x00, 0x81, 0x11, 0x26, 0x7F, 0x00, 0x2E, 0x5F, 0x2F, 0x26, 0x00, 0x00,
	0x2E, 0x00, 0x81, 0x11, 0x24, 0x7F, 0x00, 0x2E, 0x58, 0x2F, 0x24, 0x00,
	0x00, 0x2E, 0x00, 0x81, 0x11, 0x26, 0x7F, 0x00, 0x2E, 0x58, 0x2F, 0x26,
	0x00, 0x00, 0x2E, 0x00, 0x51, 0x24, 0x7F, 0x2F, 0x24, 0x00, 0x11, 0x24,
	0x7F, 0x00, 0x2E, 0x65, 0x2F, 0x24, 0x00, 0x00, 0x2E, 0x00, 0x81, 0x11,
	0x26, 0x7F, 0x00, 0x2E, 0x5F, 0x2F, 0x26, 0x00, 0x00, 0x2E, 0x00, 0x81,
	0x11, 0x24, 0x7F, 0x00, 0x2E, 0x58, 0x2F, 0x24, 0x00, 0x00, 0x2E, 0x00,
	0x81, 0x11, 0x26, 0x7F, 0x00, 0x2E, 0x58, 0x2F, 0x26, 0x00, 0x00, 0x2E,
	0x00, 0x81, 0x11, 0x24, 0x7F, 0x00, 0x2E, 0x65, 0x2F, 0x24, 0x00, 0x00,
	0x2E, 0x00, 0x81, 0x11, 0x26, 0x7F, 0x00, 0x2E, 0x5F, 0x2F, 0x26, 0x00,
	0x00, 0x2E, 0x00, 0x81, 0x11, 0x24, 0x7F, 0x00, 0x2E, 0x58, 0x2F, 0x24,
	0x00, 0x00, 0x2E, 0x00, 0x81, 0x11, 0x26, 0x7F, 0x00, 0x2E, 0x58, 0x2F,
	0x26, 0x00, 0x00, 0x2E, 0x00, 0x51, 0x24, 0x7F, 0x2F, 0x24, 0x00, 0x11,
	0x24, 0x7F, 0x00, 0x2E, 0x65, 0x2F, 0x24, 0x00, 0x00, 0x2E, 0x00, 0x81,
	0x11, 0x26, 0x7F, 0x00, 0x2E, 0x5F, 0x2F, 0x26, 0x00, 0x00, 0x2E, 0x00,
	0x81, 0x11, 0x24, 0x7F, 0x00, 0x2E, 0x58, 0x2F, 0x24, 0x00, 0x00, 0x2E,
	0x00, 0x81, 0x11, 0x26, 0x7F, 0x00, 0x2E, 0x58, 0x2F, 0x26, 0x00, 0x00,
	0x2E, 0x00, 0x81, 0x11, 0x24, 0x7F, 0x00, 0x2E, 0x65, 0x2F, 0x24, 0x00,
	0x00, 0x2E, 0x00, 0x81, 0x11, 0x26, 0x7F, 0x00, 0x2E, 0x5F, 0x2F, 0x26,
	0x00, 0x00, 0x2E, 0x00, 0x81, 0x11, 0x24, 0x7F, 0x00, 0x2E, 0x58, 0x2F,
	0x24, 0x00, 0x00, 0x2E, 0x00, 0x81, 0x11, 0x26, 0x7F, 0x00, 0x2E, 0x58,
	0x2F, 0x26, 0x00, 0x00, 0x2E, 0x00, 0x51, 0x24, 0x7F, 0x2F, 0x24, 0x00,
	0x11, 0x24, 0x7F, 0x00, 0x2E, 0x65, 0x2F, 0x24, 0x00, 0x00, 0x2E, 0x00,
	0x81, 0x11, 0x26, 0x7F, 0x00, 0x2E, 0x5F, 0x2F, 0x26, 0x00, 0x00, 0x2E,
	0x00, 0x81, 0x11, 0x24, 0x7F, 0x00, 0x2E, 0x58, 0x2F, 0x24, 0x00, 0x00,
	0x2E, 0x00, 0x81, 0x11, 0x24, 0x7F, 0x00, 0x26, 0x7F, 0x00, 0x2E, 0x58,
	0x2F, 0x24, 0x00, 0x00, 0x26, 0x00, 0x00, 0x2E, 0x00, 0x81, 0x11, 0x24,
	0x7F, 0x00, 0x26, 0x7F, 0x00, 0x2E, 0x6E, 0x2F, 0x24, 0x00, 0x00, 0x26,
	0x00, 0x00, 0x2E, 0x00, 0x82, 0x51, 0x51, 0x79, 0x2F, 0x51, 0x00, 0x82,
	0x51, 0x24, 0x7F, 0x00, 0x2A, 0x6A, 0x2F, 0x24, 0x00, 0x00, 0x2A, 0x00,
	0x81, 0x11, 0x26, 0x7F, 0x00, 0x2A, 0x6A, 0x2F, 0x26, 0x00, 0x00, 0x2A,
	0x00, 0x81, 0x11, 0x24, 0x7F, 0x00, 0x2A, 0x6A, 0x2F, 0x24, 0x00, 0x00,
	0x2A, 0x00, 0x81, 0x11, 0x26, 0x7F, 0x00, 0x2A, 0x6A, 0x2F, 0x26, 0x00,
	0x00, 0x2A, 0x00, 0x81, 0x11, 0x24, 0x7F, 0x00, 0x2A, 0x6A, 0x2F, 0x24,
	0x00, 0x00, 0x2A, 0x00, 0x81, 0x11, 0x26, 0x7F, 0x00, 0x2A, 0x6A, 0x2F,
	0x26, 0x00, 0x00, 0x2A, 0x00, 0x81, 0x11, 0x24, 0x7F, 0x00, 0x2A, 0x6A,
	0x2F, 0x24, 0x00, 0x00, 0x2A, 0x00, 0x81, 0x11, 0x26, 0x7F, 0x00, 0x2A,
	0x6A, 0x2F, 0x26, 0x00, 0x00, 0x2A, 0x00, 0x81, 0x11, 0x24, 0x7F, 0x00,
	0x2A, 0x6A, 0x2F, 0x24, 0x00, 0x00, 0x2A, 0x00, 0x81, 0x11, 0x26, 0x7F,
	0x00, 0x2A, 0x6A, 0x2F, 0x26, 0x00, 0x00, 0x2A, 0x00, 0x81, 0x11, 0x24,
	0x7F, 0x00, 0x2A, 0x6A, 0x2F, 0x24, 0x00, 0x00, 0x2A, 0x00, 0x81, 0x11,
	0x26, 0x7F, 0x00, 0x2A, 0x6A, 0x2F, 0x26, 0x00, 0x00, 0x2A, 0x00, 0x81,
	0x11, 0x24, 0x7F, 0x00, 0x2A, 0x6A, 0x2F, 0x24, 0x00, 0x00, 0x2A, 0x00,
	0x81, 0x11, 0x26, 0x7F, 0x00, 0x2A, 0x6A, 0x2F, 0x26, 0x00, 0x00, 0x2A,
	0x00, 0x81, 0x11, 0x24, 0x7F, 0x00, 0x2A, 0x6A, 0x2F, 0x24, 0x00, 0x00,
	0x2A, 0x00, 0x81, 0x11, 0x26, 0x7F, 0x00, 0x2A, 0x6A, 0x2F, 0x26, 0x00,
	0x00, 0x2A, 0x00, 0x81, 0x11, 0x24, 0x7F, 0x00, 0x2A, 0x6A, 0x2F, 0x24,
	0x00, 0x00, 0x2A, 0x00, 0x81, 0x11, 0x26, 0x7F, 0x00, 0x2A, 0x6A, 0x2F,
	0x26, 0x00, 0x00, 0x2A, 0x00, 0x81, 0x11, 0x24, 0x7F, 0x00, 0x2A, 0x6A,
	0x2F, 0x24, 0x00, 0x00, 0x2A, 0x00, 0x81, 0x11, 0x26, 0x7F, 0x00, 0x2A,
	0x6A, 0x2F, 0x26, 0x00, 0x00, 0x2A, 0x00, 0x81, 0x11, 0x24, 0x7F, 0x00,
	0x2A, 0x6A, 0x2F, 0x24, 0x00, 0x00, 0x2A, 0x00, 0x81, 0x11, 0x26, 0x7F,
	0x00, 0x2A, 0x6A, 0x2F, 0x26, 0x00, 0x00, 0x2A, 0x00, 0x81, 0x11, 0x24,
	0x7F, 0x00, 0x2A, 0x6A, 0x2F, 0x24, 0x00, 0x00, 0x2A, 0x00, 0x81, 0x11,
	0x26, 0x7F, 0x00, 0x2A, 0x6A, 0x2F, 0x26, 0x00, 0x00, 0x2A, 0x00, 0x81,
	0x11, 0x24, 0x7F, 0x00, 0x2A, 0x6A, 0x2F, 0x24, 0x00, 0x00, 0x2A, 0x00,
	0x81, 0x11, 0x26, 0x7F, 0x00, 0x2A, 0x6A, 0x2F, 0x26, 0x00, 0x00, 0x2A,
	0x00, 0x81, 0x11, 0x24, 0x7F, 0x00, 0x2A, 0x6A, 0x2F, 0x24, 0x00, 0x00,
	0x2A, 0x00, 0x81, 0x11, 0x26, 0x7F, 0x00, 0x2A, 0x6A, 0x2F, 0x26, 0x00,
	0x00, 0x2A, 0x00, 0x51, 0x24, 0x7F, 0x2F, 0x24, 0x00, 0x11, 0x24, 0x7F,
	0x00, 0x2A, 0x6A, 0x2F, 0x24, 0x00, 0x00, 0x2A, 0x00, 0x81, 0x11, 0x26,
	0x7F, 0x00, 0x2A, 0x6A, 0x2F, 0x26, 0x00, 0x00, 0x2A, 0x00, 0x81, 0x11,
	0x24, 0x7F, 0x00, 0x2A, 0x6A, 0x2F, 0x24, 0x00, 0x00, 0x2A, 0x00, 0x81,
	0x11, 0x26, 0x7F, 0x00, 0x2A, 0x6A, 0x2F, 0x26, 0x00, 0x00, 0x2A, 0x00,
	0x81, 0x11, 0x24, 0x7F, 0x00, 0x2A, 0x6A, 0x2F, 0x24, 0x00, 0x00, 0x2A,
	0x00, 0x81, 0x11, 0x26, 0x7F, 0x00, 0x2A, 0x6A, 0x2F, 0x26, 0x00, 0x00,
	0x2A, 0x00, 0x81, 0x11, 0x24, 0x7F, 0x00, 0x2A, 0x6A, 0x2F, 0x24, 0x00,
	0x00, 0x2A, 0x00, 0x81, 0x11, 0x26, 0x7F, 0x00, 0x2A, 0x6A, 0x2F, 0x26,
	0x00, 0x00, 0x2A, 0x00, 0x81, 0x11, 0x24, 0x7F, 0x00, 0x2A, 0x6A, 0x2F,
	0x24, 0x00, 0x00, 0x2A, 0x00, 0x81, 0x11, 0x26, 0x7F, 0x00, 0x2A, 0x6A,
	0x2F, 0x26, 0x00, 0x00, 0x2A, 0x00, 0x81, 0x11, 0x24, 0x7F, 0x00, 0x2A,
	0x6A, 0x2F, 0x24, 0x00, 0x00, 0x2A, 0x00, 0x81, 0x11, 0x26, 0x7F, 0x00,
	0x2A, 0x6A, 0x2F, 0x26, 0x00, 0x00, 0x2A, 0x00, 0x81, 0x11, 0x24, 0x7F,
	0x00, 0x2A, 0x6A, 0x2F, 0x24, 0x00, 0x00, 0x2A, 0x00, 0x81, 0x11, 0x26,
	0x7F, 0x00, 0x2A, 0x6A, 0x2F, 0x26, 0x00, 0x00, 0x2A, 0x00, 0x81, 0x11,
	0x24, 0x7F, 0x00, 0x2A, 0x6A, 0x2F, 0x24, 0x00, 0x00, 0x2A, 0x00, 0x81,
	0x11, 0x26, 0x7F, 0x00, 0x2A, 0x6A, 0x2F, 0x26, 0x00, 0x00, 0x2A, 0x00,
	0x81, 0x11, 0x24, 0x7F, 0x00, 0x2A, 0x6A, 0x00, 0x51, 0x77, 0x2F, 0x24,
	0x00, 0x00, 0x2A, 0x00, 0x00, 0x51, 0x00, 0x85, 0x51, 0x24, 0x7F, 0x00,
	0x31, 0x6A, 0x2F, 0x24, 0x00, 0x00, 0x31, 0x00, 0x81, 0x11, 0x26, 0x7F,
	0x00, 0x2E, 0x6A, 0x2F, 0x26, 0x00, 0x00, 0x2E, 0x00, 0x81, 0x11, 0x24,
	0x7F, 0x00, 0x2A, 0x6A, 0x2F, 0x24, 0x00, 0x00, 0x2A, 0x00, 0x81, 0x11,
	0x26, 0x7F, 0x00, 0x2E, 0x6A, 0x2F, 0x26, 0x00, 0x00, 0x2E, 0x00, 0x81,
	0x11, 0x24, 0x7F, 0x00, 0x2A, 0x6A, 0x2F, 0x24, 0x00, 0x00, 0x2A, 0x00,
	0x81, 0x11, 0x26, 0x7F, 0x00, 0x2E, 0x6A, 0x2F, 0x26, 0x00, 0x00, 0x2E,
	0x00, 0x81, 0x11, 0x24, 0x7F, 0x00, 0x2A, 0x6A, 0x2F, 0x24, 0x00, 0x00,
	0x2A, 0x00, 0x81, 0x11, 0x26, 0x7F, 0x00, 0x2E, 0x6A, 0x2F, 0x26, 0x00,
	0x00, 0x2E, 0x00, 0x51, 0x24, 0x7F, 0x2F, 0x24, 0x00, 0x11, 0x24, 0x7F,
	0x00, 0x2A, 0x6A, 0x2F, 0x24, 0x00, 0x00, 0x2A, 0x00, 0x81, 0x11, 0x26,
	0x7F, 0x00, 0x2E, 0x6A, 0x2F, 0x26, 0x00, 0x00, 0x2E, 0x00, 0x81, 0x11,
	0x24, 0x7F, 0x00, 0x2A, 0x6A, 0x2F, 0x24, 0x00, 0x00, 0x2A, 0x00, 0x81,
	0x11, 0x26, 0x7F, 0x00, 0x2E, 0x6A, 0x2F, 0x26, 0x00, 0x00, 0x2E, 0x00,
	0x81, 0x11, 0x24, 0x7F, 0x00, 0x2A, 0x6A, 0x2F, 0x24, 0x00, 0x00, 0x2A,
	0x00, 0x81, 0x11, 0x26, 0x7F, 0x00, 0x2E, 0x6A, 0x2F, 0x26, 0x00, 0x00,
	0x2E, 0x00, 0x81, 0x11, 0x24, 0x7F, 0x00, 0x2A, 0x6A, 0x2F, 0x24, 0x00,
	0x00, 0x2A, 0x00, 0x51, 0x2D, 0x68, 0x2F, 0x2D, 0x00, 0x11, 0x26, 0x7F,
	0x00, 0x2E, 0x6A, 0x2F, 0x26, 0x00, 0x00, 0x2E, 0x00, 0x51, 0x24, 0x7F,
	0x00, 0x29, 0x6B, 0x2F, 0x24, 0x00, 0x00, 0x29, 0x00, 0x11, 0x24, 0x7F,
	0x00, 0x2A, 0x6A, 0x2F, 0x24, 0x00, 0x00, 0x2A, 0x00, 0x81, 0x11, 0x26,
	0x7F, 0x00, 0x2E, 0x6A, 0x2F, 0x26, 0x00, 0x00, 0x2E, 0x00, 0x81, 0x11,
	0x24, 0x7F, 0x00, 0x2A, 0x6A, 0x2F, 0x24, 0x00, 0x00, 0x2A, 0x00, 0x81,
	0x11, 0x26, 0x7F, 0x00, 0x2E, 0x6A, 0x2F, 0x26, 0x00, 0x00, 0x2E, 0x00,
	0x81, 0x11, 0x24, 0x7F, 0x00, 0x2A, 0x6A, 0x2F, 0x24, 0x00, 0x00, 0x2A,
	0x00, 0x81, 0x11, 0x26, 0x7F, 0x00, 0x2E, 0x6A, 0x2F, 0x26, 0x00, 0x00,
	0x2E, 0x00, 0x81, 0x11, 0x24, 0x7F, 0x00, 0x2A, 0x6A, 0x2F, 0x24, 0x00,
	0x00, 0x2A, 0x00, 0x81, 0x11, 0x26, 0x7F, 0x00, 0x2E, 0x6A, 0x2F, 0x26,
	0x00, 0x00, 0x2E, 0x00, 0x81, 0x11, 0x24, 0x7F, 0x00, 0x2E, 0x6A, 0x2F,
	0x24, 0x00, 0x00, 0x2E, 0x00, 0x81, 0x11, 0x26, 0x7F, 0x00, 0x2E, 0x6A,
	0x2F, 0x26, 0x00, 0x00, 0x2E, 0x00, 0x51, 0x24, 0x7F, 0x2F, 0x24, 0x00,
	0x11, 0x24, 0x7F, 0x00, 0x2E, 0x6A, 0x2F, 0x24, 0x00, 0x00, 0x2E, 0x00,
	0x81, 0x11, 0x26, 0x7F, 0x00, 0x2E, 0x6A, 0x2F, 0x26, 0x00, 0x00, 0x2E,
	0x00, 0x81, 0x11, 0x24, 0x7F, 0x00, 0x2C, 0x6C, 0x2F, 0x24, 0x00, 0x00,
	0x2C, 0x00, 0x85, 0x51, 0x24, 0x7F, 0x00, 0x2A, 0x6A, 0x2F, 0x24, 0x00,
	0x00, 0x2A, 0x00, 0x81, 0x11, 0x26, 0x7F, 0x00, 0x2A, 0x6A, 0x2F, 0x26,
	0x00, 0x00, 0x2A, 0x00, 0x81, 0x11, 0x24, 0x7F, 0x00, 0x2A, 0x6A, 0x2F,
	0x24, 0x00, 0x00, 0x2A, 0x00, 0x81, 0x11, 0x26, 0x7F, 0x00, 0x2A, 0x6A,
	0x2F, 0x26, 0x00, 0x00, 0x2A, 0x00, 0x81, 0x11, 0x24, 0x7F, 0x00, 0x2A,
	0x6A, 0x2F, 0x24, 0x00, 0x00, 0x2A, 0x00, 0x81, 0x11, 0x26, 0x7F, 0x00,
	0x2A, 0x6A, 0x2F, 0x26, 0x00, 0x00, 0x2A, 0x00, 0x81, 0x11, 0x24, 0x7F,
	0x00, 0x2A, 0x6A, 0x2F, 0x24, 0x00, 0x00, 0x2A, 0x00, 0x81, 0x11, 0x26,
	0x7F, 0x00, 0x2A, 0x6A, 0x2F, 0x26, 0x00, 0x00, 0x2A, 0x00, 0x51, 0x24,
	0x7F, 0x2F, 0x24, 0x00, 0x11, 0x24, 0x7F, 0x00, 0x2A, 0x6A, 0x2F, 0x24,
	0x00, 0x00, 0x2A, 0x00, 0x81, 0x11, 0x26, 0x7F, 0x00, 0x2A, 0x6A, 0x2F,
	0x26, 0x00, 0x00, 0x2A, 0x00, 0x81, 0x11, 0x24, 0x7F, 0x00, 0x2A, 0x6A,
	0x2F, 0x24, 0x00, 0x00, 0x2A, 0x00, 0x81, 0x11, 0x26, 0x7F, 0x00, 0x2A,
	0x6A, 0x2F, 0x26, 0x00, 0x00, 0x2A, 0x00, 0x81, 0x11, 0x24, 0x7F, 0x00,
	0x2A, 0x6A, 0x2F, 0x24, 0x00, 0x00, 0x2A, 0x00, 0x81, 0x11, 0x26, 0x7F,
	0x00, 0x2A, 0x6A, 0x2F, 0x26, 0x00, 0x00, 0x2A, 0x00, 0x81, 0x11, 0x24,
	0x7F, 0x00, 0x2A, 0x6A, 0x2F, 0x24, 0x00, 0x00, 0x2A, 0x00, 0x81, 0x11,
	0x26, 0x7F, 0x00, 0x2A, 0x6A, 0x2F, 0x26, 0x00, 0x00, 0x2A, 0x00, 0x51,
	0x24, 0x7F, 0x2F, 0x24, 0x00, 0x11, 0x24, 0x7F, 0x00, 0x2A, 0x6A, 0x2F,
	0x24, 0x00, 0x00, 0x2A, 0x00, 0x81, 0x11, 0x26, 0x7F, 0x00, 0x2A, 0x6A,
	0x2F, 0x26, 0x00, 0x00, 0x2A, 0x00, 0x81, 0x11, 0x24, 0x7F, 0x00, 0x2A,
	0x6A, 0x2F, 0x24, 0x00, 0x00, 0x2A, 0x00, 0x81, 0x11, 0x26, 0x7F, 0x00,
	0x2A, 0x6A, 0x2F, 0x26, 0x00, 0x00, 0x2A, 0x00, 0x81, 0x11, 0x24, 0x7F,
	0x00, 0x2A, 0x6A, 0x2F, 0x24, 0x00, 0x00, 0x2A, 0x00, 0x81, 0x11, 0x26,
	0x7F, 0x00, 0x2A, 0x6A, 0x2F, 0x26, 0x00, 0x00, 0x2A, 0x00, 0x81, 0x11,
	0x24, 0x7F, 0x00, 0x2A, 0x6A, 0x2F, 0x24, 0x00, 0x00, 0x2A, 0x00, 0x81,
	0x11, 0x26, 0x7F, 0x00, 0x2A, 0x6A, 0x2F, 0x26, 0x00, 0x00, 0x2A, 0x00,
	0x51, 0x24, 0x7F, 0x2F, 0x24, 0x00, 0x11, 0x24, 0x7F, 0x00, 0x2A, 0x6A,
	0x2F, 0x24, 0x00, 0x00, 0x2A, 0x00, 0x81, 0x11, 0x26, 0x7F, 0x00, 0x2A,
	0x6A, 0x2F, 0x26, 0x00, 0x00, 0x2A, 0x00, 0x81, 0x11, 0x24, 0x7F, 0x00,
	0x2E, 0x6A, 0x2F, 0x24, 0x00, 0x00, 0x2E, 0x00, 0x81, 0x11, 0x26, 0x7F,
	0x00, 0x2E, 0x6A, 0x2F, 0x26, 0x00, 0x00, 0x2E, 0x00, 0x81, 0x11, 0x24,
	0x7F, 0x00, 0x31, 0x69, 0x2F, 0x24, 0x00, 0x00, 0x31, 0x00, 0x81, 0x11,
	0x33, 0x69, 0x00, 0x36, 0x64, 0x2F, 0x33, 0x00, 0x00, 0x36, 0x00, 0x81,
	0x11, 0x33, 0x69, 0x2F, 0x33, 0x00, 0x81, 0x11, 0x33, 0x69, 0x00, 0x36,
	0x64, 0x2F, 0x33, 0x00, 0x00, 0x36, 0x00, 0x81, 0x11, 0x24, 0x7F, 0x00,
	0x31, 0x64, 0x2F, 0x24, 0x00, 0x00, 0x31, 0x00, 0x81, 0x11, 0x26, 0x7F,
	0x00, 0x33, 0x6B, 0x00, 0x36, 0x63, 0x2F, 0x26, 0x00, 0x00, 0x33, 0x00,
	0x00, 0x36, 0x00, 0x81, 0x11, 0x24, 0x7F, 0x00, 0x33, 0x6B, 0x2F, 0x24,
	0x00, 0x00, 0x33, 0x00, 0x81, 0x11, 0x26, 0x7F, 0x00, 0x33, 0x6B, 0x00,
	0x36, 0x63, 0x2F, 0x26, 0x00, 0x00, 0x33, 0x00, 0x00, 0x36, 0x00, 0x51,
	0x2A, 0x64, 0x2F, 0x2A, 0x00, 0x11, 0x24, 0x7F, 0x00, 0x33, 0x64, 0x2F,
	0x24, 0x00, 0x00, 0x33, 0x00, 0x81, 0x11, 0x26, 0x7F, 0x00, 0x33, 0x6B,
	0x00, 0x36, 0x63, 0x2F, 0x26, 0x00, 0x00, 0x33, 0x00, 0x00, 0x36, 0x00,
	0x81, 0x11, 0x24, 0x7F, 0x00, 0x33, 0x6B, 0x2F, 0x24, 0x00, 0x00, 0x33,
	0x00, 0x81, 0x11, 0x26, 0x7F, 0x00, 0x33, 0x6B, 0x00, 0x36, 0x63, 0x2F,
	0x26, 0x00, 0x00, 0x33, 0x00, 0x00, 0x36, 0x00, 0x51, 0x24, 0x7F, 0x2F,
	0x24, 0x00, 0x11, 0x24, 0x7F, 0x00, 0x33, 0x64, 0x2F, 0x24, 0x00, 0x00,
	0x33, 0x00, 0x81, 0x11, 0x26, 0x7F, 0x00, 0x33, 0x6B, 0x00, 0x36, 0x63,
	0x2F, 0x26, 0x00, 0x00, 0x33, 0x00, 0x00, 0x36, 0x00, 0x81, 0x11, 0x24,
	0x7F, 0x00, 0x33, 0x6B, 0x2F, 0x24, 0x00, 0x00, 0x33, 0x00, 0x81, 0x11,
	0x26, 0x7F, 0x00, 0x33, 0x6B, 0x00, 0x36, 0x63, 0x2F, 0x26, 0x00, 0x00,
	0x33, 0x00, 0x00, 0x36, 0x00, 0x81, 0x11, 0x24, 0x7F, 0x00, 0x33, 0x64,
	0x2F, 0x24, 0x00, 0x00, 0x33, 0x00, 0x81, 0x11, 0x26, 0x7F, 0x00, 0x33,
	0x6B, 0x00, 0x36, 0x63, 0x2F, 0x26, 0x00, 0x00, 0x33, 0x00, 0x00, 0x36,
	0x00, 0x51, 0x2A, 0x6A, 0x2F, 0x2A, 0x00, 0x11, 0x24, 0x7F, 0x00, 0x33,
	0x6B, 0x2F, 0x24, 0x00, 0x00, 0x33, 0x00, 0x81, 0x11, 0x26, 0x7F, 0x00,
	0x33, 0x6B, 0x00, 0x36, 0x63, 0x2F, 0x26, 0x00, 0x00, 0x33, 0x00, 0x00,
	0x36, 0x00, 0x81, 0x11, 0x24, 0x7F, 0x00, 0x33, 0x64, 0x2F, 0x24, 0x00,
	0x00, 0x33, 0x00, 0x81, 0x11, 0x26, 0x7F, 0x00, 0x33, 0x6B, 0x00, 0x36,
	0x63, 0x2F, 0x26, 0x00, 0x00, 0x33, 0x00, 0x00, 0x36, 0x00, 0x81, 0x11,
	0x24, 0x7F, 0x00, 0x33, 0x6B, 0x2F, 0x24, 0x00, 0x00, 0x33, 0x00, 0x81,
	0x11, 0x26, 0x7F, 0x00, 0x33, 0x6B, 0x00, 0x36, 0x63, 0x2F, 0x26, 0x00,
	0x00, 0x33, 0x00, 0x00, 0x36, 0x00, 0x81, 0x11, 0x24, 0x7F, 0x00, 0x33,
	0x64, 0x2F, 0x24, 0x00, 0x00, 0x33, 0x00, 0x81, 0x11, 0x26, 0x7F, 0x00,
	0x33, 0x6B, 0x00, 0x36, 0x63, 0x2F, 0x26, 0x00, 0x00, 0x33, 0x00, 0x00,
	0x36, 0x00, 0x81, 0x11, 0x24, 0x7F, 0x00, 0x33, 0x6B, 0x2F, 0x24, 0x00,
	0x00, 0x33, 0x00, 0x51, 0x2A, 0x6A, 0x2F, 0x2A, 0x00, 0x11, 0x26, 0x7F,
	0x00, 0x33, 0x6B, 0x00, 0x36, 0x63, 0x2F, 0x26, 0x00, 0x00, 0x33, 0x00,
	0x00, 0x36, 0x00, 0x81, 0x11, 0x24, 0x7F, 0x00, 0x33, 0x64, 0x2F, 0x24,
	0x00, 0x00, 0x33, 0x00, 0x81, 0x11, 0x26, 0x7F, 0x00, 0x33, 0x6B, 0x00,
	0x36, 0x63, 0x2F, 0x26, 0x00, 0x00, 0x33, 0x00, 0x00, 0x36, 0x00, 0x81,
	0x11, 0x24, 0x7F, 0x00, 0x33, 0x6B, 0x2F, 0x24, 0x00, 0x00, 0x33, 0x00,
	0x81, 0x11, 0x26, 0x7F, 0x00, 0x33, 0x6B, 0x00, 0x36, 0x63, 0x2F, 0x26,
	0x00, 0x00, 0x33, 0x00, 0x00, 0x36, 0x00, 0x51, 0x24, 0x7F, 0x2F, 0x24,
	0x00, 0x11, 0x24, 0x7F, 0x00, 0x33, 0x64, 0x2F, 0x24, 0x00, 0x00, 0x33,
	0x00, 0x51, 0x2C, 0x6A, 0x2F, 0x2C, 0x00, 0x11, 0x26, 0x7F, 0x00, 0x33,
	0x6B, 0x00, 0x36, 0x63, 0x2F, 0x26, 0x00, 0x00, 0x33, 0x00, 0x00, 0x36,
	0x00, 0x51, 0x2A, 0x63, 0x2F, 0x2A, 0x00, 0x11, 0x24, 0x7F, 0x00, 0x33,
	0x6B, 0x2F, 0x24, 0x00, 0x00, 0x33, 0x00, 0x51, 0x2B, 0x6A, 0x2F, 0x2B,
	0x00, 0x11, 0x26, 0x7F, 0x00, 0x33, 0x6B, 0x00, 0x36, 0x63, 0x2F, 0x26,
	0x00, 0x00, 0x33, 0x00, 0x00, 0x36, 0x00, 0x51, 0x29, 0x6A, 0x2F, 0x29,
	0x00, 0x11, 0x24, 0x7F, 0x00, 0x31, 0x5C, 0x2F, 0x24, 0x00, 0x00, 0x31,
	0x00, 0x81, 0x11, 0x26, 0x7F, 0x00, 0x33, 0x6B, 0x00, 0x36, 0x63, 0x2F,
	0x26, 0x00, 0x00, 0x33, 0x00, 0x00, 0x36, 0x00, 0x81, 0x11, 0x24, 0x7F,
	0x00, 0x33, 0x6B, 0x2F, 0x24, 0x00, 0x00, 0x33, 0x00, 0x81, 0x11, 0x26,
	0x7F, 0x00, 0x33, 0x6B, 0x00, 0x36, 0x63, 0x2F, 0x26, 0x00, 0x00, 0x33,
	0x00, 0x00, 0x36, 0x00, 0x51, 0x2A, 0x64, 0x2F, 0x2A, 0x00, 0x11, 0x24,
	0x7F, 0x00, 0x33, 0x64, 0x2F, 0x24, 0x00, 0x00, 0x33, 0x00, 0x81, 0x11,
	0x26, 0x7F, 0x00, 0x33, 0x6B, 0x00, 0x36, 0x63, 0x2F, 0x26, 0x00, 0x00,
	0x33, 0x00, 0x00, 0x36, 0x00, 0x81, 0x11, 0x24, 0x7F, 0x00, 0x33, 0x6B,
	0x2F, 0x24, 0x00, 0x00, 0x33, 0x00, 0x81, 0x11, 0x26, 0x7F, 0x00, 0x33,
	0x6B, 0x00, 0x36, 0x63, 0x2F, 0x26, 0x00, 0x00, 0x33, 0x00, 0x00, 0x36,
	0x00, 0x51, 0x24, 0x7F, 0x2F, 0x24, 0x00, 0x11, 0x24, 0x7F, 0x00, 0x33,
	0x64, 0x2F, 0x24, 0x00, 0x00, 0x33, 0x00, 0x81, 0x11, 0x26, 0x7F, 0x00,
	0x33, 0x6B, 0x00, 0x36, 0x63, 0x2F, 0x26, 0x00, 0x00, 0x33, 0x00, 0x00,
	0x36, 0x00, 0x81, 0x11, 0x24, 0x7F, 0x00, 0x33, 0x6B, 0x2F, 0x24, 0x00,
	0x00, 0x33, 0x00, 0x81, 0x11, 0x26, 0x7F, 0x00, 0x33, 0x6B, 0x00, 0x36,
	0x63, 0x2F, 0x26, 0x00, 0x00, 0x33, 0x00, 0x00, 0x36, 0x00, 0x81, 0x11,
	0x24, 0x7F, 0x00, 0x33, 0x64, 0x2F, 0x24, 0x00, 0x00, 0x33, 0x00, 0x81,
	0x11, 0x26, 0x7F, 0x00, 0x33, 0x6B, 0x00, 0x36, 0x63, 0x2F, 0x26, 0x00,
	0x00, 0x33, 0x00, 0x00, 0x36, 0x00, 0x51, 0x2A, 0x6A, 0x2F, 0x2A, 0x00,
	0x11, 0x24, 0x7F, 0x00, 0x33, 0x6B, 0x2F, 0x24, 0x00, 0x00, 0x33, 0x00,
	0x81, 0x11, 0x26, 0x7F, 0x00, 0x33, 0x6B, 0x00, 0x36, 0x63, 0x2F, 0x26,
	0x00, 0x00, 0x33, 0x00, 0x00, 0x36, 0x00, 0x81, 0x11, 0x24, 0x7F, 0x00,
	0x33, 0x64, 0x2F, 0x24, 0x00, 0x00, 0x33, 0x00, 0x81, 0x11, 0x26, 0x7F,
	0x00, 0x33, 0x6B, 0x00, 0x36, 0x63, 0x2F, 0x26, 0x00, 0x00, 0x33, 0x00,
	0x00, 0x36, 0x00, 0x81, 0x11, 0x24, 0x7F, 0x00, 0x33, 0x6B, 0x2F, 0x24,
	0x00, 0x00, 0x33, 0x00, 0x81, 0x11, 0x26, 0x7F, 0x00, 0x33, 0x6B, 0x00,
	0x36, 0x63, 0x2F, 0x26, 0x00, 0x00, 0x33, 0x00, 0x00, 0x36, 0x00, 0x81,
	0x11, 0x24, 0x7F, 0x00, 0x33, 0x64, 0x2F, 0x24, 0x00, 0x00, 0x33, 0x00,
	0x81, 0x11, 0x26, 0x7F, 0x00, 0x33, 0x6B, 0x00, 0x36, 0x63, 0x2F, 0x26,
	0x00, 0x00, 0x33, 0x00, 0x00, 0x36, 0x00, 0x81, 0x11, 0x24, 0x7F, 0x00,
	0x33, 0x6B, 0x2F, 0x24, 0x00, 0x00, 0x33, 0x00, 0x51, 0x2A, 0x6A, 0x2F,
	0x2A, 0x00, 0x11, 0x26, 0x7F, 0x00, 0x33, 0x6B, 0x00, 0x36, 0x63, 0x2F,
	0x26, 0x00, 0x00, 0x33, 0x00, 0x00, 0x36, 0x00, 0x81, 0x11, 0x24, 0x7F,
	0x00, 0x33, 0x64, 0x2F, 0x24, 0x00, 0x00, 0x33, 0x00, 0x81, 0x11, 0x26,
	0x7F, 0x00, 0x33, 0x6B, 0x00, 0x36, 0x63, 0x2F, 0x26, 0x00, 0x00, 0x33,
	0x00, 0x00, 0x36, 0x00, 0x81, 0x11, 0x24, 0x7F, 0x00, 0x33, 0x6B, 0x2F,
	0x24, 0x00, 0x00, 0x33, 0x00, 0x81, 0x11, 0x26, 0x7F, 0x00, 0x33, 0x6B,
	0x00, 0x36, 0x63, 0x2F, 0x26, 0x00, 0x00, 0x33, 0x00, 0x00, 0x36, 0x00,
	0x51, 0x24, 0x7F, 0x2F, 0x24, 0x00, 0x11, 0x24, 0x7F, 0x00, 0x37, 0x76,
	0x2F, 0x24, 0x00, 0x00, 0x37, 0x00, 0x51, 0x2A, 0x6A, 0x2F, 0x2A, 0x00,
	0x11, 0x26, 0x7F, 0x00, 0x31, 0x55, 0x00, 0x36, 0x63, 0x2F, 0x26, 0x00,
	0x00, 0x31, 0x00, 0x00, 0x36, 0x00, 0x51, 0x2C, 0x6B, 0x2F, 0x2C, 0x00,
	0x11, 0x24, 0x7F, 0x00, 0x31, 0x59, 0x2F, 0x24, 0x00, 0x00, 0x31, 0x00,
	0x51, 0x24, 0x7F, 0x2F, 0x24, 0x00, 0x11, 0x26, 0x7F, 0x00, 0x2D, 0x6A,
	0x00, 0x36, 0x63, 0x2F, 0x26, 0x00, 0x00, 0x2D, 0x00, 0x00, 0x36, 0x00,
	0x11, 0x2B, 0x6A, 0x2F, 0x2B, 0x00, 0x11, 0x29, 0x6A, 0x2F, 0x29, 0x00,
	0x11, 0x24, 0x7F, 0x00, 0x31, 0x64, 0x2F, 0x24, 0x00, 0x00, 0x31, 0x00,
	0x81, 0x11, 0x26, 0x7F, 0x00, 0x33, 0x6B, 0x00, 0x36, 0x63, 0x2F, 0x26,
	0x00, 0x00, 0x33, 0x00, 0x00, 0x36, 0x00, 0x81, 0x11, 0x24, 0x7F, 0x00,
	0x33, 0x6B, 0x2F, 0x24, 0x00, 0x00, 0x33, 0x00, 0x81, 0x11, 0x26, 0x7F,
	0x00, 0x33, 0x6B, 0x00, 0x36, 0x63, 0x2F, 0x26, 0x00, 0x00, 0x33, 0x00,
	0x00, 0x36, 0x00, 0x51, 0x2A, 0x64, 0x2F, 0x2A, 0x00, 0x11, 0x24, 0x7F,
	0x00, 0x33, 0x64, 0x2F, 0x24, 0x00, 0x00, 0x33, 0x00, 0x81, 0x11, 0x26,
	0x7F, 0x00, 0x33, 0x6B, 0x00, 0x36, 0x63, 0x2F, 0x26, 0x00, 0x00, 0x33,
	0x00, 0x00, 0x36, 0x00, 0x81, 0x11, 0x24, 0x7F, 0x00, 0x33, 0x6B, 0x2F,
	0x24, 0x00, 0x00, 0x33, 0x00, 0x81, 0x11, 0x26, 0x7F, 0x00, 0x33, 0x6B,
	0x00, 0x36, 0x63, 0x2F, 0x26, 0x00, 0x00, 0x33, 0x00, 0x00, 0x36, 0x00,
	0x51, 0x24, 0x7F, 0x2F, 0x24, 0x00, 0x11, 0x24, 0x7F, 0x00, 0x33, 0x64,
	0x2F, 0x24, 0x00, 0x00, 0x33, 0x00, 0x81, 0x11, 0x26, 0x7F, 0x00, 0x33,
	0x6B, 0x00, 0x36, 0x63, 0x2F, 0x26, 0x00, 0x00, 0x33, 0x00, 0x00, 0x36,
	0x00, 0x81, 0x11, 0x24, 0x7F, 0x00, 0x33, 0x6B, 0x2F, 0x24, 0x00, 0x00,
	0x33, 0x00, 0x81, 0x11, 0x26, 0x7F, 0x00, 0x33, 0x6B, 0x00, 0x36, 0x63,
	0x2F, 0x26, 0x00, 0x00, 0x33, 0x00, 0x00, 0x36, 0x00, 0x81, 0x11, 0x24,
	0x7F, 0x00, 0x33, 0x64, 0x2F, 0x24, 0x00, 0x00, 0x33, 0x00, 0x81, 0x11,
	0x26, 0x7F, 0x00, 0x33, 0x6B, 0x00, 0x36, 0x63, 0x2F, 0x26, 0x00, 0x00,
	0x33, 0x00, 0x00, 0x36, 0x00, 0x51, 0x2A, 0x6A, 0x2F, 0x2A, 0x00, 0x11,
	0x24, 0x7F, 0x00, 0x33, 0x6B, 0x2F, 0x24, 0x00, 0x00, 0x33, 0x00, 0x81,
	0x11, 0x26, 0x7F, 0x00, 0x33, 0x6B, 0x00, 0x36, 0x63, 0x2F, 0x26, 0x00,
	0x00, 0x33, 0x00, 0x00, 0x36, 0x00, 0x81, 0x11, 0x24, 0x7F, 0x00, 0x31,
	0x64, 0x2F, 0x24, 0x00, 0x00, 0x31, 0x00, 0x81, 0x11, 0x26, 0x7F, 0x00,
	0x33, 0x6B, 0x00, 0x36, 0x63, 0x2F, 0x26, 0x00, 0x00, 0x33, 0x00, 0x00,
	0x36, 0x00, 0x81, 0x11, 0x24, 0x7F, 0x00, 0x33, 0x6B, 0x2F, 0x24, 0x00,
	0x00, 0x33, 0x00, 0x81, 0x11, 0x26, 0x7F, 0x00, 0x33, 0x6B, 0x00, 0x36,
	0x63, 0x2F, 0x26, 0x00, 0x00, 0x33, 0x00, 0x00, 0x36, 0x00, 0x81, 0x11,
	0x24, 0x7F, 0x00, 0x33, 0x64, 0x2F, 0x24, 0x00, 0x00, 0x33, 0x00, 0x81,
	0x11, 0x26, 0x7F, 0x00, 0x2E, 0x6B, 0x00, 0x36, 0x63, 0x2F, 0x26, 0x00,
	0x00, 0x2E, 0x00, 0x00, 0x36, 0x00, 0x81, 0x11, 0x24, 0x7F, 0x00, 0x33,
	0x6B, 0x2F, 0x24, 0x00, 0x00, 0x33, 0x00, 0x81, 0x11, 0x26, 0x7F, 0x00,
	0x2E, 0x6B, 0x00, 0x36, 0x63, 0x2F, 0x26, 0x00, 0x00, 0x2E, 0x00, 0x00,
	0x36, 0x00, 0x81, 0x11, 0x24, 0x7F, 0x00, 0x31, 0x64, 0x2F, 0x24, 0x00,
	0x00, 0x31, 0x00, 0x81, 0x11, 0x26, 0x7F, 0x00, 0x33, 0x6B, 0x00, 0x36,
	0x63, 0x2F, 0x26, 0x00, 0x00, 0x33, 0x00, 0x00, 0x36, 0x00, 0x81, 0x11,
	0x24, 0x7F, 0x00, 0x33, 0x6B, 0x2F, 0x24, 0x00, 0x00, 0x33, 0x00, 0x81,
	0x11, 0x26, 0x7F, 0x00, 0x33, 0x6B, 0x00, 0x36, 0x63, 0x2F, 0x26, 0x00,
	0x00, 0x33, 0x00, 0x00, 0x36, 0x00, 0x81, 0x11, 0x24, 0x7F, 0x00, 0x33,
	0x64, 0x00, 0x36, 0x63, 0x2F, 0x24, 0x00, 0x00, 0x33, 0x00, 0x00, 0x36,
	0x00, 0x85, 0x51, 0x24, 0x7F, 0x00, 0x2A, 0x64, 0x2F, 0x24, 0x00, 0x00,
	0x2A, 0x00, 0x81, 0x11, 0x26, 0x7F, 0x00, 0x33, 0x6B, 0x00, 0x36, 0x63,
	0x2F, 0x26, 0x00, 0x00, 0x33, 0x00, 0x00, 0x36, 0x00, 0x81, 0x11, 0x24,
	0x7F, 0x00, 0x33, 0x6B, 0x2F, 0x24, 0x00, 0x00, 0x33, 0x00, 0x81, 0x11,
	0x26, 0x7F, 0x00, 0x33, 0x6B, 0x00, 0x36, 0x63, 0x2F, 0x26, 0x00, 0x00,
	0x33, 0x00, 0x00, 0x36, 0x00, 0x81, 0x11, 0x24, 0x7F, 0x00, 0x33, 0x64,
	0x00, 0x36, 0x63, 0x2F, 0x24, 0x00, 0x00, 0x33, 0x00, 0x00, 0x36, 0x00,
	0x00, 0xFF, 0x2F, 0x00, 0x4D, 0x54, 0x72, 0x6B, 0x00, 0x00, 0x00, 0x4C,
	0x1A, 0xBA, 0x79, 0x00, 0x10, 0x00, 0x00, 0x81, 0x10, 0xCA, 0x77, 0x60,
	0xBA, 0x07, 0x63, 0x31, 0x01, 0x00, 0x03, 0x02, 0x00, 0x0A, 0x05, 0x00,
	0x22, 0x0A, 0x32, 0x02, 0x0B, 0x7F, 0x02, 0x40, 0x00, 0x05, 0x41, 0x00,
	0x57, 0x5B, 0x62, 0x60, 0x5D, 0x24, 0x30, 0xEA, 0x00, 0x40, 0x30, 0xBA,
	0x65, 0x00, 0x00, 0x64, 0x00, 0x30, 0x06, 0x02, 0x81, 0xC3, 0x30, 0x9A,
	0x0D, 0x6A, 0x00, 0x27, 0x5F, 0x83, 0x5F, 0x0D, 0x00, 0x00, 0x27, 0x00,
	0x00, 0xFF, 0x2F, 0x00, 0x4D, 0x54, 0x72, 0x6B, 0x00, 0x00, 0x00, 0x61,
	0x19, 0xBB, 0x79, 0x00, 0x10, 0x00, 0x00, 0x81, 0x10, 0xCB, 0x2F, 0x60,
	0xBB, 0x07, 0x77, 0x31, 0x01, 0x00, 0x03, 0x02, 0x00, 0x0A, 0x05, 0x00,
	0x22, 0x0A, 0x46, 0x02, 0x0B, 0x7F, 0x02, 0x40, 0x00, 0x05, 0x41, 0x00,
	0x57, 0x5B, 0x43, 0x60, 0x5D, 0x18, 0x30, 0xEB, 0x00, 0x40, 0x30, 0xBB,
	0x65, 0x00, 0x00, 0x64, 0x00, 0x30, 0x06, 0x02, 0x82, 0xCE, 0x70, 0x9B,
	0x24, 0x7F, 0x30, 0x24, 0x00, 0x81, 0x10, 0x24, 0x7F, 0x39, 0x24, 0x00,
	0xF6, 0x07, 0x2C, 0x7F, 0x24, 0x2C, 0x00, 0x81, 0x1C, 0x30, 0x7F, 0x31,
	0x30, 0x00, 0x82, 0x4F, 0x24, 0x7F, 0x3A, 0x24, 0x00, 0x00, 0xFF, 0x2F,
	0x00, 0x4D, 0x54, 0x72, 0x6B, 0x00, 0x00, 0x04, 0x23, 0x18, 0xBC, 0x79,
	0x00, 0x10, 0x00, 0x00, 0x81, 0x10, 0xCC, 0x48, 0x60, 0xBC, 0x07, 0x60,
	0x31, 0x01, 0x00, 0x03, 0x02, 0x00, 0x0A, 0x05, 0x00, 0x22, 0x0A, 0x1E,
	0x02, 0x0B, 0x7F, 0x02, 0x40, 0x00, 0x05, 0x41, 0x00, 0x57, 0x5B, 0x60,
	0x60, 0x5D, 0x1A, 0x30, 0xEC, 0x00, 0x40, 0x30, 0xBC, 0x65, 0x00, 0x00,
	0x64, 0x00, 0x30, 0x06, 0x02, 0xFE, 0x30, 0x9C, 0x41, 0x56, 0x85, 0x7D,
	0x41, 0x00, 0x03, 0x46, 0x56, 0x85, 0x7D, 0x46, 0x00, 0x03, 0x48, 0x5B,
	0x85, 0x7C, 0x48, 0x00, 0x04, 0x4B, 0x54, 0x85, 0x7A, 0x4B, 0x00, 0x06,
	0x4D, 0x5A, 0x85, 0x1B, 0x4D, 0x00, 0x05, 0x52, 0x50, 0x5B, 0x52, 0x00,
	0x05, 0x46, 0x51, 0x82, 0x7B, 0x46, 0x00, 0x05, 0x48, 0x5B, 0x82, 0x7B,
	0x48, 0x00, 0x05, 0x48, 0x56, 0x85, 0x7B, 0x48, 0x00, 0x05, 0x46, 0x59,
	0x82, 0x7B, 0x46, 0x00, 0x05, 0x43, 0x56, 0x82, 0x7B, 0x43, 0x00, 0x05,
	0x44, 0x5A, 0x85, 0x7C, 0x44, 0x00, 0x04, 0x43, 0x58, 0x82, 0x7C, 0x43,
	0x00, 0x04, 0x4B, 0x59, 0x82, 0x7B, 0x4B, 0x00, 0x05, 0x48, 0x5A, 0x87,
	0x0C, 0x48, 0x00, 0x81, 0x14, 0xCC, 0x16, 0x83, 0x60, 0x9C, 0x50, 0x68,
	0x85, 0x5B, 0x50, 0x00, 0x25, 0x4F, 0x68, 0x82, 0x7D, 0x4F, 0x00, 0x03,
	0x4B, 0x68, 0x82, 0x68, 0x4B, 0x00, 0x18, 0x4D, 0x68, 0x84, 0x39, 0x4D,
	0x00, 0x07, 0x50, 0x68, 0x81, 0x35, 0x50, 0x00, 0x0B, 0x4F, 0x68, 0x82,
	0x72, 0x4F, 0x00, 0x0E, 0x4B, 0x68, 0x82, 0x4B, 0x4B, 0x00, 0x35, 0x4D,
	0x68, 0x85, 0x5B, 0x4D, 0x00, 0x25, 0x4B, 0x68, 0x82, 0x7D, 0x4B, 0x00,
	0x03, 0x49, 0x68, 0x82, 0x68, 0x49, 0x00, 0x18, 0x48, 0x68, 0x88, 0x5B,
	0x48, 0x00, 0x25, 0x4B, 0x68, 0x82, 0x68, 0x4B, 0x00, 0x18, 0x50, 0x68,
	0x85, 0x70, 0x50, 0x00, 0x10, 0x4F, 0x68, 0x82, 0x7D, 0x4F, 0x00, 0x03,
	0x52, 0x68, 0x82, 0x68, 0x52, 0x00, 0x18, 0x50, 0x68, 0x7E, 0x50, 0x00,
	0x02, 0x4F, 0x68, 0x3D, 0x4F, 0x00, 0x03, 0x4D, 0x68, 0x82, 0x7D, 0x4D,
	0x00, 0x03, 0x50, 0x68, 0x81, 0x3D, 0x50, 0x00, 0x03, 0x4F, 0x68, 0x82,
	0x7D, 0x4F, 0x00, 0x03, 0x4B, 0x68, 0x81, 0x3D, 0x4B, 0x00, 0x03, 0x4F,
	0x68, 0x81, 0x3D, 0x4F, 0x00, 0x03, 0x4D, 0x68, 0x82, 0x7D, 0x4D, 0x00,
	0x03, 0x50, 0x68, 0x82, 0x68, 0x50, 0x00, 0x18, 0x52, 0x68, 0x82, 0x7D,
	0x52, 0x00, 0x03, 0x54, 0x68, 0x82, 0x68, 0x54, 0x00, 0x18, 0x52, 0x68,
	0x82, 0x12, 0x52, 0x00, 0x0E, 0x50, 0x68, 0x5D, 0x50, 0x00, 0x03, 0x4F,
	0x68, 0x78, 0x4F, 0x00, 0x08, 0x4D, 0x68, 0x3E, 0x4D, 0x00, 0x02, 0x4B,
	0x68, 0x5D, 0x4B, 0x00, 0x03, 0x49, 0x68, 0x5D, 0x49, 0x00, 0x03, 0x48,
	0x68, 0x5D, 0x48, 0x00, 0x03, 0x46, 0x68, 0x5D, 0x46, 0x00, 0x03, 0x45,
	0x68, 0x5D, 0x45, 0x00, 0x03, 0x46, 0x68, 0x5D, 0x46, 0x00, 0x03, 0x48,
	0x68, 0x7A, 0x48, 0x00, 0x06, 0x46, 0x68, 0x3E, 0x46, 0x00, 0x02, 0x43,
	0x68, 0x81, 0x3D, 0x43, 0x00, 0xB0, 0x03, 0xCC, 0x48, 0x00, 0x9C, 0x4D,
	0x51, 0x85, 0x7D, 0x4D, 0x00, 0x03, 0x4F, 0x4E, 0x85, 0x7D, 0x4F, 0x00,
	0x03, 0x50, 0x4D, 0x85, 0x7C, 0x50, 0x00, 0x04, 0x48, 0x55, 0x82, 0x7A,
	0x48, 0x00, 0x06, 0x54, 0x56, 0x82, 0x7A, 0x54, 0x00, 0x06, 0x54, 0x4E,
	0x85, 0x7B, 0x54, 0x00, 0x05, 0x54, 0x53, 0x82, 0x7B, 0x54, 0x00, 0x05,
	0x52, 0x51, 0x82, 0x7B, 0x52, 0x00, 0x05, 0x54, 0x57, 0x85, 0x7B, 0x54,
	0x00, 0x05, 0x52, 0x55, 0x82, 0x7B, 0x52, 0x00, 0x05, 0x4F, 0x55, 0x82,
	0x7B, 0x4F, 0x00, 0x05, 0x50, 0x55, 0x85, 0x7C, 0x50, 0x00, 0x04, 0x4F,
	0x55, 0x82, 0x7C, 0x4F, 0x00, 0x04, 0x4B, 0x52, 0x82, 0x7B, 0x4B, 0x00,
	0x05, 0x48, 0x53, 0x86, 0x5C, 0x48, 0x00, 0xA0, 0x24, 0x4B, 0x4F, 0x81,
	0x3B, 0x4B, 0x00, 0x05, 0x46, 0x4F, 0x2B, 0x46, 0x00, 0x82, 0x55, 0x46,
	0x4F, 0x2B, 0x46, 0x00, 0x81, 0x15, 0x4B, 0x4F, 0x81, 0x3B, 0x4B, 0x00,
	0x05, 0x46, 0x4F, 0x2B, 0x46, 0x00, 0x81, 0x15, 0x48, 0x4D, 0x82, 0x4B,
	0x48, 0x00, 0x35, 0x4B, 0x56, 0x81, 0x0B, 0x4B, 0x00, 0x35, 0x4D, 0x56,
	0x81, 0x0B, 0x4D, 0x00, 0x35, 0x4C, 0x56, 0x5B, 0x4C, 0x00, 0x65, 0x48,
	0x61, 0x2F, 0x48, 0x00, 0x01, 0x49, 0x5F, 0x2F, 0x49, 0x00, 0x01, 0x48,
	0x5B, 0x2F, 0x48, 0x00, 0x01, 0x46, 0x5D, 0x2F, 0x46, 0x00, 0x01, 0x48,
	0x4D, 0x82, 0x4B, 0x48, 0x00, 0x35, 0x48, 0x4F, 0x85, 0x7B, 0x48, 0x00,
	0x05, 0x46, 0x4F, 0x85, 0x7B, 0x46, 0x00, 0x05, 0x48, 0x4F, 0x82, 0x7B,
	0x48, 0x00, 0x05, 0x4D, 0x4F, 0x82, 0x7B, 0x4D, 0x00, 0x05, 0x4B, 0x4F,
	0x82, 0x7B, 0x4B, 0x00, 0x05, 0x48, 0x4F, 0x82, 0x7B, 0x48, 0x00, 0x05,
	0x49, 0x4F, 0x85, 0x7B, 0x49, 0x00, 0x05, 0x48, 0x4F, 0x82, 0x7B, 0x48,
	0x00, 0x05, 0x44, 0x4F, 0x82, 0x7B, 0x44, 0x00, 0x05, 0x41, 0x4F, 0x86,
	0x5B, 0x41, 0x00, 0x84, 0x45, 0xCC, 0x16, 0x60, 0x9C, 0x50, 0x68, 0x85,
	0x5B, 0x50, 0x00, 0x25, 0x4F, 0x68, 0x82, 0x7D, 0x4F, 0x00, 0x03, 0x4B,
	0x68, 0x82, 0x68, 0x4B, 0x00, 0x18, 0x4D, 0x68, 0x84, 0x39, 0x4D, 0x00,
	0x07, 0x50, 0x68, 0x81, 0x35, 0x50, 0x00, 0x0B, 0x4F, 0x68, 0x82, 0x72,
	0x4F, 0x00, 0x0E, 0x4B, 0x68, 0x82, 0x4B, 0x4B, 0x00, 0x35, 0x4D, 0x68,
	0x85, 0x5B, 0x4D, 0x00, 0x25, 0x4B, 0x68, 0x82, 0x7D, 0x4B, 0x00, 0x03,
	0x49, 0x68, 0x82, 0x68, 0x49, 0x00, 0x18, 0x48, 0x68, 0x88, 0x5B, 0x48,
	0x00, 0x25, 0x4B, 0x68, 0x82, 0x68, 0x4B, 0x00, 0x18, 0x50, 0x68, 0x85,
	0x70, 0x50, 0x00, 0x10, 0x4F, 0x68, 0x82, 0x7D, 0x4F, 0x00, 0x03, 0x52,
	0x68, 0x82, 0x68, 0x52, 0x00, 0x18, 0x50, 0x68, 0x7E, 0x50, 0x00, 0x02,
	0x4F, 0x68, 0x3D, 0x4F, 0x00, 0x03, 0x4D, 0x68, 0x82, 0x7D, 0x4D, 0x00,
	0x03, 0x50, 0x68, 0x81, 0x3D, 0x50, 0x00, 0x03, 0x4F, 0x68, 0x82, 0x7D,
	0x4F, 0x00, 0x03, 0x4B, 0x68, 0x81, 0x3D, 0x4B, 0x00, 0x03, 0x4F, 0x68,
	0x81, 0x3D, 0x4F, 0x00, 0x03, 0x4D, 0x68, 0x82, 0x7D, 0x4D, 0x00, 0x03,
	0x50, 0x68, 0x82, 0x68, 0x50, 0x00, 0x18, 0x52, 0x68, 0x82, 0x7D, 0x52,
	0x00, 0x03, 0x54, 0x68, 0x82, 0x68, 0x54, 0x00, 0x18, 0x52, 0x68, 0x82,
	0x12, 0x52, 0x00, 0x0E, 0x50, 0x68, 0x5D, 0x50, 0x00, 0x03, 0x4F, 0x68,
	0x78, 0x4F, 0x00, 0x08, 0x4D, 0x68, 0x3E, 0x4D, 0x00, 0x02, 0x4B, 0x68,
	0x5D, 0x4B, 0x00, 0x03, 0x49, 0x68, 0x5D, 0x49, 0x00, 0x03, 0x48, 0x68,
	0x5D, 0x48, 0x00, 0x03, 0x46, 0x68, 0x5D, 0x46, 0x00, 0x03, 0x45, 0x68,
	0x5D, 0x45, 0x00, 0x03, 0x46, 0x68, 0x5D, 0x46, 0x00, 0x03, 0x48, 0x68,
	0x7A, 0x48, 0x00, 0x06, 0x46, 0x68, 0x3E, 0x46, 0x00, 0x02, 0x43, 0x68,
	0x81, 0x3D, 0x43, 0x00, 0x03, 0x50, 0x52, 0x85, 0x70, 0x50, 0x00, 0x10,
	0x4F, 0x52, 0x82, 0x7D, 0x4F, 0x00, 0x03, 0x52, 0x52, 0x82, 0x68, 0x52,
	0x00, 0x18, 0x50, 0x52, 0x7E, 0x50, 0x00, 0x02, 0x4F, 0x52, 0x3D, 0x4F,
	0x00, 0x03, 0x4D, 0x52, 0x82, 0x7D, 0x4D, 0x00, 0x03, 0x50, 0x52, 0x81,
	0x3D, 0x50, 0x00, 0x03, 0x4F, 0x52, 0x82, 0x7D, 0x4F, 0x00, 0x03, 0x4B,
	0x52, 0x81, 0x3D, 0x4B, 0x00, 0x03, 0x4F, 0x52, 0x81, 0x3D, 0x4F, 0x00,
	0x03, 0x4D, 0x52, 0x82, 0x7D, 0x4D, 0x00, 0x03, 0x50, 0x52, 0x82, 0x68,
	0x50, 0x00, 0x18, 0x52, 0x52, 0x3B, 0x52, 0x00, 0x00, 0xFF, 0x2F, 0x00,
	0x4D, 0x54, 0x72, 0x6B, 0x00, 0x00, 0x01, 0xF2, 0x1D, 0xBD, 0x79, 0x00,
	0x10, 0x00, 0x00, 0x81, 0x10, 0xCD, 0x09, 0x60, 0xBD, 0x07, 0x5F, 0x31,
	0x01, 0x00, 0x03, 0x02, 0x00, 0x0A, 0x05, 0x00, 0x22, 0x0A, 0x5A, 0x02,
	0x0B, 0x7F, 0x02, 0x40, 0x00, 0x05, 0x41, 0x00, 0x57, 0x5B, 0x55, 0x60,
	0x5D, 0x17, 0x30, 0xED, 0x00, 0x40, 0x30, 0xBD, 0x65, 0x00, 0x00, 0x64,
	0x00, 0x30, 0x06, 0x02, 0xFF, 0x70, 0x9D, 0x59, 0x4C, 0x81, 0x3F, 0x59,
	0x00, 0x01, 0x5C, 0x4C, 0x81, 0x3F, 0x5C, 0x00, 0x01, 0x60, 0x4C, 0x81,
	0x3F, 0x60, 0x00, 0x01, 0x5E, 0x4C, 0x81, 0x3F, 0x5E, 0x00, 0x81, 0x41,
	0x74, 0x4C, 0x81, 0x3F, 0x74, 0x00, 0x83, 0x01, 0x59, 0x47, 0x81, 0x3F,
	0x59, 0x00, 0x01, 0x5C, 0x47, 0x81, 0x3F, 0x5C, 0x00, 0x01, 0x60, 0x47,
	0x81, 0x3F, 0x60, 0x00, 0x01, 0x5E, 0x47, 0x81, 0x3F, 0x5E, 0x00, 0x81,
	0x41, 0x74, 0x4C, 0x81, 0x3F, 0x74, 0x00, 0x83, 0x01, 0x59, 0x4C, 0x81,
	0x3F, 0x59, 0x00, 0x01, 0x5C, 0x4C, 0x81, 0x3F, 0x5C, 0x00, 0x01, 0x60,
	0x4C, 0x81, 0x3F, 0x60, 0x00, 0x01, 0x5E, 0x4C, 0x81, 0x3F, 0x5E, 0x00,
	0x81, 0x41, 0x74, 0x4C, 0x81, 0x3F, 0x74, 0x00, 0x83, 0x01, 0x59, 0x47,
	0x81, 0x3F, 0x59, 0x00, 0x01, 0x5C, 0x47, 0x81, 0x3F, 0x5C, 0x00, 0x01,
	0x60, 0x47, 0x81, 0x3F, 0x60, 0x00, 0x01, 0x5E, 0x47, 0x81, 0x3F, 0x5E,
	0x00, 0x81, 0x41, 0x74, 0x4C, 0x81, 0x3F, 0x74, 0x00, 0x83, 0x01, 0x5E,
	0x4C, 0x81, 0x3F, 0x5E, 0x00, 0x01, 0x61, 0x4C, 0x81, 0x3F, 0x61, 0x00,
	0x01, 0x69, 0x4C, 0x81, 0x3F, 0x69, 0x00, 0x01, 0x68, 0x4C, 0x81, 0x3F,
	0x68, 0x00, 0x81, 0x41, 0x74, 0x4C, 0x81, 0x3F, 0x74, 0x00, 0x83, 0x01,
	0x59, 0x47, 0x81, 0x3F, 0x59, 0x00, 0x01, 0x5C, 0x47, 0x81, 0x3F, 0x5C,
	0x00, 0x01, 0x60, 0x47, 0x81, 0x3F, 0x60, 0x00, 0x01, 0x65, 0x47, 0x81,
	0x3F, 0x65, 0x00, 0x81, 0x91, 0x41, 0x5B, 0x5B, 0x81, 0x3F, 0x5B, 0x00,
	0x83, 0x01, 0x59, 0x4C, 0x81, 0x3F, 0x59, 0x00, 0x01, 0x5C, 0x4C, 0x81,
	0x3F, 0x5C, 0x00, 0x01, 0x60, 0x4C, 0x81, 0x3F, 0x60, 0x00, 0x01, 0x5E,
	0x4C, 0x81, 0x3F, 0x5E, 0x00, 0x81, 0x41, 0x74, 0x4C, 0x81, 0x3F, 0x74,
	0x00, 0x83, 0x01, 0x59, 0x47, 0x81, 0x3F, 0x59, 0x00, 0x01, 0x5C, 0x47,
	0x81, 0x3F, 0x5C, 0x00, 0x01, 0x60, 0x47, 0x81, 0x3F, 0x60, 0x00, 0x01,
	0x5E, 0x47, 0x81, 0x3F, 0x5E, 0x00, 0x81, 0x41, 0x74, 0x4C, 0x81, 0x3F,
	0x74, 0x00, 0x83, 0x01, 0x59, 0x4C, 0x81, 0x3F, 0x59, 0x00, 0x01, 0x5C,
	0x4C, 0x81, 0x3F, 0x5C, 0x00, 0x01, 0x60, 0x4C, 0x81, 0x3F, 0x60, 0x00,
	0x01, 0x5E, 0x4C, 0x81, 0x3F, 0x5E, 0x00, 0x81, 0x41, 0x74, 0x4C, 0x81,
	0x3F, 0x74, 0x00, 0x83, 0x01, 0x59, 0x47, 0x81, 0x3F, 0x59, 0x00, 0x01,
	0x5C, 0x47, 0x81, 0x3F, 0x5C, 0x00, 0x01, 0x60, 0x47, 0x81, 0x3F, 0x60,
	0x00, 0x01, 0x5E, 0x47, 0x81, 0x3F, 0x5E, 0x00, 0x81, 0x41, 0x74, 0x4C,
	0x81, 0x3F, 0x74, 0x00, 0x83, 0x01, 0x5E, 0x4C, 0x81, 0x3F, 0x5E, 0x00,
	0x01, 0x61, 0x4C, 0x81, 0x3F, 0x61, 0x00, 0x01, 0x69, 0x4C, 0x81, 0x3F,
	0x69, 0x00, 0x01, 0x68, 0x4C, 0x81, 0x3F, 0x68, 0x00, 0x81, 0x41, 0x74,
	0x4C, 0x81, 0x3F, 0x74, 0x00, 0x83, 0x01, 0x59, 0x47, 0x81, 0x3F, 0x59,
	0x00, 0x01, 0x5C, 0x47, 0x81, 0x3F, 0x5C, 0x00, 0x01, 0x60, 0x47, 0x81,
	0x3F, 0x60, 0x00, 0x01, 0x65, 0x47, 0x81, 0x3F, 0x65, 0x00, 0x00, 0xFF,
	0x2F, 0x00, 0x4D, 0x54, 0x72, 0x6B, 0x00, 0x00, 0x13, 0xD0, 0x1E, 0xBE,
	0x79, 0x00, 0x10, 0x00, 0x00, 0x81, 0x10, 0xCE, 0x69, 0x60, 0xBE, 0x07,
	0x59, 0x31, 0x01, 0x00, 0x03, 0x02, 0x00, 0x0A, 0x05, 0x00, 0x22, 0x0A,
	0x1B, 0x02, 0x0B, 0x7F, 0x02, 0x40, 0x00, 0x05, 0x41, 0x00, 0x57, 0x5B,
	0x60, 0x60, 0x5D, 0x2C, 0x30, 0xEE, 0x00, 0x40, 0x30, 0xBE, 0x65, 0x00,
	0x00, 0x64, 0x00, 0x30, 0x06, 0x02, 0x86, 0x30, 0x9E, 0x4D, 0x42, 0x2A,
	0x4D, 0x00, 0x81, 0x16, 0x59, 0x42, 0x2A, 0x59, 0x00, 0x81, 0x16, 0x4D,
	0x42, 0x2A, 0x4D, 0x00, 0x81, 0x16, 0x59, 0x42, 0x2A, 0x59, 0x00, 0x81,
	0x16, 0x48, 0x42, 0x2A, 0x48, 0x00, 0x81, 0x16, 0x54, 0x42, 0x2A, 0x54,
	0x00, 0x81, 0x16, 0x48, 0x42, 0x2A, 0x48, 0x00, 0x81, 0x16, 0x54, 0x42,
	0x2A, 0x54, 0x00, 0x81, 0x16, 0x4D, 0x42, 0x2A, 0x4D, 0x00, 0x81, 0x16,
	0x59, 0x42, 0x2A, 0x59, 0x00, 0x81, 0x16, 0x4D, 0x42, 0x2A, 0x4D, 0x00,
	0x81, 0x16, 0x59, 0x42, 0x2A, 0x59, 0x00, 0x81, 0x16, 0x48, 0x42, 0x2A,
	0x48, 0x00, 0x81, 0x16, 0x54, 0x42, 0x2A, 0x54, 0x00, 0x81, 0x16, 0x48,
	0x42, 0x2A, 0x48, 0x00, 0x81, 0x16, 0x54, 0x42, 0x2A, 0x54, 0x00, 0x81,
	0x16, 0x46, 0x42, 0x2A, 0x46, 0x00, 0x81, 0x16, 0x52, 0x42, 0x2A, 0x52,
	0x00, 0x81, 0x16, 0x46, 0x42, 0x2A, 0x46, 0x00, 0x81, 0x16, 0x52, 0x42,
	0x2A, 0x52, 0x00, 0x81, 0x16, 0x48, 0x42, 0x2A, 0x48, 0x00, 0x81, 0x16,
	0x54, 0x42, 0x2A, 0x54, 0x00, 0x81, 0x16, 0x48, 0x42, 0x2A, 0x48, 0x00,
	0x81, 0x16, 0x54, 0x42, 0x2A, 0x54, 0x00, 0x81, 0x16, 0x4D, 0x42, 0x2A,
	0x4D, 0x00, 0x81, 0x16, 0x59, 0x42, 0x2A, 0x59, 0x00, 0x81, 0x16, 0x48,
	0x42, 0x2A, 0x48, 0x00, 0x81, 0x16, 0x4B, 0x42, 0x2A, 0x4B, 0x00, 0x81,
	0x16, 0x4D, 0x42, 0x5D, 0x4D, 0x00, 0x85, 0x23, 0x4D, 0x42, 0x2A, 0x4D,
	0x00, 0x81, 0x16, 0x59, 0x42, 0x2A, 0x59, 0x00, 0x81, 0x16, 0x4D, 0x42,
	0x2D, 0x4D, 0x00, 0x81, 0x13, 0x59, 0x42, 0x2D, 0x59, 0x00, 0x81, 0x13,
	0x48, 0x42, 0x2A, 0x48, 0x00, 0x81, 0x16, 0x54, 0x42, 0x2A, 0x54, 0x00,
	0x81, 0x16, 0x48, 0x42, 0x2D, 0x48, 0x00, 0x81, 0x13, 0x54, 0x42, 0x2D,
	0x54, 0x00, 0x81, 0x13, 0x4D, 0x42, 0x2A, 0x4D, 0x00, 0x81, 0x16, 0x59,
	0x42, 0x2A, 0x59, 0x00, 0x81, 0x16, 0x4D, 0x42, 0x2D, 0x4D, 0x00, 0x81,
	0x13, 0x59, 0x42, 0x2D, 0x59, 0x00, 0x81, 0x13, 0x48, 0x42, 0x2A, 0x48,
	0x00, 0x81, 0x16, 0x54, 0x42, 0x2A, 0x54, 0x00, 0x81, 0x16, 0x48, 0x42,
	0x2D, 0x48, 0x00, 0x81, 0x13, 0x54, 0x42, 0x2D, 0x54, 0x00, 0x81, 0x13,
	0x4D, 0x42, 0x2A, 0x4D, 0x00, 0x81, 0x16, 0x59, 0x42, 0x2A, 0x59, 0x00,
	0x81, 0x16, 0x4D, 0x42, 0x2D, 0x4D, 0x00, 0x81, 0x13, 0x59, 0x42, 0x2D,
	0x59, 0x00, 0x81, 0x13, 0x48, 0x42, 0x2A, 0x48, 0x00, 0x81, 0x16, 0x54,
	0x42, 0x2A, 0x54, 0x00, 0x81, 0x16, 0x48, 0x42, 0x2D, 0x48, 0x00, 0x81,
	0x13, 0x54, 0x42, 0x2D, 0x54, 0x00, 0x81, 0x13, 0x4D, 0x42, 0x2A, 0x4D,
	0x00, 0x81, 0x16, 0x59, 0x42, 0x2A, 0x59, 0x00, 0x81, 0x16, 0x4D, 0x42,
	0x2D, 0x4D, 0x00, 0x81, 0x13, 0x59, 0x42, 0x2D, 0x59, 0x00, 0x81, 0x13,
	0x48, 0x42, 0x2A, 0x48, 0x00, 0x81, 0x16, 0x54, 0x42, 0x2A, 0x54, 0x00,
	0x81, 0x16, 0x48, 0x42, 0x2D, 0x48, 0x00, 0x81, 0x13, 0x54, 0x42, 0x2D,
	0x54, 0x00, 0x81, 0x13, 0x46, 0x42, 0x2A, 0x46, 0x00, 0x81, 0x16, 0x52,
	0x42, 0x2A, 0x52, 0x00, 0x81, 0x16, 0x46, 0x42, 0x2D, 0x46, 0x00, 0x81,
	0x13, 0x52, 0x42, 0x2D, 0x52, 0x00, 0x81, 0x13, 0x48, 0x42, 0x2A, 0x48,
	0x00, 0x81, 0x16, 0x54, 0x42, 0x2A, 0x54, 0x00, 0x81, 0x16, 0x48, 0x42,
	0x2D, 0x48, 0x00, 0x81, 0x13, 0x54, 0x42, 0x2D, 0x54, 0x00, 0x81, 0x13,
	0x4D, 0x42, 0x2A, 0x4D, 0x00, 0x81, 0x16, 0x59, 0x42, 0x2A, 0x59, 0x00,
	0x81, 0x16, 0x48, 0x42, 0x2D, 0x48, 0x00, 0x81, 0x13, 0x4B, 0x42, 0x2D,
	0x4B, 0x00, 0x81, 0x13, 0x4D, 0x42, 0x2A, 0x4D, 0x00, 0x85, 0x56, 0x4D,
	0x42, 0x2A, 0x4D, 0x00, 0x81, 0x16, 0x59, 0x42, 0x2A, 0x59, 0x00, 0x81,
	0x16, 0x4D, 0x42, 0x2D, 0x4D, 0x00, 0x81, 0x13, 0x59, 0x42, 0x2D, 0x59,
	0x00, 0x81, 0x13, 0x48, 0x42, 0x2A, 0x48, 0x00, 0x81, 0x16, 0x54, 0x42,
	0x2A, 0x54, 0x00, 0x81, 0x16, 0x48, 0x42, 0x2D, 0x48, 0x00, 0x81, 0x13,
	0x54, 0x42, 0x2D, 0x54, 0x00, 0x81, 0x13, 0x4D, 0x42, 0x2A, 0x4D, 0x00,
	0x81, 0x16, 0x59, 0x42, 0x2A, 0x59, 0x00, 0x81, 0x16, 0x4D, 0x42, 0x2D,
	0x4D, 0x00, 0x81, 0x13, 0x59, 0x42, 0x2D, 0x59, 0x00, 0x81, 0x13, 0x48,
	0x42, 0x2A, 0x48, 0x00, 0x81, 0x16, 0x54, 0x42, 0x2A, 0x54, 0x00, 0x81,
	0x16, 0x48, 0x42, 0x2D, 0x48, 0x00, 0x81, 0x13, 0x54, 0x42, 0x2D, 0x54,
	0x00, 0x81, 0x13, 0x4D, 0x42, 0x2A, 0x4D, 0x00, 0x81, 0x16, 0x59, 0x42,
	0x2A, 0x59, 0x00, 0x81, 0x16, 0x4D, 0x42, 0x2D, 0x4D, 0x00, 0x81, 0x13,
	0x59, 0x42, 0x2D, 0x59, 0x00, 0x81, 0x13, 0x48, 0x42, 0x2A, 0x48, 0x00,
	0x81, 0x16, 0x54, 0x42, 0x2A, 0x54, 0x00, 0x81, 0x16, 0x48, 0x42, 0x2D,
	0x48, 0x00, 0x81, 0x13, 0x54, 0x42, 0x2D, 0x54, 0x00, 0x81, 0x13, 0x4D,
	0x42, 0x2A, 0x4D, 0x00, 0x81, 0x16, 0x59, 0x42, 0x2A, 0x59, 0x00, 0x81,
	0x16, 0x4D, 0x42, 0x2D, 0x4D, 0x00, 0x81, 0x13, 0x59, 0x42, 0x2D, 0x59,
	0x00, 0x81, 0x13, 0x48, 0x42, 0x2A, 0x48, 0x00, 0x81, 0x16, 0x54, 0x42,
	0x2A, 0x54, 0x00, 0x81, 0x16, 0x48, 0x42, 0x2D, 0x48, 0x00, 0x81, 0x13,
	0x54, 0x42, 0x2D, 0x54, 0x00, 0x81, 0x13, 0x46, 0x42, 0x2A, 0x46, 0x00,
	0x81, 0x16, 0x52, 0x42, 0x2A, 0x52, 0x00, 0x81, 0x16, 0x46, 0x42, 0x2D,
	0x46, 0x00, 0x81, 0x13, 0x52, 0x42, 0x2D, 0x52, 0x00, 0x81, 0x13, 0x48,
	0x42, 0x2A, 0x48, 0x00, 0x81, 0x16, 0x54, 0x42, 0x2A, 0x54, 0x00, 0x81,
	0x16, 0x48, 0x42, 0x2D, 0x48, 0x00, 0x81, 0x13, 0x54, 0x42, 0x2D, 0x54,
	0x00, 0x81, 0x13, 0x4D, 0x42, 0x2A, 0x4D, 0x00, 0x81, 0x16, 0x59, 0x42,
	0x2A, 0x59, 0x00, 0x81, 0x16, 0x48, 0x42, 0x2D, 0x48, 0x00, 0x81, 0x13,
	0x4B, 0x42, 0x2D, 0x4B, 0x00, 0x81, 0x13, 0x4D, 0x42, 0x2A, 0x4D, 0x00,
	0x83, 0x06, 0xCE, 0x19, 0x84, 0x10, 0x9E, 0x3C, 0x65, 0x00, 0x3F, 0x65,
	0x00, 0x44, 0x65, 0x81, 0x38, 0x3F, 0x00, 0x05, 0x44, 0x00, 0x02, 0x3C,
	0x00, 0x81, 0x41, 0x3C, 0x65, 0x00, 0x3F, 0x65, 0x00, 0x44, 0x65, 0x81,
	0x38, 0x3F, 0x00, 0x05, 0x44, 0x00, 0x02, 0x3C, 0x00, 0x81, 0x41, 0x3A,
	0x65, 0x00, 0x3F, 0x65, 0x00, 0x43, 0x65, 0x81, 0x38, 0x3F, 0x00, 0x05,
	0x43, 0x00, 0x02, 0x3A, 0x00, 0x81, 0x41, 0x3A, 0x65, 0x00, 0x3F, 0x65,
	0x00, 0x43, 0x65, 0x81, 0x38, 0x3F, 0x00, 0x05, 0x43, 0x00, 0x02, 0x3A,
	0x00, 0x81, 0x41, 0x3C, 0x65, 0x00, 0x41, 0x65, 0x00, 0x44, 0x65, 0x81,
	0x38, 0x41, 0x00, 0x05, 0x44, 0x00, 0x02, 0x3C, 0x00, 0x81, 0x41, 0x3C,
	0x65, 0x00, 0x41, 0x65, 0x00, 0x44, 0x65, 0x81, 0x38, 0x41, 0x00, 0x05,
	0x44, 0x00, 0x02, 0x3C, 0x00, 0x81, 0x41, 0x3C, 0x65, 0x00, 0x3F, 0x65,
	0x00, 0x43, 0x65, 0x81, 0x38, 0x3F, 0x00, 0x05, 0x43, 0x00, 0x02, 0x3C,
	0x00, 0x81, 0x41, 0x3C, 0x65, 0x00, 0x3F, 0x65, 0x00, 0x43, 0x65, 0x81,
	0x38, 0x3F, 0x00, 0x05, 0x43, 0x00, 0x02, 0x3C, 0x00, 0x81, 0x41, 0x3D,
	0x65, 0x00, 0x41, 0x65, 0x00, 0x44, 0x65, 0x81, 0x38, 0x41, 0x00, 0x05,
	0x44, 0x00, 0x02, 0x3D, 0x00, 0x81, 0x41, 0x3D, 0x65, 0x00, 0x41, 0x65,
	0x00, 0x44, 0x65, 0x81, 0x38, 0x41, 0x00, 0x05, 0x44, 0x00, 0x02, 0x3D,
	0x00, 0x81, 0x41, 0x3D, 0x65, 0x00, 0x3F, 0x65, 0x00, 0x44, 0x65, 0x81,
	0x38, 0x3F, 0x00, 0x05, 0x44, 0x00, 0x02, 0x3D, 0x00, 0x81, 0x41, 0x3D,
	0x65, 0x00, 0x3F, 0x65, 0x00, 0x44, 0x65, 0x81, 0x38, 0x3F, 0x00, 0x05,
	0x44, 0x00, 0x02, 0x3D, 0x00, 0x81, 0x41, 0x3C, 0x65, 0x00, 0x3F, 0x65,
	0x00, 0x44, 0x65, 0x81, 0x38, 0x3F, 0x00, 0x05, 0x44, 0x00, 0x02, 0x3C,
	0x00, 0x81, 0x41, 0x3C, 0x65, 0x00, 0x3F, 0x65, 0x00, 0x44, 0x65, 0x58,
	0x3F, 0x00, 0x05, 0x44, 0x00, 0x02, 0x3C, 0x00, 0x21, 0x3C, 0x5E, 0x00,
	0x3F, 0x5E, 0x00, 0x44, 0x5E, 0x1D, 0x3C, 0x00, 0x00, 0x44, 0x00, 0x01,
	0x3F, 0x00, 0x22, 0x3A, 0x65, 0x00, 0x3F, 0x65, 0x00, 0x43, 0x65, 0x58,
	0x3F, 0x00, 0x05, 0x43, 0x00, 0x02, 0x3A, 0x00, 0x21, 0x3A, 0x5E, 0x00,
	0x3F, 0x5E, 0x00, 0x43, 0x5E, 0x27, 0x3A, 0x00, 0x00, 0x43, 0x00, 0x01,
	0x3F, 0x00, 0x18, 0x3D, 0x65, 0x00, 0x3F, 0x65, 0x00, 0x43, 0x65, 0x58,
	0x3F, 0x00, 0x04, 0x43, 0x00, 0x03, 0x3D, 0x00, 0x21, 0x3D, 0x5E, 0x00,
	0x3F, 0x5E, 0x00, 0x43, 0x5E, 0x26, 0x3D, 0x00, 0x02, 0x3F, 0x00, 0x00,
	0x43, 0x00, 0x18, 0x3C, 0x65, 0x00, 0x3F, 0x65, 0x00, 0x43, 0x65, 0x28,
	0x3F, 0x00, 0x05, 0x43, 0x00, 0x02, 0x3C, 0x00, 0x81, 0x11, 0x3A, 0x65,
	0x00, 0x3F, 0x65, 0x00, 0x43, 0x65, 0x81, 0x38, 0x3F, 0x00, 0x05, 0x43,
	0x00, 0x02, 0x3A, 0x00, 0x81, 0x41, 0x3C, 0x65, 0x00, 0x3F, 0x65, 0x00,
	0x44, 0x65, 0x81, 0x38, 0x3F, 0x00, 0x05, 0x44, 0x00, 0x02, 0x3C, 0x00,
	0x81, 0x41, 0x3C, 0x65, 0x00, 0x3F, 0x65, 0x00, 0x44, 0x65, 0x81, 0x38,
	0x3F, 0x00, 0x05, 0x44, 0x00, 0x02, 0x3C, 0x00, 0x81, 0x41, 0x3A, 0x65,
	0x00, 0x3F, 0x65, 0x00, 0x43, 0x65, 0x81, 0x38, 0x3F, 0x00, 0x05, 0x43,
	0x00, 0x02, 0x3A, 0x00, 0x81, 0x41, 0x3A, 0x65, 0x00, 0x3F, 0x65, 0x00,
	0x43, 0x65, 0x81, 0x38, 0x3F, 0x00, 0x05, 0x43, 0x00, 0x02, 0x3A, 0x00,
	0x81, 0x41, 0x3C, 0x65, 0x00, 0x41, 0x65, 0x00, 0x44, 0x65, 0x81, 0x38,
	0x41, 0x00, 0x05, 0x44, 0x00, 0x02, 0x3C, 0x00, 0x81, 0x41, 0x3C, 0x65,
	0x00, 0x41, 0x65, 0x00, 0x44, 0x65, 0x81, 0x38, 0x41, 0x00, 0x05, 0x44,
	0x00, 0x02, 0x3C, 0x00, 0x81, 0x41, 0x3C, 0x65, 0x00, 0x3F, 0x65, 0x00,
	0x43, 0x65, 0x81, 0x38, 0x3F, 0x00, 0x05, 0x43, 0x00, 0x02, 0x3C, 0x00,
	0x81, 0x41, 0x3C, 0x65, 0x00, 0x3F, 0x65, 0x00, 0x43, 0x65, 0x81, 0x38,
	0x3F, 0x00, 0x05, 0x43, 0x00, 0x02, 0x3C, 0x00, 0x81, 0x41, 0x3D, 0x65,
	0x00, 0x41, 0x65, 0x00, 0x44, 0x65, 0x81, 0x38, 0x41, 0x00, 0x05, 0x44,
	0x00, 0x02, 0x3D, 0x00, 0x81, 0x41, 0x3D, 0x65, 0x00, 0x41, 0x65, 0x00,
	0x44, 0x65, 0x81, 0x38, 0x41, 0x00, 0x05, 0x44, 0x00, 0x02, 0x3D, 0x00,
	0x81, 0x41, 0x3E, 0x65, 0x00, 0x41, 0x65, 0x00, 0x44, 0x65, 0x81, 0x38,
	0x41, 0x00, 0x05, 0x44, 0x00, 0x02, 0x3E, 0x00, 0x81, 0x41, 0x3E, 0x65,
	0x00, 0x41, 0x65, 0x00, 0x44, 0x65, 0x81, 0x38, 0x41, 0x00, 0x05, 0x44,
	0x00, 0x02, 0x3E, 0x00, 0x81, 0x41, 0x3D, 0x65, 0x00, 0x3F, 0x65, 0x00,
	0x44, 0x65, 0x81, 0x38, 0x3D, 0x00, 0x05, 0x44, 0x00, 0x02, 0x3F, 0x00,
	0x81, 0x41, 0x3D, 0x65, 0x00, 0x3F, 0x65, 0x00, 0x44, 0x65, 0x81, 0x38,
	0x3F, 0x00, 0x05, 0x44, 0x00, 0x02, 0x3D, 0x00, 0x81, 0x01, 0x3A, 0x5A,
	0x00, 0x3F, 0x59, 0x00, 0x43, 0x5E, 0x14, 0x3F, 0x00, 0x05, 0x43, 0x00,
	0x25, 0x3A, 0x00, 0x02, 0x3A, 0x67, 0x00, 0x3F, 0x5E, 0x00, 0x43, 0x5B,
	0x18, 0x43, 0x00, 0x02, 0x3F, 0x00, 0x24, 0x3A, 0x00, 0x02, 0x3A, 0x5A,
	0x00, 0x3F, 0x5F, 0x00, 0x43, 0x52, 0x14, 0x3F, 0x00, 0x05, 0x43, 0x00,
	0x21, 0x3A, 0x00, 0x06, 0x3A, 0x5F, 0x00, 0x3F, 0x61, 0x00, 0x43, 0x5A,
	0x19, 0x43, 0x00, 0x04, 0x3F, 0x00, 0x1C, 0x3A, 0x00, 0x07, 0x3A, 0x67,
	0x00, 0x3F, 0x5E, 0x00, 0x43, 0x5B, 0x18, 0x43, 0x00, 0x03, 0x3F, 0x00,
	0x23, 0x3A, 0x00, 0x02, 0x3A, 0x5A, 0x00, 0x3F, 0x5F, 0x00, 0x43, 0x52,
	0x14, 0x3F, 0x00, 0x05, 0x43, 0x00, 0x21, 0x3A, 0x00, 0x06, 0x3A, 0x5F,
	0x00, 0x3F, 0x61, 0x00, 0x43, 0x5A, 0x19, 0x43, 0x00, 0x04, 0x3F, 0x00,
	0x1C, 0x3A, 0x00, 0x07, 0x3A, 0x65, 0x00, 0x3F, 0x65, 0x00, 0x43, 0x65,
	0x81, 0x24, 0x3A, 0x00, 0x04, 0x43, 0x00, 0x03, 0x3F, 0x00, 0x05, 0xCE,
	0x69, 0x10, 0x9E, 0x4D, 0x42, 0x2A, 0x4D, 0x00, 0x81, 0x16, 0x59, 0x42,
	0x2A, 0x59, 0x00, 0x81, 0x16, 0x4D, 0x42, 0x2D, 0x4D, 0x00, 0x81, 0x13,
	0x59, 0x42, 0x2D, 0x59, 0x00, 0x81, 0x13, 0x48, 0x42, 0x2A, 0x48, 0x00,
	0x81, 0x16, 0x54, 0x42, 0x2A, 0x54, 0x00, 0x81, 0x16, 0x48, 0x42, 0x2D,
	0x48, 0x00, 0x81, 0x13, 0x54, 0x42, 0x2D, 0x54, 0x00, 0x81, 0x13, 0x4D,
	0x42, 0x2A, 0x4D, 0x00, 0x81, 0x16, 0x59, 0x42, 0x2A, 0x59, 0x00, 0x81,
	0x16, 0x4D, 0x42, 0x2D, 0x4D, 0x00, 0x81, 0x13, 0x59, 0x42, 0x2D, 0x59,
	0x00, 0x81, 0x13, 0x48, 0x42, 0x2A, 0x48, 0x00, 0x81, 0x16, 0x54, 0x42,
	0x2A, 0x54, 0x00, 0x81, 0x16, 0x48, 0x42, 0x2D, 0x48, 0x00, 0x81, 0x13,
	0x54, 0x42, 0x2D, 0x54, 0x00, 0x81, 0x13, 0x46, 0x42, 0x2A, 0x46, 0x00,
	0x81, 0x16, 0x52, 0x42, 0x2A, 0x52, 0x00, 0x81, 0x16, 0x46, 0x42, 0x2D,
	0x46, 0x00, 0x81, 0x13, 0x52, 0x42, 0x2D, 0x52, 0x00, 0x81, 0x13, 0x48,
	0x42, 0x2A, 0x48, 0x00, 0x81, 0x16, 0x54, 0x42, 0x2A, 0x54, 0x00, 0x81,
	0x16, 0x48, 0x42, 0x2D, 0x48, 0x00, 0x81, 0x13, 0x54, 0x42, 0x2D, 0x54,
	0x00, 0x81, 0x13, 0x4D, 0x42, 0x2A, 0x4D, 0x00, 0x81, 0x16, 0x59, 0x42,
	0x2A, 0x59, 0x00, 0x81, 0x16, 0x48, 0x42, 0x2D, 0x48, 0x00, 0x81, 0x13,
	0x4B, 0x42, 0x2D, 0x4B, 0x00, 0x81, 0x13, 0x4D, 0x42, 0x2A, 0x4D, 0x00,
	0x85, 0x56, 0x4D, 0x42, 0x2A, 0x4D, 0x00, 0x81, 0x16, 0x59, 0x42, 0x2A,
	0x59, 0x00, 0x81, 0x16, 0x4D, 0x42, 0x2D, 0x4D, 0x00, 0x81, 0x13, 0x59,
	0x42, 0x2D, 0x59, 0x00, 0x81, 0x13, 0x48, 0x42, 0x2A, 0x48, 0x00, 0x81,
	0x16, 0x54, 0x42, 0x2A, 0x54, 0x00, 0x81, 0x16, 0x48, 0x42, 0x2D, 0x48,
	0x00, 0x81, 0x13, 0x54, 0x42, 0x2D, 0x54, 0x00, 0x81, 0x13, 0x4D, 0x42,
	0x2A, 0x4D, 0x00, 0x81, 0x16, 0x59, 0x42, 0x2A, 0x59, 0x00, 0x81, 0x16,
	0x4D, 0x42, 0x2D, 0x4D, 0x00, 0x81, 0x13, 0x59, 0x42, 0x2D, 0x59, 0x00,
	0x81, 0x13, 0x48, 0x42, 0x2A, 0x48, 0x00, 0x81, 0x16, 0x54, 0x42, 0x2A,
	0x54, 0x00, 0x81, 0x16, 0x48, 0x42, 0x2D, 0x48, 0x00, 0x81, 0x13, 0x54,
	0x42, 0x2D, 0x54, 0x00, 0x81, 0x13, 0x4D, 0x42, 0x2A, 0x4D, 0x00, 0x81,
	0x16, 0x59, 0x42, 0x2A, 0x59, 0x00, 0x81, 0x16, 0x4D, 0x42, 0x2D, 0x4D,
	0x00, 0x81, 0x13, 0x59, 0x42, 0x2D, 0x59, 0x00, 0x81, 0x13, 0x48, 0x42,
	0x2A, 0x48, 0x00, 0x81, 0x16, 0x54, 0x42, 0x2A, 0x54, 0x00, 0x81, 0x16,
	0x48, 0x42, 0x2D, 0x48, 0x00, 0x81, 0x13, 0x54, 0x42, 0x2D, 0x54, 0x00,
	0x81, 0x13, 0x4D, 0x42, 0x2A, 0x4D, 0x00, 0x81, 0x16, 0x59, 0x42, 0x2A,
	0x59, 0x00, 0x81, 0x16, 0x4D, 0x42, 0x2D, 0x4D, 0x00, 0x81, 0x13, 0x59,
	0x42, 0x2D, 0x59, 0x00, 0x81, 0x13, 0x48, 0x42, 0x2A, 0x48, 0x00, 0x81,
	0x16, 0x54, 0x42, 0x2A, 0x54, 0x00, 0x81, 0x16, 0x48, 0x42, 0x2D, 0x48,
	0x00, 0x81, 0x13, 0x54, 0x42, 0x2D, 0x54, 0x00, 0x81, 0x13, 0x46, 0x42,
	0x2A, 0x46, 0x00, 0x81, 0x16, 0x52, 0x42, 0x2A, 0x52, 0x00, 0x81, 0x16,
	0x46, 0x42, 0x2D, 0x46, 0x00, 0x81, 0x13, 0x52, 0x42, 0x2D, 0x52, 0x00,
	0x81, 0x13, 0x48, 0x42, 0x2A, 0x48, 0x00, 0x81, 0x16, 0x54, 0x42, 0x2A,
	0x54, 0x00, 0x81, 0x16, 0x48, 0x42, 0x2D, 0x48, 0x00, 0x81, 0x13, 0x54,
	0x42, 0x2D, 0x54, 0x00, 0x81, 0x13, 0x4D, 0x42, 0x2A, 0x4D, 0x00, 0x81,
	0x16, 0x59, 0x42, 0x2A, 0x59, 0x00, 0x81, 0x16, 0x48, 0x42, 0x2D, 0x48,
	0x00, 0x81, 0x13, 0x4B, 0x42, 0x2D, 0x4B, 0x00, 0x81, 0x13, 0x4D, 0x42,
	0x2A, 0x4D, 0x00, 0xB5, 0x56, 0x4D, 0x42, 0x2A, 0x4D, 0x00, 0x81, 0x16,
	0x59, 0x42, 0x2A, 0x59, 0x00, 0x81, 0x16, 0x4D, 0x42, 0x2D, 0x4D, 0x00,
	0x81, 0x13, 0x59, 0x42, 0x2D, 0x59, 0x00, 0x81, 0x13, 0x48, 0x42, 0x2A,
	0x48, 0x00, 0x81, 0x16, 0x54, 0x42, 0x2A, 0x54, 0x00, 0x81, 0x16, 0x48,
	0x42, 0x2D, 0x48, 0x00, 0x81, 0x13, 0x54, 0x42, 0x2D, 0x54, 0x00, 0x81,
	0x13, 0x4D, 0x42, 0x2A, 0x4D, 0x00, 0x81, 0x16, 0x59, 0x42, 0x2A, 0x59,
	0x00, 0x81, 0x16, 0x4D, 0x42, 0x2D, 0x4D, 0x00, 0x81, 0x13, 0x59, 0x42,
	0x2D, 0x59, 0x00, 0x81, 0x13, 0x48, 0x42, 0x2A, 0x48, 0x00, 0x81, 0x16,
	0x54, 0x42, 0x2A, 0x54, 0x00, 0x81, 0x16, 0x48, 0x42, 0x2D, 0x48, 0x00,
	0x81, 0x13, 0x54, 0x42, 0x2D, 0x54, 0x00, 0x81, 0x13, 0x46, 0x42, 0x2A,
	0x46, 0x00, 0x81, 0x16, 0x52, 0x42, 0x2A, 0x52, 0x00, 0x81, 0x16, 0x46,
	0x42, 0x2D, 0x46, 0x00, 0x81, 0x13, 0x52, 0x42, 0x2D, 0x52, 0x00, 0x81,
	0x13, 0x48, 0x42, 0x2A, 0x48, 0x00, 0x81, 0x16, 0x54, 0x42, 0x2A, 0x54,
	0x00, 0x81, 0x16, 0x48, 0x42, 0x2D, 0x48, 0x00, 0x81, 0x13, 0x54, 0x42,
	0x2D, 0x54, 0x00, 0x81, 0x13, 0x4D, 0x42, 0x2A, 0x4D, 0x00, 0x81, 0x16,
	0x59, 0x42, 0x2A, 0x59, 0x00, 0x81, 0x16, 0x48, 0x42, 0x2D, 0x48, 0x00,
	0x81, 0x13, 0x4B, 0x42, 0x2D, 0x4B, 0x00, 0x63, 0xCE, 0x19, 0x30, 0x9E,
	0x30, 0x66, 0x00, 0x35, 0x6D, 0x00, 0x3C, 0x66, 0x81, 0x3A, 0x3C, 0x00,
	0x01, 0x30, 0x00, 0x01, 0x35, 0x00, 0x04, 0x30, 0x70, 0x00, 0x35, 0x77,
	0x00, 0x3C, 0x70, 0x81, 0x3A, 0x30, 0x00, 0x00, 0x35, 0x00, 0x04, 0x3C,
	0x00, 0x02, 0x30, 0x69, 0x00, 0x35, 0x6C, 0x00, 0x3C, 0x6C, 0x81, 0x39,
	0x3C, 0x00, 0x04, 0x30, 0x00, 0x00, 0x35, 0x00, 0x03, 0x30, 0x77, 0x00,
	0x35, 0x77, 0x00, 0x3C, 0x77, 0x81, 0x38, 0x30, 0x00, 0x03, 0x35, 0x00,
	0x01, 0x3C, 0x00, 0x04, 0x33, 0x5F, 0x00, 0x38, 0x5F, 0x00, 0x3F, 0x5F,
	0x81, 0x38, 0x33, 0x00, 0x03, 0x38, 0x00, 0x01, 0x3F, 0x00, 0x04, 0x33,
	0x73, 0x00, 0x38, 0x73, 0x00, 0x3F, 0x73, 0x81, 0x38, 0x33, 0x00, 0x03,
	0x38, 0x00, 0x01, 0x3F, 0x00, 0x04, 0x33, 0x5F, 0x00, 0x38, 0x5F, 0x00,
	0x3F, 0x5F, 0x7D, 0x33, 0x00, 0x00, 0x3F, 0x00, 0x01, 0x38, 0x00, 0x02,
	0x33, 0x5F, 0x00, 0x38, 0x5F, 0x00, 0x3F, 0x5F, 0x3D, 0x33, 0x00, 0x00,
	0x38, 0x00, 0x00, 0x3F, 0x00, 0x03, 0x33, 0x73, 0x00, 0x38, 0x73, 0x00,
	0x3F, 0x73, 0x81, 0x38, 0x33, 0x00, 0x03, 0x38, 0x00, 0x01, 0x3F, 0x00,
	0x04, 0x33, 0x5F, 0x00, 0x3A, 0x5F, 0x00, 0x3F, 0x5F, 0x81, 0x38, 0x33,
	0x00, 0x03, 0x3A, 0x00, 0x01, 0x3F, 0x00, 0x04, 0x33, 0x73, 0x00, 0x3A,
	0x73, 0x00, 0x3F, 0x73, 0x81, 0x38, 0x33, 0x00, 0x03, 0x3A, 0x00, 0x01,
	0x3F, 0x00, 0x04, 0x33, 0x5F, 0x00, 0x3A, 0x5F, 0x00, 0x3F, 0x5F, 0x7D,
	0x33, 0x00, 0x00, 0x3F, 0x00, 0x01, 0x3A, 0x00, 0x02, 0x33, 0x5F, 0x00,
	0x3A, 0x5F, 0x00, 0x3F, 0x5F, 0x3D, 0x33, 0x00, 0x00, 0x3A, 0x00, 0x00,
	0x3F, 0x00, 0x03, 0x33, 0x73, 0x00, 0x3A, 0x73, 0x00, 0x3F, 0x73, 0x7D,
	0x33, 0x00, 0x00, 0x3F, 0x00, 0x01, 0x3A, 0x00, 0x02, 0x33, 0x5F, 0x00,
	0x3A, 0x5F, 0x00, 0x3F, 0x5F, 0x3D, 0x33, 0x00, 0x00, 0x3A, 0x00, 0x00,
	0x3F, 0x00, 0x03, 0x35, 0x5F, 0x00, 0x3C, 0x5F, 0x00, 0x41, 0x5F, 0x81,
	0x38, 0x35, 0x00, 0x03, 0x3C, 0x00, 0x01, 0x41, 0x00, 0x04, 0x35, 0x73,
	0x00, 0x3C, 0x73, 0x00, 0x41, 0x73, 0x81, 0x38, 0x35, 0x00, 0x03, 0x3C,
	0x00, 0x01, 0x41, 0x00, 0x04, 0x35, 0x5F, 0x00, 0x3C, 0x5F, 0x00, 0x41,
	0x5F, 0x7D, 0x35, 0x00, 0x00, 0x41, 0x00, 0x01, 0x3C, 0x00, 0x02, 0x35,
	0x5F, 0x00, 0x3C, 0x5F, 0x00, 0x41, 0x5F, 0x3D, 0x35, 0x00, 0x00, 0x3C,
	0x00, 0x00, 0x41, 0x00, 0x03, 0x38, 0x73, 0x00, 0x3C, 0x73, 0x00, 0x41,
	0x73, 0x81, 0x38, 0x38, 0x00, 0x03, 0x3C, 0x00, 0x01, 0x41, 0x00, 0x04,
	0x37, 0x5F, 0x00, 0x3C, 0x5F, 0x00, 0x3F, 0x5F, 0x81, 0x38, 0x3C, 0x00,
	0x03, 0x37, 0x00, 0x01, 0x3F, 0x00, 0x04, 0x37, 0x73, 0x00, 0x3C, 0x73,
	0x00, 0x3F, 0x73, 0x81, 0x38, 0x3C, 0x00, 0x03, 0x37, 0x00, 0x01, 0x3F,
	0x00, 0x04, 0x37, 0x5F, 0x00, 0x3C, 0x5F, 0x00, 0x3F, 0x5F, 0x7D, 0x3C,
	0x00, 0x00, 0x3F, 0x00, 0x01, 0x37, 0x00, 0x02, 0x37, 0x5F, 0x00, 0x3C,
	0x5F, 0x00, 0x3F, 0x5F, 0x3D, 0x37, 0x00, 0x00, 0x3C, 0x00, 0x00, 0x3F,
	0x00, 0x03, 0x37, 0x73, 0x00, 0x3C, 0x73, 0x00, 0x3F, 0x73, 0x7D, 0x3C,
	0x00, 0x00, 0x3F, 0x00, 0x01, 0x37, 0x00, 0x02, 0x37, 0x5F, 0x00, 0x3C,
	0x5F, 0x00, 0x3F, 0x5F, 0x3D, 0x37, 0x00, 0x00, 0x3C, 0x00, 0x00, 0x3F,
	0x00, 0x03, 0x38, 0x5F, 0x00, 0x3D, 0x5F, 0x00, 0x41, 0x5F, 0x81, 0x38,
	0x41, 0x00, 0x03, 0x38, 0x00, 0x01, 0x3D, 0x00, 0x04, 0x38, 0x73, 0x00,
	0x3D, 0x73, 0x00, 0x41, 0x73, 0x81, 0x38, 0x41, 0x00, 0x03, 0x38, 0x00,
	0x01, 0x3D, 0x00, 0x04, 0x38, 0x5F, 0x00, 0x3D, 0x5F, 0x00, 0x41, 0x5F,
	0x7D, 0x3D, 0x00, 0x00, 0x41, 0x00, 0x01, 0x38, 0x00, 0x02, 0x38, 0x5F,
	0x00, 0x3D, 0x5F, 0x00, 0x41, 0x5F, 0x3D, 0x38, 0x00, 0x00, 0x3D, 0x00,
	0x00, 0x41, 0x00, 0x03, 0x38, 0x73, 0x00, 0x3D, 0x73, 0x00, 0x41, 0x73,
	0x81, 0x38, 0x41, 0x00, 0x03, 0x38, 0x00, 0x01, 0x3D, 0x00, 0x04, 0x38,
	0x5F, 0x00, 0x3A, 0x5F, 0x00, 0x41, 0x5F, 0x81, 0x38, 0x41, 0x00, 0x03,
	0x3A, 0x00, 0x01, 0x38, 0x00, 0x04, 0x38, 0x73, 0x00, 0x3A, 0x73, 0x00,
	0x41, 0x73, 0x81, 0x38, 0x41, 0x00, 0x03, 0x3A, 0x00, 0x01, 0x38, 0x00,
	0x04, 0x38, 0x5F, 0x00, 0x3A, 0x5F, 0x00, 0x3F, 0x5F, 0x7D, 0x38, 0x00,
	0x00, 0x3F, 0x00, 0x01, 0x3A, 0x00, 0x02, 0x38, 0x5F, 0x00, 0x3A, 0x5F,
	0x00, 0x3F, 0x5F, 0x3D, 0x38, 0x00, 0x00, 0x3A, 0x00, 0x00, 0x3F, 0x00,
	0x03, 0x38, 0x73, 0x00, 0x3A, 0x73, 0x00, 0x3D, 0x73, 0x7D, 0x38, 0x00,
	0x00, 0x3D, 0x00, 0x01, 0x3A, 0x00, 0x02, 0x38, 0x5F, 0x00, 0x3A, 0x5F,
	0x00, 0x3D, 0x5F, 0x3D, 0x38, 0x00, 0x00, 0x3A, 0x00, 0x00, 0x3D, 0x00,
	0x03, 0x33, 0x5F, 0x00, 0x38, 0x5F, 0x00, 0x3C, 0x5F, 0x81, 0x38, 0x3C,
	0x00, 0x03, 0x33, 0x00, 0x01, 0x38, 0x00, 0x04, 0x33, 0x73, 0x00, 0x38,
	0x73, 0x00, 0x3C, 0x73, 0x81, 0x38, 0x3C, 0x00, 0x03, 0x33, 0x00, 0x01,
	0x38, 0x00, 0x04, 0x33, 0x5F, 0x00, 0x38, 0x5F, 0x00, 0x3C, 0x5F, 0x7D,
	0x38, 0x00, 0x00, 0x3C, 0x00, 0x01, 0x33, 0x00, 0x02, 0x33, 0x5F, 0x00,
	0x38, 0x5F, 0x00, 0x3C, 0x5F, 0x3D, 0x33, 0x00, 0x00, 0x38, 0x00, 0x00,
	0x3C, 0x00, 0x03, 0x33, 0x73, 0x00, 0x38, 0x73, 0x00, 0x3C, 0x73, 0x81,
	0x38, 0x3C, 0x00, 0x03, 0x33, 0x00, 0x01, 0x38, 0x00, 0x04, 0x33, 0x5F,
	0x00, 0x3A, 0x5F, 0x00, 0x3F, 0x5F, 0x7D, 0x33, 0x00, 0x00, 0x3F, 0x00,
	0x01, 0x3A, 0x00, 0x02, 0x33, 0x5F, 0x00, 0x3A, 0x5F, 0x00, 0x3F, 0x5F,
	0x3D, 0x33, 0x00, 0x00, 0x3A, 0x00, 0x00, 0x3F, 0x00, 0x03, 0x34, 0x73,
	0x00, 0x3A, 0x73, 0x00, 0x3F, 0x73, 0x7D, 0x34, 0x00, 0x00, 0x3F, 0x00,
	0x01, 0x3A, 0x00, 0x02, 0x34, 0x5F, 0x00, 0x3A, 0x5F, 0x00, 0x3F, 0x5F,
	0x3D, 0x34, 0x00, 0x00, 0x3A, 0x00, 0x00, 0x3F, 0x00, 0x03, 0x35, 0x5F,
	0x00, 0x3A, 0x5F, 0x00, 0x3F, 0x5F, 0x7D, 0x35, 0x00, 0x00, 0x3F, 0x00,
	0x01, 0x3A, 0x00, 0x02, 0x35, 0x5F, 0x00, 0x3A, 0x5F, 0x00, 0x3F, 0x5F,
	0x3D, 0x35, 0x00, 0x00, 0x3A, 0x00, 0x00, 0x3F, 0x00, 0x03, 0x37, 0x73,
	0x00, 0x3A, 0x73, 0x00, 0x3F, 0x73, 0x7D, 0x37, 0x00, 0x00, 0x3F, 0x00,
	0x01, 0x3A, 0x00, 0x02, 0x37, 0x5F, 0x00, 0x3A, 0x5F, 0x00, 0x3F, 0x5F,
	0x3D, 0x37, 0x00, 0x00, 0x3A, 0x00, 0x00, 0x3F, 0x00, 0x03, 0x33, 0x5F,
	0x00, 0x38, 0x5F, 0x00, 0x3F, 0x5F, 0x81, 0x38, 0x33, 0x00, 0x03, 0x38,
	0x00, 0x01, 0x3F, 0x00, 0x04, 0x33, 0x73, 0x00, 0x38, 0x73, 0x00, 0x3F,
	0x73, 0x81, 0x38, 0x33, 0x00, 0x03, 0x38, 0x00, 0x01, 0x3F, 0x00, 0x04,
	0x33, 0x5F, 0x00, 0x38, 0x5F, 0x00, 0x3F, 0x5F, 0x7D, 0x33, 0x00, 0x00,
	0x3F, 0x00, 0x01, 0x38, 0x00, 0x02, 0x33, 0x5F, 0x00, 0x38, 0x5F, 0x00,
	0x3F, 0x5F, 0x3D, 0x33, 0x00, 0x00, 0x38, 0x00, 0x00, 0x3F, 0x00, 0x03,
	0x33, 0x73, 0x00, 0x38, 0x73, 0x00, 0x3F, 0x73, 0x81, 0x38, 0x33, 0x00,
	0x03, 0x38, 0x00, 0x01, 0x3F, 0x00, 0x04, 0x33, 0x5F, 0x00, 0x3A, 0x5F,
	0x00, 0x3F, 0x5F, 0x81, 0x38, 0x33, 0x00, 0x03, 0x3A, 0x00, 0x01, 0x3F,
	0x00, 0x04, 0x33, 0x73, 0x00, 0x3A, 0x73, 0x00, 0x3F, 0x73, 0x81, 0x38,
	0x33, 0x00, 0x03, 0x3A, 0x00, 0x01, 0x3F, 0x00, 0x04, 0x33, 0x5F, 0x00,
	0x3A, 0x5F, 0x00, 0x3F, 0x5F, 0x7D, 0x33, 0x00, 0x00, 0x3F, 0x00, 0x01,
	0x3A, 0x00, 0x02, 0x33, 0x5F, 0x00, 0x3A, 0x5F, 0x00, 0x3F, 0x5F, 0x3D,
	0x33, 0x00, 0x00, 0x3A, 0x00, 0x00, 0x3F, 0x00, 0x03, 0x33, 0x73, 0x00,
	0x3A, 0x73, 0x00, 0x3F, 0x73, 0x7D, 0x33, 0x00, 0x00, 0x3F, 0x00, 0x01,
	0x3A, 0x00, 0x02, 0x33, 0x5F, 0x00, 0x3A, 0x5F, 0x00, 0x3F, 0x5F, 0x3D,
	0x33, 0x00, 0x00, 0x3A, 0x00, 0x00, 0x3F, 0x00, 0x03, 0x35, 0x5F, 0x00,
	0x3C, 0x5F, 0x00, 0x41, 0x5F, 0x81, 0x38, 0x35, 0x00, 0x03, 0x3C, 0x00,
	0x01, 0x41, 0x00, 0x04, 0x35, 0x73, 0x00, 0x3C, 0x73, 0x00, 0x41, 0x73,
	0x81, 0x38, 0x35, 0x00, 0x03, 0x3C, 0x00, 0x01, 0x41, 0x00, 0x04, 0x35,
	0x5F, 0x00, 0x3C, 0x5F, 0x00, 0x41, 0x5F, 0x7D, 0x35, 0x00, 0x00, 0x41,
	0x00, 0x01, 0x3C, 0x00, 0x02, 0x35, 0x5F, 0x00, 0x3C, 0x5F, 0x00, 0x41,
	0x5F, 0x3D, 0x35, 0x00, 0x00, 0x3C, 0x00, 0x00, 0x41, 0x00, 0x03, 0x38,
	0x73, 0x00, 0x3C, 0x73, 0x00, 0x41, 0x73, 0x81, 0x38, 0x38, 0x00, 0x03,
	0x3C, 0x00, 0x01, 0x41, 0x00, 0x04, 0x37, 0x5F, 0x00, 0x3C, 0x5F, 0x00,
	0x3F, 0x5F, 0x81, 0x38, 0x3C, 0x00, 0x03, 0x37, 0x00, 0x01, 0x3F, 0x00,
	0x04, 0x37, 0x73, 0x00, 0x3C, 0x73, 0x00, 0x3F, 0x73, 0x81, 0x38, 0x3C,
	0x00, 0x03, 0x37, 0x00, 0x01, 0x3F, 0x00, 0x04, 0x37, 0x5F, 0x00, 0x3C,
	0x5F, 0x00, 0x3F, 0x5F, 0x7D, 0x3C, 0x00, 0x00, 0x3F, 0x00, 0x01, 0x37,
	0x00, 0x02, 0x37, 0x5F, 0x00, 0x3C, 0x5F, 0x00, 0x3F, 0x5F, 0x3D, 0x37,
	0x00, 0x00, 0x3C, 0x00, 0x00, 0x3F, 0x00, 0x03, 0x37, 0x73, 0x00, 0x3C,
	0x73, 0x00, 0x3F, 0x73, 0x7D, 0x3C, 0x00, 0x00, 0x3F, 0x00, 0x01, 0x37,
	0x00, 0x02, 0x37, 0x5F, 0x00, 0x3C, 0x5F, 0x00, 0x3F, 0x5F, 0x3D, 0x37,
	0x00, 0x00, 0x3C, 0x00, 0x00, 0x3F, 0x00, 0x03, 0x38, 0x5F, 0x00, 0x3D,
	0x5F, 0x00, 0x41, 0x5F, 0x81, 0x38, 0x41, 0x00, 0x03, 0x38, 0x00, 0x01,
	0x3D, 0x00, 0x04, 0x38, 0x73, 0x00, 0x3D, 0x73, 0x00, 0x41, 0x73, 0x81,
	0x38, 0x41, 0x00, 0x03, 0x38, 0x00, 0x01, 0x3D, 0x00, 0x04, 0x38, 0x5F,
	0x00, 0x3D, 0x5F, 0x00, 0x41, 0x5F, 0x7D, 0x3D, 0x00, 0x00, 0x41, 0x00,
	0x01, 0x38, 0x00, 0x02, 0x38, 0x5F, 0x00, 0x3D, 0x5F, 0x00, 0x41, 0x5F,
	0x3D, 0x38, 0x00, 0x00, 0x3D, 0x00, 0x00, 0x41, 0x00, 0x03, 0x38, 0x73,
	0x00, 0x3D, 0x73, 0x00, 0x41, 0x73, 0x81, 0x38, 0x41, 0x00, 0x03, 0x38,
	0x00, 0x01, 0x3D, 0x00, 0x04, 0x38, 0x5F, 0x00, 0x3A, 0x5F, 0x00, 0x41,
	0x5F, 0x81, 0x38, 0x3A, 0x00, 0x03, 0x38, 0x00, 0x01, 0x41, 0x00, 0x04,
	0x38, 0x73, 0x00, 0x3A, 0x73, 0x00, 0x41, 0x73, 0x81, 0x38, 0x3A, 0x00,
	0x03, 0x38, 0x00, 0x01, 0x41, 0x00, 0x04, 0x3A, 0x5F, 0x00, 0x3E, 0x5F,
	0x00, 0x41, 0x5F, 0x7D, 0x3A, 0x00, 0x00, 0x41, 0x00, 0x01, 0x3E, 0x00,
	0x02, 0x3A, 0x5F, 0x00, 0x3E, 0x5F, 0x00, 0x41, 0x5F, 0x3D, 0x3A, 0x00,
	0x00, 0x3E, 0x00, 0x00, 0x41, 0x00, 0x03, 0x3A, 0x73, 0x00, 0x3E, 0x73,
	0x00, 0x41, 0x73, 0x7D, 0x3A, 0x00, 0x00, 0x41, 0x00, 0x01, 0x3E, 0x00,
	0x02, 0x3A, 0x5F, 0x00, 0x3E, 0x5F, 0x00, 0x41, 0x5F, 0x3D, 0x3A, 0x00,
	0x00, 0x3E, 0x00, 0x00, 0x41, 0x00, 0x03, 0x38, 0x5F, 0x00, 0x3A, 0x5F,
	0x00, 0x3F, 0x5F, 0x81, 0x38, 0x38, 0x00, 0x03, 0x3A, 0x00, 0x01, 0x3F,
	0x00, 0x04, 0x38, 0x73, 0x00, 0x3A, 0x73, 0x00, 0x3F, 0x73, 0x81, 0x38,
	0x38, 0x00, 0x03, 0x3A, 0x00, 0x01, 0x3F, 0x00, 0x04, 0x38, 0x5F, 0x00,
	0x3A, 0x5F, 0x00, 0x3F, 0x5F, 0x7D, 0x38, 0x00, 0x00, 0x3F, 0x00, 0x01,
	0x3A, 0x00, 0x02, 0x38, 0x5F, 0x00, 0x3A, 0x5F, 0x00, 0x3F, 0x5F, 0x3D,
	0x38, 0x00, 0x00, 0x3A, 0x00, 0x00, 0x3F, 0x00, 0x03, 0x38, 0x73, 0x00,
	0x3A, 0x73, 0x00, 0x3F, 0x73, 0x81, 0x38, 0x38, 0x00, 0x03, 0x3A, 0x00,
	0x01, 0x3F, 0x00, 0x04, 0x33, 0x5F, 0x00, 0x3A, 0x5F, 0x00, 0x3F, 0x5F,
	0x7D, 0x33, 0x00, 0x00, 0x3F, 0x00, 0x01, 0x3A, 0x00, 0x02, 0x33, 0x5F,
	0x00, 0x3A, 0x5F, 0x00, 0x3F, 0x5F, 0x3D, 0x33, 0x00, 0x00, 0x3A, 0x00,
	0x00, 0x3F, 0x00, 0x03, 0x34, 0x73, 0x00, 0x3A, 0x73, 0x00, 0x3F, 0x73,
	0x7D, 0x34, 0x00, 0x00, 0x3F, 0x00, 0x01, 0x3A, 0x00, 0x02, 0x34, 0x5F,
	0x00, 0x3A, 0x5F, 0x00, 0x3F, 0x5F, 0x3D, 0x34, 0x00, 0x00, 0x3A, 0x00,
	0x00, 0x3F, 0x00, 0x03, 0x35, 0x5F, 0x00, 0x3A, 0x5F, 0x00, 0x3F, 0x5F,
	0x7D, 0x35, 0x00, 0x00, 0x3F, 0x00, 0x01, 0x3A, 0x00, 0x02, 0x35, 0x5F,
	0x00, 0x3A, 0x5F, 0x00, 0x3F, 0x5F, 0x3D, 0x35, 0x00, 0x00, 0x3A, 0x00,
	0x00, 0x3F, 0x00, 0x03, 0x37, 0x73, 0x00, 0x3A, 0x73, 0x00, 0x3F, 0x73,
	0x7D, 0x37, 0x00, 0x00, 0x3F, 0x00, 0x01, 0x3A, 0x00, 0x02, 0x37, 0x5F,
	0x00, 0x3A, 0x5F, 0x00, 0x3F, 0x5F, 0x3D, 0x37, 0x00, 0x00, 0x3A, 0x00,
	0x00, 0x3F, 0x00, 0x03, 0x33, 0x5F, 0x00, 0x38, 0x5F, 0x00, 0x3F, 0x5F,
	0x81, 0x38, 0x33, 0x00, 0x03, 0x38, 0x00, 0x01, 0x3F, 0x00, 0x04, 0x33,
	0x73, 0x00, 0x38, 0x73, 0x00, 0x3F, 0x73, 0x81, 0x38, 0x33, 0x00, 0x03,
	0x38, 0x00, 0x01, 0x3F, 0x00, 0x04, 0x33, 0x5F, 0x00, 0x38, 0x5F, 0x00,
	0x3F, 0x5F, 0x7D, 0x33, 0x00, 0x00, 0x3F, 0x00, 0x01, 0x38, 0x00, 0x02,
	0x33, 0x5F, 0x00, 0x38, 0x5F, 0x00, 0x3F, 0x5F, 0x3D, 0x33, 0x00, 0x00,
	0x38, 0x00, 0x00, 0x3F, 0x00, 0x03, 0x33, 0x73, 0x00, 0x38, 0x73, 0x00,
	0x3F, 0x73, 0x7D, 0x33, 0x00, 0x00, 0x3F, 0x00, 0x01, 0x38, 0x00, 0x02,
	0x35, 0x76, 0x00, 0x38, 0x5F, 0x00, 0x3F, 0x5F, 0x3D, 0x35, 0x00, 0x00,
	0x38, 0x00, 0x00, 0x3F, 0x00, 0x03, 0x33, 0x5F, 0x00, 0x3A, 0x5F, 0x00,
	0x3F, 0x5F, 0x81, 0x38, 0x33, 0x00, 0x03, 0x3A, 0x00, 0x01, 0x3F, 0x00,
	0x04, 0x33, 0x73, 0x00, 0x3A, 0x73, 0x00, 0x3F, 0x73, 0x81, 0x38, 0x33,
	0x00, 0x03, 0x3A, 0x00, 0x01, 0x3F, 0x00, 0x04, 0x33, 0x5F, 0x00, 0x3A,
	0x5F, 0x00, 0x3F, 0x5F, 0x7D, 0x33, 0x00, 0x00, 0x3F, 0x00, 0x01, 0x3A,
	0x00, 0x02, 0x33, 0x5F, 0x00, 0x3A, 0x5F, 0x00, 0x3F, 0x5F, 0x3D, 0x33,
	0x00, 0x00, 0x3A, 0x00, 0x00, 0x3F, 0x00, 0x03, 0x33, 0x73, 0x00, 0x3A,
	0x73, 0x00, 0x3F, 0x73, 0x7D, 0x33, 0x00, 0x00, 0x3F, 0x00, 0x01, 0x3A,
	0x00, 0x02, 0x33, 0x5F, 0x00, 0x3A, 0x5F, 0x00, 0x3F, 0x5F, 0x3D, 0x33,
	0x00, 0x00, 0x3A, 0x00, 0x00, 0x3F, 0x00, 0x03, 0x35, 0x5F, 0x00, 0x3C,
	0x5F, 0x00, 0x41, 0x5F, 0x81, 0x38, 0x35, 0x00, 0x03, 0x3C, 0x00, 0x01,
	0x41, 0x00, 0x04, 0x35, 0x73, 0x00, 0x3C, 0x73, 0x00, 0x41, 0x73, 0x81,
	0x38, 0x35, 0x00, 0x03, 0x3C, 0x00, 0x01, 0x41, 0x00, 0x04, 0x35, 0x5F,
	0x00, 0x3C, 0x5F, 0x00, 0x41, 0x5F, 0x7D, 0x35, 0x00, 0x00, 0x41, 0x00,
	0x01, 0x3C, 0x00, 0x02, 0x35, 0x5F, 0x00, 0x3C, 0x5F, 0x00, 0x41, 0x5F,
	0x3D, 0x35, 0x00, 0x00, 0x3C, 0x00, 0x00, 0x41, 0x00, 0x03, 0x38, 0x73,
	0x00, 0x3C, 0x73, 0x00, 0x41, 0x73, 0x81, 0x38, 0x38, 0x00, 0x03, 0x3C,
	0x00, 0x01, 0x41, 0x00, 0x04, 0x37, 0x5F, 0x00, 0x3C, 0x5F, 0x00, 0x3F,
	0x5F, 0x81, 0x38, 0x3C, 0x00, 0x03, 0x37, 0x00, 0x01, 0x3F, 0x00, 0x04,
	0x37, 0x73, 0x00, 0x3C, 0x73, 0x00, 0x3F, 0x73, 0x81, 0x38, 0x3C, 0x00,
	0x03, 0x37, 0x00, 0x01, 0x3F, 0x00, 0x04, 0x37, 0x5F, 0x00, 0x3C, 0x5F,
	0x00, 0x3F, 0x5F, 0x7D, 0x3C, 0x00, 0x00, 0x3F, 0x00, 0x01, 0x37, 0x00,
	0x02, 0x37, 0x5F, 0x00, 0x3C, 0x5F, 0x00, 0x3F, 0x5F, 0x3D, 0x37, 0x00,
	0x00, 0x3C, 0x00, 0x00, 0x3F, 0x00, 0x03, 0x37, 0x73, 0x00, 0x3C, 0x73,
	0x00, 0x3F, 0x73, 0x7D, 0x3C, 0x00, 0x00, 0x3F, 0x00, 0x01, 0x37, 0x00,
	0x02, 0x37, 0x5F, 0x00, 0x3C, 0x5F, 0x00, 0x3F, 0x5F, 0x3D, 0x37, 0x00,
	0x00, 0x3C, 0x00, 0x00, 0x3F, 0x00, 0x03, 0x31, 0x77, 0x00, 0x38, 0x5F,
	0x00, 0x3D, 0x5F, 0x81, 0x38, 0x38, 0x00, 0x03, 0x31, 0x00, 0x01, 0x3D,
	0x00, 0x04, 0x33, 0x77, 0x00, 0x38, 0x73, 0x00, 0x3D, 0x73, 0x81, 0x38,
	0x38, 0x00, 0x03, 0x33, 0x00, 0x01, 0x3D, 0x00, 0x04, 0x31, 0x77, 0x00,
	0x38, 0x5F, 0x00, 0x3D, 0x5F, 0x7D, 0x38, 0x00, 0x00, 0x3D, 0x00, 0x01,
	0x31, 0x00, 0x02, 0x31, 0x77, 0x00, 0x38, 0x5F, 0x00, 0x3D, 0x5F, 0x3D,
	0x31, 0x00, 0x00, 0x38, 0x00, 0x00, 0x3D, 0x00, 0x03, 0x33, 0x77, 0x00,
	0x38, 0x73, 0x00, 0x3D, 0x73, 0x81, 0x38, 0x38, 0x00, 0x03, 0x33, 0x00,
	0x01, 0x3D, 0x00, 0x04, 0x33, 0x5F, 0x00, 0x38, 0x5F, 0x00, 0x3A, 0x5F,
	0x81, 0x38, 0x38, 0x00, 0x03, 0x3A, 0x00, 0x01, 0x33, 0x00, 0x04, 0x33,
	0x73, 0x00, 0x38, 0x73, 0x00, 0x3A, 0x73, 0x81, 0x38, 0x38, 0x00, 0x03,
	0x3A, 0x00, 0x01, 0x33, 0x00, 0x04, 0x33, 0x5F, 0x00, 0x38, 0x5F, 0x00,
	0x3A, 0x5F, 0x7D, 0x33, 0x00, 0x00, 0x38, 0x00, 0x01, 0x3A, 0x00, 0x02,
	0x33, 0x5F, 0x00, 0x38, 0x5F, 0x00, 0x3A, 0x5F, 0x3D, 0x33, 0x00, 0x00,
	0x38, 0x00, 0x00, 0x3A, 0x00, 0x03, 0x33, 0x73, 0x00, 0x38, 0x73, 0x00,
	0x3A, 0x73, 0x81, 0x38, 0x38, 0x00, 0x03, 0x3A, 0x00, 0x01, 0x33, 0x00,
	0x04, 0x31, 0x77, 0x00, 0x38, 0x5F, 0x00, 0x3D, 0x5F, 0x81, 0x38, 0x38,
	0x00, 0x03, 0x31, 0x00, 0x01, 0x3D, 0x00, 0x04, 0x33, 0x77, 0x00, 0x38,
	0x73, 0x00, 0x3D, 0x73, 0x81, 0x38, 0x38, 0x00, 0x03, 0x33, 0x00, 0x01,
	0x3D, 0x00, 0x04, 0x31, 0x77, 0x00, 0x38, 0x5F, 0x00, 0x3D, 0x5F, 0x7D,
	0x38, 0x00, 0x00, 0x3D, 0x00, 0x01, 0x31, 0x00, 0x02, 0x31, 0x77, 0x00,
	0x38, 0x5F, 0x00, 0x3D, 0x5F, 0x3D, 0x31, 0x00, 0x00, 0x38, 0x00, 0x00,
	0x3D, 0x00, 0x03, 0x31, 0x77, 0x00, 0x38, 0x73, 0x00, 0x3D, 0x73, 0x81,
	0x38, 0x38, 0x00, 0x03, 0x31, 0x00, 0x01, 0x3D, 0x00, 0x04, 0x33, 0x5F,
	0x00, 0x38, 0x5F, 0x00, 0x3A, 0x5F, 0x85, 0x40, 0x30, 0x67, 0x00, 0x37,
	0x67, 0x00, 0x3C, 0x67, 0x38, 0x38, 0x00, 0x03, 0x3A, 0x00, 0x01, 0x33,
	0x00, 0x01, 0x30, 0x00, 0x00, 0x37, 0x00, 0x00, 0x3C, 0x00, 0x03, 0x31,
	0x77, 0x00, 0x38, 0x5F, 0x00, 0x3D, 0x5F, 0x81, 0x38, 0x38, 0x00, 0x03,
	0x31, 0x00, 0x01, 0x3D, 0x00, 0x04, 0x33, 0x77, 0x00, 0x38, 0x73, 0x00,
	0x3D, 0x73, 0x81, 0x38, 0x38, 0x00, 0x03, 0x33, 0x00, 0x01, 0x3D, 0x00,
	0x04, 0x31, 0x77, 0x00, 0x38, 0x5F, 0x00, 0x3D, 0x5F, 0x7D, 0x38, 0x00,
	0x00, 0x3D, 0x00, 0x01, 0x31, 0x00, 0x02, 0x31, 0x77, 0x00, 0x38, 0x5F,
	0x00, 0x3D, 0x5F, 0x3D, 0x31, 0x00, 0x00, 0x38, 0x00, 0x00, 0x3D, 0x00,
	0x03, 0x30, 0x77, 0x00, 0x38, 0x73, 0x00, 0x3D, 0x73, 0x81, 0x38, 0x38,
	0x00, 0x03, 0x30, 0x00, 0x01, 0x3D, 0x00, 0x04, 0x2E, 0x77, 0x00, 0x33,
	0x6E, 0x00, 0x3A, 0x62, 0x84, 0x38, 0x2E, 0x00, 0x03, 0x3A, 0x00, 0x01,
	0x33, 0x00, 0x00, 0xFF, 0x2F, 0x00, 0x4D, 0x54, 0x72, 0x6B, 0x00, 0x00,
	0x0A, 0x36, 0x1F, 0xBF, 0x79, 0x00, 0x10, 0x00, 0x00, 0x81, 0x10, 0xCF,
	0x00, 0x60, 0xBF, 0x07, 0x68, 0x31, 0x01, 0x00, 0x03, 0x02, 0x00, 0x0A,
	0x05, 0x00, 0x22, 0x0A, 0x64, 0x02, 0x0B, 0x7F, 0x02, 0x40, 0x00, 0x05,
	0x41, 0x00, 0x57, 0x5B, 0x43, 0x60, 0x5D, 0x0C, 0x30, 0xEF, 0x00, 0x40,
	0x30, 0xBF, 0x65, 0x00, 0x00, 0x64, 0x00, 0x30, 0x06, 0x02, 0xFF, 0x70,
	0x9F, 0x48, 0x5F, 0x81, 0x3A, 0x48, 0x00, 0x06, 0x50, 0x5F, 0x81, 0x3A,
	0x50, 0x00, 0x06, 0x54, 0x5F, 0x81, 0x36, 0x54, 0x00, 0x0A, 0x52, 0x53,
	0x81, 0x36, 0x52, 0x00, 0x86, 0x0A, 0x48, 0x5F, 0x81, 0x3A, 0x48, 0x00,
	0x06, 0x50, 0x5F, 0x81, 0x3A, 0x50, 0x00, 0x06, 0x54, 0x5F, 0x81, 0x36,
	0x54, 0x00, 0x0A, 0x52, 0x53, 0x81, 0x36, 0x52, 0x00, 0x86, 0x0A, 0x4D,
	0x5F, 0x81, 0x3A, 0x4D, 0x00, 0x06, 0x52, 0x5F, 0x81, 0x3A, 0x52, 0x00,
	0x06, 0x50, 0x5F, 0x81, 0x36, 0x50, 0x00, 0x0A, 0x4F, 0x53, 0x81, 0x36,
	0x4F, 0x00, 0x86, 0x0A, 0x48, 0x5F, 0x81, 0x3A, 0x48, 0x00, 0x06, 0x50,
	0x5F, 0x81, 0x3A, 0x50, 0x00, 0x06, 0x54, 0x5F, 0x81, 0x36, 0x54, 0x00,
	0x0A, 0x52, 0x53, 0x81, 0x36, 0x52, 0x00, 0x86, 0x0A, 0x46, 0x5F, 0x81,
	0x3A, 0x46, 0x00, 0x06, 0x4D, 0x5F, 0x81, 0x3A, 0x4D, 0x00, 0x06, 0x50,
	0x5F, 0x81, 0x36, 0x50, 0x00, 0x0A, 0x4F, 0x5F, 0x81, 0x36, 0x4F, 0x00,
	0x86, 0x0A, 0x48, 0x5F, 0x81, 0x3A, 0x48, 0x00, 0x06, 0x50, 0x5F, 0x81,
	0x3A, 0x50, 0x00, 0x06, 0x4F, 0x5F, 0x81, 0x36, 0x4F, 0x00, 0x0A, 0x4D,
	0x53, 0x81, 0x36, 0x4D, 0x00, 0x84, 0x4A, 0x2C, 0x74, 0x81, 0x17, 0x2C,
	0x00, 0x29, 0x3C, 0x7F, 0x00, 0x3F, 0x7F, 0x00, 0x44, 0x7F, 0x2A, 0x3C,
	0x00, 0x01, 0x3F, 0x00, 0x04, 0x44, 0x00, 0x81, 0x11, 0x2C, 0x74, 0x81,
	0x18, 0x2C, 0x00, 0x28, 0x3C, 0x7F, 0x00, 0x3F, 0x7F, 0x00, 0x44, 0x7F,
	0x29, 0x3C, 0x00, 0x01, 0x3F, 0x00, 0x01, 0x44, 0x00, 0x81, 0x15, 0x2E,
	0x74, 0x81, 0x17, 0x2E, 0x00, 0x29, 0x3A, 0x74, 0x00, 0x3F, 0x7F, 0x00,
	0x43, 0x7F, 0x2A, 0x3A, 0x00, 0x01, 0x3F, 0x00, 0x04, 0x43, 0x00, 0x81,
	0x11, 0x2E, 0x74, 0x81, 0x18, 0x2E, 0x00, 0x28, 0x3A, 0x74, 0x00, 0x3F,
	0x7F, 0x00, 0x43, 0x7F, 0x29, 0x3A, 0x00, 0x01, 0x3F, 0x00, 0x01, 0x43,
	0x00, 0x81, 0x15, 0x29, 0x74, 0x81, 0x17, 0x29, 0x00, 0x29, 0x3C, 0x7F,
	0x00, 0x41, 0x7F, 0x00, 0x44, 0x7F, 0x2A, 0x3C, 0x00, 0x01, 0x41, 0x00,
	0x04, 0x44, 0x00, 0x81, 0x11, 0x29, 0x74, 0x81, 0x18, 0x29, 0x00, 0x28,
	0x3C, 0x7F, 0x00, 0x41, 0x7F, 0x00, 0x44, 0x7F, 0x29, 0x3C, 0x00, 0x01,
	0x41, 0x00, 0x01, 0x44, 0x00, 0x81, 0x15, 0x30, 0x74, 0x81, 0x17, 0x30,
	0x00, 0x29, 0x3C, 0x7F, 0x00, 0x3F, 0x7F, 0x00, 0x43, 0x7F, 0x2A, 0x3C,
	0x00, 0x01, 0x3F, 0x00, 0x04, 0x43, 0x00, 0x81, 0x11, 0x2B, 0x74, 0x81,
	0x18, 0x2B, 0x00, 0x28, 0x3C, 0x7F, 0x00, 0x3F, 0x7F, 0x00, 0x43, 0x7F,
	0x29, 0x3C, 0x00, 0x01, 0x3F, 0x00, 0x01, 0x43, 0x00, 0x81, 0x15, 0x31,
	0x74, 0x81, 0x17, 0x31, 0x00, 0x29, 0x3D, 0x7F, 0x00, 0x41, 0x7F, 0x00,
	0x44, 0x7F, 0x2A, 0x3D, 0x00, 0x01, 0x41, 0x00, 0x04, 0x44, 0x00, 0x81,
	0x11, 0x31, 0x74, 0x81, 0x18, 0x31, 0x00, 0x28, 0x3D, 0x7F, 0x00, 0x41,
	0x7F, 0x00, 0x44, 0x7F, 0x29, 0x3D, 0x00, 0x01, 0x41, 0x00, 0x01, 0x44,
	0x00, 0x81, 0x15, 0x33, 0x74, 0x81, 0x17, 0x33, 0x00, 0x29, 0x3D, 0x7F,
	0x00, 0x3F, 0x7F, 0x00, 0x44, 0x7F, 0x2A, 0x3D, 0x00, 0x01, 0x3F, 0x00,
	0x04, 0x44, 0x00, 0x81, 0x11, 0x2E, 0x74, 0x81, 0x18, 0x2E, 0x00, 0x28,
	0x3D, 0x7F, 0x00, 0x3F, 0x7F, 0x00, 0x44, 0x7F, 0x29, 0x3D, 0x00, 0x01,
	0x3F, 0x00, 0x01, 0x44, 0x00, 0x81, 0x15, 0x2C, 0x74, 0x81, 0x17, 0x2C,
	0x00, 0x29, 0x3C, 0x7F, 0x00, 0x3F, 0x7F, 0x00, 0x44, 0x7F, 0x2A, 0x3C,
	0x00, 0x01, 0x3F, 0x00, 0x04, 0x44, 0x00, 0x81, 0x11, 0x2C, 0x74, 0x81,
	0x18, 0x2C, 0x00, 0x28, 0x3C, 0x7F, 0x00, 0x3F, 0x7F, 0x00, 0x44, 0x7F,
	0x29, 0x3C, 0x00, 0x01, 0x3F, 0x00, 0x01, 0x44, 0x00, 0x81, 0x15, 0x33,
	0x7F, 0x75, 0x33, 0x00, 0x0B, 0x33, 0x7F, 0x2A, 0x33, 0x00, 0x16, 0x31,
	0x7F, 0x00, 0x3A, 0x7F, 0x00, 0x3F, 0x7F, 0x00, 0x43, 0x7F, 0x2A, 0x3A,
	0x00, 0x01, 0x3F, 0x00, 0x04, 0x43, 0x00, 0x09, 0x31, 0x00, 0x81, 0x08,
	0x30, 0x7F, 0x38, 0x30, 0x00, 0x81, 0x08, 0x2E, 0x7F, 0x00, 0x3A, 0x7F,
	0x00, 0x3F, 0x7F, 0x00, 0x43, 0x7F, 0x29, 0x3A, 0x00, 0x01, 0x3F, 0x00,
	0x01, 0x43, 0x00, 0x81, 0x02, 0x2E, 0x00, 0x13, 0x2C, 0x74, 0x81, 0x17,
	0x2C, 0x00, 0x29, 0x3C, 0x7F, 0x00, 0x3F, 0x7F, 0x00, 0x44, 0x7F, 0x2A,
	0x3C, 0x00, 0x01, 0x3F, 0x00, 0x04, 0x44, 0x00, 0x81, 0x11, 0x2C, 0x74,
	0x81, 0x18, 0x2C, 0x00, 0x28, 0x3C, 0x7F, 0x00, 0x3F, 0x7F, 0x00, 0x44,
	0x7F, 0x29, 0x3C, 0x00, 0x01, 0x3F, 0x00, 0x01, 0x44, 0x00, 0x81, 0x15,
	0x2E, 0x74, 0x81, 0x17, 0x2E, 0x00, 0x29, 0x3A, 0x74, 0x00, 0x3F, 0x7F,
	0x00, 0x43, 0x7F, 0x2A, 0x3A, 0x00, 0x01, 0x3F, 0x00, 0x04, 0x43, 0x00,
	0x81, 0x11, 0x2E, 0x74, 0x81, 0x18, 0x2E, 0x00, 0x28, 0x3A, 0x74, 0x00,
	0x3F, 0x7F, 0x00, 0x43, 0x7F, 0x29, 0x3A, 0x00, 0x01, 0x3F, 0x00, 0x01,
	0x43, 0x00, 0x81, 0x15, 0x29, 0x74, 0x81, 0x17, 0x29, 0x00, 0x29, 0x3C,
	0x7F, 0x00, 0x41, 0x7F, 0x00, 0x44, 0x7F, 0x2A, 0x3C, 0x00, 0x01, 0x41,
	0x00, 0x04, 0x44, 0x00, 0x81, 0x11, 0x29, 0x74, 0x81, 0x18, 0x29, 0x00,
	0x28, 0x3C, 0x7F, 0x00, 0x41, 0x7F, 0x00, 0x44, 0x7F, 0x29, 0x3C, 0x00,
	0x01, 0x41, 0x00, 0x01, 0x44, 0x00, 0x81, 0x15, 0x30, 0x74, 0x81, 0x17,
	0x30, 0x00, 0x29, 0x3C, 0x7F, 0x00, 0x3F, 0x7F, 0x00, 0x43, 0x7F, 0x2A,
	0x3C, 0x00, 0x01, 0x3F, 0x00, 0x04, 0x43, 0x00, 0x81, 0x11, 0x2B, 0x74,
	0x81, 0x18, 0x2B, 0x00, 0x28, 0x3C, 0x7F, 0x00, 0x3F, 0x7F, 0x00, 0x43,
	0x7F, 0x29, 0x3C, 0x00, 0x01, 0x3F, 0x00, 0x01, 0x43, 0x00, 0x81, 0x15,
	0x31, 0x74, 0x81, 0x17, 0x31, 0x00, 0x29, 0x3D, 0x7F, 0x00, 0x41, 0x7F,
	0x00, 0x44, 0x7F, 0x2A, 0x3D, 0x00, 0x01, 0x41, 0x00, 0x04, 0x44, 0x00,
	0x81, 0x11, 0x31, 0x74, 0x81, 0x18, 0x31, 0x00, 0x28, 0x3D, 0x7F, 0x00,
	0x41, 0x7F, 0x00, 0x44, 0x7F, 0x29, 0x3D, 0x00, 0x01, 0x41, 0x00, 0x01,
	0x44, 0x00, 0x81, 0x15, 0x32, 0x74, 0x81, 0x17, 0x32, 0x00, 0x29, 0x3A,
	0x7F, 0x00, 0x3E, 0x7F, 0x00, 0x44, 0x7F, 0x2A, 0x3A, 0x00, 0x01, 0x3E,
	0x00, 0x04, 0x44, 0x00, 0x81, 0x11, 0x32, 0x74, 0x81, 0x18, 0x32, 0x00,
	0x28, 0x3A, 0x7F, 0x00, 0x3E, 0x7F, 0x00, 0x44, 0x7F, 0x29, 0x3A, 0x00,
	0x01, 0x3E, 0x00, 0x01, 0x44, 0x00, 0x81, 0x15, 0x33, 0x74, 0x81, 0x17,
	0x33, 0x00, 0x29, 0x3A, 0x7F, 0x00, 0x3F, 0x7F, 0x00, 0x44, 0x7F, 0x2A,
	0x3A, 0x00, 0x01, 0x3F, 0x00, 0x04, 0x44, 0x00, 0x81, 0x11, 0x2E, 0x74,
	0x81, 0x18, 0x2E, 0x00, 0x28, 0x3A, 0x7F, 0x00, 0x3F, 0x7F, 0x00, 0x44,
	0x7F, 0x29, 0x3A, 0x00, 0x01, 0x3F, 0x00, 0x01, 0x44, 0x00, 0x81, 0x15,
	0x27, 0x74, 0x81, 0x18, 0x27, 0x00, 0x28, 0x3A, 0x7F, 0x00, 0x3F, 0x7F,
	0x00, 0x43, 0x7F, 0x2A, 0x3A, 0x00, 0x01, 0x3F, 0x00, 0x34, 0x43, 0x00,
	0x61, 0x3A, 0x7F, 0x00, 0x3F, 0x7F, 0x00, 0x44, 0x7F, 0x2A, 0x3A, 0x00,
	0x01, 0x3F, 0x00, 0x34, 0x44, 0x00, 0x61, 0x3A, 0x7F, 0x00, 0x3F, 0x7F,
	0x00, 0x46, 0x7F, 0x2B, 0x3F, 0x00, 0x04, 0x3A, 0x00, 0x2B, 0x46, 0x00,
	0xB2, 0x26, 0x48, 0x5F, 0x81, 0x3A, 0x48, 0x00, 0x06, 0x50, 0x5F, 0x81,
	0x3A, 0x50, 0x00, 0x06, 0x54, 0x5F, 0x81, 0x36, 0x54, 0x00, 0x0A, 0x52,
	0x53, 0x81, 0x36, 0x52, 0x00, 0x86, 0x0A, 0x48, 0x5F, 0x81, 0x3A, 0x48,
	0x00, 0x06, 0x50, 0x5F, 0x81, 0x3A, 0x50, 0x00, 0x06, 0x54, 0x5F, 0x81,
	0x36, 0x54, 0x00, 0x0A, 0x52, 0x53, 0x81, 0x36, 0x52, 0x00, 0x86, 0x0A,
	0x4D, 0x5F, 0x81, 0x3A, 0x4D, 0x00, 0x06, 0x52, 0x5F, 0x81, 0x3A, 0x52,
	0x00, 0x06, 0x50, 0x5F, 0x81, 0x36, 0x50, 0x00, 0x0A, 0x4F, 0x53, 0x81,
	0x36, 0x4F, 0x00, 0x86, 0x0A, 0x48, 0x5F, 0x81, 0x3A, 0x48, 0x00, 0x06,
	0x50, 0x5F, 0x81, 0x3A, 0x50, 0x00, 0x06, 0x54, 0x5F, 0x81, 0x36, 0x54,
	0x00, 0x0A, 0x52, 0x53, 0x81, 0x36, 0x52, 0x00, 0x86, 0x0A, 0x46, 0x5F,
	0x81, 0x3A, 0x46, 0x00, 0x06, 0x4D, 0x5F, 0x81, 0x3A, 0x4D, 0x00, 0x06,
	0x50, 0x5F, 0x81, 0x36, 0x50, 0x00, 0x0A, 0x4F, 0x5F, 0x81, 0x36, 0x4F,
	0x00, 0x86, 0x0A, 0x48, 0x5F, 0x81, 0x3A, 0x48, 0x00, 0x06, 0x50, 0x5F,
	0x81, 0x3A, 0x50, 0x00, 0x06, 0x4F, 0x5F, 0x81, 0x36, 0x4F, 0x00, 0x0A,
	0x4D, 0x53, 0x81, 0x36, 0x4D, 0x00, 0xE4, 0x4A, 0x2C, 0x74, 0x81, 0x17,
	0x2C, 0x00, 0x29, 0x3C, 0x7F, 0x00, 0x3F, 0x7F, 0x00, 0x44, 0x7F, 0x2A,
	0x3C, 0x00, 0x01, 0x3F, 0x00, 0x04, 0x44, 0x00, 0x81, 0x11, 0x2C, 0x74,
	0x81, 0x18, 0x2C, 0x00, 0x28, 0x3C, 0x7F, 0x00, 0x3F, 0x7F, 0x00, 0x44,
	0x7F, 0x29, 0x3C, 0x00, 0x01, 0x3F, 0x00, 0x01, 0x44, 0x00, 0x81, 0x15,
	0x2E, 0x74, 0x81, 0x17, 0x2E, 0x00, 0x29, 0x3A, 0x74, 0x00, 0x3F, 0x7F,
	0x00, 0x43, 0x7F, 0x2A, 0x3A, 0x00, 0x01, 0x3F, 0x00, 0x04, 0x43, 0x00,
	0x81, 0x11, 0x2E, 0x74, 0x81, 0x18, 0x2E, 0x00, 0x28, 0x3A, 0x74, 0x00,
	0x3F, 0x7F, 0x00, 0x43, 0x7F, 0x29, 0x3A, 0x00, 0x01, 0x3F, 0x00, 0x01,
	0x43, 0x00, 0x81, 0x15, 0x29, 0x74, 0x81, 0x17, 0x29, 0x00, 0x29, 0x3C,
	0x7F, 0x00, 0x41, 0x7F, 0x00, 0x44, 0x7F, 0x2A, 0x3C, 0x00, 0x01, 0x41,
	0x00, 0x04, 0x44, 0x00, 0x81, 0x11, 0x29, 0x74, 0x81, 0x18, 0x29, 0x00,
	0x28, 0x3C, 0x7F, 0x00, 0x41, 0x7F, 0x00, 0x44, 0x7F, 0x29, 0x3C, 0x00,
	0x01, 0x41, 0x00, 0x01, 0x44, 0x00, 0x81, 0x15, 0x30, 0x74, 0x81, 0x17,
	0x30, 0x00, 0x29, 0x3C, 0x7F, 0x00, 0x3F, 0x7F, 0x00, 0x43, 0x7F, 0x2A,
	0x3C, 0x00, 0x01, 0x3F, 0x00, 0x04, 0x43, 0x00, 0x81, 0x11, 0x2B, 0x74,
	0x81, 0x18, 0x2B, 0x00, 0x28, 0x3C, 0x7F, 0x00, 0x3F, 0x7F, 0x00, 0x43,
	0x7F, 0x29, 0x3C, 0x00, 0x01, 0x3F, 0x00, 0x01, 0x43, 0x00, 0x81, 0x15,
	0x31, 0x74, 0x81, 0x17, 0x31, 0x00, 0x29, 0x3D, 0x7F, 0x00, 0x41, 0x7F,
	0x00, 0x44, 0x7F, 0x2A, 0x3D, 0x00, 0x01, 0x41, 0x00, 0x04, 0x44, 0x00,
	0x81, 0x11, 0x31, 0x74, 0x81, 0x18, 0x31, 0x00, 0x28, 0x3D, 0x7F, 0x00,
	0x41, 0x7F, 0x00, 0x44, 0x7F, 0x29, 0x3D, 0x00, 0x01, 0x41, 0x00, 0x01,
	0x44, 0x00, 0x81, 0x15, 0x33, 0x74, 0x81, 0x17, 0x33, 0x00, 0x29, 0x3D,
	0x7F, 0x00, 0x41, 0x7F, 0x00, 0x44, 0x7F, 0x2A, 0x3D, 0x00, 0x01, 0x41,
	0x00, 0x04, 0x44, 0x00, 0x81, 0x11, 0x2E, 0x74, 0x81, 0x18, 0x2E, 0x00,
	0x28, 0x3D, 0x7F, 0x00, 0x3F, 0x7F, 0x00, 0x44, 0x7F, 0x29, 0x3D, 0x00,
	0x01, 0x3F, 0x00, 0x01, 0x44, 0x00, 0x81, 0x15, 0x2C, 0x74, 0x81, 0x17,
	0x2C, 0x00, 0x29, 0x3C, 0x7F, 0x00, 0x3F, 0x7F, 0x00, 0x44, 0x7F, 0x2A,
	0x3C, 0x00, 0x01, 0x3F, 0x00, 0x04, 0x44, 0x00, 0x81, 0x11, 0x2C, 0x74,
	0x81, 0x18, 0x2C, 0x00, 0x28, 0x3C, 0x7F, 0x00, 0x3F, 0x7F, 0x00, 0x44,
	0x7F, 0x29, 0x3C, 0x00, 0x01, 0x3F, 0x00, 0x01, 0x44, 0x00, 0x81, 0x15,
	0x33, 0x7F, 0x75, 0x33, 0x00, 0x0B, 0x33, 0x7F, 0x2A, 0x33, 0x00, 0x16,
	0x31, 0x7F, 0x00, 0x3A, 0x7F, 0x00, 0x3F, 0x7F, 0x00, 0x43, 0x7F, 0x2A,
	0x3A, 0x00, 0x01, 0x3F, 0x00, 0x04, 0x43, 0x00, 0x09, 0x31, 0x00, 0x81,
	0x08, 0x30, 0x7F, 0x38, 0x30, 0x00, 0x81, 0x08, 0x2E, 0x7F, 0x00, 0x3A,
	0x7F, 0x00, 0x3F, 0x7F, 0x00, 0x43, 0x7F, 0x29, 0x3A, 0x00, 0x01, 0x3F,
	0x00, 0x01, 0x43, 0x00, 0x81, 0x02, 0x2E, 0x00, 0x13, 0x2C, 0x74, 0x81,
	0x17, 0x2C, 0x00, 0x29, 0x3C, 0x7F, 0x00, 0x3F, 0x7F, 0x00, 0x44, 0x7F,
	0x2A, 0x3C, 0x00, 0x01, 0x3F, 0x00, 0x04, 0x44, 0x00, 0x81, 0x11, 0x2C,
	0x74, 0x81, 0x18, 0x2C, 0x00, 0x28, 0x3C, 0x7F, 0x00, 0x3F, 0x7F, 0x00,
	0x44, 0x7F, 0x29, 0x3C, 0x00, 0x01, 0x3F, 0x00, 0x01, 0x44, 0x00, 0x81,
	0x15, 0x2E, 0x74, 0x81, 0x17, 0x2E, 0x00, 0x29, 0x3A, 0x74, 0x00, 0x3F,
	0x7F, 0x00, 0x43, 0x7F, 0x2A, 0x3A, 0x00, 0x01, 0x3F, 0x00, 0x04, 0x43,
	0x00, 0x81, 0x11, 0x2E, 0x74, 0x81, 0x18, 0x2E, 0x00, 0x28, 0x3A, 0x74,
	0x00, 0x3F, 0x7F, 0x00, 0x43, 0x7F, 0x29, 0x3A, 0x00, 0x01, 0x3F, 0x00,
	0x01, 0x43, 0x00, 0x81, 0x15, 0x29, 0x74, 0x81, 0x17, 0x29, 0x00, 0x29,
	0x3C, 0x7F, 0x00, 0x41, 0x7F, 0x00, 0x44, 0x7F, 0x2A, 0x3C, 0x00, 0x01,
	0x41, 0x00, 0x04, 0x44, 0x00, 0x81, 0x11, 0x29, 0x74, 0x81, 0x18, 0x29,
	0x00, 0x28, 0x3C, 0x7F, 0x00, 0x41, 0x7F, 0x00, 0x44, 0x7F, 0x29, 0x3C,
	0x00, 0x01, 0x41, 0x00, 0x01, 0x44, 0x00, 0x81, 0x15, 0x30, 0x74, 0x81,
	0x17, 0x30, 0x00, 0x29, 0x3C, 0x7F, 0x00, 0x3F, 0x7F, 0x00, 0x43, 0x7F,
	0x2A, 0x3C, 0x00, 0x01, 0x3F, 0x00, 0x04, 0x43, 0x00, 0x81, 0x11, 0x2B,
	0x74, 0x81, 0x18, 0x2B, 0x00, 0x28, 0x3C, 0x7F, 0x00, 0x3F, 0x7F, 0x00,
	0x43, 0x7F, 0x29, 0x3C, 0x00, 0x01, 0x3F, 0x00, 0x01, 0x43, 0x00, 0x81,
	0x15, 0x31, 0x74, 0x81, 0x17, 0x31, 0x00, 0x29, 0x3D, 0x7F, 0x00, 0x41,
	0x7F, 0x00, 0x44, 0x7F, 0x2A, 0x3D, 0x00, 0x01, 0x41, 0x00, 0x04, 0x44,
	0x00, 0x81, 0x11, 0x31, 0x74, 0x81, 0x18, 0x31, 0x00, 0x28, 0x3D, 0x7F,
	0x00, 0x41, 0x7F, 0x00, 0x44, 0x7F, 0x29, 0x3D, 0x00, 0x01, 0x41, 0x00,
	0x01, 0x44, 0x00, 0x81, 0x15, 0x32, 0x74, 0x81, 0x17, 0x32, 0x00, 0x29,
	0x3A, 0x7F, 0x00, 0x3E, 0x7F, 0x00, 0x44, 0x7F, 0x2A, 0x3A, 0x00, 0x01,
	0x3E, 0x00, 0x04, 0x44, 0x00, 0x81, 0x11, 0x32, 0x74, 0x81, 0x18, 0x32,
	0x00, 0x28, 0x3A, 0x7F, 0x00, 0x3E, 0x7F, 0x00, 0x44, 0x7F, 0x29, 0x3A,
	0x00, 0x01, 0x3E, 0x00, 0x01, 0x44, 0x00, 0x81, 0x15, 0x33, 0x74, 0x81,
	0x17, 0x33, 0x00, 0x29, 0x3A, 0x7F, 0x00, 0x3F, 0x7F, 0x00, 0x44, 0x7F,
	0x2A, 0x3A, 0x00, 0x01, 0x3F, 0x00, 0x04, 0x44, 0x00, 0x81, 0x11, 0x2E,
	0x74, 0x81, 0x18, 0x2E, 0x00, 0x28, 0x3A, 0x7F, 0x00, 0x3F, 0x7F, 0x00,
	0x44, 0x7F, 0x29, 0x3A, 0x00, 0x01, 0x3F, 0x00, 0x01, 0x44, 0x00, 0x81,
	0x15, 0x27, 0x7F, 0x81, 0x18, 0x27, 0x00, 0x28, 0x28, 0x7F, 0x00, 0x3A,
	0x7F, 0x00, 0x3F, 0x7F, 0x00, 0x46, 0x7F, 0x2A, 0x3A, 0x00, 0x01, 0x3F,
	0x00, 0x34, 0x46, 0x00, 0x39, 0x28, 0x00, 0x28, 0x29, 0x7F, 0x00, 0x3A,
	0x7F, 0x00, 0x3F, 0x7F, 0x00, 0x44, 0x7F, 0x2A, 0x3A, 0x00, 0x01, 0x3F,
	0x00, 0x34, 0x44, 0x00, 0x39, 0x29, 0x00, 0x28, 0x2B, 0x7F, 0x00, 0x3A,
	0x7F, 0x00, 0x3F, 0x7F, 0x00, 0x46, 0x7F, 0x2B, 0x3F, 0x00, 0x04, 0x3A,
	0x00, 0x2B, 0x46, 0x00, 0x3E, 0x2B, 0x00, 0x28, 0x2C, 0x74, 0x81, 0x17,
	0x2C, 0x00, 0x29, 0x3C, 0x7F, 0x00, 0x3F, 0x7F, 0x00, 0x44, 0x7F, 0x2A,
	0x3C, 0x00, 0x01, 0x3F, 0x00, 0x04, 0x44, 0x00, 0x81, 0x11, 0x2C, 0x74,
	0x81, 0x18, 0x2C, 0x00, 0x28, 0x3C, 0x7F, 0x00, 0x3F, 0x7F, 0x00, 0x44,
	0x7F, 0x29, 0x3C, 0x00, 0x01, 0x3F, 0x00, 0x01, 0x44, 0x00, 0x81, 0x15,
	0x2E, 0x74, 0x81, 0x17, 0x2E, 0x00, 0x29, 0x3A, 0x74, 0x00, 0x3F, 0x7F,
	0x00, 0x43, 0x7F, 0x2A, 0x3A, 0x00, 0x01, 0x3F, 0x00, 0x04, 0x43, 0x00,
	0x81, 0x11, 0x2E, 0x74, 0x81, 0x18, 0x2E, 0x00, 0x28, 0x3A, 0x74, 0x00,
	0x3F, 0x7F, 0x00, 0x43, 0x7F, 0x29, 0x3A, 0x00, 0x01, 0x3F, 0x00, 0x01,
	0x43, 0x00, 0x81, 0x15, 0x29, 0x74, 0x81, 0x17, 0x29, 0x00, 0x29, 0x3C,
	0x7F, 0x00, 0x41, 0x7F, 0x00, 0x44, 0x7F, 0x2A, 0x3C, 0x00, 0x01, 0x41,
	0x00, 0x04, 0x44, 0x00, 0x81, 0x11, 0x29, 0x74, 0x81, 0x18, 0x29, 0x00,
	0x28, 0x3C, 0x7F, 0x00, 0x41, 0x7F, 0x00, 0x44, 0x7F, 0x29, 0x3C, 0x00,
	0x01, 0x41, 0x00, 0x01, 0x44, 0x00, 0x81, 0x15, 0x30, 0x74, 0x81, 0x17,
	0x30, 0x00, 0x29, 0x3C, 0x7F, 0x00, 0x3F, 0x7F, 0x00, 0x43, 0x7F, 0x2A,
	0x3C, 0x00, 0x01, 0x3F, 0x00, 0x04, 0x43, 0x00, 0x81, 0x11, 0x2B, 0x74,
	0x81, 0x18, 0x2B, 0x00, 0x28, 0x3C, 0x7F, 0x00, 0x3F, 0x7F, 0x00, 0x43,
	0x7F, 0x29, 0x3C, 0x00, 0x01, 0x3F, 0x00, 0x01, 0x43, 0x00, 0x81, 0x15,
	0x31, 0x74, 0x81, 0x17, 0x31, 0x00, 0x29, 0x3D, 0x7F, 0x00, 0x41, 0x7F,
	0x00, 0x44, 0x7F, 0x2A, 0x3D, 0x00, 0x01, 0x41, 0x00, 0x04, 0x44, 0x00,
	0x81, 0x11, 0x31, 0x74, 0x81, 0x18, 0x31, 0x00, 0x28, 0x3D, 0x7F, 0x00,
	0x41, 0x7F, 0x00, 0x44, 0x7F, 0x29, 0x3D, 0x00, 0x01, 0x41, 0x00, 0x01,
	0x44, 0x00, 0x81, 0x15, 0x27, 0x74, 0x81, 0x17, 0x27, 0x00, 0x29, 0x3A,
	0x7F, 0x00, 0x3F, 0x7F, 0x00, 0x44, 0x7F, 0x2A, 0x3F, 0x00, 0x01, 0x44,
	0x00, 0x04, 0x3A, 0x00, 0x81, 0x11, 0x27, 0x74, 0x81, 0x18, 0x27, 0x00,
	0x28, 0x3A, 0x7F, 0x00, 0x3F, 0x7F, 0x00, 0x44, 0x7F, 0x29, 0x3F, 0x00,
	0x01, 0x44, 0x00, 0x01, 0x3A, 0x00, 0x81, 0x15, 0x31, 0x74, 0x81, 0x17,
	0x31, 0x00, 0x29, 0x3D, 0x7F, 0x00, 0x41, 0x7F, 0x00, 0x44, 0x7F, 0x2A,
	0x3D, 0x00, 0x01, 0x41, 0x00, 0x04, 0x44, 0x00, 0x81, 0x11, 0x31, 0x74,
	0x81, 0x18, 0x31, 0x00, 0x28, 0x3D, 0x7F, 0x00, 0x41, 0x7F, 0x00, 0x44,
	0x7F, 0x29, 0x3D, 0x00, 0x01, 0x41, 0x00, 0x01, 0x44, 0x00, 0x81, 0x15,
	0x27, 0x74, 0x81, 0x17, 0x27, 0x00, 0x84, 0x69, 0x31, 0x74, 0x81, 0x17,
	0x31, 0x00, 0x29, 0x3D, 0x7F, 0x00, 0x41, 0x7F, 0x00, 0x44, 0x7F, 0x2A,
	0x3D, 0x00, 0x01, 0x41, 0x00, 0x04, 0x44, 0x00, 0x81, 0x11, 0x31, 0x74,
	0x81, 0x18, 0x31, 0x00, 0x28, 0x3D, 0x7F, 0x00, 0x41, 0x7F, 0x00, 0x44,
	0x7F, 0x29, 0x3D, 0x00, 0x01, 0x41, 0x00, 0x01, 0x44, 0x00, 0x81, 0x15,
	0x27, 0x74, 0x00, 0x3A, 0x7F, 0x00, 0x3F, 0x7F, 0x00, 0x43, 0x7F, 0x81,
	0x17, 0x27, 0x00, 0x84, 0x04, 0x3A, 0x00, 0x00, 0x43, 0x00, 0x01, 0x3F,
	0x00, 0x64, 0x2C, 0x7F, 0x00, 0x33, 0x7F, 0x00, 0x3C, 0x7F, 0x86, 0x29,
	0x3C, 0x00, 0x01, 0x33, 0x00, 0x01, 0x2C, 0x00, 0x00, 0xFF, 0x2F, 0x00
};
