/* C:\Users\Administrator\Downloads\有何不可(Cover 许嵩）_爱给网_aigei_com.mid (2024/8/17 23:40:05)
   起始位置(h): 00000000, 结束位置(h): 0000516F, 长度(h): 00005170 */

unsigned char rawData[20848] = {
	0x4D, 0x54, 0x68, 0x64, 0x00, 0x00, 0x00, 0x06, 0x00, 0x01, 0x00, 0x02,
	0x01, 0x80, 0x4D, 0x54, 0x72, 0x6B, 0x00, 0x00, 0x00, 0x13, 0x00, 0xFF,
	0x51, 0x03, 0x07, 0xA1, 0x20, 0x00, 0xFF, 0x58, 0x04, 0x04, 0x02, 0x18,
	0x08, 0x01, 0xFF, 0x2F, 0x00, 0x4D, 0x54, 0x72, 0x6B, 0x00, 0x00, 0x51,
	0x3F, 0x81, 0x58, 0x90, 0x4D, 0x4C, 0x25, 0xB0, 0x40, 0x7F, 0x81, 0x21,
	0x90, 0x4D, 0x00, 0x0A, 0x4D, 0x51, 0x81, 0x46, 0x4D, 0x00, 0x0A, 0x4D,
	0x51, 0x81, 0x4D, 0x4D, 0x00, 0x0A, 0x4D, 0x50, 0x81, 0x45, 0x4D, 0x00,
	0x0A, 0x4D, 0x50, 0x81, 0x45, 0x4D, 0x00, 0x0B, 0x4D, 0x51, 0x81, 0x45,
	0x4D, 0x00, 0x0A, 0x4D, 0x52, 0x81, 0x4D, 0x4D, 0x00, 0x0A, 0x4D, 0x4E,
	0x01, 0x29, 0x3F, 0x01, 0x41, 0x3C, 0x05, 0x35, 0x32, 0x81, 0x3E, 0x4D,
	0x00, 0x05, 0x30, 0x3F, 0x03, 0x29, 0x00, 0x00, 0x35, 0x00, 0x00, 0x41,
	0x00, 0x02, 0x4D, 0x50, 0x02, 0x29, 0x39, 0x00, 0x41, 0x3D, 0x01, 0x35,
	0x31, 0x12, 0xB0, 0x40, 0x00, 0x7B, 0x40, 0x7F, 0x35, 0x90, 0x29, 0x00,
	0x00, 0x30, 0x00, 0x00, 0x35, 0x00, 0x00, 0x4D, 0x00, 0x06, 0x30, 0x3A,
	0x01, 0x39, 0x3F, 0x01, 0x2D, 0x3E, 0x00, 0x41, 0x00, 0x01, 0x35, 0x3C,
	0x01, 0x29, 0x3C, 0x02, 0x4D, 0x4B, 0x01, 0x41, 0x3C, 0x03, 0x2D, 0x00,
	0x00, 0x39, 0x00, 0x81, 0x40, 0x29, 0x00, 0x00, 0x30, 0x00, 0x05, 0x51,
	0x42, 0x03, 0x35, 0x00, 0x00, 0x4D, 0x00, 0x03, 0x29, 0x3C, 0x00, 0x30,
	0x3D, 0x01, 0x35, 0x35, 0x00, 0x45, 0x3D, 0x05, 0x4D, 0x39, 0x2C, 0xB0,
	0x40, 0x00, 0x0B, 0x90, 0x41, 0x00, 0x81, 0x54, 0xB0, 0x40, 0x7F, 0x81,
	0x0A, 0x90, 0x30, 0x00, 0x09, 0x30, 0x3B, 0x81, 0x47, 0x29, 0x00, 0x00,
	0x30, 0x00, 0x00, 0x35, 0x00, 0x04, 0x39, 0x36, 0x02, 0x35, 0x37, 0x04,
	0x29, 0x31, 0x01, 0x30, 0x2F, 0x00, 0x2D, 0x32, 0x04, 0x2D, 0x00, 0x83,
	0x17, 0x30, 0x00, 0x00, 0x4D, 0x00, 0x06, 0x30, 0x3F, 0x02, 0x29, 0x00,
	0x00, 0x35, 0x00, 0x00, 0x54, 0x46, 0x03, 0x4D, 0x50, 0x02, 0x29, 0x3A,
	0x00, 0x35, 0x35, 0x02, 0x41, 0x3D, 0x00, 0x54, 0x00, 0x81, 0x40, 0x30,
	0x00, 0x00, 0x4D, 0x00, 0x08, 0x41, 0x00, 0x02, 0x34, 0x42, 0x00, 0x30,
	0x36, 0x01, 0x2D, 0x36, 0x00, 0x4D, 0x4F, 0x07, 0x41, 0x43, 0x81, 0x3E,
	0x30, 0x00, 0x05, 0x30, 0x3C, 0x02, 0x29, 0x00, 0x00, 0x2D, 0x00, 0x00,
	0x4D, 0x00, 0x05, 0x4D, 0x49, 0x01, 0x29, 0x3C, 0x01, 0x2D, 0x3F, 0x01,
	0x35, 0x00, 0x00, 0x41, 0x00, 0x06, 0x35, 0x39, 0x05, 0x41, 0x38, 0x02,
	0x39, 0x00, 0x81, 0x3B, 0x29, 0x00, 0x00, 0x30, 0x00, 0x00, 0x34, 0x00,
	0x00, 0x35, 0x00, 0x03, 0x4F, 0x42, 0x04, 0x2D, 0x00, 0x01, 0x34, 0x3D,
	0x00, 0x35, 0x3B, 0x03, 0x29, 0x35, 0x00, 0x30, 0x36, 0x00, 0x43, 0x40,
	0x01, 0x2D, 0x35, 0x41, 0xB0, 0x40, 0x00, 0x07, 0x90, 0x51, 0x00, 0x0B,
	0x45, 0x00, 0x01, 0x41, 0x00, 0x00, 0x4D, 0x00, 0x82, 0x10, 0xB0, 0x40,
	0x7F, 0x2E, 0x90, 0x2D, 0x00, 0x00, 0x34, 0x00, 0x08, 0x30, 0x00, 0x03,
	0x34, 0x3A, 0x01, 0x2D, 0x2E, 0x00, 0x30, 0x2A, 0x81, 0x44, 0x30, 0x00,
	0x08, 0x29, 0x00, 0x00, 0x2D, 0x00, 0x01, 0x30, 0x2D, 0x06, 0x37, 0x37,
	0x01, 0x2D, 0x2F, 0x01, 0x29, 0x33, 0x83, 0x1D, 0x2D, 0x00, 0x00, 0x35,
	0x00, 0x01, 0x4D, 0x4E, 0x03, 0x26, 0x42, 0x00, 0x41, 0x42, 0x03, 0x2D,
	0x38, 0x01, 0x35, 0x38, 0x81, 0x40, 0x2D, 0x00, 0x00, 0x4D, 0x00, 0x07,
	0x35, 0x00, 0x00, 0x41, 0x00, 0x02, 0x4D, 0x4D, 0x01, 0x2D, 0x3D, 0x02,
	0x35, 0x38, 0x01, 0x41, 0x3D, 0x04, 0x48, 0x39, 0x81, 0x46, 0x29, 0x00,
	0x00, 0x35, 0x00, 0x07, 0x26, 0x00, 0x00, 0x2D, 0x00, 0x00, 0x41, 0x00,
	0x00, 0x4D, 0x00, 0x02, 0x29, 0x39, 0x00, 0x35, 0x3B, 0x02, 0x2D, 0x36,
	0x00, 0x32, 0x37, 0x01, 0x26, 0x38, 0x00, 0x4D, 0x45, 0x01, 0x41, 0x3D,
	0x81, 0x42, 0x29, 0x00, 0x00, 0x2D, 0x00, 0x00, 0x32, 0x00, 0x00, 0x35,
	0x00, 0x04, 0x32, 0x38, 0x00, 0x2D, 0x38, 0x01, 0x35, 0x38, 0x00, 0x29,
	0x3A, 0x02, 0x51, 0x40, 0x0C, 0x45, 0x3E, 0x0D, 0x26, 0x00, 0x03, 0x37,
	0x00, 0x0B, 0xB0, 0x40, 0x00, 0x08, 0x90, 0x34, 0x00, 0x00, 0x43, 0x00,
	0x00, 0x4F, 0x00, 0x07, 0x30, 0x00, 0x81, 0x39, 0xB0, 0x40, 0x7F, 0x81,
	0x29, 0x90, 0x2D, 0x00, 0x08, 0x2D, 0x36, 0x81, 0x4F, 0x29, 0x00, 0x00,
	0x2D, 0x00, 0x00, 0x32, 0x00, 0x00, 0x35, 0x00, 0x06, 0x29, 0x2F, 0x00,
	0x32, 0x2F, 0x03, 0x2D, 0x2F, 0x01, 0x35, 0x35, 0x83, 0x14, 0x2D, 0x00,
	0x00, 0x35, 0x00, 0x00, 0x4D, 0x00, 0x08, 0x41, 0x00, 0x02, 0x4D, 0x4E,
	0x02, 0x2D, 0x3B, 0x00, 0x35, 0x36, 0x04, 0x41, 0x3D, 0x81, 0x48, 0x2D,
	0x00, 0x00, 0x41, 0x00, 0x00, 0x4D, 0x00, 0x03, 0x54, 0x43, 0x01, 0x4D,
	0x4B, 0x03, 0x34, 0x3E, 0x00, 0x2D, 0x33, 0x00, 0x54, 0x00, 0x02, 0x41,
	0x41, 0x81, 0x46, 0x29, 0x00, 0x00, 0x2D, 0x00, 0x00, 0x35, 0x00, 0x04,
	0x29, 0x3C, 0x02, 0x2D, 0x3D, 0x00, 0x30, 0x36, 0x02, 0x4D, 0x00, 0x02,
	0x35, 0x3B, 0x03, 0x4D, 0x46, 0x03, 0x54, 0x3F, 0x81, 0x38, 0x35, 0x00,
	0x07, 0x29, 0x00, 0x00, 0x2D, 0x00, 0x00, 0x32, 0x00, 0x00, 0x54, 0x00,
	0x02, 0x35, 0x3D, 0x03, 0x29, 0x37, 0x01, 0x2D, 0x38, 0x02, 0x48, 0x00,
	0x01, 0x54, 0x46, 0x03, 0x48, 0x43, 0x41, 0xB0, 0x40, 0x00, 0x81, 0x03,
	0x90, 0x35, 0x00, 0x00, 0x54, 0x00, 0x07, 0x48, 0x00, 0x03, 0x35, 0x3A,
	0x01, 0x54, 0x4C, 0x01, 0x48, 0x44, 0x14, 0x5D, 0x2C, 0x43, 0xB0, 0x40,
	0x7F, 0x1F, 0x40, 0x00, 0x55, 0x90, 0x2D, 0x00, 0x00, 0x34, 0x00, 0x00,
	0x45, 0x00, 0x00, 0x51, 0x00, 0x06, 0x34, 0x3F, 0x00, 0x51, 0x44, 0x02,
	0x2D, 0x38, 0x02, 0x45, 0x44, 0x05, 0xB0, 0x40, 0x7F, 0x5C, 0x40, 0x00,
	0x55, 0x40, 0x7F, 0x0F, 0x90, 0x2D, 0x00, 0x00, 0x30, 0x00, 0x00, 0x4D,
	0x00, 0x04, 0x30, 0x36, 0x01, 0x2D, 0x3D, 0x03, 0x35, 0x00, 0x00, 0x41,
	0x00, 0x03, 0x4D, 0x48, 0x02, 0x35, 0x38, 0x04, 0x41, 0x39, 0x0E, 0xB0,
	0x40, 0x00, 0x54, 0x40, 0x7F, 0x4D, 0x40, 0x00, 0x0F, 0x90, 0x29, 0x00,
	0x00, 0x30, 0x00, 0x00, 0x48, 0x00, 0x07, 0x3C, 0x3A, 0x01, 0x2D, 0x00,
	0x00, 0x35, 0x00, 0x02, 0x29, 0x37, 0x01, 0x48, 0x45, 0x01, 0x30, 0x31,
	0x00, 0x35, 0x36, 0x01, 0x2D, 0x37, 0x1A, 0x5D, 0x00, 0x03, 0x54, 0x00,
	0x01, 0x51, 0x00, 0x00, 0x45, 0x00, 0x01, 0x34, 0x00, 0x00, 0x41, 0x00,
	0x19, 0x29, 0x00, 0x08, 0x4D, 0x00, 0x81, 0x0A, 0x35, 0x00, 0x02, 0x4D,
	0x4E, 0x02, 0x41, 0x3F, 0x01, 0x2E, 0x40, 0x01, 0x35, 0x37, 0x38, 0xB0,
	0x40, 0x7F, 0x81, 0x12, 0x90, 0x2E, 0x00, 0x00, 0x4D, 0x00, 0x07, 0x35,
	0x00, 0x00, 0x41, 0x00, 0x02, 0x32, 0x3D, 0x00, 0x4D, 0x4D, 0x02, 0x2E,
	0x3C, 0x00, 0x35, 0x35, 0x03, 0x41, 0x3E, 0x3F, 0x3C, 0x00, 0x4C, 0x2D,
	0x00, 0x36, 0x2E, 0x00, 0x00, 0x32, 0x00, 0x04, 0x32, 0x37, 0x01, 0x2E,
	0x3E, 0x03, 0x35, 0x00, 0x00, 0x41, 0x00, 0x00, 0x4D, 0x00, 0x06, 0x35,
	0x3B, 0x00, 0x4D, 0x49, 0x04, 0x41, 0x3F, 0x81, 0x36, 0x32, 0x00, 0x07,
	0x2E, 0x00, 0x00, 0x35, 0x00, 0x04, 0x32, 0x3C, 0x00, 0x51, 0x40, 0x02,
	0x35, 0x38, 0x01, 0x2E, 0x35, 0x06, 0x45, 0x3E, 0x22, 0xB0, 0x40, 0x00,
	0x0F, 0x90, 0x30, 0x00, 0x0F, 0x48, 0x00, 0x81, 0x03, 0x41, 0x00, 0x08,
	0xB0, 0x40, 0x7F, 0x81, 0x4F, 0x90, 0x2E, 0x00, 0x00, 0x32, 0x00, 0x08,
	0x32, 0x37, 0x01, 0x2E, 0x2D, 0x81, 0x46, 0x2E, 0x00, 0x00, 0x35, 0x00,
	0x04, 0x3A, 0x38, 0x07, 0x2E, 0x37, 0x00, 0x35, 0x36, 0x83, 0x1C, 0x4D,
	0x00, 0x07, 0x2E, 0x00, 0x00, 0x35, 0x00, 0x04, 0x4D, 0x4F, 0x00, 0x29,
	0x3F, 0x02, 0x41, 0x3B, 0x02, 0x35, 0x33, 0x02, 0x2E, 0x32, 0x34, 0xB0,
	0x40, 0x00, 0x54, 0x40, 0x7F, 0x36, 0x90, 0x29, 0x00, 0x00, 0x35, 0x00,
	0x00, 0x4D, 0x00, 0x04, 0x30, 0x3D, 0x04, 0x41, 0x00, 0x01, 0x29, 0x3D,
	0x01, 0x35, 0x35, 0x01, 0x4D, 0x4E, 0x04, 0x41, 0x3E, 0x36, 0xB0, 0x40,
	0x00, 0x55, 0x40, 0x7F, 0x35, 0x90, 0x29, 0x00, 0x00, 0x30, 0x00, 0x00,
	0x35, 0x00, 0x00, 0x4D, 0x00, 0x05, 0x2D, 0x3D, 0x00, 0x30, 0x39, 0x03,
	0x41, 0x00, 0x02, 0x35, 0x3B, 0x01, 0x29, 0x3D, 0x01, 0x4D, 0x4A, 0x04,
	0x41, 0x3C, 0x0F, 0x51, 0x00, 0x81, 0x31, 0x2E, 0x00, 0x00, 0x30, 0x00,
	0x04, 0x30, 0x3D, 0x00, 0x4F, 0x3F, 0x03, 0x2D, 0x00, 0x02, 0x2E, 0x39,
	0x03, 0x43, 0x3D, 0x0A, 0xB0, 0x40, 0x00, 0x81, 0x22, 0x40, 0x7F, 0x81,
	0x6E, 0x90, 0x29, 0x00, 0x00, 0x30, 0x00, 0x00, 0x4D, 0x00, 0x06, 0x30,
	0x39, 0x02, 0x35, 0x00, 0x00, 0x41, 0x00, 0x03, 0x4D, 0x48, 0x00, 0x29,
	0x39, 0x01, 0x35, 0x33, 0x06, 0x41, 0x39, 0x81, 0x3D, 0x29, 0x00, 0x00,
	0x30, 0x00, 0x00, 0x35, 0x00, 0x00, 0x4D, 0x00, 0x04, 0x2D, 0x3E, 0x02,
	0x30, 0x35, 0x02, 0x41, 0x00, 0x03, 0x29, 0x39, 0x00, 0x4D, 0x47, 0x01,
	0x35, 0x3D, 0x03, 0x41, 0x3A, 0x81, 0x41, 0x29, 0x00, 0x00, 0x30, 0x00,
	0x06, 0x29, 0x38, 0x00, 0x3C, 0x3F, 0x02, 0x32, 0x00, 0x00, 0x35, 0x00,
	0x01, 0xB0, 0x40, 0x00, 0x01, 0x90, 0x30, 0x33, 0x01, 0x48, 0x45, 0x04,
	0x35, 0x33, 0x05, 0x2E, 0x00, 0x01, 0x3A, 0x00, 0x02, 0x45, 0x00, 0x3D,
	0x2D, 0x00, 0x17, 0xB0, 0x40, 0x7F, 0x6C, 0x90, 0x4D, 0x00, 0x08, 0x35,
	0x00, 0x03, 0x2E, 0x3F, 0x00, 0x4D, 0x4D, 0x01, 0x35, 0x35, 0x02, 0x32,
	0x32, 0x09, 0x32, 0x00, 0x81, 0x38, 0x2E, 0x00, 0x00, 0x4F, 0x00, 0x06,
	0x32, 0x3D, 0x02, 0x2E, 0x39, 0x02, 0x4F, 0x46, 0x81, 0x46, 0x29, 0x00,
	0x00, 0x2E, 0x00, 0x00, 0x32, 0x00, 0x00, 0x35, 0x00, 0x03, 0x51, 0x3E,
	0x02, 0x2E, 0x3A, 0x04, 0x35, 0x36, 0x00, 0x32, 0x37, 0x01, 0x29, 0x39,
	0x05, 0x4F, 0x00, 0x0B, 0x4F, 0x31, 0x81, 0x3D, 0x29, 0x00, 0x00, 0x2E,
	0x00, 0x00, 0x32, 0x00, 0x00, 0x4D, 0x00, 0x05, 0x32, 0x34, 0x02, 0x2E,
	0x33, 0x00, 0x35, 0x00, 0x03, 0x4D, 0x43, 0x01, 0x29, 0x33, 0x00, 0x35,
	0x2F, 0x1B, 0x30, 0x00, 0x08, 0x41, 0x00, 0x17, 0x32, 0x00, 0x81, 0x0A,
	0x4F, 0x00, 0x08, 0x4F, 0x41, 0x81, 0x47, 0x51, 0x00, 0x08, 0x29, 0x00,
	0x02, 0x51, 0x44, 0x01, 0x32, 0x3B, 0x81, 0x45, 0x2E, 0x00, 0x00, 0x32,
	0x00, 0x00, 0x35, 0x00, 0x00, 0x4D, 0x00, 0x05, 0x2E, 0x3A, 0x01, 0x32,
	0x32, 0x04, 0x4D, 0x44, 0x00, 0x35, 0x35, 0x81, 0x4D, 0x51, 0x00, 0x07,
	0x51, 0x3F, 0x00, 0x32, 0x00, 0x04, 0x2D, 0x2F, 0x03, 0x30, 0x2C, 0x01,
	0x2D, 0x00, 0x01, 0x32, 0x2D, 0x81, 0x3F, 0x30, 0x00, 0x08, 0x35, 0x00,
	0x00, 0x30, 0x3E, 0x03, 0x4C, 0x48, 0x07, 0x35, 0x30, 0x0D, 0xB0, 0x40,
	0x00, 0x08, 0x90, 0x3C, 0x00, 0x00, 0x43, 0x00, 0x00, 0x48, 0x00, 0x45,
	0x4D, 0x00, 0x07, 0xB0, 0x40, 0x7F, 0x04, 0x90, 0x4D, 0x4E, 0x58, 0x30,
	0x00, 0x0A, 0x34, 0x45, 0x01, 0x54, 0x4D, 0x01, 0x30, 0x34, 0x60, 0x4C,
	0x00, 0x0B, 0x4C, 0x4A, 0x59, 0x30, 0x00, 0x06, 0x2B, 0x41, 0x02, 0x32,
	0x00, 0x00, 0x34, 0x00, 0x00, 0x4D, 0x00, 0x00, 0x30, 0x3C, 0x03, 0x37,
	0x40, 0x01, 0x34, 0x3C, 0x01, 0x4D, 0x49, 0x02, 0x2B, 0x00, 0x5C, 0x54,
	0x00, 0x09, 0x54, 0x46, 0x63, 0x34, 0x00, 0x00, 0x4C, 0x00, 0x08, 0x30,
	0x00, 0x03, 0x4C, 0x41, 0x00, 0x34, 0x3B, 0x03, 0x30, 0x30, 0x56, 0x4D,
	0x00, 0x07, 0x35, 0x00, 0x04, 0x4D, 0x48, 0x02, 0x35, 0x35, 0x02, 0xB0,
	0x40, 0x00, 0x55, 0x40, 0x7F, 0x07, 0x90, 0x54, 0x00, 0x0B, 0x54, 0x49,
	0x61, 0x4C, 0x00, 0x07, 0x30, 0x00, 0x03, 0x4C, 0x45, 0x02, 0x30, 0x30,
	0x58, 0x4D, 0x00, 0x07, 0x30, 0x00, 0x00, 0x34, 0x00, 0x04, 0x4D, 0x4A,
	0x00, 0x34, 0x3F, 0x03, 0x30, 0x33, 0x5D, 0x54, 0x00, 0x0A, 0x54, 0x4B,
	0x62, 0x30, 0x00, 0x00, 0x34, 0x00, 0x00, 0x37, 0x00, 0x00, 0x54, 0x00,
	0x05, 0x54, 0x47, 0x00, 0x30, 0x37, 0x01, 0x34, 0x3B, 0x05, 0x37, 0x41,
	0x03, 0x2E, 0x00, 0x81, 0x0B, 0x51, 0x00, 0x36, 0x30, 0x00, 0x00, 0x37,
	0x00, 0x08, 0x2E, 0x35, 0x01, 0x30, 0x33, 0x01, 0x37, 0x3C, 0x81, 0x36,
	0x4F, 0x00, 0x17, 0x35, 0x00, 0x03, 0x29, 0x40, 0x03, 0x35, 0x32, 0x02,
	0xB0, 0x40, 0x00, 0x81, 0x40, 0x90, 0x30, 0x00, 0x07, 0x30, 0x40, 0x1F,
	0x2E, 0x00, 0x73, 0xB0, 0x40, 0x7F, 0x3E, 0x90, 0x30, 0x00, 0x00, 0x35,
	0x00, 0x00, 0x4D, 0x00, 0x06, 0x30, 0x33, 0x02, 0x2D, 0x37, 0x02, 0x35,
	0x3C, 0x00, 0x41, 0x3B, 0x01, 0x4D, 0x3D, 0x81, 0x2D, 0xB0, 0x40, 0x00,
	0x17, 0x90, 0x30, 0x00, 0x00, 0x35, 0x00, 0x00, 0x41, 0x00, 0x00, 0x4D,
	0x00, 0x05, 0x30, 0x38, 0x00, 0x54, 0x00, 0x03, 0x2D, 0x00, 0x03, 0x35,
	0x35, 0x00, 0x4D, 0x3B, 0x01, 0x41, 0x36, 0x01, 0x2D, 0x36, 0x13, 0x4C,
	0x00, 0x0E, 0x34, 0x00, 0x81, 0x21, 0x30, 0x00, 0x00, 0x41, 0x00, 0x00,
	0x4D, 0x00, 0x08, 0x35, 0x00, 0x02, 0x30, 0x30, 0x02, 0x41, 0x3D, 0x00,
	0x4D, 0x3E, 0x05, 0x35, 0x36, 0x81, 0x3F, 0x29, 0x00, 0x00, 0x30, 0x00,
	0x00, 0x35, 0x00, 0x0A, 0x35, 0x37, 0x00, 0x30, 0x36, 0x00, 0x29, 0x38,
	0x01, 0x48, 0x4B, 0x77, 0x37, 0x00, 0x55, 0x29, 0x00, 0x00, 0x2D, 0x00,
	0x00, 0x30, 0x00, 0x00, 0x35, 0x00, 0x06, 0x2D, 0x3E, 0x02, 0x48, 0x00,
	0x00, 0x35, 0x3F, 0x02, 0x30, 0x36, 0x01, 0x29, 0x39, 0x01, 0x48, 0x45,
	0x81, 0x3C, 0x4D, 0x00, 0x07, 0x2D, 0x00, 0x00, 0x30, 0x00, 0x0A, 0x43,
	0x42, 0x00, 0x30, 0x34, 0x01, 0x2D, 0x36, 0x00, 0x34, 0x32, 0x81, 0x17,
	0xB0, 0x40, 0x7F, 0x0F, 0x40, 0x00, 0x1F, 0x90, 0x30, 0x00, 0x07, 0x34,
	0x00, 0x01, 0x30, 0x41, 0x04, 0x34, 0x31, 0x31, 0xB0, 0x40, 0x7F, 0x81,
	0x12, 0x90, 0x41, 0x00, 0x08, 0x30, 0x00, 0x00, 0x34, 0x00, 0x00, 0x43,
	0x00, 0x09, 0x34, 0x41, 0x00, 0x43, 0x4D, 0x02, 0x4F, 0x46, 0x00, 0x30,
	0x32, 0x81, 0x44, 0x30, 0x00, 0x00, 0x34, 0x00, 0x00, 0x43, 0x00, 0x00,
	0x4F, 0x00, 0x04, 0x30, 0x3E, 0x00, 0x4F, 0x3D, 0x03, 0x34, 0x3A, 0x02,
	0x28, 0x3A, 0x02, 0x43, 0x42, 0x00, 0x37, 0x42, 0x1B, 0x2D, 0x00, 0x05,
	0xB0, 0x40, 0x00, 0x0B, 0x90, 0x48, 0x00, 0x07, 0x35, 0x00, 0x08, 0xB0,
	0x40, 0x7F, 0x81, 0x0A, 0x90, 0x34, 0x00, 0x00, 0x43, 0x00, 0x00, 0x4F,
	0x00, 0x08, 0x30, 0x00, 0x02, 0x4F, 0x40, 0x01, 0x43, 0x45, 0x01, 0x34,
	0x3F, 0x02, 0x2D, 0x35, 0x03, 0x30, 0x31, 0x06, 0x2D, 0x00, 0x81, 0x39,
	0x43, 0x00, 0x00, 0x4F, 0x00, 0x07, 0x30, 0x00, 0x03, 0x4F, 0x41, 0x00,
	0x43, 0x47, 0x01, 0x2D, 0x34, 0x01, 0x30, 0x2C, 0x81, 0x4B, 0x30, 0x00,
	0x07, 0x2D, 0x00, 0x00, 0x34, 0x00, 0x04, 0x30, 0x34, 0x00, 0x4D, 0x43,
	0x02, 0x2D, 0x35, 0x01, 0x34, 0x3F, 0x00, 0x41, 0x42, 0x81, 0x41, 0x30,
	0x00, 0x08, 0x34, 0x00, 0x00, 0x37, 0x00, 0x01, 0x30, 0x3B, 0x02, 0x2B,
	0x3D, 0x00, 0x40, 0x40, 0x02, 0x37, 0x3C, 0x04, 0x34, 0x39, 0x02, 0x4C,
	0x3D, 0x32, 0x28, 0x00, 0x00, 0xB0, 0x40, 0x00, 0x04, 0x90, 0x4D, 0x00,
	0x00, 0x4F, 0x00, 0x00, 0x43, 0x00, 0x01, 0x41, 0x00, 0x01, 0x37, 0x00,
	0x00, 0x29, 0x00, 0x02, 0x2D, 0x00, 0x4D, 0xB0, 0x40, 0x7F, 0x1E, 0x90,
	0x2B, 0x00, 0x17, 0x30, 0x00, 0x09, 0x30, 0x2F, 0x03, 0x2D, 0x33, 0x03,
	0x4D, 0x3D, 0x01, 0x41, 0x36, 0x05, 0x35, 0x31, 0x81, 0x46, 0x26, 0x43,
	0x81, 0x4C, 0x2D, 0x00, 0x00, 0x4D, 0x00, 0x08, 0x35, 0x00, 0x00, 0x41,
	0x00, 0x03, 0x2D, 0x3C, 0x00, 0x4D, 0x49, 0x02, 0x41, 0x43, 0x03, 0x35,
	0x39, 0x81, 0x3F, 0x2D, 0x00, 0x00, 0x35, 0x00, 0x04, 0x32, 0x37, 0x01,
	0x35, 0x3A, 0x03, 0x41, 0x00, 0x00, 0x4D, 0x00, 0x00, 0x2D, 0x35, 0x04,
	0x4D, 0x3F, 0x05, 0x41, 0x3B, 0x81, 0x3F, 0x2D, 0x00, 0x00, 0x35, 0x00,
	0x07, 0x41, 0x00, 0x00, 0x4D, 0x00, 0x01, 0x2D, 0x36, 0x03, 0x35, 0x33,
	0x01, 0x4D, 0x3B, 0x00, 0x41, 0x38, 0x00, 0x29, 0x31, 0x81, 0x52, 0x35,
	0x00, 0x00, 0x41, 0x00, 0x00, 0x4D, 0x00, 0x05, 0x4D, 0x3E, 0x01, 0x41,
	0x3E, 0x05, 0x35, 0x35, 0x81, 0x2E, 0x29, 0x00, 0x0F, 0x26, 0x00, 0x00,
	0x2D, 0x00, 0x00, 0x4D, 0x00, 0x04, 0x26, 0x33, 0x04, 0x32, 0x00, 0x00,
	0x35, 0x00, 0x00, 0x41, 0x00, 0x03, 0x2D, 0x37, 0x00, 0x4D, 0x3E, 0x01,
	0x35, 0x31, 0x01, 0x32, 0x28, 0x01, 0x41, 0x3B, 0x81, 0x41, 0x32, 0x00,
	0x00, 0x35, 0x00, 0x00, 0x41, 0x00, 0x00, 0x4D, 0x00, 0x05, 0x29, 0x37,
	0x03, 0x2D, 0x00, 0x02, 0x4D, 0x40, 0x00, 0x32, 0x36, 0x02, 0x41, 0x3B,
	0x00, 0x35, 0x3B, 0x01, 0x2D, 0x34, 0x81, 0x43, 0x2D, 0x00, 0x00, 0x30,
	0x00, 0x05, 0x30, 0x2A, 0x02, 0x35, 0x00, 0x00, 0x41, 0x00, 0x00, 0x4D,
	0x00, 0x04, 0x2D, 0x30, 0x01, 0x41, 0x32, 0x00, 0x4D, 0x38, 0x06, 0x35,
	0x30, 0x81, 0x45, 0x4D, 0x00, 0x07, 0x2D, 0x00, 0x00, 0x30, 0x00, 0x00,
	0x35, 0x00, 0x00, 0x41, 0x00, 0x04, 0x4D, 0x46, 0x01, 0x2D, 0x3B, 0x00,
	0x30, 0x2E, 0x02, 0x41, 0x41, 0x04, 0x35, 0x39, 0x81, 0x3D, 0x30, 0x00,
	0x00, 0x4D, 0x00, 0x08, 0x2D, 0x00, 0x00, 0x34, 0x00, 0x00, 0x41, 0x00,
	0x02, 0x30, 0x32, 0x01, 0x4D, 0x45, 0x01, 0x41, 0x43, 0x01, 0x2D, 0x37,
	0x05, 0x34, 0x3E, 0x81, 0x3D, 0x29, 0x00, 0x00, 0x2D, 0x00, 0x05, 0x29,
	0x3C, 0x03, 0x30, 0x00, 0x02, 0x2D, 0x3E, 0x02, 0x48, 0x49, 0x00, 0x30,
	0x34, 0x01, 0x3C, 0x39, 0x05, 0x54, 0x45, 0x81, 0x46, 0x30, 0x00, 0x00,
	0x34, 0x00, 0x06, 0x34, 0x43, 0x01, 0x2D, 0x00, 0x03, 0x30, 0x29, 0x02,
	0x2D, 0x31, 0x81, 0x4B, 0x41, 0x00, 0x00, 0x4D, 0x00, 0x05, 0x4D, 0x3F,
	0x00, 0x41, 0x3F, 0x02, 0x2D, 0x00, 0x00, 0x35, 0x00, 0x0A, 0x2D, 0x2B,
	0x01, 0x35, 0x34, 0x81, 0x17, 0x3C, 0x00, 0x00, 0x40, 0x00, 0x00, 0x4C,
	0x00, 0x1E, 0x41, 0x00, 0x00, 0x54, 0x00, 0x04, 0x54, 0x3F, 0x04, 0x2D,
	0x00, 0x00, 0x34, 0x00, 0x00, 0x4D, 0x00, 0x04, 0x41, 0x41, 0x00, 0x4D,
	0x3E, 0x00, 0x2D, 0x34, 0x01, 0x34, 0x3D, 0x03, 0x48, 0x00, 0x06, 0x48,
	0x34, 0x81, 0x32, 0x26, 0x00, 0x00, 0x35, 0x00, 0x08, 0x29, 0x00, 0x00,
	0x2D, 0x00, 0x00, 0x30, 0x00, 0x03, 0x35, 0x3E, 0x04, 0x2D, 0x3E, 0x00,
	0x48, 0x00, 0x00, 0x54, 0x00, 0x01, 0x29, 0x3B, 0x03, 0x30, 0x34, 0x00,
	0xB0, 0x40, 0x00, 0x00, 0x90, 0x48, 0x46, 0x06, 0x54, 0x40, 0x29, 0x32,
	0x00, 0x00, 0x54, 0x00, 0x02, 0x4D, 0x00, 0x01, 0x41, 0x00, 0x17, 0x34,
	0x00, 0x81, 0x03, 0x29, 0x00, 0x00, 0xB0, 0x40, 0x7F, 0x81, 0x4F, 0x90,
	0x48, 0x00, 0x08, 0x35, 0x00, 0x02, 0x48, 0x50, 0x01, 0x54, 0x47, 0x00,
	0x2E, 0x40, 0x04, 0x35, 0x35, 0x55, 0x48, 0x00, 0x08, 0x54, 0x00, 0x03,
	0x48, 0x4F, 0x02, 0x54, 0x44, 0x5E, 0x35, 0x00, 0x00, 0x48, 0x00, 0x00,
	0x54, 0x00, 0x05, 0x32, 0x3E, 0x03, 0x2E, 0x00, 0x00, 0x35, 0x3A, 0x01,
	0x29, 0x39, 0x02, 0x54, 0x46, 0x00, 0x48, 0x4D, 0x03, 0x2E, 0x36, 0x20,
	0x54, 0x00, 0x3E, 0x48, 0x00, 0x0A, 0x48, 0x4D, 0x01, 0x54, 0x45, 0x2B,
	0xB0, 0x40, 0x00, 0x26, 0x90, 0x2E, 0x00, 0x08, 0x32, 0x00, 0x00, 0x35,
	0x00, 0x00, 0x54, 0x00, 0x01, 0x2E, 0x3E, 0x05, 0x32, 0x38, 0x01, 0x48,
	0x00, 0x04, 0x54, 0x40, 0x00, 0x35, 0x3E, 0x03, 0x48, 0x46, 0x81, 0x49,
	0x29, 0x00, 0x00, 0x2E, 0x00, 0x00, 0x32, 0x00, 0x00, 0x35, 0x00, 0x00,
	0x48, 0x00, 0x05, 0x32, 0x34, 0x01, 0x35, 0x34, 0x04, 0x29, 0x32, 0x00,
	0x48, 0x46, 0x01, 0x2E, 0x34, 0x08, 0x51, 0x2B, 0x0B, 0x51, 0x00, 0x18,
	0x54, 0x00, 0x2E, 0x48, 0x00, 0x0B, 0x48, 0x4A, 0x01, 0x54, 0x3A, 0x03,
	0x35, 0x00, 0x05, 0x35, 0x34, 0x57, 0x2E, 0x00, 0x00, 0x35, 0x00, 0x00,
	0x48, 0x00, 0x00, 0x54, 0x00, 0x07, 0x35, 0x35, 0x04, 0x48, 0x4B, 0x00,
	0x2E, 0x2F, 0x01, 0x54, 0x3F, 0x81, 0x43, 0x2E, 0x00, 0x00, 0x32, 0x00,
	0x00, 0x54, 0x00, 0x05, 0x32, 0x3A, 0x03, 0x35, 0x00, 0x03, 0x2E, 0x37,
	0x00, 0x41, 0x3D, 0x01, 0x4D, 0x40, 0x02, 0x35, 0x38, 0x81, 0x42, 0x2E,
	0x00, 0x00, 0x35, 0x00, 0x05, 0x2E, 0x3C, 0x01, 0x43, 0x40, 0x02, 0x4F,
	0x3C, 0x02, 0x35, 0x3A, 0x81, 0x3E, 0xB0, 0x40, 0x7F, 0x0F, 0x90, 0x32,
	0x00, 0x00, 0x35, 0x00, 0x00, 0x4D, 0x00, 0x08, 0x41, 0x00, 0x01, 0x32,
	0x29, 0x00, 0x4D, 0x3A, 0x00, 0x35, 0x32, 0x03, 0x41, 0x30, 0x0B, 0xB0,
	0x40, 0x00, 0x81, 0x29, 0x90, 0x2D, 0x00, 0x0F, 0x4D, 0x00, 0x04, 0x54,
	0x42, 0x04, 0x29, 0x00, 0x00, 0x35, 0x00, 0x00, 0x41, 0x00, 0x03, 0x4D,
	0x43, 0x01, 0x41, 0x3D, 0x00, 0x29, 0x3A, 0x04, 0x54, 0x00, 0x02, 0x35,
	0x35, 0x81, 0x3E, 0x30, 0x00, 0x00, 0x4D, 0x00, 0x07, 0x30, 0x3C, 0x00,
	0x29, 0x00, 0x00, 0x35, 0x00, 0x00, 0x41, 0x00, 0x03, 0x4D, 0x43, 0x01,
	0x41, 0x3F, 0x01, 0x29, 0x34, 0x00, 0x35, 0x31, 0x57, 0x4F, 0x00, 0x74,
	0x29, 0x00, 0x00, 0x30, 0x00, 0x00, 0x35, 0x00, 0x00, 0x41, 0x00, 0x04,
	0x35, 0x39, 0x02, 0x39, 0x3C, 0x01, 0x48, 0x00, 0x00, 0x4D, 0x00, 0x03,
	0x2D, 0x39, 0x01, 0x30, 0x34, 0x00, 0x29, 0x36, 0x00, 0x41, 0x3C, 0x00,
	0x4D, 0x3C, 0x04, 0x2D, 0x00, 0x00, 0xB0, 0x40, 0x7F, 0x02, 0x90, 0x48,
	0x38, 0x81, 0x3E, 0x29, 0x00, 0x00, 0x30, 0x00, 0x06, 0x3C, 0x3E, 0x01,
	0x30, 0x34, 0x01, 0x35, 0x00, 0x00, 0x48, 0x00, 0x02, 0x29, 0x34, 0x03,
	0x35, 0x32, 0x00, 0x48, 0x3C, 0x81, 0x33, 0xB0, 0x40, 0x00, 0x0F, 0x90,
	0x30, 0x00, 0x00, 0x3C, 0x00, 0x06, 0x3C, 0x3D, 0x02, 0x48, 0x00, 0x03,
	0x30, 0x2D, 0x06, 0x48, 0x3E, 0x81, 0x3F, 0x30, 0x00, 0x00, 0x35, 0x00,
	0x00, 0xB0, 0x40, 0x7F, 0x05, 0x90, 0x30, 0x3A, 0x00, 0x35, 0x2B, 0x04,
	0x51, 0x3B, 0x01, 0x45, 0x47, 0x05, 0x43, 0x00, 0x81, 0x48, 0x29, 0x00,
	0x00, 0x35, 0x00, 0x00, 0x39, 0x00, 0x00, 0x45, 0x00, 0x00, 0x51, 0x00,
	0x07, 0x4D, 0x00, 0x02, 0x51, 0x35, 0x01, 0x29, 0x34, 0x00, 0x2D, 0x35,
	0x00, 0x35, 0x38, 0x00, 0x39, 0x3D, 0x01, 0x45, 0x3E, 0x05, 0x4D, 0x35,
	0x35, 0xB0, 0x40, 0x00, 0x81, 0x31, 0x40, 0x7F, 0x81, 0x28, 0x90, 0x2E,
	0x00, 0x08, 0x4D, 0x00, 0x01, 0x2E, 0x39, 0x02, 0x52, 0x43, 0x01, 0x46,
	0x49, 0x02, 0x4D, 0x3D, 0x81, 0x42, 0x2E, 0x00, 0x00, 0x32, 0x00, 0x00,
	0x46, 0x00, 0x08, 0x52, 0x00, 0x01, 0x46, 0x49, 0x01, 0x32, 0x3A, 0x00,
	0x2E, 0x33, 0x02, 0x52, 0x40, 0x0D, 0x3A, 0x30, 0x52, 0x46, 0x00, 0x00,
	0x52, 0x00, 0x0B, 0x52, 0x3F, 0x01, 0x46, 0x46, 0x60, 0x2E, 0x00, 0x00,
	0x35, 0x00, 0x04, 0x2E, 0x3A, 0x01, 0x35, 0x34, 0x03, 0x32, 0x00, 0x05,
	0x32, 0x2A, 0x81, 0x42, 0x2E, 0x00, 0x00, 0x32, 0x00, 0x00, 0x46, 0x00,
	0x00, 0x52, 0x00, 0x05, 0x32, 0x34, 0x04, 0x52, 0x3C, 0x01, 0x2E, 0x30,
	0x01, 0x46, 0x3F, 0x05, 0x3A, 0x00, 0x05, 0x3A, 0x2F, 0x81, 0x3B, 0x2E,
	0x00, 0x00, 0x46, 0x00, 0x00, 0x52, 0x00, 0x09, 0x2E, 0x2C, 0x01, 0x52,
	0x3F, 0x00, 0x46, 0x46, 0x81, 0x45, 0x2E, 0x00, 0x08, 0x32, 0x00, 0x00,
	0x46, 0x00, 0x02, 0x2E, 0x2E, 0x04, 0x32, 0x37, 0x01, 0x52, 0x00, 0x04,
	0x46, 0x42, 0x00, 0x52, 0x3D, 0x81, 0x44, 0x2E, 0x00, 0x00, 0x35, 0x00,
	0x08, 0x48, 0x00, 0x01, 0x35, 0x3B, 0x00, 0x2E, 0x3C, 0x04, 0x54, 0x3F,
	0x00, 0x48, 0x47, 0x1E, 0xB0, 0x40, 0x00, 0x22, 0x90, 0x2D, 0x00, 0x07,
	0xB0, 0x40, 0x7F, 0x74, 0x90, 0x2E, 0x00, 0x0A, 0x2E, 0x31, 0x06, 0x37,
	0x3A, 0x02, 0x4F, 0x3C, 0x00, 0x43, 0x43, 0x81, 0x45, 0x30, 0x00, 0x09,
	0x30, 0x41, 0x81, 0x5A, 0x34, 0x40, 0x0A, 0x40, 0x30, 0x03, 0x2B, 0x2B,
	0x05, 0x2B, 0x00, 0x08, 0x54, 0x00, 0x3E, 0x37, 0x00, 0x08, 0x37, 0x43,
	0x63, 0x30, 0x00, 0x06, 0x30, 0x39, 0x02, 0x3C, 0x00, 0x06, 0x3C, 0x34,
	0x81, 0x43, 0x22, 0x36, 0x06, 0x22, 0x00, 0x00, 0x34, 0x00, 0x00, 0x40,
	0x00, 0x06, 0x34, 0x37, 0x05, 0x4C, 0x32, 0x01, 0x40, 0x32, 0x81, 0x3C,
	0x2E, 0x00, 0x00, 0x30, 0x00, 0x00, 0x37, 0x00, 0x00, 0x3C, 0x00, 0x04,
	0x24, 0x32, 0x03, 0x22, 0x34, 0x01, 0x30, 0x35, 0x02, 0x3C, 0x38, 0x00,
	0x2E, 0x35, 0x00, 0x37, 0x3E, 0x15, 0x51, 0x00, 0x2E, 0xB0, 0x40, 0x00,
	0x3D, 0x40, 0x7F, 0x0F, 0x90, 0x22, 0x00, 0x82, 0x0D, 0x34, 0x00, 0x08,
	0x2E, 0x00, 0x04, 0x34, 0x3C, 0x02, 0x2E, 0x2F, 0x03, 0x2B, 0x2D, 0x06,
	0x2B, 0x00, 0x08, 0xB0, 0x40, 0x00, 0x73, 0x40, 0x7F, 0x3E, 0x90, 0x30,
	0x00, 0x08, 0x30, 0x3C, 0x81, 0x4F, 0x29, 0x00, 0x07, 0x41, 0x00, 0x04,
	0x29, 0x40, 0x04, 0x35, 0x00, 0x07, 0x35, 0x31, 0x81, 0x39, 0x30, 0x00,
	0x0A, 0x30, 0x41, 0x62, 0x32, 0x00, 0x00, 0x39, 0x00, 0x00, 0x3A, 0x00,
	0x00, 0x43, 0x00, 0x00, 0x45, 0x00, 0x00, 0x46, 0x00, 0x00, 0x48, 0x00,
	0x00, 0x4D, 0x00, 0x00, 0x4F, 0x00, 0x00, 0x52, 0x00, 0x63, 0x29, 0x00,
	0x00, 0x30, 0x00, 0x00, 0x35, 0x00, 0x09, 0x35, 0x3A, 0x02, 0x4D, 0x3F,
	0x00, 0x2D, 0x3B, 0x00, 0x29, 0x39, 0x00, 0x39, 0x3E, 0x00, 0x30, 0x36,
	0x01, 0x41, 0x3C, 0x81, 0x44, 0x30, 0x00, 0x00, 0x41, 0x00, 0x05, 0x30,
	0x3A, 0x02, 0x2E, 0x00, 0x00, 0x4D, 0x00, 0x04, 0x41, 0x39, 0x00, 0x4D,
	0x3D, 0x42, 0xB0, 0x40, 0x00, 0x81, 0x0A, 0x90, 0x29, 0x00, 0x00, 0x30,
	0x00, 0x00, 0x4D, 0x00, 0x07, 0x35, 0x00, 0x00, 0x41, 0x00, 0x04, 0x29,
	0x39, 0x00, 0x4D, 0x41, 0x00, 0x30, 0x33, 0x01, 0x41, 0x3D, 0x06, 0x35,
	0x37, 0x81, 0x3D, 0x30, 0x00, 0x08, 0x29, 0x00, 0x00, 0x3C, 0x00, 0x03,
	0x48, 0x4F, 0x00, 0x30, 0x3B, 0x01, 0x29, 0x38, 0x05, 0x3C, 0x38, 0x81,
	0x3E, 0x29, 0x00, 0x00, 0x2D, 0x00, 0x00, 0x30, 0x00, 0x00, 0x35, 0x00,
	0x08, 0x2D, 0x40, 0x00, 0x24, 0x00, 0x00, 0x48, 0x00, 0x02, 0x35, 0x3F,
	0x01, 0x29, 0x3B, 0x00, 0x30, 0x37, 0x01, 0x48, 0x48, 0x81, 0x44, 0x30,
	0x00, 0x0A, 0x30, 0x32, 0x00, 0x43, 0x44, 0x81, 0x4D, 0x30, 0x00, 0x0A,
	0x30, 0x43, 0x81, 0x17, 0xB0, 0x40, 0x7F, 0x2E, 0x90, 0x34, 0x00, 0x00,
	0x43, 0x00, 0x08, 0x30, 0x00, 0x03, 0x34, 0x42, 0x00, 0x43, 0x4E, 0x01,
	0x4F, 0x43, 0x00, 0x30, 0x30, 0x81, 0x44, 0x30, 0x00, 0x00, 0x34, 0x00,
	0x00, 0x43, 0x00, 0x00, 0x4F, 0x00, 0x06, 0x4F, 0x3D, 0x01, 0x37, 0x00,
	0x01, 0x30, 0x40, 0x02, 0x34, 0x3B, 0x00, 0x28, 0x3C, 0x01, 0x43, 0x43,
	0x03, 0x37, 0x41, 0x09, 0x40, 0x00, 0x03, 0x35, 0x00, 0x01, 0x41, 0x00,
	0x00, 0x48, 0x00, 0x01, 0x3C, 0x00, 0x12, 0x4C, 0x00, 0x00, 0x4D, 0x00,
	0x0F, 0x39, 0x00, 0x81, 0x1A, 0x28, 0x00, 0x00, 0x30, 0x00, 0x00, 0x34,
	0x00, 0x00, 0x43, 0x00, 0x06, 0x28, 0x32, 0x03, 0x34, 0x3C, 0x02, 0x30,
	0x31, 0x00, 0x43, 0x44, 0x00, 0x2B, 0x32, 0x81, 0x44, 0x30, 0x00, 0x00,
	0x43, 0x00, 0x00, 0x4F, 0x00, 0x0A, 0x4F, 0x42, 0x01, 0x43, 0x46, 0x00,
	0x30, 0x2E, 0x2B, 0xB0, 0x40, 0x00, 0x73, 0x40, 0x7F, 0x26, 0x90, 0x2D,
	0x00, 0x00, 0x30, 0x00, 0x00, 0x34, 0x00, 0x0A, 0x30, 0x33, 0x01, 0x34,
	0x3E, 0x01, 0x45, 0x49, 0x00, 0x2D, 0x35, 0x01, 0x51, 0x3C, 0x04, 0x4C,
	0x35, 0x81, 0x3F, 0x2B, 0x00, 0x00, 0x30, 0x00, 0x00, 0x37, 0x00, 0x00,
	0x4F, 0x00, 0x05, 0x2B, 0x38, 0x00, 0x46, 0x44, 0x00, 0x37, 0x3C, 0x03,
	0x52, 0x3F, 0x02, 0x30, 0x37, 0x01, 0x4F, 0x3A, 0x81, 0x4C, 0x2D, 0x00,
	0x00, 0x45, 0x00, 0x00, 0x51, 0x00, 0x07, 0x2D, 0x2C, 0x03, 0x45, 0x44,
	0x00, 0x51, 0x3C, 0x69, 0xB0, 0x40, 0x00, 0x67, 0x90, 0x26, 0x45, 0x81,
	0x44, 0x2D, 0x00, 0x00, 0x45, 0x00, 0x00, 0x51, 0x00, 0x09, 0x2D, 0x3A,
	0x01, 0x51, 0x42, 0x02, 0x45, 0x49, 0x0C, 0xB0, 0x40, 0x7F, 0x81, 0x38,
	0x90, 0x45, 0x00, 0x05, 0x32, 0x38, 0x03, 0x29, 0x00, 0x00, 0x2D, 0x00,
	0x00, 0x51, 0x00, 0x00, 0x45, 0x44, 0x03, 0x35, 0x3B, 0x01, 0x29, 0x36,
	0x06, 0x51, 0x3E, 0x00, 0x2D, 0x39, 0x81, 0x45, 0x29, 0x00, 0x00, 0x2D,
	0x00, 0x00, 0x35, 0x00, 0x00, 0x51, 0x00, 0x05, 0x35, 0x31, 0x03, 0x45,
	0x00, 0x00, 0x2D, 0x33, 0x02, 0x51, 0x3A, 0x01, 0x29, 0x33, 0x00, 0x45,
	0x43, 0x81, 0x26, 0x28, 0x00, 0x1E, 0x2D, 0x00, 0x00, 0x45, 0x00, 0x00,
	0x51, 0x00, 0x0A, 0x51, 0x3D, 0x01, 0x2D, 0x31, 0x01, 0x45, 0x47, 0x81,
	0x44, 0x2D, 0x00, 0x00, 0x43, 0x00, 0x00, 0x4F, 0x00, 0x07, 0x2D, 0x39,
	0x02, 0x4F, 0x3E, 0x01, 0x43, 0x47, 0x81, 0x4D, 0x29, 0x00, 0x00, 0x32,
	0x00, 0x00, 0x35, 0x00, 0x06, 0x32, 0x35, 0x01, 0x2D, 0x00, 0x03, 0x29,
	0x38, 0x00, 0x35, 0x39, 0x00, 0x4D, 0x3F, 0x01, 0x2D, 0x35, 0x00, 0x41,
	0x3D, 0x81, 0x4C, 0x35, 0x00, 0x00, 0x41, 0x00, 0x00, 0x4D, 0x00, 0x04,
	0x4D, 0x39, 0x00, 0x41, 0x36, 0x04, 0x35, 0x2E, 0x81, 0x3F, 0x2D, 0x00,
	0x05, 0x2D, 0x3F, 0x03, 0x34, 0x00, 0x00, 0x4C, 0x00, 0x04, 0x40, 0x46,
	0x04, 0x4C, 0x44, 0x03, 0x34, 0x2F, 0x81, 0x3D, 0x4C, 0x00, 0x07, 0x34,
	0x00, 0x00, 0x40, 0x00, 0x02, 0x58, 0x45, 0x02, 0x4C, 0x4D, 0x00, 0x34,
	0x3F, 0x04, 0x58, 0x00, 0x01, 0x40, 0x41, 0x81, 0x47, 0x2D, 0x00, 0x00,
	0x30, 0x00, 0x00, 0x34, 0x00, 0x06, 0x2D, 0x3E, 0x00, 0x30, 0x37, 0x01,
	0x4C, 0x00, 0x02, 0x34, 0x34, 0x04, 0x4C, 0x45, 0x06, 0x58, 0x37, 0x04,
	0x58, 0x00, 0x0B, 0x45, 0x00, 0x0C, 0x26, 0x00, 0x00, 0x2B, 0x00, 0x08,
	0x29, 0x00, 0x07, 0x32, 0x00, 0x00, 0x4F, 0x00, 0x00, 0x51, 0x00, 0x00,
	0x52, 0x00, 0x17, 0x4D, 0x00, 0x08, 0x43, 0x00, 0x08, 0x37, 0x00, 0x35,
	0x35, 0x00, 0x2E, 0x41, 0x00, 0x08, 0x34, 0x00, 0x0A, 0x34, 0x3B, 0x01,
	0x4A, 0x42, 0x02, 0x56, 0x37, 0x0A, 0x56, 0x00, 0x81, 0x38, 0x4A, 0x00,
	0x08, 0x4A, 0x44, 0x01, 0x56, 0x3D, 0x03, 0x35, 0x34, 0x04, 0x56, 0x00,
	0x81, 0x40, 0x34, 0x00, 0x00, 0x40, 0x00, 0x0B, 0x34, 0x3E, 0x00, 0x40,
	0x33, 0x81, 0x35, 0x46, 0x00, 0x17, 0x2D, 0x00, 0x00, 0x30, 0x00, 0x04,
	0x2D, 0x3D, 0x06, 0x21, 0x3E, 0x00, 0x24, 0x37, 0x01, 0x48, 0x49, 0x00,
	0x30, 0x34, 0x01, 0x54, 0x40, 0x13, 0x40, 0x00, 0x35, 0x21, 0x00, 0x00,
	0x34, 0x00, 0x00, 0x54, 0x00, 0x7B, 0x4C, 0x00, 0x08, 0x2D, 0x00, 0x02,
	0x51, 0x3A, 0x00, 0x45, 0x43, 0x01, 0x4C, 0x32, 0x06, 0x2D, 0x30, 0x2D,
	0x35, 0x00, 0x35, 0x43, 0x42, 0x02, 0x4F, 0x3A, 0x66, 0x2E, 0x41, 0x00,
	0x4D, 0x43, 0x01, 0x41, 0x44, 0x81, 0x4B, 0x41, 0x00, 0x00, 0x4D, 0x00,
	0x07, 0x59, 0x43, 0x01, 0x32, 0x3D, 0x03, 0x4D, 0x45, 0x00, 0x41, 0x42,
	0x04, 0x59, 0x00, 0x5C, 0x41, 0x00, 0x00, 0x4D, 0x00, 0x02, 0x59, 0x42,
	0x03, 0x41, 0x40, 0x00, 0x4D, 0x3C, 0x03, 0x59, 0x00, 0x5C, 0x2E, 0x00,
	0x03, 0x3A, 0x37, 0x03, 0x2E, 0x3B, 0x04, 0x35, 0x39, 0x81, 0x3E, 0x32,
	0x00, 0x07, 0x41, 0x00, 0x04, 0x32, 0x37, 0x04, 0x4D, 0x00, 0x01, 0x41,
	0x37, 0x04, 0x4D, 0x3D, 0x57, 0x4A, 0x00, 0x2E, 0x24, 0x00, 0x3E, 0x2E,
	0x00, 0x00, 0x32, 0x00, 0x07, 0x2E, 0x31, 0x00, 0x35, 0x00, 0x00, 0x41,
	0x00, 0x00, 0x4D, 0x00, 0x03, 0x32, 0x33, 0x02, 0x41, 0x39, 0x00, 0x4D,
	0x3A, 0x02, 0x35, 0x33, 0x81, 0x49, 0x32, 0x00, 0x00, 0x43, 0x00, 0x00,
	0x4F, 0x00, 0x07, 0x2E, 0x00, 0x02, 0x4F, 0x3C, 0x00, 0x43, 0x46, 0x01,
	0x32, 0x38, 0x02, 0x2E, 0x32, 0x81, 0x43, 0x2E, 0x00, 0x00, 0x45, 0x00,
	0x00, 0x51, 0x00, 0x08, 0x4D, 0x00, 0x02, 0x2E, 0x3A, 0x01, 0x45, 0x42,
	0x00, 0x29, 0x36, 0x01, 0x51, 0x3C, 0x07, 0x4D, 0x36, 0x14, 0x3A, 0x00,
	0x00, 0x4C, 0x00, 0x81, 0x28, 0x2E, 0x00, 0x08, 0x2E, 0x33, 0x00, 0x35,
	0x00, 0x00, 0x41, 0x00, 0x00, 0x4D, 0x00, 0x05, 0x41, 0x33, 0x00, 0x35,
	0x2F, 0x01, 0x4D, 0x38, 0x0A, 0xB0, 0x40, 0x00, 0x81, 0x3F, 0x90, 0x54,
	0x43, 0x01, 0x29, 0x00, 0x00, 0x35, 0x00, 0x00, 0x41, 0x00, 0x00, 0x4D,
	0x00, 0x04, 0x4D, 0x43, 0x01, 0x41, 0x40, 0x02, 0x54, 0x00, 0x01, 0x29,
	0x3E, 0x02, 0x35, 0x38, 0x81, 0x45, 0x30, 0x00, 0x08, 0x41, 0x00, 0x00,
	0x4D, 0x00, 0x02, 0x30, 0x3F, 0x01, 0x54, 0x44, 0x01, 0x4D, 0x45, 0x03,
	0x41, 0x40, 0x00, 0x35, 0x00, 0x06, 0x35, 0x30, 0x56, 0x41, 0x00, 0x00,
	0x4D, 0x00, 0x05, 0x4D, 0x3E, 0x00, 0x41, 0x42, 0x5F, 0x29, 0x00, 0x00,
	0x2D, 0x00, 0x00, 0x30, 0x00, 0x00, 0x35, 0x00, 0x06, 0x39, 0x3C, 0x02,
	0x29, 0x35, 0x01, 0x35, 0x3D, 0x01, 0x30, 0x32, 0x01, 0x2D, 0x38, 0x81,
	0x07, 0xB0, 0x40, 0x7F, 0x3E, 0x90, 0x30, 0x00, 0x00, 0x41, 0x00, 0x00,
	0x54, 0x00, 0x06, 0x30, 0x39, 0x01, 0x35, 0x00, 0x00, 0x4D, 0x00, 0x02,
	0x54, 0x3C, 0x01, 0x41, 0x36, 0x03, 0x4D, 0x3A, 0x02, 0xB0, 0x40, 0x00,
	0x01, 0x90, 0x35, 0x2F, 0x53, 0xB0, 0x40, 0x7F, 0x64, 0x40, 0x00, 0x17,
	0x90, 0x2E, 0x00, 0x00, 0x35, 0x00, 0x00, 0x41, 0x00, 0x00, 0x4D, 0x00,
	0x05, 0x4D, 0x3B, 0x00, 0x41, 0x3C, 0x01, 0x2E, 0x30, 0x06, 0x35, 0x31,
	0x81, 0x3C, 0x30, 0x00, 0x00, 0x43, 0x00, 0x00, 0x4F, 0x00, 0x0B, 0x30,
	0x3B, 0x00, 0x43, 0x47, 0x00, 0x4F, 0x3C, 0x81, 0x44, 0x51, 0x00, 0x08,
	0x29, 0x00, 0x00, 0x2D, 0x00, 0x00, 0x30, 0x00, 0x00, 0x35, 0x00, 0x00,
	0x45, 0x00, 0x04, 0x51, 0x3B, 0x00, 0x35, 0x39, 0x00, 0x45, 0x41, 0x01,
	0x29, 0x34, 0x03, 0x4D, 0x00, 0x00, 0x2D, 0x36, 0x04, 0x30, 0x31, 0x05,
	0x4D, 0x34, 0x81, 0x3E, 0x41, 0x00, 0x00, 0x4D, 0x00, 0x06, 0x41, 0x36,
	0x01, 0x4D, 0x39, 0x01, 0x35, 0x00, 0x05, 0x35, 0x2D, 0x81, 0x43, 0x2E,
	0x00, 0x0A, 0x2E, 0x3C, 0x01, 0x52, 0x43, 0x00, 0x46, 0x47, 0x07, 0x3A,
	0x35, 0x81, 0x3D, 0x32, 0x00, 0x08, 0x46, 0x00, 0x00, 0x52, 0x00, 0x03,
	0x32, 0x39, 0x01, 0x46, 0x47, 0x01, 0x52, 0x42, 0x02, 0x3A, 0x00, 0x05,
	0x3A, 0x31, 0x81, 0x3B, 0x2E, 0x00, 0x00, 0x3A, 0x00, 0x04, 0x2E, 0x3D,
	0x04, 0x35, 0x00, 0x00, 0x46, 0x00, 0x00, 0x4D, 0x00, 0x00, 0x52, 0x00,
	0x02, 0x3A, 0x3F, 0x02, 0x52, 0x3D, 0x01, 0x35, 0x36, 0x00, 0x46, 0x3E,
	0x01, 0x4D, 0x3D, 0x02, 0x41, 0x00, 0x07, 0x41, 0x33, 0x81, 0x39, 0x32,
	0x00, 0x00, 0x45, 0x00, 0x04, 0x32, 0x33, 0x04, 0x51, 0x00, 0x02, 0x45,
	0x41, 0x04, 0x51, 0x39, 0x81, 0x49, 0x2E, 0x00, 0x00, 0x46, 0x00, 0x00,
	0x52, 0x00, 0x08, 0x48, 0x00, 0x01, 0x2E, 0x2B, 0x02, 0x46, 0x44, 0x00,
	0x52, 0x3F, 0x04, 0x3A, 0x00, 0x05, 0x3A, 0x2B, 0x0B, 0x54, 0x00, 0x81,
	0x30, 0x2E, 0x00, 0x00, 0x32, 0x00, 0x06, 0x32, 0x37, 0x02, 0x51, 0x00,
	0x00, 0x54, 0x41, 0x03, 0x48, 0x4B, 0x00, 0x2E, 0x31, 0x02, 0x51, 0x36,
	0x81, 0x3B, 0x3A, 0x00, 0x08, 0x2E, 0x00, 0x00, 0x45, 0x00, 0x02, 0x3A,
	0x3B, 0x05, 0x45, 0x43, 0x00, 0x29, 0x00, 0x00, 0x32, 0x00, 0x00, 0x35,
	0x00, 0x00, 0x51, 0x00, 0x03, 0x2E, 0x39, 0x01, 0x32, 0x30, 0x01, 0x35,
	0x38, 0x01, 0x29, 0x36, 0x02, 0x51, 0x3B, 0x81, 0x48, 0x51, 0x00, 0x07,
	0x29, 0x00, 0x00, 0x2E, 0x00, 0x00, 0x35, 0x00, 0x00, 0x45, 0x00, 0x00,
	0x4D, 0x00, 0x04, 0x51, 0x39, 0x00, 0x45, 0x40, 0x00, 0x4D, 0x39, 0x04,
	0x29, 0x2E, 0x00, 0x35, 0x2D, 0x02, 0x2E, 0x2D, 0x81, 0x3E, 0x30, 0x00,
	0x0A, 0x30, 0x3F, 0x62, 0x2D, 0x00, 0x00, 0x43, 0x00, 0x00, 0x4F, 0x00,
	0x3D, 0xB0, 0x40, 0x7F, 0x26, 0x90, 0x30, 0x00, 0x09, 0x34, 0x3F, 0x02,
	0x4F, 0x46, 0x00, 0x43, 0x4B, 0x01, 0x30, 0x3B, 0x00, 0x37, 0x43, 0x0B,
	0xB0, 0x40, 0x00, 0x81, 0x39, 0x90, 0x2E, 0x00, 0x00, 0x30, 0x00, 0x00,
	0x34, 0x00, 0x07, 0x37, 0x00, 0x03, 0x30, 0x38, 0x00, 0x34, 0x3E, 0x01,
	0x2E, 0x39, 0x02, 0x2B, 0x36, 0x01, 0x37, 0x3B, 0x81, 0x49, 0x30, 0x00,
	0x00, 0x34, 0x00, 0x00, 0xB0, 0x40, 0x7F, 0x07, 0x90, 0x29, 0x00, 0x00,
	0x35, 0x00, 0x00, 0x41, 0x00, 0x00, 0x4D, 0x00, 0x03, 0x30, 0x38, 0x00,
	0x34, 0x3A, 0x01, 0x28, 0x38, 0x01, 0x29, 0x3B, 0x02, 0x4D, 0x42, 0x01,
	0x41, 0x3A, 0x00, 0x35, 0x3A, 0x00, 0x28, 0x00, 0x10, 0x45, 0x00, 0x03,
	0x46, 0x00, 0x14, 0x39, 0x00, 0x00, 0x54, 0x00, 0x1E, 0x52, 0x00, 0x7B,
	0x2B, 0x00, 0x00, 0x30, 0x00, 0x00, 0x41, 0x00, 0x00, 0x4D, 0x00, 0x08,
	0x34, 0x00, 0x00, 0x35, 0x00, 0x00, 0x4D, 0x41, 0x01, 0x30, 0x3A, 0x02,
	0x41, 0x3E, 0x00, 0x2B, 0x3A, 0x01, 0x34, 0x3C, 0x02, 0x35, 0x3B, 0x81,
	0x41, 0x43, 0x00, 0x00, 0x4F, 0x00, 0x08, 0x30, 0x00, 0x00, 0x34, 0x00,
	0x02, 0x4F, 0x40, 0x00, 0x43, 0x47, 0x06, 0x2B, 0x00, 0x00, 0x37, 0x00,
	0x00, 0x34, 0x37, 0x03, 0x30, 0x31, 0x01, 0x37, 0x3B, 0x06, 0x2B, 0x30,
	0x81, 0x2E, 0x30, 0x00, 0x00, 0x4F, 0x00, 0x09, 0x30, 0x3C, 0x02, 0x4F,
	0x3E, 0x01, 0x2D, 0x3D, 0x00, 0x24, 0x3A, 0x01, 0x28, 0x3D, 0x0A, 0x32,
	0x00, 0x10, 0x29, 0x00, 0x81, 0x38, 0x2D, 0x00, 0x00, 0x30, 0x00, 0x00,
	0x35, 0x00, 0x07, 0x2D, 0x37, 0x01, 0x41, 0x00, 0x00, 0x4D, 0x00, 0x02,
	0x29, 0x39, 0x01, 0x30, 0x35, 0x00, 0x35, 0x38, 0x01, 0x4D, 0x3D, 0x04,
	0x41, 0x3B, 0x26, 0xB0, 0x40, 0x00, 0x54, 0x40, 0x7F, 0x45, 0x90, 0x51,
	0x00, 0x08, 0x29, 0x00, 0x00, 0x35, 0x00, 0x00, 0xB0, 0x40, 0x00, 0x03,
	0x90, 0x45, 0x4B, 0x00, 0x51, 0x47, 0x04, 0x29, 0x3F, 0x03, 0x35, 0x34,
	0x2F, 0x43, 0x00, 0x81, 0x0F, 0x30, 0x00, 0x07, 0x29, 0x00, 0x00, 0x35,
	0x00, 0x03, 0x30, 0x40, 0x02, 0x35, 0x2F, 0x01, 0x29, 0x35, 0x02, 0x3A,
	0x00, 0x0F, 0x2E, 0x00, 0x55, 0xB0, 0x40, 0x7F, 0x64, 0x90, 0x30, 0x00,
	0x00, 0x35, 0x00, 0x00, 0x41, 0x00, 0x03, 0x39, 0x36, 0x04, 0x29, 0x00,
	0x00, 0x2D, 0x00, 0x01, 0x35, 0x34, 0x00, 0x30, 0x30, 0x03, 0x41, 0x2D,
	0x00, 0x2D, 0x32, 0x04, 0x29, 0x33, 0x81, 0x40, 0x30, 0x00, 0x07, 0x30,
	0x38, 0x01, 0x29, 0x00, 0x00, 0x2D, 0x00, 0x00, 0x35, 0x00, 0x00, 0x41,
	0x00, 0x00, 0x4D, 0x00, 0x04, 0x35, 0x32, 0x00, 0x29, 0x36, 0x00, 0x41,
	0x33, 0x00, 0x4D, 0x3B, 0x01, 0x2D, 0x34, 0x29, 0xB0, 0x40, 0x00, 0x07,
	0x90, 0x2B, 0x00, 0x00, 0x48, 0x00, 0x17, 0x37, 0x00, 0x10, 0x4F, 0x00,
	0x6B, 0x2D, 0x00, 0x00, 0x30, 0x00, 0x00, 0x41, 0x00, 0x00, 0x4D, 0x00,
	0x08, 0x35, 0x00, 0x02, 0x2D, 0x33, 0x00, 0x30, 0x33, 0x02, 0x4D, 0x3D,
	0x00, 0x41, 0x3B, 0x03, 0x35, 0x36, 0x18, 0xB0, 0x40, 0x7F, 0x81, 0x29,
	0x90, 0x30, 0x00, 0x00, 0x34, 0x00, 0x05, 0x30, 0x3D, 0x02, 0x24, 0x00,
	0x00, 0x2D, 0x00, 0x03, 0x4F, 0x3D, 0x01, 0x34, 0x36, 0x00, 0x43, 0x46,
	0x05, 0x2D, 0x38, 0x81, 0x47, 0x29, 0x00, 0x00, 0x2D, 0x00, 0x00, 0x30,
	0x00, 0x00, 0x43, 0x00, 0x00, 0x4F, 0x00, 0x05, 0x4F, 0x3C, 0x00, 0x30,
	0x37, 0x02, 0x43, 0x3E, 0x00, 0x29, 0x3A, 0x03, 0x2D, 0x3C, 0x05, 0x51,
	0x00, 0x36, 0xB0, 0x40, 0x00, 0x81, 0x0A, 0x90, 0x30, 0x00, 0x08, 0x2D,
	0x00, 0x00, 0x41, 0x00, 0x00, 0x4D, 0x00, 0x03, 0x30, 0x31, 0x01, 0x4D,
	0x38, 0x00, 0x41, 0x35, 0x03, 0x28, 0x00, 0x00, 0x35, 0x00, 0x01, 0x2D,
	0x34, 0x05, 0x35, 0x31, 0x81, 0x3A, 0x30, 0x00, 0x00, 0x35, 0x00, 0x06,
	0x35, 0x3B, 0x02, 0x29, 0x00, 0x02, 0x30, 0x3C, 0x01, 0x48, 0x50, 0x01,
	0x29, 0x38, 0x81, 0x44, 0x34, 0x00, 0x08, 0x30, 0x00, 0x03, 0x34, 0x40,
	0x03, 0x4C, 0x34, 0x04, 0x30, 0x2E, 0x81, 0x45, 0x30, 0x00, 0x00, 0x34,
	0x00, 0x04, 0x30, 0x36, 0x02, 0x2B, 0x36, 0x04, 0x28, 0x36, 0x01, 0x34,
	0x36, 0x00, 0x37, 0x38, 0x42, 0x39, 0x00, 0x64, 0x41, 0x00, 0x00, 0x43,
	0x00, 0x00, 0x45, 0x00, 0x00, 0x4D, 0x00, 0x1E, 0x2D, 0x00, 0x00, 0x34,
	0x00, 0x08, 0x30, 0x00, 0x00, 0x48, 0x00, 0x03, 0x2D, 0x34, 0x00, 0x34,
	0x3D, 0x01, 0x48, 0x4B, 0x04, 0x30, 0x2B, 0x6B, 0x2B, 0x00, 0x55, 0x2D,
	0x00, 0x07, 0x30, 0x00, 0x00, 0x48, 0x00, 0x03, 0x2D, 0x31, 0x01, 0x30,
	0x27, 0x00, 0x48, 0x4C, 0x81, 0x4C, 0x2D, 0x00, 0x00, 0x34, 0x00, 0x07,
	0x28, 0x00, 0x03, 0x2D, 0x3A, 0x01, 0x34, 0x3D, 0x00, 0x4A, 0x49, 0x23,
	0x4C, 0x00, 0x7B, 0x29, 0x00, 0x26, 0x30, 0x00, 0x00, 0x4A, 0x00, 0x00,
	0x4F, 0x00, 0x06, 0x2B, 0x3E, 0x02, 0x2D, 0x00, 0x02, 0x4A, 0x44, 0x01,
	0x30, 0x37, 0x02, 0x2D, 0x39, 0x4F, 0x48, 0x00, 0x17, 0x2B, 0x00, 0x00,
	0x2D, 0x00, 0x00, 0x35, 0x00, 0x00, 0x37, 0x00, 0x64, 0x30, 0x00, 0x03,
	0x35, 0x37, 0x01, 0x48, 0x48, 0x00, 0x2D, 0x33, 0x02, 0x30, 0x2D, 0x4F,
	0x34, 0x00, 0x07, 0x35, 0x00, 0x77, 0x4D, 0x4F, 0x02, 0x26, 0x42, 0x05,
	0x35, 0x3B, 0x81, 0x45, 0x2D, 0x00, 0x0A, 0x2D, 0x3E, 0x81, 0x45, 0x35,
	0x00, 0x08, 0x32, 0x38, 0x00, 0x2D, 0x00, 0x04, 0x35, 0x3A, 0x02, 0x2D,
	0x35, 0x81, 0x41, 0x2D, 0x00, 0x00, 0x35, 0x00, 0x00, 0x4D, 0x00, 0x0A,
	0x4D, 0x46, 0x01, 0x2D, 0x34, 0x01, 0x35, 0x34, 0x81, 0x44, 0x35, 0x00,
	0x00, 0x4D, 0x00, 0x0B, 0x4D, 0x4A, 0x00, 0x35, 0x33, 0x81, 0x4C, 0x2D,
	0x00, 0x08, 0x26, 0x00, 0x02, 0x4C, 0x47, 0x01, 0x2D, 0x37, 0x01, 0x26,
	0x34, 0x03, 0xB0, 0x40, 0x7F, 0x27, 0x40, 0x00, 0x81, 0x19, 0x90, 0x32,
	0x00, 0x00, 0x35, 0x00, 0x00, 0x4A, 0x00, 0x08, 0x2D, 0x00, 0x03, 0x4A,
	0x41, 0x00, 0x32, 0x34, 0x00, 0x35, 0x3B, 0x02, 0x2D, 0x35, 0x1C, 0x48,
	0x00, 0x02, 0x4C, 0x00, 0x0B, 0x30, 0x00, 0x08, 0x4D, 0x00, 0x81, 0x19,
	0x2D, 0x00, 0x00, 0x35, 0x00, 0x04, 0x4C, 0x42, 0x02, 0x2D, 0x30, 0x04,
	0x35, 0x32, 0x81, 0x46, 0x2D, 0x00, 0x0B, 0x2D, 0x3C, 0x00, 0x48, 0x50,
	0x81, 0x4C, 0x2D, 0x00, 0x03, 0x34, 0x3F, 0x07, 0x2D, 0x33, 0x71, 0xB0,
	0x40, 0x7F, 0x4C, 0x90, 0x30, 0x30, 0x00, 0x2D, 0x00, 0x04, 0x29, 0x38,
	0x03, 0x2D, 0x3A, 0x01, 0x29, 0x00, 0x03, 0x3C, 0x34, 0x0C, 0xB0, 0x40,
	0x00, 0x74, 0x90, 0x4A, 0x00, 0x0F, 0xB0, 0x40, 0x7F, 0x26, 0x40, 0x00,
	0x10, 0x90, 0x34, 0x00, 0x00, 0x48, 0x00, 0x07, 0x2D, 0x00, 0x04, 0x48,
	0x48, 0x00, 0x34, 0x3C, 0x02, 0x2D, 0x34, 0x02, 0x30, 0x00, 0x04, 0x30,
	0x27, 0x81, 0x44, 0x48, 0x00, 0x07, 0x2D, 0x00, 0x04, 0x48, 0x4C, 0x02,
	0x2D, 0x33, 0x81, 0x23, 0xB0, 0x40, 0x7F, 0x1F, 0x90, 0x2D, 0x00, 0x00,
	0x34, 0x00, 0x0B, 0x34, 0x3B, 0x00, 0x45, 0x49, 0x00, 0x2D, 0x33, 0x81,
	0x2D, 0x26, 0x00, 0x17, 0x2D, 0x00, 0x00, 0x30, 0x00, 0x00, 0x35, 0x00,
	0x08, 0x45, 0x00, 0x01, 0x29, 0x3B, 0x00, 0x30, 0x3C, 0x02, 0x2D, 0x3F,
	0x01, 0x35, 0x3A, 0x00, 0x51, 0x3F, 0x02, 0x45, 0x43, 0x3F, 0xB0, 0x40,
	0x00, 0x73, 0x40, 0x7F, 0x10, 0x90, 0x21, 0x37, 0x07, 0x43, 0x42, 0x01,
	0x21, 0x00, 0x17, 0xB0, 0x40, 0x00, 0x54, 0x40, 0x7F, 0x6C, 0x90, 0x35,
	0x00, 0x02, 0x4D, 0x46, 0x00, 0x2E, 0x42, 0x01, 0x41, 0x44, 0x02, 0x35,
	0x35, 0x02, 0xB0, 0x40, 0x00, 0x81, 0x40, 0x90, 0x2E, 0x00, 0x00, 0x32,
	0x00, 0x0A, 0x32, 0x3C, 0x02, 0x2E, 0x34, 0x81, 0x44, 0x2E, 0x00, 0x00,
	0x35, 0x00, 0x04, 0x2E, 0x38, 0x06, 0x35, 0x39, 0x81, 0x4D, 0x2E, 0x00,
	0x00, 0x32, 0x00, 0x04, 0x32, 0x33, 0x02, 0x2E, 0x33, 0x01, 0x35, 0x00,
	0x00, 0x41, 0x00, 0x00, 0x4D, 0x00, 0x04, 0x41, 0x36, 0x01, 0x35, 0x32,
	0x00, 0x4D, 0x3C, 0x81, 0x43, 0x2E, 0x00, 0x00, 0x32, 0x00, 0x00, 0x35,
	0x00, 0x00, 0x41, 0x00, 0x00, 0xB0, 0x40, 0x7F, 0x08, 0x90, 0x4D, 0x00,
	0x02, 0x2E, 0x30, 0x01, 0x32, 0x31, 0x00, 0x41, 0x3D, 0x00, 0x35, 0x35,
	0x01, 0x4D, 0x3A, 0x60, 0xB0, 0x40, 0x00, 0x54, 0x40, 0x7F, 0x0F, 0x90,
	0x2E, 0x00, 0x00, 0x32, 0x00, 0x00, 0x43, 0x00, 0x08, 0x4F, 0x3D, 0x00,
	0x43, 0x47, 0x02, 0x2E, 0x37, 0x00, 0x32, 0x3A, 0x81, 0x46, 0x29, 0x00,
	0x00, 0x2E, 0x00, 0x00, 0x43, 0x00, 0x00, 0x4F, 0x00, 0x06, 0x29, 0x39,
	0x00, 0x2E, 0x3D, 0x00, 0x43, 0x41, 0x01, 0x35, 0x00, 0x03, 0x4F, 0x3E,
	0x03, 0x35, 0x3B, 0x7D, 0xB0, 0x40, 0x00, 0x45, 0x90, 0x34, 0x00, 0x08,
	0x4D, 0x00, 0x07, 0x2E, 0x00, 0x00, 0x35, 0x00, 0x00, 0x41, 0x00, 0x04,
	0x4D, 0x3B, 0x01, 0x41, 0x34, 0x01, 0x35, 0x30, 0x00, 0x2E, 0x30, 0x81,
	0x42, 0x29, 0x00, 0x00, 0x45, 0x00, 0x00, 0x51, 0x00, 0x08, 0x35, 0x00,
	0x03, 0x51, 0x42, 0x00, 0x29, 0x3E, 0x01, 0x45, 0x4C, 0x01, 0x35, 0x30,
	0x81, 0x42, 0x30, 0x00, 0x00, 0x35, 0x00, 0x00, 0x48, 0x00, 0x08, 0x29,
	0x00, 0x02, 0x35, 0x36, 0x01, 0x48, 0x50, 0x00, 0x30, 0x3C, 0x03, 0x29,
	0x37, 0x81, 0x42, 0x29, 0x00, 0x00, 0x2D, 0x00, 0x00, 0x35, 0x00, 0x00,
	0x48, 0x00, 0x04, 0x2D, 0x3C, 0x02, 0x35, 0x3E, 0x02, 0x30, 0x00, 0x00,
	0x39, 0x3F, 0x03, 0x48, 0x4A, 0x00, 0x29, 0x3A, 0x01, 0x30, 0x36, 0x03,
	0x39, 0x00, 0x81, 0x48, 0x29, 0x00, 0x00, 0x30, 0x00, 0x00, 0x45, 0x00,
	0x08, 0x2D, 0x00, 0x00, 0x51, 0x00, 0x01, 0x30, 0x3D, 0x02, 0x45, 0x47,
	0x00, 0x29, 0x39, 0x07, 0x2D, 0x37, 0x00, 0x51, 0x3D, 0x81, 0x45, 0x29,
	0x00, 0x00, 0x35, 0x00, 0x00, 0x41, 0x00, 0x00, 0x4D, 0x00, 0x04, 0x41,
	0x3E, 0x01, 0x4D, 0x3E, 0x05, 0x35, 0x35, 0x01, 0x29, 0x35, 0x81, 0x07,
	0xB0, 0x40, 0x7F, 0x36, 0x90, 0x30, 0x00, 0x07, 0x2D, 0x00, 0x00, 0x4C,
	0x00, 0x01, 0x30, 0x3D, 0x03, 0x2D, 0x32, 0x81, 0x4C, 0x29, 0x00, 0x00,
	0x2D, 0x00, 0x00, 0x30, 0x00, 0x00, 0x35, 0x00, 0x00, 0x41, 0x00, 0x00,
	0x4D, 0x00, 0x08, 0x39, 0x3C, 0x00, 0x35, 0x3A, 0x01, 0x30, 0x34, 0x01,
	0x2D, 0x3A, 0x00, 0x4D, 0x3D, 0x01, 0x29, 0x35, 0x00, 0x41, 0x3C, 0x04,
	0xB0, 0x40, 0x00, 0x81, 0x40, 0x90, 0x30, 0x00, 0x00, 0x4D, 0x00, 0x08,
	0x41, 0x00, 0x02, 0x4D, 0x3A, 0x00, 0x30, 0x33, 0x02, 0x41, 0x36, 0x60,
	0x3C, 0x00, 0x00, 0x43, 0x00, 0x00, 0x4F, 0x00, 0x63, 0x2E, 0x00, 0x0B,
	0x43, 0x4D, 0x01, 0x2E, 0x3E, 0x00, 0x4F, 0x42, 0x81, 0x25, 0xB0, 0x40,
	0x7F, 0x1F, 0x90, 0x2E, 0x00, 0x00, 0x32, 0x00, 0x00, 0x43, 0x00, 0x00,
	0x4F, 0x00, 0x0A, 0x4F, 0x41, 0x00, 0x32, 0x3F, 0x01, 0x43, 0x4D, 0x00,
	0x2E, 0x39, 0x60, 0x43, 0x00, 0x00, 0x4F, 0x00, 0x0B, 0x43, 0x4C, 0x00,
	0x4F, 0x40, 0x42, 0xB0, 0x40, 0x00, 0x17, 0x90, 0x2E, 0x00, 0x08, 0x32,
	0x00, 0x00, 0x35, 0x00, 0x02, 0x2E, 0x3B, 0x04, 0x32, 0x30, 0x00, 0x35,
	0x39, 0x06, 0x52, 0x39, 0x03, 0x4D, 0x00, 0x04, 0x46, 0x36, 0x02, 0x4D,
	0x34, 0x02, 0x52, 0x00, 0x81, 0x38, 0x29, 0x00, 0x00, 0x32, 0x00, 0x04,
	0x32, 0x34, 0x04, 0x41, 0x00, 0x00, 0x4D, 0x00, 0x01, 0x29, 0x34, 0x03,
	0x41, 0x35, 0x03, 0x2D, 0x00, 0x01, 0x4D, 0x3E, 0x81, 0x3F, 0x32, 0x00,
	0x08, 0x41, 0x00, 0x00, 0x4D, 0x00, 0x02, 0x32, 0x31, 0x03, 0x4D, 0x39,
	0x01, 0x41, 0x39, 0x81, 0x42, 0x2E, 0x00, 0x00, 0x32, 0x00, 0x09, 0x4A,
	0x3D, 0x01, 0x32, 0x3C, 0x00, 0x3E, 0x45, 0x01, 0x2E, 0x36, 0x81, 0x4C,
	0x2E, 0x00, 0x00, 0x45, 0x00, 0x08, 0x29, 0x00, 0x00, 0x35, 0x00, 0x00,
	0x51, 0x00, 0x01, 0x2E, 0x3A, 0x01, 0x45, 0x44, 0x02, 0x29, 0x37, 0x01,
	0x51, 0x3F, 0x00, 0x35, 0x38, 0x0A, 0x4D, 0x00, 0x05, 0x4D, 0x2E, 0x81,
	0x33, 0x35, 0x00, 0x00, 0x45, 0x00, 0x08, 0x29, 0x00, 0x00, 0x51, 0x00,
	0x02, 0x35, 0x31, 0x02, 0x45, 0x44, 0x01, 0x51, 0x3C, 0x00, 0x29, 0x32,
	0x81, 0x43, 0x30, 0x00, 0x09, 0x30, 0x40, 0x34, 0xB0, 0x40, 0x7F, 0x81,
	0x1A, 0x90, 0x43, 0x00, 0x00, 0x4F, 0x00, 0x07, 0x30, 0x00, 0x03, 0x4F,
	0x46, 0x01, 0x43, 0x4B, 0x00, 0x34, 0x3F, 0x00, 0x37, 0x42, 0x06, 0x30,
	0x3B, 0x81, 0x08, 0xB0, 0x40, 0x00, 0x36, 0x90, 0x30, 0x00, 0x00, 0x34,
	0x00, 0x00, 0x37, 0x00, 0x09, 0x30, 0x38, 0x01, 0x34, 0x3E, 0x01, 0x37,
	0x3C, 0x01, 0x24, 0x38, 0x01, 0x32, 0x00, 0x19, 0xB0, 0x40, 0x7F, 0x81,
	0x29, 0x90, 0x30, 0x00, 0x08, 0x24, 0x00, 0x00, 0x41, 0x00, 0x00, 0x4D,
	0x00, 0x04, 0x30, 0x34, 0x00, 0x24, 0x38, 0x01, 0x4D, 0x3D, 0x03, 0x34,
	0x00, 0x01, 0x41, 0x39, 0x05, 0x34, 0x38, 0x81, 0x3A, 0x34, 0x00, 0x00,
	0x35, 0x00, 0x00, 0x4D, 0x00, 0x07, 0x30, 0x00, 0x00, 0x41, 0x00, 0x01,
	0x3E, 0x00, 0x01, 0x34, 0x3D, 0x01, 0x4D, 0x3F, 0x01, 0x35, 0x3C, 0x00,
	0x2E, 0x00, 0x00, 0x30, 0x3A, 0x02, 0x41, 0x3D, 0x21, 0xB0, 0x40, 0x00,
	0x07, 0x90, 0x4A, 0x00, 0x27, 0x46, 0x00, 0x4D, 0xB0, 0x40, 0x7F, 0x2E,
	0x90, 0x43, 0x00, 0x00, 0x4F, 0x00, 0x07, 0x30, 0x00, 0x00, 0x37, 0x00,
	0x04, 0x4F, 0x40, 0x00, 0x43, 0x46, 0x00, 0x2B, 0x32, 0x01, 0x30, 0x2E,
	0x05, 0x37, 0x3E, 0x81, 0x36, 0x30, 0x00, 0x08, 0x2B, 0x00, 0x00, 0x39,
	0x00, 0x00, 0x4F, 0x00, 0x04, 0x30, 0x3B, 0x04, 0x4F, 0x42, 0x00, 0x34,
	0x00, 0x00, 0x37, 0x00, 0x00, 0x43, 0x00, 0x02, 0x2B, 0x39, 0x01, 0x28,
	0x3B, 0x01, 0x37, 0x3E, 0x01, 0x43, 0x40, 0x05, 0x34, 0x3C, 0x0D, 0x48,
	0x00, 0x0F, 0xB0, 0x40, 0x00, 0x08, 0x90, 0x51, 0x00, 0x26, 0x28, 0x00,
	0x27, 0x45, 0x00, 0x1E, 0xB0, 0x40, 0x7F, 0x2E, 0x90, 0x29, 0x00, 0x00,
	0x2B, 0x00, 0x00, 0x30, 0x00, 0x00, 0x41, 0x00, 0x04, 0x2B, 0x3A, 0x04,
	0x34, 0x00, 0x00, 0x4D, 0x00, 0x01, 0x30, 0x39, 0x02, 0x2D, 0x37, 0x00,
	0x29, 0x3A, 0x01, 0x41, 0x3E, 0x01, 0x34, 0x3A, 0x00, 0x4D, 0x3B, 0x03,
	0x35, 0x00, 0x04, 0x35, 0x36, 0x67, 0x2D, 0x00, 0x5D, 0x29, 0x00, 0x00,
	0x35, 0x00, 0x07, 0xB0, 0x40, 0x00, 0x02, 0x90, 0x35, 0x35, 0x01, 0x51,
	0x45, 0x00, 0x45, 0x4E, 0x01, 0x29, 0x3F, 0x01, 0x2D, 0x37, 0x05, 0x39,
	0x39, 0x2A, 0x4D, 0x00, 0x01, 0x37, 0x00, 0x01, 0x24, 0x00, 0x00, 0x34,
	0x00, 0x03, 0x43, 0x00, 0x05, 0x4F, 0x00, 0x07, 0x2B, 0x00, 0x10, 0x2D,
	0x00, 0x1E, 0x51, 0x00, 0x55, 0x30, 0x00, 0x08, 0x30, 0x3F, 0x81, 0x47,
	0x35, 0x00, 0x00, 0x39, 0x00, 0x05, 0x39, 0x38, 0x03, 0x35, 0x3A, 0x00,
	0x29, 0x00, 0x00, 0x30, 0x00, 0x04, 0x30, 0x2F, 0x02, 0x29, 0x33, 0x03,
	0x2D, 0x33, 0x81, 0x3F, 0x30, 0x00, 0x06, 0x30, 0x38, 0x01, 0x2D, 0x00,
	0x00, 0x35, 0x00, 0x00, 0x41, 0x00, 0x05, 0x41, 0x35, 0x00, 0x35, 0x30,
	0x01, 0x4D, 0x3D, 0x03, 0x2D, 0x34, 0x81, 0x47, 0x2D, 0x00, 0x00, 0x30,
	0x00, 0x07, 0x35, 0x00, 0x00, 0x41, 0x00, 0x00, 0x4D, 0x00, 0x03, 0x2D,
	0x35, 0x00, 0x30, 0x32, 0x01, 0x4D, 0x3C, 0x00, 0x35, 0x35, 0x00, 0x41,
	0x3B, 0x81, 0x2D, 0xB0, 0x40, 0x7F, 0x17, 0x90, 0x30, 0x00, 0x09, 0x4F,
	0x3D, 0x01, 0x43, 0x47, 0x00, 0x30, 0x3E, 0x81, 0x45, 0x29, 0x00, 0x00,
	0x2D, 0x00, 0x00, 0x35, 0x00, 0x00, 0x43, 0x00, 0x05, 0x35, 0x3D, 0x02,
	0x2D, 0x3E, 0x01, 0x29, 0x3B, 0x00, 0x43, 0x41, 0x17, 0xB0, 0x40, 0x00,
	0x16, 0x90, 0x39, 0x00, 0x04, 0x45, 0x00, 0x14, 0x4D, 0x00, 0x08, 0x4F,
	0x00, 0x0F, 0x41, 0x00, 0x6C, 0x2D, 0x00, 0x00, 0x30, 0x00, 0x07, 0x35,
	0x00, 0x02, 0x30, 0x2F, 0x00, 0x2D, 0x35, 0x03, 0x41, 0x37, 0x01, 0x4D,
	0x39, 0x05, 0x35, 0x34, 0x81, 0x45, 0x30, 0x00, 0x00, 0x35, 0x00, 0x07,
	0x29, 0x00, 0x02, 0x35, 0x3A, 0x01, 0x30, 0x3E, 0x01, 0x48, 0x51, 0x01,
	0x29, 0x37, 0x81, 0x4E, 0x34, 0x41, 0x0C, 0x30, 0x00, 0x06, 0x30, 0x29,
	0x81, 0x32, 0x30, 0x00, 0x07, 0x30, 0x38, 0x01, 0x34, 0x00, 0x04, 0x34,
	0x37, 0x00, 0x37, 0x3C, 0x13, 0x4D, 0x00, 0x03, 0x41, 0x00, 0x0D, 0x2D,
	0x00, 0x0F, 0x43, 0x00, 0x81, 0x1A, 0x34, 0x00, 0x07, 0x30, 0x00, 0x00,
	0x48, 0x00, 0x02, 0x2D, 0x31, 0x00, 0x34, 0x3B, 0x02, 0x30, 0x2A, 0x01,
	0x48, 0x4A, 0x81, 0x43, 0x2D, 0x00, 0x00, 0x34, 0x00, 0x08, 0x30, 0x00,
	0x00, 0x48, 0x00, 0x02, 0x2D, 0x31, 0x01, 0x34, 0x39, 0x01, 0x48, 0x4C,
	0x00, 0x30, 0x2B, 0x81, 0x43, 0x2D, 0x00, 0x00, 0x34, 0x00, 0x00, 0xB0,
	0x40, 0x7F, 0x06, 0x90, 0x2D, 0x38, 0x02, 0x30, 0x00, 0x03, 0x34, 0x3D,
	0x00, 0x4A, 0x48, 0x04, 0x30, 0x32, 0x81, 0x41, 0x4A, 0x00, 0x04, 0x24,
	0x3A, 0x03, 0x37, 0x00, 0x02, 0x2B, 0x3D, 0x02, 0x4A, 0x44, 0x03, 0x37,
	0x3D, 0x2E, 0x30, 0x00, 0x01, 0x29, 0x00, 0x0F, 0x48, 0x00, 0x10, 0xB0,
	0x40, 0x00, 0x07, 0x90, 0x35, 0x00, 0x17, 0x2B, 0x00, 0x27, 0x2D, 0x00,
	0x1F, 0xB0, 0x40, 0x7F, 0x21, 0x90, 0x35, 0x33, 0x00, 0x2D, 0x32, 0x01,
	0x48, 0x46, 0x04, 0x35, 0x00, 0x00, 0x30, 0x2B, 0x08, 0xB0, 0x40, 0x00,
	0x07, 0x90, 0x24, 0x00, 0x00, 0x37, 0x00, 0x81, 0x3C, 0x4D, 0x4E, 0x01,
	0x26, 0x40, 0x01, 0x35, 0x38, 0x81, 0x42, 0x2D, 0x00, 0x0B, 0x2D, 0x39,
	0x81, 0x45, 0x2D, 0x00, 0x00, 0x35, 0x00, 0x05, 0x32, 0x35, 0x03, 0x35,
	0x3C, 0x03, 0x2D, 0x35, 0x81, 0x4C, 0x2D, 0x00, 0x00, 0x35, 0x00, 0x00,
	0x4D, 0x00, 0x06, 0x35, 0x33, 0x01, 0x32, 0x00, 0x02, 0x2D, 0x33, 0x01,
	0x4D, 0x45, 0x02, 0x32, 0x2C, 0x81, 0x43, 0x4D, 0x00, 0x0B, 0x4D, 0x49,
	0x81, 0x26, 0xB0, 0x40, 0x7F, 0x1E, 0x90, 0x26, 0x00, 0x00, 0x2D, 0x00,
	0x07, 0x2D, 0x39, 0x01, 0x26, 0x35, 0x03, 0x4C, 0x47, 0x24, 0xB0, 0x40,
	0x00, 0x63, 0x40, 0x7F, 0x46, 0x90, 0x2D, 0x00, 0x00, 0x32, 0x00, 0x00,
	0x35, 0x00, 0x00, 0x4A, 0x00, 0x08, 0x35, 0x3A, 0x00, 0x4A, 0x41, 0x01,
	0x32, 0x33, 0x01, 0x2D, 0x36, 0x14, 0xB0, 0x40, 0x00, 0x36, 0x90, 0x48,
	0x00, 0x00, 0x4D, 0x00, 0x3D, 0x26, 0x00, 0x08, 0xB0, 0x40, 0x7F, 0x36,
	0x90, 0x4C, 0x00, 0x0B, 0x4C, 0x42, 0x81, 0x44, 0x2D, 0x00, 0x09, 0x2D,
	0x3B, 0x02, 0x48, 0x4F, 0x14, 0xB0, 0x40, 0x00, 0x81, 0x31, 0x90, 0x34,
	0x00, 0x07, 0x2D, 0x00, 0x03, 0x34, 0x3E, 0x03, 0x2D, 0x34, 0x81, 0x42,
	0x30, 0x00, 0x00, 0xB0, 0x40, 0x7F, 0x08, 0x90, 0x2D, 0x00, 0x03, 0x30,
	0x31, 0x02, 0x2D, 0x3C, 0x06, 0x39, 0x3B, 0x04, 0x39, 0x00, 0x08, 0xB0,
	0x40, 0x00, 0x54, 0x40, 0x7F, 0x64, 0x90, 0x2D, 0x00, 0x00, 0x34, 0x00,
	0x00, 0x48, 0x00, 0x09, 0x34, 0x3C, 0x01, 0x48, 0x4A, 0x01, 0x2D, 0x35,
	0x81, 0x44, 0x48, 0x00, 0x08, 0x2D, 0x00, 0x00, 0x35, 0x00, 0x03, 0x48,
	0x4C, 0x01, 0x2D, 0x32, 0x03, 0x35, 0x36, 0x81, 0x41, 0x2D, 0x00, 0x00,
	0x34, 0x00, 0x07, 0x4C, 0x00, 0x03, 0x45, 0x47, 0x01, 0x2D, 0x34, 0x00,
	0x34, 0x3C, 0x01, 0x4C, 0x36, 0x81, 0x4B, 0x2D, 0x00, 0x00, 0x30, 0x00,
	0x00, 0x35, 0x00, 0x00, 0x45, 0x00, 0x06, 0x30, 0x39, 0x02, 0x35, 0x38,
	0x02, 0x51, 0x39, 0x00, 0x2D, 0x3E, 0x01, 0x3C, 0x39, 0x00, 0x45, 0x43,
	0x04, 0x51, 0x00, 0x81, 0x40, 0x2D, 0x00, 0x04, 0x21, 0x35, 0x03, 0x43,
	0x41, 0x00, 0x2D, 0x31, 0x08, 0x21, 0x00, 0x81, 0x48, 0x35, 0x00, 0x02,
	0x4D, 0x45, 0x01, 0x2E, 0x41, 0x00, 0x41, 0x44, 0x03, 0x35, 0x31, 0x0A,
	0xB0, 0x40, 0x00, 0x81, 0x40, 0x90, 0x32, 0x00, 0x07, 0x32, 0x3E, 0x02,
	0x39, 0x33, 0x01, 0x3E, 0x37, 0x05, 0x39, 0x00, 0x00, 0x3E, 0x00, 0x1F,
	0xB0, 0x40, 0x7F, 0x81, 0x1E, 0x90, 0x3A, 0x38, 0x03, 0x2E, 0x00, 0x00,
	0x35, 0x00, 0x04, 0x2E, 0x3B, 0x07, 0x35, 0x3A, 0x81, 0x3D, 0x32, 0x00,
	0x07, 0x35, 0x00, 0x00, 0x41, 0x00, 0x04, 0x32, 0x34, 0x04, 0x4A, 0x00,
	0x00, 0x4D, 0x00, 0x00, 0x35, 0x32, 0x04, 0x41, 0x37, 0x01, 0x4D, 0x3C,
	0x12, 0xB0, 0x40, 0x00, 0x54, 0x40, 0x7F, 0x5D, 0x90, 0x2E, 0x00, 0x00,
	0x32, 0x00, 0x00, 0x41, 0x00, 0x06, 0x2E, 0x2F, 0x01, 0x35, 0x00, 0x00,
	0x4D, 0x00, 0x01, 0x32, 0x32, 0x03, 0x41, 0x3C, 0x00, 0x4D, 0x3A, 0x02,
	0x35, 0x33, 0x81, 0x4A, 0x2E, 0x00, 0x00, 0x32, 0x00, 0x00, 0x35, 0x00,
	0x00, 0x43, 0x00, 0x08, 0x4F, 0x3D, 0x00, 0x43, 0x46, 0x00, 0x32, 0x38,
	0x00, 0x35, 0x34, 0x03, 0x2E, 0x34, 0x81, 0x44, 0x2E, 0x00, 0x00, 0x43,
	0x00, 0x00, 0x4F, 0x00, 0x05, 0x29, 0x3B, 0x01, 0x2E, 0x3E, 0x00, 0x43,
	0x41, 0x02, 0x35, 0x00, 0x02, 0x4F, 0x3D, 0x03, 0x35, 0x39, 0x5F, 0x34,
	0x00, 0x00, 0x4C, 0x00, 0x63, 0x32, 0x00, 0x08, 0x35, 0x00, 0x00, 0x41,
	0x00, 0x00, 0x4D, 0x00, 0x03, 0x32, 0x2C, 0x02, 0x41, 0x34, 0x01, 0x4D,
	0x38, 0x03, 0x35, 0x31, 0x81, 0x3F, 0x45, 0x00, 0x07, 0x29, 0x00, 0x00,
	0x35, 0x00, 0x04, 0x51, 0x42, 0x00, 0x45, 0x4C, 0x02, 0x35, 0x32, 0x00,
	0x29, 0x3E, 0x81, 0x0C, 0xB0, 0x40, 0x00, 0x3E, 0x90, 0x30, 0x00, 0x00,
	0x35, 0x00, 0x00, 0x48, 0x00, 0x0A, 0x30, 0x3D, 0x01, 0x48, 0x51, 0x00,
	0x35, 0x37, 0x81, 0x44, 0x2D, 0x00, 0x00, 0x35, 0x00, 0x06, 0x2D, 0x3E,
	0x02, 0x29, 0x00, 0x00, 0x30, 0x00, 0x00, 0x48, 0x00, 0x03, 0x39, 0x41,
	0x00, 0x35, 0x3E, 0x02, 0x29, 0x3B, 0x00, 0x48, 0x48, 0x01, 0x54, 0x40,
	0x02, 0x30, 0x38, 0x07, 0x54, 0x00, 0x81, 0x31, 0xB0, 0x40, 0x7F, 0x07,
	0x90, 0x29, 0x00, 0x00, 0x2D, 0x00, 0x00, 0x30, 0x00, 0x00, 0x45, 0x00,
	0x00, 0x51, 0x00, 0x05, 0x30, 0x3C, 0x04, 0x51, 0x3C, 0x01, 0x29, 0x38,
	0x01, 0x45, 0x43, 0x01, 0x2D, 0x38, 0x1B, 0xB0, 0x40, 0x00, 0x54, 0x40,
	0x7F, 0x64, 0x90, 0x35, 0x00, 0x00, 0x41, 0x00, 0x00, 0x4D, 0x00, 0x06,
	0x4D, 0x3F, 0x00, 0x41, 0x3E, 0x02, 0x29, 0x00, 0x00, 0xB0, 0x40, 0x00,
	0x03, 0x90, 0x35, 0x36, 0x04, 0x29, 0x34, 0x81, 0x22, 0xB0, 0x40, 0x7F,
	0x17, 0x90, 0x30, 0x00, 0x00, 0x3C, 0x00, 0x0A, 0x30, 0x3D, 0x01, 0x3C,
	0x32, 0x81, 0x44, 0x29, 0x00, 0x00, 0x30, 0x00, 0x00, 0x35, 0x00, 0x00,
	0x39, 0x00, 0x00, 0x4D, 0x00, 0x08, 0x2D, 0x00, 0x00, 0x41, 0x00, 0x02,
	0x35, 0x3F, 0x01, 0x30, 0x33, 0x00, 0x39, 0x3C, 0x00, 0x4D, 0x3E, 0x01,
	0x29, 0x37, 0x00, 0x2D, 0x37, 0x00, 0x41, 0x39, 0x32, 0xB0, 0x40, 0x00,
	0x81, 0x12, 0x90, 0x30, 0x00, 0x07, 0x41, 0x00, 0x00, 0x4D, 0x00, 0x03,
	0x30, 0x2D, 0x01, 0x4D, 0x38, 0x01, 0x41, 0x37, 0x81, 0x4B, 0x43, 0x00,
	0x00, 0x4F, 0x00, 0x07, 0x2E, 0x00, 0x04, 0x43, 0x4F, 0x00, 0x4F, 0x42,
	0x01, 0x2E, 0x3E, 0x81, 0x43, 0x32, 0x00, 0x00, 0x43, 0x00, 0x00, 0x4F,
	0x00, 0x0B, 0x4F, 0x43, 0x00, 0x43, 0x4D, 0x00, 0x32, 0x3F, 0x08, 0x51,
	0x00, 0x59, 0x43, 0x00, 0x00, 0x4F, 0x00, 0x0A, 0x4F, 0x41, 0x00, 0x43,
	0x4D, 0x59, 0x2E, 0x00, 0x00, 0x35, 0x00, 0x05, 0x2E, 0x3A, 0x06, 0x35,
	0x38, 0x81, 0x45, 0x32, 0x00, 0x07, 0x41, 0x00, 0x00, 0x4D, 0x00, 0x04,
	0x32, 0x35, 0x02, 0x4D, 0x40, 0x01, 0x41, 0x3A, 0x81, 0x50, 0x32, 0x00,
	0x00, 0x41, 0x00, 0x00, 0x4D, 0x00, 0x04, 0x4D, 0x3C, 0x01, 0x32, 0x2C,
	0x00, 0x41, 0x3F, 0x03, 0x35, 0x00, 0x04, 0x35, 0x2E, 0x81, 0x3C, 0x2E,
	0x00, 0x00, 0x32, 0x00, 0x06, 0x32, 0x3B, 0x02, 0x2E, 0x34, 0x02, 0x4A,
	0x3E, 0x00, 0x3E, 0x48, 0x81, 0x45, 0x45, 0x00, 0x08, 0x29, 0x00, 0x00,
	0x2E, 0x00, 0x00, 0x35, 0x00, 0x01, 0x45, 0x46, 0x04, 0x2E, 0x39, 0x00,
	0x29, 0x35, 0x02, 0x35, 0x38, 0x00, 0x51, 0x3E, 0x81, 0x49, 0x4D, 0x00,
	0x07, 0x45, 0x00, 0x00, 0x51, 0x00, 0x04, 0x4D, 0x3A, 0x01, 0x45, 0x42,
	0x00, 0x51, 0x39, 0x81, 0x43, 0x30, 0x00, 0x00, 0x3A, 0x00, 0x0A, 0x30,
	0x41, 0x81, 0x27, 0x48, 0x00, 0x1E, 0x43, 0x00, 0x00, 0x4F, 0x00, 0x0A,
	0x34, 0x3F, 0x01, 0x43, 0x4C, 0x00, 0x4F, 0x44, 0x03, 0x40, 0x38, 0x81,
	0x42, 0x30, 0x00, 0x00, 0x3C, 0x00, 0x08, 0x3C, 0x32, 0x01, 0x37, 0x3A,
	0x01, 0x30, 0x39, 0x81, 0x4D, 0x30, 0x00, 0x00, 0x34, 0x00, 0x00, 0x3C,
	0x00, 0x09, 0x3C, 0x3C, 0x01, 0x34, 0x3C, 0x00, 0x30, 0x30, 0x81, 0x45,
	0x45, 0x00, 0x00, 0x51, 0x00, 0x0A, 0x45, 0x49, 0x01, 0x51, 0x3D, 0x01,
	0x4C, 0x33, 0x81, 0x3C, 0x2D, 0x00, 0x07, 0x34, 0x00, 0x08, 0x30, 0x00,
	0x02, 0x46, 0x48, 0x00, 0x34, 0x3E, 0x01, 0x52, 0x42, 0x03, 0x30, 0x31,
	0x19, 0x40, 0x00, 0x45, 0x46, 0x00, 0x00, 0x52, 0x00, 0x0B, 0x52, 0x40,
	0x00, 0x46, 0x43, 0x59, 0x30, 0x00, 0x00, 0x37, 0x00, 0x07, 0xB0, 0x40,
	0x7F, 0x03, 0x90, 0x30, 0x35, 0x01, 0x37, 0x3D, 0x1B, 0xB0, 0x40, 0x00,
	0x81, 0x31, 0x90, 0x30, 0x00, 0x00, 0x45, 0x00, 0x00, 0x4C, 0x00, 0x00,
	0x51, 0x00, 0x08, 0x30, 0x2D, 0x00, 0x51, 0x38, 0x01, 0x4C, 0x32, 0x02,
	0x45, 0x42, 0x81, 0x44, 0x29, 0x00, 0x00, 0x43, 0x00, 0x00, 0x4F, 0x00,
	0x03, 0x54, 0x47, 0x02, 0x43, 0x4B, 0x03, 0x35, 0x00, 0x00, 0x4D, 0x00,
	0x00, 0x54, 0x00, 0x00, 0x29, 0x43, 0x02, 0x4F, 0x42, 0x03, 0x4D, 0x48,
	0x03, 0x35, 0x3A, 0x81, 0x3F, 0x29, 0x00, 0x00, 0x30, 0x00, 0x00, 0x41,
	0x00, 0x00, 0x4D, 0x00, 0x08, 0x30, 0x43, 0x00, 0x35, 0x00, 0x02, 0x4D,
	0x45, 0x01, 0x41, 0x40, 0x01, 0x29, 0x3B, 0x02, 0x35, 0x38, 0x81, 0x4A,
	0x29, 0x00, 0x00, 0x30, 0x00, 0x00, 0x35, 0x00, 0x00, 0x39, 0x00, 0x00,
	0x43, 0x00, 0x00, 0x4F, 0x00, 0x05, 0x4F, 0x3C, 0x01, 0x29, 0x39, 0x00,
	0x35, 0x3F, 0x02, 0x43, 0x41, 0x01, 0x30, 0x39, 0x01, 0x2D, 0x3E, 0x00,
	0x39, 0x40, 0x81, 0x45, 0x29, 0x00, 0x00, 0x30, 0x00, 0x00, 0x45, 0x00,
	0x00, 0x51, 0x00, 0x06, 0x30, 0x3D, 0x02, 0x4C, 0x00, 0x00, 0x29, 0x3A,
	0x02, 0x45, 0x43, 0x01, 0x51, 0x3C, 0x02, 0x4C, 0x37, 0x83, 0x12, 0x30,
	0x00, 0x00, 0x46, 0x00, 0x00, 0x52, 0x00, 0x06, 0x30, 0x3D, 0x04, 0x52,
	0x42, 0x01, 0x46, 0x46, 0x81, 0x4C, 0x30, 0x00, 0x00, 0x35, 0x00, 0x00,
	0x39, 0x00, 0x00, 0x51, 0x00, 0x04, 0x51, 0x30, 0x00, 0x39, 0x39, 0x00,
	0x35, 0x3A, 0x03, 0x4C, 0x00, 0x03, 0x30, 0x33, 0x03, 0x4C, 0x2F, 0x83,
	0x11, 0x30, 0x00, 0x08, 0x3C, 0x00, 0x02, 0x30, 0x3D, 0x01, 0x48, 0x50,
	0x01, 0x54, 0x49, 0x00, 0x3C, 0x39, 0x81, 0x44, 0x34, 0x00, 0x07, 0x4C,
	0x00, 0x04, 0x34, 0x40, 0x04, 0x4C, 0x33, 0x01, 0x40, 0x33, 0x81, 0x47,
	0x30, 0x00, 0x00, 0x46, 0x00, 0x00, 0x52, 0x00, 0x00, 0xB0, 0x40, 0x7F,
	0x07, 0x90, 0x34, 0x00, 0x00, 0x37, 0x00, 0x00, 0x3C, 0x00, 0x00, 0x4F,
	0x00, 0x01, 0x30, 0x37, 0x02, 0x2B, 0x38, 0x00, 0x46, 0x43, 0x01, 0x52,
	0x3D, 0x01, 0x37, 0x3A, 0x02, 0x4F, 0x33, 0x00, 0x34, 0x37, 0x00, 0x3C,
	0x34, 0x65, 0xB0, 0x40, 0x00, 0x5C, 0x90, 0x34, 0x00, 0x00, 0x46, 0x00,
	0x00, 0x52, 0x00, 0x08, 0x32, 0x00, 0x00, 0x3E, 0x00, 0x00, 0x40, 0x00,
	0x00, 0x4A, 0x00, 0x02, 0x46, 0x41, 0x00, 0x52, 0x3B, 0x01, 0x34, 0x3A,
	0x02, 0x40, 0x36, 0x1A, 0x2B, 0x00, 0x00, 0x2D, 0x00, 0x00, 0x2E, 0x00,
	0x00, 0x43, 0x00, 0x00, 0x4C, 0x00, 0x00, 0x4D, 0x00, 0x00, 0x4F, 0x00,
	0x00, 0x54, 0x00, 0x00, 0xB0, 0x40, 0x7F, 0x45, 0x90, 0x41, 0x00, 0x07,
	0x51, 0x00, 0x81, 0x31, 0xB0, 0x40, 0x00, 0x64, 0x40, 0x7F, 0x1F, 0x90,
	0x34, 0x00, 0x07, 0xB0, 0x40, 0x00, 0x03, 0x90, 0x34, 0x3D, 0x00, 0x4F,
	0x40, 0x01, 0x43, 0x48, 0x81, 0x44, 0x30, 0x00, 0x00, 0x37, 0x00, 0x06,
	0x37, 0x3C, 0x02, 0x3C, 0x00, 0x01, 0x30, 0x34, 0x03, 0x3C, 0x31, 0x04,
	0x2D, 0x33, 0x0F, 0x35, 0x00, 0x35, 0x39, 0x00, 0x6C, 0x29, 0x00, 0x81,
	0x4F, 0x40, 0x00, 0x1A, 0x4D, 0x44, 0x00, 0x41, 0x43, 0x02, 0x26, 0x42,
	0x06, 0x35, 0x38, 0x81, 0x35, 0x45, 0x00, 0x10, 0x2D, 0x00, 0x06, 0x2D,
	0x3D, 0x81, 0x49, 0x2D, 0x00, 0x00, 0x35, 0x00, 0x00, 0x43, 0x00, 0x00,
	0x4F, 0x00, 0x07, 0x43, 0x42, 0x03, 0x35, 0x3D, 0x00, 0x2D, 0x3A, 0x01,
	0x32, 0x39, 0x00, 0x4F, 0x3B, 0x81, 0x44, 0x2D, 0x00, 0x00, 0x35, 0x00,
	0x08, 0x2D, 0x34, 0x02, 0x45, 0x44, 0x01, 0x35, 0x34, 0x01, 0x29, 0x2F,
	0x00, 0x51, 0x39, 0x83, 0x1B, 0x2D, 0x00, 0x00, 0x4D, 0x00, 0x0B, 0x4D,
	0x4A, 0x00, 0x2D, 0x39, 0x81, 0x2D, 0x48, 0x00, 0x17, 0x29, 0x00, 0x00,
	0x2D, 0x00, 0x00, 0x32, 0x00, 0x00, 0x35, 0x00, 0x06, 0x32, 0x32, 0x02,
	0x35, 0x38, 0x01, 0x29, 0x32, 0x01, 0x2D, 0x31, 0x3B, 0x51, 0x00, 0x45,
	0x52, 0x00, 0x82, 0x05, 0x46, 0x00, 0x18, 0x2D, 0x00, 0x06, 0x58, 0x41,
	0x04, 0x2D, 0x3C, 0x01, 0x4C, 0x4C, 0x04, 0x58, 0x00, 0x3D, 0x37, 0x00,
	0x17, 0x41, 0x00, 0x55, 0x30, 0x00, 0x17, 0x34, 0x00, 0x08, 0x2D, 0x00,
	0x00, 0x43, 0x00, 0x01, 0x34, 0x3D, 0x04, 0x2D, 0x32, 0x81, 0x05, 0x4F,
	0x00, 0x3D, 0x29, 0x00, 0x00, 0x2D, 0x00, 0x00, 0x4D, 0x00, 0x04, 0x30,
	0x35, 0x01, 0x29, 0x3C, 0x01, 0x2D, 0x3B, 0x04, 0x4D, 0x49, 0x81, 0x00,
	0x45, 0x00, 0x18, 0x26, 0x00, 0x2E, 0x34, 0x00, 0x00, 0x4C, 0x00, 0x09,
	0x4C, 0x43, 0x02, 0x34, 0x3C, 0x01, 0x40, 0x35, 0x83, 0x1A, 0x34, 0x00,
	0x0B, 0x34, 0x3D, 0x00, 0x48, 0x4C, 0x61, 0xB0, 0x40, 0x7F, 0x63, 0x90,
	0x2D, 0x00, 0x00, 0x30, 0x00, 0x00, 0x3C, 0x00, 0x04, 0x30, 0x34, 0x01,
	0x39, 0x3A, 0x03, 0x32, 0x00, 0x00, 0x2D, 0x3A, 0x00, 0x3C, 0x33, 0x17,
	0x29, 0x00, 0x00, 0x40, 0x00, 0x08, 0xB0, 0x40, 0x00, 0x54, 0x40, 0x7F,
	0x82, 0x2C, 0x90, 0x35, 0x00, 0x09, 0x56, 0x44, 0x01, 0x4A, 0x4D, 0x00,
	0x35, 0x37, 0x01, 0x2E, 0x42, 0x01, 0x32, 0x2D, 0x0B, 0x32, 0x00, 0x36,
	0xB0, 0x40, 0x00, 0x54, 0x40, 0x7F, 0x2E, 0x90, 0x2E, 0x00, 0x08, 0x32,
	0x3C, 0x02, 0x2E, 0x35, 0x81, 0x45, 0x2E, 0x00, 0x00, 0x32, 0x00, 0x00,
	0x35, 0x00, 0x00, 0x48, 0x00, 0x05, 0x2E, 0x3D, 0x05, 0x48, 0x49, 0x01,
	0x54, 0x40, 0x00, 0x32, 0x36, 0x00, 0x35, 0x3C, 0x81, 0x4D, 0x2D, 0x00,
	0x00, 0x2E, 0x00, 0x00, 0x32, 0x00, 0x00, 0x35, 0x00, 0x00, 0x48, 0x00,
	0x05, 0x32, 0x31, 0x04, 0x48, 0x46, 0x00, 0x2E, 0x33, 0x01, 0x35, 0x35,
	0x00, 0x2D, 0x32, 0x83, 0x14, 0x2E, 0x00, 0x00, 0x32, 0x00, 0x00, 0x35,
	0x00, 0x04, 0x35, 0x2D, 0x01, 0x32, 0x36, 0x00, 0x2E, 0x30, 0x04, 0x45,
	0x45, 0x01, 0x51, 0x3D, 0x5A, 0x3C, 0x00, 0x6C, 0x2E, 0x00, 0x00, 0x35,
	0x00, 0x03, 0x3A, 0x38, 0x02, 0x2E, 0x38, 0x02, 0x32, 0x00, 0x03, 0x35,
	0x39, 0x02, 0x32, 0x2D, 0x83, 0x0B, 0x34, 0x00, 0x0F, 0x35, 0x00, 0x00,
	0x48, 0x00, 0x00, 0x54, 0x00, 0x0B, 0x48, 0x4F, 0x00, 0x54, 0x48, 0x00,
	0x29, 0x3D, 0x00, 0x35, 0x36, 0x23, 0x30, 0x00, 0x0F, 0xB0, 0x40, 0x00,
	0x81, 0x18, 0x90, 0x30, 0x3C, 0x21, 0xB0, 0x40, 0x7F, 0x81, 0x29, 0x90,
	0x29, 0x00, 0x00, 0x35, 0x00, 0x00, 0x45, 0x00, 0x00, 0x51, 0x00, 0x07,
	0x30, 0x00, 0x00, 0x39, 0x00, 0x01, 0x35, 0x3A, 0x01, 0x45, 0x41, 0x01,
	0x51, 0x3B, 0x00, 0x29, 0x37, 0x01, 0x39, 0x3F, 0x04, 0x30, 0x33, 0x26,
	0xB0, 0x40, 0x00, 0x81, 0x22, 0x90, 0x29, 0x00, 0x00, 0x2E, 0x00, 0x00,
	0x30, 0x00, 0x05, 0x30, 0x3A, 0x03, 0x2E, 0x36, 0x02, 0x43, 0x41, 0x00,
	0x29, 0x34, 0x02, 0x4F, 0x38, 0x02, 0x37, 0x36, 0x5D, 0xB0, 0x40, 0x7F,
	0x82, 0x33, 0x90, 0x30, 0x00, 0x00, 0x4D, 0x00, 0x08, 0x30, 0x3A, 0x00,
	0x35, 0x00, 0x04, 0x4D, 0x42, 0x01, 0x41, 0x3A, 0x05, 0x35, 0x30, 0x2C,
	0xB0, 0x40, 0x00, 0x81, 0x12, 0x90, 0x39, 0x00, 0x08, 0x29, 0x00, 0x00,
	0x2D, 0x00, 0x00, 0x30, 0x00, 0x00, 0x35, 0x00, 0x00, 0x45, 0x00, 0x02,
	0x39, 0x39, 0x02, 0x35, 0x38, 0x02, 0x29, 0x2F, 0x01, 0x2D, 0x35, 0x01,
	0x45, 0x33, 0x02, 0x30, 0x30, 0x81, 0x00, 0xB0, 0x40, 0x7F, 0x81, 0x76,
	0x90, 0x32, 0x00, 0x00, 0x3A, 0x00, 0x00, 0x4A, 0x00, 0x00, 0x4C, 0x00,
	0x00, 0x54, 0x00, 0x00, 0x56, 0x00, 0x1E, 0x2E, 0x00, 0x0A, 0x2E, 0x3D,
	0x01, 0x40, 0x46, 0x06, 0x4C, 0x44, 0x0E, 0xB0, 0x40, 0x00, 0x81, 0x31,
	0x90, 0x2E, 0x00, 0x00, 0x4D, 0x00, 0x06, 0x32, 0x3B, 0x01, 0x41, 0x00,
	0x02, 0x2E, 0x38, 0x01, 0x4D, 0x46, 0x01, 0x41, 0x43, 0x1B, 0x51, 0x00,
	0x81, 0x31, 0x2E, 0x00, 0x00, 0x35, 0x00, 0x00, 0x48, 0x00, 0x04, 0x35,
	0x3D, 0x01, 0x2E, 0x3B, 0x02, 0x32, 0x00, 0x04, 0x48, 0x47, 0x01, 0x32,
	0x34, 0x81, 0x43, 0x32, 0x00, 0x00, 0x40, 0x00, 0x04, 0x32, 0x33, 0x04,
	0x4C, 0x00, 0x02, 0x40, 0x3D, 0x04, 0x4C, 0x3A, 0x81, 0x41, 0x32, 0x00,
	0x08, 0x41, 0x00, 0x00, 0x4D, 0x00, 0x00, 0xB0, 0x40, 0x7F, 0x03, 0x90,
	0x32, 0x30, 0x02, 0x41, 0x3D, 0x01, 0x4D, 0x3B, 0x81, 0x42, 0x2E, 0x00,
	0x00, 0x32, 0x00, 0x00, 0x48, 0x00, 0x07, 0x32, 0x39, 0x03, 0x2E, 0x36,
	0x01, 0x48, 0x49, 0x1B, 0xB0, 0x40, 0x00, 0x5C, 0x40, 0x7F, 0x55, 0x90,
	0x2E, 0x00, 0x00, 0x40, 0x00, 0x05, 0xB0, 0x40, 0x00, 0x01, 0x90, 0x2E,
	0x3C, 0x01, 0x35, 0x00, 0x00, 0x4C, 0x00, 0x02, 0x40, 0x3F, 0x03, 0x35,
	0x38, 0x05, 0x4C, 0x3B, 0x62, 0xB0, 0x40, 0x7F, 0x54, 0x40, 0x00, 0x08,
	0x90, 0x2D, 0x00, 0x08, 0x48, 0x00, 0x01, 0x2B, 0x31, 0x03, 0x2D, 0x2F,
	0x00, 0x48, 0x44, 0x03, 0x2B, 0x00, 0x08, 0x30, 0x00, 0x06, 0x30, 0x21,
	0x3F, 0xB0, 0x40, 0x7F, 0x73, 0x90, 0x30, 0x00, 0x00, 0x40, 0x00, 0x07,
	0x30, 0x44, 0x01, 0x4C, 0x00, 0x02, 0x58, 0x40, 0x00, 0x40, 0x46, 0x03,
	0x4C, 0x42, 0x02, 0x34, 0x36, 0x01, 0x58, 0x00, 0x64, 0x41, 0x00, 0x00,
	0x4D, 0x00, 0x04, 0x54, 0x41, 0x01, 0x41, 0x47, 0x01, 0x4D, 0x43, 0x09,
	0x54, 0x00, 0x08, 0x35, 0x00, 0x04, 0x35, 0x35, 0x49, 0x34, 0x00, 0x00,
	0x48, 0x00, 0x0A, 0x48, 0x4F, 0x00, 0x34, 0x43, 0x02, 0x54, 0x48, 0x57,
	0x40, 0x00, 0x08, 0x4C, 0x00, 0x04, 0x40, 0x4A, 0x00, 0x58, 0x41, 0x04,
	0x4C, 0x43, 0x07, 0x58, 0x00, 0x55, 0x30, 0x00, 0x00, 0x41, 0x00, 0x08,
	0x37, 0x00, 0x02, 0x41, 0x3B, 0x01, 0x30, 0x39, 0x03, 0x37, 0x3F, 0x01,
	0x4C, 0x00, 0x00, 0x4D, 0x00, 0x04, 0x4D, 0x3B, 0x07, 0x4C, 0x3C, 0x05,
	0x54, 0x00, 0x45, 0x48, 0x00, 0x0B, 0x48, 0x49, 0x02, 0x54, 0x3C, 0x02,
	0x30, 0x00, 0x05, 0x30, 0x2C, 0x5F, 0x34, 0x00, 0x00, 0x40, 0x00, 0x00,
	0x4C, 0x00, 0x00, 0x54, 0x00, 0x04, 0x40, 0x42, 0x01, 0x34, 0x3E, 0x03,
	0x48, 0x00, 0x01, 0x54, 0x3C, 0x01, 0x4C, 0x37, 0x03, 0x48, 0x3A, 0x5E,
	0x41, 0x00, 0x00, 0x4D, 0x00, 0x06, 0x41, 0x39, 0x02, 0x35, 0x00, 0x03,
	0x4D, 0x39, 0x02, 0x35, 0x38, 0x50, 0x48, 0x00, 0x07, 0x54, 0x00, 0x04,
	0x48, 0x49, 0x05, 0x54, 0x3E, 0x5B, 0x40, 0x00, 0x08, 0x30, 0x00, 0x00,
	0x34, 0x00, 0x00, 0x4C, 0x00, 0x00, 0x54, 0x00, 0x03, 0x40, 0x42, 0x03,
	0x58, 0x3A, 0x00, 0x54, 0x39, 0x01, 0x48, 0x00, 0x01, 0x34, 0x3B, 0x00,
	0x30, 0x32, 0x03, 0x4C, 0x3B, 0x04, 0x58, 0x00, 0x01, 0x48, 0x38, 0x5B,
	0x34, 0x00, 0x00, 0x35, 0x00, 0x00, 0x41, 0x00, 0x00, 0x4D, 0x00, 0x00,
	0x54, 0x00, 0x04, 0x54, 0x40, 0x01, 0x34, 0x3D, 0x02, 0x41, 0x3F, 0x03,
	0x4D, 0x3F, 0x02, 0x35, 0x3C, 0x58, 0x34, 0x00, 0x00, 0x48, 0x00, 0x00,
	0x54, 0x00, 0x04, 0x48, 0x4C, 0x02, 0x54, 0x43, 0x00, 0x34, 0x3F, 0x35,
	0xB0, 0x40, 0x00, 0x0A, 0x40, 0x7F, 0x1F, 0x90, 0x30, 0x00, 0x08, 0x34,
	0x00, 0x00, 0x37, 0x00, 0x00, 0x48, 0x00, 0x00, 0x54, 0x00, 0x02, 0x30,
	0x39, 0x02, 0x37, 0x3E, 0x01, 0x2B, 0x38, 0x01, 0x54, 0x40, 0x01, 0x34,
	0x39, 0x02, 0x48, 0x46, 0x06, 0x2B, 0x00, 0x32, 0x4D, 0x00, 0x00, 0x2D,
	0x00, 0x00, 0x35, 0x00, 0x01, 0x41, 0x00, 0x00, 0x40, 0x00, 0x03, 0x32,
	0x00, 0x00, 0x45, 0x00, 0x00, 0x4F, 0x00, 0x00, 0xB0, 0x40, 0x00, 0x07,
	0x90, 0x29, 0x00, 0x00, 0x39, 0x00, 0x08, 0x2E, 0x00, 0x00, 0x43, 0x00,
	0x10, 0x54, 0x00, 0x82, 0x3F, 0x29, 0x3F, 0x05, 0x51, 0x30, 0x06, 0x51,
	0x00, 0x81, 0x40, 0x30, 0x00, 0x09, 0x30, 0x40, 0x81, 0x37, 0xB0, 0x40,
	0x7F, 0x0F, 0x90, 0x30, 0x00, 0x08, 0x48, 0x00, 0x02, 0x39, 0x3C, 0x00,
	0x41, 0x3C, 0x01, 0x30, 0x33, 0x00, 0x35, 0x39, 0x01, 0x4D, 0x3E, 0x02,
	0x48, 0x3A, 0x11, 0x4C, 0x00, 0x07, 0x4C, 0x2A, 0x81, 0x29, 0x30, 0x00,
	0x00, 0x35, 0x00, 0x05, 0x30, 0x39, 0x03, 0x41, 0x00, 0x00, 0x4C, 0x00,
	0x00, 0x4D, 0x00, 0x03, 0x35, 0x34, 0x01, 0x41, 0x35, 0x00, 0x4D, 0x3B,
	0x07, 0x4C, 0x39, 0x0C, 0xB0, 0x40, 0x00, 0x81, 0x39, 0x90, 0x30, 0x00,
	0x00, 0x34, 0x00, 0x00, 0x41, 0x00, 0x07, 0x35, 0x00, 0x00, 0x4D, 0x00,
	0x03, 0x30, 0x33, 0x01, 0x41, 0x3E, 0x00, 0x4D, 0x3F, 0x04, 0x35, 0x36,
	0x81, 0x40, 0x29, 0x00, 0x00, 0x30, 0x00, 0x00, 0x35, 0x00, 0x00, 0x48,
	0x00, 0x06, 0x35, 0x39, 0x04, 0x30, 0x3B, 0x00, 0x29, 0x39, 0x01, 0x48,
	0x4F, 0x81, 0x44, 0x29, 0x00, 0x00, 0x30, 0x00, 0x00, 0x35, 0x00, 0x00,
	0x48, 0x00, 0x05, 0x2D, 0x40, 0x01, 0x35, 0x40, 0x04, 0x30, 0x36, 0x01,
	0x29, 0x3B, 0x01, 0x48, 0x49, 0x49, 0x39, 0x00, 0x7B, 0x30, 0x00, 0x00,
	0xB0, 0x40, 0x7F, 0x09, 0x90, 0x4F, 0x3D, 0x00, 0x43, 0x44, 0x02, 0x30,
	0x30, 0x0C, 0xB0, 0x40, 0x00, 0x54, 0x40, 0x7F, 0x17, 0x90, 0x4D, 0x00,
	0x55, 0x30, 0x00, 0x09, 0x30, 0x43, 0x81, 0x46, 0x43, 0x00, 0x00, 0x4F,
	0x00, 0x08, 0x30, 0x00, 0x03, 0x4F, 0x46, 0x00, 0x43, 0x4F, 0x00, 0x34,
	0x43, 0x03, 0x30, 0x2F, 0x81, 0x41, 0x30, 0x00, 0x00, 0x34, 0x00, 0x00,
	0x43, 0x00, 0x00, 0x4F, 0x00, 0x07, 0x34, 0x3C, 0x01, 0x28, 0x3B, 0x00,
	0x37, 0x00, 0x01, 0x30, 0x40, 0x00, 0x4F, 0x3C, 0x03, 0x43, 0x43, 0x01,
	0x37, 0x44, 0x12, 0x2D, 0x00, 0x04, 0x48, 0x00, 0x02, 0x35, 0x00, 0x19,
	0x41, 0x00, 0x07, 0x4C, 0x00, 0x81, 0x0B, 0x34, 0x00, 0x00, 0x43, 0x00,
	0x00, 0x4F, 0x00, 0x07, 0x30, 0x00, 0x01, 0x4F, 0x40, 0x02, 0x43, 0x45,
	0x01, 0x34, 0x3E, 0x01, 0x4C, 0x37, 0x05, 0x30, 0x31, 0x01, 0x2D, 0x35,
	0x05, 0x2D, 0x00, 0x81, 0x40, 0x43, 0x00, 0x00, 0x4F, 0x00, 0x07, 0x30,
	0x00, 0x00, 0x34, 0x00, 0x03, 0x43, 0x47, 0x01, 0x4F, 0x40, 0x00, 0x2D,
	0x34, 0x00, 0x30, 0x2F, 0x01, 0x34, 0x39, 0x81, 0x43, 0x30, 0x00, 0x08,
	0x2D, 0x00, 0x00, 0x34, 0x00, 0x02, 0x30, 0x32, 0x02, 0x34, 0x3D, 0x00,
	0x2D, 0x31, 0x00, 0x4D, 0x41, 0x03, 0x41, 0x43, 0x81, 0x40, 0x30, 0x00,
	0x08, 0x28, 0x00, 0x00, 0x34, 0x00, 0x00, 0x4C, 0x00, 0x01, 0x30, 0x3B,
	0x02, 0x2B, 0x3C, 0x01, 0x48, 0x3F, 0x01, 0x24, 0x38, 0x00, 0x40, 0x3E,
	0x05, 0x34, 0x38, 0x01, 0x4C, 0x3C, 0x23, 0xB0, 0x40, 0x00, 0x10, 0x90,
	0x2D, 0x00, 0x01, 0x4D, 0x00, 0x01, 0x4F, 0x00, 0x02, 0x43, 0x00, 0x03,
	0x29, 0x00, 0x1F, 0x41, 0x00, 0x17, 0x37, 0x00, 0x0F, 0xB0, 0x40, 0x7F,
	0x46, 0x90, 0x30, 0x00, 0x06, 0x30, 0x2F, 0x04, 0x2D, 0x32, 0x00, 0x4D,
	0x3E, 0x05, 0x41, 0x38, 0x81, 0x4B, 0x26, 0x44, 0x81, 0x44, 0x2D, 0x00,
	0x08, 0x41, 0x00, 0x00, 0x4D, 0x00, 0x01, 0x54, 0x43, 0x02, 0x2D, 0x3A,
	0x01, 0x4D, 0x45, 0x02, 0x41, 0x42, 0x02, 0x54, 0x00, 0x00, 0x35, 0x35,
	0x81, 0x40, 0x2D, 0x00, 0x00, 0x35, 0x00, 0x04, 0x32, 0x37, 0x03, 0x41,
	0x00, 0x00, 0x4D, 0x00, 0x01, 0x2D, 0x37, 0x01, 0x35, 0x3B, 0x02, 0x41,
	0x3C, 0x00, 0x4D, 0x3F, 0x81, 0x53, 0x2D, 0x00, 0x00, 0x35, 0x00, 0x00,
	0x41, 0x00, 0x00, 0x4D, 0x00, 0x05, 0x35, 0x2F, 0x01, 0x41, 0x36, 0x00,
	0x2D, 0x31, 0x00, 0x4D, 0x3A, 0x81, 0x42, 0x4D, 0x00, 0x04, 0x54, 0x3C,
	0x04, 0x2D, 0x00, 0x00, 0x35, 0x00, 0x00, 0x41, 0x00, 0x00, 0x54, 0x00,
	0x03, 0x4D, 0x3D, 0x01, 0x41, 0x3B, 0x03, 0x2D, 0x2C, 0x00, 0x35, 0x31,
	0x81, 0x40, 0x2D, 0x00, 0x00, 0x35, 0x00, 0x06, 0x2D, 0x38, 0x02, 0x32,
	0x00, 0x00, 0x41, 0x00, 0x00, 0x4D, 0x00, 0x03, 0x35, 0x33, 0x01, 0x4D,
	0x3D, 0x01, 0x41, 0x3B, 0x03, 0x32, 0x29, 0x81, 0x40, 0x32, 0x00, 0x00,
	0x41, 0x00, 0x04, 0x29, 0x39, 0x02, 0x32, 0x37, 0x01, 0x2D, 0x00, 0x00,
	0x35, 0x00, 0x00, 0x4D, 0x00, 0x04, 0x41, 0x3B, 0x01, 0x2D, 0x35, 0x00,
	0x35, 0x3C, 0x00, 0x4D, 0x3E, 0x12, 0x29, 0x00, 0x81, 0x3F, 0x54, 0x38,
	0x01, 0x41, 0x00, 0x00, 0x4D, 0x00, 0x04, 0x41, 0x35, 0x00, 0x4D, 0x37,
	0x04, 0x2D, 0x00, 0x00, 0x35, 0x00, 0x00, 0x54, 0x00, 0x04, 0x2D, 0x27,
	0x03, 0x35, 0x2E, 0x81, 0x22, 0x24, 0x00, 0x17, 0x2D, 0x00, 0x00, 0x4D,
	0x00, 0x08, 0x35, 0x00, 0x00, 0x41, 0x00, 0x02, 0x59, 0x3F, 0x00, 0x2D,
	0x3D, 0x00, 0x4D, 0x45, 0x01, 0x54, 0x41, 0x02, 0x41, 0x40, 0x01, 0x35,
	0x38, 0x01, 0x54, 0x00, 0x00, 0x59, 0x00, 0x81, 0x45, 0x59, 0x44, 0x03,
	0x34, 0x00, 0x00, 0x41, 0x00, 0x00, 0x4D, 0x00, 0x01, 0x54, 0x44, 0x05,
	0x4D, 0x42, 0x01, 0x41, 0x44, 0x01, 0x54, 0x00, 0x00, 0x59, 0x00, 0x02,
	0x34, 0x3D, 0x81, 0x46, 0x2B, 0x00, 0x00, 0x2D, 0x00, 0x05, 0x29, 0x3B,
	0x02, 0x2D, 0x3E, 0x00, 0x30, 0x00, 0x00, 0x48, 0x00, 0x01, 0x3C, 0x3C,
	0x03, 0x30, 0x33, 0x00, 0x48, 0x47, 0x03, 0x54, 0x41, 0x46, 0x40, 0x00,
	0x17, 0xB0, 0x40, 0x00, 0x36, 0x90, 0x54, 0x00, 0x1F, 0x26, 0x00, 0x00,
	0xB0, 0x40, 0x7F, 0x0F, 0x90, 0x34, 0x00, 0x07, 0x34, 0x3D, 0x81, 0x50,
	0x2D, 0x00, 0x00, 0x35, 0x00, 0x00, 0x41, 0x00, 0x00, 0x4D, 0x00, 0x02,
	0x59, 0x3B, 0x01, 0x54, 0x3F, 0x02, 0x2D, 0x30, 0x00, 0x41, 0x3D, 0x00,
	0x4D, 0x3E, 0x03, 0x59, 0x00, 0x02, 0x35, 0x37, 0x1C, 0x4C, 0x00, 0x81,
	0x22, 0x4D, 0x00, 0x00, 0x54, 0x00, 0x04, 0x54, 0x3E, 0x03, 0x2D, 0x00,
	0x00, 0x34, 0x00, 0x00, 0x35, 0x00, 0x00, 0x41, 0x00, 0x04, 0x4D, 0x3F,
	0x00, 0x41, 0x3F, 0x01, 0x34, 0x3E, 0x01, 0x35, 0x3B, 0x00, 0x2D, 0x33,
	0x81, 0x4A, 0x29, 0x00, 0x00, 0x2D, 0x00, 0x00, 0x35, 0x00, 0x07, 0x30,
	0x00, 0x00, 0x48, 0x00, 0x00, 0x54, 0x00, 0x01, 0x29, 0x3A, 0x00, 0x2D,
	0x3B, 0x01, 0x35, 0x3D, 0x03, 0x48, 0x47, 0x00, 0x30, 0x33, 0x06, 0x54,
	0x3C, 0x32, 0x41, 0x00, 0x02, 0x32, 0x00, 0x01, 0x4D, 0x00, 0x00, 0x54,
	0x00, 0x01, 0x3C, 0x00, 0x01, 0xB0, 0x40, 0x00, 0x22, 0x90, 0x29, 0x00,
	0x4D, 0xB0, 0x40, 0x7F, 0x81, 0x66, 0x90, 0x48, 0x00, 0x08, 0x35, 0x00,
	0x03, 0x48, 0x50, 0x01, 0x2E, 0x40, 0x00, 0x54, 0x46, 0x06, 0x35, 0x36,
	0x1C, 0x34, 0x00, 0x3E, 0x48, 0x00, 0x00, 0x54, 0x00, 0x0B, 0x48, 0x4E,
	0x00, 0x54, 0x46, 0x59, 0x35, 0x00, 0x00, 0x48, 0x00, 0x00, 0x54, 0x00,
	0x05, 0x32, 0x40, 0x02, 0x2E, 0x00, 0x02, 0x35, 0x3B, 0x01, 0x54, 0x47,
	0x01, 0x48, 0x4D, 0x00, 0x2E, 0x38, 0x0C, 0x54, 0x00, 0x54, 0x48, 0x00,
	0x0B, 0x48, 0x4E, 0x00, 0x54, 0x44, 0x61, 0x2E, 0x00, 0x00, 0x32, 0x00,
	0x00, 0x35, 0x00, 0x00, 0x48, 0x00, 0x00, 0x54, 0x00, 0x04, 0x2E, 0x3E,
	0x01, 0x54, 0x3D, 0x05, 0x35, 0x3D, 0x00, 0x48, 0x47, 0x01, 0x32, 0x36,
	0x1B, 0x54, 0x00, 0x81, 0x21, 0x32, 0x00, 0x08, 0x2E, 0x00, 0x00, 0x35,
	0x00, 0x00, 0x48, 0x00, 0x04, 0x32, 0x36, 0x00, 0x35, 0x38, 0x06, 0x54,
	0x3C, 0x00, 0x48, 0x49, 0x01, 0x2E, 0x34, 0x04, 0x54, 0x00, 0x64, 0x35,
	0x00, 0x00, 0x48, 0x00, 0x04, 0x48, 0x49, 0x01, 0x54, 0x3C, 0x06, 0x35,
	0x33, 0x05, 0x54, 0x00, 0x4C, 0x35, 0x00, 0x00, 0x48, 0x00, 0x08, 0x2E,
	0x00, 0x03, 0x35, 0x38, 0x01, 0x48, 0x4C, 0x01, 0x54, 0x3E, 0x02, 0x2E,
	0x31, 0x81, 0x49, 0x32, 0x00, 0x06, 0x32, 0x39, 0x01, 0x2E, 0x00, 0x00,
	0x35, 0x00, 0x04, 0x4D, 0x40, 0x00, 0x41, 0x3B, 0x01, 0x2E, 0x33, 0x01,
	0x4A, 0x39, 0x01, 0x35, 0x39, 0x01, 0x54, 0x00, 0x08, 0x4A, 0x00, 0x81,
	0x38, 0x2E, 0x00, 0x00, 0x35, 0x00, 0x05, 0x43, 0x42, 0x01, 0x2E, 0x3C,
	0x03, 0x4F, 0x3D, 0x02, 0x35, 0x3A, 0x04, 0x32, 0x00, 0x0A, 0x32, 0x2B,
	0x81, 0x27, 0x2D, 0x00, 0x08, 0x30, 0x00, 0x02, 0x2D, 0x32, 0x03, 0x30,
	0x2E, 0x02, 0x32, 0x00, 0x00, 0x41, 0x00, 0x04, 0x32, 0x2B, 0x04, 0x35,
	0x00, 0x00, 0x4D, 0x00, 0x04, 0x41, 0x32, 0x01, 0x4D, 0x39, 0x01, 0x35,
	0x33, 0x81, 0x3A, 0x48, 0x00, 0x08, 0x4D, 0x00, 0x03, 0x48, 0x3E, 0x04,
	0x35, 0x00, 0x00, 0x41, 0x00, 0x02, 0x4D, 0x44, 0x03, 0x41, 0x3F, 0x01,
	0x29, 0x3C, 0x03, 0x35, 0x39, 0x4C, 0x2D, 0x00, 0x7B, 0x30, 0x00, 0x00,
	0x4D, 0x00, 0x07, 0x35, 0x00, 0x00, 0x41, 0x00, 0x00, 0x30, 0x3B, 0x03,
	0x4D, 0x46, 0x02, 0x41, 0x3E, 0x06, 0x35, 0x35, 0x1C, 0x4F, 0x00, 0x81,
	0x21, 0x29, 0x00, 0x00, 0x35, 0x00, 0x06, 0x29, 0x37, 0x02, 0x41, 0x00,
	0x00, 0x48, 0x00, 0x00, 0x4D, 0x00, 0x00, 0x39, 0x3E, 0x02, 0x35, 0x3E,
	0x01, 0x2D, 0x39, 0x01, 0x4D, 0x3D, 0x01, 0x48, 0x35, 0x00, 0x41, 0x37,
	0x38, 0xB0, 0x40, 0x00, 0x73, 0x40, 0x7F, 0x17, 0x90, 0x30, 0x00, 0x00,
	0x48, 0x00, 0x07, 0x30, 0x31, 0x03, 0x48, 0x3D, 0x00, 0x3C, 0x40, 0x81,
	0x46, 0x30, 0x00, 0x00, 0x35, 0x00, 0x00, 0x3C, 0x00, 0x0A, 0x3C, 0x3E,
	0x00, 0x30, 0x2F, 0x01, 0x35, 0x33, 0x81, 0x25, 0x2D, 0x00, 0x27, 0x30,
	0x00, 0x00, 0x35, 0x00, 0x0A, 0x30, 0x3A, 0x00, 0x45, 0x47, 0x01, 0x35,
	0x2E, 0x00, 0x51, 0x3C, 0x81, 0x44, 0x35, 0x00, 0x00, 0x45, 0x00, 0x08,
	0x35, 0x3B, 0x00, 0x29, 0x00, 0x00, 0x51, 0x00, 0x03, 0x2D, 0x36, 0x00,
	0x45, 0x40, 0x01, 0x51, 0x37, 0x00, 0x29, 0x33, 0x03, 0x39, 0x00, 0x04,
	0x39, 0x3C, 0x83, 0x14, 0x2E, 0x00, 0x07, 0x2E, 0x39, 0x03, 0x52, 0x44,
	0x00, 0x46, 0x48, 0x81, 0x45, 0x2E, 0x00, 0x00, 0x32, 0x00, 0x00, 0x46,
	0x00, 0x08, 0x52, 0x00, 0x01, 0x46, 0x48, 0x01, 0x32, 0x38, 0x01, 0x2E,
	0x31, 0x01, 0x52, 0x41, 0x58, 0x46, 0x00, 0x00, 0x52, 0x00, 0x0A, 0x46,
	0x3F, 0x00, 0x52, 0x42, 0x61, 0x2E, 0x00, 0x00, 0x35, 0x00, 0x08, 0x32,
	0x00, 0x00, 0x35, 0x37, 0x00, 0x2E, 0x38, 0x05, 0x32, 0x2D, 0x81, 0x43,
	0x29, 0x00, 0x00, 0x2E, 0x00, 0x00, 0x32, 0x00, 0x00, 0x46, 0x00, 0x05,
	0x29, 0x31, 0x02, 0x52, 0x00, 0x01, 0x32, 0x35, 0x00, 0x2E, 0x2F, 0x03,
	0x46, 0x41, 0x01, 0x52, 0x3B, 0x81, 0x4B, 0x2E, 0x00, 0x00, 0x46, 0x00,
	0x00, 0x4D, 0x00, 0x00, 0x52, 0x00, 0x07, 0x32, 0x00, 0x01, 0x52, 0x3B,
	0x00, 0x2E, 0x29, 0x01, 0x4D, 0x38, 0x01, 0x46, 0x41, 0x02, 0x32, 0x29,
	0x81, 0x43, 0x2E, 0x00, 0x00, 0x32, 0x00, 0x00, 0x52, 0x00, 0x04, 0x2E,
	0x2C, 0x02, 0x32, 0x35, 0x02, 0x46, 0x00, 0x03, 0x52, 0x3F, 0x01, 0x46,
	0x43, 0x81, 0x43, 0x2E, 0x00, 0x00, 0x35, 0x00, 0x07, 0x35, 0x3B, 0x01,
	0x48, 0x00, 0x03, 0x2E, 0x3C, 0x02, 0x48, 0x46, 0x02, 0x54, 0x3E, 0x08,
	0x54, 0x00, 0x17, 0xB0, 0x40, 0x00, 0x64, 0x40, 0x7F, 0x3E, 0x90, 0x2E,
	0x00, 0x00, 0x43, 0x00, 0x04, 0x2E, 0x32, 0x06, 0x43, 0x41, 0x00, 0x4F,
	0x3A, 0x00, 0x37, 0x38, 0x0D, 0x2D, 0x00, 0x64, 0x4D, 0x00, 0x5C, 0x30,
	0x00, 0x06, 0x30, 0x41, 0x09, 0x51, 0x00, 0x81, 0x4B, 0x34, 0x40, 0x07,
	0x40, 0x32, 0x15, 0x29, 0x00, 0x00, 0x39, 0x00, 0x00, 0x3C, 0x00, 0x00,
	0x41, 0x00, 0x00, 0x45, 0x00, 0x45, 0x37, 0x00, 0x08, 0x37, 0x44, 0x5B,
	0x30, 0x00, 0x0C, 0x30, 0x38, 0x00, 0x3C, 0x35, 0x81, 0x4C, 0x2E, 0x00,
	0x00, 0x30, 0x00, 0x00, 0x40, 0x00, 0x04, 0x2E, 0x30, 0x01, 0x30, 0x32,
	0x02, 0x34, 0x00, 0x04, 0x40, 0x36, 0x04, 0x34, 0x35, 0x81, 0x40, 0x30,
	0x00, 0x00, 0x37, 0x00, 0x00, 0x3C, 0x00, 0x07, 0x3C, 0x39, 0x01, 0x2E,
	0x00, 0x00, 0x34, 0x00, 0x03, 0x37, 0x3D, 0x00, 0x30, 0x35, 0x01, 0x2E,
	0x33, 0x04, 0x24, 0x32, 0x02, 0x34, 0x35, 0x83, 0x0D, 0x34, 0x00, 0x07,
	0x40, 0x00, 0x04, 0x34, 0x3C, 0x02, 0x40, 0x2F, 0x04, 0x2B, 0x30, 0x81,
	0x46, 0x30, 0x00, 0x06, 0x30, 0x3D, 0x81, 0x51, 0x35, 0x00, 0x03, 0x29,
	0x42, 0x03, 0x35, 0x36, 0x20, 0xB0, 0x40, 0x00, 0x81, 0x21, 0x90, 0x30,
	0x00, 0x09, 0x30, 0x43, 0x81, 0x47, 0x29, 0x00, 0x00, 0x30, 0x00, 0x00,
	0x35, 0x00, 0x06, 0x35, 0x3A, 0x02, 0x29, 0x39, 0x01, 0x2D, 0x3B, 0x01,
	0x30, 0x37, 0x00, 0x39, 0x3F, 0x01, 0x41, 0x3E, 0x00, 0x4D, 0x3D, 0x04,
	0x2D, 0x00, 0x81, 0x48, 0x30, 0x00, 0x00, 0x41, 0x00, 0x07, 0x30, 0x39,
	0x00, 0x4D, 0x00, 0x04, 0x41, 0x3A, 0x01, 0x4D, 0x3C, 0x81, 0x43, 0x30,
	0x00, 0x08, 0x35, 0x00, 0x00, 0x41, 0x00, 0x00, 0x4D, 0x00, 0x01, 0x30,
	0x32, 0x03, 0x4D, 0x3C, 0x00, 0x41, 0x3C, 0x01, 0x35, 0x38, 0x38, 0x32,
	0x00, 0x81, 0x0A, 0x29, 0x00, 0x00, 0x30, 0x00, 0x00, 0x35, 0x00, 0x00,
	0x48, 0x00, 0x08, 0x3C, 0x00, 0x02, 0x30, 0x38, 0x01, 0x48, 0x4E, 0x01,
	0x29, 0x39, 0x00, 0x35, 0x38, 0x02, 0x3C, 0x3A, 0x81, 0x4A, 0x24, 0x00,
	0x00, 0x29, 0x00, 0x00, 0x30, 0x00, 0x00, 0x35, 0x00, 0x05, 0x2D, 0x3F,
	0x02, 0x48, 0x00, 0x00, 0x52, 0x00, 0x03, 0x30, 0x36, 0x00, 0x35, 0x40,
	0x00, 0x29, 0x3B, 0x01, 0x48, 0x47, 0x81, 0x44, 0x43, 0x00, 0x08, 0x30,
	0x00, 0x01, 0x43, 0x43, 0x04, 0x30, 0x33, 0x81, 0x42, 0x30, 0x00, 0x09,
	0x30, 0x43, 0x81, 0x37, 0x2E, 0x00, 0x08, 0x34, 0x00, 0x00, 0x43, 0x00,
	0x00, 0x4F, 0x00, 0x08, 0x30, 0x00, 0x01, 0x34, 0x41, 0x01, 0x43, 0x4C,
	0x01, 0x4F, 0x45, 0x01, 0x30, 0x32, 0x81, 0x53, 0x30, 0x00, 0x00, 0x37,
	0x00, 0x00, 0x4F, 0x00, 0x05, 0x30, 0x3C, 0x02, 0x43, 0x00, 0x02, 0x4F,
	0x3E, 0x02, 0x37, 0x40, 0x00, 0x43, 0x3F, 0x04, 0x3C, 0x00, 0x05, 0x48,
	0x00, 0x0A, 0x46, 0x00, 0x4D, 0x39, 0x00, 0x00, 0xB0, 0x40, 0x7F, 0x08,
	0x90, 0x2D, 0x00, 0x17, 0x4D, 0x00, 0x45, 0x30, 0x00, 0x00, 0x34, 0x00,
	0x00, 0x41, 0x00, 0x00, 0x43, 0x00, 0x00, 0x4F, 0x00, 0x06, 0x34, 0x3B,
	0x02, 0x2B, 0x00, 0x02, 0x43, 0x43, 0x01, 0x30, 0x32, 0x00, 0x4F, 0x3C,
	0x01, 0x2B, 0x2F, 0x50, 0x40, 0x00, 0x10, 0x29, 0x00, 0x00, 0x35, 0x00,
	0x63, 0x2B, 0x00, 0x00, 0x30, 0x00, 0x00, 0x43, 0x00, 0x00, 0x4F, 0x00,
	0x08, 0x35, 0x35, 0x00, 0x2D, 0x33, 0x00, 0x4F, 0x3F, 0x02, 0x43, 0x48,
	0x01, 0x30, 0x2B, 0x81, 0x45, 0x2D, 0x00, 0x00, 0x34, 0x00, 0x0A, 0x51,
	0x3F, 0x00, 0x34, 0x3E, 0x01, 0x45, 0x48, 0x00, 0x2D, 0x35, 0x01, 0x4C,
	0x35, 0x81, 0x43, 0x37, 0x00, 0x05, 0x2B, 0x37, 0x06, 0x37, 0x39, 0x02,
	0x29, 0x3A, 0x02, 0x2E, 0x36, 0x00, 0x2B, 0x00, 0x00, 0x30, 0x00, 0x02,
	0x52, 0x41, 0x00, 0x46, 0x46, 0x06, 0x2E, 0x00, 0x02, 0x30, 0x34, 0x01,
	0x4D, 0x38, 0x81, 0x3D, 0x2D, 0x00, 0x00, 0x45, 0x00, 0x08, 0x51, 0x00,
	0x03, 0x45, 0x46, 0x00, 0x2D, 0x2F, 0x03, 0x51, 0x37, 0x81, 0x4D, 0x26,
	0x44, 0x81, 0x4C, 0x2D, 0x00, 0x00, 0x45, 0x00, 0x00, 0x51, 0x00, 0x06,
	0x2D, 0x3E, 0x04, 0x45, 0x4D, 0x00, 0x51, 0x45, 0x81, 0x45, 0x45, 0x00,
	0x07, 0x32, 0x39, 0x01, 0x29, 0x00, 0x00, 0x2D, 0x00, 0x00, 0x35, 0x00,
	0x00, 0x51, 0x00, 0x02, 0x45, 0x42, 0x03, 0x29, 0x3A, 0x03, 0x35, 0x3D,
	0x03, 0x2D, 0x38, 0x00, 0x51, 0x3E, 0x0C, 0x4D, 0x00, 0x06, 0x4D, 0x2A,
	0x81, 0x2A, 0x2D, 0x00, 0x00, 0x35, 0x00, 0x00, 0x45, 0x00, 0x08, 0x29,
	0x00, 0x00, 0x51, 0x00, 0x01, 0x35, 0x37, 0x02, 0x2D, 0x36, 0x00, 0x45,
	0x41, 0x02, 0x51, 0x3B, 0x00, 0x29, 0x33, 0x81, 0x43, 0x45, 0x00, 0x00,
	0x51, 0x00, 0x0A, 0x51, 0x3C, 0x00, 0x45, 0x45, 0x81, 0x4D, 0x2D, 0x00,
	0x00, 0x43, 0x00, 0x00, 0x4F, 0x00, 0x05, 0x2D, 0x37, 0x02, 0x32, 0x00,
	0x02, 0x4F, 0x3F, 0x00, 0x43, 0x47, 0x07, 0x32, 0x29, 0x81, 0x3F, 0x29,
	0x00, 0x00, 0x32, 0x00, 0x00, 0x35, 0x00, 0x00, 0x4D, 0x00, 0x08, 0x2D,
	0x00, 0x00, 0x29, 0x39, 0x03, 0x32, 0x36, 0x00, 0x4D, 0x3E, 0x00, 0x41,
	0x3E, 0x00, 0x35, 0x3C, 0x01, 0x2D, 0x35, 0x81, 0x4B, 0x2D, 0x00, 0x00,
	0x35, 0x00, 0x00, 0x41, 0x00, 0x00, 0x4D, 0x00, 0x04, 0x4D, 0x3A, 0x02,
	0x41, 0x33, 0x01, 0x2D, 0x30, 0x03, 0x35, 0x30, 0x81, 0x36, 0x2D, 0x00,
	0x0B, 0x2D, 0x40, 0x04, 0x34, 0x00, 0x00, 0x4C, 0x00, 0x05, 0x40, 0x44,
	0x04, 0x4C, 0x44, 0x00, 0x34, 0x33, 0x81, 0x47, 0x34, 0x00, 0x00, 0x4C,
	0x00, 0x07, 0x40, 0x00, 0x03, 0x58, 0x45, 0x01, 0x4C, 0x4D, 0x00, 0x34,
	0x42, 0x03, 0x40, 0x42, 0x01, 0x58, 0x00, 0x81, 0x40, 0x2D, 0x00, 0x00,
	0x30, 0x00, 0x00, 0x34, 0x00, 0x05, 0x3C, 0x35, 0x02, 0x30, 0x39, 0x01,
	0x4C, 0x00, 0x02, 0x34, 0x38, 0x00, 0x2D, 0x3F, 0x03, 0x4C, 0x45, 0x0D,
	0x54, 0x36, 0x05, 0x54, 0x00, 0x81, 0x30, 0x34, 0x00, 0x0B, 0x4A, 0x43,
	0x00, 0x34, 0x3E, 0x02, 0x56, 0x39, 0x0B, 0x56, 0x00, 0x81, 0x40, 0x4A,
	0x00, 0x07, 0x4C, 0x00, 0x02, 0x4A, 0x45, 0x01, 0x56, 0x40, 0x08, 0x4C,
	0x3C, 0x81, 0x3D, 0x34, 0x00, 0x00, 0x40, 0x00, 0x08, 0x34, 0x3D, 0x03,
	0x40, 0x34, 0x81, 0x26, 0x37, 0x00, 0x00, 0x45, 0x00, 0x00, 0x46, 0x00,
	0x00, 0x51, 0x00, 0x00, 0x52, 0x00, 0x07, 0x26, 0x00, 0x17, 0x2D, 0x00,
	0x00, 0x3C, 0x00, 0x06, 0x3C, 0x3C, 0x02, 0x30, 0x00, 0x00, 0x2D, 0x3F,
	0x03, 0x48, 0x4A, 0x01, 0x30, 0x33, 0x01, 0x54, 0x3F, 0x07, 0x40, 0x00,
	0x01, 0x51, 0x32, 0x02, 0x29, 0x00, 0x03, 0x41, 0x00, 0x05, 0x51, 0x00,
	0x08, 0x4F, 0x00, 0x0F, 0x32, 0x00, 0x00, 0x4D, 0x00, 0x00, 0x56, 0x00,
	0x08, 0x35, 0x00, 0x00, 0x43, 0x00, 0x45, 0x54, 0x00, 0x1F, 0x4A, 0x00,
	0x35, 0x4C, 0x00, 0x02, 0x51, 0x3B, 0x01, 0x2E, 0x33, 0x00, 0x45, 0x43,
	0x02, 0x4C, 0x31, 0x03, 0x2E, 0x00, 0x62, 0x43, 0x43, 0x03, 0x4F, 0x3B,
	0x6C, 0x59, 0x44, 0x02, 0x4D, 0x46, 0x00, 0x41, 0x44, 0x00, 0x2E, 0x41,
	0x04, 0x59, 0x00, 0x01, 0x35, 0x36, 0x81, 0x37, 0x34, 0x00, 0x08, 0x41,
	0x00, 0x00, 0x4D, 0x00, 0x06, 0x59, 0x44, 0x01, 0x32, 0x3F, 0x01, 0x35,
	0x00, 0x02, 0x41, 0x42, 0x00, 0x54, 0x45, 0x01, 0x4D, 0x46, 0x01, 0x35,
	0x36, 0x03, 0x54, 0x00, 0x00, 0x59, 0x00, 0x64, 0x41, 0x00, 0x00, 0x4D,
	0x00, 0x03, 0x59, 0x43, 0x02, 0x41, 0x41, 0x02, 0x4D, 0x3E, 0x01, 0x59,
	0x00, 0x4D, 0x35, 0x00, 0x07, 0x2E, 0x00, 0x02, 0x35, 0x35, 0x02, 0x2E,
	0x37, 0x81, 0x44, 0x2E, 0x00, 0x00, 0x32, 0x00, 0x08, 0x41, 0x00, 0x00,
	0x32, 0x35, 0x03, 0x2E, 0x33, 0x04, 0x35, 0x00, 0x00, 0x4D, 0x00, 0x03,
	0x41, 0x39, 0x02, 0x4D, 0x3B, 0x01, 0x35, 0x32, 0x81, 0x42, 0x2E, 0x00,
	0x08, 0x32, 0x00, 0x00, 0x41, 0x00, 0x00, 0x4D, 0x00, 0x03, 0x2E, 0x31,
	0x01, 0x32, 0x31, 0x03, 0x35, 0x00, 0x04, 0x41, 0x3E, 0x00, 0x4D, 0x3E,
	0x00, 0x35, 0x34, 0x81, 0x44, 0x2E, 0x00, 0x00, 0x32, 0x00, 0x00, 0x43,
	0x00, 0x00, 0x4F, 0x00, 0x06, 0x4F, 0x3C, 0x02, 0x32, 0x3A, 0x01, 0x43,
	0x47, 0x01, 0x2E, 0x36, 0x81, 0x45, 0x2E, 0x00, 0x00, 0x45, 0x00, 0x04,
	0x3A, 0x3C, 0x04, 0x35, 0x00, 0x00, 0x4D, 0x00, 0x00, 0x51, 0x00, 0x01,
	0x45, 0x44, 0x03, 0x2E, 0x3A, 0x01, 0x51, 0x3C, 0x00, 0x29, 0x34, 0x04,
	0x4D, 0x38, 0x02, 0x35, 0x39, 0x81, 0x45, 0x2E, 0x00, 0x00, 0x41, 0x00,
	0x07, 0x35, 0x00, 0x00, 0x4D, 0x00, 0x04, 0x2E, 0x31, 0x00, 0x41, 0x35,
	0x00, 0x4D, 0x3B, 0x01, 0x35, 0x31, 0x81, 0x43, 0x3A, 0x00, 0x00, 0x48,
	0x00, 0x00, 0x4D, 0x00, 0x08, 0x29, 0x00, 0x00, 0x35, 0x00, 0x00, 0x41,
	0x00, 0x00, 0x54, 0x43, 0x01, 0x48, 0x3D, 0x02, 0x4D, 0x45, 0x01, 0x41,
	0x3F, 0x03, 0x29, 0x3E, 0x00, 0x54, 0x00, 0x03, 0x35, 0x35, 0x81, 0x3D,
	0x30, 0x00, 0x00, 0x4D, 0x00, 0x06, 0x30, 0x3E, 0x02, 0x29, 0x00, 0x00,
	0x41, 0x00, 0x01, 0x54, 0x45, 0x02, 0x4D, 0x44, 0x01, 0x41, 0x40, 0x00,
	0x29, 0x35, 0x04, 0x54, 0x00, 0x63, 0x41, 0x00, 0x00, 0x4D, 0x00, 0x05,
	0x4D, 0x3E, 0x00, 0x41, 0x41, 0x58, 0x29, 0x00, 0x00, 0x2D, 0x00, 0x00,
	0x30, 0x00, 0x00, 0x35, 0x00, 0x01, 0x39, 0x39, 0x03, 0x35, 0x39, 0x02,
	0x29, 0x35, 0x00, 0x2D, 0x3A, 0x01, 0x30, 0x30, 0x81, 0x50, 0x29, 0x00,
	0x00, 0x30, 0x00, 0x04, 0x30, 0x3A, 0x03, 0x35, 0x00, 0x00, 0x41, 0x00,
	0x00, 0x4D, 0x00, 0x03, 0x29, 0x39, 0x03, 0x41, 0x38, 0x03, 0x4D, 0x3D,
	0x02, 0x35, 0x34, 0x81, 0x35, 0x32, 0x00, 0x08, 0x29, 0x00, 0x00, 0x2E,
	0x00, 0x00, 0x41, 0x00, 0x03, 0x32, 0x30, 0x01, 0x2E, 0x31, 0x04, 0x4D,
	0x00, 0x00, 0x29, 0x34, 0x03, 0x41, 0x3D, 0x01, 0x4D, 0x3A, 0x81, 0x3C,
	0x2E, 0x00, 0x07, 0x30, 0x00, 0x00, 0x43, 0x00, 0x00, 0x4F, 0x00, 0x04,
	0x2E, 0x38, 0x02, 0x30, 0x3C, 0x04, 0x4F, 0x3D, 0x01, 0x43, 0x47, 0x81,
	0x45, 0x29, 0x00, 0x00, 0x2D, 0x00, 0x00, 0x35, 0x00, 0x00, 0x45, 0x00,
	0x00, 0x51, 0x00, 0x06, 0x51, 0x3C, 0x01, 0x30, 0x00, 0x03, 0x35, 0x39,
	0x01, 0x45, 0x45, 0x00, 0x29, 0x36, 0x00, 0x2D, 0x39, 0x04, 0x4D, 0x00,
	0x01, 0x30, 0x34, 0x09, 0x4D, 0x34, 0x81, 0x3E, 0x29, 0x00, 0x00, 0x30,
	0x00, 0x00, 0x41, 0x00, 0x05, 0x29, 0x32, 0x02, 0x4D, 0x00, 0x01, 0x30,
	0x32, 0x03, 0x41, 0x36, 0x02, 0x4D, 0x38, 0x02, 0x35, 0x00, 0x05, 0x35,
	0x2A, 0x03, 0x3C, 0x00, 0x81, 0x38, 0x2E, 0x00, 0x07, 0x2E, 0x3A, 0x03,
	0x52, 0x43, 0x01, 0x46, 0x4A, 0x1C, 0xB0, 0x40, 0x00, 0x81, 0x28, 0x90,
	0x2E, 0x00, 0x00, 0x32, 0x00, 0x08, 0x46, 0x00, 0x00, 0x52, 0x00, 0x02,
	0x32, 0x3A, 0x01, 0x2E, 0x33, 0x01, 0x46, 0x47, 0x01, 0x52, 0x42, 0x81,
	0x43, 0x2E, 0x00, 0x08, 0x32, 0x00, 0x00, 0x35, 0x00, 0x00, 0x46, 0x00,
	0x00, 0x52, 0x00, 0x03, 0x2E, 0x3C, 0x01, 0x32, 0x31, 0x02, 0x35, 0x36,
	0x01, 0x4D, 0x00, 0x03, 0x46, 0x38, 0x00, 0x52, 0x38, 0x01, 0x4D, 0x36,
	0x81, 0x44, 0x29, 0x00, 0x00, 0x2E, 0x00, 0x00, 0x32, 0x00, 0x00, 0x45,
	0x00, 0x05, 0x32, 0x34, 0x03, 0x51, 0x00, 0x01, 0x2E, 0x30, 0x01, 0x45,
	0x42, 0x00, 0x29, 0x31, 0x04, 0x51, 0x38, 0x81, 0x3A, 0x32, 0x00, 0x07,
	0x32, 0x2B, 0x00, 0x2E, 0x00, 0x00, 0x46, 0x00, 0x00, 0x52, 0x00, 0x05,
	0x2E, 0x2B, 0x05, 0x52, 0x3E, 0x01, 0x46, 0x44, 0x81, 0x45, 0x29, 0x00,
	0x00, 0x2E, 0x00, 0x00, 0x32, 0x00, 0x00, 0x48, 0x00, 0x06, 0x32, 0x38,
	0x01, 0x29, 0x34, 0x02, 0x2E, 0x34, 0x01, 0x54, 0x41, 0x01, 0x48, 0x4B,
	0x04, 0x4C, 0x00, 0x81, 0x48, 0x29, 0x00, 0x00, 0x2E, 0x00, 0x00, 0x32,
	0x00, 0x00, 0x45, 0x00, 0x00, 0x51, 0x00, 0x07, 0x35, 0x00, 0x01, 0x2E,
	0x38, 0x02, 0x32, 0x33, 0x00, 0x51, 0x3C, 0x00, 0x45, 0x43, 0x01, 0x29,
	0x35, 0x00, 0x35, 0x37, 0x04, 0x4D, 0x00, 0x04, 0x4D, 0x36, 0x81, 0x3C,
	0x32, 0x00, 0x00, 0x35, 0x00, 0x00, 0x45, 0x00, 0x00, 0x51, 0x00, 0x08,
	0x29, 0x00, 0x00, 0x2D, 0x00, 0x01, 0x35, 0x2D, 0x01, 0x32, 0x29, 0x01,
	0x45, 0x42, 0x00, 0x51, 0x3B, 0x05, 0x2D, 0x2E, 0x02, 0x29, 0x2C, 0x81,
	0x3D, 0x30, 0x00, 0x08, 0x30, 0x3F, 0x81, 0x48, 0x43, 0x00, 0x00, 0x4F,
	0x00, 0x07, 0x30, 0x00, 0x01, 0x34, 0x3F, 0x03, 0x4F, 0x44, 0x00, 0x43,
	0x49, 0x00, 0x30, 0x3A, 0x01, 0x37, 0x42, 0x81, 0x4B, 0x2E, 0x00, 0x00,
	0x30, 0x00, 0x00, 0x34, 0x00, 0x00, 0x37, 0x00, 0x05, 0x2B, 0x38, 0x00,
	0x30, 0x37, 0x01, 0x34, 0x3B, 0x03, 0x2E, 0x35, 0x01, 0x37, 0x3D, 0x81,
	0x36, 0xB0, 0x40, 0x7F, 0x0F, 0x90, 0x30, 0x00, 0x00, 0x41, 0x00, 0x08,
	0x2E, 0x00, 0x00, 0x35, 0x00, 0x00, 0x4D, 0x00, 0x03, 0x41, 0x3A, 0x01,
	0x30, 0x35, 0x01, 0x4D, 0x3F, 0x02, 0x34, 0x00, 0x01, 0x2E, 0x36, 0x03,
	0x35, 0x37, 0x01, 0x34, 0x37, 0x81, 0x3B, 0x41, 0x00, 0x00, 0x4D, 0x00,
	0x08, 0x2B, 0x00, 0x00, 0x2E, 0x00, 0x00, 0x30, 0x00, 0x00, 0x34, 0x00,
	0x00, 0x35, 0x00, 0x02, 0x4D, 0x3E, 0x00, 0x41, 0x3D, 0x03, 0x30, 0x36,
	0x00, 0x2B, 0x38, 0x01, 0x34, 0x3D, 0x01, 0x2E, 0x3A, 0x02, 0x35, 0x3A,
	0x1E, 0xB0, 0x40, 0x00, 0x81, 0x21, 0x40, 0x7F, 0x08, 0x90, 0x2E, 0x00,
	0x00, 0x30, 0x00, 0x00, 0x43, 0x00, 0x00, 0x4F, 0x00, 0x07, 0x2B, 0x00,
	0x00, 0x37, 0x00, 0x01, 0x43, 0x45, 0x01, 0x4F, 0x43, 0x01, 0x2E, 0x34,
	0x01, 0x30, 0x30, 0x02, 0x2B, 0x33, 0x03, 0x37, 0x3D, 0x81, 0x3F, 0x2B,
	0x00, 0x00, 0x30, 0x00, 0x00, 0x34, 0x00, 0x00, 0x37, 0x00, 0x00, 0x43,
	0x00, 0x00, 0x4F, 0x00, 0x05, 0x4F, 0x41, 0x01, 0x30, 0x3C, 0x02, 0x2B,
	0x3A, 0x00, 0x37, 0x3D, 0x01, 0x34, 0x3D, 0x01, 0x43, 0x40, 0x05, 0x54,
	0x00, 0x1F, 0xB0, 0x40, 0x00, 0x81, 0x0A, 0x40, 0x7F, 0x10, 0x90, 0x2B,
	0x00, 0x07, 0x30, 0x00, 0x00, 0x4D, 0x00, 0x04, 0x2B, 0x3C, 0x04, 0x34,
	0x00, 0x00, 0x35, 0x00, 0x00, 0x41, 0x00, 0x00, 0x4D, 0x3C, 0x02, 0x30,
	0x38, 0x02, 0x41, 0x3D, 0x01, 0x35, 0x36, 0x00, 0x34, 0x36, 0x03, 0x40,
	0x3C, 0x1E, 0x40, 0x00, 0x00, 0xB0, 0x40, 0x00, 0x81, 0x22, 0x90, 0x39,
	0x00, 0x00, 0x45, 0x00, 0x00, 0x51, 0x00, 0x07, 0x29, 0x00, 0x00, 0x35,
	0x00, 0x04, 0x51, 0x43, 0x00, 0x45, 0x4C, 0x01, 0x35, 0x35, 0x03, 0x29,
	0x3F, 0x00, 0x39, 0x3A, 0x81, 0x48, 0x30, 0x00, 0x00, 0x34, 0x00, 0x07,
	0x30, 0x40, 0x04, 0x34, 0x30, 0x13, 0x2E, 0x00, 0x00, 0x52, 0x00, 0x81,
	0x31, 0x35, 0x00, 0x00, 0x39, 0x00, 0x05, 0x39, 0x38, 0x03, 0x35, 0x36,
	0x00, 0x29, 0x00, 0x00, 0x30, 0x00, 0x05, 0x30, 0x2E, 0x04, 0x29, 0x32,
	0x5B, 0x2D, 0x00, 0x00, 0x32, 0x00, 0x00, 0x37, 0x00, 0x00, 0x46, 0x00,
	0x00, 0x48, 0x00, 0x00, 0x4D, 0x00, 0x00, 0x4F, 0x00, 0x00, 0x51, 0x00,
	0x63, 0x30, 0x00, 0x06, 0x30, 0x38, 0x02, 0x35, 0x00, 0x00, 0x41, 0x00,
	0x04, 0x41, 0x34, 0x01, 0x35, 0x2D, 0x00, 0x2D, 0x34, 0x01, 0x4D, 0x3C,
	0x18, 0x43, 0x00, 0x18, 0x2B, 0x00, 0x81, 0x12, 0x2D, 0x00, 0x00, 0x30,
	0x00, 0x06, 0x30, 0x33, 0x01, 0x34, 0x00, 0x00, 0x41, 0x00, 0x00, 0x4D,
	0x00, 0x00, 0x2D, 0x34, 0x05, 0x4D, 0x3A, 0x00, 0x41, 0x3A, 0x06, 0x34,
	0x30, 0x81, 0x45, 0x29, 0x00, 0x00, 0x30, 0x00, 0x07, 0x2D, 0x00, 0x02,
	0x30, 0x3C, 0x00, 0x29, 0x37, 0x01, 0x43, 0x47, 0x00, 0x4F, 0x3E, 0x04,
	0x2D, 0x39, 0x81, 0x41, 0x29, 0x00, 0x00, 0x2D, 0x00, 0x00, 0x30, 0x00,
	0x00, 0x43, 0x00, 0x05, 0x43, 0x40, 0x01, 0x29, 0x3C, 0x04, 0x2D, 0x3F,
	0x00, 0x30, 0x39, 0x2A, 0x39, 0x00, 0x06, 0x34, 0x00, 0x13, 0x45, 0x00,
	0x00, 0x4D, 0x00, 0x00, 0x4F, 0x00, 0x08, 0x41, 0x00, 0x7A, 0x2D, 0x00,
	0x00, 0x30, 0x00, 0x0B, 0x30, 0x30, 0x01, 0x2D, 0x35, 0x01, 0x4D, 0x38,
	0x00, 0x41, 0x37, 0x03, 0x35, 0x00, 0x05, 0x35, 0x31, 0x81, 0x43, 0x30,
	0x00, 0x00, 0x35, 0x00, 0x07, 0x29, 0x00, 0x02, 0x35, 0x3A, 0x01, 0x30,
	0x3E, 0x00, 0x48, 0x50, 0x02, 0x29, 0x38, 0x31, 0x4D, 0x00, 0x81, 0x1C,
	0x34, 0x41, 0x08, 0x4C, 0x32, 0x05, 0x30, 0x00, 0x04, 0x30, 0x28, 0x06,
	0x40, 0x2E, 0x05, 0x40, 0x00, 0x81, 0x29, 0x30, 0x00, 0x00, 0x34, 0x00,
	0x06, 0x30, 0x37, 0x03, 0x2B, 0x38, 0x02, 0x34, 0x36, 0x01, 0x37, 0x3A,
	0x00, 0x28, 0x37, 0x04, 0x2B, 0x00, 0x1E, 0x2D, 0x00, 0x2E, 0xB0, 0x40,
	0x7F, 0x5D, 0x90, 0x43, 0x00, 0x17, 0x34, 0x00, 0x07, 0x30, 0x00, 0x00,
	0x48, 0x00, 0x00, 0xB0, 0x40, 0x00, 0x03, 0x90, 0x34, 0x3B, 0x01, 0x48,
	0x48, 0x04, 0x2D, 0x31, 0x03, 0x30, 0x2C, 0x33, 0x41, 0x00, 0x81, 0x12,
	0x2D, 0x00, 0x07, 0x30, 0x00, 0x00, 0x48, 0x00, 0x03, 0x2D, 0x31, 0x01,
	0x48, 0x4C, 0x01, 0x30, 0x2E, 0x7E, 0xB0, 0x40, 0x7F, 0x45, 0x90, 0x2D,
	0x00, 0x06, 0x2D, 0x39, 0x02, 0x34, 0x00, 0x03, 0x4A, 0x4A, 0x02, 0x34,
	0x3B, 0x81, 0x3B, 0x28, 0x00, 0x07, 0x29, 0x00, 0x00, 0x4A, 0x00, 0x05,
	0x24, 0x39, 0x04, 0x2B, 0x3C, 0x01, 0x29, 0x3B, 0x01, 0x4A, 0x42, 0x33,
	0x4C, 0x00, 0x00, 0xB0, 0x40, 0x00, 0x06, 0x90, 0x37, 0x00, 0x11, 0x35,
	0x00, 0x00, 0x48, 0x00, 0x45, 0x2B, 0x00, 0x3D, 0x2D, 0x00, 0x00, 0x30,
	0x00, 0x04, 0x48, 0x45, 0x00, 0x2D, 0x2F, 0x04, 0x30, 0x2A, 0x81, 0x53,
	0x4D, 0x4D, 0x00, 0x26, 0x41, 0x81, 0x44, 0x2D, 0x00, 0x0B, 0x2D, 0x3A,
	0x81, 0x4C, 0x2D, 0x00, 0x01, 0x32, 0x34, 0x02, 0x35, 0x3C, 0x01, 0x2D,
	0x34, 0x81, 0x4C, 0x2D, 0x00, 0x00, 0x35, 0x00, 0x00, 0x4D, 0x00, 0x09,
	0x35, 0x33, 0x00, 0x2D, 0x34, 0x01, 0x4D, 0x45, 0x81, 0x45, 0x4D, 0x00,
	0x0B, 0x4D, 0x48, 0x81, 0x26, 0x24, 0x00, 0x0F, 0xB0, 0x40, 0x7F, 0x0F,
	0x90, 0x26, 0x00, 0x00, 0x2D, 0x00, 0x07, 0x2D, 0x39, 0x02, 0x26, 0x35,
	0x02, 0x4C, 0x48, 0x1C, 0xB0, 0x40, 0x00, 0x54, 0x40, 0x7F, 0x55, 0x90,
	0x2D, 0x00, 0x00, 0x32, 0x00, 0x00, 0x35, 0x00, 0x00, 0x4A, 0x00, 0x09,
	0x4A, 0x42, 0x01, 0x32, 0x35, 0x01, 0x2D, 0x38, 0x00, 0x35, 0x3B, 0x13,
	0xB0, 0x40, 0x00, 0x81, 0x39, 0x90, 0x4C, 0x00, 0x09, 0x4C, 0x42, 0x06,
	0x29, 0x00, 0x08, 0x35, 0x00, 0x05, 0x35, 0x2D, 0x81, 0x33, 0x2D, 0x00,
	0x00, 0x48, 0x00, 0x08, 0x2D, 0x3B, 0x02, 0x48, 0x50, 0x81, 0x45, 0x34,
	0x00, 0x08, 0x2D, 0x00, 0x03, 0x34, 0x3E, 0x05, 0x30, 0x00, 0x02, 0x2D,
	0x32, 0x03, 0x30, 0x28, 0x81, 0x33, 0x2D, 0x00, 0x00, 0x30, 0x00, 0x0B,
	0x29, 0x38, 0x00, 0x30, 0x32, 0x00, 0x2D, 0x39, 0x07, 0x3C, 0x33, 0x81,
	0x4D, 0x34, 0x00, 0x00, 0x48, 0x00, 0x05, 0x2E, 0x33, 0x02, 0x2D, 0x00,
	0x03, 0x48, 0x49, 0x00, 0x34, 0x3C, 0x02, 0x2D, 0x34, 0x03, 0x2E, 0x00,
	0x81, 0x40, 0x48, 0x00, 0x08, 0x35, 0x00, 0x03, 0x48, 0x4C, 0x03, 0x2E,
	0x30, 0x04, 0x35, 0x35, 0x69, 0xB0, 0x40, 0x7F, 0x54, 0x90, 0x2D, 0x00,
	0x00, 0x34, 0x00, 0x08, 0x4C, 0x00, 0x03, 0x45, 0x47, 0x01, 0x34, 0x3B,
	0x00, 0x2D, 0x33, 0x01, 0x51, 0x3D, 0x06, 0x4C, 0x35, 0x81, 0x3D, 0x35,
	0x00, 0x08, 0x2D, 0x00, 0x00, 0x30, 0x00, 0x00, 0x3C, 0x00, 0x00, 0x51,
	0x00, 0x03, 0x35, 0x38, 0x04, 0x45, 0x00, 0x01, 0x30, 0x38, 0x02, 0x2D,
	0x3E, 0x00, 0x51, 0x39, 0x01, 0x3C, 0x35, 0x03, 0x45, 0x40, 0x3E, 0xB0,
	0x40, 0x00, 0x81, 0x03, 0x90, 0x2D, 0x00, 0x06, 0x2D, 0x31, 0x03, 0x43,
	0x41, 0x01, 0x4F, 0x3C, 0x81, 0x45, 0x2E, 0x00, 0x00, 0x4D, 0x00, 0x08,
	0x35, 0x00, 0x02, 0x4D, 0x46, 0x01, 0x2E, 0x41, 0x00, 0x41, 0x44, 0x02,
	0x35, 0x34, 0x81, 0x43, 0x32, 0x00, 0x00, 0x35, 0x00, 0x08, 0x32, 0x3C,
	0x01, 0x35, 0x32, 0x81, 0x46, 0xB0, 0x40, 0x7F, 0x08, 0x90, 0x2E, 0x00,
	0x00, 0x35, 0x00, 0x04, 0x2E, 0x3C, 0x04, 0x35, 0x3B, 0x16, 0xB0, 0x40,
	0x00, 0x81, 0x31, 0x90, 0x32, 0x00, 0x00, 0x35, 0x00, 0x00, 0x41, 0x00,
	0x05, 0x32, 0x34, 0x02, 0x35, 0x32, 0x01, 0x4D, 0x00, 0x03, 0x41, 0x37,
	0x01, 0x4D, 0x3D, 0x81, 0x43, 0x2E, 0x00, 0x00, 0x32, 0x00, 0x00, 0x41,
	0x00, 0x07, 0x32, 0x32, 0x01, 0x2E, 0x30, 0x00, 0x35, 0x00, 0x00, 0x4D,
	0x00, 0x04, 0x41, 0x3B, 0x01, 0x4D, 0x39, 0x01, 0x35, 0x33, 0x02, 0xB0,
	0x40, 0x7F, 0x26, 0x40, 0x00, 0x81, 0x12, 0x40, 0x7F, 0x08, 0x90, 0x2E,
	0x00, 0x00, 0x32, 0x00, 0x00, 0x43, 0x00, 0x00, 0x4F, 0x00, 0x07, 0x4F,
	0x3D, 0x02, 0x43, 0x46, 0x00, 0x2E, 0x35, 0x01, 0x32, 0x39, 0x33, 0xB0,
	0x40, 0x00, 0x55, 0x40, 0x7F, 0x45, 0x90, 0x29, 0x00, 0x00, 0x2E, 0x00,
	0x00, 0x43, 0x00, 0x00, 0x4F, 0x00, 0x05, 0x43, 0x41, 0x00, 0x2E, 0x3E,
	0x02, 0x29, 0x3A, 0x00, 0x35, 0x00, 0x02, 0x4F, 0x3B, 0x03, 0x35, 0x3B,
	0x81, 0x43, 0x2E, 0x00, 0x05, 0x2E, 0x32, 0x03, 0x35, 0x00, 0x00, 0x41,
	0x00, 0x00, 0x4D, 0x00, 0x04, 0x4D, 0x35, 0x00, 0x41, 0x31, 0x06, 0x35,
	0x2F, 0x15, 0x26, 0x00, 0x00, 0x48, 0x00, 0x00, 0x4A, 0x00, 0x00, 0x4C,
	0x00, 0x00, 0x51, 0x00, 0x07, 0xB0, 0x40, 0x00, 0x81, 0x21, 0x90, 0x45,
	0x00, 0x08, 0x29, 0x00, 0x00, 0x2E, 0x00, 0x00, 0x35, 0x00, 0x03, 0x51,
	0x41, 0x01, 0x45, 0x4A, 0x01, 0x29, 0x3C, 0x01, 0x35, 0x31, 0x02, 0x2E,
	0x2F, 0x81, 0x48, 0x30, 0x00, 0x00, 0x35, 0x00, 0x0A, 0x30, 0x3B, 0x00,
	0x48, 0x50, 0x00, 0x35, 0x35, 0x81, 0x45, 0x29, 0x00, 0x00, 0x2D, 0x00,
	0x00, 0x30, 0x00, 0x00, 0x35, 0x00, 0x00, 0x48, 0x00, 0x0A, 0x35, 0x3C,
	0x00, 0x2D, 0x3D, 0x01, 0x39, 0x40, 0x00, 0x48, 0x48, 0x00, 0x30, 0x38,
	0x00, 0x29, 0x3B, 0x81, 0x44, 0x29, 0x00, 0x00, 0x30, 0x00, 0x00, 0x45,
	0x00, 0x05, 0x30, 0x3A, 0x03, 0x51, 0x00, 0x01, 0x29, 0x37, 0x02, 0x45,
	0x43, 0x03, 0x51, 0x3A, 0x81, 0x49, 0x29, 0x00, 0x00, 0x35, 0x00, 0x00,
	0x41, 0x00, 0x00, 0x4D, 0x00, 0x05, 0x41, 0x3A, 0x00, 0x4D, 0x3C, 0x02,
	0x29, 0x33, 0x00, 0x35, 0x33, 0x20, 0xB0, 0x40, 0x7F, 0x81, 0x29, 0x90,
	0x30, 0x00, 0x08, 0x30, 0x3C, 0x81, 0x47, 0x30, 0x00, 0x00, 0x35, 0x00,
	0x00, 0x39, 0x00, 0x00, 0x4D, 0x00, 0x07, 0x35, 0x3D, 0x01, 0x29, 0x00,
	0x00, 0x2D, 0x00, 0x00, 0x41, 0x00, 0x02, 0x4D, 0x3B, 0x01, 0x30, 0x31,
	0x00, 0x39, 0x3B, 0x01, 0x29, 0x31, 0x00, 0x41, 0x3A, 0x02, 0x2D, 0x35,
	0x18, 0xB0, 0x40, 0x00, 0x81, 0x29, 0x90, 0x30, 0x00, 0x00, 0x4D, 0x00,
	0x08, 0x41, 0x00, 0x02, 0x30, 0x2D, 0x01, 0x4D, 0x39, 0x01, 0x41, 0x35,
	0x81, 0x44, 0x2E, 0x00, 0x00, 0x43, 0x00, 0x00, 0x4F, 0x00, 0x07, 0x32,
	0x00, 0x04, 0x43, 0x4C, 0x00, 0x4F, 0x41, 0x00, 0x2E, 0x3E, 0x03, 0x32,
	0x2D, 0x81, 0x49, 0x2E, 0x00, 0x00, 0x32, 0x00, 0x00, 0x43, 0x00, 0x07,
	0x4F, 0x00, 0x03, 0x32, 0x3D, 0x00, 0x43, 0x4C, 0x01, 0x2E, 0x39, 0x01,
	0x4F, 0x3E, 0x58, 0x43, 0x00, 0x00, 0x4F, 0x00, 0x0A, 0x4F, 0x43, 0x00,
	0x43, 0x4B, 0x59, 0x29, 0x00, 0x00, 0x2E, 0x00, 0x06, 0x29, 0x39, 0x02,
	0x32, 0x00, 0x03, 0x2E, 0x3A, 0x03, 0x32, 0x30, 0x02, 0x4D, 0x00, 0x07,
	0x46, 0x36, 0x00, 0x41, 0x00, 0x02, 0x4D, 0x37, 0x03, 0x41, 0x31, 0x81,
	0x3B, 0x29, 0x00, 0x00, 0x2E, 0x00, 0x00, 0x32, 0x00, 0x07, 0x32, 0x34,
	0x01, 0x34, 0x00, 0x00, 0x41, 0x00, 0x00, 0x46, 0x00, 0x00, 0x4D, 0x00,
	0x02, 0x2E, 0x36, 0x00, 0x29, 0x35, 0x03, 0x4D, 0x3C, 0x00, 0x41, 0x38,
	0x0B, 0x51, 0x00, 0x81, 0x38, 0x2E, 0x00, 0x08, 0x32, 0x00, 0x00, 0x4D,
	0x00, 0x02, 0x2E, 0x32, 0x05, 0x35, 0x00, 0x00, 0x3C, 0x00, 0x00, 0x41,
	0x00, 0x03, 0x32, 0x2F, 0x01, 0x4D, 0x3E, 0x01, 0x41, 0x3E, 0x05, 0x35,
	0x30, 0x81, 0x3E, 0x29, 0x00, 0x00, 0x2E, 0x00, 0x00, 0x32, 0x00, 0x04,
	0x29, 0x34, 0x02, 0x32, 0x3B, 0x01, 0x4A, 0x3D, 0x02, 0x2E, 0x33, 0x01,
	0x3E, 0x46, 0x81, 0x45, 0x2E, 0x00, 0x00, 0x45, 0x00, 0x08, 0x29, 0x00,
	0x00, 0x32, 0x00, 0x00, 0x35, 0x00, 0x02, 0x45, 0x45, 0x01, 0x2E, 0x38,
	0x03, 0x29, 0x34, 0x02, 0x35, 0x36, 0x02, 0x32, 0x33, 0x00, 0x51, 0x3D,
	0x81, 0x3E, 0x45, 0x00, 0x00, 0x51, 0x00, 0x07, 0x29, 0x00, 0x00, 0x2E,
	0x00, 0x00, 0x35, 0x00, 0x00, 0x48, 0x00, 0x00, 0x4D, 0x00, 0x04, 0x51,
	0x3D, 0x00, 0x45, 0x43, 0x02, 0x4D, 0x37, 0x01, 0x2E, 0x2D, 0x02, 0x29,
	0x2D, 0x02, 0x35, 0x2E, 0x81, 0x45, 0x30, 0x00, 0x09, 0x30, 0x40, 0x81,
	0x46, 0x2D, 0x00, 0x00, 0x30, 0x00, 0x00, 0x43, 0x00, 0x00, 0x4F, 0x00,
	0x0A, 0x34, 0x3F, 0x00, 0x4F, 0x45, 0x01, 0x43, 0x4A, 0x00, 0x37, 0x42,
	0x00, 0x30, 0x3A, 0x81, 0x44, 0x2E, 0x00, 0x00, 0x30, 0x00, 0x00, 0x34,
	0x00, 0x00, 0x37, 0x00, 0x0B, 0x30, 0x36, 0x00, 0x34, 0x3D, 0x00, 0x2E,
	0x39, 0x00, 0x37, 0x3C, 0x81, 0x4C, 0x30, 0x00, 0x00, 0x34, 0x00, 0x00,
	0x4D, 0x00, 0x04, 0x2B, 0x39, 0x00, 0x30, 0x34, 0x01, 0x4D, 0x3D, 0x03,
	0x41, 0x00, 0x02, 0x34, 0x3B, 0x09, 0x41, 0x34, 0x81, 0x3D, 0x30, 0x00,
	0x00, 0x34, 0x00, 0x00, 0x4D, 0x00, 0x07, 0x37, 0x00, 0x00, 0x41, 0x00,
	0x03, 0x4D, 0x43, 0x01, 0x30, 0x39, 0x00, 0x34, 0x41, 0x01, 0x41, 0x42,
	0x01, 0x28, 0x38, 0x06, 0x37, 0x3E, 0x81, 0x3C, 0x43, 0x00, 0x00, 0x4F,
	0x00, 0x07, 0x4F, 0x40, 0x01, 0x28, 0x00, 0x00, 0x30, 0x00, 0x00, 0x34,
	0x00, 0x00, 0xB0, 0x40, 0x7F, 0x03, 0x90, 0x43, 0x46, 0x03, 0x28, 0x34,
	0x01, 0x2B, 0x00, 0x00, 0x37, 0x00, 0x03, 0x34, 0x38, 0x01, 0x30, 0x2F,
	0x03, 0x37, 0x3C, 0x01, 0x2B, 0x30, 0x3E, 0xB0, 0x40, 0x00, 0x54, 0x40,
	0x7F, 0x1F, 0x90, 0x30, 0x00, 0x07, 0x28, 0x00, 0x00, 0x37, 0x00, 0x00,
	0x43, 0x00, 0x04, 0x30, 0x3A, 0x04, 0x2B, 0x00, 0x00, 0x34, 0x00, 0x01,
	0x28, 0x3A, 0x02, 0x2D, 0x3A, 0x00, 0x43, 0x41, 0x01, 0x37, 0x3F, 0x00,
	0x2B, 0x35, 0x03, 0x34, 0x3B, 0x10, 0xB0, 0x40, 0x00, 0x81, 0x29, 0x40,
	0x7F, 0x10, 0x90, 0x29, 0x00, 0x00, 0x2B, 0x00, 0x00, 0x2D, 0x00, 0x00,
	0x30, 0x00, 0x06, 0x2D, 0x39, 0x01, 0x2B, 0x39, 0x00, 0x35, 0x00, 0x00,
	0x41, 0x00, 0x00, 0x4D, 0x00, 0x03, 0x29, 0x39, 0x01, 0x30, 0x35, 0x04,
	0x39, 0x00, 0x00, 0x4D, 0x3C, 0x02, 0x41, 0x3B, 0x00, 0x35, 0x38, 0x0D,
	0xB0, 0x40, 0x00, 0x10, 0x90, 0x51, 0x00, 0x81, 0x21, 0x45, 0x00, 0x08,
	0x29, 0x00, 0x00, 0x35, 0x00, 0x03, 0x45, 0x4B, 0x00, 0x51, 0x46, 0x01,
	0x29, 0x3D, 0x03, 0x35, 0x33, 0x45, 0x2D, 0x00, 0x00, 0x4A, 0x00, 0x17,
	0x32, 0x00, 0x00, 0x4F, 0x00, 0x3E, 0x2E, 0x00, 0x26, 0x30, 0x00, 0x08,
	0x35, 0x00, 0x03, 0x30, 0x3F, 0x05, 0x35, 0x2D, 0x07, 0x3E, 0x00, 0x10,
	0x37, 0x00, 0x81, 0x02, 0xB0, 0x40, 0x7F, 0x27, 0x90, 0x35, 0x00, 0x07,
	0x29, 0x00, 0x00, 0x30, 0x00, 0x01, 0x39, 0x35, 0x02, 0x35, 0x36, 0x07,
	0x30, 0x2E, 0x00, 0x29, 0x32, 0x02, 0x2D, 0x30, 0x81, 0x3C, 0x29, 0x00,
	0x00, 0x30, 0x00, 0x08, 0x35, 0x00, 0x00, 0x41, 0x00, 0x00, 0x4D, 0x00,
	0x01, 0x30, 0x37, 0x02, 0x29, 0x39, 0x02, 0x4D, 0x3D, 0x02, 0x41, 0x35,
	0x03, 0x35, 0x32, 0x2B, 0xB0, 0x40, 0x00, 0x08, 0x90, 0x43, 0x00, 0x08,
	0x51, 0x00, 0x81, 0x0A, 0x2D, 0x00, 0x00, 0x30, 0x00, 0x08, 0x35, 0x00,
	0x00, 0x41, 0x00, 0x00, 0x4D, 0x00, 0x00, 0x30, 0x32, 0x03, 0x2D, 0x34,
	0x01, 0x4D, 0x3D, 0x01, 0x41, 0x3B, 0x01, 0x35, 0x38, 0x81, 0x41, 0x30,
	0x00, 0x08, 0x35, 0x00, 0x00, 0xB0, 0x40, 0x7F, 0x03, 0x90, 0x30, 0x3D,
	0x00, 0x43, 0x47, 0x01, 0x4F, 0x3E, 0x00, 0x35, 0x35, 0x81, 0x44, 0x29,
	0x00, 0x00, 0x2D, 0x00, 0x00, 0x35, 0x00, 0x00, 0x43, 0x00, 0x00, 0x4F,
	0x00, 0x00, 0xB0, 0x40, 0x00, 0x04, 0x90, 0x4F, 0x3D, 0x03, 0x29, 0x39,
	0x00, 0x35, 0x3C, 0x01, 0x43, 0x40, 0x01, 0x2D, 0x3C, 0x41, 0x45, 0x00,
	0x03, 0x2B, 0x00, 0x1E, 0x39, 0x00, 0x10, 0x41, 0x00, 0x0F, 0x28, 0x00,
	0x4D, 0x30, 0x00, 0x07, 0x2D, 0x00, 0x00, 0x4D, 0x00, 0x04, 0x30, 0x31,
	0x00, 0x2D, 0x34, 0x03, 0x41, 0x36, 0x00, 0x4D, 0x39, 0x01, 0x35, 0x00,
	0x04, 0x35, 0x33, 0x81, 0x3C, 0x30, 0x00, 0x00, 0x4F, 0x00, 0x08, 0x29,
	0x00, 0x00, 0x35, 0x00, 0x03, 0x30, 0x3D, 0x00, 0x48, 0x4F, 0x01, 0x35,
	0x38, 0x03, 0x29, 0x38, 0x81, 0x03, 0x34, 0x00, 0x49, 0x34, 0x3F, 0x03,
	0x4C, 0x33, 0x01, 0x30, 0x00, 0x08, 0x40, 0x32, 0x01, 0x30, 0x2B, 0x81,
	0x3F, 0x2D, 0x00, 0x00, 0x30, 0x00, 0x00, 0x34, 0x00, 0x05, 0x30, 0x33,
	0x04, 0x34, 0x32, 0x01, 0x2D, 0x33, 0x01, 0x37, 0x38, 0x2A, 0x40, 0x00,
	0x45, 0x43, 0x00, 0x08, 0x4D, 0x00, 0x55, 0x2D, 0x00, 0x00, 0x30, 0x00,
	0x00, 0x34, 0x00, 0x00, 0x48, 0x00, 0x03, 0x2D, 0x2D, 0x01, 0x34, 0x38,
	0x00, 0x48, 0x48, 0x03, 0x41, 0x00, 0x00, 0x30, 0x26, 0x81, 0x40, 0x2D,
	0x00, 0x00, 0x48, 0x00, 0x08, 0x30, 0x00, 0x02, 0x2D, 0x32, 0x02, 0x48,
	0x4D, 0x00, 0x30, 0x28, 0x81, 0x44, 0x34, 0x00, 0x07, 0x30, 0x00, 0x04,
	0x4A, 0x49, 0x00, 0x34, 0x3E, 0x04, 0xB0, 0x40, 0x7F, 0x02, 0x90, 0x30,
	0x32, 0x2C, 0xB0, 0x40, 0x00, 0x81, 0x03, 0x90, 0x29, 0x00, 0x17, 0x30,
	0x00, 0x00, 0x34, 0x00, 0x00, 0x4A, 0x00, 0x07, 0x2D, 0x00, 0x00, 0x37,
	0x00, 0x01, 0x4A, 0x44, 0x01, 0x30, 0x37, 0x01, 0x2B, 0x3C, 0x01, 0x34,
	0x38, 0x01, 0x37, 0x41, 0x01, 0x2D, 0x3A, 0x30, 0x4C, 0x00, 0x17, 0x35,
	0x00, 0x00, 0x48, 0x00, 0x17, 0x2B, 0x00, 0x1F, 0x2D, 0x00, 0x4D, 0x30,
	0x00, 0x02, 0x2D, 0x33, 0x01, 0x35, 0x37, 0x01, 0x48, 0x47, 0x03, 0x35,
	0x00, 0x04, 0x30, 0x2C, 0x81, 0x47, 0x4D, 0x4F, 0x01, 0x26, 0x42, 0x03,
	0x35, 0x39, 0x2F, 0x37, 0x00, 0x81, 0x12, 0x2D, 0x00, 0x0B, 0x2D, 0x3C,
	0x81, 0x4C, 0x2D, 0x00, 0x00, 0x35, 0x00, 0x00, 0xB0, 0x40, 0x7F, 0x08,
	0x90, 0x32, 0x36, 0x02, 0x35, 0x3C, 0x01, 0x2D, 0x36, 0x81, 0x25, 0xB0,
	0x40, 0x00, 0x1F, 0x90, 0x2D, 0x00, 0x00, 0x35, 0x00, 0x00, 0x4D, 0x00,
	0x06, 0x35, 0x34, 0x03, 0x2D, 0x35, 0x00, 0x4D, 0x46, 0x81, 0x46, 0x4D,
	0x00, 0x0B, 0x4D, 0x49, 0x70, 0xB0, 0x40, 0x7F, 0x5D, 0x90, 0x26, 0x00,
	0x00, 0x2D, 0x00, 0x06, 0x2D, 0x35, 0x04, 0x4C, 0x47, 0x01, 0x26, 0x32,
	0x81, 0x44, 0x32, 0x00, 0x00, 0x35, 0x00, 0x00, 0x4A, 0x00, 0x08, 0x2D,
	0x00, 0x02, 0x4A, 0x42, 0x01, 0x32, 0x34, 0x00, 0x35, 0x3A, 0x01, 0x2D,
	0x35, 0x21, 0x4D, 0x00, 0x08, 0x4C, 0x00, 0x08, 0x30, 0x00, 0x00, 0x34,
	0x00, 0x00, 0x48, 0x00, 0x00, 0xB0, 0x40, 0x00, 0x7B, 0x40, 0x7F, 0x17,
	0x90, 0x2D, 0x00, 0x08, 0x35, 0x00, 0x03, 0x2D, 0x31, 0x00, 0x4C, 0x42,
	0x02, 0x35, 0x34, 0x81, 0x43, 0x2D, 0x00, 0x07, 0xB0, 0x40, 0x00, 0x00,
	0x90, 0x2D, 0x3C, 0x03, 0x48, 0x50, 0x81, 0x3D, 0xB0, 0x40, 0x7F, 0x17,
	0x90, 0x2D, 0x00, 0x02, 0x34, 0x3F, 0x04, 0x2D, 0x33, 0x00, 0x30, 0x2B,
	0x0A, 0x30, 0x00, 0x00, 0x4A, 0x00, 0x81, 0x30, 0x2D, 0x00, 0x09, 0x29,
	0x38, 0x02, 0x30, 0x32, 0x01, 0x2D, 0x3B, 0x04, 0x29, 0x00, 0x03, 0x3C,
	0x34, 0x81, 0x44, 0x34, 0x00, 0x00, 0x48, 0x00, 0x08, 0x2D, 0x00, 0x03,
	0x48, 0x49, 0x00, 0x34, 0x3D, 0x04, 0x2D, 0x34, 0x81, 0x41, 0x2D, 0x00,
	0x00, 0x48, 0x00, 0x07, 0x35, 0x00, 0x04, 0x48, 0x4D, 0x00, 0x2D, 0x33,
	0x02, 0x35, 0x38, 0x00, 0x29, 0x34, 0x0A, 0x29, 0x00, 0x81, 0x40, 0x34,
	0x00, 0x07, 0x2D, 0x00, 0x03, 0x45, 0x47, 0x01, 0x34, 0x3A, 0x00, 0x51,
	0x3F, 0x02, 0x2D, 0x32, 0x02, 0x51, 0x00, 0x81, 0x40, 0x26, 0x00, 0x00,
	0x2D, 0x00, 0x00, 0x30, 0x00, 0x00, 0x35, 0x00, 0x06, 0x30, 0x3B, 0x01,
	0x35, 0x38, 0x01, 0x45, 0x00, 0x02, 0x29, 0x3A, 0x01, 0x2D, 0x3D, 0x03,
	0x51, 0x3D, 0x00, 0x45, 0x42, 0x01, 0x29, 0x00, 0x46, 0xB0, 0x40, 0x00,
	0x81, 0x00, 0x90, 0x21, 0x38, 0x03, 0x43, 0x43, 0x01, 0x4F, 0x3C, 0x06,
	0x21, 0x00, 0x3D, 0xB0, 0x40, 0x7F, 0x81, 0x12, 0x90, 0x35, 0x00, 0x03,
	0x4D, 0x46, 0x01, 0x2E, 0x43, 0x00, 0x41, 0x44, 0x02, 0x35, 0x35, 0x0A,
	0xB0, 0x40, 0x00, 0x81, 0x38, 0x90, 0x2E, 0x00, 0x00, 0x32, 0x00, 0x00,
	0x45, 0x00, 0x07, 0x32, 0x3D, 0x03, 0x2E, 0x35, 0x00, 0x45, 0x36, 0x81,
	0x45, 0x2E, 0x00, 0x00, 0x35, 0x00, 0x05, 0x2E, 0x39, 0x06, 0x35, 0x38,
	0x81, 0x3D, 0x32, 0x00, 0x00, 0xB0, 0x40, 0x7F, 0x08, 0x90, 0x2E, 0x00,
	0x03, 0x32, 0x34, 0x01, 0x2E, 0x33, 0x03, 0x35, 0x00, 0x00, 0x41, 0x00,
	0x00, 0x4D, 0x00, 0x05, 0x41, 0x37, 0x00, 0x4D, 0x3C, 0x01, 0x35, 0x33,
	0x11, 0xB0, 0x40, 0x00, 0x17, 0x90, 0x34, 0x00, 0x10, 0x51, 0x00, 0x81,
	0x02, 0xB0, 0x40, 0x7F, 0x10, 0x90, 0x2E, 0x00, 0x00, 0x32, 0x00, 0x00,
	0x41, 0x00, 0x00, 0x4D, 0x00, 0x07, 0x35, 0x00, 0x01, 0x2E, 0x31, 0x01,
	0x41, 0x3D, 0x01, 0x32, 0x32, 0x01, 0x4D, 0x3E, 0x01, 0x35, 0x35, 0x31,
	0xB0, 0x40, 0x00, 0x6C, 0x40, 0x7F, 0x26, 0x90, 0x2E, 0x00, 0x00, 0x32,
	0x00, 0x00, 0x43, 0x00, 0x00, 0x4F, 0x00, 0x08, 0x32, 0x3A, 0x01, 0x4F,
	0x3D, 0x00, 0x43, 0x47, 0x00, 0x2E, 0x36, 0x81, 0x46, 0x2E, 0x00, 0x00,
	0x43, 0x00, 0x00, 0x4F, 0x00, 0x06, 0x2E, 0x3D, 0x01, 0x43, 0x42, 0x00,
	0x29, 0x3A, 0x01, 0x35, 0x00, 0x03, 0x4F, 0x3E, 0x04, 0x35, 0x3A, 0x10,
	0x4D, 0x00, 0x05, 0x4D, 0x28, 0x81, 0x2C, 0x2E, 0x00, 0x00, 0x32, 0x00,
	0x05, 0x2E, 0x34, 0x02, 0x35, 0x00, 0x00, 0x41, 0x00, 0x00, 0x4D, 0x00,
	0x02, 0x32, 0x2F, 0x03, 0x41, 0x35, 0x00, 0x4D, 0x39, 0x04, 0x35, 0x32,
	0x07, 0xB0, 0x40, 0x00, 0x81, 0x40, 0x90, 0x30, 0x00, 0x00, 0x45, 0x00,
	0x07, 0x29, 0x00, 0x00, 0x35, 0x00, 0x04, 0x45, 0x4C, 0x00, 0x30, 0x32,
	0x00, 0x51, 0x41, 0x00, 0x29, 0x3D, 0x01, 0x35, 0x31, 0x81, 0x43, 0x30,
	0x00, 0x00, 0x48, 0x00, 0x08, 0x29, 0x00, 0x03, 0x48, 0x51, 0x00, 0x30,
	0x3D, 0x02, 0x29, 0x38, 0x81, 0x42, 0x2D, 0x00, 0x00, 0x30, 0x00, 0x00,
	0x35, 0x00, 0x00, 0x48, 0x00, 0x05, 0x2D, 0x3D, 0x01, 0x35, 0x3E, 0x02,
	0x39, 0x3F, 0x00, 0x29, 0x00, 0x04, 0x48, 0x49, 0x00, 0x30, 0x37, 0x00,
	0x29, 0x3A, 0x81, 0x4C, 0x29, 0x00, 0x00, 0x30, 0x00, 0x00, 0x45, 0x00,
	0x07, 0x2D, 0x00, 0x00, 0x51, 0x00, 0x02, 0x30, 0x3D, 0x00, 0x45, 0x47,
	0x01, 0x29, 0x39, 0x05, 0x2D, 0x38, 0x04, 0x51, 0x3D, 0x81, 0x44, 0x29,
	0x00, 0x00, 0x35, 0x00, 0x00, 0x41, 0x00, 0x00, 0x4D, 0x00, 0x04, 0x41,
	0x3E, 0x00, 0x4D, 0x3D, 0x05, 0x29, 0x35, 0x02, 0x35, 0x34, 0x7F, 0xB0,
	0x40, 0x7F, 0x3D, 0x90, 0x30, 0x00, 0x08, 0x4C, 0x00, 0x01, 0x30, 0x3D,
	0x81, 0x47, 0x29, 0x00, 0x00, 0x2D, 0x00, 0x00, 0x30, 0x00, 0x00, 0x35,
	0x00, 0x00, 0x4D, 0x00, 0x04, 0x35, 0x3C, 0x02, 0x30, 0x35, 0x01, 0x41,
	0x00, 0x02, 0x29, 0x38, 0x01, 0x2D, 0x3A, 0x01, 0x4D, 0x3E, 0x00, 0x41,
	0x3B, 0x06, 0x39, 0x00, 0x81, 0x4A, 0xB0, 0x40, 0x00, 0x03, 0x90, 0x41,
	0x00, 0x00, 0x4D, 0x00, 0x04, 0x4D, 0x35, 0x00, 0x41, 0x36, 0x23, 0x51,
	0x00, 0x07, 0x4F, 0x00, 0x08, 0x3C, 0x00, 0x26, 0x43, 0x00, 0x6C, 0x2E,
	0x00, 0x0A, 0x43, 0x4D, 0x00, 0x2E, 0x3D, 0x00, 0x4F, 0x43, 0x81, 0x45,
	0x2E, 0x00, 0x00, 0x32, 0x00, 0x00, 0x43, 0x00, 0x00, 0x4F, 0x00, 0x0B,
	0x32, 0x40, 0x00, 0x43, 0x4E, 0x00, 0x4F, 0x42, 0x01, 0x2E, 0x3A, 0x60,
	0x43, 0x00, 0x00, 0x4F, 0x00, 0x0A, 0x4F, 0x42, 0x01, 0x43, 0x4E, 0x51,
	0x2E, 0x00, 0x08, 0x32, 0x00, 0x00, 0x35, 0x00, 0x02, 0x26, 0x39, 0x02,
	0x2E, 0x39, 0x01, 0x32, 0x34, 0x02, 0x26, 0x00, 0x02, 0x35, 0x39, 0x81,
	0x4E, 0x29, 0x00, 0x00, 0x2E, 0x00, 0x00, 0x32, 0x00, 0x04, 0x32, 0x35,
	0x03, 0x41, 0x00, 0x00, 0x4D, 0x00, 0x02, 0x2E, 0x36, 0x01, 0x29, 0x34,
	0x03, 0x41, 0x38, 0x01, 0x4D, 0x3E, 0x81, 0x41, 0x32, 0x00, 0x08, 0x2E,
	0x00, 0x00, 0x35, 0x00, 0x00, 0x41, 0x00, 0x00, 0x4D, 0x00, 0x04, 0x32,
	0x32, 0x01, 0x2E, 0x2E, 0x00, 0x41, 0x3E, 0x01, 0x4D, 0x3A, 0x04, 0x35,
	0x2F, 0x81, 0x3D, 0x2E, 0x00, 0x00, 0x32, 0x00, 0x0A, 0x4A, 0x3F, 0x00,
	0x32, 0x3D, 0x01, 0x3E, 0x48, 0x00, 0x2E, 0x36, 0x81, 0x3D, 0xB0, 0x40,
	0x7F, 0x10, 0x90, 0x29, 0x00, 0x00, 0x2E, 0x00, 0x00, 0x45, 0x00, 0x07,
	0x45, 0x43, 0x00, 0x35, 0x00, 0x02, 0x2E, 0x3A, 0x00, 0x29, 0x36, 0x01,
	0x51, 0x3F, 0x05, 0x32, 0x00, 0x00, 0x51, 0x00, 0x02, 0x35, 0x39, 0x02,
	0x32, 0x34, 0x50, 0xB0, 0x40, 0x00, 0x55, 0x40, 0x7F, 0x17, 0x90, 0x35,
	0x00, 0x00, 0x45, 0x00, 0x08, 0x29, 0x00, 0x02, 0x35, 0x33, 0x01, 0x45,
	0x45, 0x01, 0x29, 0x31, 0x00, 0x51, 0x3C, 0x1A, 0xB0, 0x40, 0x00, 0x81,
	0x29, 0x90, 0x30, 0x00, 0x0A, 0x30, 0x42, 0x3B, 0xB0, 0x40, 0x7F, 0x81,
	0x16, 0x90, 0x34, 0x41, 0x03, 0x4C, 0x31, 0x07, 0x40, 0x30, 0x30, 0xB0,
	0x40, 0x00, 0x5C, 0x40, 0x7F, 0x36, 0x90, 0x2E, 0x00, 0x00, 0x30, 0x00,
	0x00, 0x43, 0x00, 0x00, 0x4F, 0x00, 0x06, 0x2E, 0x36, 0x01, 0x2D, 0x00,
	0x00, 0xB0, 0x40, 0x00, 0x02, 0x90, 0x30, 0x38, 0x01, 0x4F, 0x42, 0x01,
	0x43, 0x4B, 0x02, 0x37, 0x40, 0x02, 0x51, 0x00, 0x81, 0x40, 0x34, 0x00,
	0x0A, 0x34, 0x39, 0x05, 0x30, 0x00, 0x04, 0x30, 0x28, 0x77, 0xB0, 0x40,
	0x7F, 0x45, 0x90, 0x2E, 0x00, 0x00, 0x30, 0x00, 0x07, 0x30, 0x2E, 0x01,
	0x35, 0x00, 0x00, 0x41, 0x00, 0x00, 0x4D, 0x00, 0x02, 0x2E, 0x31, 0x02,
	0x41, 0x39, 0x00, 0x4D, 0x3A, 0x06, 0x35, 0x31, 0x81, 0x3E, 0x4D, 0x00,
	0x07, 0x30, 0x00, 0x00, 0x34, 0x00, 0x00, 0x41, 0x00, 0x03, 0x4D, 0x3F,
	0x04, 0x30, 0x30, 0x02, 0x34, 0x3E, 0x00, 0x41, 0x41, 0x81, 0x47, 0x2E,
	0x00, 0x00, 0x30, 0x00, 0x00, 0x37, 0x00, 0x00, 0x4F, 0x00, 0x05, 0x2E,
	0x38, 0x02, 0x43, 0x00, 0x03, 0x4F, 0x42, 0x00, 0x30, 0x39, 0x00, 0x2B,
	0x36, 0x01, 0x37, 0x3F, 0x00, 0x43, 0x45, 0x0C, 0x4A, 0x00, 0x07, 0xB0,
	0x40, 0x00, 0x46, 0x90, 0x40, 0x00, 0x6B, 0xB0, 0x40, 0x7F, 0x08, 0x90,
	0x2B, 0x00, 0x00, 0x30, 0x00, 0x00, 0x43, 0x00, 0x00, 0x4F, 0x00, 0x04,
	0x4F, 0x3C, 0x00, 0x43, 0x42, 0x03, 0x37, 0x00, 0x03, 0x30, 0x2E, 0x00,
	0x2B, 0x2F, 0x09, 0x37, 0x36, 0x0C, 0xB0, 0x40, 0x00, 0x81, 0x28, 0x90,
	0x30, 0x00, 0x00, 0x48, 0x00, 0x08, 0x48, 0x37, 0x00, 0x29, 0x00, 0x00,
	0x35, 0x00, 0x00, 0x41, 0x00, 0x00, 0x4D, 0x00, 0x03, 0x30, 0x33, 0x03,
	0x4D, 0x3B, 0x01, 0x29, 0x3E, 0x02, 0x41, 0x35, 0x02, 0x35, 0x36, 0x81,
	0x3D, 0x45, 0x00, 0x0B, 0x51, 0x40, 0x00, 0x45, 0x4C, 0x81, 0x4C, 0x30,
	0x00, 0x08, 0x30, 0x3C, 0x81, 0x29, 0x2E, 0x00, 0x00, 0x32, 0x00, 0x00,
	0x3E, 0x00, 0x81, 0x6E, 0x35, 0x00, 0x00, 0x4D, 0x00, 0x07, 0x29, 0x00,
	0x00, 0x41, 0x00, 0x02, 0x35, 0x3C, 0x02, 0x4D, 0x3D, 0x00, 0x29, 0x33,
	0x02, 0x41, 0x3D, 0x81, 0x4A, 0x29, 0x00, 0x00, 0x30, 0x00, 0x00, 0x35,
	0x00, 0x00, 0x4D, 0x00, 0x05, 0x30, 0x30, 0x02, 0x41, 0x00, 0x00, 0x29,
	0x35, 0x03, 0x35, 0x34, 0x01, 0x4D, 0x3D, 0x00, 0x41, 0x3B, 0x81, 0x44,
	0x29, 0x00, 0x00, 0x30, 0x00, 0x00, 0x35, 0x00, 0x00, 0x43, 0x00, 0x00,
	0x4F, 0x00, 0x05, 0x29, 0x38, 0x00, 0x4F, 0x40, 0x01, 0x35, 0x39, 0x01,
	0x39, 0x40, 0x01, 0x2D, 0x3C, 0x02, 0x43, 0x47, 0x01, 0x30, 0x35, 0x2B,
	0x4C, 0x00, 0x17, 0x2B, 0x00, 0x17, 0x51, 0x00, 0x6B, 0x30, 0x00, 0x00,
	0x43, 0x00, 0x00, 0x4F, 0x00, 0x0B, 0x30, 0x2C, 0x00, 0x4F, 0x3D, 0x01,
	0x43, 0x44, 0x51, 0x41, 0x00, 0x73, 0x30, 0x00, 0x00, 0x4D, 0x00, 0x07,
	0x29, 0x00, 0x00, 0x35, 0x00, 0x01, 0x30, 0x3E, 0x02, 0x4D, 0x3F, 0x04,
	0x41, 0x36, 0x02, 0x29, 0x35, 0x00, 0x35, 0x33, 0x15, 0x37, 0x00, 0x09,
	0x48, 0x00, 0x81, 0x29, 0x30, 0x00, 0x0A, 0x30, 0x31, 0x01, 0x48, 0x50,
	0x81, 0x49, 0x37, 0x3A, 0x03, 0x30, 0x00, 0x08, 0x30, 0x2A, 0x6B, 0x2D,
	0x00, 0x82, 0x24, 0x29, 0x00, 0x00, 0x48, 0x00, 0x06, 0x29, 0x30, 0x02,
	0x30, 0x00, 0x02, 0x48, 0x49, 0x07, 0x2D, 0x2F, 0x02, 0x3C, 0x39, 0x00,
	0x30, 0x26, 0x1B, 0x4F, 0x00, 0x08, 0x4D, 0x00, 0x81, 0x21, 0x48, 0x00,
	0x08, 0x30, 0x00, 0x03, 0x48, 0x4A, 0x03, 0x30, 0x26, 0x81, 0x41, 0x2D,
	0x00, 0x00, 0x30, 0x00, 0x05, 0x2D, 0x39, 0x02, 0x30, 0x32, 0x04, 0x4A,
	0x46, 0x0B, 0x40, 0x2F, 0x1C, 0x37, 0x00, 0x04, 0x39, 0x00, 0x00, 0x45,
	0x00, 0x08, 0x34, 0x00, 0x00, 0x41, 0x00, 0x00, 0x43, 0x00, 0x81, 0x12,
	0x4A, 0x00, 0x00, 0xB0, 0x40, 0x7F, 0x07, 0x90, 0x2D, 0x00, 0x00, 0x30,
	0x00, 0x04, 0x4A, 0x41, 0x01, 0x2D, 0x2E, 0x01, 0x30, 0x2A, 0x19, 0xB0,
	0x40, 0x00, 0x81, 0x38, 0x90, 0x48, 0x00, 0x04, 0x48, 0x44, 0x01, 0x26,
	0x43, 0x81, 0x4E, 0x4D, 0x4E, 0x14, 0x3C, 0x00, 0x81, 0x21, 0x35, 0x00,
	0x0F, 0x2D, 0x00, 0x09, 0x2D, 0x3B, 0x83, 0x1E, 0x4D, 0x00, 0x0A, 0x32,
	0x37, 0x00, 0x4D, 0x42, 0x20, 0x4A, 0x00, 0x04, 0x40, 0x00, 0x81, 0x21,
	0x4D, 0x00, 0x0A, 0x4D, 0x49, 0x1D, 0x29, 0x00, 0x4C, 0xB0, 0x40, 0x7F,
	0x08, 0x40, 0x00, 0x54, 0x90, 0x2D, 0x00, 0x06, 0x2D, 0x34, 0x00, 0x29,
	0x3C, 0x03, 0x35, 0x3A, 0x01, 0x4C, 0x47, 0x5A, 0x29, 0x00, 0x36, 0x4D,
	0x00, 0x36, 0x2D, 0x00, 0x00, 0x32, 0x00, 0x00, 0x35, 0x00, 0x0A, 0x4A,
	0x42, 0x00, 0x2D, 0x2D, 0x00, 0x35, 0x2F, 0x00, 0x32, 0x29, 0x81, 0x4D,
	0x2D, 0x00, 0x00, 0x4C, 0x00, 0x08, 0x4C, 0x41, 0x01, 0x2D, 0x3A, 0x81,
	0x46, 0x48, 0x00, 0x08, 0x48, 0x4F, 0x81, 0x31, 0xB0, 0x40, 0x7F, 0x17,
	0x90, 0x2D, 0x00, 0x09, 0x34, 0x3B, 0x01, 0x2D, 0x30, 0x42, 0xB0, 0x40,
	0x00, 0x55, 0x40, 0x7F, 0x81, 0x48, 0x90, 0x26, 0x00, 0x3D, 0x2D, 0x00,
	0x00, 0x35, 0x00, 0x00, 0x48, 0x00, 0x06, 0x2D, 0x3B, 0x01, 0x29, 0x39,
	0x02, 0x35, 0x36, 0x02, 0x48, 0x49, 0x01, 0x39, 0x3D, 0x07, 0xB0, 0x40,
	0x00, 0x1B, 0x90, 0x34, 0x00, 0x81, 0x21, 0x29, 0x00, 0x00, 0x30, 0x00,
	0x00, 0x48, 0x00, 0x08, 0x35, 0x00, 0x02, 0x29, 0x35, 0x00, 0x48, 0x4C,
	0x00, 0x30, 0x2A, 0x03, 0x35, 0x31, 0x81, 0x1C, 0xB0, 0x40, 0x7F, 0x27,
	0x90, 0x29, 0x00, 0x00, 0x2D, 0x00, 0x00, 0x30, 0x00, 0x00, 0x35, 0x00,
	0x04, 0x30, 0x37, 0x02, 0x2D, 0x37, 0x00, 0x45, 0x47, 0x01, 0x39, 0x00,
	0x01, 0x35, 0x32, 0x01, 0x29, 0x39, 0x04, 0x39, 0x40, 0x81, 0x42, 0x30,
	0x00, 0x08, 0x29, 0x00, 0x00, 0x2D, 0x00, 0x00, 0x45, 0x00, 0x03, 0x30,
	0x38, 0x03, 0x29, 0x3C, 0x00, 0x2D, 0x3B, 0x01, 0x35, 0x00, 0x03, 0x45,
	0x43, 0x05, 0x35, 0x35, 0x00, 0x39, 0x00, 0x06, 0x39, 0x3C, 0x81, 0x32,
	0x4A, 0x00, 0x0F, 0x43, 0x44, 0x03, 0x2E, 0x3F, 0x15, 0xB0, 0x40, 0x00,
	0x7B, 0x40, 0x7F, 0x2E, 0x40, 0x00, 0x07, 0x90, 0x2E, 0x00, 0x00, 0x32,
	0x00, 0x05, 0x32, 0x3E, 0x03, 0x2E, 0x3A, 0x03, 0x41, 0x42, 0x00, 0x4D,
	0x47, 0x81, 0x4D, 0x2E, 0x00, 0x00, 0x35, 0x00, 0x07, 0x32, 0x00, 0x02,
	0x35, 0x39, 0x00, 0x2E, 0x3A, 0x06, 0x32, 0x2F, 0x81, 0x40, 0x2E, 0x00,
	0x00, 0x32, 0x00, 0x07, 0x32, 0x35, 0x02, 0x2E, 0x2D, 0x81, 0x3F, 0x2E,
	0x00, 0x07, 0x32, 0x00, 0x00, 0x35, 0x00, 0x00, 0x41, 0x00, 0x00, 0x4D,
	0x00, 0x04, 0x2E, 0x2F, 0x01, 0x35, 0x31, 0x01, 0x32, 0x30, 0x04, 0x41,
	0x36, 0x02, 0x4D, 0x39, 0x2A, 0xB0, 0x40, 0x7F, 0x81, 0x1A, 0x90, 0x2E,
	0x00, 0x00, 0x32, 0x00, 0x00, 0x39, 0x00, 0x00, 0x41, 0x00, 0x00, 0x4D,
	0x00, 0x04, 0x32, 0x3A, 0x01, 0x2E, 0x36, 0x02, 0x35, 0x00, 0x00, 0xB0,
	0x40, 0x00, 0x02, 0x90, 0x4D, 0x41, 0x02, 0x41, 0x3C, 0x03, 0x35, 0x35,
	0x81, 0x41, 0x2E, 0x00, 0x08, 0x35, 0x00, 0x00, 0x43, 0x00, 0x03, 0x2E,
	0x3C, 0x02, 0x43, 0x48, 0x02, 0x35, 0x3A, 0x02, 0x4F, 0x41, 0x06, 0x2D,
	0x00, 0x81, 0x40, 0x30, 0x00, 0x00, 0x32, 0x00, 0x00, 0x43, 0x00, 0x00,
	0x4F, 0x00, 0x00, 0xB0, 0x40, 0x7F, 0x05, 0x90, 0x4F, 0x3C, 0x02, 0x43,
	0x42, 0x01, 0x30, 0x2D, 0x02, 0x32, 0x2F, 0x00, 0x37, 0x3B, 0x0D, 0x37,
	0x00, 0x2E, 0x4C, 0x00, 0x27, 0x48, 0x00, 0x00, 0xB0, 0x40, 0x00, 0x68,
	0x90, 0x48, 0x3A, 0x03, 0x29, 0x00, 0x00, 0x35, 0x00, 0x00, 0x41, 0x00,
	0x00, 0x4D, 0x00, 0x05, 0x29, 0x3C, 0x01, 0x35, 0x36, 0x01, 0x4D, 0x39,
	0x02, 0x41, 0x32, 0x81, 0x3F, 0x30, 0x00, 0x00, 0x35, 0x00, 0x00, 0x45,
	0x00, 0x07, 0x29, 0x00, 0x01, 0x30, 0x3D, 0x01, 0x35, 0x2E, 0x00, 0x51,
	0x42, 0x01, 0x45, 0x4B, 0x03, 0x29, 0x32, 0x81, 0x33, 0x4F, 0x00, 0x17,
	0x30, 0x00, 0x00, 0x35, 0x00, 0x00, 0x48, 0x00, 0x07, 0x29, 0x00, 0x02,
	0x35, 0x3F, 0x00, 0x2D, 0x3E, 0x01, 0x39, 0x41, 0x00, 0x30, 0x37, 0x01,
	0x48, 0x51, 0x01, 0x29, 0x3B, 0x81, 0x43, 0x30, 0x00, 0x00, 0x48, 0x00,
	0x08, 0x35, 0x00, 0x01, 0x32, 0x00, 0x01, 0x30, 0x3C, 0x01, 0x48, 0x49,
	0x01, 0x35, 0x31, 0x01, 0x3C, 0x3A, 0x02, 0x43, 0x00, 0x3E, 0x51, 0x00,
	0x81, 0x02, 0x45, 0x00, 0x08, 0x39, 0x00, 0x03, 0x45, 0x43, 0x01, 0x51,
	0x3A, 0x03, 0x39, 0x39, 0x81, 0x49, 0x30, 0x00, 0x00, 0x35, 0x00, 0x00,
	0x41, 0x00, 0x00, 0x4D, 0x00, 0x04, 0x4D, 0x41, 0x00, 0x41, 0x3C, 0x03,
	0x30, 0x3A, 0x02, 0x35, 0x35, 0x06, 0x2E, 0x00, 0x2E, 0x51, 0x00, 0x36,
	0x2D, 0x00, 0x1E, 0x3C, 0x00, 0x36, 0x35, 0x00, 0x00, 0x39, 0x00, 0x07,
	0x39, 0x38, 0x01, 0x29, 0x00, 0x03, 0x35, 0x39, 0x05, 0x2D, 0x36, 0x00,
	0x29, 0x33, 0x07, 0x4D, 0x00, 0x04, 0x4D, 0x31, 0x0C, 0x41, 0x00, 0x05,
	0x41, 0x26, 0x81, 0x2B, 0x29, 0x00, 0x00, 0x4D, 0x00, 0x08, 0x41, 0x00,
	0x01, 0x29, 0x2E, 0x02, 0x4D, 0x3A, 0x01, 0x41, 0x35, 0x81, 0x44, 0x41,
	0x00, 0x00, 0x4D, 0x00, 0x07, 0x35, 0x00, 0x03, 0x41, 0x38, 0x00, 0x32,
	0x2C, 0x00, 0x2E, 0x3F, 0x01, 0x4D, 0x3D, 0x05, 0x35, 0x2C, 0x81, 0x47,
	0x32, 0x00, 0x09, 0x4F, 0x42, 0x01, 0x32, 0x3D, 0x01, 0x43, 0x4C, 0x81,
	0x44, 0x29, 0x00, 0x00, 0x2E, 0x00, 0x00, 0x43, 0x00, 0x00, 0x4F, 0x00,
	0x05, 0x29, 0x3C, 0x01, 0x2E, 0x3E, 0x02, 0x32, 0x00, 0x00, 0x35, 0x00,
	0x00, 0x43, 0x4D, 0x03, 0x4F, 0x44, 0x01, 0x35, 0x3A, 0x05, 0x32, 0x37,
	0x53, 0x43, 0x00, 0x00, 0x4F, 0x00, 0x0A, 0x43, 0x4A, 0x01, 0x4F, 0x42,
	0x1A, 0x45, 0x00, 0x37, 0x48, 0x00, 0x08, 0x2D, 0x00, 0x07, 0x2E, 0x00,
	0x00, 0x32, 0x00, 0x09, 0x32, 0x38, 0x03, 0x2E, 0x29, 0x04, 0x39, 0x00,
	0x54, 0x4D, 0x00, 0x27, 0x41, 0x00, 0x45, 0x2E, 0x00, 0x07, 0x32, 0x00,
	0x00, 0x35, 0x00, 0x04, 0x2E, 0x31, 0x01, 0x32, 0x2B, 0x01, 0x41, 0x34,
	0x00, 0x4D, 0x38, 0x03, 0x35, 0x2C, 0x81, 0x47, 0x2E, 0x00, 0x00, 0x32,
	0x00, 0x00, 0x4D, 0x00, 0x07, 0x41, 0x00, 0x01, 0x32, 0x36, 0x02, 0x2E,
	0x32, 0x01, 0x4D, 0x3E, 0x03, 0x4A, 0x36, 0x00, 0x41, 0x3B, 0x81, 0x41,
	0x2E, 0x00, 0x00, 0x4A, 0x00, 0x08, 0x35, 0x00, 0x02, 0x29, 0x00, 0x01,
	0x4A, 0x3E, 0x00, 0x3E, 0x45, 0x00, 0x2E, 0x3C, 0x02, 0x35, 0x39, 0x02,
	0x32, 0x00, 0x06, 0x32, 0x31, 0x81, 0x46, 0x45, 0x44, 0x03, 0x51, 0x3B,
	0x81, 0x49, 0x30, 0x00, 0x00, 0x45, 0x00, 0x00, 0x51, 0x00, 0x04, 0x51,
	0x38, 0x00, 0x45, 0x40, 0x06, 0x30, 0x41, 0x81, 0x45, 0x30, 0x00, 0x09,
	0x34, 0x3D, 0x00, 0x37, 0x3E, 0x01, 0x30, 0x37, 0x03, 0x4C, 0x35, 0x03,
	0x48, 0x3E, 0x81, 0x28, 0xB0, 0x40, 0x7F, 0x17, 0x90, 0x34, 0x00, 0x00,
	0x43, 0x00, 0x00, 0x4F, 0x00, 0x08, 0x30, 0x00, 0x00, 0x37, 0x00, 0x01,
	0x4F, 0x45, 0x02, 0x43, 0x4A, 0x00, 0x34, 0x40, 0x01, 0x2B, 0x3A, 0x00,
	0x37, 0x41, 0x01, 0x30, 0x3A, 0x0A, 0xB0, 0x40, 0x00, 0x81, 0x29, 0x90,
	0x32, 0x00, 0x10, 0x2B, 0x00, 0x00, 0x30, 0x00, 0x00, 0x34, 0x00, 0x00,
	0xB0, 0x40, 0x7F, 0x05, 0x90, 0x30, 0x34, 0x02, 0x2B, 0x36, 0x00, 0xB0,
	0x40, 0x00, 0x03, 0x90, 0x34, 0x3D, 0x3B, 0x51, 0x00, 0x45, 0x4D, 0x00,
	0x4D, 0x30, 0x00, 0x00, 0x34, 0x00, 0x00, 0xB0, 0x40, 0x7F, 0x07, 0x90,
	0x35, 0x00, 0x01, 0x29, 0x39, 0x01, 0x34, 0x3C, 0x01, 0x30, 0x36, 0x05,
	0x35, 0x38, 0x00, 0x41, 0x00, 0x03, 0x4D, 0x42, 0x03, 0x41, 0x3A, 0x02,
	0xB0, 0x40, 0x00, 0x81, 0x0A, 0x40, 0x7F, 0x2E, 0x90, 0x30, 0x00, 0x06,
	0x54, 0x46, 0x02, 0x35, 0x00, 0x00, 0x41, 0x00, 0x00, 0x4D, 0x00, 0x00,
	0x59, 0x3B, 0x03, 0x30, 0x30, 0x01, 0x4D, 0x39, 0x01, 0x41, 0x3C, 0x01,
	0x35, 0x36, 0x01, 0x54, 0x00, 0x00, 0x59, 0x00, 0x45, 0xB0, 0x40, 0x00,
	0x55, 0x40, 0x7F, 0x26, 0x90, 0x30, 0x00, 0x00, 0x34, 0x00, 0x00, 0x37,
	0x00, 0x00, 0x43, 0x00, 0x00, 0x4F, 0x00, 0x08, 0x43, 0x46, 0x01, 0x4F,
	0x41, 0x00, 0x30, 0x3A, 0x01, 0x34, 0x3C, 0x00, 0x37, 0x3F, 0x81, 0x46,
	0x29, 0x00, 0x00, 0x30, 0x00, 0x00, 0x43, 0x00, 0x00, 0x4F, 0x00, 0x08,
	0x30, 0x3B, 0x01, 0x4F, 0x44, 0x00, 0x29, 0x39, 0x01, 0x43, 0x40, 0x02,
	0x2D, 0x3B, 0x07, 0x37, 0x00, 0x04, 0x2E, 0x00, 0x07, 0x3E, 0x00, 0x00,
	0x4A, 0x00, 0x3E, 0x4C, 0x00, 0x26, 0x2D, 0x00, 0x45, 0x2B, 0x00, 0x10,
	0x41, 0x00, 0x07, 0x29, 0x00, 0x00, 0x30, 0x00, 0x00, 0x35, 0x00, 0x00,
	0x4D, 0x00, 0x04, 0x41, 0x34, 0x01, 0x29, 0x3D, 0x00, 0x30, 0x30, 0x03,
	0x4D, 0x3A, 0x01, 0x35, 0x34, 0x2D, 0xB0, 0x40, 0x00, 0x27, 0x90, 0x34,
	0x00, 0x35, 0xB0, 0x40, 0x7F, 0x36, 0x90, 0x30, 0x00, 0x00, 0x35, 0x00,
	0x00, 0x45, 0x00, 0x08, 0x29, 0x00, 0x01, 0x30, 0x3E, 0x02, 0x35, 0x32,
	0x00, 0x51, 0x43, 0x00, 0x45, 0x4A, 0x01, 0x29, 0x36, 0x2A, 0x4F, 0x00,
	0x0F, 0x48, 0x00, 0x81, 0x09, 0x39, 0x38, 0x01, 0x30, 0x00, 0x00, 0x35,
	0x00, 0x07, 0x35, 0x36, 0x01, 0x29, 0x00, 0x01, 0x2D, 0x32, 0x03, 0x30,
	0x30, 0x04, 0x29, 0x32, 0x00, 0x41, 0x00, 0x0A, 0x41, 0x2B, 0x24, 0xB0,
	0x40, 0x00, 0x81, 0x1A, 0x90, 0x2D, 0x00, 0x00, 0x30, 0x00, 0x06, 0x30,
	0x39, 0x04, 0x2D, 0x30, 0x81, 0x4D, 0x35, 0x00, 0x00, 0x41, 0x00, 0x00,
	0x4D, 0x00, 0x00, 0xB0, 0x40, 0x7F, 0x04, 0x90, 0x41, 0x37, 0x01, 0x4D,
	0x38, 0x03, 0x35, 0x34, 0x81, 0x3F, 0x30, 0x00, 0x00, 0x4D, 0x00, 0x08,
	0x35, 0x00, 0x00, 0x41, 0x00, 0x02, 0x30, 0x3B, 0x01, 0x4D, 0x41, 0x02,
	0x41, 0x38, 0x05, 0x35, 0x34, 0x05, 0xB0, 0x40, 0x00, 0x27, 0x90, 0x51,
	0x00, 0x81, 0x12, 0x29, 0x00, 0x00, 0x2D, 0x00, 0x00, 0x30, 0x00, 0x00,
	0x35, 0x00, 0x00, 0x43, 0x00, 0x07, 0x35, 0x3C, 0x01, 0x43, 0x45, 0x01,
	0x29, 0x39, 0x00, 0x2D, 0x3C, 0x01, 0x4F, 0x40, 0x01, 0x30, 0x36, 0x81,
	0x4C, 0x30, 0x00, 0x00, 0x4F, 0x00, 0x00, 0xB0, 0x40, 0x7F, 0x07, 0x90,
	0x43, 0x00, 0x02, 0x4F, 0x3A, 0x02, 0x30, 0x2E, 0x00, 0x43, 0x40, 0x02,
	0x37, 0x3C, 0x81, 0x0C, 0xB0, 0x40, 0x00, 0x36, 0x90, 0x30, 0x00, 0x00,
	0x4D, 0x00, 0x07, 0x30, 0x3E, 0x01, 0x41, 0x00, 0x03, 0x4D, 0x42, 0x04,
	0x29, 0x00, 0x04, 0x41, 0x35, 0x04, 0x35, 0x00, 0x02, 0x29, 0x33, 0x08,
	0x35, 0x31, 0x81, 0x2E, 0x30, 0x00, 0x0C, 0x30, 0x33, 0x00, 0x34, 0x40,
	0x01, 0x48, 0x50, 0x04, 0x54, 0x49, 0x06, 0x54, 0x00, 0x81, 0x39, 0x30,
	0x00, 0x00, 0x34, 0x00, 0x00, 0x37, 0x00, 0x09, 0x30, 0x36, 0x00, 0x34,
	0x37, 0x01, 0x37, 0x39, 0x81, 0x0F, 0xB0, 0x40, 0x7F, 0x3E, 0x90, 0x30,
	0x00, 0x00, 0x34, 0x00, 0x0A, 0x30, 0x29, 0x00, 0x34, 0x3A, 0x81, 0x45,
	0x2D, 0x00, 0x08, 0x30, 0x00, 0x00, 0x48, 0x00, 0x04, 0x2D, 0x2F, 0x00,
	0x48, 0x49, 0x03, 0x30, 0x2B, 0x81, 0x40, 0x2D, 0x00, 0x00, 0x34, 0x00,
	0x08, 0x30, 0x00, 0x00, 0x48, 0x00, 0x03, 0x2D, 0x35, 0x00, 0x34, 0x40,
	0x02, 0x48, 0x4C, 0x01, 0x30, 0x2F, 0x81, 0x49, 0x4A, 0x49, 0x01, 0x2D,
	0x00, 0x00, 0x30, 0x00, 0x00, 0x34, 0x00, 0x02, 0x2B, 0x3C, 0x02, 0x30,
	0x36, 0x03, 0x2B, 0x00, 0x00, 0x34, 0x39, 0x01, 0x2D, 0x3B, 0x20, 0x45,
	0x00, 0x01, 0x4D, 0x00, 0x01, 0x43, 0x00, 0x04, 0x39, 0x00, 0x00, 0x4F,
	0x00, 0x0F, 0x29, 0x00, 0x00, 0x37, 0x00, 0x00, 0x41, 0x00, 0x81, 0x12,
	0x2D, 0x00, 0x00, 0x35, 0x00, 0x00, 0x4A, 0x00, 0x09, 0x2D, 0x33, 0x00,
	0x35, 0x34, 0x01, 0x4A, 0x42, 0x81, 0x4D, 0x48, 0x00, 0x04, 0x26, 0x43,
	0x00, 0x48, 0x45, 0x32, 0xB0, 0x40, 0x00, 0x54, 0x40, 0x7F, 0x3E, 0x90,
	0x2D, 0x00, 0x0A, 0x4D, 0x4F, 0x01, 0x2D, 0x3C, 0x81, 0x4C, 0x2D, 0x00,
	0x00, 0x35, 0x00, 0x05, 0x32, 0x37, 0x00, 0x2D, 0x35, 0x03, 0x35, 0x3C,
	0x81, 0x47, 0x2D, 0x00, 0x00, 0x32, 0x00, 0x00, 0x35, 0x00, 0x05, 0x35,
	0x30, 0x01, 0x2D, 0x32, 0x03, 0x32, 0x28, 0x81, 0x46, 0x2D, 0x00, 0x00,
	0x35, 0x00, 0x00, 0x4D, 0x00, 0x0A, 0x4D, 0x46, 0x01, 0x35, 0x2F, 0x01,
	0x2D, 0x2F, 0x81, 0x44, 0x4D, 0x00, 0x07, 0x2D, 0x00, 0x00, 0x35, 0x00,
	0x04, 0x4D, 0x49, 0x00, 0x2D, 0x38, 0x00, 0x35, 0x32, 0x81, 0x4C, 0x2D,
	0x00, 0x00, 0x32, 0x00, 0x00, 0x35, 0x00, 0x05, 0x35, 0x3B, 0x02, 0x30,
	0x00, 0x02, 0x32, 0x37, 0x01, 0x2D, 0x37, 0x00, 0x4C, 0x45, 0x24, 0x26,
	0x00, 0x81, 0x21, 0x32, 0x00, 0x00, 0x35, 0x00, 0x00, 0x4A, 0x00, 0x08,
	0x2D, 0x00, 0x02, 0x32, 0x2D, 0x00, 0x35, 0x30, 0x01, 0x4A, 0x42, 0x01,
	0x2D, 0x2E, 0x81, 0x43, 0x2D, 0x00, 0x00, 0x4C, 0x00, 0x08, 0x32, 0x00,
	0x00, 0x35, 0x00, 0x03, 0x2D, 0x3A, 0x00, 0x4C, 0x43, 0x01, 0x32, 0x2C,
	0x02, 0x35, 0x34, 0x81, 0x2B, 0x4D, 0x00, 0x17, 0x48, 0x00, 0x08, 0x2D,
	0x00, 0x00, 0x34, 0x00, 0x03, 0x48, 0x4F, 0x01, 0x2D, 0x37, 0x01, 0x34,
	0x40, 0x38, 0xB0, 0x40, 0x00, 0x81, 0x0A, 0x90, 0x2D, 0x00, 0x00, 0xB0,
	0x40, 0x7F, 0x09, 0x90, 0x29, 0x37, 0x01, 0x2D, 0x39, 0x01, 0x30, 0x31,
	0x07, 0x3C, 0x2E, 0x15, 0xB0, 0x40, 0x00, 0x07, 0x90, 0x29, 0x00, 0x4D,
	0xB0, 0x40, 0x7F, 0x5C, 0x90, 0x34, 0x00, 0x08, 0x2D, 0x00, 0x00, 0x30,
	0x00, 0x02, 0x34, 0x3B, 0x03, 0x2D, 0x2E, 0x04, 0x30, 0x24, 0x81, 0x3F,
	0x48, 0x00, 0x05, 0x2E, 0x2D, 0x02, 0x29, 0x32, 0x04, 0x48, 0x49, 0x23,
	0x4A, 0x00, 0x81, 0x29, 0x2D, 0x00, 0x00, 0x34, 0x00, 0x00, 0x48, 0x00,
	0x08, 0x2D, 0x32, 0x01, 0x34, 0x3D, 0x02, 0x48, 0x4B, 0x81, 0x44, 0x2D,
	0x00, 0x00, 0x30, 0x00, 0x00, 0x32, 0x00, 0x00, 0x35, 0x00, 0x05, 0x30,
	0x35, 0x03, 0x45, 0x47, 0x02, 0x2D, 0x39, 0x01, 0x35, 0x33, 0x07, 0x3C,
	0x00, 0x1C, 0x29, 0x00, 0x00, 0x2E, 0x00, 0x81, 0x21, 0x2D, 0x00, 0x00,
	0x45, 0x00, 0x07, 0x51, 0x3C, 0x01, 0x2D, 0x35, 0x03, 0x45, 0x43, 0x81,
	0x49, 0x43, 0x43, 0x02, 0x2E, 0x41, 0x01, 0x35, 0x00, 0x01, 0x4F, 0x3B,
	0x05, 0x35, 0x32, 0x47, 0xB0, 0x40, 0x00, 0x81, 0x03, 0x90, 0x2E, 0x00,
	0x06, 0x32, 0x3D, 0x04, 0x2E, 0x3A, 0x01, 0x4D, 0x48, 0x00, 0x41, 0x41,
	0x81, 0x44, 0x2E, 0x00, 0x00, 0x32, 0x00, 0x00, 0x35, 0x00, 0x00, 0x41,
	0x00, 0x04, 0x2E, 0x39, 0x02, 0x35, 0x38, 0x03, 0x32, 0x2F, 0x03, 0x41,
	0x31, 0x81, 0x34, 0xB0, 0x40, 0x7F, 0x08, 0x90, 0x32, 0x00, 0x07, 0x2E,
	0x00, 0x00, 0x35, 0x00, 0x04, 0x32, 0x36, 0x01, 0x35, 0x2E, 0x01, 0x2E,
	0x2B, 0x21, 0xB0, 0x40, 0x00, 0x54, 0x40, 0x7F, 0x27, 0x40, 0x00, 0x26,
	0x90, 0x2E, 0x00, 0x08, 0x32, 0x00, 0x00, 0x35, 0x00, 0x00, 0x41, 0x00,
	0x00, 0x4D, 0x00, 0x01, 0x2E, 0x2F, 0x03, 0x32, 0x30, 0x01, 0x35, 0x32,
	0x05, 0x41, 0x38, 0x00, 0x4D, 0x3A, 0x1C, 0xB0, 0x40, 0x7F, 0x81, 0x31,
	0x90, 0x2E, 0x00, 0x00, 0x32, 0x00, 0x00, 0x35, 0x00, 0x00, 0x4D, 0x00,
	0x04, 0x32, 0x36, 0x03, 0x2E, 0x32, 0x01, 0x41, 0x00, 0x03, 0x35, 0x36,
	0x00, 0x4D, 0x42, 0x01, 0x41, 0x3C, 0x04, 0x4A, 0x36, 0x81, 0x38, 0x4A,
	0x00, 0x07, 0x2E, 0x00, 0x00, 0x35, 0x00, 0x00, 0x43, 0x00, 0x00, 0x4F,
	0x00, 0x05, 0x2E, 0x3C, 0x04, 0x43, 0x47, 0x00, 0x35, 0x3A, 0x01, 0x4F,
	0x41, 0x81, 0x46, 0x30, 0x00, 0x00, 0x43, 0x00, 0x00, 0x4F, 0x00, 0x04,
	0x2B, 0x2E, 0x03, 0x4F, 0x3B, 0x00, 0x30, 0x2A, 0x03, 0x43, 0x42, 0x01,
	0x37, 0x38, 0x0C, 0x37, 0x00, 0x07, 0xB0, 0x40, 0x00, 0x81, 0x31, 0x90,
	0x34, 0x00, 0x0F, 0x35, 0x00, 0x00, 0x41, 0x00, 0x00, 0x4D, 0x00, 0x04,
	0x4D, 0x3A, 0x00, 0x41, 0x32, 0x00, 0x29, 0x3D, 0x02, 0x35, 0x34, 0x47,
	0x51, 0x00, 0x7B, 0x30, 0x00, 0x00, 0x35, 0x00, 0x00, 0x45, 0x00, 0x08,
	0x29, 0x00, 0x00, 0x51, 0x43, 0x01, 0x30, 0x3C, 0x00, 0x35, 0x2F, 0x01,
	0x45, 0x4B, 0x02, 0x29, 0x34, 0x50, 0x2B, 0x00, 0x73, 0x29, 0x00, 0x00,
	0x2D, 0x00, 0x00, 0x35, 0x00, 0x00, 0x48, 0x00, 0x07, 0x2D, 0x3D, 0x02,
	0x39, 0x42, 0x00, 0x48, 0x51, 0x01, 0x35, 0x3E, 0x01, 0x29, 0x3C, 0x81,
	0x45, 0x30, 0x00, 0x00, 0x35, 0x00, 0x00, 0x48, 0x00, 0x05, 0x30, 0x3A,
	0x03, 0x48, 0x49, 0x03, 0x35, 0x33, 0x01, 0x3C, 0x3C, 0x81, 0x2C, 0xB0,
	0x40, 0x7F, 0x1F, 0x90, 0x45, 0x00, 0x00, 0x51, 0x00, 0x07, 0x39, 0x00,
	0x02, 0x45, 0x41, 0x01, 0x51, 0x39, 0x03, 0x39, 0x39, 0x81, 0x42, 0x30,
	0x00, 0x07, 0x30, 0x3A, 0x01, 0x29, 0x00, 0x00, 0x35, 0x00, 0x00, 0x41,
	0x00, 0x00, 0x4D, 0x00, 0x04, 0x4D, 0x3E, 0x01, 0x41, 0x3A, 0x02, 0x35,
	0x35, 0x01, 0x29, 0x35, 0x0F, 0xB0, 0x40, 0x00, 0x81, 0x29, 0x90, 0x39,
	0x00, 0x07, 0x2D, 0x00, 0x00, 0x30, 0x00, 0x00, 0x35, 0x00, 0x04, 0x39,
	0x39, 0x01, 0x35, 0x3A, 0x03, 0x41, 0x00, 0x00, 0x4C, 0x00, 0x01, 0x2D,
	0x38, 0x03, 0x30, 0x2F, 0x05, 0x41, 0x32, 0x81, 0x3F, 0x4D, 0x00, 0x08,
	0x35, 0x00, 0x00, 0x41, 0x00, 0x03, 0x4D, 0x3C, 0x01, 0x41, 0x34, 0x06,
	0x35, 0x2F, 0x81, 0x45, 0x2E, 0x00, 0x00, 0x41, 0x00, 0x00, 0x4D, 0x00,
	0x0A, 0x2E, 0x3F, 0x00, 0x4D, 0x3E, 0x01, 0x41, 0x39, 0x81, 0x26, 0x43,
	0x00, 0x00, 0x4F, 0x00, 0x1E, 0x32, 0x00, 0x09, 0x4F, 0x42, 0x02, 0x43,
	0x4E, 0x00, 0x32, 0x3E, 0x61, 0xB0, 0x40, 0x7F, 0x64, 0x90, 0x2E, 0x00,
	0x00, 0x43, 0x00, 0x00, 0x4F, 0x00, 0x07, 0x35, 0x00, 0x03, 0x2E, 0x3E,
	0x00, 0x43, 0x4F, 0x00, 0x4F, 0x43, 0x02, 0x35, 0x3A, 0x5F, 0x43, 0x00,
	0x00, 0x4F, 0x00, 0x0B, 0x43, 0x4C, 0x00, 0x4F, 0x3F, 0x0C, 0xB0, 0x40,
	0x00, 0x55, 0x90, 0x32, 0x00, 0x08, 0x32, 0x39, 0x81, 0x4F, 0x32, 0x00,
	0x00, 0x35, 0x00, 0x00, 0x41, 0x00, 0x00, 0x4D, 0x00, 0x04, 0x32, 0x2D,
	0x02, 0x4D, 0x3B, 0x01, 0x41, 0x39, 0x00, 0x35, 0x32, 0x27, 0xB0, 0x40,
	0x7F, 0x81, 0x19, 0x90, 0x32, 0x00, 0x00, 0x4D, 0x00, 0x08, 0x41, 0x00,
	0x02, 0x32, 0x3B, 0x02, 0x4D, 0x41, 0x01, 0x41, 0x3B, 0x02, 0x4A, 0x38,
	0x08, 0x4A, 0x00, 0x81, 0x40, 0x2E, 0x00, 0x00, 0x35, 0x00, 0x04, 0x4A,
	0x41, 0x00, 0x3E, 0x48, 0x01, 0x2E, 0x3B, 0x02, 0x35, 0x3C, 0x20, 0xB0,
	0x40, 0x00, 0x7B, 0x40, 0x7F, 0x2E, 0x90, 0x45, 0x00, 0x07, 0x51, 0x00,
	0x04, 0x45, 0x47, 0x01, 0x51, 0x3C, 0x81, 0x43, 0x30, 0x00, 0x00, 0x45,
	0x00, 0x08, 0x51, 0x00, 0x02, 0x45, 0x43, 0x00, 0x4C, 0x3A, 0x01, 0x30,
	0x41, 0x03, 0x51, 0x37, 0x01, 0x2D, 0x00, 0x1F, 0xB0, 0x40, 0x00, 0x81,
	0x21, 0x40, 0x7F, 0x08, 0x90, 0x4C, 0x00, 0x05, 0x34, 0x3F, 0x03, 0xB0,
	0x40, 0x00, 0x01, 0x90, 0x4C, 0x31, 0x5B, 0xB0, 0x40, 0x7F, 0x64, 0x90,
	0x43, 0x00, 0x00, 0x4F, 0x00, 0x0A, 0x4F, 0x42, 0x01, 0x43, 0x4C, 0x00,
	0x37, 0x40, 0x81, 0x4C, 0x34, 0x00, 0x09, 0x34, 0x38, 0x81, 0x46, 0x3C,
	0x00, 0x08, 0x30, 0x00, 0x03, 0x3C, 0x42, 0x01, 0x2B, 0x35, 0x01, 0x24,
	0x38, 0x00, 0x30, 0x32, 0x03, 0x48, 0x00, 0x04, 0x48, 0x41, 0x03, 0xB0,
	0x40, 0x00, 0x23, 0x90, 0x51, 0x00, 0x04, 0x41, 0x00, 0x26, 0x4A, 0x00,
	0x0F, 0x4D, 0x00, 0x64, 0x45, 0x00, 0x04, 0x45, 0x49, 0x00, 0x51, 0x3B,
	0x0C, 0x4F, 0x00, 0x6B, 0xB0, 0x40, 0x7F, 0x55, 0x90, 0x30, 0x00, 0x04,
	0x30, 0x27, 0x04, 0x52, 0x40, 0x02, 0x46, 0x48, 0x01, 0x4D, 0x3B, 0x58,
	0x46, 0x00, 0x00, 0x52, 0x00, 0x0B, 0x46, 0x41, 0x00, 0x52, 0x3C, 0x87,
	0x35, 0x29, 0x00, 0x18, 0x2E, 0x00, 0x00, 0x32, 0x00, 0x00, 0x35, 0x00,
	0x00, 0x3E, 0x00, 0x00, 0x48, 0x00, 0x00, 0x4C, 0x00, 0x81, 0x11, 0x43,
	0x00, 0x17, 0x39, 0x00, 0x00, 0x45, 0x00, 0x00, 0x51, 0x00, 0x0B, 0x51,
	0x43, 0x00, 0x45, 0x4C, 0x01, 0x29, 0x3D, 0x08, 0x35, 0x2F, 0x36, 0xB0,
	0x40, 0x00, 0x22, 0x40, 0x7F, 0x6C, 0x90, 0x30, 0x00, 0x02, 0x43, 0x4C,
	0x01, 0x4F, 0x40, 0x01, 0x30, 0x40, 0x03, 0x4F, 0x00, 0x81, 0x48, 0x29,
	0x00, 0x08, 0x35, 0x00, 0x00, 0x4D, 0x00, 0x02, 0x54, 0x46, 0x00, 0x29,
	0x3D, 0x02, 0x4D, 0x43, 0x00, 0x41, 0x46, 0x01, 0x35, 0x41, 0x02, 0x54,
	0x00, 0x81, 0x40, 0x30, 0x00, 0x03, 0x39, 0x41, 0x06, 0x30, 0x34, 0x81,
	0x47, 0x29, 0x00, 0x00, 0x30, 0x00, 0x00, 0x3C, 0x00, 0x09, 0x3C, 0x3F,
	0x01, 0x29, 0x37, 0x00, 0x30, 0x36, 0x01, 0x54, 0x3B, 0x04, 0x54, 0x00,
	0x02, 0x48, 0x3E, 0x81, 0x46, 0x39, 0x00, 0x00, 0x51, 0x00, 0x04, 0x39,
	0x44, 0x03, 0x45, 0x00, 0x03, 0x51, 0x36, 0x07, 0x45, 0x37, 0x08, 0x34,
	0x00, 0x71, 0x52, 0x00, 0x17, 0x2B, 0x00, 0x2E, 0x35, 0x00, 0x00, 0x41,
	0x00, 0x09, 0x35, 0x40, 0x02, 0x41, 0x34, 0x81, 0x44, 0x30, 0x00, 0x08,
	0x30, 0x3E, 0x00, 0x3C, 0x00, 0x05, 0x3C, 0x2D, 0x81, 0x3B, 0x46, 0x00,
	0x08, 0x29, 0x00, 0x00, 0x35, 0x00, 0x09, 0x35, 0x3F, 0x00, 0x29, 0x40,
	0x81, 0x4E, 0x30, 0x00, 0x00, 0x41, 0x00, 0x00, 0x4D, 0x00, 0x07, 0x30,
	0x35, 0x00, 0x35, 0x00, 0x01, 0x59, 0x40, 0x01, 0x54, 0x44, 0x01, 0x4D,
	0x43, 0x01, 0x41, 0x3F, 0x04, 0x59, 0x00, 0x04, 0x35, 0x36, 0x13, 0x45,
	0x00, 0x00, 0x51, 0x00, 0x08, 0x45, 0x48, 0x02, 0x51, 0x39, 0x24, 0x48,
	0x00, 0x00, 0x54, 0x00, 0x05, 0x48, 0x4C, 0x05, 0x54, 0x41, 0x14, 0xB0,
	0x40, 0x00, 0x01, 0x90, 0x4D, 0x00, 0x08, 0x59, 0x42, 0x03, 0x4D, 0x4E,
	0x2B, 0x59, 0x00, 0x07, 0x43, 0x00, 0x08, 0x24, 0x00, 0x00, 0x37, 0x00,
	0x81, 0x21, 0xB0, 0x40, 0x7F, 0x83, 0x55, 0x90, 0x54, 0x00, 0x8E, 0x5F,
	0xB0, 0x40, 0x00, 0x11, 0x90, 0x39, 0x00, 0x10, 0x35, 0x00, 0x00, 0x3C,
	0x00, 0x83, 0x36, 0x30, 0x00, 0x45, 0x4D, 0x00, 0x1E, 0x51, 0x00, 0x46,
	0x29, 0x00, 0x82, 0x61, 0x41, 0x00, 0x00, 0x45, 0x00, 0x00, 0x48, 0x00,
	0x01, 0xFF, 0x2F, 0x00
};
